<svg width="16" height="16" viewBox="0 0 16 16" fill="none" xmlns="http://www.w3.org/2000/svg">
<path d="M6.15348 6H4.79997C4.05323 6 3.67958 6 3.39437 6.14532C3.14349 6.27316 2.93966 6.47698 2.81183 6.72786C2.6665 7.01308 2.6665 7.38673 2.6665 8.13346V11.8668C2.6665 12.6135 2.6665 12.9867 2.81183 13.2719C2.93966 13.5228 3.14349 13.727 3.39437 13.8548C3.67931 14 4.05252 14 4.7978 14H11.2019C11.9472 14 12.3198 14 12.6048 13.8548C12.8556 13.727 13.0602 13.5228 13.188 13.2719C13.3332 12.987 13.3332 12.6143 13.3332 11.8691V8.13127C13.3332 7.386 13.3332 7.0128 13.188 6.72786C13.0602 6.47698 12.8557 6.27316 12.6048 6.14532C12.3196 6 11.9467 6 11.2 6H9.84579M6.15348 6H9.84579M6.15348 6C6.06852 6 5.99984 5.93112 5.99984 5.84615V4C5.99984 2.89543 6.89527 2 7.99984 2C9.10441 2 9.99984 2.89543 9.99984 4V5.84615C9.99984 5.93112 9.93076 6 9.84579 6" stroke="#DCDCDC" stroke-width="2" stroke-linecap="round" stroke-linejoin="round"/>
<circle cx="7.99984" cy="10.0001" r="1.33333" fill="#DCDCDC"/>
</svg>
