<svg width="50" height="50" viewBox="0 0 50 50" fill="none" xmlns="http://www.w3.org/2000/svg">
<path d="M7.99902 42.501H42.999" stroke="#494949" stroke-width="2.60417" stroke-linecap="round" stroke-linejoin="round"/>
<path d="M25.499 14.5C16.8015 14.5 9.74902 21.5525 9.74902 30.25V42.5H41.249V30.25C41.249 21.5525 34.1965 14.5 25.499 14.5Z" fill="#FF3B2F" stroke="#494949" stroke-width="2.60417" stroke-linecap="round" stroke-linejoin="round"/>
<path d="M25.5 7.49902V9.24902" stroke="#494949" stroke-width="2.60417" stroke-linecap="round" stroke-linejoin="round"/>
<path d="M11.501 11.001L13.251 12.751" stroke="#494949" stroke-width="2.60417" stroke-linecap="round" stroke-linejoin="round"/>
<path d="M39.5 11.001L37.75 12.751" stroke="#494949" stroke-width="2.60417" stroke-linecap="round" stroke-linejoin="round"/>
<path d="M21.6502 24.9188C21.2274 22.8051 22.8441 20.833 24.9997 20.833C27.1552 20.833 28.7719 22.8051 28.3492 24.9188L27.4916 29.2068C27.254 30.3946 26.211 31.2497 24.9997 31.2497C23.7883 31.2497 22.7453 30.3946 22.5078 29.2068L21.6502 24.9188Z" fill="white"/>
<circle cx="25.0003" cy="35.4163" r="2.08333" fill="white"/>
</svg>
