<svg width="46" height="46" viewBox="0 0 46 46" fill="none" xmlns="http://www.w3.org/2000/svg">
<path d="M7.0293 38.9717H38.9737" stroke="#494949" stroke-width="2.39583" stroke-linecap="round" stroke-linejoin="round"/>
<path d="M23.001 13.416C15.0628 13.416 8.62598 19.8528 8.62598 27.791V38.9716H37.376V27.791C37.376 19.8528 30.9392 13.416 23.001 13.416Z" stroke="#494949" stroke-width="2.39583" stroke-linecap="round" stroke-linejoin="round"/>
<path d="M23.001 7.02832V8.62554" stroke="#494949" stroke-width="2.39583" stroke-linecap="round" stroke-linejoin="round"/>
<path d="M10.2227 10.2217L11.8199 11.8189" stroke="#494949" stroke-width="2.39583" stroke-linecap="round" stroke-linejoin="round"/>
<path d="M35.7779 10.2217L34.1807 11.8189" stroke="#494949" stroke-width="2.39583" stroke-linecap="round" stroke-linejoin="round"/>
<path d="M19.9188 22.9259C19.5298 20.9813 21.0172 19.167 23.0003 19.167C24.9834 19.167 26.4708 20.9813 26.0819 22.9259L25.2929 26.8709C25.0743 27.9637 24.1148 28.7503 23.0003 28.7503C21.8859 28.7503 20.9263 27.9637 20.7078 26.8709L19.9188 22.9259Z" fill="#494949"/>
<circle cx="22.9997" cy="32.5837" r="1.91667" fill="#494949"/>
</svg>
