<svg viewBox="0 0 107 107" fill="none" xmlns="http://www.w3.org/2000/svg">
<path fill-rule="evenodd" clip-rule="evenodd" d="M53.5006 0.291016C24.2637 0.291016 0.5625 23.9922 0.5625 53.2291C0.5625 82.466 24.2637 106.167 53.5006 106.167C82.7374 106.167 106.439 82.466 106.439 53.2291C106.439 23.9922 82.7374 0.291016 53.5006 0.291016Z" fill="#8100B3"/>
<path fill-rule="evenodd" clip-rule="evenodd" d="M85.659 30.9196C87.1014 32.362 87.1014 34.7005 85.659 36.1428L46.2633 75.5386C44.8209 76.9809 42.4824 76.9809 41.0401 75.5386L23.8044 58.303C22.3621 56.8606 22.3621 54.5221 23.8044 53.0798C25.2468 51.6374 27.5853 51.6374 29.0276 53.0798L43.6517 67.7038L80.4358 30.9196C81.8782 29.4773 84.2167 29.4773 85.659 30.9196Z" fill="#F9F9F9"/>
</svg>
