<svg width="20" height="16" viewBox="0 0 20 16" fill="none" xmlns="http://www.w3.org/2000/svg">
<path d="M8.5961 2.64021L6.23164 5.76701C6.15272 5.87143 6.04102 5.94446 5.9156 5.97364C5.79017 6.00281 5.65879 5.98633 5.54386 5.92701L3.18274 4.71217C3.32622 4.38902 3.36855 4.02799 3.30387 3.67901C3.23919 3.33003 3.07069 3.01034 2.82167 2.76415C2.57265 2.51795 2.25542 2.35741 1.91383 2.30473C1.57225 2.25205 1.22319 2.30982 0.914919 2.47006C0.606648 2.63031 0.354395 2.8851 0.19304 3.19922C0.0316845 3.51334 -0.0308015 3.87125 0.0142215 4.22349C0.0592446 4.57572 0.209553 4.90487 0.444362 5.16541C0.679172 5.42596 0.986883 5.60503 1.32495 5.67787L3.20496 14.8663C3.27079 15.1873 3.44202 15.4752 3.68988 15.6816C3.93774 15.8881 4.24714 16.0005 4.56608 16H15.435C15.7538 16.0002 16.0629 15.8877 16.3106 15.6813C16.5582 15.4748 16.7292 15.1871 16.795 14.8663L18.6751 5.67787C19.0131 5.60503 19.3208 5.42596 19.5556 5.16541C19.7904 4.90487 19.9408 4.57572 19.9858 4.22349C20.0308 3.87125 19.9683 3.51334 19.807 3.19922C19.6456 2.8851 19.3934 2.63031 19.0851 2.47006C18.7768 2.30982 18.4277 2.25205 18.0862 2.30473C17.7446 2.35741 17.4273 2.51795 17.1783 2.76415C16.9293 3.01034 16.7608 3.33003 16.6961 3.67901C16.6314 4.02799 16.6738 4.38902 16.8173 4.71217L14.455 5.92701C14.3401 5.98633 14.2087 6.00281 14.0833 5.97364C13.9579 5.94446 13.8462 5.87143 13.7672 5.76701L11.4028 2.63906C11.5641 2.38003 11.6548 2.08112 11.6651 1.77367C11.6755 1.46622 11.6052 1.16157 11.4617 0.891662C11.3182 0.62176 11.1067 0.396555 10.8494 0.23967C10.5921 0.0827843 10.2985 0 9.99944 0C9.70035 0 9.40676 0.0827843 9.14948 0.23967C8.89221 0.396555 8.68071 0.62176 8.53719 0.891662C8.39367 1.16157 8.3234 1.46622 8.33377 1.77367C8.34413 2.08112 8.43475 2.38118 8.5961 2.64021ZM9.99944 12.5715C9.78057 12.5715 9.56385 12.5271 9.36164 12.441C9.15942 12.3548 8.97569 12.2286 8.82093 12.0694C8.66616 11.9102 8.54339 11.7212 8.45964 11.5132C8.37588 11.3053 8.33277 11.0823 8.33277 10.8572C8.33277 10.6321 8.37588 10.4092 8.45964 10.2012C8.54339 9.99322 8.66616 9.80424 8.82093 9.64506C8.97569 9.48587 9.15942 9.3596 9.36164 9.27345C9.56385 9.1873 9.78057 9.14296 9.99944 9.14296C10.4415 9.14296 10.8654 9.32357 11.178 9.64506C11.4905 9.96654 11.6661 10.4026 11.6661 10.8572C11.6661 11.3119 11.4905 11.7479 11.178 12.0694C10.8654 12.3909 10.4415 12.5715 9.99944 12.5715Z" fill="#BA00FF"/>
</svg>
