<svg  viewBox="0 0 17 17" fill="none" xmlns="http://www.w3.org/2000/svg">
<path d="M8.60889 11.7676V13.2926" stroke="white" stroke-linecap="round" stroke-linejoin="round"/>
<path d="M4.97803 15.7626H12.24V15.0364C12.24 14.2376 11.5865 13.584 10.7876 13.584H6.43043C5.63161 13.584 4.97803 14.2376 4.97803 15.0364V15.7626V15.7626Z" stroke="white" stroke-miterlimit="10"/>
<path d="M4.25171 15.7617H12.9661" stroke="white" stroke-linecap="round" stroke-linejoin="round"/>
<path d="M8.49991 11.4051C5.68951 11.4051 3.4165 9.13209 3.4165 6.32169V4.14309C3.4165 2.53818 4.7164 1.23828 6.32131 1.23828H10.6785C12.2834 1.23828 13.5833 2.53818 13.5833 4.14309V6.32169C13.5833 9.13209 11.3103 11.4051 8.49991 11.4051Z" stroke="white" stroke-linecap="round" stroke-linejoin="round"/>
<path d="M3.75723 8.24463C3.21258 8.07034 2.73328 7.75081 2.35566 7.37319C1.70208 6.64699 1.26636 5.77554 1.26636 4.75886C1.26636 3.74218 2.06518 2.94336 3.08186 2.94336H3.55389C3.40865 3.27741 3.33603 3.64777 3.33603 4.03266V6.21127C3.33603 6.93747 3.48853 7.6201 3.75723 8.24463Z" stroke="white" stroke-linecap="round" stroke-linejoin="round"/>
<path d="M13.2419 8.24463C13.7866 8.07034 14.2659 7.75081 14.6435 7.37319C15.2971 6.64699 15.7328 5.77554 15.7328 4.75886C15.7328 3.74218 14.934 2.94336 13.9173 2.94336H13.4453C13.5905 3.27741 13.6631 3.64777 13.6631 4.03266V6.21127C13.6631 6.93747 13.5106 7.6201 13.2419 8.24463Z" stroke="white" stroke-linecap="round" stroke-linejoin="round"/>
</svg>
