<svg width="318" height="402" viewBox="0 0 318 402" fill="none" xmlns="http://www.w3.org/2000/svg">
<ellipse cx="161.425" cy="150.282" rx="105.955" ry="102.514" fill="#97FFF5" fill-opacity="0.2"/>
<ellipse cx="88.1575" cy="98.4417" rx="9.83799" ry="28.2087" transform="rotate(35.6332 88.1575 98.4417)" fill="url(#paint0_radial_2944_14944)"/>
<path d="M182.601 104.952C182.601 102.558 182.006 0.529297 229.75 0.529297C277.478 0.529297 234.522 111.509 223.193 121.649C211.863 131.789 182.616 104.937 182.616 104.937L182.601 104.952Z" fill="url(#paint1_linear_2944_14944)"/>
<path d="M193.886 98.2108C193.886 96.625 193.55 28.6924 220.663 28.6924C247.775 28.6924 223.377 102.587 216.942 109.342C210.507 116.097 193.901 98.2261 193.901 98.2261L193.886 98.2108Z" fill="#A45923"/>
<path d="M139.597 104.952C139.597 102.558 140.192 0.529297 92.4486 0.529297C44.7204 0.529297 87.6758 111.509 99.0055 121.649C110.335 131.789 139.582 104.937 139.582 104.937L139.597 104.952Z" fill="url(#paint2_linear_2944_14944)"/>
<path d="M128.313 98.2108C128.313 96.625 128.649 28.6924 101.537 28.6924C74.4247 28.6924 98.8225 102.587 105.257 109.342C111.692 116.097 128.298 98.2261 128.298 98.2261L128.313 98.2108Z" fill="#A45923"/>
<path d="M248.577 171.405C248.577 215.214 209.42 241.408 161.115 241.408C112.81 241.408 73.6533 215.214 73.6533 171.405C73.6533 127.596 112.81 82.7568 161.115 82.7568C209.42 82.7568 248.577 127.596 248.577 171.405Z" fill="#FFD900"/>
<path d="M117.383 198.694C133.671 198.694 146.876 184.579 146.876 167.168C146.876 149.756 133.671 135.641 117.383 135.641C101.094 135.641 87.8896 149.756 87.8896 167.168C87.8896 184.579 101.094 198.694 117.383 198.694Z" fill="#A45923"/>
<path d="M140.545 160.792C141.521 160.898 142.238 161.783 142.1 162.759C139.905 177.199 130.161 187.797 119.731 186.684C109.301 185.571 101.997 173.174 102.881 158.596C102.942 157.62 103.842 156.888 104.818 156.995L140.545 160.792Z" fill="white"/>
<mask id="mask0_2944_14944" style="mask-type:luminance" maskUnits="userSpaceOnUse" x="102" y="156" width="41" height="31">
<path d="M140.545 160.791C141.521 160.897 142.238 161.782 142.1 162.758C139.905 177.198 130.161 187.796 119.731 186.683C109.301 185.57 101.997 173.173 102.881 158.595C102.942 157.619 103.842 156.887 104.818 156.994L140.545 160.791Z" fill="white"/>
</mask>
<g mask="url(#mask0_2944_14944)">
<path d="M123.206 182.672C130.288 182.672 136.03 175.094 136.03 165.746C136.03 156.398 130.288 148.82 123.206 148.82C116.123 148.82 110.382 156.398 110.382 165.746C110.382 175.094 116.123 182.672 123.206 182.672Z" fill="#3E3A39"/>
</g>
<path d="M134.094 171.878C135.905 171.878 137.372 169.918 137.372 167.501C137.372 165.084 135.905 163.125 134.094 163.125C132.283 163.125 130.815 165.084 130.815 167.501C130.815 169.918 132.283 171.878 134.094 171.878Z" fill="white"/>
<path d="M169.151 177.152C169.151 182.458 165.049 186.758 160.002 186.758C154.954 186.758 150.853 182.458 150.853 177.152C150.853 171.845 169.151 171.845 169.151 177.152Z" fill="#3E3A39"/>
<path d="M160.018 193.255V179.958" stroke="#3E3A39" stroke-width="8.13598" stroke-miterlimit="10" stroke-linecap="round"/>
<path d="M77.7204 182.423H63.4824" stroke="#3E3A39" stroke-width="8.13598" stroke-miterlimit="10" stroke-linecap="round"/>
<path d="M79.7546 198.694H65.5166" stroke="#3E3A39" stroke-width="8.13598" stroke-miterlimit="10" stroke-linecap="round"/>
<path d="M242.473 182.423H256.711" stroke="#3E3A39" stroke-width="8.13598" stroke-miterlimit="10" stroke-linecap="round"/>
<path d="M238.406 198.694H254.678" stroke="#3E3A39" stroke-width="8.13598" stroke-miterlimit="10" stroke-linecap="round"/>
<path d="M286.535 249.772C276.069 266.918 239.462 273.337 222.467 274.404C217.297 263.915 212.735 241.111 235.852 233.808C258.969 226.504 265.865 220.678 266.423 218.677C267.334 212.121 270.815 198.936 277.459 198.645C284.103 198.355 285.664 204.67 285.614 207.864C288.648 203.399 297.518 198.566 308.722 214.946C319.925 231.327 298.599 244.989 286.535 249.772Z" fill="url(#paint3_linear_2944_14944)" stroke="black" stroke-opacity="0.1" stroke-width="2.034"/>
<rect width="47.3755" height="10.6977" rx="5.34885" transform="matrix(0.625328 0.780362 0.780362 -0.625328 257.721 220.998)" fill="#D9D9D9"/>
<path d="M31.6241 249.772C42.0906 266.918 78.697 273.337 95.6919 274.404C100.862 263.915 105.424 241.111 82.3072 233.808C59.1903 226.504 52.2942 220.678 51.7357 218.677C50.8257 212.121 47.3444 198.936 40.7001 198.645C34.0558 198.355 32.4952 204.67 32.5455 207.864C29.5111 203.399 20.6413 198.566 9.43762 214.946C-1.76606 231.327 19.5604 244.989 31.6241 249.772Z" fill="url(#paint4_linear_2944_14944)" stroke="black" stroke-opacity="0.1" stroke-width="2.034"/>
<rect x="60.4395" y="220.998" width="47.3755" height="10.6977" rx="5.34885" transform="rotate(128.706 60.4395 220.998)" fill="#D9D9D9"/>
<path d="M89.3706 367.252C68.0498 328.977 80.487 260.628 89.3706 231.238H231.509C239.577 287.928 246.229 320.656 231.509 367.252V382.289C242.989 382.289 246.315 394.136 246.543 400.06H181.624L178.207 352.216H144.723L141.306 400.06H73.6533C73.6533 386.937 84.1315 382.745 89.3706 382.289V367.252Z" fill="white" stroke="black" stroke-opacity="0.1" stroke-width="2.034"/>
<path d="M77.7197 304.463C144.987 317.957 180.661 318.089 240.439 304.463" stroke="#6D6D6D" stroke-width="6.10199" stroke-linecap="round"/>
<rect x="177.387" y="367.517" width="61.0199" height="10.17" rx="5.08499" fill="#D9D9D9"/>
<rect x="85.8555" y="367.517" width="61.0199" height="10.17" rx="5.08499" fill="#D9D9D9"/>
<path d="M120.434 273.953C120.434 264.966 127.719 257.681 136.706 257.681H181.453C190.44 257.681 197.725 264.966 197.725 273.953V282.938C197.725 290.897 191.973 297.754 184.076 298.744C166.074 301.001 152.191 300.905 134.208 298.69C126.259 297.711 120.434 290.832 120.434 282.823V273.953Z" fill="#D9D9D9"/>
<rect x="128.57" y="265.816" width="8.13598" height="28.4759" rx="4.06799" fill="#55BE24"/>
<rect x="138.739" y="265.816" width="8.13598" height="28.4759" rx="4.06799" fill="#FFB608"/>
<rect x="150.944" y="265.816" width="8.13598" height="28.4759" rx="4.06799" fill="#FF3B2F"/>
<rect x="183.487" y="265.816" width="6.10199" height="8.13598" rx="3.05099" fill="#1FABFF"/>
<rect x="175.352" y="267.851" width="4.06799" height="6.10199" rx="2.034" fill="#A8A8A8"/>
<rect x="183.487" y="275.986" width="6.10199" height="8.13598" rx="3.05099" fill="#1FABFF"/>
<rect x="175.352" y="275.986" width="4.06799" height="6.10199" rx="2.034" fill="#A8A8A8"/>
<path d="M183.487 172.252C189.815 168.815 204.776 162.457 213.997 164.519" stroke="#3E3A39" stroke-width="8.13598" stroke-linecap="round"/>
<path d="M182.065 172.645C188.843 170.551 204.041 167.719 210.602 173.136" stroke="#3E3A39" stroke-width="8.13598" stroke-linecap="round"/>
<path d="M159.079 196.661C160.364 196.661 161.801 197.328 163.046 198.945C164.294 200.567 165.181 202.982 165.181 205.813C165.181 208.645 164.294 211.059 163.046 212.682C161.801 214.299 160.364 214.967 159.079 214.967C157.794 214.967 156.357 214.299 155.112 212.682C153.865 211.059 152.978 208.645 152.978 205.813C152.978 202.982 153.864 200.567 155.112 198.945C156.357 197.328 157.794 196.661 159.079 196.661Z" fill="#CD382F" stroke="#3E3A39" stroke-width="8.13598"/>
<rect x="77.7197" y="229.204" width="164.754" height="22.374" rx="11.187" fill="#D9D9D9"/>
<defs>
<radialGradient id="paint0_radial_2944_14944" cx="0" cy="0" r="1" gradientUnits="userSpaceOnUse" gradientTransform="translate(88.1575 98.4417) rotate(90) scale(28.2087 9.83799)">
<stop stop-color="white" stop-opacity="0.8"/>
<stop offset="1" stop-color="white" stop-opacity="0"/>
</radialGradient>
<linearGradient id="paint1_linear_2944_14944" x1="217.185" y1="2.11515" x2="217.185" y2="125.537" gradientUnits="userSpaceOnUse">
<stop stop-color="#FFD900"/>
<stop offset="0.754808" stop-color="#F8D003"/>
<stop offset="1" stop-color="#A45923"/>
</linearGradient>
<linearGradient id="paint2_linear_2944_14944" x1="105.013" y1="2.11515" x2="105.013" y2="125.537" gradientUnits="userSpaceOnUse">
<stop stop-color="#FFD900"/>
<stop offset="0.754808" stop-color="#F8D003"/>
<stop offset="1" stop-color="#A45923"/>
</linearGradient>
<linearGradient id="paint3_linear_2944_14944" x1="249.383" y1="253.351" x2="171.523" y2="221.99" gradientUnits="userSpaceOnUse">
<stop stop-color="white"/>
<stop offset="0.822115" stop-color="#999999"/>
</linearGradient>
<linearGradient id="paint4_linear_2944_14944" x1="68.7764" y1="253.351" x2="146.636" y2="221.99" gradientUnits="userSpaceOnUse">
<stop stop-color="white"/>
<stop offset="0.822115" stop-color="#999999"/>
</linearGradient>
</defs>
</svg>
