<svg xmlns="http://www.w3.org/2000/svg" width="29" height="31" viewBox="0 0 29 31" fill="none">
<path d="M1 11C1 6.28595 1 3.92893 2.46447 2.46447C3.92893 1 6.28595 1 11 1H17.6667C22.3807 1 24.7377 1 26.2022 2.46447C27.6667 3.92893 27.6667 6.28595 27.6667 11V22.3793C27.6667 26.8515 27.6667 29.0876 26.2595 29.7715C24.8524 30.4554 23.0941 29.0739 19.5776 26.3109L18.4521 25.4267C16.4749 23.8731 15.4862 23.0963 14.3333 23.0963C13.1805 23.0963 12.1918 23.8731 10.2145 25.4267L9.0891 26.3109C5.57258 29.0739 3.81431 30.4554 2.40716 29.7715C1 29.0876 1 26.8515 1 22.3793V11Z" fill="currentColor" stroke="#494949" stroke-width="2"/>
</svg>