<svg width="401" height="409" viewBox="0 0 401 409" fill="none" xmlns="http://www.w3.org/2000/svg">
<path d="M224.268 265.66C224.268 263.132 223.64 155.426 274.041 155.426C324.425 155.426 279.079 272.581 267.119 283.286C255.159 293.991 224.284 265.643 224.284 265.643L224.268 265.66Z" fill="url(#paint0_linear_4148_9153)"/>
<path d="M236.18 258.545C236.18 256.871 235.826 185.158 264.447 185.158C293.067 185.158 267.312 263.165 260.519 270.296C253.726 277.427 236.196 258.561 236.196 258.561L236.18 258.545Z" fill="#A45923"/>
<path d="M178.869 265.66C178.869 263.132 179.497 155.426 129.096 155.426C78.7119 155.426 124.058 272.581 136.018 283.286C147.978 293.991 178.853 265.643 178.853 265.643L178.869 265.66Z" fill="url(#paint1_linear_4148_9153)"/>
<path d="M166.958 258.545C166.958 256.871 167.312 185.158 138.691 185.158C110.07 185.158 135.826 263.165 142.619 270.296C149.412 277.427 166.942 258.561 166.942 258.561L166.958 258.545Z" fill="#A45923"/>
<path d="M294.88 335.782C294.88 381.107 252.933 408.209 201.186 408.209C149.44 408.209 107.493 381.107 107.493 335.782C107.493 290.456 149.44 244.064 201.186 244.064C252.933 244.064 294.88 290.456 294.88 335.782Z" fill="#FFD900"/>
<path d="M156.155 366.083C173.403 366.083 187.386 350.8 187.386 331.947C187.386 313.094 173.403 297.811 156.155 297.811C138.906 297.811 124.924 313.094 124.924 331.947C124.924 350.8 138.906 366.083 156.155 366.083Z" fill="#A45923"/>
<path d="M141.694 324.607C140.663 324.72 139.907 325.653 140.052 326.684C142.37 341.928 152.656 353.115 163.666 351.94C174.677 350.765 182.387 337.678 181.454 322.289C181.389 321.259 180.44 320.486 179.409 320.599L141.694 324.607Z" fill="white"/>
<mask id="mask0_4148_9153" style="mask-type:luminance" maskUnits="userSpaceOnUse" x="140" y="320" width="42" height="33">
<path d="M141.694 324.605C140.663 324.718 139.907 325.651 140.052 326.682C142.37 341.926 152.656 353.113 163.666 351.938C174.677 350.763 182.387 337.676 181.454 322.287C181.389 321.257 180.44 320.484 179.409 320.597L141.694 324.605Z" fill="white"/>
</mask>
<g mask="url(#mask0_4148_9153)">
<path d="M159.996 347.705C152.52 347.705 146.459 339.705 146.459 329.837C146.459 319.968 152.52 311.969 159.996 311.969C167.473 311.969 173.534 319.968 173.534 329.837C173.534 339.705 167.473 347.705 159.996 347.705Z" fill="#3E3A39"/>
</g>
<path d="M171.963 336.31C170.052 336.31 168.502 334.242 168.502 331.69C168.502 329.139 170.052 327.07 171.963 327.07C173.874 327.07 175.424 329.139 175.424 331.69C175.424 334.242 173.874 336.31 171.963 336.31Z" fill="white"/>
<path d="M259.129 324.607C260.16 324.72 260.916 325.653 260.771 326.684C258.453 341.928 248.167 353.115 237.157 351.94C226.146 350.765 218.436 337.678 219.369 322.289C219.434 321.259 220.383 320.486 221.414 320.599L259.129 324.607Z" fill="white"/>
<mask id="mask1_4148_9153" style="mask-type:luminance" maskUnits="userSpaceOnUse" x="219" y="320" width="42" height="33">
<path d="M259.129 324.605C260.16 324.718 260.916 325.651 260.771 326.682C258.453 341.926 248.167 353.113 237.157 351.938C226.146 350.763 218.436 337.676 219.369 322.287C219.434 321.257 220.383 320.484 221.414 320.597L259.129 324.605Z" fill="white"/>
</mask>
<g mask="url(#mask1_4148_9153)">
<path d="M240.827 347.705C233.35 347.705 227.289 339.705 227.289 329.837C227.289 319.968 233.35 311.969 240.827 311.969C248.303 311.969 254.364 319.968 254.364 329.837C254.364 339.705 248.303 347.705 240.827 347.705Z" fill="#3E3A39"/>
</g>
<path d="M228.616 336.31C226.705 336.31 225.155 334.242 225.155 331.69C225.155 329.139 226.705 327.07 228.616 327.07C230.528 327.07 232.077 329.139 232.077 331.69C232.077 334.242 230.528 336.31 228.616 336.31Z" fill="white"/>
<path d="M210.07 341.881C210.07 347.483 205.739 352.022 200.411 352.022C195.083 352.022 190.753 347.483 190.753 341.881C190.753 336.279 210.07 336.279 210.07 341.881Z" fill="#3E3A39"/>
<path d="M190.292 374.043C190.292 374.043 191.188 372.931 200.427 358.879V344.842" stroke="#3E3A39" stroke-width="5.81044" stroke-miterlimit="10" stroke-linecap="round"/>
<path d="M209.901 374.043C209.901 374.043 209.312 372.931 200.072 358.879V344.842" stroke="#3E3A39" stroke-width="5.81044" stroke-miterlimit="10" stroke-linecap="round"/>
<path d="M113.304 347.199H97.3252" stroke="#3E3A39" stroke-width="5.81044" stroke-miterlimit="10" stroke-linecap="round"/>
<path d="M116.209 364.631L100.23 366.083" stroke="#3E3A39" stroke-width="5.81044" stroke-miterlimit="10" stroke-linecap="round"/>
<path d="M287.617 347.199H303.596" stroke="#3E3A39" stroke-width="5.81044" stroke-miterlimit="10" stroke-linecap="round"/>
<path d="M283.259 364.631L300.69 366.083" stroke="#3E3A39" stroke-width="5.81044" stroke-miterlimit="10" stroke-linecap="round"/>
<line x1="193.197" y1="370.413" x2="207.723" y2="370.413" stroke="#3E3A39" stroke-width="5.81044"/>
<path d="M280.354 333.008C280.354 345.443 277.427 350.076 273.817 350.076C270.207 350.076 267.28 345.443 267.28 333.008C267.28 320.573 273.361 305.045 273.817 305.045C274.273 305.045 280.354 320.573 280.354 333.008Z" fill="white"/>
<path d="M261.47 300.593C261.47 307.011 259.844 309.402 257.839 309.402C255.833 309.402 254.207 307.011 254.207 300.593C254.207 294.175 257.585 286.16 257.839 286.16C258.092 286.16 261.47 294.175 261.47 300.593Z" fill="white"/>
<ellipse cx="248.396" cy="69.7253" rx="110.398" ry="69.7253" fill="#FFB400"/>
<ellipse cx="342.816" cy="143.808" rx="23.2418" ry="17.4313" fill="#FFB400"/>
<ellipse cx="326.111" cy="181.577" rx="10.8946" ry="8.71566" fill="#FFB400"/>
<path d="M192.845 82.6002V75.8479L210.209 48.7817H220.933V75.7344H226.153V82.6002H220.933V89.8633H212.819V82.6002H192.845ZM201.47 75.7344H212.932V58.1442H212.535L201.47 75.3939V75.7344ZM247.659 90.4307C237.388 90.4307 231.147 82.7705 231.147 69.3225C231.147 55.8745 237.388 48.2142 247.659 48.2142C257.929 48.2142 264.171 55.9312 264.171 69.3225C264.171 82.8272 257.929 90.4307 247.659 90.4307ZM247.659 83.3946C252.425 83.3946 255.489 78.7985 255.432 69.3225C255.432 59.9599 252.425 55.1936 247.659 55.1936C242.892 55.1936 239.885 59.9599 239.885 69.3225C239.828 78.7985 242.892 83.3946 247.659 83.3946ZM269.391 82.6002V75.8479L286.754 48.7817H297.479V75.7344H302.699V82.6002H297.479V89.8633H289.365V82.6002H269.391ZM278.016 75.7344H289.478V58.1442H289.081L278.016 75.3939V75.7344Z" fill="white"/>
<path d="M344.865 36.3145C353.472 46.242 358.367 57.6354 358.367 69.752C358.367 108.26 308.94 139.478 247.969 139.478C198.216 139.477 156.152 118.69 142.356 90.1182C161.103 111.741 197.467 126.404 239.253 126.404C300.224 126.404 349.651 95.1878 349.651 56.6797C349.651 49.5944 347.976 42.757 344.865 36.3145Z" fill="#E5A100"/>
<defs>
<linearGradient id="paint0_linear_4148_9153" x1="260.776" y1="157.1" x2="260.776" y2="287.391" gradientUnits="userSpaceOnUse">
<stop stop-color="#FFD900"/>
<stop offset="0.754808" stop-color="#F8D003"/>
<stop offset="1" stop-color="#A45923"/>
</linearGradient>
<linearGradient id="paint1_linear_4148_9153" x1="142.36" y1="157.1" x2="142.36" y2="287.391" gradientUnits="userSpaceOnUse">
<stop stop-color="#FFD900"/>
<stop offset="0.754808" stop-color="#F8D003"/>
<stop offset="1" stop-color="#A45923"/>
</linearGradient>
</defs>
</svg>
