<svg xmlns="http://www.w3.org/2000/svg" width="139" height="166" viewBox="0 0 139 166" fill="none">
  <path d="M84.9827 72.1458C84.9827 70.4918 84.5718 0 117.558 0C150.533 0 120.855 76.676 113.028 83.682C105.2 90.6879 84.9932 72.1353 84.9932 72.1353L84.9827 72.1458Z" fill="url(#paint0_linear_4149_9919)"/>
  <path d="M92.7794 67.4914C92.7794 66.3957 92.5477 19.4609 111.279 19.4609C130.011 19.4609 113.155 70.515 108.709 75.1822C104.263 79.8493 92.79 67.5019 92.79 67.5019L92.7794 67.4914Z" fill="#A45923"/>
  <path d="M55.2712 72.1458C55.2712 70.4918 55.6821 0 22.6961 0C-10.2794 0 19.3985 76.676 27.2263 83.682C35.054 90.6879 55.2607 72.1353 55.2607 72.1353L55.2712 72.1458Z" fill="url(#paint1_linear_4149_9919)"/>
  <path d="M47.4745 67.4914C47.4745 66.3957 47.7063 19.4609 28.9745 19.4609C10.2427 19.4609 27.0992 70.515 31.5451 75.1822C35.991 79.8493 47.4639 67.5019 47.4639 67.5019L47.4745 67.4914Z" fill="#A45923"/>
  <path d="M131.197 118.039C131.197 147.704 103.744 165.441 69.8771 165.441C36.0098 165.441 8.55664 147.704 8.55664 118.039C8.55664 88.3739 36.0098 58.0117 69.8771 58.0117C103.744 58.0117 131.197 88.3739 131.197 118.039Z" fill="#FFD900"/>
  <path d="M40.405 137.871C51.6938 137.871 60.8451 127.868 60.8451 115.529C60.8451 103.19 51.6938 93.1875 40.405 93.1875C29.1162 93.1875 19.9648 103.19 19.9648 115.529C19.9648 127.868 29.1162 137.871 40.405 137.871Z" fill="#A45923"/>
  <path d="M30.9414 110.726C30.2671 110.8 29.772 111.411 29.8668 112.085C31.3839 122.062 38.1159 129.384 45.3221 128.615C52.5282 127.846 57.5747 119.281 56.9636 109.209C56.9215 108.535 56.2999 108.029 55.6256 108.103L30.9414 110.726Z" fill="white"/>
  <mask id="mask0_4149_9919" style="mask-type:luminance" maskUnits="userSpaceOnUse" x="29" y="108" width="29" height="21">
    <path d="M30.9414 110.726C30.2671 110.8 29.772 111.411 29.8668 112.085C31.3839 122.062 38.1159 129.384 45.3221 128.615C52.5282 127.846 57.5747 119.281 56.9636 109.209C56.9215 108.535 56.2999 108.029 55.6256 108.103L30.9414 110.726Z" fill="white"/>
  </mask>
  <g mask="url(#mask0_4149_9919)">
    <path d="M42.9211 125.843C38.0277 125.843 34.0609 120.608 34.0609 114.149C34.0609 107.691 38.0277 102.455 42.9211 102.455C47.8144 102.455 51.7812 107.691 51.7812 114.149C51.7812 120.608 47.8144 125.843 42.9211 125.843Z" fill="#3E3A39"/>
  </g>
  <path d="M50.7505 118.385C49.4996 118.385 48.4854 117.031 48.4854 115.362C48.4854 113.692 49.4996 112.338 50.7505 112.338C52.0015 112.338 53.0156 113.692 53.0156 115.362C53.0156 117.031 52.0015 118.385 50.7505 118.385Z" fill="white"/>
  <path d="M107.8 110.726C108.475 110.8 108.97 111.411 108.875 112.085C107.358 122.062 100.626 129.384 93.4198 128.615C86.2136 127.846 81.1672 119.281 81.7783 109.209C81.8204 108.535 82.442 108.029 83.1162 108.103L107.8 110.726Z" fill="white"/>
  <mask id="mask1_4149_9919" style="mask-type:luminance" maskUnits="userSpaceOnUse" x="81" y="108" width="28" height="21">
    <path d="M107.8 110.726C108.475 110.8 108.97 111.411 108.875 112.085C107.358 122.062 100.626 129.384 93.4198 128.615C86.2136 127.846 81.1672 119.281 81.7783 109.209C81.8204 108.535 82.442 108.029 83.1162 108.103L107.8 110.726Z" fill="white"/>
  </mask>
  <g mask="url(#mask1_4149_9919)">
    <path d="M95.8215 125.843C90.9281 125.843 86.9613 120.608 86.9613 114.149C86.9613 107.691 90.9281 102.455 95.8215 102.455C100.715 102.455 104.682 107.691 104.682 114.149C104.682 120.608 100.715 125.843 95.8215 125.843Z" fill="#3E3A39"/>
  </g>
  <path d="M87.8306 118.385C86.5796 118.385 85.5655 117.031 85.5655 115.362C85.5655 113.692 86.5796 112.338 87.8306 112.338C89.0816 112.338 90.0957 113.692 90.0957 115.362C90.0957 117.031 89.0816 118.385 87.8306 118.385Z" fill="white"/>
  <path d="M75.6912 122.031C75.6912 125.697 72.8572 128.668 69.37 128.668C65.8828 128.668 63.0488 125.697 63.0488 122.031C63.0488 118.365 75.6912 118.365 75.6912 122.031Z" fill="#3E3A39"/>
  <path d="M12.3601 125.512H1.90234" stroke="#3E3A39" stroke-width="3.80282" stroke-miterlimit="10" stroke-linecap="round"/>
  <path d="M14.2605 136.92L3.80273 137.871" stroke="#3E3A39" stroke-width="3.80282" stroke-miterlimit="10" stroke-linecap="round"/>
  <path d="M126.445 125.512H136.903" stroke="#3E3A39" stroke-width="3.80282" stroke-miterlimit="10" stroke-linecap="round"/>
  <path d="M123.592 136.92L135 137.871" stroke="#3E3A39" stroke-width="3.80282" stroke-miterlimit="10" stroke-linecap="round"/>
  <path d="M121.691 116.225C121.691 124.363 119.776 127.396 117.413 127.396C115.05 127.396 113.135 124.363 113.135 116.225C113.135 108.086 117.114 97.9238 117.413 97.9238C117.711 97.9238 121.691 108.086 121.691 116.225Z" fill="white"/>
  <path d="M109.332 95.0082C109.332 99.2087 108.268 100.774 106.955 100.774C105.642 100.774 104.578 99.2087 104.578 95.0082C104.578 90.8077 106.789 85.5625 106.955 85.5625C107.121 85.5625 109.332 90.8077 109.332 95.0082Z" fill="white"/>
  <path d="M68.9268 132.72C71.4201 132.72 74.1561 135.468 74.1562 139.85C74.1562 144.231 71.4202 146.98 68.9268 146.98C66.4334 146.98 63.6982 144.231 63.6982 139.85C63.6984 135.469 66.4335 132.72 68.9268 132.72Z" fill="#CD382F" stroke="#3E3A39" stroke-width="3.80282"/>
  <path d="M69.3809 130.876V121.689" stroke="#3E3A39" stroke-width="3.80282" stroke-miterlimit="10" stroke-linecap="round"/>
  <defs>
    <linearGradient id="paint0_linear_4149_9919" x1="108.877" y1="1.09567" x2="108.877" y2="86.3685" gradientUnits="userSpaceOnUse">
      <stop stop-color="#FFD900"/>
      <stop offset="0.754808" stop-color="#F8D003"/>
      <stop offset="1" stop-color="#A45923"/>
    </linearGradient>
    <linearGradient id="paint1_linear_4149_9919" x1="31.3772" y1="1.09567" x2="31.3772" y2="86.3685" gradientUnits="userSpaceOnUse">
      <stop stop-color="#FFD900"/>
      <stop offset="0.754808" stop-color="#F8D003"/>
      <stop offset="1" stop-color="#A45923"/>
    </linearGradient>
  </defs>
</svg>