<svg width="401" height="409" viewBox="0 0 401 409" fill="none" xmlns="http://www.w3.org/2000/svg">
<ellipse cx="248.396" cy="69.7253" rx="110.398" ry="69.7253" fill="#FFB400"/>
<ellipse cx="342.816" cy="143.808" rx="23.2418" ry="17.4313" fill="#FFB400"/>
<ellipse cx="326.111" cy="181.576" rx="10.8946" ry="8.71566" fill="#FFB400"/>
<path d="M200.907 82.6002V75.8479L218.27 48.7817H228.995V75.7344H234.215V82.6002H228.995V89.8633H220.88V82.6002H200.907ZM209.532 75.7344H220.994V58.1442H220.597L209.532 75.3939V75.7344ZM255.72 90.4307C245.45 90.4307 239.208 82.7705 239.208 69.3225C239.208 55.8745 245.45 48.2142 255.72 48.2142C265.991 48.2142 272.232 55.9312 272.232 69.3225C272.232 82.8272 265.991 90.4307 255.72 90.4307ZM255.72 83.3946C260.487 83.3946 263.551 78.7985 263.494 69.3225C263.494 59.9599 260.487 55.1936 255.72 55.1936C250.954 55.1936 247.947 59.9599 247.947 69.3225C247.89 78.7985 250.954 83.3946 255.72 83.3946ZM295.837 48.7817V89.8633H287.269V56.8958H287.042L277.623 62.7971V55.2503L287.78 48.7817H295.837Z" fill="white"/>
<path d="M213.898 267.02C213.898 264.521 213.277 158 263.123 158C312.952 158 268.105 273.866 256.277 284.453C244.448 295.04 213.914 267.004 213.914 267.004L213.898 267.02Z" fill="url(#paint0_linear_4148_9315)"/>
<path d="M225.679 259.986C225.679 258.33 225.329 187.406 253.634 187.406C281.94 187.406 256.468 264.555 249.75 271.607C243.032 278.66 225.695 260.002 225.695 260.002L225.679 259.986Z" fill="#A45923"/>
<path d="M169.001 267.02C169.001 264.521 169.621 158 119.776 158C69.9463 158 114.793 273.866 126.622 284.453C138.45 295.04 168.985 267.004 168.985 267.004L169.001 267.02Z" fill="url(#paint1_linear_4148_9315)"/>
<path d="M157.22 259.986C157.22 258.33 157.57 187.406 129.264 187.406C100.958 187.406 126.43 264.555 133.148 271.607C139.867 278.66 157.204 260.002 157.204 260.002L157.22 259.986Z" fill="#A45923"/>
<path d="M283.734 336.37C283.734 381.197 242.249 408 191.072 408C139.895 408 98.4102 381.197 98.4102 336.37C98.4102 291.543 139.895 245.662 191.072 245.662C242.249 245.662 283.734 291.543 283.734 336.37Z" fill="#FFD900"/>
<path d="M146.537 366.338C163.595 366.338 177.424 351.222 177.424 332.577C177.424 313.932 163.595 298.816 146.537 298.816C129.478 298.816 115.649 313.932 115.649 332.577C115.649 351.222 129.478 366.338 146.537 366.338Z" fill="#A45923"/>
<path d="M132.235 325.321C131.216 325.432 130.468 326.355 130.611 327.374C132.903 342.451 143.076 353.515 153.966 352.353C164.855 351.191 172.481 338.248 171.557 323.028C171.493 322.009 170.554 321.245 169.535 321.357L132.235 325.321Z" fill="white"/>
<mask id="mask0_4148_9315" style="mask-type:luminance" maskUnits="userSpaceOnUse" x="130" y="321" width="42" height="32">
<path d="M132.235 325.321C131.216 325.432 130.468 326.355 130.611 327.374C132.903 342.451 143.076 353.515 153.966 352.353C164.855 351.191 172.481 338.248 171.557 323.028C171.493 322.009 170.554 321.245 169.535 321.357L132.235 325.321Z" fill="white"/>
</mask>
<g mask="url(#mask0_4148_9315)">
<path d="M150.336 348.165C142.941 348.165 136.947 340.253 136.947 330.493C136.947 320.734 142.941 312.822 150.336 312.822C157.73 312.822 163.725 320.734 163.725 330.493C163.725 340.253 157.73 348.165 150.336 348.165Z" fill="#3E3A39"/>
</g>
<path d="M162.17 336.892C160.28 336.892 158.747 334.846 158.747 332.323C158.747 329.8 160.28 327.754 162.17 327.754C164.06 327.754 165.593 329.8 165.593 332.323C165.593 334.846 164.06 336.892 162.17 336.892Z" fill="white"/>
<path d="M248.377 325.321C249.396 325.432 250.144 326.355 250.001 327.374C247.708 342.451 237.536 353.515 226.646 352.353C215.757 351.191 208.131 338.248 209.055 323.028C209.118 322.009 210.058 321.245 211.076 321.357L248.377 325.321Z" fill="white"/>
<mask id="mask1_4148_9315" style="mask-type:luminance" maskUnits="userSpaceOnUse" x="208" y="321" width="43" height="32">
<path d="M248.377 325.321C249.396 325.432 250.144 326.355 250.001 327.374C247.708 342.451 237.536 353.515 226.646 352.353C215.757 351.191 208.131 338.248 209.055 323.028C209.118 322.009 210.058 321.245 211.076 321.357L248.377 325.321Z" fill="white"/>
</mask>
<g mask="url(#mask1_4148_9315)">
<path d="M230.275 348.165C222.881 348.165 216.887 340.253 216.887 330.493C216.887 320.734 222.881 312.822 230.275 312.822C237.67 312.822 243.664 320.734 243.664 330.493C243.664 340.253 237.67 348.165 230.275 348.165Z" fill="#3E3A39"/>
</g>
<path d="M218.199 336.892C216.309 336.892 214.776 334.846 214.776 332.323C214.776 329.8 216.309 327.754 218.199 327.754C220.09 327.754 221.622 329.8 221.622 332.323C221.622 334.846 220.09 336.892 218.199 336.892Z" fill="white"/>
<path d="M199.857 342.399C199.857 347.939 195.574 352.429 190.305 352.429C185.035 352.429 180.753 347.939 180.753 342.399C180.753 336.859 199.857 336.859 199.857 342.399Z" fill="#3E3A39"/>
<path d="M104.156 347.662H88.3535" stroke="#3E3A39" stroke-width="5.74648" stroke-miterlimit="10" stroke-linecap="round"/>
<path d="M107.029 364.902L91.2266 366.339" stroke="#3E3A39" stroke-width="5.74648" stroke-miterlimit="10" stroke-linecap="round"/>
<path d="M276.551 347.662H292.354" stroke="#3E3A39" stroke-width="5.74648" stroke-miterlimit="10" stroke-linecap="round"/>
<path d="M272.241 364.902L289.481 366.339" stroke="#3E3A39" stroke-width="5.74648" stroke-miterlimit="10" stroke-linecap="round"/>
<path d="M269.368 333.628C269.368 345.926 266.474 350.508 262.903 350.508C259.333 350.508 256.438 345.926 256.438 333.628C256.438 321.33 262.452 305.973 262.903 305.973C263.354 305.973 269.368 321.33 269.368 333.628Z" fill="white"/>
<path d="M250.692 301.568C250.692 307.916 249.084 310.281 247.1 310.281C245.117 310.281 243.509 307.916 243.509 301.568C243.509 295.221 246.85 287.295 247.1 287.295C247.351 287.295 250.692 295.221 250.692 301.568Z" fill="white"/>
<path d="M189.635 358.555C193.403 358.555 197.536 362.709 197.536 369.329C197.536 375.95 193.403 380.104 189.635 380.104C185.867 380.104 181.733 375.95 181.733 369.329C181.734 362.709 185.867 358.555 189.635 358.555Z" fill="#CD382F" stroke="#3E3A39" stroke-width="5.74648"/>
<path d="M190.321 355.769V341.887" stroke="#3E3A39" stroke-width="5.74648" stroke-miterlimit="10" stroke-linecap="round"/>
<path d="M344.865 36.3145C353.472 46.242 358.367 57.6354 358.367 69.752C358.367 108.26 308.94 139.478 247.969 139.478C198.216 139.477 156.152 118.69 142.356 90.1182C161.103 111.741 197.467 126.404 239.253 126.404C300.224 126.404 349.651 95.1878 349.651 56.6797C349.651 49.5944 347.976 42.757 344.865 36.3145Z" fill="#E5A100"/>
<defs>
<linearGradient id="paint0_linear_4148_9315" x1="250.004" y1="159.656" x2="250.004" y2="288.512" gradientUnits="userSpaceOnUse">
<stop stop-color="#FFD900"/>
<stop offset="0.754808" stop-color="#F8D003"/>
<stop offset="1" stop-color="#A45923"/>
</linearGradient>
<linearGradient id="paint1_linear_4148_9315" x1="132.894" y1="159.656" x2="132.894" y2="288.512" gradientUnits="userSpaceOnUse">
<stop stop-color="#FFD900"/>
<stop offset="0.754808" stop-color="#F8D003"/>
<stop offset="1" stop-color="#A45923"/>
</linearGradient>
</defs>
</svg>
