<svg xmlns="http://www.w3.org/2000/svg" width="106" height="106" viewBox="0 0 106 106" fill="none">
<path fill-rule="evenodd" clip-rule="evenodd" d="M52.9381 0C23.7012 0 0 23.7012 0 52.9381C0 82.1749 23.7012 105.876 52.9381 105.876C82.1749 105.876 105.876 82.1749 105.876 52.9381C105.876 23.7012 82.1749 0 52.9381 0Z" fill="#8100B3"/>
<path fill-rule="evenodd" clip-rule="evenodd" d="M85.0965 30.6286C86.5389 32.071 86.5389 34.4095 85.0965 35.8518L45.7008 75.2476C44.2584 76.6899 41.9199 76.6899 40.4776 75.2476L23.2419 58.0119C21.7996 56.5696 21.7996 54.2311 23.2419 52.7888C24.6843 51.3464 27.0228 51.3464 28.4651 52.7888L43.0892 67.4128L79.8733 30.6286C81.3157 29.1863 83.6542 29.1863 85.0965 30.6286Z" fill="#F9F9F9"/>
</svg>