<svg width="130" height="119" viewBox="0 0 130 119" fill="none" xmlns="http://www.w3.org/2000/svg">
<path d="M100.407 14.9248C100.511 33.2849 85.7109 48.2526 67.3509 48.3561C67.2473 29.9961 82.0472 15.0284 100.407 14.9248Z" fill="#DB70FF"/>
<path d="M93.1924 55.3721C85.133 68.4966 67.9601 72.6027 54.8355 64.5433C62.8949 51.4188 80.0679 47.3127 93.1924 55.3721Z" fill="#DB70FF"/>
<path d="M58.8916 24.3398C68.2299 36.5874 65.8714 54.0862 53.6239 63.4245C44.2856 51.1769 46.644 33.6781 58.8916 24.3398Z" fill="#D452FF"/>
<path d="M75.0576 75.8916C69.9495 90.4214 54.0299 98.0592 39.5001 92.9511C44.6082 78.4213 60.5278 70.7835 75.0576 75.8916Z" fill="#DB70FF"/>
<path d="M69.6953 44.7324C60.9061 52.1875 42.851 74.1575 40.9438 102.398" stroke="#DB70FF" stroke-width="1.78783" stroke-linecap="round" stroke-linejoin="round"/>
<path d="M28.3818 56.0938C42.063 63.1672 47.4195 79.9921 40.3461 93.6732C26.665 86.5998 21.3084 69.7749 28.3818 56.0938Z" fill="#D452FF"/>
</svg>
