<svg width="130" height="119" viewBox="0 0 130 119" fill="none" xmlns="http://www.w3.org/2000/svg">
<path d="M29.5938 14.9346C29.4902 33.2946 44.29 48.2623 62.6501 48.3659C62.7536 30.0058 47.9538 15.0381 29.5938 14.9346Z" fill="#DB70FF"/>
<path d="M36.7979 55.3809C44.8572 68.5054 62.0302 72.6115 75.1547 64.5521C67.0953 51.4276 49.9224 47.3215 36.7979 55.3809Z" fill="#DB70FF"/>
<path d="M71.1104 24.3496C61.7721 36.5972 64.1305 54.096 76.3781 63.4343C85.7164 51.1867 83.3579 33.6879 71.1104 24.3496Z" fill="#D452FF"/>
<path d="M54.9385 75.9023C60.0466 90.4321 75.9662 98.0699 90.496 92.9618C85.3879 78.432 69.4682 70.7943 54.9385 75.9023Z" fill="#DB70FF"/>
<path d="M60.2949 44.7402C69.0841 52.1953 87.1392 74.1653 89.0464 102.405" stroke="#DB70FF" stroke-width="1.78783" stroke-linecap="round" stroke-linejoin="round"/>
<path d="M101.615 56.1025C87.9341 63.176 82.5775 80.0009 89.651 93.682C103.332 86.6086 108.689 69.7837 101.615 56.1025Z" fill="#D452FF"/>
</svg>
