<svg width="355" height="468" viewBox="0 0 355 468" fill="none" xmlns="http://www.w3.org/2000/svg">
<path d="M18.0362 333.791C21.8876 310.683 58.6901 287.788 76.6099 279.229C86.7733 288.323 101.644 311.004 79.8194 328.977C57.9947 346.95 53.0734 356.258 53.3409 358.665C55.2131 366.154 57.1923 381.934 50.1314 385.144C43.0704 388.353 38.6306 382.201 37.2933 378.724C35.956 384.876 28.4671 393.97 9.21003 381.132C-10.0471 368.294 7.07036 344.222 18.0362 333.791Z" fill="url(#paint0_linear_5165_7196)" stroke="black" stroke-opacity="0.1"/>
<rect width="55.2503" height="12.4759" rx="6.23794" transform="matrix(-0.871602 -0.490214 -0.490214 0.871602 61.7432 352.361)" fill="#D9D9D9"/>
<path d="M196.908 121.78C196.908 118.988 196.214 0 251.893 0C307.555 0 257.46 129.427 244.247 141.252C231.034 153.078 196.925 121.762 196.925 121.762L196.908 121.78Z" fill="url(#paint1_linear_5165_7196)"/>
<path d="M210.066 113.922C210.066 112.072 209.674 32.8477 241.293 32.8477C272.912 32.8477 244.458 119.025 236.954 126.903C229.449 134.781 210.083 113.939 210.083 113.939L210.066 113.922Z" fill="#A45923"/>
<path d="M146.754 121.78C146.754 118.988 147.448 0 91.7686 0C36.107 0 86.2025 129.427 99.4154 141.252C112.628 153.078 146.737 121.762 146.737 121.762L146.754 121.78Z" fill="url(#paint2_linear_5165_7196)"/>
<path d="M133.594 113.922C133.594 112.072 133.985 32.8477 102.366 32.8477C70.7475 32.8477 99.2007 119.025 106.705 126.903C114.21 134.781 133.576 113.939 133.576 113.939L133.594 113.922Z" fill="#A45923"/>
<path d="M274.916 199.246C274.916 249.319 228.576 279.26 171.409 279.26C114.242 279.26 67.9023 249.319 67.9023 199.246C67.9023 149.172 114.242 97.9219 171.409 97.9219C228.576 97.9219 274.916 149.172 274.916 199.246Z" fill="#FFD900"/>
<path d="M121.661 232.721C140.717 232.721 156.164 215.836 156.164 195.009C156.164 174.181 140.717 157.297 121.661 157.297C102.606 157.297 87.1592 174.181 87.1592 195.009C87.1592 215.836 102.606 232.721 121.661 232.721Z" fill="#A45923"/>
<path d="M147.861 186.904C148.999 187.028 149.835 188.06 149.675 189.198C147.114 206.039 135.75 218.398 123.587 217.1C111.423 215.802 102.905 201.344 103.936 184.343C104.007 183.205 105.056 182.351 106.195 182.476L147.861 186.904Z" fill="white"/>
<mask id="mask0_5165_7196" style="mask-type:luminance" maskUnits="userSpaceOnUse" x="103" y="182" width="47" height="36">
<path d="M147.861 186.904C148.999 187.028 149.835 188.06 149.675 189.198C147.114 206.039 135.75 218.398 123.587 217.1C111.423 215.802 102.905 201.344 103.936 184.343C104.007 183.205 105.056 182.351 106.195 182.476L147.861 186.904Z" fill="white"/>
</mask>
<g mask="url(#mask0_5165_7196)">
<path d="M127.642 212.422C135.902 212.422 142.598 203.585 142.598 192.683C142.598 181.781 135.902 172.943 127.642 172.943C119.382 172.943 112.687 181.781 112.687 192.683C112.687 203.585 119.382 212.422 127.642 212.422Z" fill="#3E3A39"/>
</g>
<path d="M140.339 199.829C142.451 199.829 144.162 197.544 144.162 194.725C144.162 191.906 142.451 189.621 140.339 189.621C138.227 189.621 136.516 191.906 136.516 194.725C136.516 197.544 138.227 199.829 140.339 199.829Z" fill="white"/>
<path d="M181.222 205.984C181.222 212.173 176.438 217.188 170.552 217.188C164.666 217.188 159.882 212.173 159.882 205.984C159.882 199.796 181.222 199.796 181.222 205.984Z" fill="#3E3A39"/>
<path d="M170.569 224.765V209.258" stroke="#3E3A39" stroke-width="4" stroke-miterlimit="10" stroke-linecap="round"/>
<path d="M74.3203 211.859H56.668" stroke="#3E3A39" stroke-width="4" stroke-miterlimit="10" stroke-linecap="round"/>
<path d="M77.5303 231.117L59.8779 232.722" stroke="#3E3A39" stroke-width="4" stroke-miterlimit="10" stroke-linecap="round"/>
<path d="M266.892 211.859H284.544" stroke="#3E3A39" stroke-width="4" stroke-miterlimit="10" stroke-linecap="round"/>
<path d="M262.076 231.117L281.333 232.722" stroke="#3E3A39" stroke-width="4" stroke-miterlimit="10" stroke-linecap="round"/>
<path d="M318.117 290.667C305.911 310.663 263.22 318.149 243.4 319.393C237.37 307.16 232.05 280.566 259.01 272.049C285.969 263.531 294.012 256.736 294.663 254.404C295.724 246.758 299.784 231.381 307.533 231.042C315.282 230.703 317.102 238.068 317.043 241.793C320.582 236.586 330.926 230.949 343.992 250.052C357.058 269.155 332.186 285.088 318.117 290.667Z" fill="url(#paint3_linear_5165_7196)" stroke="black" stroke-opacity="0.1"/>
<rect width="55.2503" height="12.4759" rx="6.23794" transform="matrix(0.625328 0.780362 0.780362 -0.625328 284.513 257.109)" fill="#D9D9D9"/>
<path d="M87.9606 428.198C62.9264 383.265 77.5297 303.027 87.9606 268.524H254.855C264.328 335.075 272.139 373.496 254.855 428.198V445.85C268.335 445.85 272.24 459.758 272.508 466.712H196.282L192.27 410.546H152.953L148.941 466.712H69.5059C69.5059 451.306 81.809 446.385 87.9606 445.85V428.198Z" fill="white" stroke="black" stroke-opacity="0.1"/>
<path d="M74.3213 354.379C152.934 369.671 194.625 369.821 264.485 354.379" stroke="#6D6D6D" stroke-width="3" stroke-linecap="round"/>
<rect x="189.863" y="427.396" width="70.6094" height="12.8381" rx="6.41903" fill="#D9D9D9"/>
<rect x="85.5527" y="427.396" width="70.6094" height="12.8381" rx="6.41903" fill="#D9D9D9"/>
<path d="M124.068 308.621C124.068 304.203 127.65 300.621 132.068 300.621H207.54C211.958 300.621 215.54 304.203 215.54 308.621V340.385C215.54 344.294 212.713 347.641 208.849 348.231C179.374 352.732 160.283 352.52 130.824 348.193C126.931 347.621 124.068 344.262 124.068 340.328V308.621Z" fill="#D9D9D9"/>
<rect x="133.696" y="308.644" width="9.62855" height="32.0952" rx="4.81427" fill="#55BE24"/>
<rect x="146.533" y="308.644" width="9.62855" height="32.0952" rx="4.81427" fill="#FFB608"/>
<rect x="159.373" y="308.644" width="9.62855" height="32.0952" rx="4.81427" fill="#FF3B2F"/>
<rect x="196.282" y="308.644" width="9.62855" height="9.62855" rx="4.81427" fill="#1FABFF"/>
<rect x="186.654" y="311.853" width="6.41903" height="6.41903" rx="3.20952" fill="#A8A8A8"/>
<rect x="196.282" y="321.481" width="9.62855" height="9.62855" rx="4.81427" fill="#1FABFF"/>
<rect x="186.654" y="321.481" width="6.41903" height="6.41903" rx="3.20952" fill="#A8A8A8"/>
<path d="M169.804 226.667C174.931 226.667 179.839 232.131 179.839 239.912C179.839 247.693 174.931 253.157 169.804 253.157C164.676 253.157 159.768 247.694 159.768 239.912C159.768 232.131 164.676 226.667 169.804 226.667Z" fill="#CD382F" stroke="#3E3A39" stroke-width="4"/>
<ellipse cx="172.21" cy="174.646" rx="123.566" ry="119.554" fill="#97FFF5" fill-opacity="0.2"/>
<ellipse cx="86.7627" cy="114.19" rx="11.4733" ry="32.8975" transform="rotate(35.6332 86.7627 114.19)" fill="url(#paint4_radial_5165_7196)"/>
<path d="M196.886 199.935C204.375 195.655 222.08 187.738 232.993 190.306" stroke="#3E3A39" stroke-width="4" stroke-linecap="round"/>
<path d="M196.281 200.725C204.186 198.284 221.91 194.981 229.562 201.299" stroke="#3E3A39" stroke-width="4" stroke-linecap="round"/>
<rect x="74.3213" y="265.315" width="192.571" height="28.8856" rx="14.4428" fill="#D9D9D9"/>
<defs>
<linearGradient id="paint0_linear_5165_7196" x1="56.6669" y1="313.732" x2="154.557" y2="313.732" gradientUnits="userSpaceOnUse">
<stop stop-color="white"/>
<stop offset="0.822115" stop-color="#999999"/>
</linearGradient>
<linearGradient id="paint1_linear_5165_7196" x1="237.24" y1="1.84946" x2="237.24" y2="145.787" gradientUnits="userSpaceOnUse">
<stop stop-color="#FFD900"/>
<stop offset="0.754808" stop-color="#F8D003"/>
<stop offset="1" stop-color="#A45923"/>
</linearGradient>
<linearGradient id="paint2_linear_5165_7196" x1="106.422" y1="1.84946" x2="106.422" y2="145.787" gradientUnits="userSpaceOnUse">
<stop stop-color="#FFD900"/>
<stop offset="0.754808" stop-color="#F8D003"/>
<stop offset="1" stop-color="#A45923"/>
</linearGradient>
<linearGradient id="paint3_linear_5165_7196" x1="274.79" y1="294.84" x2="183.988" y2="258.266" gradientUnits="userSpaceOnUse">
<stop stop-color="white"/>
<stop offset="0.822115" stop-color="#999999"/>
</linearGradient>
<radialGradient id="paint4_radial_5165_7196" cx="0" cy="0" r="1" gradientUnits="userSpaceOnUse" gradientTransform="translate(86.7627 114.19) rotate(90) scale(32.8975 11.4733)">
<stop stop-color="white" stop-opacity="0.8"/>
<stop offset="1" stop-color="white" stop-opacity="0"/>
</radialGradient>
</defs>
</svg>
