<svg xmlns="http://www.w3.org/2000/svg" width="100" height="24" viewBox="0 0 100 24" fill="none">
  <path d="M78.4447 11.3138H77.5505C76.7014 11.3138 76.0871 11.088 75.7077 10.6364C75.3464 10.1847 75.1658 9.66985 75.1658 9.09174C75.1658 8.82076 75.2019 8.54977 75.2742 8.27879C75.3645 8.0078 75.5 7.76391 75.6806 7.54712C75.8794 7.33034 76.1323 7.15871 76.4394 7.03225C76.7465 6.88773 77.1169 6.81546 77.5505 6.81546H78.4447V3.99721C78.4447 3.54557 78.517 3.14812 78.6615 2.80487C78.8241 2.46163 79.0319 2.18161 79.2848 1.96482C79.5377 1.74803 79.8177 1.58544 80.1249 1.47704C80.4501 1.36865 80.7843 1.31445 81.1275 1.31445C81.4708 1.31445 81.796 1.36865 82.1031 1.47704C82.4283 1.58544 82.7173 1.74803 82.9703 1.96482C83.2232 2.18161 83.4219 2.46163 83.5664 2.80487C83.729 3.14812 83.8103 3.54557 83.8103 3.99721V6.81546H85.4092C85.8427 6.81546 86.2041 6.88773 86.4931 7.03225C86.8002 7.15871 87.0441 7.33034 87.2248 7.54712C87.4235 7.76391 87.568 8.0078 87.6584 8.27879C87.7487 8.54977 87.7939 8.82076 87.7939 9.09174C87.7939 9.66985 87.6042 10.1847 87.2248 10.6364C86.8635 11.088 86.2582 11.3138 85.4092 11.3138H83.8103V16.7516C83.8103 17.1671 83.8441 18.4317 84.0067 18.5582C84.1874 18.6846 84.3741 18.8412 84.6089 18.8593C84.8076 18.8773 85.1991 18.7449 85.3617 18.7087C85.5243 18.6545 86.1445 18.5582 86.4155 18.5582C86.8672 18.5582 87.1261 18.5883 87.4694 18.8593C87.8126 19.1303 88.1318 19.612 88.2221 20.0637C88.3486 20.6237 88.2884 21.7377 88.0716 22.1713C87.8728 22.6049 87.361 22.9057 86.8672 23.2252C86.56 23.4239 86.265 23.5684 85.6628 23.6979C85.0606 23.8273 84.627 23.8273 84.1573 23.8273C83.254 23.8273 82.4283 23.5985 81.7237 23.3998C81.0191 23.2011 80.423 22.8849 79.9352 22.4513C79.4474 22.0178 79.077 21.4487 78.8241 20.7441C78.5712 20.0396 78.4447 19.1724 78.4447 18.1427V11.3138Z" fill="url(#paint0_linear_1995_10844)"/>
  <path d="M17.9124 16.3036C17.9124 17.6766 17.6865 18.8509 17.2349 19.8265C16.7832 20.802 16.169 21.5969 15.3922 22.2111C14.6153 22.8254 13.712 23.277 12.6823 23.5661C11.6525 23.8551 10.5595 23.9996 9.40332 23.9996C8.22903 23.9996 7.07281 23.8461 5.93466 23.539C4.81457 23.2499 3.81191 22.7802 2.92668 22.1298C2.05952 21.4614 1.35494 20.6033 0.812966 19.5555C0.270989 18.5077 0 17.2431 0 15.7617V9.85418C0 8.35472 0.270989 7.08109 0.812966 6.03328C1.35494 4.98547 2.06855 4.13638 2.95378 3.48601C3.83901 2.83565 4.8507 2.36594 5.98886 2.07689C7.12701 1.76977 8.29226 1.61621 9.48461 1.61621C10.7312 1.61621 11.8693 1.74267 12.8991 1.99559C13.9288 2.24851 14.7057 2.56466 15.2296 2.94404C15.7896 3.34149 16.178 3.83829 16.3948 4.43446C16.6116 5.01256 16.5574 5.59067 16.2322 6.16877C15.9612 6.63848 15.5999 6.9727 15.1483 7.17142C14.6966 7.37014 14.236 7.42434 13.7662 7.33401C13.4591 7.27981 13.1791 7.19852 12.9262 7.09012C12.6913 6.96366 12.4745 6.85527 12.2758 6.76494C11.6435 6.53008 10.7131 6.41266 9.48461 6.41266C9.0149 6.41266 8.54518 6.49395 8.07547 6.65654C7.60575 6.80107 7.18121 7.02689 6.80182 7.33401C6.42244 7.62306 6.11532 8.00244 5.88046 8.47215C5.6456 8.94186 5.52817 9.48383 5.52817 10.0981V15.5178C5.52817 16.1501 5.63657 16.7011 5.85336 17.1708C6.07015 17.6224 6.35921 18.0018 6.72053 18.3089C7.09991 18.598 7.51543 18.8238 7.96707 18.9864C8.43679 19.1309 8.91554 19.2032 9.40332 19.2032C9.85496 19.2032 10.2976 19.149 10.7312 19.0406C11.1647 18.9141 11.5441 18.7425 11.8693 18.5257C12.1945 18.2909 12.4565 18.0018 12.6552 17.6586C12.8539 17.2973 12.9533 16.8727 12.9533 16.3849V16.0597C12.9533 15.7888 12.9081 15.6171 12.8178 15.5449C12.7455 15.4726 12.5829 15.4365 12.33 15.4365H11.4357C11.0383 15.4365 10.7041 15.3733 10.4331 15.2468C10.1621 15.1023 9.93626 14.9216 9.7556 14.7048C9.59301 14.488 9.46655 14.2441 9.37622 13.9732C9.30395 13.7022 9.26782 13.4312 9.26782 13.1602C9.26782 12.8892 9.30395 12.6182 9.37622 12.3472C9.46655 12.0582 9.59301 11.8053 9.7556 11.5885C9.93626 11.3536 10.1621 11.1639 10.4331 11.0194C10.7221 10.8749 11.0563 10.8026 11.4357 10.8026H13.9017C14.6966 10.8026 15.356 10.8749 15.88 11.0194C16.4039 11.1459 16.8103 11.3717 17.0994 11.6969C17.4065 12.004 17.6143 12.4195 17.7227 12.9434C17.8491 13.4493 17.9124 14.0816 17.9124 14.8403V16.3036Z" fill="url(#paint1_linear_1995_10844)"/>
  <path d="M93.9102 18.4023C94.8312 18.4024 95.545 18.6545 96.0508 19.1602C96.5566 19.6479 96.8095 20.3077 96.8096 21.1387C96.8096 21.9697 96.5566 22.6387 96.0508 23.1445C95.545 23.6322 94.8313 23.8759 93.9102 23.876C92.9888 23.876 92.2744 23.6323 91.7686 23.1445C91.2627 22.6568 91.0098 21.9878 91.0098 21.1387C91.0098 20.2898 91.2629 19.6215 91.7686 19.1338C92.2744 18.646 92.9888 18.4023 93.9102 18.4023ZM93.9102 0.110352C94.2531 0.110405 94.5872 0.173477 94.9121 0.299805C95.2553 0.408167 95.5538 0.579703 95.8066 0.814453C96.0776 1.03124 96.2852 1.31203 96.4297 1.65527C96.5923 1.98033 96.8036 2.14314 96.9541 2.83203C96.9541 2.83203 97.2419 3.55105 97.6064 4.66895C96.1906 4.80577 95.1475 5.27411 95.1475 5.83203C95.1475 6.47712 96.5421 7.00205 98.2949 7.0332C98.3712 7.33169 98.4464 7.63835 98.5166 7.95117C96.9472 8.02202 95.7498 8.39374 95.749 8.8418C95.749 9.32188 97.1228 9.7133 98.8564 9.74219C99.3404 12.9101 99.1503 16.1728 96.6738 17.1279C94.6595 17.9047 93.1598 17.9047 91.1455 17.1279C85.9225 15.1134 90.9316 2.83203 90.9316 2.83203C91.0821 2.38058 91.2178 1.98037 91.3623 1.65527C91.5249 1.31203 91.7324 1.03124 91.9854 0.814453C92.2382 0.579669 92.5275 0.408198 92.8525 0.299805C93.1958 0.173344 93.5488 0.110352 93.9102 0.110352Z" fill="url(#paint2_linear_1995_10844)"/>
  <path d="M52.0605 5.65137C52.783 5.45275 53.4875 5.49821 54.1738 5.78711C54.8784 6.07616 55.376 6.65433 55.665 7.52148L58.374 15.8955L61.0029 7.49414C61.1294 7.07881 61.3102 6.73575 61.5449 6.46484C61.7978 6.17589 62.0778 5.95898 62.3848 5.81445C62.71 5.66993 63.0537 5.58838 63.415 5.57031C63.7763 5.53421 64.1378 5.56106 64.499 5.65137C64.8422 5.7417 65.1582 5.90482 65.4473 6.13965C65.7362 6.35639 65.9624 6.62707 66.125 6.95215C66.2876 7.25927 66.3867 7.60304 66.4229 7.98242C66.4589 8.36171 66.3959 8.75011 66.2334 9.14746C66.2334 9.14746 65.7485 10.5607 65.0703 12.4746C63.5125 12.5727 62.3274 13.0657 62.3271 13.6602C62.3271 14.1454 63.1168 14.5622 64.2539 14.7529C64.125 15.1082 63.9919 15.4672 63.8594 15.8271C62.612 15.9567 61.7258 16.2853 61.7256 16.6709C61.7256 16.9918 62.3392 17.2724 63.2637 17.4326C62.3954 19.7276 61.5601 21.7781 61.1113 22.4531C59.9182 24.2474 56.7566 24.3981 55.4746 22.4531C54.1926 20.5081 50.2178 9.12012 50.2178 9.12012C50.0553 8.7228 49.9922 8.34363 50.0283 7.98242C50.0825 7.60304 50.1992 7.25927 50.3799 6.95215C50.5605 6.62701 50.7959 6.35641 51.085 6.13965C51.374 5.92287 51.6992 5.75976 52.0605 5.65137Z" fill="url(#paint3_linear_1995_10844)"/>
  <path d="M70.8728 6.56348C71.6315 6.56348 72.282 6.78032 72.824 7.21387C73.384 7.64743 73.6638 8.33406 73.6638 9.27344C73.6638 9.27344 78.7577 21.2848 73.6638 23.3105C71.6382 24.1161 70.1074 24.1161 68.0818 23.3105C66.0572 22.5054 65.644 20.1229 65.8787 17.5439C67.2998 17.4424 68.3486 17.0912 68.3494 16.6719C68.3494 16.2763 67.4169 15.9397 66.1189 15.8174C66.179 15.4889 66.245 15.162 66.3171 14.8398C67.821 14.7261 68.9514 14.2417 68.9519 13.6611C68.9519 13.1614 68.1146 12.7321 66.9226 12.5498C67.4973 10.65 68.0818 9.27344 68.0818 9.27344C68.0818 8.33413 68.3524 7.64744 68.8943 7.21387C69.4543 6.78029 70.114 6.56348 70.8728 6.56348ZM70.8728 0.412109C71.6316 0.412109 72.2913 0.611343 72.8513 1.00879C73.4111 1.38819 73.6911 2.02027 73.6912 2.90527C73.6912 3.35685 73.6096 3.74516 73.447 4.07031C73.3025 4.37731 73.1041 4.63041 72.8513 4.8291C72.5984 5.02781 72.3 5.17237 71.9568 5.2627C71.6135 5.35302 71.2522 5.39844 70.8728 5.39844C70.4934 5.39844 70.1321 5.35302 69.7888 5.2627C69.4456 5.17237 69.1472 5.02781 68.8943 4.8291C68.6415 4.63042 68.4338 4.3773 68.2712 4.07031C68.1268 3.74518 68.0544 3.3568 68.0544 2.90527C68.0545 2.02029 68.3345 1.38819 68.8943 1.00879C69.4543 0.611347 70.114 0.412113 70.8728 0.412109Z" fill="url(#paint4_linear_1995_10844)"/>
  <path d="M30.0461 4.92676C30.2447 4.92678 30.4526 4.94534 30.6692 4.98145C30.904 4.99953 31.1209 5.05325 31.3196 5.14355C31.8434 5.36031 32.2317 5.72186 32.4846 6.22754C32.7556 6.73338 32.8455 7.30325 32.7551 7.93555C32.6647 8.5675 32.394 9.07289 31.9426 9.45215C31.509 9.83153 30.9939 10.0215 30.3977 10.0215H29.7747C29.558 10.0034 29.3503 10.0034 29.1516 10.0215C28.393 10.0757 27.5505 10.2846 27.2493 10.5605C27.0237 10.7673 26.4954 11.2292 26.6858 12.3252C26.7557 12.7272 27.1881 13.832 27.6282 15.1885C26.1226 15.3018 24.9915 15.7881 24.9915 16.3691C24.992 17.0336 26.4721 17.5715 28.2991 17.5723C28.3448 17.774 28.3861 17.976 28.4241 18.1768C28.3839 18.1763 28.3435 18.1758 28.303 18.1758C26.4738 18.1758 24.9915 18.6475 24.9915 19.2295C24.992 19.8113 26.4742 20.2832 28.303 20.2832C28.411 20.2832 28.5179 20.2806 28.6233 20.2773C28.6023 21.0128 28.457 21.6632 28.1213 22.1523C26.4683 24.5611 22.2805 24.7118 20.4739 22.002C18.6678 19.2913 21.1848 7.63672 21.1848 7.63672C21.1848 7.1852 21.2571 6.79679 21.4016 6.47168C21.5642 6.12855 21.7718 5.84857 22.0247 5.63184C22.2776 5.39701 22.5667 5.22557 22.8918 5.11719C23.2169 4.99078 23.5599 4.92678 23.9211 4.92676C24.4451 4.92676 24.9334 5.05372 25.385 5.30664C25.8545 5.55952 26.2068 5.93872 26.4417 6.44434C26.9473 5.97483 27.5074 5.60491 28.1213 5.33398C28.7356 5.063 29.3777 4.92676 30.0461 4.92676Z" fill="url(#paint5_linear_1995_10844)"/>
  <path d="M42.5706 3.13184C43.1337 1.13095 44.4344 -0.253785 45.4749 0.0390625C46.5152 0.332053 46.9022 2.19165 46.3391 4.19238C46.0703 5.14754 45.6303 5.9597 45.134 6.51855C45.5841 6.71476 45.9975 6.96386 46.3733 7.26855C47.0597 7.79239 47.6018 8.52366 47.9993 9.46289C48.4148 10.4023 48.6223 11.6041 48.6223 13.0674C48.6223 13.0674 49.6716 21.1246 48.6223 22.7686C47.573 24.4124 44.7126 23.6716 44.261 22.958C43.8099 22.2448 44.2609 21.7034 44.1243 21.6309C43.9872 21.5586 42.9861 22.5068 42.2815 22.7959C41.577 23.0849 40.8181 23.2295 40.0051 23.2295H39.4094C38.8494 23.2295 38.2434 23.1387 37.593 22.958C36.9428 22.7954 36.3375 22.5062 35.7776 22.0908C35.2358 21.6753 34.7751 21.1155 34.3958 20.4111C34.0345 19.7067 33.8538 18.8215 33.8538 17.7559C33.8538 16.7261 34.0344 15.8672 34.3958 15.1807C34.7571 14.4943 35.2362 13.9438 35.8323 13.5283C36.4465 13.1129 37.1507 12.8144 37.9456 12.6338C38.7585 12.4531 39.6082 12.3633 40.4934 12.3633H43.2844C43.2664 11.966 43.1847 11.6406 43.0403 11.3877C42.9138 11.1167 42.7331 10.9082 42.4983 10.7637C42.2815 10.6012 42.0192 10.4927 41.7122 10.4385C41.4233 10.3663 41.1163 10.3301 40.7913 10.3301C40.4841 10.3301 40.1858 10.3579 39.8967 10.4121C39.6078 10.4663 39.3009 10.5386 38.9758 10.6289C38.759 10.7012 38.5505 10.7817 38.3518 10.8721C38.1712 10.9624 37.9542 11.0625 37.7014 11.1709C37.4486 11.2972 37.1778 11.3696 36.8889 11.3877C36.6179 11.3877 36.3464 11.3516 36.0754 11.2793C35.8046 11.189 35.5514 11.0527 35.3167 10.8721C35.1001 10.6915 34.9284 10.466 34.802 10.1953C34.5491 9.65334 34.5129 9.12889 34.6936 8.62305C34.8743 8.09917 35.1995 7.65622 35.6692 7.29492C36.0305 7.02397 36.4373 6.79881 36.8889 6.61816C36.9699 6.58577 37.0519 6.55546 37.134 6.52539C36.6568 6.0424 36.2198 5.35713 35.9104 4.54688C35.2015 2.69002 35.4321 0.876973 36.426 0.49707C37.4203 0.117414 38.8018 1.31567 39.511 3.17285C39.8903 4.16637 39.9972 5.14676 39.8655 5.90234C40.3342 5.85535 40.7875 5.83203 41.2249 5.83203C41.6281 5.83204 42.0236 5.85162 42.4114 5.88867C42.245 5.13152 42.284 4.15006 42.5706 3.13184ZM42.7561 16.2832C42.3075 15.9841 40.9676 16.1308 40.9495 16.1328C40.1967 16.2834 39.865 16.4815 39.594 16.7344C39.323 16.9692 39.219 17.2949 39.219 17.7285C39.219 18.1801 39.3553 18.5147 39.6262 18.7314C39.8971 18.9479 40.2673 19.0566 40.7366 19.0566H41.1165C41.3693 19.0566 41.6224 19.0205 41.8752 18.9482C42.1282 18.876 42.3543 18.7676 42.553 18.623C42.7696 18.4786 42.9412 18.2977 43.0676 18.0811C43.2121 17.8644 43.2844 17.6111 43.2844 17.3223C43.2844 17.3223 43.2075 16.5844 42.7561 16.2832Z" fill="url(#paint6_linear_1995_10844)"/>
  <defs>
    <linearGradient id="paint0_linear_1995_10844" x1="75.1626" y1="23.8219" x2="94.7513" y2="12.3933" gradientUnits="userSpaceOnUse">
      <stop stop-color="#8100B3"/>
      <stop offset="1" stop-color="#DD00FF"/>
    </linearGradient>
    <linearGradient id="paint1_linear_1995_10844" x1="-0.00436031" y1="23.9942" x2="21.8287" y2="6.50527" gradientUnits="userSpaceOnUse">
      <stop stop-color="#8100B3"/>
      <stop offset="1" stop-color="#DD00FF"/>
    </linearGradient>
    <linearGradient id="paint2_linear_1995_10844" x1="88.7651" y1="23.8702" x2="106.113" y2="16.343" gradientUnits="userSpaceOnUse">
      <stop stop-color="#8100B3"/>
      <stop offset="1" stop-color="#DD00FF"/>
    </linearGradient>
    <linearGradient id="paint3_linear_1995_10844" x1="50.0146" y1="23.8516" x2="68.2228" y2="7.52681" gradientUnits="userSpaceOnUse">
      <stop stop-color="#8100B3"/>
      <stop offset="1" stop-color="#DD00FF"/>
    </linearGradient>
    <linearGradient id="paint4_linear_1995_10844" x1="65.8166" y1="23.909" x2="82.8809" y2="16.5624" gradientUnits="userSpaceOnUse">
      <stop stop-color="#8100B3"/>
      <stop offset="1" stop-color="#DD00FF"/>
    </linearGradient>
    <linearGradient id="paint5_linear_1995_10844" x1="19.8184" y1="23.992" x2="37.5507" y2="11.9222" gradientUnits="userSpaceOnUse">
      <stop stop-color="#8100B3"/>
      <stop offset="1" stop-color="#DD00FF"/>
    </linearGradient>
    <linearGradient id="paint6_linear_1995_10844" x1="33.8501" y1="23.7532" x2="55.4401" y2="9.89558" gradientUnits="userSpaceOnUse">
      <stop stop-color="#8100B3"/>
      <stop offset="1" stop-color="#DD00FF"/>
    </linearGradient>
  </defs>
</svg>