<svg  viewBox="0 0 372 91"  xmlns="http://www.w3.org/2000/svg">
<path d="M294.526 42.4804H291.169C287.981 42.4804 285.675 41.6326 284.25 39.9368C282.894 38.2411 282.215 36.3079 282.215 34.1373C282.215 33.1199 282.351 32.1024 282.622 31.085C282.961 30.0675 283.47 29.1518 284.148 28.3379C284.895 27.5239 285.844 26.8795 286.997 26.4047C288.15 25.8621 289.541 25.5908 291.169 25.5908H294.526V15.0093C294.526 13.3135 294.798 11.8213 295.34 10.5325C295.951 9.24373 296.731 8.19236 297.681 7.3784C298.63 6.56444 299.682 5.95398 300.835 5.54699C302.056 5.14001 303.31 4.93652 304.599 4.93652C305.888 4.93652 307.109 5.14001 308.262 5.54699C309.483 5.95398 310.568 6.56444 311.518 7.3784C312.467 8.19236 313.214 9.24373 313.756 10.5325C314.367 11.8213 314.672 13.3135 314.672 15.0093V25.5908H320.675C322.303 25.5908 323.659 25.8621 324.745 26.4047C325.898 26.8795 326.813 27.5239 327.492 28.3379C328.238 29.1518 328.781 30.0675 329.12 31.085C329.459 32.1024 329.628 33.1199 329.628 34.1373C329.628 36.3079 328.916 38.2411 327.492 39.9368C326.135 41.6326 323.863 42.4804 320.675 42.4804H314.672V62.8973C314.672 64.4574 314.799 69.2055 315.409 69.6803C316.088 70.1551 316.789 70.743 317.67 70.8108C318.417 70.8786 319.886 70.3812 320.497 70.2455C321.107 70.0421 323.436 69.6803 324.453 69.6803C326.149 69.6803 327.121 69.7933 328.41 70.8108C329.699 71.8282 330.897 73.637 331.236 75.3328C331.711 77.4355 331.485 81.6184 330.671 83.2463C329.925 84.8742 328.003 86.0034 326.149 87.203C324.996 87.9492 323.888 88.4918 321.627 88.9779C319.366 89.464 317.738 89.464 315.975 89.464C312.583 89.464 309.483 88.6049 306.838 87.8587C304.192 87.1126 301.954 85.9256 300.122 84.2976C298.291 82.6697 296.901 80.5331 295.951 77.8877C295.001 75.2423 294.526 71.9865 294.526 68.1202V42.4804Z" fill="currentColor"/>
<path d="M67.2534 61.2142C67.2534 66.3692 66.4055 70.7782 64.7098 74.441C63.014 78.1038 60.7078 81.0883 57.7911 83.3946C54.8744 85.7008 51.4829 87.3965 47.6166 88.4818C43.7503 89.5671 39.6466 90.1097 35.3055 90.1097C30.8965 90.1097 26.5554 89.5332 22.2821 88.3801C18.0767 87.2948 14.3121 85.5312 10.9884 83.0893C7.73261 80.5796 5.08724 77.3577 3.05235 73.4236C1.01745 69.4894 0 64.7413 0 59.1793V36.9988C0 31.369 1.01745 26.5869 3.05235 22.6528C5.08724 18.7187 7.76653 15.5306 11.0902 13.0888C14.4139 10.6469 18.2123 8.8833 22.4856 7.79803C26.7589 6.64491 31.1339 6.06836 35.6107 6.06836C40.291 6.06836 44.5643 6.54317 48.4306 7.49279C52.2969 8.44241 55.2136 9.62944 57.1806 11.0539C59.2834 12.5461 60.7417 14.4114 61.5557 16.6498C62.3696 18.8204 62.1661 20.991 60.9452 23.1615C59.9277 24.9251 58.5711 26.18 56.8754 26.9261C55.1797 27.6722 53.45 27.8757 51.6864 27.5366C50.5333 27.3331 49.4819 27.0278 48.5323 26.6209C47.6505 26.146 46.8366 25.7391 46.0904 25.3999C43.7164 24.5181 40.2231 24.0772 35.6107 24.0772C33.8471 24.0772 32.0836 24.3825 30.32 24.9929C28.5564 25.5356 26.9624 26.3834 25.538 27.5366C24.1135 28.6218 22.9604 30.0463 22.0786 31.8098C21.1969 33.5734 20.756 35.6083 20.756 37.9145V58.2635C20.756 60.6376 21.1629 62.7064 21.9769 64.47C22.7909 66.1657 23.8761 67.5902 25.2327 68.7433C26.6572 69.8286 28.2173 70.6764 29.913 71.2869C31.6766 71.8296 33.4741 72.1009 35.3055 72.1009C37.0012 72.1009 38.6631 71.8974 40.291 71.4904C41.9189 71.0156 43.3433 70.3712 44.5643 69.5572C45.7852 68.6755 46.7687 67.5902 47.5149 66.3014C48.261 64.9448 48.6341 63.3508 48.6341 61.5194V60.2985C48.6341 59.281 48.4645 58.6366 48.1253 58.3653C47.854 58.094 47.2435 57.9583 46.2939 57.9583H42.9363C41.4441 57.9583 40.1892 57.7209 39.1718 57.2461C38.1543 56.7035 37.3065 56.0252 36.6282 55.2112C36.0177 54.3972 35.5429 53.4815 35.2037 52.4641C34.9324 51.4466 34.7968 50.4292 34.7968 49.4117C34.7968 48.3943 34.9324 47.3768 35.2037 46.3594C35.5429 45.2741 36.0177 44.3245 36.6282 43.5105C37.3065 42.6287 38.1543 41.9165 39.1718 41.3739C40.2571 40.8312 41.5119 40.5599 42.9363 40.5599H52.1951C55.1796 40.5599 57.6554 40.8312 59.6225 41.3739C61.5896 41.8487 63.1157 42.6966 64.201 43.9175C65.3541 45.0706 66.1342 46.6307 66.5412 48.5978C67.016 50.497 67.2534 52.8711 67.2534 55.7199V61.2142Z" fill="currentColor" stroke='currentColor'/>
<path d="M352.591 69.0928C356.05 69.0928 358.73 70.0424 360.629 71.9414C362.529 73.7728 363.478 76.249 363.478 79.3691C363.478 82.4893 362.529 84.9992 360.629 86.8984C358.73 88.7298 356.051 89.6455 352.591 89.6455C349.132 89.6454 346.453 88.7297 344.554 86.8984C342.655 85.067 341.705 82.5572 341.705 79.3691C341.705 76.1812 342.655 73.6712 344.554 71.8398C346.453 70.0087 349.132 69.0929 352.591 69.0928ZM352.591 0.415039C353.88 0.415039 355.135 0.652261 356.356 1.12695C357.645 1.53393 358.765 2.17876 359.714 3.06055C360.732 3.87448 361.512 4.92619 362.054 6.21484C362.665 7.43561 363.456 8.04765 364.021 10.6348C364.021 10.6348 365.104 13.3304 366.472 17.5244C361.156 18.038 357.239 19.8006 357.239 21.8955C357.239 24.318 362.478 26.295 369.061 26.4111C369.347 27.5305 369.626 28.6814 369.889 29.8545C363.995 30.1206 359.5 31.5164 359.5 33.1992C359.5 35.002 364.657 36.4758 371.167 36.584C372.983 48.4765 372.267 60.725 362.97 64.3105C355.407 67.227 349.776 67.227 342.213 64.3105C322.618 56.7528 341.382 10.704 341.411 10.6348C341.976 8.9391 342.485 7.43575 343.028 6.21484C343.638 4.92614 344.418 3.87449 345.368 3.06055C346.317 2.17877 347.403 1.53393 348.624 1.12695C349.912 0.652197 351.235 0.415095 352.591 0.415039Z" fill="currentColor"/>
<path d="M195.465 21.2217C198.178 20.4756 200.823 20.6453 203.401 21.7305C206.046 22.8157 207.912 24.9863 208.998 28.2422L219.171 59.6816L229.041 28.1406C229.515 26.5807 230.194 25.2918 231.076 24.2744C232.025 23.1891 233.077 22.3747 234.23 21.832C235.451 21.2894 236.74 20.9838 238.096 20.916C239.453 20.7804 240.809 20.8826 242.166 21.2217C243.454 21.5608 244.642 22.171 245.727 23.0527C246.812 23.8667 247.661 24.8845 248.271 26.1055C248.881 27.2585 249.254 28.5473 249.39 29.9717C249.526 31.3961 249.288 32.8544 248.677 34.3467C248.669 34.3703 246.859 39.6667 244.32 46.833C238.466 47.2001 234.014 49.0547 234.013 51.2881C234.013 53.1107 236.979 54.6797 241.25 55.3955C240.767 56.7261 240.274 58.0726 239.778 59.4209C235.087 59.9063 231.753 61.1434 231.752 62.5928C231.752 63.7978 234.057 64.8545 237.53 65.4561C234.27 74.0723 231.133 81.7692 229.448 84.3037C224.968 91.0413 213.098 91.6067 208.285 84.3037C203.475 77.007 188.572 34.3193 188.546 34.2451C187.936 32.7529 187.699 31.3283 187.834 29.9717C188.038 28.5473 188.478 27.2585 189.157 26.1055C189.835 24.8845 190.717 23.8667 191.802 23.0527C192.887 22.2388 194.109 21.6286 195.465 21.2217Z" fill="currentColor"/>
<path d="M266.099 24.6416C268.947 24.6416 271.389 25.4561 273.424 27.084C275.527 28.7119 276.578 31.2893 276.578 34.8164C276.578 34.8164 295.703 79.9147 276.578 87.5205C268.972 90.5451 263.225 90.545 255.619 87.5205C248.019 84.4979 246.461 75.5543 247.341 65.873C252.681 65.4923 256.623 64.1685 256.623 62.5928C256.623 61.1071 253.12 59.8455 248.244 59.3867C248.47 58.1524 248.722 56.9246 248.993 55.7139C254.64 55.2868 258.884 53.4683 258.884 51.2881C258.884 49.4124 255.744 47.803 251.271 47.1182C253.428 39.9854 255.619 34.8164 255.619 34.8164C255.619 31.2894 256.636 28.7119 258.671 27.084C260.774 25.4561 263.25 24.6416 266.099 24.6416ZM266.099 1.5459C268.947 1.54593 271.423 2.2921 273.525 3.78418C275.628 5.20859 276.68 7.58265 276.68 10.9062C276.68 12.6019 276.375 14.0604 275.765 15.2812C275.222 16.4344 274.475 17.3838 273.525 18.1299C272.576 18.876 271.457 19.4187 270.168 19.7578C268.879 20.0969 267.523 20.2666 266.099 20.2666C264.674 20.2666 263.317 20.097 262.028 19.7578C260.74 19.4187 259.62 18.8759 258.671 18.1299C257.721 17.3838 256.941 16.4342 256.331 15.2812C255.788 14.0603 255.517 12.6019 255.517 10.9062C255.517 7.5827 256.568 5.2086 258.671 3.78418C260.774 2.29192 263.25 1.5459 266.099 1.5459Z" fill="currentColor"/>
<path d="M112.809 18.5039C113.555 18.5039 114.336 18.5714 115.15 18.707C116.031 18.7749 116.845 18.9783 117.591 19.3174C119.558 20.1313 121.017 21.4885 121.966 23.3877C122.984 25.2869 123.323 27.4239 122.984 29.7979C122.645 32.1717 121.627 34.0708 119.931 35.4951C118.303 36.9194 116.371 37.6318 114.132 37.6318H111.792C110.978 37.564 110.198 37.564 109.452 37.6318C106.603 37.8353 103.44 38.6191 102.309 39.6553C101.462 40.4316 99.4781 42.1652 100.193 46.2803C100.455 47.7896 102.084 51.9388 103.737 57.0342C98.082 57.4591 93.8308 59.2807 93.8306 61.4629C93.8306 63.9589 99.392 65.982 106.254 65.9844C106.426 66.7402 106.583 67.4966 106.725 68.249C106.573 68.2473 106.42 68.2451 106.266 68.2451C99.3984 68.2452 93.8306 70.0169 93.8306 72.2021C93.8306 74.3874 99.3984 76.1591 106.266 76.1592C106.675 76.1592 107.08 76.1519 107.479 76.1396C107.4 78.9007 106.846 81.3432 105.585 83.1797C99.379 92.2237 83.6556 92.7888 76.8726 82.6143C70.1025 72.4586 79.5031 28.843 79.5386 28.6787C79.5386 26.983 79.8104 25.5237 80.353 24.3027C80.9634 23.0143 81.7434 21.9633 82.6929 21.1494C83.6425 20.2676 84.7278 19.6228 85.9487 19.2158C87.1696 18.741 88.4584 18.5039 89.8149 18.5039C91.7819 18.5039 93.6134 18.9782 95.3091 19.9277C97.0725 20.8773 98.3951 22.3021 99.2769 24.2012C101.176 22.4376 103.279 21.0477 105.585 20.0303C107.892 19.0129 110.299 18.5039 112.809 18.5039Z" fill="currentColor"/>
<path d="M159.837 11.7578C161.951 4.2456 166.832 -0.952729 170.738 0.146484C174.645 1.24602 176.098 8.22766 173.983 15.7402C172.975 19.3216 171.337 22.3757 169.477 24.4736C171.16 25.2093 172.706 26.1475 174.112 27.2881C176.69 29.2551 178.725 32.0024 180.217 35.5293C181.777 39.0564 182.558 43.5674 182.558 49.0615C182.558 49.0615 186.497 79.3131 182.558 85.4863C178.618 91.6585 167.879 88.8784 166.183 86.1992C164.487 83.5201 166.182 81.4845 165.668 81.2129C165.153 80.9416 161.394 84.5025 158.749 85.5879C156.104 86.6732 153.254 87.2158 150.202 87.2158H147.964C145.861 87.2158 143.589 86.8774 141.147 86.1992C138.706 85.5888 136.433 84.5034 134.33 82.9434C132.295 81.3833 130.566 79.28 129.142 76.6348C127.785 73.9895 127.106 70.6659 127.106 66.6641C127.106 62.7978 127.785 59.5756 129.142 56.998C130.498 54.4205 132.296 52.3511 134.534 50.791C136.84 49.2311 139.485 48.1118 142.47 47.4336C145.522 46.7553 148.711 46.416 152.034 46.416H162.514C162.446 44.924 162.14 43.7034 161.598 42.7539C161.123 41.7365 160.444 40.9557 159.562 40.4131C158.749 39.8028 157.765 39.3958 156.612 39.1924C155.527 38.9211 154.374 38.7852 153.153 38.7852C152 38.7852 150.881 38.8874 149.796 39.0908C148.711 39.2943 147.557 39.5651 146.336 39.9043C145.522 40.1756 144.742 40.4812 143.996 40.8203C143.318 41.1595 142.503 41.5325 141.554 41.9395C140.604 42.4142 139.587 42.6861 138.502 42.7539C137.485 42.7539 136.467 42.618 135.449 42.3467C134.432 42.0075 133.482 41.4986 132.601 40.8203C131.787 40.142 131.142 39.2938 130.667 38.2764C129.718 36.2417 129.583 34.275 130.261 32.376C130.939 30.4089 132.159 28.7462 133.923 27.3896C135.279 26.3722 136.806 25.525 138.502 24.8467C138.805 24.7253 139.111 24.6088 139.419 24.4961C137.629 22.6828 135.988 20.1133 134.827 17.0732C132.165 10.1004 133.033 3.29263 136.766 1.86719C140.499 0.441751 145.683 4.93837 148.346 11.9111C149.77 15.6407 150.182 19.3232 149.688 22.1602C151.445 21.9844 153.142 21.8955 154.781 21.8955C156.295 21.8955 157.779 21.9665 159.234 22.1055C158.61 19.2631 158.761 15.5793 159.837 11.7578ZM160.529 61.1357C158.841 60.0106 153.794 60.5652 153.747 60.5703C150.921 61.1356 149.677 61.8814 148.659 62.8311C147.642 63.7128 147.252 64.9338 147.252 66.5615C147.252 68.2573 147.761 69.5122 148.778 70.3262C149.796 71.1401 151.186 71.5478 152.949 71.5479H154.374C155.324 71.5478 156.273 71.4119 157.223 71.1406C158.172 70.8693 159.02 70.4625 159.767 69.9199C160.58 69.3773 161.224 68.6986 161.699 67.8848C162.242 67.0709 162.514 66.1213 162.514 65.0361C162.514 65.0361 162.225 62.2662 160.529 61.1357Z" fill="currentColor"/>
</svg>
