<svg width="211" height="239" viewBox="0 0 211 239" fill="none" xmlns="http://www.w3.org/2000/svg">
<path d="M91.7517 139.844C91.7517 138.091 92.187 63.416 57.2544 63.416C22.3219 63.416 53.7612 144.643 62.0535 152.064C70.3458 159.486 91.7517 139.832 91.7517 139.832V139.844Z" fill="url(#paint0_linear_453_5660)"/>
<path d="M83.4921 134.908C83.4921 133.748 83.7376 84.0273 63.8941 84.0273C44.0507 84.0273 61.9075 138.111 66.6173 143.056C71.3271 148 83.4809 134.919 83.4809 134.919L83.4921 134.908Z" fill="#A45923"/>
<path d="M125.826 139.844C125.826 138.091 125.391 63.416 160.335 63.416C195.267 63.416 163.828 144.643 155.536 152.064C147.244 159.486 125.838 139.832 125.838 139.832L125.826 139.844Z" fill="url(#paint1_linear_453_5660)"/>
<path d="M134.085 134.908C134.085 133.748 133.84 84.0273 153.683 84.0273C173.527 84.0273 155.67 138.111 150.96 143.056C146.25 148 134.096 134.919 134.096 134.919L134.085 134.908Z" fill="#A45923"/>
<path d="M175.195 188.705C175.195 219.965 145.894 238.657 109.747 238.657C73.6 238.657 44.2988 219.965 44.2988 188.705C44.2988 157.444 73.6 125.449 109.747 125.449C145.894 125.449 175.195 157.444 175.195 188.705Z" fill="#FFD900"/>
<path d="M79.3814 209.175C91.2672 209.175 100.903 198.616 100.903 185.591C100.903 172.565 91.2672 162.006 79.3814 162.006C67.4957 162.006 57.8604 172.565 57.8604 185.591C57.8604 198.616 67.4957 209.175 79.3814 209.175Z" fill="#A45923"/>
<path d="M89.2159 175.183C89.8735 174.894 90.6515 175.192 90.9216 175.861C94.8143 185.818 92.5165 196.101 85.498 199.212C78.4796 202.324 69.3131 197.139 64.539 187.575C64.2205 186.934 64.5229 186.141 65.1805 185.851L89.2159 175.183Z" fill="white"/>
<mask id="mask0_453_5660" style="mask-type:luminance" maskUnits="userSpaceOnUse" x="64" y="175" width="29" height="26">
<path d="M89.2159 175.183C89.8735 174.894 90.6515 175.192 90.9216 175.861C94.8143 185.818 92.5165 196.101 85.498 199.212C78.4796 202.324 69.3131 197.139 64.539 187.575C64.2205 186.934 64.5229 186.141 65.1805 185.851L89.2159 175.183Z" fill="white"/>
</mask>
<g mask="url(#mask0_453_5660)">
<path d="M90.0382 204.203C94.5275 201.612 95.3936 194.707 91.9727 188.782C88.5518 182.857 82.1393 180.155 77.65 182.746C73.1608 185.338 72.2947 192.243 75.7156 198.168C79.1365 204.093 85.549 206.795 90.0382 204.203Z" fill="#3E3A39"/>
</g>
<path d="M88.9942 190.557C90.3195 190.557 91.3938 189.122 91.3938 187.353C91.3938 185.584 90.3195 184.15 88.9942 184.15C87.669 184.15 86.5947 185.584 86.5947 187.353C86.5947 189.122 87.669 190.557 88.9942 190.557Z" fill="white"/>
<path d="M129.081 175.336C128.418 175.06 127.646 175.374 127.39 176.048C123.7 186.082 126.206 196.316 133.287 199.284C140.367 202.252 149.426 196.882 154.005 187.223C154.31 186.576 153.992 185.789 153.328 185.513L129.081 175.336Z" fill="white"/>
<mask id="mask1_453_5660" style="mask-type:luminance" maskUnits="userSpaceOnUse" x="125" y="175" width="30" height="26">
<path d="M129.081 175.336C128.418 175.06 127.646 175.374 127.39 176.048C123.7 186.082 126.206 196.316 133.287 199.284C140.367 202.252 149.426 196.882 154.005 187.223C154.31 186.576 153.992 185.789 153.328 185.513L129.081 175.336Z" fill="white"/>
</mask>
<g mask="url(#mask1_453_5660)">
<path d="M127.747 204.286C132.288 206.786 138.645 203.954 141.944 197.961C145.244 191.967 144.238 185.082 139.697 182.581C135.156 180.081 128.8 182.913 125.5 188.907C122.2 194.9 123.206 201.786 127.747 204.286Z" fill="#3E3A39"/>
</g>
<path d="M129.242 189.338C130.568 189.338 131.642 187.904 131.642 186.135C131.642 184.366 130.568 182.932 129.242 182.932C127.917 182.932 126.843 184.366 126.843 186.135C126.843 187.904 127.917 189.338 129.242 189.338Z" fill="white"/>
<path d="M115.982 192.688C115.982 196.572 112.979 199.719 109.285 199.719C105.591 199.719 102.589 196.572 102.589 192.688C102.589 188.804 115.982 188.804 115.982 192.688Z" fill="#3E3A39"/>
<path d="M96.9629 215.251C96.9629 215.251 102.892 214.217 109.298 204.474V194.742" stroke="#3E3A39" stroke-width="3.36636" stroke-miterlimit="10" stroke-linecap="round"/>
<path d="M121.963 214.641C121.963 214.641 115.458 214.217 109.052 204.474V194.742" stroke="#3E3A39" stroke-width="3.36636" stroke-miterlimit="10" stroke-linecap="round"/>
<path d="M48.4266 197.385H37.8135" stroke="#3E3A39" stroke-width="3.36636" stroke-miterlimit="10" stroke-linecap="round"/>
<path d="M50.785 207.408L40.1719 209.767" stroke="#3E3A39" stroke-width="3.36636" stroke-miterlimit="10" stroke-linecap="round"/>
<path d="M169.89 197.385H180.503" stroke="#3E3A39" stroke-width="3.36636" stroke-miterlimit="10" stroke-linecap="round"/>
<path d="M167.531 207.408L178.144 209.767" stroke="#3E3A39" stroke-width="3.36636" stroke-miterlimit="10" stroke-linecap="round"/>
<ellipse cx="143.306" cy="200.007" rx="6.70754" ry="2.43911" fill="white"/>
<ellipse cx="73.7912" cy="200.007" rx="9.14665" ry="2.43911" fill="white"/>
<rect x="91.4746" y="8.53516" width="3.65866" height="70.7341" rx="1.82933" fill="#A45923"/>
<rect x="124.402" y="4.87891" width="3.65866" height="70.7341" rx="1.82933" fill="#A45923"/>
<rect x="106.108" y="21.9512" width="3.65866" height="80.4905" rx="1.82933" fill="#A45923"/>
<rect x="54.8867" y="9.75586" width="3.65866" height="41.4648" rx="1.82933" fill="#A45923"/>
<rect x="158.55" y="9.75586" width="3.65866" height="41.4648" rx="1.82933" fill="#A45923"/>
<rect x="175.624" y="9.75586" width="3.65866" height="50.0017" rx="1.82933" fill="#A45923"/>
<rect x="36.5947" y="9.75586" width="3.65866" height="50.0017" rx="1.82933" fill="#A45923"/>
<rect x="191.479" y="25.6113" width="3.65866" height="102.442" rx="1.82933" fill="#A45923"/>
<rect x="18.3008" y="25.6113" width="3.65866" height="102.442" rx="1.82933" fill="#A45923"/>
<rect x="207.334" width="3.65869" height="143.909" rx="1.82935" fill="#A45923"/>
<rect x="0.00683594" width="3.65869" height="143.909" rx="1.82935" fill="#A45923"/>
<rect x="73.1807" y="9.75586" width="3.65866" height="50.0017" rx="1.82933" fill="#A45923"/>
<rect x="141.477" y="9.75586" width="3.65866" height="50.0017" rx="1.82933" fill="#A45923"/>
<defs>
<linearGradient id="paint0_linear_453_5660" x1="66.4289" y1="64.5767" x2="66.4289" y2="154.91" gradientUnits="userSpaceOnUse">
<stop stop-color="#FFD900"/>
<stop offset="0.754808" stop-color="#F8D003"/>
<stop offset="1" stop-color="#A45923"/>
</linearGradient>
<linearGradient id="paint1_linear_453_5660" x1="151.139" y1="64.5767" x2="151.139" y2="154.91" gradientUnits="userSpaceOnUse">
<stop stop-color="#FFD900"/>
<stop offset="0.754808" stop-color="#F8D003"/>
<stop offset="1" stop-color="#A45923"/>
</linearGradient>
</defs>
</svg>
