<svg width="149" height="148" viewBox="0 0 149 148" fill="none" xmlns="http://www.w3.org/2000/svg">
<path d="M68.8172 5.25186C72.0904 2.45746 76.9094 2.45746 80.1826 5.25186C82.7206 7.41856 86.2698 7.95352 89.3336 6.63115C93.2851 4.92569 97.89 6.34614 100.194 9.98118C101.981 12.7997 105.215 14.357 108.532 13.9965C112.811 13.5315 116.792 16.2462 117.923 20.3989C118.799 23.6188 121.43 26.0601 124.707 26.6934C128.932 27.5103 131.937 31.278 131.793 35.5793C131.681 38.9145 133.476 42.0229 136.42 43.5938C140.217 45.6199 141.978 50.1058 140.572 54.1736C139.483 57.3277 140.281 60.827 142.632 63.196C145.663 66.2512 146.023 71.0568 143.481 74.5296C141.51 77.2224 141.242 80.8017 142.789 83.7581C144.785 87.5711 143.713 92.2693 140.26 94.8386C137.583 96.8308 136.272 100.172 136.879 103.453C137.663 107.685 135.253 111.859 131.197 113.296C128.051 114.411 125.813 117.217 125.427 120.531C124.928 124.806 121.395 128.084 117.095 128.262C113.761 128.4 110.795 130.422 109.449 133.475C107.712 137.413 103.37 139.504 99.2088 138.406C95.9821 137.555 92.5523 138.613 90.3656 141.134C87.5454 144.385 82.7802 145.103 79.1271 142.828C76.2945 141.064 72.7053 141.064 69.8727 142.828C66.2196 145.103 61.4544 144.385 58.6342 141.134C56.4475 138.613 53.0177 137.555 49.791 138.406C45.6295 139.504 41.2877 137.413 39.5511 133.475C38.2046 130.422 35.2389 128.4 31.9048 128.262C27.6047 128.084 24.072 124.806 23.5733 120.531C23.1866 117.217 20.9487 114.411 17.8033 113.296C13.7467 111.859 11.3371 107.685 12.1206 103.453C12.728 100.172 11.4167 96.8308 8.73957 94.8386C5.28688 92.2693 4.21453 87.5711 6.21052 83.7581C7.75815 80.8017 7.48992 77.2224 5.51894 74.5296C2.97696 71.0568 3.33709 66.2512 6.36828 63.196C8.71859 60.827 9.51728 57.3277 8.42757 54.1736C7.02217 50.1058 8.78277 45.6199 12.5798 43.5938C15.524 42.0229 17.3186 38.9145 17.207 35.5793C17.0631 31.278 20.0677 27.5103 24.2933 26.6934C27.5696 26.0601 30.2008 23.6188 31.0772 20.3989C32.2075 16.2462 36.1892 13.5315 40.4678 13.9965C43.7853 14.357 47.0191 12.7997 48.8056 9.98118C51.1098 6.34614 55.7147 4.92569 59.6662 6.63115C62.73 7.95352 66.2792 7.41856 68.8172 5.25186Z" fill="#A8A8A8"/>
<circle cx="74.5" cy="74" r="61.0341" fill="white"/>
<path d="M52.8628 97.9973C52.3653 98.2845 51.973 98.1794 51.6857 97.6819L41.5182 80.0711C41.231 79.5736 41.3278 79.1861 41.8087 78.9084L44.8433 77.1564C45.3408 76.8692 45.7248 76.9791 45.9955 77.4861L55.6158 95.4128C55.903 95.9103 55.7979 96.3027 55.3004 96.5899L52.8628 97.9973ZM37.9296 103.037C37.4653 103.305 37.0239 103.383 36.6054 103.271C36.1869 103.159 35.8436 102.871 35.5755 102.406L27.8275 89.7332C27.5429 89.2784 27.4566 88.8418 27.5688 88.4233C27.6975 87.9952 27.994 87.6471 28.4583 87.3791L37.3096 82.2025C37.7739 81.9344 38.2153 81.8564 38.6338 81.9686C39.0523 82.0807 39.3873 82.3737 39.6388 82.8476L46.8357 95.7726C47.0872 96.2465 47.1569 96.6926 47.0448 97.1112C46.9492 97.5201 46.6693 97.8586 46.205 98.1267L37.9296 103.037ZM38.1231 97.6853L41.5165 95.6929L36.8922 87.6835L33.3889 89.7725L38.1231 97.6853ZM54.1185 87.0242C53.8996 86.9516 53.7411 86.811 53.6428 86.6024C53.561 86.3843 53.5718 86.1348 53.6751 85.8541C54.1098 84.8072 54.3971 83.7348 54.5371 82.6369C54.6771 81.539 54.7067 80.4606 54.626 79.4017C54.5357 78.3262 54.3364 77.2916 54.028 76.2978C53.7361 75.2944 53.3626 74.3603 52.9075 73.4955C52.7039 73.1045 52.6406 72.7652 52.7177 72.4774C52.7948 72.1897 52.9743 71.9645 53.2562 71.8017L55.9177 70.2651C56.2494 70.0736 56.5604 70.0378 56.8507 70.1576C57.1314 70.2609 57.3592 70.4831 57.5341 70.8243C58.4494 72.6395 59.0328 74.569 59.2841 76.6128C60.4395 76.8523 61.5788 76.9684 62.7022 76.961C62.7353 76.9418 62.765 76.9358 62.7911 76.9428L62.4752 76.3955C62.322 76.1302 62.277 75.8799 62.34 75.6444C62.4101 75.3829 62.5778 75.1755 62.8432 75.0223L66.5743 72.8682L65.9462 71.8378L62.24 73.9776C61.9747 74.1308 61.716 74.1806 61.464 74.1271C61.219 74.0475 61.02 73.875 60.8668 73.6097L59.962 72.0426C59.8089 71.7773 59.7638 71.5269 59.8269 71.2915C59.897 71.0299 60.0647 70.8226 60.33 70.6694L64.0113 68.544L62.9237 66.7176C62.6365 66.2202 62.7334 65.8326 63.2143 65.555L66.2489 63.8029C66.7464 63.5157 67.1304 63.6256 67.4011 64.1327L75.0939 78.0316C75.348 78.5482 75.2429 78.9405 74.7785 79.2086L72.1917 80.7022C71.6942 80.9894 71.3018 80.8843 71.0146 80.3868L68.5091 76.1621L66.7928 77.153C66.8503 77.2525 66.8781 77.358 66.8762 77.4697L66.9996 80.3833C66.9972 80.9153 66.6851 81.2171 66.0631 81.2888C64.9666 81.4575 63.8589 81.5112 62.74 81.4496C61.6376 81.3785 60.4919 81.1556 59.3027 80.7809C59.1863 81.8431 58.9748 82.8938 58.6683 83.9331C58.3618 84.9723 57.9472 85.9966 57.4244 87.006C57.2784 87.2892 57.0881 87.4765 56.8534 87.5678C56.6186 87.6591 56.3788 87.6649 56.1338 87.5853L54.1185 87.0242ZM67.0448 92.9268C66.4905 93.2689 65.978 93.3769 65.5072 93.2507C65.0529 93.115 64.6548 92.77 64.3127 92.2158L61.0327 86.8794C60.7124 86.4011 60.8092 86.0136 61.3233 85.7168L64.0594 84.1371C64.5403 83.8594 64.9243 83.9693 65.2116 84.4668L67.2154 88.0525L76.7747 82.6661C77.2556 82.3885 77.6205 82.4652 77.8695 82.8964L78.9609 84.7868C79.2577 85.3008 79.1822 85.6871 78.7345 85.9456L67.0448 92.9268ZM76.1556 73.9031C76.0216 73.6709 75.9826 73.4502 76.0387 73.241C76.0948 73.0317 76.2389 72.8601 76.471 72.726L80.4757 70.4139L80.0057 69.6572C79.8111 69.7032 79.6166 69.7492 79.422 69.7952C78.5724 69.9319 77.753 69.9297 76.9638 69.7883C76.1817 69.6208 75.4643 69.3164 74.8116 68.8752C74.1493 68.4174 73.6027 67.8154 73.1719 67.0691C72.741 66.3229 72.493 65.5486 72.4276 64.7461C72.3527 63.927 72.4383 63.137 72.6843 62.3759C72.9373 61.5886 73.3354 60.8612 73.8787 60.1938C74.429 59.5002 75.1104 58.9189 75.923 58.4497C76.7355 57.9806 77.5714 57.686 78.4306 57.5658C79.2803 57.429 80.101 57.4526 80.8927 57.6367C81.6748 57.8043 82.4018 58.1252 83.0737 58.5996C83.736 59.0574 84.2825 59.6594 84.7134 60.4056C85.1442 61.1519 85.3923 61.9262 85.4576 62.7287C85.5133 63.5146 85.4182 64.2881 85.1722 65.0492C84.9167 65.7937 84.5172 66.4997 83.974 67.1671L84.4622 68.0128C85.1064 67.5967 85.7423 67.1854 86.3698 66.7788C87.014 66.3627 87.6486 65.93 88.2736 65.4807C88.676 65.182 89.0457 65.267 89.3827 65.7358L90.3936 67.1421C90.5608 67.3551 90.5985 67.5544 90.5067 67.7401C90.4315 67.9162 90.2956 68.083 90.0992 68.2407C88.2695 69.6287 86.3967 70.9421 84.4808 72.1809C82.5649 73.4197 80.5173 74.6793 78.338 75.9596C78.1058 76.0937 77.8851 76.1327 77.6758 76.0766C77.4666 76.0205 77.295 75.8764 77.1609 75.6443L76.1556 73.9031ZM93.7404 69.0901C93.2429 69.3774 92.8505 69.2722 92.5633 68.7748L84.0637 54.5125C83.7765 54.015 83.8733 53.6275 84.3542 53.3498L87.3888 51.5978C87.8863 51.3106 88.2704 51.4205 88.541 51.9275L91.3893 57.1482L93.4539 55.9563C93.7192 55.8031 93.9744 55.7663 94.2193 55.846C94.4713 55.8995 94.6739 56.0589 94.8271 56.3242L96.0047 58.3639C96.1579 58.6292 96.1994 58.8927 96.1293 59.1542C96.0663 59.3896 95.9021 59.5839 95.6367 59.7371L93.4727 60.9865L96.4934 66.5057C96.7806 67.0032 96.6755 67.3955 96.178 67.6828L93.7404 69.0901ZM87.936 80.8653C87.3817 81.2074 86.8692 81.3154 86.3984 81.1892C85.9441 81.0535 85.546 80.7085 85.2039 80.1543L82.4984 75.8129C82.178 75.3345 82.2748 74.947 82.7889 74.6502L85.525 73.0705C86.0059 72.7928 86.39 72.9027 86.6772 73.4002L88.1354 76.0407L97.8859 70.4112C98.3668 70.1336 98.7317 70.2103 98.9807 70.6415L100.101 72.5816C100.398 73.0957 100.322 73.482 99.8744 73.7405L87.936 80.8653ZM77.1019 64.8001C77.4562 65.4137 77.9507 65.7915 78.5854 65.9335C79.2106 66.059 79.8134 65.9542 80.3938 65.6191C80.9742 65.284 81.3664 64.8144 81.5703 64.2102C81.7647 63.5894 81.6847 62.9723 81.3305 62.3587C80.9763 61.7452 80.4866 61.3757 79.8614 61.2502C79.2266 61.1081 78.619 61.2047 78.0386 61.5398C77.4582 61.8748 77.0709 62.3528 76.8765 62.9735C76.6726 63.5777 76.7477 64.1865 77.1019 64.8001ZM103.836 68.4019C103.614 68.5525 103.393 68.5915 103.174 68.5189C102.965 68.4628 102.793 68.3187 102.659 68.0865L101.482 66.0469C101.348 65.8147 101.309 65.594 101.365 65.3848C101.421 65.1755 101.565 65.0039 101.797 64.8698L104.832 63.1178L103.5 60.8686L103.127 61.084C101.966 61.7542 101.055 61.5172 100.395 60.373L97.4976 55.4126C97.1625 54.8322 97.0711 54.3101 97.2234 53.8463C97.3661 53.3659 97.6945 52.9773 98.2086 52.6805L107.547 47.2559L106.8 45.9624L96.4276 51.951C96.1623 52.1042 95.9037 52.154 95.6517 52.1005C95.4067 52.0208 95.2076 51.8483 95.0544 51.583L93.9343 49.6428C93.7811 49.3775 93.736 49.1272 93.7991 48.8917C93.8692 48.6302 94.0369 48.4228 94.3022 48.2696L107.34 40.8086C107.854 40.5118 108.355 40.4217 108.842 40.5383C109.337 40.6287 109.743 40.9689 110.062 41.5589L112.709 46.4313C113.008 46.9881 113.103 47.4971 112.994 47.9584C112.884 48.4196 112.544 48.8261 111.973 49.1778L102.688 54.6378L103.493 56.0307L113.78 50.1245C114.026 49.9381 114.226 49.8446 114.381 49.8439C114.552 49.8337 114.721 49.935 114.888 50.1481L115.936 51.9639C116.306 52.4135 116.3 52.8042 115.917 53.136L114.527 54.0043L115.996 56.6056L118.832 54.9684C119.064 54.8344 119.285 54.7954 119.494 54.8515C119.703 54.9076 119.875 55.0517 120.009 55.2838L121.028 57.0499C121.162 57.282 121.197 57.4945 121.131 57.6871C121.075 57.8964 120.936 58.0763 120.713 58.2269L103.836 68.4019ZM108.946 60.709L111.881 59.0144L110.435 56.5662L107.592 58.3067L108.946 60.709Z" fill="#A8A8A8"/>
<path d="M33.2124 122.081L138.927 61.0469" stroke="#A8A8A8" stroke-width="3.59024"/>
<path d="M11.6709 84.7705L117.385 23.7364" stroke="#A8A8A8" stroke-width="3.59024"/>
<path d="M52.1736 36.2481C52.1357 35.5162 52.9435 35.0499 53.5583 35.4486L56.6659 37.4639C56.9066 37.62 57.2074 37.6516 57.4754 37.5489L60.934 36.2239C61.6183 35.9617 62.3114 36.5858 62.1222 37.2938L61.1659 40.8719C61.0918 41.1491 61.1547 41.445 61.3351 41.6681L63.6642 44.548C64.125 45.1178 63.7456 45.9699 63.0138 46.0087L59.3152 46.2049C59.0287 46.2201 58.7667 46.3713 58.6103 46.6119L56.5911 49.7168C56.1916 50.3312 55.264 50.2337 55.0009 49.5497L53.6714 46.0928C53.5684 45.825 53.3436 45.6226 53.0665 45.5481L49.4896 44.5872C48.7818 44.3971 48.5879 43.4848 49.1571 43.0232L52.034 40.6905C52.2569 40.5098 52.3799 40.2335 52.3651 39.9469L52.1736 36.2481Z" fill="#A8A8A8"/>
<path d="M68.1455 34.2316C68.1304 33.9388 68.4535 33.7523 68.6994 33.9118L70.9357 35.362C71.032 35.4244 71.1523 35.4371 71.2595 35.396L73.7484 34.4424C74.0222 34.3376 74.2994 34.5872 74.2237 34.8704L73.5355 37.4454C73.5059 37.5562 73.5311 37.6746 73.6032 37.7638L75.2793 39.8363C75.4636 40.0642 75.3118 40.405 75.0191 40.4206L72.3575 40.5618C72.2429 40.5678 72.1381 40.6283 72.0756 40.7245L70.6225 42.959C70.4627 43.2047 70.0916 43.1657 69.9864 42.8921L69.0296 40.4044C68.9884 40.2973 68.8985 40.2163 68.7877 40.1865L66.2136 39.4951C65.9305 39.419 65.8529 39.0541 66.0806 38.8695L68.1509 37.1908C68.24 37.1185 68.2893 37.008 68.2833 36.8933L68.1455 34.2316Z" fill="#A8A8A8"/>
<path d="M43.2715 48.5929C43.2564 48.3001 43.5795 48.1136 43.8254 48.2731L46.0617 49.7233C46.158 49.7858 46.2783 49.7984 46.3855 49.7574L48.8744 48.8038C49.1481 48.6989 49.4254 48.9485 49.3497 49.2317L48.6615 51.8067C48.6319 51.9176 48.657 52.0359 48.7292 52.1252L50.4052 54.1976C50.5896 54.4255 50.4378 54.7664 50.1451 54.7819L47.4835 54.9231C47.3689 54.9292 47.2641 54.9897 47.2015 55.0859L45.7484 57.3203C45.5886 57.566 45.2176 57.527 45.1124 57.2534L44.1556 54.7657C44.1144 54.6586 44.0245 54.5777 43.9137 54.5479L41.3396 53.8564C41.0565 53.7803 40.9789 53.4154 41.2066 53.2308L43.2769 51.5521C43.366 51.4798 43.4152 51.3693 43.4093 51.2547L43.2715 48.5929Z" fill="#A8A8A8"/>
</svg>
