<svg width="315" height="109" viewBox="0 0 315 109" fill="none" xmlns="http://www.w3.org/2000/svg">
<path d="M-0.000976562 53.9234L74.1141 37.3799L87.3489 94.2897L14.5573 108.848L23.8217 77.7461L-0.000976562 53.9234Z" fill="#F3AD06"/>
<path d="M314.999 53.9234L240.884 37.3799L227.649 94.2897L300.441 108.848L291.176 77.7461L314.999 53.9234Z" fill="#F3AD06"/>
<path d="M227.64 94.2846L231.611 65.168L269.33 72.1292L227.64 94.2846Z" fill="#DF9D00"/>
<path d="M280.593 16.8617C185.339 -6.02765 131.419 -5.20979 34.4248 16.8617L46.3362 72.448C133.428 57.4375 182.251 55.9474 269.343 72.448L280.593 16.8617Z" fill="#FFB608"/>
<path d="M87.3473 94.2844L83.3769 66.4912L46.3193 72.4469L87.3473 94.2844Z" fill="#DF9D00"/>
<g filter="url(#filter0_d_2944_21334)">
<path d="M113.099 45.348C111.683 44.58 110.303 43.68 108.959 42.648C107.615 41.64 106.403 40.416 105.323 38.976C104.243 40.416 103.031 41.64 101.687 42.648C100.343 43.68 98.9746 44.58 97.5826 45.348C97.3426 45.468 97.1386 45.492 96.9706 45.42C96.8026 45.372 96.7186 45.168 96.7186 44.808V39.768C96.7186 39.168 96.9466 38.712 97.4026 38.4C97.9306 38.04 98.4826 37.62 99.0586 37.14C99.6346 36.66 100.163 36.132 100.643 35.556C101.147 34.98 101.555 34.38 101.867 33.756C102.179 33.108 102.335 32.448 102.335 31.776V17.664C102.335 17.232 102.431 16.908 102.623 16.692C102.815 16.476 103.151 16.368 103.631 16.368H107.051C107.531 16.368 107.867 16.476 108.059 16.692C108.251 16.908 108.347 17.232 108.347 17.664V31.776C108.347 32.448 108.503 33.108 108.815 33.756C109.127 34.38 109.523 34.98 110.003 35.556C110.507 36.132 111.047 36.66 111.623 37.14C112.199 37.62 112.751 38.04 113.279 38.4C113.735 38.712 113.963 39.168 113.963 39.768V44.808C113.963 45.168 113.879 45.372 113.711 45.42C113.543 45.492 113.339 45.468 113.099 45.348ZM119.399 46.536C118.919 46.536 118.583 46.428 118.391 46.212C118.199 45.996 118.103 45.672 118.103 45.24V17.664C118.103 17.232 118.199 16.908 118.391 16.692C118.583 16.476 118.919 16.368 119.399 16.368H122.927C123.407 16.368 123.743 16.476 123.935 16.692C124.127 16.908 124.223 17.232 124.223 17.664V45.24C124.223 45.672 124.127 45.996 123.935 46.212C123.743 46.428 123.407 46.536 122.927 46.536H119.399ZM147.627 20.508C148.611 21.132 149.763 21.696 151.083 22.2C152.427 22.68 153.927 23.124 155.583 23.532C155.871 23.604 156.063 23.712 156.159 23.856C156.279 23.976 156.339 24.192 156.339 24.504V27.384C156.339 27.936 156.003 28.152 155.331 28.032C154.467 27.888 153.495 27.672 152.415 27.384C151.359 27.096 150.279 26.76 149.175 26.376C148.095 25.968 147.039 25.536 146.007 25.08C144.999 24.624 144.111 24.18 143.343 23.748C143.223 23.7 143.091 23.652 142.947 23.604C142.803 23.532 142.659 23.496 142.515 23.496H142.119C141.807 23.496 141.531 23.58 141.291 23.748C140.523 24.18 139.623 24.624 138.591 25.08C137.583 25.536 136.527 25.968 135.423 26.376C134.343 26.76 133.263 27.096 132.183 27.384C131.127 27.672 130.167 27.888 129.303 28.032C128.631 28.152 128.295 27.936 128.295 27.384V24.504C128.295 24.192 128.343 23.976 128.439 23.856C128.559 23.712 128.763 23.604 129.051 23.532C130.707 23.124 132.195 22.68 133.515 22.2C134.859 21.696 136.023 21.132 137.007 20.508H129.591C129.159 20.508 128.835 20.412 128.619 20.22C128.403 20.028 128.295 19.692 128.295 19.212V17.664C128.295 17.184 128.403 16.848 128.619 16.656C128.835 16.464 129.159 16.368 129.591 16.368H155.043C155.475 16.368 155.799 16.464 156.015 16.656C156.231 16.848 156.339 17.184 156.339 17.664V19.212C156.339 19.692 156.231 20.028 156.015 20.22C155.799 20.412 155.475 20.508 155.043 20.508H147.627ZM156.339 45.24C156.339 45.672 156.243 45.996 156.051 46.212C155.859 46.428 155.523 46.536 155.043 46.536H129.591C129.111 46.536 128.775 46.428 128.583 46.212C128.391 45.996 128.295 45.672 128.295 45.24V38.148C128.295 37.716 128.391 37.392 128.583 37.176C128.775 36.96 129.111 36.852 129.591 36.852H133.119C133.599 36.852 133.935 36.96 134.127 37.176C134.319 37.392 134.415 37.716 134.415 38.148V42.396H155.043C155.523 42.396 155.859 42.504 156.051 42.72C156.243 42.936 156.339 43.26 156.339 43.692V45.24ZM129.591 34.116C129.159 34.116 128.835 34.02 128.619 33.828C128.403 33.636 128.295 33.3 128.295 32.82V31.272C128.295 30.792 128.403 30.456 128.619 30.264C128.835 30.072 129.159 29.976 129.591 29.976H155.043C155.475 29.976 155.799 30.072 156.015 30.264C156.231 30.456 156.339 30.792 156.339 31.272V32.82C156.339 33.3 156.231 33.636 156.015 33.828C155.799 34.02 155.475 34.116 155.043 34.116H129.591ZM187.663 41.172C187.663 42.3 187.495 43.212 187.159 43.908C186.823 44.604 186.343 45.144 185.719 45.528C185.119 45.912 184.399 46.176 183.559 46.32C182.743 46.464 181.843 46.536 180.859 46.536H166.387C165.403 46.536 164.503 46.464 163.687 46.32C162.871 46.176 162.151 45.912 161.527 45.528C160.927 45.144 160.459 44.604 160.123 43.908C159.787 43.212 159.619 42.3 159.619 41.172C159.619 40.068 159.787 39.168 160.123 38.472C160.459 37.752 160.927 37.2 161.527 36.816C162.151 36.432 162.871 36.168 163.687 36.024C164.503 35.88 165.403 35.808 166.387 35.808H180.859C181.843 35.808 182.743 35.88 183.559 36.024C184.399 36.168 185.119 36.432 185.719 36.816C186.343 37.2 186.823 37.752 187.159 38.472C187.495 39.168 187.663 40.068 187.663 41.172ZM178.951 20.508C179.935 21.132 181.087 21.696 182.407 22.2C183.751 22.68 185.251 23.124 186.907 23.532C187.195 23.604 187.387 23.712 187.483 23.856C187.603 23.976 187.663 24.192 187.663 24.504V27.384C187.663 27.936 187.327 28.152 186.655 28.032C185.791 27.888 184.819 27.672 183.739 27.384C182.683 27.096 181.603 26.76 180.499 26.376C179.419 25.968 178.363 25.536 177.331 25.08C176.323 24.624 175.435 24.18 174.667 23.748C174.547 23.7 174.415 23.652 174.271 23.604C174.127 23.532 173.983 23.496 173.839 23.496H173.443C173.131 23.496 172.855 23.58 172.615 23.748C171.847 24.18 170.947 24.624 169.915 25.08C168.907 25.536 167.851 25.968 166.747 26.376C165.667 26.76 164.587 27.096 163.507 27.384C162.451 27.672 161.491 27.888 160.627 28.032C159.955 28.152 159.619 27.936 159.619 27.384V24.504C159.619 24.192 159.667 23.976 159.763 23.856C159.883 23.712 160.087 23.604 160.375 23.532C162.031 23.124 163.519 22.68 164.839 22.2C166.183 21.696 167.347 21.132 168.331 20.508H160.915C160.483 20.508 160.159 20.412 159.943 20.22C159.727 20.028 159.619 19.692 159.619 19.212V17.664C159.619 17.184 159.727 16.848 159.943 16.656C160.159 16.464 160.483 16.368 160.915 16.368H186.367C186.799 16.368 187.123 16.464 187.339 16.656C187.555 16.848 187.663 17.184 187.663 17.664V19.212C187.663 19.692 187.555 20.028 187.339 20.22C187.123 20.412 186.799 20.508 186.367 20.508H178.951ZM160.915 33.756C160.483 33.756 160.159 33.66 159.943 33.468C159.727 33.276 159.619 32.94 159.619 32.46V30.876C159.619 30.396 159.727 30.06 159.943 29.868C160.159 29.676 160.483 29.58 160.915 29.58H170.599V27.564C170.599 27.132 170.695 26.808 170.887 26.592C171.079 26.376 171.415 26.268 171.895 26.268H175.387C175.867 26.268 176.203 26.376 176.395 26.592C176.587 26.808 176.683 27.132 176.683 27.564V29.58H186.367C186.799 29.58 187.123 29.676 187.339 29.868C187.555 30.06 187.663 30.396 187.663 30.876V32.46C187.663 32.94 187.555 33.276 187.339 33.468C187.123 33.66 186.799 33.756 186.367 33.756H160.915ZM165.739 41.172C165.739 41.652 165.847 41.964 166.063 42.108C166.303 42.276 166.651 42.36 167.107 42.36H180.139C180.619 42.36 180.967 42.276 181.183 42.108C181.423 41.964 181.543 41.652 181.543 41.172C181.543 40.692 181.423 40.38 181.183 40.236C180.967 40.068 180.619 39.984 180.139 39.984H167.107C166.651 39.984 166.303 40.068 166.063 40.236C165.847 40.38 165.739 40.692 165.739 41.172ZM192.599 46.536C192.167 46.536 191.843 46.44 191.627 46.248C191.411 46.056 191.303 45.72 191.303 45.24V43.656C191.303 43.176 191.411 42.84 191.627 42.648C191.843 42.456 192.167 42.36 192.599 42.36H195.443V35.952H192.959C192.479 35.952 192.143 35.844 191.951 35.628C191.759 35.412 191.663 35.088 191.663 34.656V25.44C191.663 25.008 191.759 24.684 191.951 24.468C192.143 24.252 192.479 24.144 192.959 24.144H212.147V20.508H192.959C192.479 20.508 192.143 20.4 191.951 20.184C191.759 19.968 191.663 19.644 191.663 19.212V17.664C191.663 17.232 191.759 16.908 191.951 16.692C192.143 16.476 192.479 16.368 192.959 16.368H216.971C217.451 16.368 217.787 16.476 217.979 16.692C218.171 16.908 218.267 17.232 218.267 17.664V27.024C218.267 27.456 218.171 27.78 217.979 27.996C217.787 28.212 217.451 28.32 216.971 28.32H197.747V31.776H216.971C217.451 31.776 217.787 31.884 217.979 32.1C218.171 32.316 218.267 32.64 218.267 33.072V34.656C218.267 35.088 218.171 35.412 217.979 35.628C217.787 35.844 217.451 35.952 216.971 35.952H214.487V42.36H217.331C217.763 42.36 218.087 42.456 218.303 42.648C218.519 42.84 218.627 43.176 218.627 43.656V45.24C218.627 45.72 218.519 46.056 218.303 46.248C218.087 46.44 217.763 46.536 217.331 46.536H192.599ZM201.527 42.36H208.403V35.952H201.527V42.36Z" fill="white"/>
</g>
<defs>
<filter id="filter0_d_2944_21334" x="95.2587" y="16.3682" width="124.828" height="33.0881" filterUnits="userSpaceOnUse" color-interpolation-filters="sRGB">
<feFlood flood-opacity="0" result="BackgroundImageFix"/>
<feColorMatrix in="SourceAlpha" type="matrix" values="0 0 0 0 0 0 0 0 0 0 0 0 0 0 0 0 0 0 127 0" result="hardAlpha"/>
<feOffset dy="1.46008"/>
<feGaussianBlur stdDeviation="0.730038"/>
<feComposite in2="hardAlpha" operator="out"/>
<feColorMatrix type="matrix" values="0 0 0 0 0 0 0 0 0 0 0 0 0 0 0 0 0 0 0.25 0"/>
<feBlend mode="normal" in2="BackgroundImageFix" result="effect1_dropShadow_2944_21334"/>
<feBlend mode="normal" in="SourceGraphic" in2="effect1_dropShadow_2944_21334" result="shape"/>
</filter>
</defs>
</svg>
