<svg width="17" height="17" viewBox="0 0 17 17" fill="none" xmlns="http://www.w3.org/2000/svg">
<path d="M7.66691 2.13289C8.13358 1.73956 8.88691 1.73956 9.34025 2.13289L10.3936 3.03289C10.5936 3.19956 10.9736 3.33956 11.2402 3.33956H12.3736C13.0802 3.33956 13.6602 3.91956 13.6602 4.62622V5.75956C13.6602 6.02622 13.8002 6.39956 13.9669 6.59956L14.8669 7.65289C15.2602 8.11956 15.2602 8.87289 14.8669 9.32622L13.9669 10.3796C13.8002 10.5796 13.6602 10.9529 13.6602 11.2196V12.3529C13.6602 13.0596 13.0802 13.6396 12.3736 13.6396H11.2402C10.9736 13.6396 10.6002 13.7796 10.4002 13.9462L9.34691 14.8462C8.88025 15.2396 8.12691 15.2396 7.67358 14.8462L6.62025 13.9462C6.42025 13.7796 6.04025 13.6396 5.78025 13.6396H4.61358C3.90691 13.6396 3.32691 13.0596 3.32691 12.3529V11.2129C3.32691 10.9529 3.19358 10.5729 3.02691 10.3796L2.12691 9.31956C1.74025 8.85956 1.74025 8.11289 2.12691 7.65289L3.02691 6.59289C3.19358 6.39289 3.32691 6.01956 3.32691 5.75956V4.63289C3.32691 3.92622 3.90691 3.34622 4.61358 3.34622H5.76691C6.03358 3.34622 6.40691 3.20622 6.60691 3.03956L7.66691 2.13289Z" stroke="white" stroke-width="0.714286" stroke-linecap="round" stroke-linejoin="round"/>
<path d="M6.16699 11.1264L8.50033 5.87305L10.8337 11.1264" stroke="white" stroke-width="0.714286" stroke-linejoin="bevel"/>
<path d="M9.66634 9.37305H7.33301" stroke="white" stroke-width="0.714286" stroke-linecap="round" stroke-linejoin="round"/>
</svg>
