<svg width="37" height="38" viewBox="0 0 37 38" fill="none" xmlns="http://www.w3.org/2000/svg">
<path d="M18.5066 8.66797C20.628 8.66797 22.3816 10.4398 22.3816 12.668C22.3816 14.8961 20.628 16.668 18.5066 16.668C16.3852 16.668 14.6316 14.8961 14.6316 12.668C14.6316 10.4399 16.3852 8.66797 18.5066 8.66797Z" stroke="white" stroke-width="1.5" stroke-linecap="round"/>
<path d="M21.2185 10.2647C21.528 9.71409 21.9877 9.27335 22.5367 8.99526C23.0855 8.7173 23.7007 8.61335 24.3051 8.69507C24.9096 8.7768 25.4794 9.04108 25.9418 9.45755C26.4044 9.87424 26.7388 10.4248 26.8996 11.0411C27.0605 11.6576 27.0396 12.3094 26.84 12.9133C26.6405 13.5171 26.2721 14.0434 25.7846 14.4276C25.2973 14.8116 24.7124 15.0369 24.1042 15.0779C23.4961 15.1188 22.8885 14.9738 22.3579 14.6592" stroke="white" stroke-width="1.5"/>
<path d="M15.7947 10.2647C15.4852 9.71409 15.0255 9.27335 14.4765 8.99526C13.9276 8.7173 13.3125 8.61335 12.7081 8.69507C12.1036 8.7768 11.5338 9.04108 11.0714 9.45755C10.6087 9.87424 10.2743 10.4248 10.1135 11.0411C9.95272 11.6576 9.97356 12.3094 10.1732 12.9133C10.3727 13.5171 10.7411 14.0434 11.2286 14.4276C11.7159 14.8116 12.3008 15.0369 12.909 15.0779C13.5171 15.1188 14.1247 14.9738 14.6552 14.6592" stroke="white" stroke-width="1.5"/>
<path d="M18.5065 19.793C25.2863 19.793 26.6451 25.8666 26.9174 28.3011C26.9787 28.8493 26.5385 29.293 25.987 29.293H11.026C10.4745 29.293 10.0343 28.8493 10.0956 28.3011C10.3679 25.8666 11.7268 19.793 18.5065 19.793Z" stroke="white" stroke-width="1.5" stroke-linecap="round"/>
<path d="M23.9028 18.209L23.9029 17.459H23.9028V18.209ZM29.896 25.042L30.6314 24.8946L30.6314 24.8946L29.896 25.042ZM26.4927 26.125L25.7708 26.3284L25.9248 26.875H26.4927V26.125ZM20.1831 19.9287L19.6226 19.4304L18.7246 20.4405L20.0569 20.668L20.1831 19.9287ZM23.9028 18.209L23.9028 18.959C25.6355 18.9591 26.8189 19.9148 27.6593 21.2189C28.5107 22.5402 28.9505 24.1414 29.1606 25.1894L29.896 25.042L30.6314 24.8946C30.4069 23.7748 29.9211 21.9596 28.9201 20.4064C27.9081 18.8359 26.3122 17.4591 23.9029 17.459L23.9028 18.209ZM29.896 25.042L29.1606 25.1894C29.1707 25.2399 29.1583 25.2766 29.131 25.308C29.1006 25.3429 29.046 25.375 28.9683 25.375V26.125V26.875C29.9842 26.875 30.8495 25.9823 30.6314 24.8946L29.896 25.042ZM28.9683 26.125V25.375H26.4927V26.125V26.875H28.9683V26.125ZM26.4927 26.125L27.2146 25.9216C26.4927 23.3601 24.698 19.9387 20.3093 19.1894L20.1831 19.9287L20.0569 20.668C23.6062 21.274 25.1153 24.0023 25.7708 26.3284L26.4927 26.125ZM20.1831 19.9287L20.7436 20.427C21.5209 19.5526 22.5325 18.959 23.9028 18.959V18.209V17.459C22.0254 17.459 20.6276 18.2998 19.6226 19.4304L20.1831 19.9287Z" fill="white"/>
<path d="M13.1113 18.209L13.1114 17.459H13.1113V18.209ZM16.8291 19.9287L16.9554 20.668L18.2876 20.4404L17.3896 19.4303L16.8291 19.9287ZM10.5205 26.125V26.875H11.0884L11.2424 26.3284L10.5205 26.125ZM7.11719 25.042L6.38182 24.8945L6.38182 24.8946L7.11719 25.042ZM13.1113 18.209L13.1113 18.959C14.4808 18.9591 15.4912 19.5528 16.2686 20.4271L16.8291 19.9287L17.3896 19.4303C16.3849 18.3005 14.9886 17.4591 13.1114 17.459L13.1113 18.209ZM16.8291 19.9287L16.7028 19.1894C12.315 19.9392 10.5204 23.3604 9.79862 25.9216L10.5205 26.125L11.2424 26.3284C11.8978 24.0025 13.4068 21.2744 16.9554 20.668L16.8291 19.9287ZM10.5205 26.125V25.375H8.04492V26.125V26.875H10.5205V26.125ZM8.04492 26.125V25.375C7.96721 25.375 7.91258 25.3429 7.88219 25.308C7.85485 25.2766 7.84244 25.2399 7.85256 25.1894L7.11719 25.042L6.38182 24.8946C6.16377 25.9823 7.02898 26.875 8.04492 26.875V26.125ZM7.11719 25.042L7.85255 25.1894C8.06268 24.1414 8.50263 22.5402 9.35431 21.2189C10.1949 19.9148 11.3785 18.959 13.1113 18.959V18.209V17.459C10.7019 17.459 9.10578 18.8358 8.09352 20.4062C7.09235 21.9595 6.60635 23.7748 6.38182 24.8945L7.11719 25.042Z" fill="white"/>
</svg>
