<svg width="300" height="300" viewBox="0 0 300 300" fill="none" xmlns="http://www.w3.org/2000/svg">
<rect width="300" height="300" rx="40" fill="#BA00FF"/>
<path d="M220.994 147.982H218.783C216.683 147.982 215.164 147.424 214.226 146.307C213.332 145.19 212.885 143.916 212.885 142.487C212.885 141.817 212.975 141.146 213.153 140.476C213.377 139.806 213.712 139.203 214.159 138.667C214.65 138.131 215.275 137.706 216.035 137.394C216.795 137.036 217.71 136.857 218.783 136.857H220.994V129.888C220.994 128.771 221.173 127.788 221.53 126.939C221.932 126.09 222.446 125.398 223.072 124.862C223.697 124.325 224.39 123.923 225.149 123.655C225.953 123.387 226.78 123.253 227.629 123.253C228.478 123.253 229.282 123.387 230.041 123.655C230.846 123.923 231.56 124.325 232.186 124.862C232.811 125.398 233.303 126.09 233.66 126.939C234.062 127.788 234.263 128.771 234.263 129.888V136.857H238.217C239.289 136.857 240.183 137.036 240.898 137.394C241.657 137.706 242.261 138.131 242.707 138.667C243.199 139.203 243.556 139.806 243.78 140.476C244.003 141.146 244.115 141.817 244.115 142.487C244.115 143.916 243.646 145.19 242.707 146.307C241.814 147.424 240.317 147.982 238.217 147.982H234.263V161.43C234.263 162.457 234.347 165.585 234.749 165.898C235.196 166.21 235.657 166.598 236.238 166.642C236.73 166.687 237.698 166.359 238.1 166.27C238.502 166.136 240.036 165.898 240.706 165.898C241.823 165.898 242.463 165.972 243.312 166.642C244.161 167.312 244.95 168.504 245.174 169.621C245.486 171.006 245.338 173.761 244.801 174.833C244.31 175.905 243.044 176.649 241.823 177.439C241.063 177.931 240.334 178.288 238.844 178.608C237.355 178.928 236.283 178.928 235.121 178.928C232.887 178.928 230.846 178.363 229.103 177.871C227.361 177.38 225.886 176.598 224.68 175.526C223.474 174.453 222.558 173.046 221.932 171.304C221.307 169.561 220.994 167.417 220.994 164.87V147.982Z" fill="white"/>
<path d="M71.2975 160.32C71.2975 163.716 70.739 166.62 69.6221 169.032C68.5052 171.445 66.9861 173.411 65.065 174.93C63.1439 176.449 60.91 177.566 58.3634 178.281C55.8168 178.995 53.1138 179.353 50.2545 179.353C47.3505 179.353 44.4911 178.973 41.6765 178.214C38.9065 177.499 36.4269 176.337 34.2377 174.729C32.0932 173.076 30.3508 170.954 29.0105 168.362C27.6702 165.771 27 162.644 27 158.98V144.371C27 140.662 27.6702 137.513 29.0105 134.921C30.3508 132.33 32.1155 130.23 34.3047 128.622C36.4939 127.014 38.9958 125.852 41.8105 125.137C44.6252 124.378 47.5069 123.998 50.4556 123.998C53.5383 123.998 56.3529 124.311 58.8995 124.936C61.4461 125.562 63.3673 126.343 64.6629 127.282C66.0479 128.264 67.0085 129.493 67.5446 130.967C68.0807 132.397 67.9467 133.827 67.1425 135.256C66.4723 136.418 65.5788 137.245 64.4619 137.736C63.3449 138.228 62.2057 138.362 61.0441 138.138C60.2845 138.004 59.592 137.803 58.9666 137.535C58.3858 137.222 57.8496 136.954 57.3582 136.731C55.7945 136.15 53.4936 135.86 50.4556 135.86C49.2939 135.86 48.1323 136.061 46.9707 136.463C45.8091 136.82 44.7592 137.379 43.821 138.138C42.8828 138.853 42.1232 139.791 41.5424 140.953C40.9616 142.114 40.6712 143.455 40.6712 144.974V158.377C40.6712 159.941 40.9393 161.303 41.4754 162.465C42.0116 163.582 42.7264 164.52 43.6199 165.28C44.5582 165.994 45.5857 166.553 46.7027 166.955C47.8643 167.312 49.0482 167.491 50.2545 167.491C51.3714 167.491 52.466 167.357 53.5383 167.089C54.6105 166.776 55.5488 166.352 56.3529 165.816C57.1571 165.235 57.805 164.52 58.2964 163.671C58.7879 162.778 59.0336 161.728 59.0336 160.521V159.717C59.0336 159.047 58.9219 158.623 58.6985 158.444C58.5198 158.265 58.1177 158.176 57.4922 158.176H55.2807C54.2978 158.176 53.4713 158.02 52.8011 157.707C52.1309 157.349 51.5725 156.903 51.1257 156.366C50.7236 155.83 50.4109 155.227 50.1875 154.557C50.0088 153.887 49.9194 153.217 49.9194 152.547C49.9194 151.876 50.0088 151.206 50.1875 150.536C50.4109 149.821 50.7236 149.196 51.1257 148.66C51.5725 148.079 52.1309 147.61 52.8011 147.252C53.5159 146.895 54.3425 146.716 55.2807 146.716H61.3791C63.3449 146.716 64.9757 146.895 66.2713 147.252C67.5669 147.565 68.5722 148.124 69.287 148.928C70.0465 149.687 70.5603 150.715 70.8284 152.01C71.1411 153.261 71.2975 154.825 71.2975 156.702V160.32Z" fill="white"/>
<path d="M259.24 165.51C261.518 165.51 263.283 166.136 264.534 167.387C265.785 168.593 266.411 170.224 266.411 172.279C266.411 174.334 265.785 175.988 264.534 177.239C263.283 178.445 261.518 179.047 259.24 179.047C256.961 179.047 255.197 178.445 253.946 177.239C252.695 176.032 252.069 174.378 252.069 172.279C252.069 170.179 252.695 168.526 253.946 167.32C255.197 166.113 256.961 165.51 259.24 165.51ZM259.24 120.275C260.089 120.275 260.915 120.431 261.719 120.743C262.568 121.011 263.306 121.436 263.931 122.017C264.601 122.553 265.115 123.246 265.472 124.095C265.874 124.899 266.396 125.302 266.768 127.006C266.775 127.023 267.485 128.795 268.381 131.543C264.88 131.882 262.301 133.043 262.3 134.422C262.3 136.018 265.75 137.32 270.084 137.397C270.273 138.135 270.459 138.894 270.632 139.667C266.75 139.843 263.79 140.76 263.79 141.868C263.79 143.056 267.186 144.024 271.474 144.095C272.671 151.929 272.2 159.999 266.076 162.361C261.094 164.282 257.385 164.282 252.404 162.361C239.5 157.384 251.851 127.066 251.875 127.006C252.248 125.889 252.583 124.899 252.94 124.095C253.342 123.246 253.856 122.553 254.482 122.017C255.107 121.436 255.822 121.011 256.626 120.743C257.475 120.431 258.346 120.275 259.24 120.275Z" fill="white"/>
<path d="M155.747 133.978C157.534 133.487 159.276 133.599 160.974 134.314C162.716 135.029 163.945 136.458 164.66 138.603L171.361 159.31L177.862 138.535C178.175 137.508 178.621 136.659 179.202 135.989C179.828 135.274 180.52 134.738 181.279 134.38C182.083 134.023 182.933 133.822 183.826 133.778C184.72 133.688 185.613 133.754 186.507 133.978C187.356 134.201 188.138 134.604 188.853 135.185C189.567 135.721 190.126 136.391 190.528 137.195C190.93 137.954 191.175 138.803 191.265 139.741C191.354 140.68 191.198 141.64 190.796 142.623C190.791 142.636 189.597 146.126 187.924 150.848C184.069 151.09 181.137 152.312 181.137 153.782C181.137 154.983 183.09 156.016 185.903 156.488C185.585 157.365 185.26 158.253 184.933 159.142C181.843 159.462 179.648 160.274 179.647 161.229C179.647 162.022 181.166 162.716 183.453 163.113C181.306 168.788 179.24 173.858 178.13 175.528C175.18 179.966 167.361 180.338 164.19 175.528C161.02 170.716 151.189 142.556 151.189 142.556C150.787 141.573 150.631 140.635 150.721 139.741C150.855 138.803 151.145 137.954 151.592 137.195C152.039 136.391 152.619 135.721 153.334 135.185C154.049 134.649 154.854 134.246 155.747 133.978Z" fill="white"/>
<path d="M202.27 136.232C204.146 136.232 205.754 136.768 207.095 137.841C208.48 138.913 209.172 140.61 209.172 142.933C209.172 142.933 221.769 172.639 209.172 177.648C204.163 179.64 200.377 179.64 195.367 177.648C190.36 175.657 189.335 169.764 189.915 163.386C193.432 163.136 196.028 162.267 196.028 161.229C196.028 160.251 193.721 159.421 190.509 159.119C190.658 158.305 190.825 157.496 191.004 156.698C194.723 156.417 197.517 155.219 197.518 153.783C197.518 152.547 195.449 151.487 192.503 151.036C193.924 146.338 195.367 142.933 195.367 142.933C195.367 140.61 196.038 138.913 197.378 137.841C198.763 136.768 200.393 136.232 202.27 136.232ZM202.27 121.019C204.146 121.019 205.777 121.511 207.162 122.494C208.547 123.432 209.239 124.996 209.239 127.185C209.239 128.302 209.038 129.262 208.636 130.066C208.278 130.826 207.788 131.452 207.162 131.943C206.537 132.435 205.799 132.792 204.95 133.015C204.101 133.239 203.208 133.35 202.27 133.35C201.331 133.35 200.438 133.239 199.589 133.015C198.74 132.792 198.003 132.434 197.378 131.943C196.752 131.452 196.238 130.826 195.836 130.066C195.479 129.262 195.3 128.302 195.3 127.185C195.3 124.996 195.993 123.432 197.378 122.494C198.763 121.511 200.393 121.019 202.27 121.019Z" fill="white"/>
<path d="M101.304 132.189C101.796 132.189 102.31 132.233 102.846 132.323C103.427 132.367 103.963 132.502 104.455 132.725C105.75 133.261 106.71 134.155 107.335 135.406C108.006 136.656 108.23 138.064 108.006 139.627C107.783 141.191 107.112 142.442 105.996 143.38C104.923 144.318 103.65 144.787 102.175 144.787H100.634C100.098 144.743 99.5846 144.743 99.0933 144.787C97.217 144.921 95.133 145.438 94.3882 146.12C93.8304 146.632 92.5239 147.774 92.9946 150.485C93.1675 151.479 94.239 154.212 95.3276 157.568C91.6032 157.848 88.8032 159.047 88.8032 160.485C88.8038 162.128 92.4664 163.46 96.9858 163.462C97.0989 163.961 97.2026 164.46 97.2964 164.956C97.1962 164.955 97.0957 164.952 96.9946 164.952C92.4712 164.952 88.8037 166.119 88.8032 167.558C88.8032 168.997 92.471 170.164 96.9946 170.164C97.2642 170.164 97.5306 170.159 97.7935 170.151C97.7414 171.97 97.3765 173.579 96.5464 174.788C92.4584 180.745 82.102 181.118 77.6343 174.416C73.1769 167.73 79.3615 139.023 79.3901 138.891C79.3901 137.774 79.5689 136.813 79.9263 136.009C80.3283 135.16 80.8418 134.467 81.4673 133.931C82.0927 133.35 82.8077 132.926 83.6118 132.657C84.416 132.345 85.2652 132.189 86.1587 132.189C87.4543 132.189 88.6609 132.502 89.7778 133.127C90.9393 133.753 91.8103 134.691 92.3911 135.942C93.6421 134.78 95.0274 133.864 96.5464 133.194C98.0653 132.524 99.6513 132.189 101.304 132.189Z" fill="white"/>
<path d="M132.28 127.745C133.673 122.797 136.887 119.372 139.46 120.097C142.034 120.821 142.99 125.42 141.597 130.368C140.933 132.727 139.854 134.738 138.629 136.12C139.739 136.605 140.756 137.223 141.683 137.975C143.381 139.27 144.721 141.079 145.704 143.402C146.731 145.726 147.245 148.698 147.245 152.316C147.258 152.422 149.833 172.253 147.245 176.308C144.65 180.373 137.576 178.541 136.459 176.776C135.343 175.012 136.459 173.672 136.121 173.493C135.782 173.314 133.305 175.66 131.563 176.375C129.821 177.09 127.944 177.447 125.934 177.447H124.459C123.075 177.447 121.578 177.223 119.969 176.776C118.361 176.374 116.865 175.659 115.48 174.632C114.14 173.604 113 172.22 112.062 170.478C111.168 168.735 110.721 166.545 110.721 163.909C110.721 161.363 111.169 159.241 112.062 157.543C112.956 155.845 114.139 154.483 115.614 153.455C117.133 152.428 118.875 151.691 120.84 151.244C122.851 150.797 124.951 150.573 127.14 150.573H134.042C133.998 149.591 133.797 148.787 133.44 148.161C133.127 147.491 132.68 146.977 132.099 146.619C131.563 146.217 130.915 145.949 130.156 145.815C129.441 145.637 128.682 145.547 127.877 145.547C127.118 145.547 126.38 145.614 125.666 145.748C124.951 145.882 124.191 146.061 123.387 146.284C122.851 146.463 122.338 146.664 121.846 146.888C121.399 147.111 120.863 147.357 120.238 147.625C119.612 147.938 118.942 148.116 118.227 148.161C117.557 148.161 116.886 148.071 116.216 147.893C115.546 147.669 114.921 147.334 114.34 146.888C113.804 146.441 113.38 145.882 113.067 145.212C112.442 143.872 112.353 142.576 112.799 141.325C113.246 140.03 114.05 138.935 115.211 138.042C116.105 137.372 117.11 136.813 118.227 136.366C118.427 136.286 118.628 136.21 118.831 136.136C117.651 134.941 116.572 133.248 115.807 131.246C114.054 126.653 114.625 122.169 117.083 121.23C119.542 120.292 122.958 123.254 124.711 127.847C125.65 130.304 125.921 132.73 125.595 134.599C126.752 134.483 127.87 134.423 128.95 134.423C129.947 134.423 130.924 134.471 131.883 134.562C131.472 132.69 131.571 130.263 132.28 127.745ZM132.736 160.269C131.619 159.524 128.268 159.896 128.268 159.896C126.407 160.269 125.588 160.76 124.917 161.386C124.248 161.967 123.991 162.771 123.991 163.843C123.991 164.96 124.326 165.786 124.996 166.322C125.666 166.858 126.582 167.126 127.744 167.126H128.682C129.307 167.126 129.933 167.037 130.558 166.858C131.184 166.68 131.742 166.411 132.234 166.054C132.77 165.696 133.194 165.25 133.506 164.714C133.864 164.178 134.042 163.553 134.042 162.838C134.042 162.838 133.853 161.013 132.736 160.269Z" fill="white"/>
</svg>
