<svg width="165" height="214" viewBox="0 0 165 214" fill="none" xmlns="http://www.w3.org/2000/svg">
<path d="M81.0082 8.13037L151.163 59.5015V162.244L81.0082 213.615L10.8531 162.244V59.5015L81.0082 8.13037Z" fill="#6C3F00"/>
<path d="M81.0076 25.9121L139.185 68.392V153.352L81.0076 195.832L22.8302 153.352V68.392L81.0076 25.9121Z" fill="url(#paint0_linear_3576_6695)"/>
<path d="M22.7221 68.3916L10.8672 59.5005V162.243L22.7221 153.352V68.3916Z" fill="#B56B03"/>
<path d="M139.294 68.3916L151.148 59.5005V162.243L139.294 153.352V68.3916Z" fill="#A25F00"/>
<path d="M81.0088 25.9127V8.13037L151.15 59.5014L139.295 68.3926L81.0088 25.9127Z" fill="url(#paint1_linear_3576_6695)"/>
<path d="M81.0088 195.832V213.614L10.8675 162.243L22.7224 153.352L81.0088 195.832Z" fill="url(#paint2_linear_3576_6695)"/>
<path d="M117.56 52.5864L22.7207 122.728V153.353L139.294 68.3929L117.56 52.5864Z" fill="url(#paint3_linear_3576_6695)"/>
<path d="M44.456 169.158L36.5527 163.231L139.295 85.1865V95.0656L44.456 169.158Z" fill="url(#paint4_linear_3576_6695)"/>
<path d="M139.296 153.352L117.562 169.159C109.884 139.27 128.784 124.104 139.296 120.751L139.296 153.352Z" fill="url(#paint5_radial_3576_6695)"/>
<path d="M79.8732 7.90055L104.243 19.228C81.8396 40.4499 59.4055 31.2886 51.3715 23.7268L79.8732 7.90055Z" fill="url(#paint6_radial_3576_6695)"/>
<path d="M139.297 68.3926L162.013 51.6385C170.364 81.3458 149.729 95.4271 139.297 99.0169L139.297 68.3926Z" fill="url(#paint7_radial_3576_6695)"/>
<path d="M81.9962 25.9144L104.718 42.7086C82.3143 63.9306 62.3689 53.2343 54.3349 45.6725L81.9962 25.9144Z" fill="url(#paint8_radial_3576_6695)"/>
<mask id="path-13-outside-1_3576_6695" maskUnits="userSpaceOnUse" x="48.3232" y="64.3076" width="71" height="88" fill="black">
<rect fill="white" x="48.3232" y="64.3076" width="71" height="88"/>
<path d="M80.9298 103.502C83.0162 103.375 84.3756 103.249 85.0078 103.122C88.3588 102.806 90.9827 101.826 92.8795 100.182C94.7762 98.5385 95.6298 96.4837 95.4401 94.0178C95.2504 91.0462 93.9543 88.8333 91.5517 87.3791C89.1491 85.8617 86.2091 85.3243 82.7317 85.7669C80.3291 86.083 78.2426 86.9681 76.4723 88.4223C74.7652 89.8765 73.5323 91.5204 72.7736 93.354C72.3942 94.3656 71.762 95.1559 70.8768 95.7249C70.0549 96.294 69.1381 96.7049 68.1265 96.9578C67.1149 97.2108 66.04 97.3056 64.902 97.2424C63.7639 97.1791 62.7207 97.0211 61.7723 96.7682C60.5078 96.3888 59.4962 95.8514 58.7374 95.1559C57.9787 94.4604 57.4413 93.6385 57.1252 92.6901C56.8091 91.7417 56.7142 90.7301 56.8407 89.6552C56.9671 88.5172 57.2516 87.4107 57.6942 86.3359C58.2632 84.8185 59.3065 83.2694 60.8239 81.6888C62.4045 80.0449 64.3013 78.5591 66.5142 77.2313C68.7904 75.8404 71.351 74.7023 74.1962 73.8172C77.1046 72.932 80.2343 72.4262 83.5852 72.2997C87.2523 72.2365 90.7298 72.7107 94.0175 73.7223C97.3685 74.6707 100.277 76.0617 102.743 77.8952C105.272 79.6655 107.263 81.7836 108.718 84.2494C110.172 86.7152 110.899 89.3707 110.899 92.2159C110.899 96.7682 109.698 100.435 107.295 103.217C104.956 105.999 101.794 107.928 97.8111 109.002C101.794 109.508 104.861 111.026 107.01 113.555C109.223 116.02 110.33 119.308 110.33 123.418C110.33 126.326 109.698 129.045 108.433 131.574C107.169 134.04 105.398 136.19 103.122 138.023C100.846 139.857 98.0956 141.279 94.8711 142.291C91.6466 143.366 88.1059 143.903 84.2491 143.903C80.2659 143.903 76.662 143.492 73.4375 142.67C70.2762 141.848 67.5575 140.742 65.2813 139.351C63.0684 137.96 61.3613 136.348 60.16 134.514C58.9587 132.617 58.3581 130.657 58.3581 128.634C58.3581 127.306 58.6426 126.073 59.2116 124.935C59.8439 123.797 60.7923 122.944 62.0568 122.375C62.8155 121.995 63.6058 121.711 64.4278 121.521C65.3129 121.331 66.1665 121.268 66.9884 121.331C67.8736 121.395 68.6639 121.616 69.3594 121.995C70.0549 122.311 70.6239 122.817 71.0665 123.513C72.5207 125.979 74.4175 127.749 76.7568 128.824C79.0962 129.835 81.8465 130.373 85.0078 130.436C86.3988 130.436 87.6949 130.278 88.8962 129.962C90.0975 129.646 91.1407 129.171 92.0259 128.539C92.9111 127.844 93.6066 127.022 94.1124 126.073C94.6182 125.125 94.8711 124.05 94.8711 122.849C94.8078 121.205 93.9227 119.751 92.2156 118.486C90.5717 117.159 88.5485 116.4 86.1459 116.21C85.7665 116.21 85.0078 116.179 83.8698 116.115C82.7317 116.052 81.4988 115.989 80.171 115.926C78.9065 115.799 77.7052 115.704 76.5672 115.641C75.4291 115.578 74.6704 115.546 74.291 115.546C72.8368 115.483 71.762 114.882 71.0665 113.744C70.4342 112.606 70.1181 111.31 70.1181 109.856C70.1181 108.402 70.4342 107.137 71.0665 106.062C71.762 104.924 72.8368 104.26 74.291 104.071C76.6936 103.755 78.9065 103.565 80.9298 103.502Z"/>
</mask>
<path d="M80.9298 103.502C83.0162 103.375 84.3756 103.249 85.0078 103.122C88.3588 102.806 90.9827 101.826 92.8795 100.182C94.7762 98.5385 95.6298 96.4837 95.4401 94.0178C95.2504 91.0462 93.9543 88.8333 91.5517 87.3791C89.1491 85.8617 86.2091 85.3243 82.7317 85.7669C80.3291 86.083 78.2426 86.9681 76.4723 88.4223C74.7652 89.8765 73.5323 91.5204 72.7736 93.354C72.3942 94.3656 71.762 95.1559 70.8768 95.7249C70.0549 96.294 69.1381 96.7049 68.1265 96.9578C67.1149 97.2108 66.04 97.3056 64.902 97.2424C63.7639 97.1791 62.7207 97.0211 61.7723 96.7682C60.5078 96.3888 59.4962 95.8514 58.7374 95.1559C57.9787 94.4604 57.4413 93.6385 57.1252 92.6901C56.8091 91.7417 56.7142 90.7301 56.8407 89.6552C56.9671 88.5172 57.2516 87.4107 57.6942 86.3359C58.2632 84.8185 59.3065 83.2694 60.8239 81.6888C62.4045 80.0449 64.3013 78.5591 66.5142 77.2313C68.7904 75.8404 71.351 74.7023 74.1962 73.8172C77.1046 72.932 80.2343 72.4262 83.5852 72.2997C87.2523 72.2365 90.7298 72.7107 94.0175 73.7223C97.3685 74.6707 100.277 76.0617 102.743 77.8952C105.272 79.6655 107.263 81.7836 108.718 84.2494C110.172 86.7152 110.899 89.3707 110.899 92.2159C110.899 96.7682 109.698 100.435 107.295 103.217C104.956 105.999 101.794 107.928 97.8111 109.002C101.794 109.508 104.861 111.026 107.01 113.555C109.223 116.02 110.33 119.308 110.33 123.418C110.33 126.326 109.698 129.045 108.433 131.574C107.169 134.04 105.398 136.19 103.122 138.023C100.846 139.857 98.0956 141.279 94.8711 142.291C91.6466 143.366 88.1059 143.903 84.2491 143.903C80.2659 143.903 76.662 143.492 73.4375 142.67C70.2762 141.848 67.5575 140.742 65.2813 139.351C63.0684 137.96 61.3613 136.348 60.16 134.514C58.9587 132.617 58.3581 130.657 58.3581 128.634C58.3581 127.306 58.6426 126.073 59.2116 124.935C59.8439 123.797 60.7923 122.944 62.0568 122.375C62.8155 121.995 63.6058 121.711 64.4278 121.521C65.3129 121.331 66.1665 121.268 66.9884 121.331C67.8736 121.395 68.6639 121.616 69.3594 121.995C70.0549 122.311 70.6239 122.817 71.0665 123.513C72.5207 125.979 74.4175 127.749 76.7568 128.824C79.0962 129.835 81.8465 130.373 85.0078 130.436C86.3988 130.436 87.6949 130.278 88.8962 129.962C90.0975 129.646 91.1407 129.171 92.0259 128.539C92.9111 127.844 93.6066 127.022 94.1124 126.073C94.6182 125.125 94.8711 124.05 94.8711 122.849C94.8078 121.205 93.9227 119.751 92.2156 118.486C90.5717 117.159 88.5485 116.4 86.1459 116.21C85.7665 116.21 85.0078 116.179 83.8698 116.115C82.7317 116.052 81.4988 115.989 80.171 115.926C78.9065 115.799 77.7052 115.704 76.5672 115.641C75.4291 115.578 74.6704 115.546 74.291 115.546C72.8368 115.483 71.762 114.882 71.0665 113.744C70.4342 112.606 70.1181 111.31 70.1181 109.856C70.1181 108.402 70.4342 107.137 71.0665 106.062C71.762 104.924 72.8368 104.26 74.291 104.071C76.6936 103.755 78.9065 103.565 80.9298 103.502Z" fill="white"/>
<path d="M80.9298 103.502L81.1766 111.401L81.2923 111.398L81.4079 111.391L80.9298 103.502ZM85.0078 103.122L84.2655 95.2541L83.8586 95.2925L83.4579 95.3726L85.0078 103.122ZM92.8795 100.182L98.0555 106.155L98.0555 106.155L92.8795 100.182ZM95.4401 94.0178L87.5529 94.5213L87.5562 94.5727L87.5601 94.624L95.4401 94.0178ZM91.5517 87.3791L87.3314 94.0612L87.395 94.1014L87.4594 94.1403L91.5517 87.3791ZM82.7317 85.7669L81.7339 77.9269L81.7173 77.929L81.7007 77.9311L82.7317 85.7669ZM76.4723 88.4223L71.4558 82.3153L71.4012 82.3602L71.3473 82.4061L76.4723 88.4223ZM72.7736 93.354L65.4709 90.3321L65.4201 90.4547L65.3736 90.5789L72.7736 93.354ZM70.8768 95.7249L66.6031 89.0769L66.4894 89.15L66.3782 89.227L70.8768 95.7249ZM64.902 97.2424L65.3404 89.3513L65.3404 89.3513L64.902 97.2424ZM61.7723 96.7682L59.5013 104.338L59.6181 104.373L59.7359 104.405L61.7723 96.7682ZM58.7374 95.1559L53.397 100.982L53.397 100.982L58.7374 95.1559ZM57.1252 92.6901L64.6229 90.1909L64.6229 90.1909L57.1252 92.6901ZM56.8407 89.6552L64.6898 90.5787L64.6928 90.5534L64.6956 90.528L56.8407 89.6552ZM57.6942 86.3359L65.0022 89.345L65.0501 89.2287L65.0943 89.1109L57.6942 86.3359ZM60.8239 81.6888L55.127 76.211L55.1226 76.2155L60.8239 81.6888ZM66.5142 77.2313L70.5804 84.0083L70.608 83.9918L70.6354 83.975L66.5142 77.2313ZM74.1962 73.8172L71.8951 66.2563L71.8717 66.2634L71.8484 66.2707L74.1962 73.8172ZM83.5852 72.2997L83.449 64.3977L83.3681 64.399L83.2872 64.4021L83.5852 72.2997ZM94.0175 73.7223L91.6933 81.2761L91.779 81.3024L91.8653 81.3269L94.0175 73.7223ZM102.743 77.8952L98.0268 84.2373L98.1177 84.3049L98.2105 84.3698L102.743 77.8952ZM108.718 84.2494L115.525 80.2347L115.525 80.2347L108.718 84.2494ZM107.295 103.217L101.314 98.0515L101.28 98.0909L101.246 98.1307L107.295 103.217ZM97.8111 109.002L95.7521 101.372L96.8155 116.843L97.8111 109.002ZM107.01 113.555L100.989 118.673L101.058 118.754L101.129 118.833L107.01 113.555ZM108.433 131.574L115.465 135.18L115.484 135.145L115.502 135.108L108.433 131.574ZM103.122 138.023L98.1641 131.868V131.868L103.122 138.023ZM94.8711 142.291L92.5053 134.75L92.4384 134.771L92.3718 134.793L94.8711 142.291ZM73.4375 142.67L71.4488 150.319L71.467 150.324L71.4853 150.329L73.4375 142.67ZM65.2813 139.351L61.0754 146.042L61.1176 146.069L61.1602 146.095L65.2813 139.351ZM60.16 134.514L53.4832 138.743L53.5158 138.794L53.5493 138.845L60.16 134.514ZM59.2116 124.935L52.303 121.097L52.2196 121.247L52.1428 121.401L59.2116 124.935ZM62.0568 122.375L65.3 129.582L65.447 129.516L65.5912 129.444L62.0568 122.375ZM64.4278 121.521L62.7718 113.793L62.7111 113.806L62.6507 113.82L64.4278 121.521ZM66.9884 121.331L66.3823 129.211L66.4038 129.213L66.4253 129.215L66.9884 121.331ZM69.3594 121.995L65.5749 128.934L65.8273 129.071L66.089 129.19L69.3594 121.995ZM71.0665 123.513L77.8741 119.498L77.8061 119.383L77.7342 119.27L71.0665 123.513ZM76.7568 128.824L73.4572 136.005L73.5382 136.042L73.62 136.078L76.7568 128.824ZM85.0078 130.436L84.8498 138.338L84.9288 138.339H85.0078V130.436ZM88.8962 129.962L86.8849 122.319L86.8849 122.319L88.8962 129.962ZM92.0259 128.539L96.6196 134.97L96.7666 134.865L96.9087 134.754L92.0259 128.539ZM94.1124 126.073L87.1389 122.354L87.1389 122.354L94.1124 126.073ZM94.8711 122.849H102.774V122.697L102.768 122.545L94.8711 122.849ZM92.2156 118.486L87.2497 124.635L87.3784 124.739L87.5114 124.837L92.2156 118.486ZM86.1459 116.21L86.7679 108.331L86.4574 108.307H86.1459V116.21ZM83.8698 116.115L84.3082 108.224H84.3082L83.8698 116.115ZM80.171 115.926L79.3846 123.79L79.5895 123.81L79.7951 123.82L80.171 115.926ZM76.5672 115.641L76.1288 123.532L76.5672 115.641ZM74.291 115.546L73.9477 123.442L74.1193 123.45H74.291V115.546ZM71.0665 113.744L64.1578 117.582L64.2374 117.726L64.3228 117.865L71.0665 113.744ZM71.0665 106.062L64.3228 101.941L64.2881 101.998L64.2544 102.055L71.0665 106.062ZM74.291 104.071L75.3132 111.908L75.322 111.906L74.291 104.071ZM80.9298 103.502L81.4079 111.391C83.3719 111.271 85.2959 111.125 86.5578 110.872L85.0078 103.122L83.4579 95.3726C83.5715 95.3499 83.4197 95.3835 82.7821 95.4428C82.2187 95.4952 81.4494 95.5525 80.4516 95.613L80.9298 103.502ZM85.0078 103.122L85.7501 110.991C90.1896 110.572 94.553 109.19 98.0555 106.155L92.8795 100.182L87.7034 94.21C87.4123 94.4622 86.528 95.0406 84.2655 95.2541L85.0078 103.122ZM92.8795 100.182L98.0555 106.155C101.812 102.899 103.705 98.4187 103.32 93.4117L95.4401 94.0178L87.5601 94.624C87.5662 94.7029 87.5584 94.7031 87.5674 94.6418C87.5769 94.5774 87.5995 94.4828 87.6436 94.3766C87.6875 94.2708 87.7353 94.1956 87.7644 94.1565C87.7914 94.1202 87.7826 94.1413 87.7034 94.21L92.8795 100.182ZM95.4401 94.0178L103.327 93.5144C102.985 88.1455 100.412 83.5041 95.644 80.6179L91.5517 87.3791L87.4594 94.1403C87.5672 94.2056 87.5962 94.2387 87.5818 94.2244C87.5649 94.2077 87.534 94.1712 87.5062 94.1238C87.4791 94.0776 87.4801 94.0638 87.493 94.1087C87.507 94.1576 87.538 94.2871 87.5529 94.5213L95.4401 94.0178ZM91.5517 87.3791L95.772 80.697C91.4804 77.9865 86.5934 77.3084 81.7339 77.9269L82.7317 85.7669L83.7295 93.6069C85.8248 93.3402 86.8179 93.7369 87.3314 94.0612L91.5517 87.3791ZM82.7317 85.7669L81.7007 77.9311C77.9226 78.4283 74.4341 79.8689 71.4558 82.3153L76.4723 88.4223L81.4888 94.5294C82.0512 94.0674 82.7356 93.7377 83.7627 93.6026L82.7317 85.7669ZM76.4723 88.4223L71.3473 82.4061C68.8126 84.5653 66.7673 87.1992 65.4709 90.3321L72.7736 93.354L80.0763 96.3758C80.2974 95.8416 80.7179 95.1878 81.5973 94.4386L76.4723 88.4223ZM72.7736 93.354L65.3736 90.5789C65.457 90.3565 65.6045 90.0671 65.8435 89.7683C66.084 89.4677 66.3534 89.2374 66.6031 89.0769L70.8768 95.7249L75.1506 102.373C77.5083 100.857 79.2137 98.6889 80.1736 96.129L72.7736 93.354ZM70.8768 95.7249L66.3782 89.227C66.3729 89.2307 66.3376 89.2586 66.2097 89.2906L68.1265 96.9578L70.0433 104.625C71.9386 104.151 73.7369 103.357 75.3754 102.223L70.8768 95.7249ZM68.1265 96.9578L66.2097 89.2906C66.0355 89.3341 65.7598 89.3746 65.3404 89.3513L64.902 97.2424L64.4636 105.133C66.3203 105.237 68.1942 105.087 70.0433 104.625L68.1265 96.9578ZM64.902 97.2424L65.3404 89.3513C64.658 89.3134 64.1588 89.2252 63.8087 89.1318L61.7723 96.7682L59.7359 104.405C61.2825 104.817 62.8698 105.045 64.4636 105.133L64.902 97.2424ZM61.7723 96.7682L64.0433 89.1982C63.8347 89.1357 63.7573 89.0928 63.773 89.1011C63.7924 89.1114 63.9121 89.178 64.0779 89.33L58.7374 95.1559L53.397 100.982C55.2463 102.677 57.4071 103.71 59.5013 104.338L61.7723 96.7682ZM58.7374 95.1559L64.0779 89.33C64.1609 89.4061 64.2713 89.5264 64.3801 89.6928C64.4896 89.8602 64.5701 90.0327 64.6229 90.1909L57.1252 92.6901L49.6275 95.1893C50.3813 97.4506 51.6787 99.4067 53.397 100.982L58.7374 95.1559ZM57.1252 92.6901L64.6229 90.1909C64.6583 90.2971 64.6778 90.3987 64.6857 90.4824C64.6934 90.5641 64.6872 90.6003 64.6898 90.5787L56.8407 89.6552L48.9916 88.7318C48.7408 90.8628 48.9147 93.0509 49.6275 95.1893L57.1252 92.6901ZM56.8407 89.6552L64.6956 90.528C64.7392 90.1353 64.8366 89.7473 65.0022 89.345L57.6942 86.3359L50.3863 83.3267C49.6667 85.0742 49.195 86.8991 48.9858 88.7825L56.8407 89.6552ZM57.6942 86.3359L65.0943 89.1109C65.1785 88.8861 65.5047 88.225 66.5252 87.162L60.8239 81.6888L55.1226 76.2155C53.1082 78.3138 51.348 80.7508 50.2942 83.5609L57.6942 86.3359ZM60.8239 81.6888L66.5208 87.1666C67.559 86.0869 68.8889 85.0233 70.5804 84.0083L66.5142 77.2313L62.448 70.4544C59.7138 72.0949 57.2501 74.0029 55.127 76.211L60.8239 81.6888ZM66.5142 77.2313L70.6354 83.975C72.2953 82.9607 74.2493 82.0775 76.544 81.3636L74.1962 73.8172L71.8484 66.2707C68.4528 67.3271 65.2854 68.7201 62.3931 70.4876L66.5142 77.2313ZM74.1962 73.8172L76.4973 81.378C78.6923 80.7099 81.1426 80.3008 83.8833 80.1973L83.5852 72.2997L83.2872 64.4021C79.3259 64.5516 75.5168 65.154 71.8951 66.2563L74.1962 73.8172ZM83.5852 72.2997L83.7215 80.2018C86.6105 80.152 89.2534 80.5253 91.6933 81.2761L94.0175 73.7223L96.3418 66.1686C92.2061 64.8961 87.8942 64.321 83.449 64.3977L83.5852 72.2997ZM94.0175 73.7223L91.8653 81.3269C94.4143 82.0483 96.4274 83.048 98.0268 84.2373L102.743 77.8952L107.459 71.5532C104.126 69.0753 100.323 67.2931 96.1698 66.1178L94.0175 73.7223ZM102.743 77.8952L98.2105 84.3698C99.8876 85.5438 101.074 86.8461 101.91 88.2642L108.718 84.2494L115.525 80.2347C113.453 76.7212 110.656 73.7873 107.275 71.4206L102.743 77.8952ZM108.718 84.2494L101.91 88.2642C102.651 89.5215 102.996 90.792 102.996 92.2159H110.899H118.802C118.802 87.9495 117.692 83.909 115.525 80.2347L108.718 84.2494ZM110.899 92.2159H102.996C102.996 95.3404 102.201 97.0241 101.314 98.0515L107.295 103.217L113.276 108.383C117.194 103.846 118.802 98.196 118.802 92.2159H110.899ZM107.295 103.217L101.246 98.1307C100.082 99.5147 98.3951 100.659 95.7521 101.372L97.8111 109.002L99.8701 116.633C105.194 115.196 109.829 112.484 113.344 108.304L107.295 103.217ZM97.8111 109.002L96.8155 116.843C99.2744 117.155 100.373 117.948 100.989 118.673L107.01 113.555L113.032 108.436C109.349 104.103 104.314 101.861 98.8067 101.162L97.8111 109.002ZM107.01 113.555L101.129 118.833C101.747 119.523 102.427 120.769 102.427 123.418H110.33H118.233C118.233 117.848 116.7 112.518 112.892 108.276L107.01 113.555ZM110.33 123.418H102.427C102.427 125.136 102.064 126.64 101.364 128.04L108.433 131.574L115.502 135.108C117.331 131.45 118.233 127.517 118.233 123.418H110.33ZM108.433 131.574L101.401 127.968C100.669 129.395 99.626 130.691 98.1641 131.868L103.122 138.023L108.08 144.178C111.17 141.688 113.668 138.685 115.465 135.18L108.433 131.574ZM103.122 138.023L98.1641 131.868C96.7682 132.993 94.9321 133.989 92.5053 134.75L94.8711 142.291L97.2368 149.832C101.259 148.57 104.924 146.72 108.08 144.178L103.122 138.023ZM94.8711 142.291L92.3718 134.793C90.0536 135.566 87.3692 136 84.2491 136V143.903V151.806C88.8426 151.806 93.2395 151.165 97.3703 149.789L94.8711 142.291ZM84.2491 143.903V136C80.7994 136 77.8656 135.643 75.3896 135.012L73.4375 142.67L71.4853 150.329C75.4584 151.341 79.7323 151.806 84.2491 151.806V143.903ZM73.4375 142.67L75.4262 135.021C72.8544 134.353 70.8871 133.514 69.4025 132.607L65.2813 139.351L61.1602 146.095C64.2279 147.969 67.698 149.344 71.4488 150.319L73.4375 142.67ZM65.2813 139.351L69.4872 132.66C68.0538 131.759 67.2412 130.901 66.7708 130.183L60.16 134.514L53.5493 138.845C55.4814 141.794 58.0831 144.161 61.0754 146.042L65.2813 139.351ZM60.16 134.514L66.8368 130.285C66.3458 129.51 66.2613 128.999 66.2613 128.634H58.3581H50.4548C50.4548 132.316 51.5716 135.724 53.4832 138.743L60.16 134.514ZM58.3581 128.634H66.2613C66.2613 128.539 66.271 128.496 66.2723 128.491C66.2734 128.486 66.274 128.484 66.2743 128.484C66.2745 128.483 66.2761 128.479 66.2805 128.47L59.2116 124.935L52.1428 121.401C51.001 123.685 50.4548 126.134 50.4548 128.634H58.3581ZM59.2116 124.935L66.1203 128.773C66.0209 128.952 65.8726 129.146 65.6841 129.316C65.4997 129.482 65.3494 129.56 65.3 129.582L62.0568 122.375L58.8136 115.168C56.1038 116.387 53.8177 118.371 52.303 121.097L59.2116 124.935ZM62.0568 122.375L65.5912 129.444C65.7944 129.342 65.9951 129.27 66.2049 129.222L64.4278 121.521L62.6507 113.82C61.2166 114.151 59.8367 114.649 58.5224 115.306L62.0568 122.375ZM64.4278 121.521L66.0837 129.249C66.193 129.226 66.2693 129.217 66.3156 129.213C66.3613 129.21 66.3821 129.211 66.3823 129.211L66.9884 121.331L67.5946 113.451C65.9449 113.325 64.3276 113.46 62.7718 113.793L64.4278 121.521ZM66.9884 121.331L66.4253 129.215C66.3177 129.207 65.9865 129.158 65.5749 128.934L69.3594 121.995L73.1439 115.057C71.3414 114.074 69.4295 113.582 67.5515 113.448L66.9884 121.331ZM69.3594 121.995L66.089 129.19C65.7184 129.022 65.3665 128.794 65.0572 128.519C64.7513 128.247 64.5382 127.975 64.3988 127.756L71.0665 123.513L77.7342 119.27C76.5371 117.389 74.8307 115.801 72.6298 114.8L69.3594 121.995ZM71.0665 123.513L64.2589 127.527C66.4365 131.22 69.4907 134.183 73.4572 136.005L76.7568 128.824L80.0564 121.642C79.3442 121.315 78.6049 120.737 77.8741 119.498L71.0665 123.513ZM76.7568 128.824L73.62 136.078C77.0977 137.582 80.9017 138.259 84.8498 138.338L85.0078 130.436L85.1659 122.534C82.7914 122.487 81.0947 122.089 79.8937 121.57L76.7568 128.824ZM85.0078 130.436V138.339C86.9978 138.339 88.9768 138.113 90.9075 137.605L88.8962 129.962L86.8849 122.319C86.4131 122.443 85.7998 122.533 85.0078 122.533V130.436ZM88.8962 129.962L90.9075 137.605C92.9058 137.079 94.8518 136.233 96.6196 134.97L92.0259 128.539L87.4322 122.108C87.4297 122.11 87.2892 122.212 86.8849 122.319L88.8962 129.962ZM92.0259 128.539L96.9087 134.754C98.6147 133.413 100.039 131.754 101.086 129.793L94.1124 126.073L87.1389 122.354C87.1436 122.345 87.1499 122.335 87.1577 122.323C87.1655 122.312 87.1727 122.303 87.1782 122.296C87.1836 122.29 87.1852 122.289 87.181 122.293C87.1767 122.297 87.1649 122.308 87.1431 122.325L92.0259 128.539ZM94.1124 126.073L101.086 129.793C102.271 127.57 102.774 125.192 102.774 122.849H94.8711H86.9678C86.9678 122.893 86.9635 122.851 86.9882 122.746C87.0139 122.637 87.0617 122.499 87.1389 122.354L94.1124 126.073ZM94.8711 122.849L102.768 122.545C102.587 117.839 99.945 114.376 96.9198 112.136L92.2156 118.486L87.5114 124.837C87.7407 125.007 87.6111 124.967 87.4088 124.635C87.1767 124.253 86.9957 123.724 86.9737 123.153L94.8711 122.849ZM92.2156 118.486L97.1815 112.338C94.1286 109.872 90.529 108.628 86.7679 108.331L86.1459 116.21L85.5239 124.089C86.568 124.171 87.0148 124.445 87.2497 124.635L92.2156 118.486ZM86.1459 116.21V108.307C86.1506 108.307 86.111 108.307 86.0097 108.304C85.9137 108.301 85.7857 108.297 85.6214 108.29C85.2916 108.276 84.8568 108.255 84.3082 108.224L83.8698 116.115L83.4314 124.006C84.5326 124.068 85.5105 124.113 86.1459 124.113V116.21ZM83.8698 116.115L84.3082 108.224C83.1462 108.16 81.8922 108.095 80.547 108.031L80.171 115.926L79.7951 123.82C81.1054 123.882 82.3172 123.944 83.4314 124.006L83.8698 116.115ZM80.171 115.926L80.9574 108.062C79.5901 107.925 78.2721 107.82 77.0056 107.75L76.5672 115.641L76.1288 123.532C77.1384 123.588 78.223 123.673 79.3846 123.79L80.171 115.926ZM76.5672 115.641L77.0056 107.75C75.9043 107.689 74.9264 107.643 74.291 107.643V115.546V123.45C74.2863 123.45 74.3259 123.45 74.4272 123.452C74.5232 123.455 74.6512 123.46 74.8156 123.466C75.1453 123.48 75.5801 123.502 76.1288 123.532L76.5672 115.641ZM74.291 115.546L74.6343 107.65C74.9163 107.663 75.5307 107.748 76.2496 108.149C76.9952 108.566 77.5105 109.133 77.8102 109.623L71.0665 113.744L64.3228 117.865C66.532 121.481 70.1482 123.277 73.9477 123.442L74.291 115.546ZM71.0665 113.744L77.9752 109.906C77.9912 109.935 78.0049 109.964 78.0156 109.992C78.0263 110.019 78.0316 110.039 78.0334 110.046C78.0351 110.053 78.0323 110.044 78.0289 110.014C78.0255 109.985 78.0214 109.933 78.0214 109.856H70.1181H62.2149C62.2149 112.493 62.7997 115.138 64.1578 117.582L71.0665 113.744ZM70.1181 109.856H78.0214C78.0214 109.702 78.038 109.672 78.0225 109.734C78.0148 109.764 78.0005 109.812 77.9758 109.873C77.951 109.935 77.9187 110.001 77.8786 110.069L71.0665 106.062L64.2544 102.055C62.7965 104.534 62.2149 107.229 62.2149 109.856H70.1181ZM71.0665 106.062L77.8102 110.184C77.5479 110.613 77.1248 111.078 76.5474 111.435C75.9905 111.779 75.5194 111.881 75.3132 111.908L74.291 104.071L73.2688 96.2339C69.7125 96.6978 66.4 98.5422 64.3228 101.941L71.0665 106.062ZM74.291 104.071L75.322 111.906C77.5133 111.618 79.4607 111.455 81.1766 111.401L80.9298 103.502L80.6829 95.6023C78.3523 95.6752 75.8739 95.8911 73.26 96.2351L74.291 104.071Z" fill="#7B4904" mask="url(#path-13-outside-1_3576_6695)"/>
<defs>
<linearGradient id="paint0_linear_3576_6695" x1="60.2616" y1="44.6823" x2="178.81" y2="266.961" gradientUnits="userSpaceOnUse">
<stop stop-color="#8D5200"/>
<stop offset="0.835214" stop-color="#A76100"/>
</linearGradient>
<linearGradient id="paint1_linear_3576_6695" x1="85.9483" y1="18.9973" x2="365.526" y2="235.349" gradientUnits="userSpaceOnUse">
<stop stop-color="#864E00"/>
<stop offset="1" stop-color="#683D00"/>
</linearGradient>
<linearGradient id="paint2_linear_3576_6695" x1="77.0572" y1="201.759" x2="-202.52" y2="-14.5919" gradientUnits="userSpaceOnUse">
<stop stop-color="#864E00"/>
<stop offset="1" stop-color="#683D00"/>
</linearGradient>
<linearGradient id="paint3_linear_3576_6695" x1="409.98" y1="-126.224" x2="-12.8439" y2="154.341" gradientUnits="userSpaceOnUse">
<stop stop-color="white" stop-opacity="0.4"/>
<stop offset="1" stop-color="white" stop-opacity="0"/>
</linearGradient>
<linearGradient id="paint4_linear_3576_6695" x1="71.1294" y1="266.961" x2="196.594" y2="10.1058" gradientUnits="userSpaceOnUse">
<stop stop-color="white" stop-opacity="0.13"/>
<stop offset="1" stop-color="white" stop-opacity="0"/>
</linearGradient>
<radialGradient id="paint5_radial_3576_6695" cx="0" cy="0" r="1" gradientTransform="matrix(-14.8186 22.7218 -11.2569 -7.85099 134.356 146.437)" gradientUnits="userSpaceOnUse">
<stop stop-color="white" stop-opacity="0.1"/>
<stop offset="1" stop-color="white" stop-opacity="0"/>
</radialGradient>
<radialGradient id="paint6_radial_3576_6695" cx="0" cy="0" r="1" gradientTransform="matrix(27.0586 1.92485 -1.39909 13.6528 76.2251 15.5757)" gradientUnits="userSpaceOnUse">
<stop stop-color="white" stop-opacity="0.1"/>
<stop offset="1" stop-color="white" stop-opacity="0"/>
</radialGradient>
<radialGradient id="paint7_radial_3576_6695" cx="0" cy="0" r="1" gradientTransform="matrix(14.3008 -23.0512 11.4316 7.59436 145.736 74.7336)" gradientUnits="userSpaceOnUse">
<stop stop-color="white" stop-opacity="0.1"/>
<stop offset="1" stop-color="white" stop-opacity="0"/>
</radialGradient>
<radialGradient id="paint8_radial_3576_6695" cx="0" cy="0" r="1" gradientUnits="userSpaceOnUse" gradientTransform="translate(81.9962 32.8298) scale(29.6372 18.2598)">
<stop stop-color="white" stop-opacity="0.22"/>
<stop offset="1" stop-color="white" stop-opacity="0"/>
</radialGradient>
</defs>
</svg>
