<svg width="165" height="215" viewBox="0 0 165 215" fill="none" xmlns="http://www.w3.org/2000/svg">
<path d="M81.2817 8.71143L151.437 60.0825V162.825L81.2817 214.196L11.1265 162.825V60.0825L81.2817 8.71143Z" fill="#6C3F00"/>
<path d="M81.2811 26.4932L139.459 68.9731V153.933L81.2811 196.413L23.1036 153.933V68.9731L81.2811 26.4932Z" fill="url(#paint0_linear_2944_10858)"/>
<path d="M22.9955 68.9727L11.1406 60.0815V162.824L22.9955 153.933V68.9727Z" fill="#B56B03"/>
<path d="M139.567 68.9727L151.422 60.0815V162.824L139.567 153.933V68.9727Z" fill="#A25F00"/>
<path d="M81.2822 26.4937V8.71143L151.424 60.0825L139.569 68.9737L81.2822 26.4937Z" fill="url(#paint1_linear_2944_10858)"/>
<path d="M81.2822 196.413V214.195L11.1409 162.824L22.9958 153.933L81.2822 196.413Z" fill="url(#paint2_linear_2944_10858)"/>
<path d="M117.833 53.1675L22.9941 123.309V153.934L139.567 68.974L117.833 53.1675Z" fill="url(#paint3_linear_2944_10858)"/>
<path d="M44.7294 169.74L36.8262 163.812L139.568 85.7676V95.6466L44.7294 169.74Z" fill="url(#paint4_linear_2944_10858)"/>
<path d="M139.569 153.933L117.836 169.739C110.158 139.851 129.058 124.685 139.569 121.332L139.569 153.933Z" fill="url(#paint5_radial_2944_10858)"/>
<path d="M80.1466 8.4816L104.516 19.809C82.113 41.031 59.679 31.8697 51.645 24.3079L80.1466 8.4816Z" fill="url(#paint6_radial_2944_10858)"/>
<path d="M139.57 68.9732L162.286 52.2191C170.638 81.9264 150.003 96.0077 139.57 99.5975L139.57 68.9732Z" fill="url(#paint7_radial_2944_10858)"/>
<path d="M82.2697 26.495L104.991 43.2892C82.5877 64.5111 62.6423 53.8149 54.6083 46.2531L82.2697 26.495Z" fill="url(#paint8_radial_2944_10858)"/>
<mask id="path-13-outside-1_2944_10858" maskUnits="userSpaceOnUse" x="48.5967" y="63.8887" width="72" height="88" fill="black">
<rect fill="white" x="48.5967" y="63.8887" width="72" height="88"/>
<path d="M109.56 138.414C108.612 139.489 107.41 140.153 105.956 140.406C100.013 141.291 93.6903 141.955 86.9884 142.398C80.2864 142.904 73.5212 143.22 66.6928 143.346C65.6812 143.346 64.8277 143.188 64.1322 142.872C63.4367 142.556 62.8677 142.113 62.4251 141.544C61.9825 141.038 61.6348 140.406 61.3819 139.647C61.129 138.952 60.9709 138.225 60.9077 137.466C60.718 136.012 60.9393 134.716 61.5715 133.578C62.2038 132.44 62.9625 131.396 63.8477 130.448C64.0373 130.195 64.638 129.626 65.6496 128.741C66.6612 127.793 67.8309 126.686 69.1586 125.422C70.5496 124.094 72.0354 122.703 73.6161 121.249C75.2599 119.731 76.809 118.309 78.2632 116.981C79.7174 115.59 80.9819 114.389 82.0567 113.377C83.1948 112.302 83.9851 111.575 84.4277 111.196C87.5258 108.224 90.0548 105.537 92.0148 103.134C93.9748 100.732 95.0497 98.4557 95.2393 96.306C95.5555 93.3344 94.7968 90.9634 92.9632 89.1931C91.1297 87.3595 88.1897 86.5376 84.1432 86.7273C82.9419 86.7905 81.7406 87.0434 80.5393 87.486C79.4012 87.9286 78.3264 88.5608 77.3148 89.3828C76.3032 90.1415 75.3864 91.0582 74.5645 92.1331C73.8058 93.1447 73.2367 94.2512 72.8574 95.4524C72.5412 96.5273 72.0038 97.4124 71.2451 98.1079C70.4864 98.7402 69.6328 99.246 68.6845 99.6254C67.7361 99.9415 66.7244 100.131 65.6496 100.194C64.5748 100.194 63.5315 100.068 62.5199 99.815C60.876 99.3092 59.5483 98.4873 58.5367 97.3492C57.5251 96.2112 57.0509 94.8834 57.1141 93.366C57.2406 90.9002 58.0309 88.4976 59.4851 86.1582C60.9393 83.8189 62.8677 81.7324 65.2703 79.8989C67.7361 78.0021 70.5812 76.453 73.8058 75.2518C77.0935 73.9872 80.6025 73.1969 84.3329 72.8808C87.9368 72.5646 91.3826 72.8492 94.6703 73.7343C98.0213 74.5563 100.961 75.884 103.49 77.7176C106.019 79.4879 108.011 81.6692 109.465 84.2615C110.983 86.8537 111.741 89.6989 111.741 92.797C111.741 96.5905 110.951 100.131 109.37 103.419C107.79 106.707 105.197 110.089 101.594 113.567C100.076 115.021 98.4955 116.507 96.8516 118.024C95.2077 119.542 93.5322 121.027 91.8252 122.482C90.1813 123.936 88.569 125.327 86.9884 126.654C85.4709 127.919 84.08 129.025 82.8154 129.974C87.1148 129.594 91.2245 129.278 95.1445 129.025C99.0645 128.773 102.732 128.583 106.146 128.456C107.537 128.393 108.643 128.804 109.465 129.689C110.35 130.574 110.825 131.871 110.888 133.578C110.951 135.727 110.508 137.34 109.56 138.414Z"/>
</mask>
<path d="M109.56 138.414C108.612 139.489 107.41 140.153 105.956 140.406C100.013 141.291 93.6903 141.955 86.9884 142.398C80.2864 142.904 73.5212 143.22 66.6928 143.346C65.6812 143.346 64.8277 143.188 64.1322 142.872C63.4367 142.556 62.8677 142.113 62.4251 141.544C61.9825 141.038 61.6348 140.406 61.3819 139.647C61.129 138.952 60.9709 138.225 60.9077 137.466C60.718 136.012 60.9393 134.716 61.5715 133.578C62.2038 132.44 62.9625 131.396 63.8477 130.448C64.0373 130.195 64.638 129.626 65.6496 128.741C66.6612 127.793 67.8309 126.686 69.1586 125.422C70.5496 124.094 72.0354 122.703 73.6161 121.249C75.2599 119.731 76.809 118.309 78.2632 116.981C79.7174 115.59 80.9819 114.389 82.0567 113.377C83.1948 112.302 83.9851 111.575 84.4277 111.196C87.5258 108.224 90.0548 105.537 92.0148 103.134C93.9748 100.732 95.0497 98.4557 95.2393 96.306C95.5555 93.3344 94.7968 90.9634 92.9632 89.1931C91.1297 87.3595 88.1897 86.5376 84.1432 86.7273C82.9419 86.7905 81.7406 87.0434 80.5393 87.486C79.4012 87.9286 78.3264 88.5608 77.3148 89.3828C76.3032 90.1415 75.3864 91.0582 74.5645 92.1331C73.8058 93.1447 73.2367 94.2512 72.8574 95.4524C72.5412 96.5273 72.0038 97.4124 71.2451 98.1079C70.4864 98.7402 69.6328 99.246 68.6845 99.6254C67.7361 99.9415 66.7244 100.131 65.6496 100.194C64.5748 100.194 63.5315 100.068 62.5199 99.815C60.876 99.3092 59.5483 98.4873 58.5367 97.3492C57.5251 96.2112 57.0509 94.8834 57.1141 93.366C57.2406 90.9002 58.0309 88.4976 59.4851 86.1582C60.9393 83.8189 62.8677 81.7324 65.2703 79.8989C67.7361 78.0021 70.5812 76.453 73.8058 75.2518C77.0935 73.9872 80.6025 73.1969 84.3329 72.8808C87.9368 72.5646 91.3826 72.8492 94.6703 73.7343C98.0213 74.5563 100.961 75.884 103.49 77.7176C106.019 79.4879 108.011 81.6692 109.465 84.2615C110.983 86.8537 111.741 89.6989 111.741 92.797C111.741 96.5905 110.951 100.131 109.37 103.419C107.79 106.707 105.197 110.089 101.594 113.567C100.076 115.021 98.4955 116.507 96.8516 118.024C95.2077 119.542 93.5322 121.027 91.8252 122.482C90.1813 123.936 88.569 125.327 86.9884 126.654C85.4709 127.919 84.08 129.025 82.8154 129.974C87.1148 129.594 91.2245 129.278 95.1445 129.025C99.0645 128.773 102.732 128.583 106.146 128.456C107.537 128.393 108.643 128.804 109.465 129.689C110.35 130.574 110.825 131.871 110.888 133.578C110.951 135.727 110.508 137.34 109.56 138.414Z" fill="white"/>
<path d="M109.56 138.414L103.634 133.186L103.634 133.186L109.56 138.414ZM105.956 140.406L107.12 148.223L107.216 148.209L107.31 148.192L105.956 140.406ZM86.9884 142.398L86.4676 134.512L86.4306 134.514L86.3936 134.517L86.9884 142.398ZM66.6928 143.346V151.249H66.766L66.8392 151.248L66.6928 143.346ZM64.1322 142.872L60.8618 150.067H60.8618L64.1322 142.872ZM62.4251 141.544L68.6635 136.692L68.5233 136.512L68.3729 136.34L62.4251 141.544ZM61.3819 139.647L68.8795 137.148L68.8458 137.047L68.8093 136.947L61.3819 139.647ZM60.9077 137.466L68.7836 136.81L68.7683 136.626L68.7445 136.444L60.9077 137.466ZM61.5715 133.578L54.6629 129.74H54.6629L61.5715 133.578ZM63.8477 130.448L69.6254 135.841L69.9153 135.53L70.1703 135.19L63.8477 130.448ZM65.6496 128.741L70.8539 134.689L70.956 134.599L71.055 134.507L65.6496 128.741ZM69.1586 125.422L74.6092 131.145L74.6156 131.138L69.1586 125.422ZM73.6161 121.249L78.967 127.065L78.9767 127.056L73.6161 121.249ZM78.2632 116.981L83.5921 122.817L83.6598 122.755L83.7261 122.692L78.2632 116.981ZM82.0567 113.377L87.4734 119.132L87.4833 119.123L82.0567 113.377ZM84.4277 111.196L89.5711 117.196L89.739 117.052L89.8985 116.899L84.4277 111.196ZM92.0148 103.134L85.8909 98.1385L92.0148 103.134ZM95.2393 96.306L87.3805 95.4699L87.3729 95.5406L87.3667 95.6113L95.2393 96.306ZM92.9632 89.1931L87.3748 94.7815L87.4238 94.8305L87.4737 94.8787L92.9632 89.1931ZM84.1432 86.7273L83.7731 78.8327L83.7505 78.8338L83.7278 78.8349L84.1432 86.7273ZM80.5393 87.486L77.8071 80.07L77.7407 80.0945L77.6748 80.1201L80.5393 87.486ZM77.3148 89.3828L82.0567 95.7054L82.1795 95.6133L82.2985 95.5166L77.3148 89.3828ZM74.5645 92.1331L68.2865 87.3323L68.264 87.3616L68.2419 87.3911L74.5645 92.1331ZM72.8574 95.4524L65.321 93.0725L65.2974 93.1472L65.2753 93.2224L72.8574 95.4524ZM71.2451 98.1079L76.3046 104.179L76.448 104.06L76.5855 103.934L71.2451 98.1079ZM68.6845 99.6254L71.1837 107.123L71.404 107.05L71.6196 106.963L68.6845 99.6254ZM65.6496 100.194V108.098H65.8819L66.1137 108.084L65.6496 100.194ZM62.5199 99.815L60.1957 107.369L60.3979 107.431L60.6031 107.482L62.5199 99.815ZM57.1141 93.366L49.2212 92.9612L49.2193 92.9991L49.2177 93.037L57.1141 93.366ZM59.4851 86.1582L52.773 81.9858L59.4851 86.1582ZM65.2703 79.8989L70.0649 86.1816L70.077 86.1724L70.0889 86.1632L65.2703 79.8989ZM73.8058 75.2518L76.5648 82.6577L76.6039 82.6432L76.6429 82.6282L73.8058 75.2518ZM84.3329 72.8808L85.0002 80.7558L85.0119 80.7548L85.0235 80.7538L84.3329 72.8808ZM94.6703 73.7343L92.6157 81.3658L92.7014 81.3889L92.7876 81.41L94.6703 73.7343ZM103.49 77.7176L98.8514 84.1161L98.9044 84.1546L98.9581 84.1922L103.49 77.7176ZM109.465 84.2615L102.572 88.1281L102.608 88.1914L102.645 88.254L109.465 84.2615ZM109.37 103.419L116.493 106.843L116.493 106.843L109.37 103.419ZM101.594 113.567L107.062 119.273L107.072 119.263L107.081 119.254L101.594 113.567ZM96.8516 118.024L102.212 123.831L102.212 123.831L96.8516 118.024ZM91.8251 122.482L86.7002 116.465L86.644 116.513L86.5887 116.562L91.8251 122.482ZM86.9884 126.654L92.0479 132.726L92.0598 132.716L92.0717 132.706L86.9884 126.654ZM82.8155 129.974L78.0735 123.651L55.898 140.283L83.5101 137.846L82.8155 129.974ZM106.146 128.456L106.438 136.354L106.472 136.353L106.505 136.351L106.146 128.456ZM109.465 129.689L103.674 135.067L103.773 135.174L103.877 135.278L109.465 129.689ZM110.888 133.578L118.788 133.345L118.787 133.315L118.786 133.285L110.888 133.578ZM109.56 138.414L103.634 133.186C103.732 133.074 103.898 132.927 104.125 132.801C104.349 132.677 104.529 132.632 104.602 132.62L105.956 140.406L107.31 148.192C110.478 147.642 113.311 146.108 115.486 143.643L109.56 138.414ZM105.956 140.406L104.792 132.589C99.0852 133.439 92.9788 134.082 86.4676 134.512L86.9884 142.398L87.5091 150.284C94.4018 149.829 100.941 149.144 107.12 148.223L105.956 140.406ZM86.9884 142.398L86.3936 134.517C79.8433 135.011 73.2277 135.32 66.5465 135.444L66.6928 143.346L66.8392 151.248C73.8148 151.119 80.7296 150.796 87.5831 150.279L86.9884 142.398ZM66.6928 143.346V135.443C66.5927 135.443 66.615 135.435 66.7331 135.456C66.8538 135.479 67.0925 135.536 67.4026 135.677L64.1322 142.872L60.8618 150.067C62.8601 150.975 64.9013 151.249 66.6928 151.249V143.346ZM64.1322 142.872L67.4026 135.677C67.7998 135.858 68.274 136.191 68.6635 136.692L62.4251 141.544L56.1866 146.396C57.4614 148.035 59.0736 149.254 60.8618 150.067L64.1322 142.872ZM62.4251 141.544L68.3729 136.34C68.7395 136.759 68.8624 137.097 68.8795 137.148L61.3819 139.647L53.8842 142.147C54.4071 143.715 55.2255 145.318 56.4773 146.748L62.4251 141.544ZM61.3819 139.647L68.8093 136.947C68.8027 136.928 68.7903 136.89 68.7836 136.81L60.9077 137.466L53.0317 138.122C53.1515 139.559 53.4552 140.975 53.9544 142.348L61.3819 139.647ZM60.9077 137.466L68.7445 136.444C68.7401 136.41 68.7583 136.52 68.7219 136.733C68.6838 136.956 68.6019 137.197 68.4802 137.416L61.5715 133.578L54.6629 129.74C53.1065 132.541 52.6912 135.578 53.0708 138.488L60.9077 137.466ZM61.5715 133.578L68.4802 137.416C68.8013 136.838 69.1806 136.317 69.6254 135.841L63.8477 130.448L58.07 125.055C56.7444 126.476 55.6063 128.041 54.6629 129.74L61.5715 133.578ZM63.8477 130.448L70.1703 135.19C70.0316 135.375 69.9194 135.505 69.8683 135.563C69.811 135.628 69.7728 135.668 69.7639 135.677C69.7491 135.692 69.779 135.661 69.8758 135.569C70.0688 135.386 70.3848 135.099 70.8539 134.689L65.6496 128.741L60.4453 122.793C59.9028 123.268 59.4127 123.708 59.005 124.094C58.7367 124.348 58.0734 124.975 57.5251 125.706L63.8477 130.448ZM65.6496 128.741L71.055 134.507C72.0856 133.54 73.2709 132.419 74.6092 131.145L69.1586 125.422L63.7081 119.699C62.3909 120.953 61.2369 122.045 60.2443 122.975L65.6496 128.741ZM69.1586 125.422L74.6156 131.138C75.9678 129.848 77.418 128.49 78.967 127.065L73.6161 121.249L68.2651 115.432C66.6529 116.916 65.1314 118.34 63.7016 119.705L69.1586 125.422ZM73.6161 121.249L78.9767 127.056C80.6114 125.547 82.1498 124.134 83.5921 122.817L78.2632 116.981L72.9343 111.144C71.4682 112.483 69.9085 113.915 68.2555 115.441L73.6161 121.249ZM78.2632 116.981L83.7261 122.692C85.17 121.311 86.4184 120.125 87.4733 119.132L82.0567 113.377L76.6401 107.622C75.5454 108.652 74.2648 109.869 72.8003 111.27L78.2632 116.981ZM82.0567 113.377L87.4833 119.123C88.6328 118.037 89.293 117.435 89.5711 117.196L84.4277 111.196L79.2843 105.195C78.6773 105.715 77.7568 106.567 76.6302 107.631L82.0567 113.377ZM84.4277 111.196L89.8985 116.899C93.1475 113.783 95.9153 110.856 98.1388 108.13L92.0148 103.134L85.8909 98.1385C84.1944 100.218 81.9041 102.665 78.9569 105.492L84.4277 111.196ZM92.0148 103.134L98.1388 108.13C100.682 105.013 102.735 101.277 103.112 97.0006L95.2393 96.306L87.3667 95.6113C87.3646 95.6347 87.2681 96.4504 85.8909 98.1385L92.0148 103.134ZM95.2393 96.306L103.098 97.142C103.622 92.2176 102.353 87.2735 98.4528 83.5075L92.9632 89.1931L87.4737 94.8787C87.4897 94.8942 87.4692 94.877 87.4378 94.8267C87.4059 94.7758 87.3873 94.73 87.3802 94.7078C87.3644 94.6585 87.4451 94.862 87.3805 95.4699L95.2393 96.306ZM92.9632 89.1931L98.5517 83.6046C94.4448 79.4978 88.8095 78.5966 83.7731 78.8327L84.1432 86.7273L84.5133 94.6218C85.9523 94.5544 86.8136 94.6894 87.2551 94.8128C87.65 94.9232 87.5762 94.9829 87.3748 94.7815L92.9632 89.1931ZM84.1432 86.7273L83.7278 78.8349C81.6854 78.9424 79.7046 79.371 77.8071 80.07L80.5393 87.486L83.2715 94.9019C83.7766 94.7158 84.1984 94.6385 84.5586 94.6196L84.1432 86.7273ZM80.5393 87.486L77.6748 80.1201C75.7205 80.8801 73.9376 81.9436 72.3311 83.2489L77.3148 89.3828L82.2985 95.5166C82.7152 95.178 83.082 94.977 83.4038 94.8518L80.5393 87.486ZM77.3148 89.3828L72.5729 83.0602C70.9428 84.2827 69.5176 85.7223 68.2865 87.3323L74.5645 92.1331L80.8425 96.9339C81.2552 96.3941 81.6635 96.0003 82.0567 95.7054L77.3148 89.3828ZM74.5645 92.1331L68.2419 87.3911C66.9503 89.1132 65.9698 91.0178 65.321 93.0725L72.8574 95.4524L80.3938 97.8324C80.5036 97.4845 80.6612 97.1761 80.8871 96.875L74.5645 92.1331ZM72.8574 95.4524L65.2753 93.2224C65.2947 93.1562 65.3471 93.0094 65.4616 92.8208C65.5783 92.6286 65.7298 92.4424 65.9047 92.282L71.2451 98.1079L76.5855 103.934C78.4979 102.181 79.7545 100.011 80.4395 97.6825L72.8574 95.4524ZM71.2451 98.1079L66.1856 92.0365C66.0858 92.1196 65.9541 92.2054 65.7493 92.2874L68.6845 99.6254L71.6196 106.963C73.3116 106.287 74.887 105.361 76.3046 104.179L71.2451 98.1079ZM68.6845 99.6254L66.1852 92.1277C65.9436 92.2082 65.6207 92.2792 65.1855 92.3048L65.6496 100.194L66.1137 108.084C67.8282 107.983 69.5285 107.675 71.1837 107.123L68.6845 99.6254ZM65.6496 100.194V92.2911C65.201 92.2911 64.8024 92.2392 64.4367 92.1478L62.5199 99.815L60.6031 107.482C62.2607 107.897 63.9485 108.098 65.6496 108.098V100.194ZM62.5199 99.815L64.8441 92.2613C64.6027 92.187 64.4865 92.1213 64.4511 92.0994C64.4209 92.0806 64.4283 92.0814 64.4436 92.0986L58.5367 97.3492L52.6297 102.6C54.7223 104.954 57.3527 106.494 60.1957 107.369L62.5199 99.815ZM58.5367 97.3492L64.4436 92.0986C64.557 92.2261 64.7348 92.4769 64.8651 92.8417C64.9956 93.2069 65.0179 93.5172 65.0105 93.695L57.1141 93.366L49.2177 93.037C49.0689 96.6078 50.2606 99.9346 52.6297 102.6L58.5367 97.3492ZM57.1141 93.366L65.007 93.7708C65.0573 92.7895 65.3658 91.6681 66.1972 90.3306L59.4851 86.1582L52.773 81.9858C50.696 85.3271 49.4238 89.0109 49.2212 92.9612L57.1141 93.366ZM59.4851 86.1582L66.1972 90.3306C67.0985 88.8807 68.3501 87.4903 70.0649 86.1816L65.2703 79.8989L60.4756 73.6162C57.3853 75.9745 54.78 78.7571 52.773 81.9858L59.4851 86.1582ZM65.2703 79.8989L70.0889 86.1632C71.8666 84.7957 74.0023 83.6124 76.5648 82.6577L73.8058 75.2518L71.0467 67.8458C67.1601 69.2937 63.6055 71.2084 60.4516 73.6346L65.2703 79.8989ZM73.8058 75.2518L76.6429 82.6282C79.1922 81.6477 81.9664 81.0129 85.0002 80.7558L84.3329 72.8808L83.6655 65.0058C79.2386 65.3809 74.9949 66.3268 70.9686 67.8753L73.8058 75.2518ZM84.3329 72.8808L85.0235 80.7538C87.7633 80.5135 90.2764 80.736 92.6157 81.3658L94.6703 73.7343L96.725 66.1028C92.4887 64.9623 88.1102 64.6158 83.6423 65.0078L84.3329 72.8808ZM94.6703 73.7343L92.7876 81.41C95.2498 82.014 97.2323 82.9423 98.8514 84.1161L103.49 77.7176L108.129 71.319C104.69 68.8257 100.793 67.0985 96.553 66.0586L94.6703 73.7343ZM103.49 77.7176L98.9581 84.1922C100.553 85.3086 101.722 86.6118 102.572 88.1281L109.465 84.2615L116.358 80.3948C114.3 76.7265 111.486 73.6672 108.023 71.243L103.49 77.7176ZM109.465 84.2615L102.645 88.254C103.43 89.5959 103.838 91.0561 103.838 92.797H111.741H119.645C119.645 88.3416 118.535 84.1115 116.286 80.2689L109.465 84.2615ZM111.741 92.797H103.838C103.838 95.4536 103.294 97.8182 102.248 99.9945L109.37 103.419L116.493 106.843C118.608 102.444 119.645 97.7274 119.645 92.797H111.741ZM109.37 103.419L102.248 99.9945C101.194 102.186 99.2689 104.827 96.1058 107.879L101.594 113.567L107.081 119.254C111.126 115.351 114.386 111.227 116.493 106.843L109.37 103.419ZM101.594 113.567L96.1253 107.861C94.6456 109.279 93.101 110.731 91.491 112.217L96.8516 118.024L102.212 123.831C103.89 122.283 105.507 120.763 107.062 119.273L101.594 113.567ZM96.8516 118.024L91.491 112.217C89.9245 113.663 88.3275 115.079 86.7002 116.465L91.8251 122.482L96.9501 128.498C98.737 126.976 100.491 125.42 102.212 123.831L96.8516 118.024ZM91.8251 122.482L86.5887 116.562C84.9921 117.974 83.431 119.321 81.9051 120.603L86.9884 126.654L92.0717 132.706C93.7071 131.332 95.3704 129.897 97.0616 128.401L91.8251 122.482ZM86.9884 126.654L81.9288 120.583C80.4908 121.781 79.2074 122.801 78.0735 123.651L82.8155 129.974L87.5574 136.296C88.9526 135.25 90.4511 134.057 92.0479 132.726L86.9884 126.654ZM82.8155 129.974L83.5101 137.846C87.7535 137.472 91.801 137.161 95.6533 136.912L95.1445 129.025L94.6357 121.139C90.648 121.396 86.4761 121.717 82.1208 122.101L82.8155 129.974ZM95.1445 129.025L95.6533 136.912C99.5117 136.663 103.106 136.478 106.438 136.354L106.146 128.456L105.853 120.559C102.357 120.688 98.6174 120.882 94.6357 121.139L95.1445 129.025ZM106.146 128.456L106.505 136.351C106.329 136.359 105.87 136.35 105.267 136.126C104.635 135.891 104.083 135.508 103.674 135.067L109.465 129.689L115.257 124.312C112.604 121.455 109.104 120.411 105.787 120.561L106.146 128.456ZM109.465 129.689L103.877 135.278C103.426 134.827 103.18 134.36 103.063 134.041C102.957 133.752 102.982 133.656 102.99 133.87L110.888 133.578L118.786 133.285C118.676 130.321 117.796 126.843 115.054 124.101L109.465 129.689ZM110.888 133.578L102.988 133.81C103.003 134.313 102.946 134.438 102.982 134.307C103.027 134.145 103.189 133.69 103.634 133.186L109.56 138.414L115.486 143.643C118.293 140.462 118.881 136.518 118.788 133.345L110.888 133.578Z" fill="#7B4904" mask="url(#path-13-outside-1_2944_10858)"/>
<path d="M81.2817 7.71094L151.437 59.082V161.824L81.2817 213.195L11.1265 161.824V59.082L81.2817 7.71094Z" fill="black" fill-opacity="0.3"/>
<defs>
<linearGradient id="paint0_linear_2944_10858" x1="60.5351" y1="45.2634" x2="179.084" y2="267.542" gradientUnits="userSpaceOnUse">
<stop stop-color="#8D5200"/>
<stop offset="0.835214" stop-color="#A76100"/>
</linearGradient>
<linearGradient id="paint1_linear_2944_10858" x1="86.2218" y1="19.5784" x2="365.799" y2="235.93" gradientUnits="userSpaceOnUse">
<stop stop-color="#864E00"/>
<stop offset="1" stop-color="#683D00"/>
</linearGradient>
<linearGradient id="paint2_linear_2944_10858" x1="77.3306" y1="202.34" x2="-202.247" y2="-14.0109" gradientUnits="userSpaceOnUse">
<stop stop-color="#864E00"/>
<stop offset="1" stop-color="#683D00"/>
</linearGradient>
<linearGradient id="paint3_linear_2944_10858" x1="410.253" y1="-125.643" x2="-12.5705" y2="154.922" gradientUnits="userSpaceOnUse">
<stop stop-color="white" stop-opacity="0.4"/>
<stop offset="1" stop-color="white" stop-opacity="0"/>
</linearGradient>
<linearGradient id="paint4_linear_2944_10858" x1="71.4029" y1="267.542" x2="196.867" y2="10.6868" gradientUnits="userSpaceOnUse">
<stop stop-color="white" stop-opacity="0.13"/>
<stop offset="1" stop-color="white" stop-opacity="0"/>
</linearGradient>
<radialGradient id="paint5_radial_2944_10858" cx="0" cy="0" r="1" gradientTransform="matrix(-14.8186 22.7218 -11.2569 -7.85099 134.63 147.018)" gradientUnits="userSpaceOnUse">
<stop stop-color="white" stop-opacity="0.1"/>
<stop offset="1" stop-color="white" stop-opacity="0"/>
</radialGradient>
<radialGradient id="paint6_radial_2944_10858" cx="0" cy="0" r="1" gradientTransform="matrix(27.0586 1.92485 -1.39909 13.6528 76.4986 16.1568)" gradientUnits="userSpaceOnUse">
<stop stop-color="white" stop-opacity="0.1"/>
<stop offset="1" stop-color="white" stop-opacity="0"/>
</radialGradient>
<radialGradient id="paint7_radial_2944_10858" cx="0" cy="0" r="1" gradientTransform="matrix(14.3008 -23.0512 11.4316 7.59436 146.01 75.3142)" gradientUnits="userSpaceOnUse">
<stop stop-color="white" stop-opacity="0.1"/>
<stop offset="1" stop-color="white" stop-opacity="0"/>
</radialGradient>
<radialGradient id="paint8_radial_2944_10858" cx="0" cy="0" r="1" gradientUnits="userSpaceOnUse" gradientTransform="translate(82.2697 33.4103) scale(29.6372 18.2598)">
<stop stop-color="white" stop-opacity="0.22"/>
<stop offset="1" stop-color="white" stop-opacity="0"/>
</radialGradient>
</defs>
</svg>
