<svg width="166" height="214" viewBox="0 0 166 214" fill="none" xmlns="http://www.w3.org/2000/svg">
<path d="M81.4614 8.13037L151.617 59.5015V162.244L81.4614 213.615L11.3062 162.244V59.5015L81.4614 8.13037Z" fill="#6C3F00"/>
<path d="M81.4608 25.9121L139.638 68.392V153.352L81.4608 195.832L23.2833 153.352V68.392L81.4608 25.9121Z" fill="url(#paint0_linear_3576_7374)"/>
<path d="M23.1752 68.3916L11.3203 59.5005V162.243L23.1752 153.352V68.3916Z" fill="#B56B03"/>
<path d="M139.747 68.3916L151.602 59.5005V162.243L139.747 153.352V68.3916Z" fill="#A25F00"/>
<path d="M81.4619 25.9127V8.13037L151.603 59.5014L139.748 68.3926L81.4619 25.9127Z" fill="url(#paint1_linear_3576_7374)"/>
<path d="M81.4619 195.832V213.614L11.3206 162.243L23.1755 153.352L81.4619 195.832Z" fill="url(#paint2_linear_3576_7374)"/>
<path d="M118.013 52.5864L23.1738 122.728V153.353L139.747 68.3929L118.013 52.5864Z" fill="url(#paint3_linear_3576_7374)"/>
<path d="M44.9091 169.158L37.0059 163.231L139.748 85.1865V95.0656L44.9091 169.158Z" fill="url(#paint4_linear_3576_7374)"/>
<path d="M139.749 153.352L118.015 169.159C110.338 139.27 129.238 124.104 139.749 120.751L139.749 153.352Z" fill="url(#paint5_radial_3576_7374)"/>
<path d="M80.3263 7.90055L104.696 19.228C82.2927 40.4499 59.8586 31.2886 51.8246 23.7268L80.3263 7.90055Z" fill="url(#paint6_radial_3576_7374)"/>
<path d="M139.75 68.3926L162.466 51.6385C170.818 81.3458 150.182 95.4271 139.75 99.0169L139.75 68.3926Z" fill="url(#paint7_radial_3576_7374)"/>
<path d="M82.4493 25.9144L105.171 42.7086C82.7674 63.9306 62.822 53.2343 54.788 45.6725L82.4493 25.9144Z" fill="url(#paint8_radial_3576_7374)"/>
<mask id="path-13-outside-1_3576_7374" maskUnits="userSpaceOnUse" x="47.7764" y="63.3076" width="54" height="88" fill="black">
<rect fill="white" x="47.7764" y="63.3076" width="54" height="88"/>
<path d="M90.1081 72.3946C92.1945 72.6475 93.301 73.6907 93.4274 75.5242C93.5539 79.3178 93.6487 83.7436 93.7119 88.8017C93.7752 93.7965 93.8068 99.0127 93.8068 104.45C93.87 109.824 93.87 115.135 93.8068 120.383C93.7435 125.568 93.6803 130.246 93.6171 134.419C93.5539 137.201 92.9216 139.319 91.7203 140.773C90.519 142.228 88.4642 143.018 85.5558 143.144C84.0384 143.208 82.8371 143.05 81.9519 142.67C81.0667 142.354 80.3713 141.817 79.8655 141.058C79.4229 140.299 79.1067 139.351 78.9171 138.213C78.7274 137.075 78.6009 135.779 78.5377 134.324C78.2216 127.433 77.9371 120.32 77.6842 112.986C77.4945 105.588 77.3048 98.3804 77.1151 91.3623C76.3564 91.6785 75.3764 92.1211 74.1751 92.6901C72.9738 93.1959 71.6777 93.7649 70.2867 94.3972C68.959 95.0295 67.5996 95.6301 66.2086 96.1991C64.8809 96.7049 63.7112 97.0527 62.6996 97.2424C61.4983 97.4953 60.4867 97.3688 59.6648 96.863C58.8428 96.294 58.0525 95.2507 57.2938 93.7333C56.5351 92.2159 56.1873 90.9514 56.2506 89.9398C56.377 88.8649 56.788 88.043 57.4835 87.474C58.6215 86.5888 59.9809 85.5772 61.5615 84.4391C63.1422 83.301 64.7861 82.163 66.4932 81.0249C68.2003 79.8236 69.8441 78.6539 71.4248 77.5159C73.0687 76.3778 74.4912 75.3978 75.6925 74.5759C76.7674 73.8171 77.7474 73.2797 78.6325 72.9636C79.5177 72.6475 80.4661 72.4262 81.4777 72.2997C82.7422 72.1733 84.1964 72.1417 85.8403 72.2049C87.4842 72.2049 88.9068 72.2681 90.1081 72.3946Z"/>
</mask>
<path d="M90.1081 72.3946C92.1945 72.6475 93.301 73.6907 93.4274 75.5242C93.5539 79.3178 93.6487 83.7436 93.7119 88.8017C93.7752 93.7965 93.8068 99.0127 93.8068 104.45C93.87 109.824 93.87 115.135 93.8068 120.383C93.7435 125.568 93.6803 130.246 93.6171 134.419C93.5539 137.201 92.9216 139.319 91.7203 140.773C90.519 142.228 88.4642 143.018 85.5558 143.144C84.0384 143.208 82.8371 143.05 81.9519 142.67C81.0667 142.354 80.3713 141.817 79.8655 141.058C79.4229 140.299 79.1067 139.351 78.9171 138.213C78.7274 137.075 78.6009 135.779 78.5377 134.324C78.2216 127.433 77.9371 120.32 77.6842 112.986C77.4945 105.588 77.3048 98.3804 77.1151 91.3623C76.3564 91.6785 75.3764 92.1211 74.1751 92.6901C72.9738 93.1959 71.6777 93.7649 70.2867 94.3972C68.959 95.0295 67.5996 95.6301 66.2086 96.1991C64.8809 96.7049 63.7112 97.0527 62.6996 97.2424C61.4983 97.4953 60.4867 97.3688 59.6648 96.863C58.8428 96.294 58.0525 95.2507 57.2938 93.7333C56.5351 92.2159 56.1873 90.9514 56.2506 89.9398C56.377 88.8649 56.788 88.043 57.4835 87.474C58.6215 86.5888 59.9809 85.5772 61.5615 84.4391C63.1422 83.301 64.7861 82.163 66.4932 81.0249C68.2003 79.8236 69.8441 78.6539 71.4248 77.5159C73.0687 76.3778 74.4912 75.3978 75.6925 74.5759C76.7674 73.8171 77.7474 73.2797 78.6325 72.9636C79.5177 72.6475 80.4661 72.4262 81.4777 72.2997C82.7422 72.1733 84.1964 72.1417 85.8403 72.2049C87.4842 72.2049 88.9068 72.2681 90.1081 72.3946Z" fill="white"/>
<path d="M90.1081 72.3946L91.0591 64.5487L90.9973 64.5413L90.9354 64.5347L90.1081 72.3946ZM93.4274 75.5242L101.326 75.261L101.322 75.1206L101.312 74.9805L93.4274 75.5242ZM93.7119 88.8017L85.8093 88.9005L85.8093 88.9017L93.7119 88.8017ZM93.8068 104.45H85.9035V104.497L85.9041 104.543L93.8068 104.45ZM93.8068 120.383L101.709 120.479L101.709 120.478L93.8068 120.383ZM93.6171 134.419L101.518 134.599L101.519 134.569L101.519 134.539L93.6171 134.419ZM91.7203 140.773L85.6272 135.74L85.6272 135.74L91.7203 140.773ZM85.5558 143.144L85.8848 151.041L85.8919 151.04L85.8991 151.04L85.5558 143.144ZM81.9519 142.67L85.0652 135.406L84.8404 135.31L84.6101 135.227L81.9519 142.67ZM79.8655 141.058L73.0388 145.04L73.1582 145.245L73.2896 145.442L79.8655 141.058ZM78.9171 138.213L86.7128 136.913L86.7128 136.913L78.9171 138.213ZM78.5377 134.324L86.4335 133.981L86.4331 133.972L86.4327 133.962L78.5377 134.324ZM77.6842 112.986L69.7835 113.188L69.7844 113.223L69.7856 113.258L77.6842 112.986ZM77.1151 91.3623L85.0155 91.1488L84.7044 79.6383L74.0754 84.0671L77.1151 91.3623ZM74.1751 92.6901L77.242 99.974L77.4018 99.9067L77.5584 99.8326L74.1751 92.6901ZM70.2867 94.3972L67.0163 87.2023L66.9523 87.2314L66.8888 87.2617L70.2867 94.3972ZM66.2086 96.1991L69.0222 103.585L69.1121 103.55L69.2011 103.514L66.2086 96.1991ZM62.6996 97.2424L61.2431 89.4745L61.1571 89.4906L61.0715 89.5086L62.6996 97.2424ZM59.6648 96.863L55.1662 103.361L55.3413 103.482L55.5227 103.594L59.6648 96.863ZM57.2938 93.7333L64.3627 90.1989L64.3627 90.1989L57.2938 93.7333ZM56.2506 89.9398L48.4015 89.0163L48.3762 89.231L48.3627 89.4468L56.2506 89.9398ZM57.4835 87.474L52.6313 81.2355L52.5543 81.2954L52.4788 81.3572L57.4835 87.474ZM61.5615 84.4391L66.1794 90.8529H66.1794L61.5615 84.4391ZM66.4932 81.0249L70.8771 87.6008L70.96 87.5456L71.0414 87.4882L66.4932 81.0249ZM71.4248 77.5159L66.9262 71.0179L66.8661 71.0594L66.8069 71.1021L71.4248 77.5159ZM75.6925 74.5759L80.1554 81.0985L80.203 81.0659L80.2502 81.0326L75.6925 74.5759ZM78.6325 72.9636L75.9744 65.5208L75.9744 65.5208L78.6325 72.9636ZM81.4777 72.2997L80.6913 64.4357L80.5942 64.4454L80.4974 64.4575L81.4777 72.2997ZM85.8403 72.2049L85.5366 80.1023L85.6884 80.1081H85.8403V72.2049ZM90.1081 72.3946L89.157 80.2404C89.151 80.2396 88.147 80.1221 87.081 79.117C85.8979 78.0015 85.5864 76.6982 85.5429 76.068L93.4274 75.5242L101.312 74.9805C101.142 72.5168 100.214 69.775 97.9245 67.6163C95.752 65.568 93.1516 64.8024 91.0591 64.5487L90.1081 72.3946ZM93.4274 75.5242L85.5286 75.7875C85.6527 79.5118 85.7466 83.8805 85.8093 88.9005L93.7119 88.8017L101.615 88.7029C101.551 83.6068 101.455 79.1239 101.326 75.261L93.4274 75.5242ZM93.7119 88.8017L85.8093 88.9017C85.8721 93.8605 85.9035 99.0431 85.9035 104.45H93.8068H101.71C101.71 98.9822 101.678 93.7326 101.615 88.7017L93.7119 88.8017ZM93.8068 104.45L85.9041 104.543C85.9666 109.856 85.9666 115.104 85.9041 120.288L93.8068 120.383L101.709 120.478C101.773 115.166 101.773 109.793 101.709 104.357L93.8068 104.45ZM93.8068 120.383L85.9041 120.287C85.841 125.465 85.7778 130.136 85.7148 134.299L93.6171 134.419L101.519 134.539C101.583 130.357 101.646 125.67 101.709 120.479L93.8068 120.383ZM93.6171 134.419L85.7159 134.24C85.6964 135.099 85.5926 135.599 85.5224 135.834C85.4577 136.051 85.4483 135.957 85.6272 135.74L91.7203 140.773L97.8134 145.807C100.572 142.467 101.433 138.344 101.518 134.599L93.6171 134.419ZM91.7203 140.773L85.6272 135.74C85.8141 135.514 86.0086 135.346 86.1739 135.233C86.3342 135.122 86.4378 135.082 86.4411 135.08C86.4416 135.08 86.3514 135.115 86.1415 135.153C85.9317 135.192 85.6274 135.231 85.2125 135.249L85.5558 143.144L85.8991 151.04C89.8369 150.869 94.5664 149.737 97.8134 145.807L91.7203 140.773ZM85.5558 143.144L85.2268 135.248C85.026 135.256 84.8693 135.256 84.7525 135.252C84.6353 135.248 84.5692 135.24 84.5478 135.238C84.5259 135.235 84.5624 135.238 84.6464 135.26C84.7305 135.281 84.8758 135.325 85.0652 135.406L81.9519 142.67L78.8387 149.934C81.2575 150.971 83.7967 151.128 85.8848 151.041L85.5558 143.144ZM81.9519 142.67L84.6101 135.227C84.8959 135.329 85.2447 135.503 85.5988 135.776C85.9551 136.052 86.2364 136.367 86.4413 136.674L79.8655 141.058L73.2896 145.442C74.769 147.661 76.8606 149.244 79.2938 150.113L81.9519 142.67ZM79.8655 141.058L86.6921 137.076C86.7795 137.226 86.8033 137.306 86.7941 137.278C86.7847 137.25 86.7499 137.136 86.7128 136.913L78.9171 138.213L71.1214 139.512C71.4219 141.315 71.988 143.239 73.0388 145.04L79.8655 141.058ZM78.9171 138.213L86.7128 136.913C86.5873 136.161 86.4862 135.194 86.4335 133.981L78.5377 134.324L70.6419 134.668C70.7157 136.364 70.8674 137.989 71.1214 139.512L78.9171 138.213ZM78.5377 134.324L86.4327 133.962C86.118 127.102 85.8346 120.019 85.5827 112.713L77.6842 112.986L69.7856 113.258C70.0395 120.62 70.3252 127.763 70.6428 134.687L78.5377 134.324ZM77.6842 112.986L85.5848 112.783C85.395 105.382 85.2053 98.1707 85.0155 91.1488L77.1151 91.3623L69.2148 91.5759C69.4043 98.5901 69.5939 105.794 69.7835 113.188L77.6842 112.986ZM77.1151 91.3623L74.0754 84.0671C73.1528 84.4515 72.0467 84.9532 70.7919 85.5476L74.1751 92.6901L77.5584 99.8326C78.7061 99.2889 79.56 98.9055 80.1548 98.6576L77.1151 91.3623ZM74.1751 92.6901L71.1082 85.4062C69.8283 85.9451 68.4636 86.5445 67.0163 87.2023L70.2867 94.3972L73.5571 101.592C74.8918 100.985 76.1194 100.447 77.242 99.974L74.1751 92.6901ZM70.2867 94.3972L66.8888 87.2617C65.6974 87.829 64.4734 88.37 63.2162 88.8843L66.2086 96.1991L69.2011 103.514C70.7259 102.89 72.2205 102.23 73.6846 101.533L70.2867 94.3972ZM66.2086 96.1991L63.3951 88.8137C62.3546 89.21 61.655 89.3973 61.2431 89.4745L62.6996 97.2424L64.1561 105.01C65.7675 104.708 67.4072 104.2 69.0222 103.585L66.2086 96.1991ZM62.6996 97.2424L61.0715 89.5086C61.1586 89.4903 61.4997 89.4299 62.0202 89.495C62.5712 89.5639 63.2016 89.7597 63.8068 90.1321L59.6648 96.863L55.5227 103.594C58.502 105.427 61.7069 105.528 64.3278 104.976L62.6996 97.2424ZM59.6648 96.863L64.1634 90.365C64.3975 90.5271 64.5546 90.6709 64.6427 90.7589C64.7307 90.8469 64.7658 90.8954 64.7552 90.8814C64.745 90.868 64.702 90.8093 64.631 90.6918C64.5603 90.575 64.4699 90.4133 64.3627 90.1989L57.2938 93.7333L50.2249 97.2678C51.2148 99.2475 52.7374 101.68 55.1662 103.361L59.6648 96.863ZM57.2938 93.7333L64.3627 90.1989C64.2603 89.9942 64.1909 89.836 64.1455 89.7219C64.1231 89.6656 64.1078 89.623 64.0978 89.5936C64.0878 89.5642 64.084 89.5503 64.0843 89.5513C64.0845 89.5522 64.0896 89.5704 64.0966 89.6052C64.1037 89.6399 64.1134 89.6938 64.1224 89.7656C64.1401 89.9071 64.157 90.135 64.1384 90.4328L56.2506 89.9398L48.3627 89.4468C48.1722 92.4942 49.2148 95.2476 50.2249 97.2678L57.2938 93.7333ZM56.2506 89.9398L64.0997 90.8632C64.0745 91.0768 63.9918 91.5129 63.7225 92.0516C63.4412 92.6141 63.0226 93.1534 62.4881 93.5907L57.4835 87.474L52.4788 81.3572C49.884 83.4802 48.7152 86.3493 48.4015 89.0163L56.2506 89.9398ZM57.4835 87.474L62.3356 93.7124C63.3754 92.9037 64.6525 91.9522 66.1794 90.8529L61.5615 84.4391L56.9436 78.0254C55.3092 79.2021 53.8677 80.2739 52.6313 81.2355L57.4835 87.474ZM61.5615 84.4391L66.1794 90.8529C67.6791 89.7731 69.2448 88.689 70.8771 87.6008L66.4932 81.0249L62.1092 74.449C60.3273 75.6369 58.6052 76.829 56.9436 78.0254L61.5615 84.4391ZM66.4932 81.0249L71.0414 87.4882C72.7702 86.2717 74.4373 85.0855 76.0427 83.9296L71.4248 77.5159L66.8069 71.1021C65.2509 72.2224 63.6303 73.3755 61.9449 74.5616L66.4932 81.0249ZM71.4248 77.5159L75.9234 84.0139C77.5594 82.8812 78.9695 81.9099 80.1554 81.0985L75.6925 74.5759L71.2297 68.0533C70.013 68.8857 68.5779 69.8744 66.9262 71.0179L71.4248 77.5159ZM75.6925 74.5759L80.2502 81.0326C80.5855 80.7959 80.8459 80.6365 81.0338 80.5334C81.2237 80.4293 81.3071 80.4005 81.2907 80.4064L78.6325 72.9636L75.9744 65.5208C74.2053 66.1526 72.581 67.0983 71.1349 68.1192L75.6925 74.5759ZM78.6325 72.9636L81.2907 80.4064C81.5892 80.2998 81.9707 80.2028 82.458 80.1419L81.4777 72.2997L80.4974 64.4575C78.9615 64.6495 77.4462 64.9951 75.9744 65.5208L78.6325 72.9636ZM81.4777 72.2997L82.2641 80.1637C83.0791 80.0822 84.1567 80.0492 85.5366 80.1023L85.8403 72.2049L86.144 64.3075C84.2362 64.2341 82.4053 64.2643 80.6913 64.4357L81.4777 72.2997ZM85.8403 72.2049V80.1081C87.299 80.1081 88.432 80.165 89.2807 80.2544L90.1081 72.3946L90.9354 64.5347C89.3815 64.3712 87.6694 64.3016 85.8403 64.3016V72.2049Z" fill="#7B4904" mask="url(#path-13-outside-1_3576_7374)"/>
<defs>
<linearGradient id="paint0_linear_3576_7374" x1="60.7148" y1="44.6823" x2="179.263" y2="266.961" gradientUnits="userSpaceOnUse">
<stop stop-color="#8D5200"/>
<stop offset="0.835214" stop-color="#A76100"/>
</linearGradient>
<linearGradient id="paint1_linear_3576_7374" x1="86.4014" y1="18.9973" x2="365.979" y2="235.349" gradientUnits="userSpaceOnUse">
<stop stop-color="#864E00"/>
<stop offset="1" stop-color="#683D00"/>
</linearGradient>
<linearGradient id="paint2_linear_3576_7374" x1="77.5103" y1="201.759" x2="-202.067" y2="-14.5919" gradientUnits="userSpaceOnUse">
<stop stop-color="#864E00"/>
<stop offset="1" stop-color="#683D00"/>
</linearGradient>
<linearGradient id="paint3_linear_3576_7374" x1="410.433" y1="-126.224" x2="-12.3908" y2="154.341" gradientUnits="userSpaceOnUse">
<stop stop-color="white" stop-opacity="0.4"/>
<stop offset="1" stop-color="white" stop-opacity="0"/>
</linearGradient>
<linearGradient id="paint4_linear_3576_7374" x1="71.5826" y1="266.961" x2="197.047" y2="10.1058" gradientUnits="userSpaceOnUse">
<stop stop-color="white" stop-opacity="0.13"/>
<stop offset="1" stop-color="white" stop-opacity="0"/>
</linearGradient>
<radialGradient id="paint5_radial_3576_7374" cx="0" cy="0" r="1" gradientTransform="matrix(-14.8186 22.7218 -11.2569 -7.85099 134.81 146.437)" gradientUnits="userSpaceOnUse">
<stop stop-color="white" stop-opacity="0.1"/>
<stop offset="1" stop-color="white" stop-opacity="0"/>
</radialGradient>
<radialGradient id="paint6_radial_3576_7374" cx="0" cy="0" r="1" gradientTransform="matrix(27.0586 1.92485 -1.39909 13.6528 76.6782 15.5757)" gradientUnits="userSpaceOnUse">
<stop stop-color="white" stop-opacity="0.1"/>
<stop offset="1" stop-color="white" stop-opacity="0"/>
</radialGradient>
<radialGradient id="paint7_radial_3576_7374" cx="0" cy="0" r="1" gradientTransform="matrix(14.3008 -23.0512 11.4316 7.59436 146.189 74.7336)" gradientUnits="userSpaceOnUse">
<stop stop-color="white" stop-opacity="0.1"/>
<stop offset="1" stop-color="white" stop-opacity="0"/>
</radialGradient>
<radialGradient id="paint8_radial_3576_7374" cx="0" cy="0" r="1" gradientUnits="userSpaceOnUse" gradientTransform="translate(82.4493 32.8298) scale(29.6372 18.2598)">
<stop stop-color="white" stop-opacity="0.22"/>
<stop offset="1" stop-color="white" stop-opacity="0"/>
</radialGradient>
</defs>
</svg>
