<svg width="166" height="214" viewBox="0 0 166 214" fill="none" xmlns="http://www.w3.org/2000/svg">
<path d="M81.7348 8.13037L151.89 59.5015V162.244L81.7348 213.615L11.5796 162.244V59.5015L81.7348 8.13037Z" fill="#6C3F00"/>
<path d="M81.7342 25.9121L139.912 68.392V153.352L81.7342 195.832L23.5567 153.352V68.392L81.7342 25.9121Z" fill="url(#paint0_linear_3576_7359)"/>
<path d="M23.4486 68.3916L11.5938 59.5005V162.243L23.4486 153.352V68.3916Z" fill="#B56B03"/>
<path d="M140.02 68.3916L151.875 59.5005V162.243L140.02 153.352V68.3916Z" fill="#A25F00"/>
<path d="M81.7354 25.9127V8.13037L151.877 59.5014L140.022 68.3926L81.7354 25.9127Z" fill="url(#paint1_linear_3576_7359)"/>
<path d="M81.7354 195.832V213.614L11.5941 162.243L23.4489 153.352L81.7354 195.832Z" fill="url(#paint2_linear_3576_7359)"/>
<path d="M118.286 52.5864L23.4473 122.728V153.353L140.02 68.3929L118.286 52.5864Z" fill="url(#paint3_linear_3576_7359)"/>
<path d="M45.1825 169.158L37.2793 163.231L140.021 85.1865V95.0656L45.1825 169.158Z" fill="url(#paint4_linear_3576_7359)"/>
<path d="M140.022 153.352L118.289 169.159C110.611 139.27 129.511 124.104 140.022 120.751L140.022 153.352Z" fill="url(#paint5_radial_3576_7359)"/>
<path d="M80.5998 7.90055L104.969 19.228C82.5662 40.4499 60.1321 31.2886 52.0981 23.7268L80.5998 7.90055Z" fill="url(#paint6_radial_3576_7359)"/>
<path d="M140.023 68.3926L162.739 51.6385C171.091 81.3458 150.456 95.4271 140.023 99.0169L140.023 68.3926Z" fill="url(#paint7_radial_3576_7359)"/>
<path d="M82.7228 25.9144L105.444 42.7086C83.0409 63.9306 63.0954 53.2343 55.0614 45.6725L82.7228 25.9144Z" fill="url(#paint8_radial_3576_7359)"/>
<mask id="path-13-outside-1_3576_7359" maskUnits="userSpaceOnUse" x="49.0498" y="63.3076" width="72" height="88" fill="black">
<rect fill="white" x="49.0498" y="63.3076" width="72" height="88"/>
<path d="M110.013 137.833C109.065 138.908 107.863 139.572 106.409 139.825C100.466 140.71 94.1434 141.374 87.4415 141.817C80.7395 142.322 73.9744 142.639 67.146 142.765C66.1343 142.765 65.2808 142.607 64.5853 142.291C63.8898 141.975 63.3208 141.532 62.8782 140.963C62.4356 140.457 62.0879 139.825 61.835 139.066C61.5821 138.371 61.424 137.644 61.3608 136.885C61.1711 135.431 61.3924 134.135 62.0247 132.997C62.6569 131.859 63.4156 130.815 64.3008 129.867C64.4905 129.614 65.0911 129.045 66.1027 128.16C67.1143 127.211 68.284 126.105 69.6118 124.84C71.0027 123.513 72.4886 122.122 74.0692 120.668C75.7131 119.15 77.2621 117.728 78.7163 116.4C80.1705 115.009 81.435 113.808 82.5099 112.796C83.6479 111.721 84.4383 110.994 84.8808 110.615C87.9789 107.643 90.5079 104.956 92.468 102.553C94.428 100.151 95.5028 97.8746 95.6925 95.7249C96.0086 92.7533 95.2499 90.3823 93.4163 88.612C91.5828 86.7785 88.6428 85.9565 84.5963 86.1462C83.395 86.2094 82.1937 86.4623 80.9924 86.9049C79.8544 87.3475 78.7795 87.9798 77.7679 88.8017C76.7563 89.5604 75.8395 90.4772 75.0176 91.552C74.2589 92.5636 73.6898 93.6701 73.3105 94.8714C72.9944 95.9462 72.4569 96.8314 71.6982 97.5269C70.9395 98.1591 70.086 98.6649 69.1376 99.0443C68.1892 99.3604 67.1776 99.5501 66.1027 99.6133C65.0279 99.6133 63.9847 99.4869 62.973 99.234C61.3292 98.7282 60.0014 97.9062 58.9898 96.7682C57.9782 95.6301 57.504 94.3024 57.5672 92.7849C57.6937 90.3191 58.484 87.9165 59.9382 85.5772C61.3924 83.2378 63.3208 81.1514 65.7234 79.3178C68.1892 77.421 71.0344 75.872 74.2589 74.6707C77.5466 73.4062 81.0557 72.6159 84.786 72.2997C88.3899 71.9836 91.8357 72.2681 95.1234 73.1533C98.4744 73.9752 101.414 75.303 103.943 77.1365C106.472 78.9068 108.464 81.0881 109.918 83.6804C111.436 86.2727 112.194 89.1178 112.194 92.2159C112.194 96.0095 111.404 99.5501 109.823 102.838C108.243 106.126 105.651 109.508 102.047 112.986C100.529 114.44 98.9486 115.926 97.3047 117.443C95.6609 118.96 93.9854 120.446 92.2783 121.9C90.6344 123.355 89.0221 124.746 87.4415 126.073C85.9241 127.338 84.5331 128.444 83.2686 129.393C87.5679 129.013 91.6776 128.697 95.5976 128.444C99.5176 128.191 103.185 128.002 106.599 127.875C107.99 127.812 109.096 128.223 109.918 129.108C110.803 129.993 111.278 131.29 111.341 132.997C111.404 135.146 110.962 136.759 110.013 137.833Z"/>
</mask>
<path d="M110.013 137.833C109.065 138.908 107.863 139.572 106.409 139.825C100.466 140.71 94.1434 141.374 87.4415 141.817C80.7395 142.322 73.9744 142.639 67.146 142.765C66.1343 142.765 65.2808 142.607 64.5853 142.291C63.8898 141.975 63.3208 141.532 62.8782 140.963C62.4356 140.457 62.0879 139.825 61.835 139.066C61.5821 138.371 61.424 137.644 61.3608 136.885C61.1711 135.431 61.3924 134.135 62.0247 132.997C62.6569 131.859 63.4156 130.815 64.3008 129.867C64.4905 129.614 65.0911 129.045 66.1027 128.16C67.1143 127.211 68.284 126.105 69.6118 124.84C71.0027 123.513 72.4886 122.122 74.0692 120.668C75.7131 119.15 77.2621 117.728 78.7163 116.4C80.1705 115.009 81.435 113.808 82.5099 112.796C83.6479 111.721 84.4383 110.994 84.8808 110.615C87.9789 107.643 90.5079 104.956 92.468 102.553C94.428 100.151 95.5028 97.8746 95.6925 95.7249C96.0086 92.7533 95.2499 90.3823 93.4163 88.612C91.5828 86.7785 88.6428 85.9565 84.5963 86.1462C83.395 86.2094 82.1937 86.4623 80.9924 86.9049C79.8544 87.3475 78.7795 87.9798 77.7679 88.8017C76.7563 89.5604 75.8395 90.4772 75.0176 91.552C74.2589 92.5636 73.6898 93.6701 73.3105 94.8714C72.9944 95.9462 72.4569 96.8314 71.6982 97.5269C70.9395 98.1591 70.086 98.6649 69.1376 99.0443C68.1892 99.3604 67.1776 99.5501 66.1027 99.6133C65.0279 99.6133 63.9847 99.4869 62.973 99.234C61.3292 98.7282 60.0014 97.9062 58.9898 96.7682C57.9782 95.6301 57.504 94.3024 57.5672 92.7849C57.6937 90.3191 58.484 87.9165 59.9382 85.5772C61.3924 83.2378 63.3208 81.1514 65.7234 79.3178C68.1892 77.421 71.0344 75.872 74.2589 74.6707C77.5466 73.4062 81.0557 72.6159 84.786 72.2997C88.3899 71.9836 91.8357 72.2681 95.1234 73.1533C98.4744 73.9752 101.414 75.303 103.943 77.1365C106.472 78.9068 108.464 81.0881 109.918 83.6804C111.436 86.2727 112.194 89.1178 112.194 92.2159C112.194 96.0095 111.404 99.5501 109.823 102.838C108.243 106.126 105.651 109.508 102.047 112.986C100.529 114.44 98.9486 115.926 97.3047 117.443C95.6609 118.96 93.9854 120.446 92.2783 121.9C90.6344 123.355 89.0221 124.746 87.4415 126.073C85.9241 127.338 84.5331 128.444 83.2686 129.393C87.5679 129.013 91.6776 128.697 95.5976 128.444C99.5176 128.191 103.185 128.002 106.599 127.875C107.99 127.812 109.096 128.223 109.918 129.108C110.803 129.993 111.278 131.29 111.341 132.997C111.404 135.146 110.962 136.759 110.013 137.833Z" fill="white"/>
<path d="M110.013 137.833L104.087 132.604L104.087 132.604L110.013 137.833ZM106.409 139.825L107.574 147.642L107.669 147.628L107.763 147.611L106.409 139.825ZM87.4415 141.817L86.9207 133.931L86.8837 133.933L86.8467 133.936L87.4415 141.817ZM67.146 142.765V150.668H67.2191L67.2923 150.667L67.146 142.765ZM64.5853 142.291L61.3149 149.486H61.3149L64.5853 142.291ZM62.8782 140.963L69.1167 136.111L68.9764 135.931L68.826 135.759L62.8782 140.963ZM61.835 139.066L69.3327 136.567L69.2989 136.466L69.2624 136.365L61.835 139.066ZM61.3608 136.885L69.2367 136.229L69.2214 136.045L69.1976 135.863L61.3608 136.885ZM62.0247 132.997L55.116 129.158H55.116L62.0247 132.997ZM64.3008 129.867L70.0785 135.259L70.3684 134.949L70.6234 134.609L64.3008 129.867ZM66.1027 128.16L71.3071 134.108L71.4091 134.018L71.5081 133.926L66.1027 128.16ZM69.6118 124.84L75.0623 130.564L75.0688 130.557L69.6118 124.84ZM74.0692 120.668L79.4202 126.484L79.4298 126.475L74.0692 120.668ZM78.7163 116.4L84.0452 122.236L84.1129 122.174L84.1792 122.111L78.7163 116.4ZM82.5099 112.796L87.9265 118.551L87.9364 118.542L82.5099 112.796ZM84.8808 110.615L90.0242 116.615L90.1921 116.471L90.3517 116.318L84.8808 110.615ZM92.4679 102.553L86.344 97.5575L92.4679 102.553ZM95.6925 95.7249L87.8336 94.8889L87.8261 94.9595L87.8198 95.0303L95.6925 95.7249ZM93.4163 88.612L87.8279 94.2005L87.8769 94.2495L87.9268 94.2976L93.4163 88.612ZM84.5963 86.1462L84.2263 78.2516L84.2036 78.2527L84.1809 78.2539L84.5963 86.1462ZM80.9924 86.9049L78.2603 79.489L78.1939 79.5134L78.1279 79.5391L80.9924 86.9049ZM77.7679 88.8017L82.5099 95.1243L82.6326 95.0323L82.7517 94.9355L77.7679 88.8017ZM75.0176 91.552L68.7396 86.7512L68.7172 86.7805L68.695 86.8101L75.0176 91.552ZM73.3105 94.8714L65.7741 92.4915L65.7505 92.5662L65.7284 92.6414L73.3105 94.8714ZM71.6982 97.5269L76.7578 103.598L76.9011 103.479L77.0386 103.353L71.6982 97.5269ZM69.1376 99.0443L71.6368 106.542L71.8571 106.469L72.0728 106.382L69.1376 99.0443ZM66.1027 99.6133V107.517H66.335L66.5668 107.503L66.1027 99.6133ZM62.973 99.234L60.6488 106.788L60.851 106.85L61.0562 106.901L62.973 99.234ZM57.5672 92.7849L49.6744 92.3802L49.6724 92.418L49.6708 92.4559L57.5672 92.7849ZM59.9382 85.5772L53.2261 81.4048L59.9382 85.5772ZM65.7234 79.3178L70.5181 85.6005L70.5301 85.5913L70.5421 85.5821L65.7234 79.3178ZM74.2589 74.6707L77.018 82.0767L77.0571 82.0621L77.096 82.0472L74.2589 74.6707ZM84.786 72.2997L85.4534 80.1747L85.465 80.1738L85.4766 80.1727L84.786 72.2997ZM95.1234 73.1533L93.0688 80.7848L93.1545 80.8078L93.2407 80.829L95.1234 73.1533ZM103.943 77.1365L99.3045 83.5351L99.3576 83.5735L99.4112 83.6111L103.943 77.1365ZM109.918 83.6804L103.026 87.5471L103.061 87.6103L103.098 87.6729L109.918 83.6804ZM109.823 102.838L116.946 106.262L116.946 106.262L109.823 102.838ZM102.047 112.986L107.515 118.692L107.525 118.682L107.534 118.673L102.047 112.986ZM97.3047 117.443L102.665 123.25L102.665 123.25L97.3047 117.443ZM92.2783 121.9L87.1533 115.884L87.0971 115.932L87.0418 115.981L92.2783 121.9ZM87.4415 126.073L92.501 132.145L92.5129 132.135L92.5248 132.125L87.4415 126.073ZM83.2686 129.393L78.5266 123.07L56.3511 139.702L83.9632 137.265L83.2686 129.393ZM106.599 127.875L106.891 135.773L106.925 135.772L106.958 135.77L106.599 127.875ZM109.918 129.108L104.127 134.486L104.226 134.593L104.33 134.697L109.918 129.108ZM111.341 132.997L119.241 132.764L119.24 132.734L119.239 132.704L111.341 132.997ZM110.013 137.833L104.087 132.604C104.185 132.493 104.351 132.346 104.578 132.22C104.802 132.096 104.982 132.051 105.055 132.039L106.409 139.825L107.763 147.611C110.931 147.061 113.764 145.527 115.939 143.062L110.013 137.833ZM106.409 139.825L105.245 132.008C99.5384 132.858 93.432 133.501 86.9207 133.931L87.4415 141.817L87.9623 149.703C94.8549 149.248 101.394 148.562 107.574 147.642L106.409 139.825ZM87.4415 141.817L86.8467 133.936C80.2964 134.43 73.6808 134.739 66.9996 134.863L67.146 142.765L67.2923 150.667C74.2679 150.538 81.1827 150.215 88.0363 149.697L87.4415 141.817ZM67.146 142.765V134.862C67.0458 134.862 67.0681 134.854 67.1862 134.875C67.3069 134.898 67.5457 134.955 67.8557 135.096L64.5853 142.291L61.3149 149.486C63.3132 150.394 65.3545 150.668 67.146 150.668V142.765ZM64.5853 142.291L67.8557 135.096C68.2529 135.277 68.7271 135.61 69.1167 136.111L62.8782 140.963L56.6398 145.815C57.9145 147.454 59.5267 148.673 61.3149 149.486L64.5853 142.291ZM62.8782 140.963L68.826 135.759C69.1927 136.178 69.3155 136.516 69.3327 136.567L61.835 139.066L54.3373 141.566C54.8602 143.134 55.6786 144.737 56.9304 146.167L62.8782 140.963ZM61.835 139.066L69.2624 136.365C69.2558 136.347 69.2434 136.309 69.2367 136.229L61.3608 136.885L53.4848 137.541C53.6046 138.978 53.9083 140.394 54.4076 141.767L61.835 139.066ZM61.3608 136.885L69.1976 135.863C69.1932 135.829 69.2114 135.939 69.175 136.152C69.137 136.375 69.0551 136.616 68.9333 136.835L62.0247 132.997L55.116 129.158C53.5596 131.96 53.1444 134.997 53.5239 137.907L61.3608 136.885ZM62.0247 132.997L68.9333 136.835C69.2544 136.257 69.6337 135.736 70.0785 135.259L64.3008 129.867L58.5231 124.474C57.1975 125.895 56.0595 127.46 55.116 129.158L62.0247 132.997ZM64.3008 129.867L70.6234 134.609C70.4847 134.794 70.3725 134.924 70.3215 134.982C70.2641 135.047 70.2259 135.087 70.217 135.096C70.2022 135.111 70.2321 135.08 70.3289 134.988C70.5219 134.805 70.8379 134.518 71.3071 134.108L66.1027 128.16L60.8984 122.212C60.356 122.687 59.8658 123.127 59.4581 123.513C59.1898 123.767 58.5266 124.394 57.9782 125.125L64.3008 129.867ZM66.1027 128.16L71.5081 133.926C72.5387 132.959 73.724 131.838 75.0623 130.564L69.6118 124.84L64.1613 119.117C62.8441 120.372 61.69 121.464 60.6974 122.394L66.1027 128.16ZM69.6118 124.84L75.0688 130.557C76.4209 129.267 77.8711 127.909 79.4201 126.484L74.0692 120.668L68.7183 114.851C67.106 116.335 65.5846 117.759 64.1548 119.124L69.6118 124.84ZM74.0692 120.668L79.4298 126.475C81.0645 124.966 82.6029 123.553 84.0452 122.236L78.7163 116.4L73.3874 110.563C71.9213 111.902 70.3616 113.334 68.7086 114.86L74.0692 120.668ZM78.7163 116.4L84.1792 122.111C85.6231 120.73 86.8715 119.544 87.9265 118.551L82.5099 112.796L77.0933 107.041C75.9985 108.071 74.7179 109.288 73.2534 110.689L78.7163 116.4ZM82.5099 112.796L87.9364 118.542C89.086 117.456 89.7461 116.854 90.0242 116.615L84.8808 110.615L79.7375 104.614C79.1304 105.134 78.2099 105.986 77.0833 107.05L82.5099 112.796ZM84.8808 110.615L90.3517 116.318C93.6006 113.202 96.3684 110.275 98.5919 107.549L92.4679 102.553L86.344 97.5575C84.6475 99.6371 82.3572 102.084 79.41 104.911L84.8808 110.615ZM92.4679 102.553L98.5919 107.549C101.135 104.432 103.188 100.696 103.565 96.4196L95.6925 95.7249L87.8198 95.0303C87.8178 95.0536 87.7212 95.8693 86.344 97.5575L92.4679 102.553ZM95.6925 95.7249L103.551 96.561C104.075 91.6365 102.806 86.6924 98.9059 82.9264L93.4163 88.612L87.9268 94.2976C87.9429 94.3131 87.9223 94.2959 87.8909 94.2457C87.859 94.1947 87.8404 94.149 87.8333 94.1267C87.8175 94.0774 87.8983 94.2809 87.8336 94.8889L95.6925 95.7249ZM93.4163 88.612L99.0048 83.0236C94.8979 78.9167 89.2626 78.0156 84.2263 78.2516L84.5963 86.1462L84.9664 94.0408C86.4054 93.9733 87.2668 94.1084 87.7083 94.2318C88.1031 94.3422 88.0293 94.4019 87.8279 94.2005L93.4163 88.612ZM84.5963 86.1462L84.1809 78.2539C82.1385 78.3614 80.1577 78.7899 78.2603 79.489L80.9924 86.9049L83.7246 94.3209C84.2297 94.1348 84.6515 94.0575 85.0117 94.0385L84.5963 86.1462ZM80.9924 86.9049L78.1279 79.5391C76.1736 80.2991 74.3908 81.3625 72.7842 82.6679L77.7679 88.8017L82.7517 94.9355C83.1683 94.597 83.5351 94.3959 83.857 94.2708L80.9924 86.9049ZM77.7679 88.8017L73.026 82.4791C71.396 83.7016 69.9707 85.1413 68.7396 86.7512L75.0176 91.552L81.2956 96.3529C81.7084 95.8131 82.1167 95.4192 82.5099 95.1243L77.7679 88.8017ZM75.0176 91.552L68.695 86.8101C67.4034 88.5322 66.423 90.4367 65.7741 92.4915L73.3105 94.8714L80.8469 97.2513C80.9567 96.9034 81.1143 96.5951 81.3402 96.294L75.0176 91.552ZM73.3105 94.8714L65.7284 92.6414C65.7479 92.5751 65.8002 92.4284 65.9147 92.2398C66.0314 92.0475 66.1829 91.8613 66.3578 91.701L71.6982 97.5269L77.0386 103.353C78.9511 101.6 80.2077 99.4302 80.8926 97.1014L73.3105 94.8714ZM71.6982 97.5269L66.6387 91.4554C66.5389 91.5386 66.4072 91.6244 66.2024 91.7063L69.1376 99.0443L72.0728 106.382C73.7647 105.706 75.3401 104.78 76.7578 103.598L71.6982 97.5269ZM69.1376 99.0443L66.6383 91.5466C66.3967 91.6272 66.0739 91.6981 65.6386 91.7237L66.1027 99.6133L66.5668 107.503C68.2813 107.402 69.9816 107.094 71.6368 106.542L69.1376 99.0443ZM66.1027 99.6133V91.7101C65.6541 91.7101 65.2555 91.6581 64.8899 91.5667L62.973 99.234L61.0562 106.901C62.7138 107.316 64.4017 107.517 66.1027 107.517V99.6133ZM62.973 99.234L65.2973 91.6802C65.0558 91.6059 64.9396 91.5402 64.9042 91.5183C64.874 91.4996 64.8815 91.5003 64.8968 91.5175L58.9898 96.7682L53.0829 102.019C55.1754 104.373 57.8058 105.913 60.6488 106.788L62.973 99.234ZM58.9898 96.7682L64.8968 91.5175C65.0101 91.6451 65.188 91.8958 65.3183 92.2607C65.4487 92.6259 65.471 92.9361 65.4636 93.114L57.5672 92.7849L49.6708 92.4559C49.522 96.0268 50.7138 99.3536 53.0829 102.019L58.9898 96.7682ZM57.5672 92.7849L65.4601 93.1897C65.5104 92.2084 65.8189 91.087 66.6503 89.7496L59.9382 85.5772L53.2261 81.4048C51.1491 84.7461 49.8769 88.4298 49.6744 92.3802L57.5672 92.7849ZM59.9382 85.5772L66.6503 89.7496C67.5516 88.2996 68.8032 86.9092 70.5181 85.6005L65.7234 79.3178L60.9287 73.0351C57.8384 75.3935 55.2332 78.176 53.2261 81.4048L59.9382 85.5772ZM65.7234 79.3178L70.5421 85.5821C72.3197 84.2147 74.4554 83.0314 77.018 82.0767L74.2589 74.6707L71.4998 67.2647C67.6133 68.7126 64.0587 70.6274 60.9047 73.0535L65.7234 79.3178ZM74.2589 74.6707L77.096 82.0472C79.6453 81.0667 82.4196 80.4318 85.4534 80.1747L84.786 72.2997L84.1186 64.4247C79.6918 64.7999 75.448 65.7457 71.4218 67.2942L74.2589 74.6707ZM84.786 72.2997L85.4766 80.1727C88.2164 79.9324 90.7296 80.155 93.0688 80.7848L95.1234 73.1533L97.1781 65.5218C92.9418 64.3812 88.5633 64.0348 84.0954 64.4267L84.786 72.2997ZM95.1234 73.1533L93.2407 80.829C95.703 81.4329 97.6854 82.3612 99.3045 83.5351L103.943 77.1365L108.582 70.738C105.143 68.2447 101.246 66.5175 97.0062 65.4776L95.1234 73.1533ZM103.943 77.1365L99.4112 83.6111C101.006 84.7275 102.175 86.0308 103.026 87.5471L109.918 83.6804L116.811 79.8137C114.753 76.1455 111.939 73.0861 108.476 70.6619L103.943 77.1365ZM109.918 83.6804L103.098 87.6729C103.883 89.0149 104.291 90.4751 104.291 92.2159H112.194H120.098C120.098 87.7606 118.988 83.5304 116.739 79.6878L109.918 83.6804ZM112.194 92.2159H104.291C104.291 94.8725 103.747 97.2372 102.701 99.4134L109.823 102.838L116.946 106.262C119.061 101.863 120.098 97.1464 120.098 92.2159H112.194ZM109.823 102.838L102.701 99.4134C101.647 101.605 99.722 104.246 96.5589 107.298L102.047 112.986L107.534 118.673C111.579 114.77 114.839 110.646 116.946 106.262L109.823 102.838ZM102.047 112.986L96.5784 107.28C95.0987 108.698 93.5541 110.15 91.9441 111.636L97.3047 117.443L102.665 123.25C104.343 121.702 105.96 120.182 107.515 118.692L102.047 112.986ZM97.3047 117.443L91.9441 111.636C90.3776 113.082 88.7807 114.498 87.1533 115.884L92.2783 121.9L97.4033 127.917C99.1901 126.395 100.944 124.839 102.665 123.25L97.3047 117.443ZM92.2783 121.9L87.0418 115.981C85.4453 117.393 83.8841 118.74 82.3582 120.022L87.4415 126.073L92.5248 132.125C94.1602 130.751 95.8235 129.316 97.5148 127.82L92.2783 121.9ZM87.4415 126.073L82.382 120.002C80.9439 121.2 79.6605 122.22 78.5266 123.07L83.2686 129.393L88.0105 135.715C89.4057 134.669 90.9042 133.476 92.501 132.145L87.4415 126.073ZM83.2686 129.393L83.9632 137.265C88.2067 136.891 92.2541 136.58 96.1065 136.331L95.5976 128.444L95.0888 120.558C91.1011 120.815 86.9292 121.136 82.5739 121.52L83.2686 129.393ZM95.5976 128.444L96.1065 136.331C99.9648 136.082 103.559 135.897 106.891 135.773L106.599 127.875L106.306 119.978C102.81 120.107 99.0705 120.301 95.0888 120.558L95.5976 128.444ZM106.599 127.875L106.958 135.77C106.782 135.778 106.323 135.769 105.72 135.545C105.088 135.31 104.536 134.927 104.127 134.486L109.918 129.108L115.71 123.73C113.057 120.873 109.557 119.829 106.24 119.98L106.599 127.875ZM109.918 129.108L104.33 134.697C103.879 134.246 103.633 133.779 103.516 133.46C103.41 133.171 103.435 133.075 103.443 133.289L111.341 132.997L119.239 132.704C119.129 129.74 118.249 126.262 115.507 123.52L109.918 129.108ZM111.341 132.997L103.441 133.229C103.456 133.732 103.399 133.857 103.435 133.726C103.48 133.564 103.642 133.109 104.087 132.604L110.013 137.833L115.939 143.062C118.746 139.881 119.334 135.937 119.241 132.764L111.341 132.997Z" fill="#7B4904" mask="url(#path-13-outside-1_3576_7359)"/>
<defs>
<linearGradient id="paint0_linear_3576_7359" x1="60.9882" y1="44.6823" x2="179.537" y2="266.961" gradientUnits="userSpaceOnUse">
<stop stop-color="#8D5200"/>
<stop offset="0.835214" stop-color="#A76100"/>
</linearGradient>
<linearGradient id="paint1_linear_3576_7359" x1="86.6749" y1="18.9973" x2="366.252" y2="235.349" gradientUnits="userSpaceOnUse">
<stop stop-color="#864E00"/>
<stop offset="1" stop-color="#683D00"/>
</linearGradient>
<linearGradient id="paint2_linear_3576_7359" x1="77.7837" y1="201.759" x2="-201.794" y2="-14.5919" gradientUnits="userSpaceOnUse">
<stop stop-color="#864E00"/>
<stop offset="1" stop-color="#683D00"/>
</linearGradient>
<linearGradient id="paint3_linear_3576_7359" x1="410.706" y1="-126.224" x2="-12.1174" y2="154.341" gradientUnits="userSpaceOnUse">
<stop stop-color="white" stop-opacity="0.4"/>
<stop offset="1" stop-color="white" stop-opacity="0"/>
</linearGradient>
<linearGradient id="paint4_linear_3576_7359" x1="71.856" y1="266.961" x2="197.32" y2="10.1058" gradientUnits="userSpaceOnUse">
<stop stop-color="white" stop-opacity="0.13"/>
<stop offset="1" stop-color="white" stop-opacity="0"/>
</linearGradient>
<radialGradient id="paint5_radial_3576_7359" cx="0" cy="0" r="1" gradientTransform="matrix(-14.8186 22.7218 -11.2569 -7.85099 135.083 146.437)" gradientUnits="userSpaceOnUse">
<stop stop-color="white" stop-opacity="0.1"/>
<stop offset="1" stop-color="white" stop-opacity="0"/>
</radialGradient>
<radialGradient id="paint6_radial_3576_7359" cx="0" cy="0" r="1" gradientTransform="matrix(27.0586 1.92485 -1.39909 13.6528 76.9517 15.5757)" gradientUnits="userSpaceOnUse">
<stop stop-color="white" stop-opacity="0.1"/>
<stop offset="1" stop-color="white" stop-opacity="0"/>
</radialGradient>
<radialGradient id="paint7_radial_3576_7359" cx="0" cy="0" r="1" gradientTransform="matrix(14.3008 -23.0512 11.4316 7.59436 146.463 74.7336)" gradientUnits="userSpaceOnUse">
<stop stop-color="white" stop-opacity="0.1"/>
<stop offset="1" stop-color="white" stop-opacity="0"/>
</radialGradient>
<radialGradient id="paint8_radial_3576_7359" cx="0" cy="0" r="1" gradientUnits="userSpaceOnUse" gradientTransform="translate(82.7228 32.8298) scale(29.6372 18.2598)">
<stop stop-color="white" stop-opacity="0.22"/>
<stop offset="1" stop-color="white" stop-opacity="0"/>
</radialGradient>
</defs>
</svg>
