<svg width="165" height="214" viewBox="0 0 165 214" fill="none" xmlns="http://www.w3.org/2000/svg">
<path d="M81.0082 7.90332L151.163 59.2744V162.017L81.0082 213.388L10.8531 162.017V59.2744L81.0082 7.90332Z" fill="#6C3F00"/>
<path d="M81.0076 25.6855L139.185 68.1655V153.125L81.0076 195.605L22.8302 153.125V68.1655L81.0076 25.6855Z" fill="url(#paint0_linear_2944_19426)"/>
<path d="M22.7221 68.1646L10.8672 59.2734V162.016L22.7221 153.124V68.1646Z" fill="#B56B03"/>
<path d="M139.294 68.1646L151.148 59.2734V162.016L139.294 153.124V68.1646Z" fill="#A25F00"/>
<path d="M81.0088 25.6856V7.90332L151.15 59.2744L139.295 68.1656L81.0088 25.6856Z" fill="url(#paint1_linear_2944_19426)"/>
<path d="M81.0088 195.605V213.388L10.8675 162.017L22.7224 153.125L81.0088 195.605Z" fill="url(#paint2_linear_2944_19426)"/>
<path d="M117.56 52.3594L22.7207 122.501V153.126L139.294 68.1659L117.56 52.3594Z" fill="url(#paint3_linear_2944_19426)"/>
<path d="M44.456 168.932L36.5527 163.004L139.295 84.96V94.839L44.456 168.932Z" fill="url(#paint4_linear_2944_19426)"/>
<path d="M139.296 153.125L117.562 168.932C109.884 139.043 128.784 123.877 139.296 120.524L139.296 153.125Z" fill="url(#paint5_radial_2944_19426)"/>
<path d="M79.8732 7.6735L104.243 19.0009C81.8396 40.2229 59.4055 31.0616 51.3715 23.4998L79.8732 7.6735Z" fill="url(#paint6_radial_2944_19426)"/>
<path d="M139.297 68.1656L162.013 51.4115C170.364 81.1188 149.729 95.2 139.297 98.7898L139.297 68.1656Z" fill="url(#paint7_radial_2944_19426)"/>
<path d="M81.9962 25.6874L104.718 42.4816C82.3143 63.7035 62.3689 53.0073 54.3349 45.4455L81.9962 25.6874Z" fill="url(#paint8_radial_2944_19426)"/>
<mask id="path-13-outside-1_2944_19426" maskUnits="userSpaceOnUse" x="47.3232" y="63.0811" width="54" height="88" fill="black">
<rect fill="white" x="47.3232" y="63.0811" width="54" height="88"/>
<path d="M89.6549 72.168C91.7414 72.4209 92.8478 73.4641 92.9743 75.2977C93.1007 79.0912 93.1956 83.5171 93.2588 88.5751C93.322 93.57 93.3537 98.7861 93.3537 104.224C93.4169 109.598 93.4169 114.909 93.3537 120.156C93.2904 125.341 93.2272 130.02 93.164 134.193C93.1007 136.975 92.4685 139.093 91.2672 140.547C90.0659 142.001 88.0111 142.791 85.1027 142.918C83.5852 142.981 82.3839 142.823 81.4988 142.444C80.6136 142.128 79.9181 141.59 79.4123 140.831C78.9697 140.073 78.6536 139.124 78.4639 137.986C78.2743 136.848 78.1478 135.552 78.0846 134.098C77.7685 127.206 77.4839 120.093 77.231 112.759C77.0414 105.362 76.8517 98.1539 76.662 91.1358C75.9033 91.4519 74.9233 91.8945 73.722 92.4635C72.5207 92.9693 71.2246 93.5384 69.8336 94.1706C68.5059 94.8029 67.1465 95.4035 65.7555 95.9726C64.4278 96.4784 63.2581 96.8261 62.2465 97.0158C61.0452 97.2687 60.0336 97.1423 59.2116 96.6364C58.3897 96.0674 57.5994 95.0242 56.8407 93.5068C56.082 91.9893 55.7342 90.7248 55.7974 89.7132C55.9239 88.6384 56.3349 87.8164 57.0303 87.2474C58.1684 86.3622 59.5278 85.3506 61.1084 84.2125C62.6891 83.0745 64.3329 81.9364 66.04 80.7983C67.7471 79.5971 69.391 78.4274 70.9717 77.2893C72.6155 76.1512 74.0381 75.1712 75.2394 74.3493C76.3143 73.5906 77.2943 73.0532 78.1794 72.737C79.0646 72.4209 80.013 72.1996 81.0246 72.0732C82.2891 71.9467 83.7433 71.9151 85.3872 71.9783C87.0311 71.9783 88.4536 72.0415 89.6549 72.168Z"/>
</mask>
<path d="M89.6549 72.168C91.7414 72.4209 92.8478 73.4641 92.9743 75.2977C93.1007 79.0912 93.1956 83.5171 93.2588 88.5751C93.322 93.57 93.3537 98.7861 93.3537 104.224C93.4169 109.598 93.4169 114.909 93.3537 120.156C93.2904 125.341 93.2272 130.02 93.164 134.193C93.1007 136.975 92.4685 139.093 91.2672 140.547C90.0659 142.001 88.0111 142.791 85.1027 142.918C83.5852 142.981 82.3839 142.823 81.4988 142.444C80.6136 142.128 79.9181 141.59 79.4123 140.831C78.9697 140.073 78.6536 139.124 78.4639 137.986C78.2743 136.848 78.1478 135.552 78.0846 134.098C77.7685 127.206 77.4839 120.093 77.231 112.759C77.0414 105.362 76.8517 98.1539 76.662 91.1358C75.9033 91.4519 74.9233 91.8945 73.722 92.4635C72.5207 92.9693 71.2246 93.5384 69.8336 94.1706C68.5059 94.8029 67.1465 95.4035 65.7555 95.9726C64.4278 96.4784 63.2581 96.8261 62.2465 97.0158C61.0452 97.2687 60.0336 97.1423 59.2116 96.6364C58.3897 96.0674 57.5994 95.0242 56.8407 93.5068C56.082 91.9893 55.7342 90.7248 55.7974 89.7132C55.9239 88.6384 56.3349 87.8164 57.0303 87.2474C58.1684 86.3622 59.5278 85.3506 61.1084 84.2125C62.6891 83.0745 64.3329 81.9364 66.04 80.7983C67.7471 79.5971 69.391 78.4274 70.9717 77.2893C72.6155 76.1512 74.0381 75.1712 75.2394 74.3493C76.3143 73.5906 77.2943 73.0532 78.1794 72.737C79.0646 72.4209 80.013 72.1996 81.0246 72.0732C82.2891 71.9467 83.7433 71.9151 85.3872 71.9783C87.0311 71.9783 88.4536 72.0415 89.6549 72.168Z" fill="white"/>
<path d="M89.6549 72.168L90.6059 64.3222L90.5442 64.3147L90.4823 64.3082L89.6549 72.168ZM92.9743 75.2977L100.873 75.0344L100.868 74.894L100.859 74.7539L92.9743 75.2977ZM93.2588 88.5751L85.3562 88.6739L85.3562 88.6752L93.2588 88.5751ZM93.3537 104.224H85.4504V104.27L85.451 104.317L93.3537 104.224ZM93.3537 120.156L101.256 120.253L101.256 120.252L93.3537 120.156ZM93.164 134.193L101.065 134.372L101.066 134.342L101.066 134.312L93.164 134.193ZM91.2672 140.547L85.1741 135.513L85.1741 135.513L91.2672 140.547ZM85.1027 142.918L85.4317 150.814L85.4388 150.814L85.446 150.814L85.1027 142.918ZM81.4988 142.444L84.612 135.179L84.3872 135.083L84.1569 135.001L81.4988 142.444ZM79.4123 140.831L72.5857 144.814L72.705 145.018L72.8364 145.215L79.4123 140.831ZM78.4639 137.986L86.2597 136.687L86.2597 136.687L78.4639 137.986ZM78.0846 134.098L85.9804 133.755L85.98 133.745L85.9795 133.736L78.0846 134.098ZM77.231 112.759L69.3304 112.962L69.3313 112.997L69.3325 113.031L77.231 112.759ZM76.662 91.1358L84.5624 90.9223L84.2513 79.4117L73.6223 83.8405L76.662 91.1358ZM73.722 92.4635L76.7889 99.7474L76.9486 99.6802L77.1053 99.606L73.722 92.4635ZM69.8336 94.1706L66.5632 86.9758L66.4992 87.0049L66.4357 87.0351L69.8336 94.1706ZM65.7555 95.9726L68.569 103.358L68.6589 103.324L68.7479 103.287L65.7555 95.9726ZM62.2465 97.0158L60.79 89.2479L60.704 89.2641L60.6183 89.2821L62.2465 97.0158ZM59.2116 96.6364L54.713 103.134L54.8882 103.256L55.0696 103.367L59.2116 96.6364ZM56.8407 93.5068L63.9095 89.9723L63.9095 89.9723L56.8407 93.5068ZM55.7974 89.7132L47.9483 88.7898L47.9231 89.0045L47.9096 89.2202L55.7974 89.7132ZM57.0303 87.2474L52.1782 81.0089L52.1012 81.0688L52.0257 81.1306L57.0303 87.2474ZM61.1084 84.2125L65.7263 90.6263H65.7263L61.1084 84.2125ZM66.04 80.7983L70.424 87.3742L70.5068 87.319L70.5883 87.2617L66.04 80.7983ZM70.9717 77.2893L66.4731 70.7913L66.413 70.8329L66.3538 70.8755L70.9717 77.2893ZM75.2394 74.3493L79.7023 80.8719L79.7499 80.8393L79.7971 80.806L75.2394 74.3493ZM78.1794 72.737L75.5213 65.2942L75.5213 65.2942L78.1794 72.737ZM81.0246 72.0732L80.2382 64.2091L80.1411 64.2188L80.0443 64.231L81.0246 72.0732ZM85.3872 71.9783L85.0834 79.8757L85.2353 79.8816H85.3872V71.9783ZM89.6549 72.168L88.7039 80.0138C88.6978 80.0131 87.6939 79.8955 86.6279 78.8904C85.4448 77.7749 85.1332 76.4716 85.0898 75.8414L92.9743 75.2977L100.859 74.7539C100.689 72.2902 99.7609 69.5485 97.4713 67.3898C95.2989 65.3415 92.6985 64.5758 90.6059 64.3222L89.6549 72.168ZM92.9743 75.2977L85.0754 75.561C85.1996 79.2852 85.2934 83.6539 85.3562 88.6739L93.2588 88.5751L101.161 88.4764C101.098 83.3802 101.002 78.8973 100.873 75.0344L92.9743 75.2977ZM93.2588 88.5751L85.3562 88.6752C85.419 93.6339 85.4504 98.8166 85.4504 104.224H93.3537H101.257C101.257 98.7557 101.225 93.5061 101.161 88.4751L93.2588 88.5751ZM93.3537 104.224L85.451 104.317C85.5135 109.63 85.5134 114.878 85.451 120.061L93.3537 120.156L101.256 120.252C101.32 114.94 101.32 109.566 101.256 104.131L93.3537 104.224ZM93.3537 120.156L85.451 120.06C85.3878 125.239 85.3247 129.909 85.2616 134.073L93.164 134.193L101.066 134.312C101.13 130.13 101.193 125.443 101.256 120.253L93.3537 120.156ZM93.164 134.193L85.2628 134.013C85.2432 134.872 85.1395 135.372 85.0693 135.607C85.0046 135.824 84.9952 135.73 85.1741 135.513L91.2672 140.547L97.3603 145.58C100.119 142.241 100.98 138.117 101.065 134.372L93.164 134.193ZM91.2672 140.547L85.1741 135.513C85.361 135.287 85.5555 135.12 85.7207 135.006C85.8811 134.895 85.9847 134.855 85.988 134.854C85.9885 134.854 85.8983 134.888 85.6884 134.927C85.4785 134.966 85.1743 135.004 84.7594 135.022L85.1027 142.918L85.446 150.814C89.3838 150.642 94.1133 149.511 97.3603 145.58L91.2672 140.547ZM85.1027 142.918L84.7736 135.021C84.5729 135.03 84.4162 135.029 84.2994 135.025C84.1822 135.021 84.1161 135.014 84.0946 135.011C84.0728 135.008 84.1092 135.012 84.1933 135.033C84.2774 135.055 84.4227 135.098 84.612 135.179L81.4988 142.444L78.3855 149.708C80.8043 150.744 83.3435 150.901 85.4317 150.814L85.1027 142.918ZM81.4988 142.444L84.1569 135.001C84.4427 135.103 84.7916 135.276 85.1457 135.55C85.502 135.825 85.7833 136.14 85.9882 136.447L79.4123 140.831L72.8364 145.215C74.3159 147.434 76.4074 149.017 78.8406 149.886L81.4988 142.444ZM79.4123 140.831L86.239 136.849C86.3264 136.999 86.3501 137.079 86.341 137.052C86.3315 137.024 86.2967 136.909 86.2597 136.687L78.4639 137.986L70.6682 139.285C70.9688 141.089 71.5349 143.012 72.5857 144.814L79.4123 140.831ZM78.4639 137.986L86.2597 136.687C86.1342 135.934 86.0331 134.967 85.9804 133.755L78.0846 134.098L70.1888 134.441C70.2625 136.137 70.4143 137.762 70.6682 139.286L78.4639 137.986ZM78.0846 134.098L85.9795 133.736C85.6649 126.876 85.3815 119.793 85.1296 112.487L77.231 112.759L69.3325 113.031C69.5864 120.394 69.8721 127.537 70.1896 134.46L78.0846 134.098ZM77.231 112.759L85.1317 112.556C84.9419 105.156 84.7521 97.9442 84.5624 90.9223L76.662 91.1358L68.7616 91.3493C68.9512 98.3636 69.1408 105.568 69.3304 112.962L77.231 112.759ZM76.662 91.1358L73.6223 83.8405C72.6997 84.2249 71.5936 84.7267 70.3387 85.3211L73.722 92.4635L77.1053 99.606C78.253 99.0623 79.1069 98.6789 79.7017 98.4311L76.662 91.1358ZM73.722 92.4635L70.6551 85.1796C69.3752 85.7185 68.0105 86.3179 66.5632 86.9758L69.8336 94.1706L73.104 101.365C74.4387 100.759 75.6662 100.22 76.7889 99.7474L73.722 92.4635ZM69.8336 94.1706L66.4357 87.0351C65.2443 87.6024 64.0203 88.1435 62.7631 88.6577L65.7555 95.9726L68.7479 103.287C70.2727 102.664 71.7674 102.003 73.2315 101.306L69.8336 94.1706ZM65.7555 95.9726L62.942 88.5871C61.9015 88.9835 61.2019 89.1707 60.79 89.2479L62.2465 97.0158L63.703 104.784C65.3143 104.482 66.954 103.973 68.569 103.358L65.7555 95.9726ZM62.2465 97.0158L60.6183 89.2821C60.7055 89.2637 61.0466 89.2034 61.5671 89.2684C62.118 89.3373 62.7485 89.5331 63.3537 89.9056L59.2116 96.6364L55.0696 103.367C58.0489 105.201 61.2538 105.301 63.8746 104.75L62.2465 97.0158ZM59.2116 96.6364L63.7102 90.1385C63.9443 90.3005 64.1015 90.4443 64.1896 90.5323C64.2776 90.6203 64.3127 90.6689 64.3021 90.6548C64.2919 90.6414 64.2489 90.5827 64.1778 90.4652C64.1072 90.3484 64.0168 90.1867 63.9095 89.9723L56.8407 93.5068L49.7718 97.0412C50.7617 99.021 52.2843 101.453 54.713 103.134L59.2116 96.6364ZM56.8407 93.5068L63.9095 89.9723C63.8072 89.7676 63.7378 89.6094 63.6924 89.4953C63.67 89.439 63.6547 89.3964 63.6447 89.3671C63.6347 89.3377 63.6309 89.3238 63.6312 89.3247C63.6314 89.3256 63.6364 89.3439 63.6435 89.3786C63.6506 89.4134 63.6603 89.4673 63.6693 89.5391C63.687 89.6806 63.7039 89.9085 63.6853 90.2062L55.7974 89.7132L47.9096 89.2202C47.7191 92.2676 48.7617 95.021 49.7718 97.0412L56.8407 93.5068ZM55.7974 89.7132L63.6465 90.6366C63.6214 90.8502 63.5387 91.2864 63.2694 91.8251C62.9881 92.3876 62.5695 92.9268 62.035 93.3642L57.0303 87.2474L52.0257 81.1306C49.4309 83.2536 48.2621 86.1227 47.9483 88.7898L55.7974 89.7132ZM57.0303 87.2474L61.8825 93.4858C62.9223 92.6771 64.1994 91.7257 65.7263 90.6263L61.1084 84.2125L56.4905 77.7988C54.8561 78.9756 53.4145 80.0474 52.1782 81.0089L57.0303 87.2474ZM61.1084 84.2125L65.7263 90.6263C67.226 89.5465 68.7917 88.4624 70.424 87.3742L66.04 80.7983L61.6561 74.2224C59.8742 75.4104 58.1521 76.6024 56.4905 77.7988L61.1084 84.2125ZM66.04 80.7983L70.5883 87.2617C72.3171 86.0451 73.9842 84.8589 75.5896 83.7031L70.9717 77.2893L66.3538 70.8755C64.7978 71.9958 63.1772 73.149 61.4918 74.335L66.04 80.7983ZM70.9717 77.2893L75.4703 83.7873C77.1063 82.6547 78.5164 81.6833 79.7023 80.8719L75.2394 74.3493L70.7766 67.8267C69.5599 68.6592 68.1248 69.6478 66.4731 70.7913L70.9717 77.2893ZM75.2394 74.3493L79.7971 80.806C80.1324 80.5693 80.3928 80.4099 80.5807 80.3069C80.7706 80.2027 80.854 80.174 80.8376 80.1799L78.1794 72.737L75.5213 65.2942C73.7522 65.926 72.1279 66.8718 70.6818 67.8926L75.2394 74.3493ZM78.1794 72.737L80.8376 80.1799C81.1361 80.0732 81.5176 79.9763 82.0049 79.9154L81.0246 72.0732L80.0443 64.231C78.5083 64.4229 76.9931 64.7686 75.5213 65.2942L78.1794 72.737ZM81.0246 72.0732L81.811 79.9372C82.626 79.8557 83.7036 79.8227 85.0834 79.8757L85.3872 71.9783L85.6909 64.0809C83.783 64.0075 81.9522 64.0377 80.2382 64.2091L81.0246 72.0732ZM85.3872 71.9783V79.8816C86.8458 79.8816 87.9789 79.9385 88.8276 80.0278L89.6549 72.168L90.4823 64.3082C88.9284 64.1446 87.2163 64.0751 85.3872 64.0751V71.9783Z" fill="#7B4904" mask="url(#path-13-outside-1_2944_19426)"/>
<defs>
<linearGradient id="paint0_linear_2944_19426" x1="60.2616" y1="44.4558" x2="178.81" y2="266.734" gradientUnits="userSpaceOnUse">
<stop stop-color="#8D5200"/>
<stop offset="0.835214" stop-color="#A76100"/>
</linearGradient>
<linearGradient id="paint1_linear_2944_19426" x1="85.9483" y1="18.7703" x2="365.526" y2="235.122" gradientUnits="userSpaceOnUse">
<stop stop-color="#864E00"/>
<stop offset="1" stop-color="#683D00"/>
</linearGradient>
<linearGradient id="paint2_linear_2944_19426" x1="77.0572" y1="201.533" x2="-202.52" y2="-14.8185" gradientUnits="userSpaceOnUse">
<stop stop-color="#864E00"/>
<stop offset="1" stop-color="#683D00"/>
</linearGradient>
<linearGradient id="paint3_linear_2944_19426" x1="409.98" y1="-126.452" x2="-12.8439" y2="154.114" gradientUnits="userSpaceOnUse">
<stop stop-color="white" stop-opacity="0.4"/>
<stop offset="1" stop-color="white" stop-opacity="0"/>
</linearGradient>
<linearGradient id="paint4_linear_2944_19426" x1="71.1294" y1="266.735" x2="196.594" y2="9.87921" gradientUnits="userSpaceOnUse">
<stop stop-color="white" stop-opacity="0.13"/>
<stop offset="1" stop-color="white" stop-opacity="0"/>
</linearGradient>
<radialGradient id="paint5_radial_2944_19426" cx="0" cy="0" r="1" gradientTransform="matrix(-14.8186 22.7218 -11.2569 -7.85099 134.356 146.21)" gradientUnits="userSpaceOnUse">
<stop stop-color="white" stop-opacity="0.1"/>
<stop offset="1" stop-color="white" stop-opacity="0"/>
</radialGradient>
<radialGradient id="paint6_radial_2944_19426" cx="0" cy="0" r="1" gradientTransform="matrix(27.0586 1.92485 -1.39909 13.6528 76.2251 15.3487)" gradientUnits="userSpaceOnUse">
<stop stop-color="white" stop-opacity="0.1"/>
<stop offset="1" stop-color="white" stop-opacity="0"/>
</radialGradient>
<radialGradient id="paint7_radial_2944_19426" cx="0" cy="0" r="1" gradientTransform="matrix(14.3008 -23.0512 11.4316 7.59436 145.736 74.5065)" gradientUnits="userSpaceOnUse">
<stop stop-color="white" stop-opacity="0.1"/>
<stop offset="1" stop-color="white" stop-opacity="0"/>
</radialGradient>
<radialGradient id="paint8_radial_2944_19426" cx="0" cy="0" r="1" gradientUnits="userSpaceOnUse" gradientTransform="translate(81.9962 32.6027) scale(29.6372 18.2598)">
<stop stop-color="white" stop-opacity="0.22"/>
<stop offset="1" stop-color="white" stop-opacity="0"/>
</radialGradient>
</defs>
</svg>
