<svg width="230" height="297" viewBox="0 0 230 297" fill="none" xmlns="http://www.w3.org/2000/svg">
<path d="M112.751 11L210.396 82.5005V225.501L112.751 297.002L15.1057 225.501V82.5005L112.751 11Z" fill="#6C3F00"/>
<path d="M112.75 35.75L193.724 94.8754V213.126L112.75 272.252L31.7757 213.126V94.8754L112.75 35.75Z" fill="url(#paint0_linear_2944_10843)"/>
<path d="M31.6251 94.8741L15.125 82.499V225.5L31.6251 213.125V94.8741Z" fill="#B56B03"/>
<path d="M193.875 94.8741L210.375 82.499V225.5L193.875 213.125V94.8741Z" fill="#A25F00"/>
<path d="M112.752 35.7502V11L210.378 82.5005L193.877 94.8755L112.752 35.7502Z" fill="url(#paint1_linear_2944_10843)"/>
<path d="M112.752 272.252V297.002L15.1263 225.502L31.6264 213.126L112.752 272.252Z" fill="url(#paint2_linear_2944_10843)"/>
<path d="M163.625 72.8755L31.624 170.501V213.126L193.875 94.8756L163.625 72.8755Z" fill="url(#paint3_linear_2944_10843)"/>
<path d="M61.876 235.126L50.876 226.876L193.877 118.25V132.001L61.876 235.126Z" fill="url(#paint4_linear_2944_10843)"/>
<path d="M193.877 213.126L163.628 235.126C152.942 193.526 179.248 172.418 193.877 167.751L193.877 213.126Z" fill="url(#paint5_radial_2944_10843)"/>
<path d="M111.171 10.68L145.089 26.446C113.908 55.9836 82.6828 43.2325 71.5008 32.7077L111.171 10.68Z" fill="url(#paint6_radial_2944_10843)"/>
<path d="M193.879 94.8754L225.496 71.5563C237.12 112.904 208.4 132.503 193.879 137.5L193.879 94.8754Z" fill="url(#paint7_radial_2944_10843)"/>
<path d="M114.125 35.7526L145.75 59.1275C114.568 88.6651 86.8072 73.7776 75.6251 63.2527L114.125 35.7526Z" fill="url(#paint8_radial_2944_10843)"/>
<mask id="path-13-outside-1_2944_10843" maskUnits="userSpaceOnUse" x="68.001" y="89.5005" width="98" height="122" fill="black">
<rect fill="white" x="68.001" y="89.5005" width="98" height="122"/>
<path d="M112.641 144.056C115.545 143.88 117.437 143.704 118.317 143.528C122.981 143.088 126.633 141.724 129.273 139.436C131.913 137.148 133.101 134.288 132.837 130.856C132.573 126.72 130.769 123.64 127.425 121.616C124.081 119.504 119.989 118.756 115.149 119.372C111.805 119.812 108.901 121.044 106.437 123.068C104.061 125.092 102.345 127.38 101.289 129.932C100.761 131.34 99.8811 132.44 98.6491 133.232C97.5051 134.024 96.2291 134.596 94.8211 134.948C93.4131 135.3 91.9171 135.432 90.3331 135.344C88.7491 135.256 87.297 135.036 85.977 134.684C84.217 134.156 82.809 133.408 81.753 132.44C80.697 131.472 79.949 130.328 79.509 129.008C79.069 127.688 78.937 126.28 79.113 124.784C79.289 123.2 79.685 121.66 80.301 120.164C81.093 118.052 82.545 115.896 84.657 113.696C86.857 111.408 89.4971 109.34 92.5771 107.492C95.7451 105.556 99.3091 103.972 103.269 102.74C107.317 101.508 111.673 100.804 116.337 100.628C121.441 100.54 126.281 101.2 130.857 102.608C135.521 103.928 139.569 105.864 143.001 108.416C146.521 110.88 149.293 113.828 151.317 117.26C153.341 120.692 154.353 124.388 154.353 128.348C154.353 134.684 152.681 139.788 149.337 143.66C146.081 147.532 141.681 150.216 136.137 151.712C141.681 152.416 145.949 154.528 148.941 158.048C152.021 161.48 153.561 166.056 153.561 171.776C153.561 175.824 152.681 179.608 150.921 183.128C149.161 186.56 146.697 189.552 143.529 192.104C140.361 194.657 136.533 196.637 132.045 198.045C127.557 199.541 122.629 200.289 117.261 200.289C111.717 200.289 106.701 199.717 102.213 198.573C97.8131 197.429 94.0291 195.889 90.8611 193.952C87.781 192.016 85.405 189.772 83.733 187.22C82.061 184.58 81.225 181.852 81.225 179.036C81.225 177.188 81.621 175.472 82.413 173.888C83.293 172.304 84.613 171.116 86.373 170.324C87.429 169.796 88.5291 169.4 89.6731 169.136C90.9051 168.872 92.0931 168.784 93.2371 168.872C94.4691 168.96 95.5691 169.268 96.5371 169.796C97.5051 170.236 98.2971 170.94 98.9131 171.908C100.937 175.34 103.577 177.804 106.833 179.3C110.089 180.708 113.917 181.456 118.317 181.544C120.253 181.544 122.057 181.324 123.729 180.884C125.401 180.444 126.853 179.784 128.085 178.904C129.317 177.936 130.285 176.792 130.989 175.472C131.693 174.152 132.045 172.656 132.045 170.984C131.957 168.696 130.725 166.672 128.349 164.912C126.061 163.064 123.245 162.008 119.901 161.744C119.373 161.744 118.317 161.7 116.733 161.612C115.149 161.524 113.433 161.436 111.585 161.348C109.825 161.172 108.153 161.04 106.569 160.952C104.985 160.864 103.929 160.82 103.401 160.82C101.377 160.732 99.8811 159.896 98.9131 158.312C98.0331 156.728 97.5931 154.924 97.5931 152.9C97.5931 150.876 98.0331 149.116 98.9131 147.62C99.8811 146.036 101.377 145.112 103.401 144.848C106.745 144.408 109.825 144.144 112.641 144.056Z"/>
</mask>
<path d="M112.641 144.056C115.545 143.88 117.437 143.704 118.317 143.528C122.981 143.088 126.633 141.724 129.273 139.436C131.913 137.148 133.101 134.288 132.837 130.856C132.573 126.72 130.769 123.64 127.425 121.616C124.081 119.504 119.989 118.756 115.149 119.372C111.805 119.812 108.901 121.044 106.437 123.068C104.061 125.092 102.345 127.38 101.289 129.932C100.761 131.34 99.8811 132.44 98.6491 133.232C97.5051 134.024 96.2291 134.596 94.8211 134.948C93.4131 135.3 91.9171 135.432 90.3331 135.344C88.7491 135.256 87.297 135.036 85.977 134.684C84.217 134.156 82.809 133.408 81.753 132.44C80.697 131.472 79.949 130.328 79.509 129.008C79.069 127.688 78.937 126.28 79.113 124.784C79.289 123.2 79.685 121.66 80.301 120.164C81.093 118.052 82.545 115.896 84.657 113.696C86.857 111.408 89.4971 109.34 92.5771 107.492C95.7451 105.556 99.3091 103.972 103.269 102.74C107.317 101.508 111.673 100.804 116.337 100.628C121.441 100.54 126.281 101.2 130.857 102.608C135.521 103.928 139.569 105.864 143.001 108.416C146.521 110.88 149.293 113.828 151.317 117.26C153.341 120.692 154.353 124.388 154.353 128.348C154.353 134.684 152.681 139.788 149.337 143.66C146.081 147.532 141.681 150.216 136.137 151.712C141.681 152.416 145.949 154.528 148.941 158.048C152.021 161.48 153.561 166.056 153.561 171.776C153.561 175.824 152.681 179.608 150.921 183.128C149.161 186.56 146.697 189.552 143.529 192.104C140.361 194.657 136.533 196.637 132.045 198.045C127.557 199.541 122.629 200.289 117.261 200.289C111.717 200.289 106.701 199.717 102.213 198.573C97.8131 197.429 94.0291 195.889 90.8611 193.952C87.781 192.016 85.405 189.772 83.733 187.22C82.061 184.58 81.225 181.852 81.225 179.036C81.225 177.188 81.621 175.472 82.413 173.888C83.293 172.304 84.613 171.116 86.373 170.324C87.429 169.796 88.5291 169.4 89.6731 169.136C90.9051 168.872 92.0931 168.784 93.2371 168.872C94.4691 168.96 95.5691 169.268 96.5371 169.796C97.5051 170.236 98.2971 170.94 98.9131 171.908C100.937 175.34 103.577 177.804 106.833 179.3C110.089 180.708 113.917 181.456 118.317 181.544C120.253 181.544 122.057 181.324 123.729 180.884C125.401 180.444 126.853 179.784 128.085 178.904C129.317 177.936 130.285 176.792 130.989 175.472C131.693 174.152 132.045 172.656 132.045 170.984C131.957 168.696 130.725 166.672 128.349 164.912C126.061 163.064 123.245 162.008 119.901 161.744C119.373 161.744 118.317 161.7 116.733 161.612C115.149 161.524 113.433 161.436 111.585 161.348C109.825 161.172 108.153 161.04 106.569 160.952C104.985 160.864 103.929 160.82 103.401 160.82C101.377 160.732 99.8811 159.896 98.9131 158.312C98.0331 156.728 97.5931 154.924 97.5931 152.9C97.5931 150.876 98.0331 149.116 98.9131 147.62C99.8811 146.036 101.377 145.112 103.401 144.848C106.745 144.408 109.825 144.144 112.641 144.056Z" fill="white"/>
<path d="M112.641 144.056L112.985 155.051L113.146 155.046L113.307 155.036L112.641 144.056ZM118.317 143.528L117.284 132.577L116.718 132.63L116.16 132.742L118.317 143.528ZM129.273 139.436L136.478 147.749L136.478 147.749L129.273 139.436ZM132.837 130.856L121.86 131.557L121.864 131.628L121.87 131.7L132.837 130.856ZM127.425 121.616L121.551 130.916L121.64 130.972L121.729 131.027L127.425 121.616ZM115.149 119.372L113.76 108.46L113.737 108.463L113.714 108.466L115.149 119.372ZM106.437 123.068L99.455 114.568L99.3789 114.63L99.304 114.694L106.437 123.068ZM101.289 129.932L91.1249 125.726L91.0543 125.897L90.9895 126.07L101.289 129.932ZM98.6491 133.232L92.7007 123.979L92.5425 124.081L92.3878 124.188L98.6491 133.232ZM90.3331 135.344L90.9432 124.361H90.9432L90.3331 135.344ZM85.977 134.684L82.8162 145.22L82.9787 145.269L83.1427 145.313L85.977 134.684ZM81.753 132.44L74.32 140.549L74.32 140.549L81.753 132.44ZM79.509 129.008L89.9446 125.53L89.9446 125.53L79.509 129.008ZM79.113 124.784L90.0377 126.069L90.0419 126.034L90.0458 125.999L79.113 124.784ZM80.301 120.164L90.4725 124.352L90.5392 124.19L90.6007 124.026L80.301 120.164ZM84.657 113.696L76.7278 106.072L76.7217 106.078L84.657 113.696ZM92.5771 107.492L98.2366 116.924L98.2749 116.901L98.3131 116.878L92.5771 107.492ZM103.269 102.74L100.066 92.2164L100.034 92.2263L100.001 92.2364L103.269 102.74ZM116.337 100.628L116.148 89.6295L116.035 89.6314L115.922 89.6356L116.337 100.628ZM130.857 102.608L127.622 113.122L127.742 113.158L127.862 113.192L130.857 102.608ZM143.001 108.416L136.438 117.243L136.564 117.337L136.693 117.428L143.001 108.416ZM151.317 117.26L160.793 111.672V111.672L151.317 117.26ZM149.337 143.66L141.012 136.47L140.965 136.525L140.918 136.581L149.337 143.66ZM136.137 151.712L133.272 141.092L134.752 162.625L136.137 151.712ZM148.941 158.048L140.56 165.172L140.656 165.285L140.755 165.395L148.941 158.048ZM150.921 183.128L160.71 188.148L160.735 188.098L160.76 188.048L150.921 183.128ZM143.529 192.104L136.629 183.538L143.529 192.104ZM132.045 198.045L128.753 187.549L128.659 187.578L128.567 187.609L132.045 198.045ZM102.213 198.573L99.4452 209.219L99.4706 209.225L99.4961 209.232L102.213 198.573ZM90.8611 193.952L85.0071 203.266L85.0659 203.302L85.1251 203.339L90.8611 193.952ZM83.733 187.22L74.44 193.106L74.4854 193.178L74.5319 193.249L83.733 187.22ZM82.413 173.888L72.7972 168.546L72.6811 168.755L72.5742 168.969L82.413 173.888ZM86.373 170.324L90.8871 180.356L91.0917 180.263L91.2924 180.163L86.373 170.324ZM89.6731 169.136L87.3682 158.38L87.2838 158.399L87.1996 158.418L89.6731 169.136ZM93.2371 168.872L92.3934 179.84L92.4234 179.842L92.4534 179.844L93.2371 168.872ZM96.5371 169.796L91.2697 179.453L91.621 179.645L91.9852 179.81L96.5371 169.796ZM98.9131 171.908L108.388 166.32L108.294 166.16L108.193 166.003L98.9131 171.908ZM106.833 179.3L102.241 189.296L102.353 189.348L102.467 189.397L106.833 179.3ZM118.317 181.544L118.097 192.542L118.207 192.544H118.317V181.544ZM123.729 180.884L120.93 170.247H120.93L123.729 180.884ZM128.085 178.904L134.479 187.856L134.684 187.709L134.881 187.554L128.085 178.904ZM130.989 175.472L121.283 170.296L121.283 170.296L130.989 175.472ZM132.045 170.984H143.045V170.773L143.037 170.562L132.045 170.984ZM128.349 164.912L121.438 173.47L121.617 173.614L121.802 173.751L128.349 164.912ZM119.901 161.744L120.767 150.778L120.335 150.744H119.901V161.744ZM116.733 161.612L117.343 150.629L116.733 161.612ZM111.585 161.348L110.491 172.294L110.776 172.322L111.062 172.336L111.585 161.348ZM106.569 160.952L105.959 171.935L106.569 160.952ZM103.401 160.82L102.923 171.81L103.162 171.82H103.401V160.82ZM98.9131 158.312L89.2973 163.654L89.4081 163.854L89.527 164.048L98.9131 158.312ZM98.9131 147.62L89.527 141.884L89.4787 141.963L89.4318 142.043L98.9131 147.62ZM103.401 144.848L104.824 155.756L104.836 155.754L103.401 144.848ZM112.641 144.056L113.307 155.036C116.04 154.87 118.718 154.666 120.475 154.315L118.317 143.528L116.16 132.742C116.318 132.71 116.107 132.757 115.219 132.839C114.435 132.912 113.365 132.992 111.976 133.076L112.641 144.056ZM118.317 143.528L119.35 154.48C125.529 153.897 131.603 151.974 136.478 147.749L129.273 139.436L122.069 131.124C121.664 131.475 120.433 132.28 117.284 132.577L118.317 143.528ZM129.273 139.436L136.478 147.749C141.706 143.218 144.341 136.981 143.805 130.012L132.837 130.856L121.87 131.7C121.878 131.81 121.867 131.81 121.88 131.725C121.893 131.635 121.924 131.503 121.986 131.355C122.047 131.208 122.113 131.103 122.154 131.049C122.191 130.999 122.179 131.028 122.069 131.124L129.273 139.436ZM132.837 130.856L143.815 130.155C143.338 122.683 139.758 116.223 133.121 112.205L127.425 121.616L121.729 131.027C121.879 131.117 121.92 131.163 121.9 131.144C121.876 131.12 121.833 131.07 121.795 131.004C121.757 130.939 121.758 130.92 121.776 130.983C121.796 131.051 121.839 131.231 121.86 131.557L132.837 130.856ZM127.425 121.616L133.299 112.316C127.326 108.543 120.524 107.599 113.76 108.46L115.149 119.372L116.538 130.284C119.454 129.913 120.837 130.465 121.551 130.916L127.425 121.616ZM115.149 119.372L113.714 108.466C108.456 109.158 103.6 111.163 99.455 114.568L106.437 123.068L113.419 131.568C114.202 130.925 115.155 130.466 116.584 130.278L115.149 119.372ZM106.437 123.068L99.304 114.694C95.776 117.7 92.9293 121.366 91.1249 125.726L101.289 129.932L111.453 134.138C111.761 133.395 112.346 132.484 113.57 131.442L106.437 123.068ZM101.289 129.932L90.9895 126.07C91.1055 125.76 91.3108 125.357 91.6435 124.941C91.9782 124.523 92.3532 124.202 92.7007 123.979L98.6491 133.232L104.597 142.485C107.879 140.375 110.253 137.357 111.589 133.794L101.289 129.932ZM98.6491 133.232L92.3878 124.188C92.3803 124.193 92.3313 124.232 92.1532 124.276L94.8211 134.948L97.489 145.62C100.127 144.96 102.63 143.855 104.91 142.276L98.6491 133.232ZM94.8211 134.948L92.1532 124.276C91.9108 124.337 91.5271 124.393 90.9432 124.361L90.3331 135.344L89.7229 146.327C92.3071 146.471 94.9154 146.263 97.489 145.62L94.8211 134.948ZM90.3331 135.344L90.9432 124.361C89.9935 124.308 89.2987 124.185 88.8113 124.055L85.977 134.684L83.1427 145.313C85.2953 145.887 87.5046 146.204 89.7229 146.327L90.3331 135.344ZM85.977 134.684L89.1379 124.148C88.8476 124.061 88.7399 124.001 88.7618 124.013C88.7887 124.027 88.9553 124.12 89.186 124.331L81.753 132.44L74.32 140.549C76.8939 142.908 79.9014 144.346 82.8162 145.22L85.977 134.684ZM81.753 132.44L89.186 124.331C89.3015 124.437 89.4553 124.605 89.6067 124.836C89.7591 125.069 89.8712 125.309 89.9446 125.53L79.509 129.008L69.0734 132.487C70.1225 135.634 71.9284 138.357 74.32 140.549L81.753 132.44ZM79.509 129.008L89.9446 125.53C89.9939 125.677 90.0211 125.819 90.032 125.935C90.0427 126.049 90.0342 126.099 90.0377 126.069L79.113 124.784L68.1883 123.499C67.8393 126.465 68.0813 129.51 69.0734 132.487L79.509 129.008ZM79.113 124.784L90.0458 125.999C90.1065 125.452 90.242 124.912 90.4725 124.352L80.301 120.164L70.1295 115.976C69.128 118.408 68.4715 120.948 68.1802 123.569L79.113 124.784ZM80.301 120.164L90.6007 124.026C90.718 123.714 91.172 122.793 92.5923 121.314L84.657 113.696L76.7217 106.078C73.918 108.999 71.468 112.39 70.0013 116.302L80.301 120.164ZM84.657 113.696L92.5862 121.32C94.0312 119.817 95.8822 118.337 98.2366 116.924L92.5771 107.492L86.9176 98.0595C83.1119 100.343 79.6829 102.998 76.7278 106.072L84.657 113.696ZM92.5771 107.492L98.3131 116.878C100.623 115.466 103.343 114.237 106.537 113.243L103.269 102.74L100.001 92.2364C95.2752 93.7068 90.8668 95.6456 86.8411 98.1058L92.5771 107.492ZM103.269 102.74L106.472 113.263C109.527 112.334 112.938 111.764 116.752 111.62L116.337 100.628L115.922 89.6356C110.409 89.8437 105.107 90.6822 100.066 92.2164L103.269 102.74ZM116.337 100.628L116.527 111.626C120.548 111.557 124.226 112.077 127.622 113.122L130.857 102.608L134.092 92.0943C128.336 90.3232 122.335 89.5228 116.148 89.6295L116.337 100.628ZM130.857 102.608L127.862 113.192C131.41 114.196 134.212 115.588 136.438 117.243L143.001 108.416L149.565 99.5888C144.927 96.1401 139.633 93.6595 133.853 92.0236L130.857 102.608ZM143.001 108.416L136.693 117.428C139.028 119.062 140.678 120.874 141.842 122.848L151.317 117.26L160.793 111.672C157.909 106.782 154.015 102.698 149.31 99.4043L143.001 108.416ZM151.317 117.26L141.842 122.848C142.874 124.598 143.353 126.366 143.353 128.348H154.353H165.354C165.354 122.41 163.808 116.786 160.793 111.672L151.317 117.26ZM154.353 128.348H143.353C143.353 132.697 142.247 135.04 141.012 136.47L149.337 143.66L157.663 150.85C163.116 144.536 165.354 136.671 165.354 128.348H154.353ZM149.337 143.66L140.918 136.581C139.299 138.507 136.95 140.099 133.272 141.092L136.137 151.712L139.003 162.332C146.413 160.333 152.864 156.558 157.756 150.74L149.337 143.66ZM136.137 151.712L134.752 162.625C138.174 163.059 139.703 164.164 140.56 165.172L148.941 158.048L157.323 150.924C152.196 144.893 145.189 141.773 137.523 140.8L136.137 151.712ZM148.941 158.048L140.755 165.395C141.616 166.355 142.561 168.089 142.561 171.776H153.561H164.562C164.562 164.024 162.427 156.606 157.128 150.701L148.941 158.048ZM153.561 171.776H142.561C142.561 174.167 142.057 176.261 141.083 178.209L150.921 183.128L160.76 188.048C163.306 182.956 164.562 177.482 164.562 171.776H153.561ZM150.921 183.128L141.133 178.109C140.115 180.095 138.663 181.899 136.629 183.538L143.529 192.104L150.43 200.671C154.731 197.206 158.208 193.026 160.71 188.148L150.921 183.128ZM143.529 192.104L136.629 183.538C134.686 185.103 132.13 186.489 128.753 187.549L132.045 198.045L135.338 208.54C140.936 206.784 146.037 204.21 150.43 200.671L143.529 192.104ZM132.045 198.045L128.567 187.609C125.34 188.684 121.604 189.288 117.261 189.288V200.289V211.289C123.655 211.289 129.774 210.397 135.524 208.48L132.045 198.045ZM117.261 200.289V189.288C112.46 189.288 108.376 188.792 104.93 187.913L102.213 198.573L99.4961 209.232C105.026 210.641 110.975 211.289 117.261 211.289V200.289ZM102.213 198.573L104.981 187.926C101.402 186.996 98.6634 185.829 96.5971 184.566L90.8611 193.952L85.1251 203.339C89.3948 205.948 94.2247 207.861 99.4452 209.219L102.213 198.573ZM90.8611 193.952L96.715 184.639C94.7199 183.385 93.5889 182.192 92.9342 181.192L83.733 187.22L74.5319 193.249C77.2211 197.353 80.8422 200.648 85.0071 203.266L90.8611 193.952ZM83.733 187.22L93.0261 181.335C92.3427 180.256 92.2251 179.544 92.2251 179.036H81.225H70.2249C70.2249 184.161 71.7793 188.905 74.44 193.106L83.733 187.22ZM81.225 179.036H92.2251C92.2251 178.904 92.2386 178.845 92.2404 178.837C92.2419 178.83 92.2427 178.828 92.2431 178.827C92.2434 178.826 92.2456 178.82 92.2518 178.808L82.413 173.888L72.5742 168.969C70.985 172.147 70.2249 175.557 70.2249 179.036H81.225ZM82.413 173.888L92.0288 179.23C91.8905 179.479 91.684 179.75 91.4217 179.986C91.165 180.217 90.9558 180.325 90.8871 180.356L86.373 170.324L81.859 160.293C78.0874 161.99 74.9055 164.751 72.7972 168.546L82.413 173.888ZM86.373 170.324L91.2924 180.163C91.5751 180.022 91.8545 179.922 92.1465 179.855L89.6731 169.136L87.1996 158.418C85.2036 158.879 83.2829 159.571 81.4537 160.486L86.373 170.324ZM89.6731 169.136L91.9779 179.892C92.13 179.86 92.2362 179.847 92.3007 179.842C92.3643 179.838 92.3932 179.84 92.3934 179.84L93.2371 168.872L94.0808 157.905C91.7847 157.728 89.5336 157.916 87.3682 158.38L89.6731 169.136ZM93.2371 168.872L92.4534 179.844C92.3035 179.834 91.8425 179.766 91.2697 179.453L96.5371 169.796L101.805 160.139C99.2957 158.771 96.6347 158.087 94.0208 157.9L93.2371 168.872ZM96.5371 169.796L91.9852 179.81C91.4694 179.576 90.9797 179.259 90.5491 178.876C90.1234 178.497 89.8268 178.119 89.6328 177.814L98.9131 171.908L108.193 166.003C106.527 163.384 104.152 161.175 101.089 159.782L96.5371 169.796ZM98.9131 171.908L89.438 177.496C92.4688 182.635 96.7199 186.759 102.241 189.296L106.833 179.3L111.426 169.305C110.434 168.849 109.405 168.045 108.388 166.32L98.9131 171.908ZM106.833 179.3L102.467 189.397C107.308 191.49 112.602 192.432 118.097 192.542L118.317 181.544L118.537 170.547C115.232 170.48 112.871 169.927 111.199 169.204L106.833 179.3ZM118.317 181.544V192.544C121.087 192.544 123.841 192.229 126.529 191.522L123.729 180.884L120.93 170.247C120.273 170.419 119.42 170.544 118.317 170.544V181.544ZM123.729 180.884L126.529 191.522C129.31 190.79 132.018 189.613 134.479 187.856L128.085 178.904L121.692 169.953C121.688 169.956 121.493 170.098 120.93 170.247L123.729 180.884ZM128.085 178.904L134.881 187.554C137.256 185.688 139.239 183.38 140.695 180.649L130.989 175.472L121.283 170.296C121.29 170.284 121.299 170.269 121.31 170.253C121.32 170.237 121.33 170.224 121.338 170.215C121.346 170.206 121.348 170.204 121.342 170.21C121.336 170.216 121.319 170.231 121.289 170.255L128.085 178.904ZM130.989 175.472L140.695 180.649C142.345 177.556 143.045 174.246 143.045 170.984H132.045H121.045C121.045 171.046 121.039 170.987 121.074 170.841C121.109 170.689 121.176 170.497 121.283 170.296L130.989 175.472ZM132.045 170.984L143.037 170.562C142.785 164.012 139.107 159.192 134.897 156.073L128.349 164.912L121.802 173.751C122.121 173.988 121.941 173.932 121.659 173.47C121.336 172.939 121.084 172.203 121.053 171.407L132.045 170.984ZM128.349 164.912L135.261 156.355C131.012 152.923 126.002 151.192 120.767 150.778L119.901 161.744L119.036 172.71C120.489 172.825 121.111 173.206 121.438 173.47L128.349 164.912ZM119.901 161.744V150.744C119.908 150.744 119.853 150.744 119.712 150.74C119.578 150.736 119.4 150.73 119.171 150.721C118.712 150.702 118.107 150.672 117.343 150.629L116.733 161.612L116.123 172.595C117.656 172.681 119.017 172.744 119.901 172.744V161.744ZM116.733 161.612L117.343 150.629C115.726 150.539 113.981 150.45 112.108 150.361L111.585 161.348L111.062 172.336C112.886 172.423 114.572 172.509 116.123 172.595L116.733 161.612ZM111.585 161.348L112.68 150.403C110.777 150.212 108.942 150.067 107.179 149.969L106.569 160.952L105.959 171.935C107.364 172.013 108.874 172.132 110.491 172.294L111.585 161.348ZM106.569 160.952L107.179 149.969C105.647 149.884 104.285 149.82 103.401 149.82V160.82V171.82C103.395 171.82 103.45 171.82 103.591 171.824C103.724 171.828 103.902 171.834 104.131 171.844C104.59 171.863 105.195 171.893 105.959 171.935L106.569 160.952ZM103.401 160.82L103.879 149.831C104.271 149.848 105.127 149.966 106.127 150.525C107.165 151.105 107.882 151.894 108.299 152.576L98.9131 158.312L89.527 164.048C92.6018 169.08 97.6349 171.58 102.923 171.81L103.401 160.82ZM98.9131 158.312L108.529 152.97C108.551 153.01 108.57 153.051 108.585 153.09C108.6 153.128 108.607 153.154 108.61 153.165C108.612 153.175 108.608 153.162 108.604 153.121C108.599 153.08 108.593 153.008 108.593 152.9H97.5931H86.593C86.593 156.571 87.407 160.252 89.2973 163.654L98.9131 158.312ZM97.5931 152.9H108.593C108.593 152.685 108.616 152.644 108.595 152.73C108.584 152.773 108.564 152.84 108.53 152.924C108.495 153.01 108.45 153.102 108.394 153.197L98.9131 147.62L89.4318 142.043C87.4026 145.493 86.593 149.245 86.593 152.9H97.5931ZM98.9131 147.62L108.299 153.356C107.934 153.954 107.345 154.602 106.542 155.098C105.767 155.577 105.111 155.718 104.824 155.756L103.401 144.848L101.978 133.941C97.0285 134.586 92.4181 137.153 89.527 141.884L98.9131 147.62ZM103.401 144.848L104.836 155.754C107.886 155.353 110.597 155.126 112.985 155.051L112.641 144.056L112.298 133.061C109.054 133.163 105.604 133.463 101.966 133.942L103.401 144.848Z" fill="#7B4904" mask="url(#path-13-outside-1_2944_10843)"/>
<defs>
<linearGradient id="paint0_linear_2944_10843" x1="83.8744" y1="61.8752" x2="248.876" y2="371.252" gradientUnits="userSpaceOnUse">
<stop stop-color="#8D5200"/>
<stop offset="0.835214" stop-color="#A76100"/>
</linearGradient>
<linearGradient id="paint1_linear_2944_10843" x1="119.627" y1="26.1251" x2="508.754" y2="327.252" gradientUnits="userSpaceOnUse">
<stop stop-color="#864E00"/>
<stop offset="1" stop-color="#683D00"/>
</linearGradient>
<linearGradient id="paint2_linear_2944_10843" x1="107.252" y1="280.502" x2="-281.876" y2="-20.6251" gradientUnits="userSpaceOnUse">
<stop stop-color="#864E00"/>
<stop offset="1" stop-color="#683D00"/>
</linearGradient>
<linearGradient id="paint3_linear_2944_10843" x1="570.627" y1="-176.001" x2="-17.8763" y2="214.501" gradientUnits="userSpaceOnUse">
<stop stop-color="white" stop-opacity="0.4"/>
<stop offset="1" stop-color="white" stop-opacity="0"/>
</linearGradient>
<linearGradient id="paint4_linear_2944_10843" x1="99.0013" y1="371.252" x2="273.628" y2="13.7499" gradientUnits="userSpaceOnUse">
<stop stop-color="white" stop-opacity="0.13"/>
<stop offset="1" stop-color="white" stop-opacity="0"/>
</linearGradient>
<radialGradient id="paint5_radial_2944_10843" cx="0" cy="0" r="1" gradientTransform="matrix(-20.6251 31.6252 -15.6678 -10.9273 187.003 203.501)" gradientUnits="userSpaceOnUse">
<stop stop-color="white" stop-opacity="0.1"/>
<stop offset="1" stop-color="white" stop-opacity="0"/>
</radialGradient>
<radialGradient id="paint6_radial_2944_10843" cx="0" cy="0" r="1" gradientTransform="matrix(37.6613 2.67909 -1.94731 19.0025 106.093 21.3626)" gradientUnits="userSpaceOnUse">
<stop stop-color="white" stop-opacity="0.1"/>
<stop offset="1" stop-color="white" stop-opacity="0"/>
</radialGradient>
<radialGradient id="paint7_radial_2944_10843" cx="0" cy="0" r="1" gradientTransform="matrix(19.9045 -32.0836 15.9109 10.5701 202.842 103.701)" gradientUnits="userSpaceOnUse">
<stop stop-color="white" stop-opacity="0.1"/>
<stop offset="1" stop-color="white" stop-opacity="0"/>
</radialGradient>
<radialGradient id="paint8_radial_2944_10843" cx="0" cy="0" r="1" gradientUnits="userSpaceOnUse" gradientTransform="translate(114.125 45.3776) scale(41.2503 25.4147)">
<stop stop-color="white" stop-opacity="0.22"/>
<stop offset="1" stop-color="white" stop-opacity="0"/>
</radialGradient>
</defs>
</svg>
