<svg width="220" height="209" viewBox="0 0 220 209" fill="none" xmlns="http://www.w3.org/2000/svg">
<path d="M20.8682 66.8252C33.7671 74.1757 38.265 90.5912 30.9145 103.49C18.0155 96.1396 13.5176 79.7242 20.8682 66.8252Z" fill="#00E5FF"/>
<path d="M46.2744 88.2188C52.2068 99.1688 48.1391 112.855 37.189 118.787C31.2566 107.837 35.3243 94.1511 46.2744 88.2188Z" fill="#00E5FF"/>
<path d="M10.6865 99.7109C23.0387 98.1233 34.3392 106.85 35.9268 119.202C23.5746 120.79 12.2741 112.063 10.6865 99.7109Z" fill="#00BED4"/>
<path d="M53.3193 109.227C61.429 118.678 60.3411 132.914 50.8896 141.024C42.78 131.572 43.8678 117.336 53.3193 109.227Z" fill="#00E5FF"/>
<path d="M30.584 101.101C32.2511 110.27 40.3364 131.796 59.3411 144.549" stroke="#00E5FF" stroke-width="1.40178" stroke-linecap="round" stroke-linejoin="round"/>
<path d="M20.584 133.9C31.0687 127.18 45.0164 130.231 51.7372 140.716C41.2525 147.436 27.3047 144.385 20.584 133.9Z" fill="#00BED4"/>
<path d="M191.597 66.8252C178.698 74.1757 174.2 90.5912 181.55 103.49C194.449 96.1396 198.947 79.7242 191.597 66.8252Z" fill="#00E5FF"/>
<path d="M166.192 88.2188C160.26 99.1688 164.328 112.855 175.278 118.787C181.21 107.837 177.142 94.1511 166.192 88.2188Z" fill="#00E5FF"/>
<path d="M201.782 99.7109C189.43 98.1233 178.13 106.85 176.542 119.202C188.894 120.79 200.195 112.063 201.782 99.7109Z" fill="#00BED4"/>
<path d="M159.155 109.227C151.046 118.678 152.133 132.914 161.585 141.024C169.695 131.572 168.607 117.336 159.155 109.227Z" fill="#00E5FF"/>
<path d="M181.893 101.101C180.225 110.27 172.14 131.796 153.135 144.549" stroke="#00E5FF" stroke-width="1.40178" stroke-linecap="round" stroke-linejoin="round"/>
<path d="M191.895 133.902C181.41 127.182 167.462 130.233 160.741 140.718C171.226 147.438 185.174 144.387 191.895 133.902Z" fill="#00BED4"/>
<path d="M107.777 7.96338L173.089 55.7885V151.439L107.777 199.264L42.4642 151.439V55.7885L107.777 7.96338Z" fill="#00E5FF"/>
<path d="M107.777 24.5186L161.938 64.0662V143.162L107.777 182.709L53.6152 143.162V64.0662L107.777 24.5186Z" fill="url(#paint0_linear_2944_12036)"/>
<path d="M107.81 24.5192L128.963 40.1542C108.106 59.9112 89.5373 49.9533 82.0579 42.9135L107.81 24.5192Z" fill="url(#paint1_radial_2944_12036)"/>
<path d="M53.5141 64.0665L42.4775 55.7891V151.439L53.5141 143.162V64.0665Z" fill="#74F1FF"/>
<path d="M162.039 64.0665L173.075 55.7891V151.439L162.039 143.162V64.0665Z" fill="#00E5FF"/>
<path d="M107.776 24.5182V7.96338L173.076 55.7885L162.039 64.0659L107.776 24.5182Z" fill="url(#paint2_linear_2944_12036)"/>
<path d="M107.776 182.709V199.264L42.4767 151.439L53.5133 143.161L107.776 182.709Z" fill="url(#paint3_linear_2944_12036)"/>
<path d="M141.806 49.3491L53.5137 114.649V143.16L162.04 64.0645L141.806 49.3491Z" fill="url(#paint4_linear_2944_12036)"/>
<path d="M73.7474 157.877L66.3896 152.359L162.04 79.7012V88.8983L73.7474 157.877Z" fill="url(#paint5_linear_2944_12036)"/>
<path d="M162.04 143.161L141.807 157.876C134.659 130.051 152.255 115.932 162.04 112.811L162.04 143.161Z" fill="url(#paint6_radial_2944_12036)"/>
<path d="M106.719 7.74984L129.407 18.2954C108.55 38.0524 87.6645 29.5235 80.1851 22.4837L106.719 7.74984Z" fill="url(#paint7_radial_2944_12036)"/>
<path d="M162.04 64.0669L183.188 48.4693C190.964 76.126 171.753 89.2353 162.04 92.5773L162.04 64.0669Z" fill="url(#paint8_radial_2944_12036)"/>
<mask id="path-25-outside-1_2944_12036" maskUnits="userSpaceOnUse" x="77.1357" y="62.3433" width="50" height="81" fill="black">
<rect fill="white" x="77.1357" y="62.3433" width="50" height="81"/>
<path d="M116.098 69.98C118.04 70.2154 119.07 71.1867 119.188 72.8936C119.306 76.4253 119.394 80.5457 119.453 85.2546C119.512 89.9047 119.541 94.7607 119.541 99.8228C119.6 104.826 119.6 109.77 119.541 114.656C119.482 119.483 119.423 123.838 119.364 127.723C119.306 130.313 118.717 132.285 117.599 133.639C116.48 134.993 114.567 135.728 111.86 135.846C110.447 135.905 109.329 135.758 108.504 135.405C107.68 135.11 107.033 134.61 106.562 133.904C106.15 133.197 105.856 132.314 105.679 131.255C105.503 130.195 105.385 128.989 105.326 127.635C105.032 121.219 104.767 114.597 104.531 107.769C104.355 100.882 104.178 94.1721 104.002 87.6385C103.295 87.9328 102.383 88.3448 101.264 88.8746C100.146 89.3455 98.9394 89.8752 97.6445 90.4638C96.4084 91.0525 95.1429 91.6116 93.8479 92.1414C92.6118 92.6123 91.5229 92.936 90.5811 93.1126C89.4627 93.3481 88.5209 93.2303 87.7557 92.7595C86.9905 92.2297 86.2548 91.2585 85.5484 89.8458C84.8421 88.4331 84.5183 87.2559 84.5772 86.3141C84.6949 85.3135 85.0775 84.5483 85.725 84.0185C86.7845 83.1944 88.05 82.2526 89.5216 81.1931C90.9931 80.1336 92.5235 79.0741 94.1128 78.0146C95.7021 76.8962 97.2325 75.8073 98.704 74.7478C100.234 73.6883 101.559 72.7759 102.677 72.0107C103.678 71.3044 104.59 70.8041 105.414 70.5097C106.238 70.2154 107.121 70.0094 108.063 69.8917C109.24 69.774 110.594 69.7445 112.124 69.8034C113.655 69.8034 114.979 69.8623 116.098 69.98Z"/>
</mask>
<path d="M116.098 69.98C118.04 70.2154 119.07 71.1867 119.188 72.8936C119.306 76.4253 119.394 80.5457 119.453 85.2546C119.512 89.9047 119.541 94.7607 119.541 99.8228C119.6 104.826 119.6 109.77 119.541 114.656C119.482 119.483 119.423 123.838 119.364 127.723C119.306 130.313 118.717 132.285 117.599 133.639C116.48 134.993 114.567 135.728 111.86 135.846C110.447 135.905 109.329 135.758 108.504 135.405C107.68 135.11 107.033 134.61 106.562 133.904C106.15 133.197 105.856 132.314 105.679 131.255C105.503 130.195 105.385 128.989 105.326 127.635C105.032 121.219 104.767 114.597 104.531 107.769C104.355 100.882 104.178 94.1721 104.002 87.6385C103.295 87.9328 102.383 88.3448 101.264 88.8746C100.146 89.3455 98.9394 89.8752 97.6445 90.4638C96.4084 91.0525 95.1429 91.6116 93.8479 92.1414C92.6118 92.6123 91.5229 92.936 90.5811 93.1126C89.4627 93.3481 88.5209 93.2303 87.7557 92.7595C86.9905 92.2297 86.2548 91.2585 85.5484 89.8458C84.8421 88.4331 84.5183 87.2559 84.5772 86.3141C84.6949 85.3135 85.0775 84.5483 85.725 84.0185C86.7845 83.1944 88.05 82.2526 89.5216 81.1931C90.9931 80.1336 92.5235 79.0741 94.1128 78.0146C95.7021 76.8962 97.2325 75.8073 98.704 74.7478C100.234 73.6883 101.559 72.7759 102.677 72.0107C103.678 71.3044 104.59 70.8041 105.414 70.5097C106.238 70.2154 107.121 70.0094 108.063 69.8917C109.24 69.774 110.594 69.7445 112.124 69.8034C113.655 69.8034 114.979 69.8623 116.098 69.98Z" fill="white"/>
<path d="M116.098 69.98L116.983 62.6757L116.925 62.6688L116.868 62.6627L116.098 69.98ZM119.188 72.8936L126.541 72.6485L126.537 72.5178L126.528 72.3874L119.188 72.8936ZM119.453 85.2546L112.096 85.3466L112.096 85.3477L119.453 85.2546ZM119.541 99.8228H112.183V99.8661L112.184 99.9094L119.541 99.8228ZM119.541 114.656L126.898 114.746L126.898 114.745L119.541 114.656ZM119.364 127.723L126.72 127.89L126.721 127.863L126.721 127.835L119.364 127.723ZM117.599 133.639L111.926 128.953L111.926 128.953L117.599 133.639ZM111.86 135.846L112.166 143.198L112.179 143.197L111.86 135.846ZM108.504 135.405L111.403 128.642L111.194 128.552L110.979 128.476L108.504 135.405ZM106.562 133.904L100.207 137.611L100.318 137.802L100.44 137.985L106.562 133.904ZM105.679 131.255L112.937 130.045L112.937 130.045L105.679 131.255ZM105.326 127.635L112.677 127.315L112.676 127.307L112.676 127.298L105.326 127.635ZM104.531 107.769L97.176 107.958L97.1768 107.99L97.178 108.023L104.531 107.769ZM104.002 87.6385L111.357 87.4397L111.067 76.7237L101.172 80.8468L104.002 87.6385ZM101.264 88.8746L104.12 95.6557L104.268 95.5931L104.414 95.524L101.264 88.8746ZM97.6445 90.4638L94.5999 83.7656L94.5403 83.7927L94.4812 83.8209L97.6445 90.4638ZM93.8479 92.1414L96.4672 99.0171L96.5509 98.9852L96.6338 98.9513L93.8479 92.1414ZM90.5811 93.1126L89.2252 85.8809L89.1451 85.896L89.0653 85.9127L90.5811 93.1126ZM87.7557 92.7595L83.5677 98.8089L83.7307 98.9218L83.8996 99.0257L87.7557 92.7595ZM85.5484 89.8458L92.1294 86.5553L92.1294 86.5553L85.5484 89.8458ZM84.5772 86.3141L77.2699 85.4544L77.2464 85.6543L77.2338 85.8551L84.5772 86.3141ZM85.725 84.0185L81.2078 78.2107L81.1361 78.2664L81.0658 78.3239L85.725 84.0185ZM89.5216 81.1931L93.8207 87.1642L89.5216 81.1931ZM94.1128 78.0146L98.1941 84.1366L98.2713 84.0851L98.3471 84.0318L94.1128 78.0146ZM98.704 74.7478L94.5159 68.6983L94.46 68.737L94.4049 68.7768L98.704 74.7478ZM102.677 72.0107L106.832 78.0831L106.876 78.0527L106.92 78.0217L102.677 72.0107ZM105.414 70.5097L102.94 63.5807L102.94 63.5807L105.414 70.5097ZM108.063 69.8917L107.331 62.5705L107.241 62.5795L107.15 62.5908L108.063 69.8917ZM112.124 69.8034L111.842 77.1557L111.983 77.1611H112.124V69.8034ZM116.098 69.98L115.212 77.2842C115.207 77.2835 114.272 77.1741 113.28 76.2384C112.178 75.1999 111.888 73.9865 111.848 73.3999L119.188 72.8936L126.528 72.3874C126.37 70.0937 125.506 67.5413 123.374 65.5316C121.352 63.6247 118.931 62.9119 116.983 62.6757L116.098 69.98ZM119.188 72.8936L111.834 73.1388C111.95 76.6059 112.037 80.6731 112.096 85.3466L119.453 85.2546L126.81 85.1626C126.751 80.4182 126.661 76.2448 126.541 72.6485L119.188 72.8936ZM119.453 85.2546L112.096 85.3477C112.154 89.9642 112.183 94.7891 112.183 99.8228H119.541H126.899C126.899 94.7324 126.869 89.8451 126.81 85.1615L119.453 85.2546ZM119.541 99.8228L112.184 99.9094C112.242 104.856 112.242 109.742 112.184 114.567L119.541 114.656L126.898 114.745C126.958 109.799 126.958 104.797 126.898 99.7363L119.541 99.8228ZM119.541 114.656L112.184 114.566C112.125 119.387 112.066 123.736 112.008 127.612L119.364 127.723L126.721 127.835C126.78 123.941 126.839 119.578 126.898 114.746L119.541 114.656ZM119.364 127.723L112.009 127.556C111.99 128.356 111.894 128.821 111.829 129.04C111.768 129.242 111.76 129.155 111.926 128.953L117.599 133.639L123.271 138.325C125.84 135.216 126.641 131.377 126.72 127.89L119.364 127.723ZM117.599 133.639L111.926 128.953C112.1 128.742 112.281 128.586 112.435 128.48C112.584 128.378 112.681 128.34 112.684 128.339C112.684 128.339 112.6 128.371 112.405 128.407C112.209 128.443 111.926 128.479 111.54 128.495L111.86 135.846L112.179 143.197C115.845 143.038 120.248 141.984 123.271 138.325L117.599 133.639ZM111.86 135.846L111.553 128.495C111.366 128.503 111.22 128.502 111.112 128.498C111.003 128.495 110.941 128.488 110.921 128.485C110.901 128.482 110.935 128.486 111.013 128.506C111.091 128.526 111.227 128.566 111.403 128.642L108.504 135.405L105.606 142.168C107.858 143.133 110.222 143.279 112.166 143.198L111.86 135.846ZM108.504 135.405L110.979 128.476C111.245 128.571 111.57 128.732 111.9 128.987C112.231 129.243 112.493 129.536 112.684 129.822L106.562 133.904L100.44 137.985C101.817 140.051 103.765 141.525 106.03 142.334L108.504 135.405ZM106.562 133.904L112.917 130.196C112.999 130.336 113.021 130.411 113.012 130.385C113.004 130.359 112.971 130.253 112.937 130.045L105.679 131.255L98.4215 132.465C98.7013 134.143 99.2284 135.934 100.207 137.611L106.562 133.904ZM105.679 131.255L112.937 130.045C112.82 129.345 112.726 128.444 112.677 127.315L105.326 127.635L97.9752 127.955C98.0438 129.533 98.1851 131.046 98.4215 132.465L105.679 131.255ZM105.326 127.635L112.676 127.298C112.383 120.911 112.119 114.317 111.885 107.516L104.531 107.769L97.178 108.023C97.4143 114.877 97.6803 121.527 97.976 127.972L105.326 127.635ZM104.531 107.769L111.887 107.581C111.71 100.691 111.533 93.9769 111.357 87.4397L104.002 87.6385L96.6465 87.8373C96.823 94.3673 96.9995 101.074 97.176 107.958L104.531 107.769ZM104.002 87.6385L101.172 80.8468C100.313 81.2046 99.283 81.6718 98.1148 82.2251L101.264 88.8746L104.414 95.524C105.483 95.0179 106.278 94.661 106.831 94.4302L104.002 87.6385ZM101.264 88.8746L98.4093 82.0935C97.2177 82.5952 95.9472 83.1532 94.5999 83.7656L97.6445 90.4638L100.689 97.1621C101.932 96.5973 103.075 96.0958 104.12 95.6557L101.264 88.8746ZM97.6445 90.4638L94.4812 83.8209C93.372 84.349 92.2324 84.8527 91.0621 85.3315L93.8479 92.1414L96.6338 98.9513C98.0533 98.3706 99.4448 97.7559 100.808 97.1068L97.6445 90.4638ZM93.8479 92.1414L91.2286 85.2657C90.2599 85.6347 89.6086 85.809 89.2252 85.8809L90.5811 93.1126L91.937 100.344C93.4372 100.063 94.9637 99.5899 96.4672 99.0171L93.8479 92.1414ZM90.5811 93.1126L89.0653 85.9127C89.1464 85.8957 89.464 85.8395 89.9486 85.9C90.4615 85.9641 91.0484 86.1464 91.6119 86.4932L87.7557 92.7595L83.8996 99.0257C86.6732 100.733 89.6569 100.826 92.0969 100.312L90.5811 93.1126ZM87.7557 92.7595L91.9438 86.71C92.1618 86.8609 92.3081 86.9947 92.39 87.0767C92.472 87.1586 92.5047 87.2038 92.4948 87.1907C92.4853 87.1782 92.4453 87.1236 92.3791 87.0142C92.3133 86.9055 92.2292 86.755 92.1294 86.5553L85.5484 89.8458L78.9675 93.1363C79.889 94.9794 81.3065 97.2435 83.5677 98.8089L87.7557 92.7595ZM85.5484 89.8458L92.1294 86.5553C92.0341 86.3648 91.9695 86.2175 91.9272 86.1113C91.9064 86.0588 91.8921 86.0192 91.8828 85.9919C91.8735 85.9645 91.87 85.9515 91.8702 85.9524C91.8704 85.9533 91.8751 85.9703 91.8817 86.0026C91.8883 86.035 91.8973 86.0851 91.9057 86.152C91.9222 86.2837 91.9379 86.4959 91.9206 86.7731L84.5772 86.3141L77.2338 85.8551C77.0565 88.6922 78.0271 91.2555 78.9675 93.1363L85.5484 89.8458ZM84.5772 86.3141L91.8845 87.1738C91.8611 87.3727 91.7841 87.7787 91.5334 88.2802C91.2715 88.8039 90.8818 89.3059 90.3842 89.713L85.725 84.0185L81.0658 78.3239C78.6501 80.3004 77.562 82.9714 77.2699 85.4544L84.5772 86.3141ZM85.725 84.0185L90.2422 89.8263C91.2102 89.0734 92.3992 88.1876 93.8207 87.1642L89.5216 81.1931L85.2224 75.2221C83.7009 76.3176 82.3588 77.3155 81.2078 78.2107L85.725 84.0185ZM89.5216 81.1931L93.8207 87.1642C95.2169 86.1589 96.6745 85.1497 98.1941 84.1366L94.1128 78.0146L90.0315 71.8926C88.3726 72.9986 86.7694 74.1083 85.2224 75.2221L89.5216 81.1931ZM94.1128 78.0146L98.3471 84.0318C99.9565 82.8992 101.509 81.7949 103.003 80.7188L98.704 74.7478L94.4049 68.7768C92.9563 69.8197 91.4476 70.8932 89.8785 71.9974L94.1128 78.0146ZM98.704 74.7478L102.892 80.7972C104.415 79.7428 105.728 78.8385 106.832 78.0831L102.677 72.0107L98.5224 65.9384C97.3897 66.7134 96.0536 67.6338 94.5159 68.6983L98.704 74.7478ZM102.677 72.0107L106.92 78.0217C107.232 77.8014 107.475 77.653 107.65 77.5571C107.827 77.4601 107.904 77.4333 107.889 77.4388L105.414 70.5097L102.94 63.5807C101.293 64.1689 99.7804 65.0494 98.4341 65.9997L102.677 72.0107ZM105.414 70.5097L107.889 77.4388C108.167 77.3396 108.522 77.2493 108.976 77.1926L108.063 69.8917L107.15 62.5908C105.72 62.7696 104.31 63.0913 102.94 63.5807L105.414 70.5097ZM108.063 69.8917L108.795 77.2129C109.554 77.137 110.557 77.1063 111.842 77.1557L112.124 69.8034L112.407 62.4511C110.631 62.3828 108.927 62.4109 107.331 62.5705L108.063 69.8917ZM112.124 69.8034V77.1611C113.482 77.1611 114.537 77.2141 115.327 77.2973L116.098 69.98L116.868 62.6627C115.421 62.5104 113.827 62.4457 112.124 62.4457V69.8034Z" fill="#00BED4" mask="url(#path-25-outside-1_2944_12036)"/>
<path d="M104.779 18.2828C106.075 15.7439 109.703 15.7439 110.999 18.2828L115.629 27.355C116.136 28.349 117.088 29.0406 118.19 29.2159L128.249 30.8156C131.064 31.2634 132.185 34.7137 130.171 36.7305L122.973 43.9372C122.184 44.7268 121.821 45.8459 121.995 46.9482L123.582 57.0091C124.026 59.8248 121.091 61.9572 118.55 60.6647L109.472 56.0465C108.477 55.5405 107.301 55.5405 106.306 56.0465L97.228 60.6647C94.6874 61.9572 91.7524 59.8248 92.1965 57.0091L93.7833 46.9482C93.9572 45.8459 93.5936 44.7268 92.805 43.9372L85.6076 36.7305C83.5933 34.7137 84.7143 31.2634 87.5294 30.8156L97.5883 29.2159C98.6904 29.0406 99.6423 28.349 100.15 27.355L104.779 18.2828Z" fill="url(#paint9_radial_2944_12036)"/>
<path d="M106.333 21.5716C106.981 20.3021 108.795 20.3021 109.443 21.5716L114.132 30.7597C114.386 31.2567 114.862 31.6025 115.413 31.6902L125.6 33.3104C127.008 33.5343 127.568 35.2594 126.561 36.2679L119.272 43.5667C118.877 43.9615 118.695 44.521 118.782 45.0722L120.39 55.2617C120.612 56.6695 119.144 57.7357 117.874 57.0895L108.68 52.4123C108.182 52.1593 107.594 52.1593 107.097 52.4123L97.9025 57.0895C96.6322 57.7357 95.1647 56.6695 95.3868 55.2617L96.994 45.0722C97.0809 44.521 96.8991 43.9615 96.5048 43.5667L89.2153 36.2679C88.2082 35.2594 88.7687 33.5343 90.1763 33.3104L100.364 31.6902C100.915 31.6025 101.391 31.2567 101.644 30.7597L106.333 21.5716Z" fill="url(#paint10_radial_2944_12036)"/>
<path d="M111.64 32.5574C111.298 30.3564 113.528 30.198 114.685 30.3939C115.843 30.5898 118.996 31.3021 122.351 32.5843C126.545 34.187 125.383 35.7763 124.368 36.4974C122.932 37.5173 120.748 36.7778 118.144 36.3371C115.54 35.8963 112.067 35.3086 111.64 32.5574Z" fill="url(#paint11_radial_2944_12036)"/>
<path d="M124.232 33.8109C124.302 31.6797 125.26 31.3061 125.731 31.3857C126.201 31.4653 127.465 31.8579 128.759 32.7912C130.376 33.9579 129.73 35.6344 129.23 36.4427C128.523 37.586 127.672 37.072 126.613 36.8928C125.555 36.7137 124.144 36.4748 124.232 33.8109Z" fill="url(#paint12_radial_2944_12036)" fill-opacity="0.56"/>
<path d="M94.9878 31.9748C94.3015 30.6222 95.5619 30.0269 96.2778 29.8983C96.9938 29.7698 98.9841 29.5354 101.218 29.6264C104.01 29.7401 103.686 31.028 103.256 31.7201C102.648 32.699 101.215 32.7015 99.6045 32.9908C97.9936 33.28 95.8457 33.6656 94.9878 31.9748Z" fill="url(#paint13_radial_2944_12036)" fill-opacity="0.5"/>
<path d="M100.659 56.1969C99.5377 55.1752 100.505 54.1719 101.129 53.798C101.753 53.4241 103.532 52.4997 105.652 51.7934C108.303 50.9104 108.458 52.2292 108.301 53.0289C108.079 54.1597 106.74 54.6698 105.336 55.511C103.932 56.3523 102.06 57.474 100.659 56.1969Z" fill="url(#paint14_radial_2944_12036)" fill-opacity="0.5"/>
<path d="M117.498 44.6655C119.367 43.4546 120.422 45.4249 120.716 46.5614C121.01 47.698 121.648 50.8675 121.848 54.4534C122.097 58.9359 120.172 58.5243 119.099 57.8923C117.582 56.9986 117.365 54.7032 116.704 52.146C116.043 49.5888 115.161 46.1792 117.498 44.6655Z" fill="url(#paint15_radial_2944_12036)"/>
<path d="M109.75 23.5735C111.364 22.038 112.765 23.7795 113.264 24.8421C113.763 25.9048 114.975 28.9019 115.834 32.3892C116.908 36.7483 114.939 36.6996 113.768 36.2767C112.112 35.6787 111.475 33.4628 110.352 31.0719C109.23 28.6809 107.734 25.4929 109.75 23.5735Z" fill="url(#paint16_radial_2944_12036)"/>
<path d="M69.2155 38.5172C70.5112 35.9782 74.1391 35.9782 75.4348 38.5172L77.6988 42.9536C78.2061 43.9476 79.158 44.6392 80.2601 44.8145L85.179 45.5968C87.9941 46.0445 89.1151 49.4948 87.1008 51.5117L83.5812 55.0358C82.7926 55.8254 82.429 56.9444 82.6029 58.0468L83.3789 62.9667C83.823 65.7823 80.888 67.9147 78.3474 66.6223L73.9081 64.3639C72.9134 63.8579 71.7368 63.8579 70.7422 64.3639L66.3029 66.6223C63.7623 67.9147 60.8273 65.7823 61.2714 62.9667L62.0474 58.0468C62.2212 56.9444 61.8576 55.8254 61.069 55.0358L57.5494 51.5117C55.5351 49.4948 56.6562 46.0445 59.4713 45.5968L64.3902 44.8145C65.4923 44.6392 66.4442 43.9476 66.9515 42.9536L69.2155 38.5172Z" fill="url(#paint17_radial_2944_12036)"/>
<path d="M70.7733 40.054C71.4211 38.7845 73.235 38.7845 73.8829 40.054L76.7319 45.6365C76.9855 46.1336 77.4614 46.4794 78.0125 46.567L84.2022 47.5514C85.6097 47.7753 86.1703 49.5004 85.1631 50.5089L80.7342 54.9435C80.3399 55.3383 80.1581 55.8978 80.245 56.449L81.2215 62.6399C81.4436 64.0478 79.9761 65.114 78.7057 64.4677L73.1196 61.6259C72.6222 61.3729 72.0339 61.3729 71.5366 61.6259L65.9504 64.4677C64.6801 65.114 63.2126 64.0478 63.4346 62.6399L64.4111 56.449C64.4981 55.8978 64.3163 55.3383 63.922 54.9435L59.493 50.5089C58.4859 49.5004 59.0464 47.7753 60.454 47.5514L66.6436 46.567C67.1947 46.4794 67.6707 46.1336 67.9243 45.6365L70.7733 40.054Z" fill="url(#paint18_radial_2944_12036)"/>
<path d="M75.0381 47.1539C74.7909 45.5622 76.4032 45.4476 77.2403 45.5893C78.0773 45.7309 80.358 46.2461 82.7842 47.1734C85.8169 48.3324 84.9766 49.4818 84.2426 50.0033C83.2045 50.7409 81.6251 50.2061 79.7417 49.8873C77.8583 49.5686 75.3471 49.1435 75.0381 47.1539Z" fill="url(#paint19_radial_2944_12036)"/>
<path d="M84.1449 48.0601C84.1958 46.5188 84.8889 46.2486 85.2291 46.3062C85.5693 46.3638 86.4836 46.6477 87.4192 47.3227C88.5887 48.1664 88.1211 49.3788 87.7597 49.9634C87.2486 50.7902 86.6328 50.4185 85.8674 50.2889C85.1019 50.1594 84.0813 49.9866 84.1449 48.0601Z" fill="url(#paint20_radial_2944_12036)" fill-opacity="0.56"/>
<path d="M62.9959 46.7313C62.4995 45.7531 63.411 45.3226 63.9288 45.2296C64.4466 45.1367 65.886 44.9672 67.5013 45.033C69.5203 45.1152 69.2867 46.0466 68.9757 46.5472C68.5359 47.2551 67.4997 47.2569 66.3347 47.4661C65.1696 47.6752 63.6163 47.9541 62.9959 46.7313Z" fill="url(#paint21_radial_2944_12036)" fill-opacity="0.5"/>
<path d="M67.098 64.2466C66.2872 63.5077 66.9871 62.7822 67.4383 62.5118C67.8896 62.2414 69.1755 61.5728 70.7093 61.062C72.6265 60.4235 72.738 61.3772 72.6246 61.9555C72.4642 62.7733 71.4958 63.1422 70.4805 63.7506C69.4652 64.359 68.1114 65.1702 67.098 64.2466Z" fill="url(#paint22_radial_2944_12036)" fill-opacity="0.5"/>
<path d="M79.2752 55.911C80.6271 55.0352 81.3902 56.4601 81.6027 57.2821C81.8153 58.104 82.2765 60.3962 82.421 62.9895C82.6016 66.2312 81.2092 65.9335 80.4334 65.4765C79.3362 64.8302 79.1793 63.1701 78.7011 61.3208C78.2229 59.4714 77.5852 57.0056 79.2752 55.911Z" fill="url(#paint23_radial_2944_12036)"/>
<path d="M73.6715 40.6532C74.8384 39.5427 75.8516 40.8021 76.2124 41.5707C76.5731 42.3392 77.4499 44.5067 78.0711 47.0286C78.8475 50.1811 77.4242 50.1459 76.5772 49.84C75.3795 49.4076 74.9186 47.8051 74.1069 46.0759C73.2952 44.3468 72.2129 42.0413 73.6715 40.6532Z" fill="url(#paint24_radial_2944_12036)"/>
<path d="M140.955 38.5172C142.25 35.9782 145.878 35.9782 147.174 38.5172L149.438 42.9536C149.945 43.9476 150.897 44.6392 151.999 44.8145L156.918 45.5968C159.733 46.0445 160.854 49.4948 158.84 51.5117L155.32 55.0358C154.532 55.8254 154.168 56.9444 154.342 58.0468L155.118 62.9667C155.562 65.7823 152.627 67.9147 150.087 66.6223L145.647 64.3639C144.653 63.8579 143.476 63.8579 142.481 64.3639L138.042 66.6223C135.502 67.9147 132.567 65.7823 133.011 62.9667L133.787 58.0468C133.96 56.9444 133.597 55.8254 132.808 55.0358L129.289 51.5117C127.274 49.4948 128.395 46.0445 131.211 45.5968L136.129 44.8145C137.232 44.6392 138.183 43.9476 138.691 42.9536L140.955 38.5172Z" fill="url(#paint25_radial_2944_12036)"/>
<path d="M142.511 40.054C143.158 38.7845 144.972 38.7845 145.62 40.054L148.469 45.6365C148.723 46.1336 149.199 46.4794 149.75 46.567L155.94 47.5514C157.347 47.7753 157.908 49.5004 156.9 50.5089L152.471 54.9435C152.077 55.3383 151.895 55.8978 151.982 56.449L152.959 62.6399C153.181 64.0478 151.713 65.114 150.443 64.4677L144.857 61.6259C144.36 61.3729 143.771 61.3729 143.274 61.6259L137.688 64.4677C136.417 65.114 134.95 64.0478 135.172 62.6399L136.148 56.449C136.235 55.8978 136.054 55.3383 135.659 54.9435L131.23 50.5089C130.223 49.5004 130.784 47.7753 132.191 47.5514L138.381 46.567C138.932 46.4794 139.408 46.1336 139.662 45.6365L142.511 40.054Z" fill="url(#paint26_radial_2944_12036)"/>
<path d="M146.777 47.1539C146.53 45.5622 148.142 45.4476 148.98 45.5893C149.817 45.7309 152.097 46.2461 154.523 47.1734C157.556 48.3324 156.716 49.4818 155.982 50.0033C154.944 50.7409 153.364 50.2061 151.481 49.8873C149.598 49.5686 147.086 49.1435 146.777 47.1539Z" fill="url(#paint27_radial_2944_12036)"/>
<path d="M155.883 48.0601C155.934 46.5188 156.627 46.2486 156.967 46.3062C157.308 46.3638 158.222 46.6477 159.158 47.3227C160.327 48.1664 159.859 49.3788 159.498 49.9634C158.987 50.7902 158.371 50.4185 157.606 50.2889C156.84 50.1594 155.82 49.9866 155.883 48.0601Z" fill="url(#paint28_radial_2944_12036)" fill-opacity="0.56"/>
<path d="M134.735 46.7313C134.239 45.7531 135.15 45.3226 135.668 45.2296C136.186 45.1367 137.625 44.9672 139.241 45.033C141.26 45.1152 141.026 46.0466 140.715 46.5472C140.275 47.2551 139.239 47.2569 138.074 47.4661C136.909 47.6752 135.356 47.9541 134.735 46.7313Z" fill="url(#paint29_radial_2944_12036)" fill-opacity="0.5"/>
<path d="M138.837 64.2466C138.026 63.5077 138.726 62.7822 139.178 62.5118C139.629 62.2414 140.915 61.5728 142.449 61.062C144.366 60.4235 144.477 61.3772 144.364 61.9555C144.203 62.7733 143.235 63.1422 142.22 63.7506C141.204 64.359 139.851 65.1702 138.837 64.2466Z" fill="url(#paint30_radial_2944_12036)" fill-opacity="0.5"/>
<path d="M151.013 55.911C152.365 55.0352 153.128 56.4601 153.341 57.2821C153.554 58.104 154.015 60.3962 154.159 62.9895C154.34 66.2312 152.948 65.9335 152.172 65.4765C151.074 64.8302 150.918 63.1701 150.439 61.3208C149.961 59.4714 149.324 57.0056 151.013 55.911Z" fill="url(#paint31_radial_2944_12036)"/>
<path d="M145.411 40.6532C146.578 39.5427 147.591 40.8021 147.952 41.5707C148.312 42.3392 149.189 44.5067 149.81 47.0286C150.587 50.1811 149.163 50.1459 148.316 49.84C147.119 49.4076 146.658 47.8051 145.846 46.0759C145.034 44.3468 143.952 42.0413 145.411 40.6532Z" fill="url(#paint32_radial_2944_12036)"/>
<path d="M12.3613 120.944C27.1348 122.413 37.9206 135.58 36.4521 150.353C21.6786 148.885 10.8928 135.718 12.3613 120.944Z" fill="#00E5FF"/>
<path d="M44.2715 130.155C54.1448 137.746 55.9953 151.903 48.4048 161.776C38.5315 154.186 36.681 140.029 44.2715 130.155Z" fill="#00E5FF"/>
<path d="M16.4346 155.129C27.0731 148.654 40.9459 152.03 47.4204 162.669C36.7818 169.143 22.909 165.767 16.4346 155.129Z" fill="#00BED4"/>
<path d="M59.252 146.481C70.5047 151.817 75.3013 165.265 69.9654 176.518C58.7126 171.182 53.916 157.734 59.252 146.481Z" fill="#00E5FF"/>
<path d="M35.1748 148.304C40.4271 156.002 56.5689 172.378 79.1178 176.299" stroke="#00E5FF" stroke-width="1.40178" stroke-linecap="round" stroke-linejoin="round"/>
<path d="M39.3799 182.338C46.2246 171.934 60.2076 169.048 70.6118 175.893C63.7671 186.297 49.7841 189.183 39.3799 182.338Z" fill="#00BED4"/>
<path d="M207.641 121.568C192.867 123.037 182.081 136.204 183.55 150.977C198.323 149.509 209.109 136.342 207.641 121.568Z" fill="#00E5FF"/>
<path d="M175.728 130.779C165.854 138.37 164.004 152.527 171.594 162.4C181.467 154.81 183.318 140.653 175.728 130.779Z" fill="#00E5FF"/>
<path d="M203.568 155.753C192.93 149.278 179.057 152.654 172.583 163.293C183.221 169.767 197.094 166.391 203.568 155.753Z" fill="#00BED4"/>
<path d="M160.757 147.108C149.504 152.444 144.707 165.892 150.043 177.145C161.296 171.809 166.093 158.361 160.757 147.108Z" fill="#00E5FF"/>
<path d="M184.833 148.932C179.581 156.63 163.439 173.006 140.89 176.927" stroke="#00E5FF" stroke-width="1.40178" stroke-linecap="round" stroke-linejoin="round"/>
<path d="M180.626 182.966C173.781 172.562 159.798 169.676 149.394 176.521C156.239 186.925 170.222 189.811 180.626 182.966Z" fill="#00BED4"/>
<path d="M34.3477 182.781L68.9113 175.065L75.0833 201.605L41.1369 208.395L45.4574 193.89L34.3477 182.781Z" fill="#00E5FF"/>
<path d="M181.248 182.781L146.684 175.065L140.512 201.605L174.459 208.395L170.138 193.89L181.248 182.781Z" fill="#00E5FF"/>
<path d="M140.509 201.603L142.361 188.024L159.951 191.271L140.509 201.603Z" fill="#00D7EF"/>
<path d="M165.204 165.496C120.782 154.822 95.6366 155.203 50.4033 165.496L55.9582 191.419C96.5736 184.419 119.342 183.724 159.958 191.419L165.204 165.496Z" fill="#58EEFF"/>
<path d="M75.0836 201.602L73.232 188.641L55.9502 191.418L75.0836 201.602Z" fill="#00D7EF"/>
<defs>
<linearGradient id="paint0_linear_2944_12036" x1="-24.6295" y1="-166.784" x2="131.722" y2="168.912" gradientUnits="userSpaceOnUse">
<stop stop-color="#009DFF"/>
<stop offset="1" stop-color="#00E5FF"/>
</linearGradient>
<radialGradient id="paint1_radial_2944_12036" cx="0" cy="0" r="1" gradientUnits="userSpaceOnUse" gradientTransform="translate(107.81 30.9572) scale(27.5914 16.9994)">
<stop stop-color="white" stop-opacity="0.22"/>
<stop offset="1" stop-color="white" stop-opacity="0"/>
</radialGradient>
<linearGradient id="paint2_linear_2944_12036" x1="112.375" y1="18.0802" x2="372.654" y2="219.497" gradientUnits="userSpaceOnUse">
<stop stop-color="#00E5FF"/>
<stop offset="1" stop-color="#00BCD2"/>
</linearGradient>
<linearGradient id="paint3_linear_2944_12036" x1="104.098" y1="188.227" x2="-37.5383" y2="85.2192" gradientUnits="userSpaceOnUse">
<stop stop-color="#00BCD2"/>
<stop offset="1" stop-color="#00E5FF"/>
</linearGradient>
<linearGradient id="paint4_linear_2944_12036" x1="414.041" y1="-117.119" x2="20.404" y2="144.08" gradientUnits="userSpaceOnUse">
<stop stop-color="white" stop-opacity="0.4"/>
<stop offset="1" stop-color="white" stop-opacity="0"/>
</linearGradient>
<linearGradient id="paint5_linear_2944_12036" x1="98.5796" y1="248.928" x2="215.383" y2="9.80302" gradientUnits="userSpaceOnUse">
<stop stop-color="white" stop-opacity="0.13"/>
<stop offset="1" stop-color="white" stop-opacity="0"/>
</linearGradient>
<radialGradient id="paint6_radial_2944_12036" cx="0" cy="0" r="1" gradientTransform="matrix(-13.7957 21.1534 -10.4798 -7.30906 157.442 136.723)" gradientUnits="userSpaceOnUse">
<stop stop-color="white" stop-opacity="0.1"/>
<stop offset="1" stop-color="white" stop-opacity="0"/>
</radialGradient>
<radialGradient id="paint7_radial_2944_12036" cx="0" cy="0" r="1" gradientTransform="matrix(25.1908 1.79199 -1.30252 12.7103 103.323 14.8952)" gradientUnits="userSpaceOnUse">
<stop stop-color="white" stop-opacity="0.1"/>
<stop offset="1" stop-color="white" stop-opacity="0"/>
</radialGradient>
<radialGradient id="paint8_radial_2944_12036" cx="0" cy="0" r="1" gradientTransform="matrix(13.3137 -21.46 10.6425 7.07014 168.035 69.9702)" gradientUnits="userSpaceOnUse">
<stop stop-color="white" stop-opacity="0.1"/>
<stop offset="1" stop-color="white" stop-opacity="0"/>
</radialGradient>
<radialGradient id="paint9_radial_2944_12036" cx="0" cy="0" r="1" gradientUnits="userSpaceOnUse" gradientTransform="translate(107.889 40.7006) rotate(90) scale(28.5111)">
<stop stop-color="#FFE86C"/>
<stop offset="1" stop-color="#FF9900"/>
</radialGradient>
<radialGradient id="paint10_radial_2944_12036" cx="0" cy="0" r="1" gradientUnits="userSpaceOnUse" gradientTransform="translate(107.888 40.7002) rotate(90) scale(22.1753)">
<stop stop-color="#FFF5BC"/>
<stop offset="0.765" stop-color="#FFA800"/>
</radialGradient>
<radialGradient id="paint11_radial_2944_12036" cx="0" cy="0" r="1" gradientUnits="userSpaceOnUse" gradientTransform="translate(118.433 33.7324) rotate(99.6063) scale(2.66619 7.03148)">
<stop stop-color="white"/>
<stop offset="0.84" stop-color="white" stop-opacity="0"/>
</radialGradient>
<radialGradient id="paint12_radial_2944_12036" cx="0" cy="0" r="1" gradientUnits="userSpaceOnUse" gradientTransform="translate(126.99 34.303) rotate(99.6063) scale(2.66619 2.85773)">
<stop stop-color="white"/>
<stop offset="0.84" stop-color="white" stop-opacity="0"/>
</radialGradient>
<radialGradient id="paint13_radial_2944_12036" cx="0" cy="0" r="1" gradientUnits="userSpaceOnUse" gradientTransform="translate(99.1954 31.2367) rotate(79.8213) scale(1.83292 4.3571)">
<stop stop-color="white"/>
<stop offset="0.84" stop-color="white" stop-opacity="0"/>
</radialGradient>
<radialGradient id="paint14_radial_2944_12036" cx="0" cy="0" r="1" gradientUnits="userSpaceOnUse" gradientTransform="translate(104.332 54.0158) rotate(59.0688) scale(1.83292 4.3571)">
<stop stop-color="white"/>
<stop offset="0.84" stop-color="white" stop-opacity="0"/>
</radialGradient>
<radialGradient id="paint15_radial_2944_12036" cx="0" cy="0" r="1" gradientUnits="userSpaceOnUse" gradientTransform="translate(119.2 51.3461) rotate(165.501) scale(2.66619 7.03148)">
<stop stop-color="white"/>
<stop offset="0.84" stop-color="white" stop-opacity="0"/>
</radialGradient>
<radialGradient id="paint16_radial_2944_12036" cx="0" cy="0" r="1" gradientUnits="userSpaceOnUse" gradientTransform="translate(112.657 29.8247) rotate(154.854) scale(2.66619 7.03148)">
<stop stop-color="white"/>
<stop offset="0.84" stop-color="white" stop-opacity="0"/>
</radialGradient>
<radialGradient id="paint17_radial_2944_12036" cx="0" cy="0" r="1" gradientUnits="userSpaceOnUse" gradientTransform="translate(72.3251 53.0429) rotate(90) scale(20.6191)">
<stop stop-color="#FFE86C"/>
<stop offset="1" stop-color="#FF9900"/>
</radialGradient>
<radialGradient id="paint18_radial_2944_12036" cx="0" cy="0" r="1" gradientUnits="userSpaceOnUse" gradientTransform="translate(72.3281 53.0444) rotate(90) scale(16.0371)">
<stop stop-color="#FFF5BC"/>
<stop offset="0.765" stop-color="#FFA800"/>
</radialGradient>
<radialGradient id="paint19_radial_2944_12036" cx="0" cy="0" r="1" gradientUnits="userSpaceOnUse" gradientTransform="translate(79.9508 48.0036) rotate(99.6063) scale(1.92817 5.08512)">
<stop stop-color="white"/>
<stop offset="0.84" stop-color="white" stop-opacity="0"/>
</radialGradient>
<radialGradient id="paint20_radial_2944_12036" cx="0" cy="0" r="1" gradientUnits="userSpaceOnUse" gradientTransform="translate(86.1398 48.4159) rotate(99.6063) scale(1.92817 2.06669)">
<stop stop-color="white"/>
<stop offset="0.84" stop-color="white" stop-opacity="0"/>
</radialGradient>
<radialGradient id="paint21_radial_2944_12036" cx="0" cy="0" r="1" gradientUnits="userSpaceOnUse" gradientTransform="translate(66.0388 46.1976) rotate(79.8213) scale(1.32556 3.15103)">
<stop stop-color="white"/>
<stop offset="0.84" stop-color="white" stop-opacity="0"/>
</radialGradient>
<radialGradient id="paint22_radial_2944_12036" cx="0" cy="0" r="1" gradientUnits="userSpaceOnUse" gradientTransform="translate(69.7544 62.6692) rotate(59.0688) scale(1.32556 3.15103)">
<stop stop-color="white"/>
<stop offset="0.84" stop-color="white" stop-opacity="0"/>
</radialGradient>
<radialGradient id="paint23_radial_2944_12036" cx="0" cy="0" r="1" gradientUnits="userSpaceOnUse" gradientTransform="translate(80.5059 60.7423) rotate(165.501) scale(1.92817 5.08513)">
<stop stop-color="white"/>
<stop offset="0.84" stop-color="white" stop-opacity="0"/>
</radialGradient>
<radialGradient id="paint24_radial_2944_12036" cx="0" cy="0" r="1" gradientUnits="userSpaceOnUse" gradientTransform="translate(75.7738 45.174) rotate(154.854) scale(1.92817 5.08512)">
<stop stop-color="white"/>
<stop offset="0.84" stop-color="white" stop-opacity="0"/>
</radialGradient>
<radialGradient id="paint25_radial_2944_12036" cx="0" cy="0" r="1" gradientUnits="userSpaceOnUse" gradientTransform="translate(144.064 53.0429) rotate(90) scale(20.6191)">
<stop stop-color="#FFE86C"/>
<stop offset="1" stop-color="#FF9900"/>
</radialGradient>
<radialGradient id="paint26_radial_2944_12036" cx="0" cy="0" r="1" gradientUnits="userSpaceOnUse" gradientTransform="translate(144.065 53.0444) rotate(90) scale(16.0371)">
<stop stop-color="#FFF5BC"/>
<stop offset="0.765" stop-color="#FFA800"/>
</radialGradient>
<radialGradient id="paint27_radial_2944_12036" cx="0" cy="0" r="1" gradientUnits="userSpaceOnUse" gradientTransform="translate(151.69 48.0036) rotate(99.6063) scale(1.92817 5.08512)">
<stop stop-color="white"/>
<stop offset="0.84" stop-color="white" stop-opacity="0"/>
</radialGradient>
<radialGradient id="paint28_radial_2944_12036" cx="0" cy="0" r="1" gradientUnits="userSpaceOnUse" gradientTransform="translate(157.878 48.4159) rotate(99.6063) scale(1.92817 2.06669)">
<stop stop-color="white"/>
<stop offset="0.84" stop-color="white" stop-opacity="0"/>
</radialGradient>
<radialGradient id="paint29_radial_2944_12036" cx="0" cy="0" r="1" gradientUnits="userSpaceOnUse" gradientTransform="translate(137.778 46.1976) rotate(79.8213) scale(1.32556 3.15103)">
<stop stop-color="white"/>
<stop offset="0.84" stop-color="white" stop-opacity="0"/>
</radialGradient>
<radialGradient id="paint30_radial_2944_12036" cx="0" cy="0" r="1" gradientUnits="userSpaceOnUse" gradientTransform="translate(141.494 62.6692) rotate(59.0688) scale(1.32556 3.15103)">
<stop stop-color="white"/>
<stop offset="0.84" stop-color="white" stop-opacity="0"/>
</radialGradient>
<radialGradient id="paint31_radial_2944_12036" cx="0" cy="0" r="1" gradientUnits="userSpaceOnUse" gradientTransform="translate(152.244 60.7423) rotate(165.501) scale(1.92817 5.08513)">
<stop stop-color="white"/>
<stop offset="0.84" stop-color="white" stop-opacity="0"/>
</radialGradient>
<radialGradient id="paint32_radial_2944_12036" cx="0" cy="0" r="1" gradientUnits="userSpaceOnUse" gradientTransform="translate(147.513 45.174) rotate(154.854) scale(1.92817 5.08512)">
<stop stop-color="white"/>
<stop offset="0.84" stop-color="white" stop-opacity="0"/>
</radialGradient>
</defs>
</svg>
