<svg width="220" height="206" viewBox="0 0 220 206" fill="none" xmlns="http://www.w3.org/2000/svg">
<path d="M21 66.2485C33.899 73.5991 38.3968 90.0145 31.0463 102.914C18.1473 95.563 13.6495 79.1475 21 66.2485Z" fill="#00E5FF"/>
<path d="M46.4062 87.6421C52.3386 98.5922 48.2709 112.278 37.3208 118.21C31.3885 107.26 35.4562 93.5744 46.4062 87.6421Z" fill="#00E5FF"/>
<path d="M10.8184 99.1338C23.1706 97.5462 34.471 106.273 36.0586 118.625C23.7064 120.212 12.406 111.486 10.8184 99.1338Z" fill="#00BED4"/>
<path d="M53.4512 108.649C61.5608 118.101 60.473 132.337 51.0214 140.447C42.9118 130.995 43.9997 116.759 53.4512 108.649Z" fill="#00E5FF"/>
<path d="M30.7158 100.524C32.3829 109.693 40.4682 131.219 59.473 143.972" stroke="#00E5FF" stroke-width="1.40178" stroke-linecap="round" stroke-linejoin="round"/>
<path d="M20.7158 133.324C31.2005 126.603 45.1483 129.654 51.869 140.139C41.3843 146.86 27.4365 143.808 20.7158 133.324Z" fill="#00BED4"/>
<path d="M191.729 66.2485C178.83 73.5991 174.332 90.0145 181.682 102.914C194.581 95.563 199.079 79.1475 191.729 66.2485Z" fill="#00E5FF"/>
<path d="M166.324 87.6421C160.392 98.5922 164.46 112.278 175.41 118.21C181.342 107.26 177.274 93.5744 166.324 87.6421Z" fill="#00E5FF"/>
<path d="M201.914 99.1338C189.562 97.5462 178.261 106.273 176.674 118.625C189.026 120.212 200.326 111.486 201.914 99.1338Z" fill="#00BED4"/>
<path d="M159.287 108.649C151.177 118.101 152.265 132.337 161.717 140.447C169.826 130.995 168.739 116.759 159.287 108.649Z" fill="#00E5FF"/>
<path d="M182.024 100.524C180.357 109.693 172.272 131.219 153.267 143.972" stroke="#00E5FF" stroke-width="1.40178" stroke-linecap="round" stroke-linejoin="round"/>
<path d="M192.026 133.326C181.542 126.605 167.594 129.657 160.873 140.141C171.358 146.862 185.306 143.811 192.026 133.326Z" fill="#00BED4"/>
<path d="M107.909 7.38623L173.221 55.2113V150.862L107.909 198.687L42.5961 150.862V55.2113L107.909 7.38623Z" fill="#00E5FF"/>
<path d="M107.909 23.9414L162.07 63.4891V142.584L107.909 182.132L53.747 142.584V63.4891L107.909 23.9414Z" fill="url(#paint0_linear_3576_7711)"/>
<path d="M107.942 23.9421L129.095 39.577C108.238 59.3341 89.6691 49.3761 82.1897 42.3363L107.942 23.9421Z" fill="url(#paint1_radial_3576_7711)"/>
<path d="M53.6459 63.4893L42.6094 55.2119V150.862L53.6459 142.585V63.4893Z" fill="#74F1FF"/>
<path d="M162.17 63.4893L173.207 55.2119V150.862L162.17 142.585V63.4893Z" fill="#00E5FF"/>
<path d="M107.908 23.9411V7.38623L173.208 55.2113L162.171 63.4887L107.908 23.9411Z" fill="url(#paint2_linear_3576_7711)"/>
<path d="M107.908 182.132V198.687L42.6086 150.861L53.6451 142.584L107.908 182.132Z" fill="url(#paint3_linear_3576_7711)"/>
<path d="M141.938 48.772L53.6455 114.072V142.583L162.172 63.4874L141.938 48.772Z" fill="url(#paint4_linear_3576_7711)"/>
<path d="M73.8792 157.3L66.5215 151.781L162.172 79.124V88.3212L73.8792 157.3Z" fill="url(#paint5_linear_3576_7711)"/>
<path d="M162.172 142.584L141.939 157.3C134.791 129.474 152.386 115.355 162.172 112.234L162.172 142.584Z" fill="url(#paint6_radial_3576_7711)"/>
<path d="M106.851 7.1727L129.539 17.7182C108.682 37.4753 87.7964 28.9464 80.3169 21.9066L106.851 7.1727Z" fill="url(#paint7_radial_3576_7711)"/>
<path d="M162.172 63.4903L183.32 47.8927C191.095 75.5494 171.885 88.6586 162.172 92.0006L162.172 63.4903Z" fill="url(#paint8_radial_3576_7711)"/>
<mask id="path-25-outside-1_3576_7711" maskUnits="userSpaceOnUse" x="75.2676" y="61.7666" width="66" height="81" fill="black">
<rect fill="white" x="75.2676" y="61.7666" width="66" height="81"/>
<path d="M131.506 130.325C130.623 131.326 129.505 131.944 128.151 132.179C122.618 133.003 116.732 133.621 110.492 134.033C104.253 134.504 97.9549 134.799 91.5978 134.916C90.656 134.916 89.8614 134.769 89.2139 134.475C88.5664 134.181 88.0367 133.769 87.6246 133.239C87.2126 132.768 86.8889 132.179 86.6534 131.473C86.418 130.825 86.2708 130.149 86.212 129.442C86.0354 128.088 86.2414 126.882 86.83 125.822C87.4186 124.763 88.125 123.791 88.949 122.909C89.1256 122.673 89.6848 122.143 90.6266 121.319C91.5684 120.436 92.6573 119.406 93.8934 118.229C95.1884 116.993 96.5716 115.698 98.0431 114.344C99.5736 112.932 101.016 111.607 102.369 110.371C103.723 109.076 104.901 107.958 105.901 107.016C106.961 106.015 107.696 105.338 108.108 104.985C110.993 102.219 113.347 99.7171 115.172 97.4803C116.997 95.2436 117.997 93.1246 118.174 91.1233C118.468 88.3568 117.762 86.1495 116.055 84.5013C114.348 82.7944 111.611 82.0292 107.844 82.2057C106.725 82.2646 105.607 82.5 104.488 82.9121C103.429 83.3241 102.428 83.9127 101.487 84.6779C100.545 85.3843 99.6913 86.2378 98.9261 87.2384C98.2197 88.1802 97.69 89.2103 97.3368 90.3286C97.0425 91.3293 96.5422 92.1534 95.8358 92.8008C95.1295 93.3895 94.3349 93.8603 93.4519 94.2135C92.569 94.5078 91.6272 94.6844 90.6266 94.7433C89.6259 94.7433 88.6547 94.6255 87.7129 94.3901C86.1825 93.9192 84.9464 93.154 84.0046 92.0945C83.0629 91.035 82.6214 89.7989 82.6803 88.3862C82.798 86.0906 83.5338 83.8539 84.8876 81.676C86.2414 79.4981 88.0367 77.5557 90.2734 75.8487C92.569 74.0828 95.2178 72.6407 98.2197 71.5224C101.281 70.3451 104.547 69.6093 108.02 69.315C111.375 69.0207 114.583 69.2856 117.644 70.1097C120.764 70.8749 123.501 72.111 125.855 73.818C128.21 75.4661 130.064 77.4968 131.418 79.9101C132.83 82.3235 133.537 84.9722 133.537 87.8565C133.537 91.3882 132.801 94.6844 131.329 97.7452C129.858 100.806 127.445 103.955 124.089 107.193C122.677 108.546 121.205 109.93 119.675 111.342C118.144 112.755 116.585 114.138 114.995 115.492C113.465 116.846 111.964 118.141 110.492 119.377C109.08 120.554 107.785 121.584 106.608 122.467C110.61 122.114 114.436 121.82 118.086 121.584C121.735 121.349 125.149 121.172 128.327 121.054C129.622 120.996 130.653 121.378 131.418 122.202C132.242 123.026 132.683 124.233 132.742 125.822C132.801 127.824 132.389 129.324 131.506 130.325Z"/>
</mask>
<path d="M131.506 130.325C130.623 131.326 129.505 131.944 128.151 132.179C122.618 133.003 116.732 133.621 110.492 134.033C104.253 134.504 97.9549 134.799 91.5978 134.916C90.656 134.916 89.8614 134.769 89.2139 134.475C88.5664 134.181 88.0367 133.769 87.6246 133.239C87.2126 132.768 86.8889 132.179 86.6534 131.473C86.418 130.825 86.2708 130.149 86.212 129.442C86.0354 128.088 86.2414 126.882 86.83 125.822C87.4186 124.763 88.125 123.791 88.949 122.909C89.1256 122.673 89.6848 122.143 90.6266 121.319C91.5684 120.436 92.6573 119.406 93.8934 118.229C95.1884 116.993 96.5716 115.698 98.0431 114.344C99.5736 112.932 101.016 111.607 102.369 110.371C103.723 109.076 104.901 107.958 105.901 107.016C106.961 106.015 107.696 105.338 108.108 104.985C110.993 102.219 113.347 99.7171 115.172 97.4803C116.997 95.2436 117.997 93.1246 118.174 91.1233C118.468 88.3568 117.762 86.1495 116.055 84.5013C114.348 82.7944 111.611 82.0292 107.844 82.2057C106.725 82.2646 105.607 82.5 104.488 82.9121C103.429 83.3241 102.428 83.9127 101.487 84.6779C100.545 85.3843 99.6913 86.2378 98.9261 87.2384C98.2197 88.1802 97.69 89.2103 97.3368 90.3286C97.0425 91.3293 96.5422 92.1534 95.8358 92.8008C95.1295 93.3895 94.3349 93.8603 93.4519 94.2135C92.569 94.5078 91.6272 94.6844 90.6266 94.7433C89.6259 94.7433 88.6547 94.6255 87.7129 94.3901C86.1825 93.9192 84.9464 93.154 84.0046 92.0945C83.0629 91.035 82.6214 89.7989 82.6803 88.3862C82.798 86.0906 83.5338 83.8539 84.8876 81.676C86.2414 79.4981 88.0367 77.5557 90.2734 75.8487C92.569 74.0828 95.2178 72.6407 98.2197 71.5224C101.281 70.3451 104.547 69.6093 108.02 69.315C111.375 69.0207 114.583 69.2856 117.644 70.1097C120.764 70.8749 123.501 72.111 125.855 73.818C128.21 75.4661 130.064 77.4968 131.418 79.9101C132.83 82.3235 133.537 84.9722 133.537 87.8565C133.537 91.3882 132.801 94.6844 131.329 97.7452C129.858 100.806 127.445 103.955 124.089 107.193C122.677 108.546 121.205 109.93 119.675 111.342C118.144 112.755 116.585 114.138 114.995 115.492C113.465 116.846 111.964 118.141 110.492 119.377C109.08 120.554 107.785 121.584 106.608 122.467C110.61 122.114 114.436 121.82 118.086 121.584C121.735 121.349 125.149 121.172 128.327 121.054C129.622 120.996 130.653 121.378 131.418 122.202C132.242 123.026 132.683 124.233 132.742 125.822C132.801 127.824 132.389 129.324 131.506 130.325Z" fill="white"/>
<path d="M131.506 130.325L125.989 125.457L125.989 125.457L131.506 130.325ZM128.151 132.179L129.235 139.457L129.323 139.444L129.412 139.428L128.151 132.179ZM110.492 134.033L110.008 126.692L109.973 126.694L109.939 126.697L110.492 134.033ZM91.5978 134.916V142.274H91.6659L91.734 142.273L91.5978 134.916ZM89.2139 134.475L86.1693 141.173H86.1693L89.2139 134.475ZM87.6246 133.239L93.4325 128.722L93.3019 128.554L93.1619 128.394L87.6246 133.239ZM86.6534 131.473L93.6336 129.146L93.6021 129.052L93.5681 128.958L86.6534 131.473ZM86.212 129.442L93.5442 128.831L93.53 128.66L93.5079 128.491L86.212 129.442ZM86.83 125.822L80.3982 122.249H80.3982L86.83 125.822ZM88.949 122.909L94.3279 127.929L94.5978 127.64L94.8352 127.323L88.949 122.909ZM90.6266 121.319L95.4717 126.857L95.5667 126.773L95.6588 126.687L90.6266 121.319ZM93.8934 118.229L98.9677 123.557L98.9737 123.551L93.8934 118.229ZM98.0431 114.344L103.025 119.759L103.034 119.751L98.0431 114.344ZM102.369 110.371L107.331 115.805L107.394 115.747L107.455 115.688L102.369 110.371ZM105.901 107.016L110.944 112.374L110.953 112.365L105.901 107.016ZM108.108 104.985L112.897 110.572L113.053 110.438L113.202 110.295L108.108 104.985ZM115.172 97.4803L109.471 92.8293L115.172 97.4803ZM118.174 91.1233L110.857 90.3449L110.85 90.4107L110.845 90.4766L118.174 91.1233ZM116.055 84.5013L110.852 89.704L110.898 89.7497L110.944 89.7945L116.055 84.5013ZM107.844 82.2057L107.499 74.8561L107.478 74.8571L107.457 74.8582L107.844 82.2057ZM104.488 82.9121L101.945 76.008L101.883 76.0308L101.822 76.0547L104.488 82.9121ZM101.487 84.6779L105.901 90.5641L106.015 90.4784L106.126 90.3883L101.487 84.6779ZM98.9261 87.2384L93.0814 82.769L93.0605 82.7963L93.0399 82.8238L98.9261 87.2384ZM97.3368 90.3286L90.3206 88.113L90.2987 88.1826L90.2781 88.2525L97.3368 90.3286ZM95.8358 92.8008L100.546 98.4532L100.68 98.342L100.808 98.2246L95.8358 92.8008ZM93.4519 94.2135L95.7787 101.194L95.9838 101.125L96.1845 101.045L93.4519 94.2135ZM90.6266 94.7433V102.101H90.8428L91.0586 102.088L90.6266 94.7433ZM87.7129 94.3901L85.5491 101.422L85.7374 101.48L85.9284 101.528L87.7129 94.3901ZM82.6803 88.3862L75.3322 88.0094L75.3304 88.0446L75.3289 88.0799L82.6803 88.3862ZM84.8876 81.676L78.6388 77.7916L78.6388 77.7916L84.8876 81.676ZM90.2734 75.8487L94.7371 81.6977L94.7483 81.6892L94.7595 81.6806L90.2734 75.8487ZM98.2197 71.5224L100.788 78.4171L100.825 78.4036L100.861 78.3896L98.2197 71.5224ZM108.02 69.315L108.642 76.6465L108.652 76.6455L108.663 76.6446L108.02 69.315ZM117.644 70.1097L115.731 77.2144L115.811 77.2359L115.891 77.2556L117.644 70.1097ZM125.855 73.818L121.537 79.7748L121.586 79.8106L121.636 79.8456L125.855 73.818ZM131.418 79.9101L125.001 83.5099L125.034 83.5688L125.068 83.6271L131.418 79.9101ZM131.329 97.7452L137.961 100.933V100.933L131.329 97.7452ZM124.089 107.193L129.18 112.505L129.189 112.496L129.198 112.487L124.089 107.193ZM119.675 111.342L124.665 116.749L124.665 116.749L119.675 111.342ZM114.995 115.492L110.224 109.891L110.172 109.936L110.12 109.981L114.995 115.492ZM110.492 119.377L115.203 125.029L115.214 125.02L115.225 125.011L110.492 119.377ZM106.608 122.467L102.193 116.581L81.5481 132.065L107.254 129.796L106.608 122.467ZM128.327 121.054L128.6 128.407L128.631 128.406L128.662 128.405L128.327 121.054ZM131.418 122.202L126.026 127.209L126.119 127.309L126.215 127.405L131.418 122.202ZM132.742 125.822L140.097 125.606L140.096 125.578L140.095 125.55L132.742 125.822ZM131.506 130.325L125.989 125.457C126.08 125.354 126.235 125.216 126.446 125.099C126.655 124.984 126.822 124.942 126.89 124.93L128.151 132.179L129.412 139.428C132.361 138.915 134.998 137.488 137.023 135.193L131.506 130.325ZM128.151 132.179L127.067 124.902C121.754 125.693 116.069 126.291 110.008 126.692L110.492 134.033L110.977 141.375C117.394 140.951 123.482 140.314 129.235 139.457L128.151 132.179ZM110.492 134.033L109.939 126.697C103.84 127.157 97.6815 127.445 91.4616 127.56L91.5978 134.916L91.734 142.273C98.2282 142.153 104.666 141.852 111.046 141.37L110.492 134.033ZM91.5978 134.916V127.559C91.5046 127.559 91.5253 127.551 91.6352 127.571C91.7476 127.592 91.9699 127.645 92.2585 127.777L89.2139 134.475L86.1693 141.173C88.0296 142.019 89.93 142.274 91.5978 142.274V134.916ZM89.2139 134.475L92.2585 127.777C92.6283 127.945 93.0698 128.255 93.4325 128.722L87.6246 133.239L81.8168 137.756C83.0036 139.282 84.5045 140.416 86.1693 141.173L89.2139 134.475ZM87.6246 133.239L93.1619 128.394C93.5032 128.784 93.6176 129.098 93.6336 129.146L86.6534 131.473L79.6733 133.8C80.1601 135.26 80.922 136.752 82.0874 138.084L87.6246 133.239ZM86.6534 131.473L93.5681 128.958C93.562 128.942 93.5505 128.906 93.5442 128.831L86.212 129.442L78.8797 130.053C78.9911 131.391 79.2739 132.709 79.7387 133.987L86.6534 131.473ZM86.212 129.442L93.5079 128.491C93.5037 128.459 93.5207 128.562 93.4868 128.76C93.4514 128.968 93.3751 129.191 93.2618 129.395L86.83 125.822L80.3982 122.249C78.9493 124.857 78.5627 127.685 78.9161 130.394L86.212 129.442ZM86.83 125.822L93.2618 129.395C93.5607 128.857 93.9139 128.373 94.3279 127.929L88.949 122.909L83.5701 117.888C82.3361 119.21 81.2766 120.668 80.3982 122.249L86.83 125.822ZM88.949 122.909L94.8352 127.323C94.7061 127.495 94.6016 127.616 94.5541 127.67C94.5007 127.731 94.4651 127.768 94.4569 127.776C94.4431 127.791 94.4709 127.761 94.5611 127.676C94.7407 127.506 95.0349 127.239 95.4717 126.857L90.6266 121.319L85.7815 115.782C85.2765 116.224 84.8202 116.634 84.4406 116.993C84.1909 117.23 83.5734 117.813 83.0629 118.494L88.949 122.909ZM90.6266 121.319L95.6588 126.687C96.6183 125.788 97.7218 124.744 98.9677 123.557L93.8934 118.229L88.8191 112.901C87.5928 114.069 86.5184 115.085 85.5943 115.952L90.6266 121.319ZM93.8934 118.229L98.9737 123.551C100.233 122.35 101.583 121.086 103.025 119.759L98.0431 114.344L93.0616 108.929C91.5606 110.31 90.1442 111.636 88.8131 112.907L93.8934 118.229ZM98.0431 114.344L103.034 119.751C104.556 118.346 105.988 117.031 107.331 115.805L102.369 110.371L97.4084 104.937C96.0435 106.184 94.5915 107.517 93.0526 108.938L98.0431 114.344ZM102.369 110.371L107.455 115.688C108.8 114.402 109.962 113.298 110.944 112.374L105.901 107.016L100.858 101.658C99.8393 102.617 98.6471 103.75 97.2837 105.054L102.369 110.371ZM105.901 107.016L110.953 112.365C112.023 111.354 112.638 110.793 112.897 110.572L108.108 104.985L103.32 99.3988C102.755 99.8832 101.898 100.676 100.849 101.667L105.901 107.016ZM108.108 104.985L113.202 110.295C116.226 107.394 118.803 104.669 120.873 102.131L115.172 97.4803L109.471 92.8293C107.891 94.7654 105.759 97.0435 103.015 99.6753L108.108 104.985ZM115.172 97.4803L120.873 102.131C123.24 99.2295 125.152 95.7509 125.503 91.77L118.174 91.1233L110.845 90.4766C110.843 90.4983 110.753 91.2577 109.471 92.8293L115.172 97.4803ZM118.174 91.1233L125.49 91.9016C125.978 87.3171 124.797 82.7143 121.165 79.2082L116.055 84.5013L110.944 89.7945C110.959 89.8089 110.94 89.7929 110.911 89.7461C110.881 89.6987 110.864 89.6561 110.857 89.6354C110.842 89.5895 110.918 89.7789 110.857 90.3449L118.174 91.1233ZM116.055 84.5013L121.257 79.2987C117.434 75.4753 112.188 74.6363 107.499 74.8561L107.844 82.2057L108.188 89.5554C109.528 89.4926 110.33 89.6183 110.741 89.7332C111.108 89.836 111.04 89.8915 110.852 89.704L116.055 84.5013ZM107.844 82.2057L107.457 74.8582C105.555 74.9583 103.711 75.3572 101.945 76.008L104.488 82.9121L107.032 89.8161C107.502 89.6429 107.895 89.5709 108.23 89.5533L107.844 82.2057ZM104.488 82.9121L101.822 76.0547C100.002 76.7622 98.3425 77.7523 96.8468 78.9675L101.487 84.6779L106.126 90.3883C106.514 90.0732 106.856 89.886 107.155 89.7695L104.488 82.9121ZM101.487 84.6779L97.0719 78.7918C95.5544 79.9299 94.2276 81.2702 93.0814 82.769L98.9261 87.2384L104.771 91.7078C105.155 91.2053 105.535 90.8386 105.901 90.5641L101.487 84.6779ZM98.9261 87.2384L93.0399 82.8238C91.8375 84.427 90.9247 86.2001 90.3206 88.113L97.3368 90.3286L104.353 92.5443C104.455 92.2204 104.602 91.9334 104.812 91.653L98.9261 87.2384ZM97.3368 90.3286L90.2781 88.2525C90.2962 88.1909 90.345 88.0542 90.4516 87.8787C90.5602 87.6997 90.7012 87.5264 90.8641 87.3771L95.8358 92.8008L100.808 98.2246C102.588 96.5926 103.758 94.5728 104.396 92.4047L97.3368 90.3286ZM95.8358 92.8008L91.1255 87.1485C91.0327 87.2259 90.9101 87.3058 90.7194 87.3821L93.4519 94.2135L96.1845 101.045C97.7597 100.415 99.2263 99.553 100.546 98.4532L95.8358 92.8008ZM93.4519 94.2135L91.1252 87.2334C90.9003 87.3084 90.5997 87.3744 90.1945 87.3983L90.6266 94.7433L91.0586 102.088C92.6548 101.994 94.2377 101.707 95.7787 101.194L93.4519 94.2135ZM90.6266 94.7433V87.3856C90.2089 87.3856 89.8379 87.3372 89.4974 87.2521L87.7129 94.3901L85.9284 101.528C87.4716 101.914 89.0429 102.101 90.6266 102.101V94.7433ZM87.7129 94.3901L89.8767 87.3578C89.6519 87.2886 89.5438 87.2274 89.5108 87.207C89.4826 87.1896 89.4896 87.1903 89.5039 87.2063L84.0046 92.0945L78.5054 96.9827C80.4535 99.1743 82.9024 100.608 85.5491 101.422L87.7129 94.3901ZM84.0046 92.0945L89.5039 87.2063C89.6094 87.325 89.775 87.5585 89.8963 87.8981C90.0177 88.2382 90.0385 88.527 90.0316 88.6925L82.6803 88.3862L75.3289 88.0799C75.1904 91.4043 76.2999 94.5014 78.5054 96.9827L84.0046 92.0945ZM82.6803 88.3862L90.0283 88.763C90.0752 87.8495 90.3624 86.8055 91.1364 85.5604L84.8876 81.676L78.6388 77.7916C76.7051 80.9022 75.5208 84.3317 75.3322 88.0094L82.6803 88.3862ZM84.8876 81.676L91.1364 85.5604C91.9755 84.2105 93.1406 82.9161 94.7371 81.6977L90.2734 75.8487L85.8097 69.9997C82.9327 72.1953 80.5073 74.7857 78.6388 77.7916L84.8876 81.676ZM90.2734 75.8487L94.7595 81.6806C96.4144 80.4075 98.4027 79.3059 100.788 78.4171L98.2197 71.5224L95.6511 64.6276C92.0329 65.9755 88.7236 67.7581 85.7873 70.0168L90.2734 75.8487ZM98.2197 71.5224L100.861 78.3896C103.234 77.4768 105.817 76.8858 108.642 76.6465L108.02 69.315L107.399 61.9836C103.278 62.3329 99.3268 63.2134 95.5785 64.6551L98.2197 71.5224ZM108.02 69.315L108.663 76.6446C111.214 76.4209 113.553 76.6281 115.731 77.2144L117.644 70.1097L119.557 63.005C115.613 61.9432 111.537 61.6206 107.377 61.9855L108.02 69.315ZM117.644 70.1097L115.891 77.2556C118.184 77.8178 120.029 78.682 121.537 79.7748L125.855 73.818L130.174 67.8611C126.972 65.5399 123.344 63.9319 119.397 62.9638L117.644 70.1097ZM125.855 73.818L121.636 79.8456C123.121 80.885 124.209 82.0983 125.001 83.5099L131.418 79.9101L137.835 76.3104C135.919 72.8953 133.299 70.0472 130.075 67.7903L125.855 73.818ZM131.418 79.9101L125.068 83.6271C125.799 84.8764 126.179 86.2358 126.179 87.8565H133.537H140.894C140.894 83.7087 139.862 79.7705 137.768 76.1932L131.418 79.9101ZM133.537 87.8565H126.179C126.179 90.3297 125.672 92.5311 124.698 94.5572L131.329 97.7452L137.961 100.933C139.93 96.8377 140.894 92.4466 140.894 87.8565H133.537ZM131.329 97.7452L124.698 94.5572C123.717 96.5977 121.925 99.0563 118.98 101.898L124.089 107.193L129.198 112.487C132.964 108.854 135.999 105.014 137.961 100.933L131.329 97.7452ZM124.089 107.193L118.999 101.88C117.621 103.2 116.183 104.552 114.684 105.936L119.675 111.342L124.665 116.749C126.227 115.307 127.732 113.892 129.18 112.505L124.089 107.193ZM119.675 111.342L114.684 105.936C113.226 107.282 111.739 108.6 110.224 109.891L114.995 115.492L119.767 121.093C121.43 119.676 123.063 118.228 124.665 116.749L119.675 111.342ZM114.995 115.492L110.12 109.981C108.634 111.296 107.181 112.55 105.76 113.743L110.492 119.377L115.225 125.011C116.747 123.732 118.296 122.396 119.87 121.003L114.995 115.492ZM110.492 119.377L105.782 113.725C104.443 114.84 103.249 115.789 102.193 116.581L106.608 122.467L111.022 128.353C112.321 127.379 113.716 126.268 115.203 125.029L110.492 119.377ZM106.608 122.467L107.254 129.796C111.205 129.448 114.973 129.158 118.559 128.927L118.086 121.584L117.612 114.242C113.899 114.481 110.015 114.78 105.961 115.138L106.608 122.467ZM118.086 121.584L118.559 128.927C122.151 128.695 125.497 128.522 128.6 128.407L128.327 121.054L128.055 113.702C124.8 113.822 121.319 114.003 117.612 114.242L118.086 121.584ZM128.327 121.054L128.662 128.405C128.498 128.412 128.07 128.403 127.509 128.195C126.921 127.976 126.407 127.619 126.026 127.209L131.418 122.202L136.809 117.196C134.34 114.536 131.081 113.564 127.993 113.704L128.327 121.054ZM131.418 122.202L126.215 127.405C125.796 126.986 125.566 126.551 125.457 126.253C125.359 125.984 125.382 125.895 125.389 126.095L132.742 125.822L140.095 125.55C139.993 122.79 139.173 119.553 136.62 117L131.418 122.202ZM132.742 125.822L125.388 126.039C125.401 126.507 125.348 126.623 125.382 126.501C125.423 126.35 125.575 125.926 125.989 125.457L131.506 130.325L137.023 135.193C139.636 132.231 140.184 128.56 140.097 125.606L132.742 125.822Z" fill="#00BED4" mask="url(#path-25-outside-1_3576_7711)"/>
<path d="M104.911 17.7062C106.207 15.1672 109.835 15.1672 111.131 17.7062L115.76 26.7783C116.268 27.7723 117.22 28.4639 118.322 28.6392L128.38 30.239C131.196 30.6867 132.317 34.137 130.302 36.1539L123.105 43.3606C122.316 44.1502 121.953 45.2692 122.127 46.3716L123.713 56.4324C124.158 59.2481 121.223 61.3805 118.682 60.088L109.604 55.4699C108.609 54.9639 107.433 54.9638 106.438 55.4698L97.3598 60.088C94.8192 61.3805 91.8842 59.2481 92.3283 56.4324L93.9152 46.3716C94.089 45.2692 93.7254 44.1502 92.9368 43.3606L85.7394 36.1539C83.7251 34.137 84.8462 30.6867 87.6613 30.239L97.7201 28.6392C98.8222 28.4639 99.7741 27.7723 100.281 26.7783L104.911 17.7062Z" fill="url(#paint9_radial_3576_7711)"/>
<path d="M106.465 20.9949C107.113 19.7254 108.927 19.7254 109.575 20.9949L114.264 30.1831C114.518 30.6801 114.993 31.0259 115.545 31.1135L125.732 32.7338C127.14 32.9576 127.7 34.6828 126.693 35.6912L119.403 42.99C119.009 43.3848 118.827 43.9443 118.914 44.4955L120.521 54.685C120.743 56.0929 119.276 57.1591 118.006 56.5128L108.812 51.8356C108.314 51.5826 107.726 51.5826 107.229 51.8356L98.0344 56.5128C96.7641 57.1591 95.2966 56.0929 95.5186 54.685L97.1258 44.4955C97.2127 43.9443 97.0309 43.3848 96.6366 42.99L89.3472 35.6912C88.34 34.6828 88.9005 32.9576 90.3081 32.7338L100.496 31.1135C101.047 31.0259 101.523 30.6801 101.776 30.1831L106.465 20.9949Z" fill="url(#paint10_radial_3576_7711)"/>
<path d="M111.772 31.9807C111.43 29.7798 113.66 29.6213 114.817 29.8172C115.974 30.0131 119.128 30.7255 122.483 32.0076C126.676 33.6104 125.515 35.1996 124.499 35.9208C123.064 36.9407 120.88 36.2012 118.276 35.7604C115.672 35.3196 112.199 34.7319 111.772 31.9807Z" fill="url(#paint11_radial_3576_7711)"/>
<path d="M124.363 33.2342C124.434 31.103 125.392 30.7295 125.863 30.8091C126.333 30.8887 127.597 31.2813 128.891 32.2146C130.508 33.3812 129.861 35.0577 129.362 35.8661C128.655 37.0093 127.803 36.4953 126.745 36.3162C125.687 36.137 124.275 35.8982 124.363 33.2342Z" fill="url(#paint12_radial_3576_7711)" fill-opacity="0.56"/>
<path d="M95.1196 31.3982C94.4333 30.0455 95.6937 29.4502 96.4097 29.3217C97.1257 29.1931 99.116 28.9588 101.349 29.0497C104.141 29.1634 103.818 30.4513 103.388 31.1435C102.78 32.1223 101.347 32.1249 99.7364 32.4141C98.1254 32.7033 95.9775 33.089 95.1196 31.3982Z" fill="url(#paint13_radial_3576_7711)" fill-opacity="0.5"/>
<path d="M100.791 55.6202C99.6696 54.5985 100.637 53.5953 101.261 53.2214C101.885 52.8475 103.663 51.9231 105.784 51.2167C108.435 50.3338 108.589 51.6526 108.433 52.4522C108.211 53.583 106.872 54.0931 105.468 54.9344C104.064 55.7757 102.192 56.8974 100.791 55.6202Z" fill="url(#paint14_radial_3576_7711)" fill-opacity="0.5"/>
<path d="M117.63 44.0889C119.499 42.8779 120.554 44.8483 120.848 45.9848C121.142 47.1213 121.78 50.2909 121.979 53.8768C122.229 58.3592 120.304 57.9476 119.231 57.3157C117.714 56.4219 117.497 54.1265 116.836 51.5693C116.175 49.0121 115.293 45.6025 117.63 44.0889Z" fill="url(#paint15_radial_3576_7711)"/>
<path d="M109.882 22.9969C111.496 21.4614 112.897 23.2028 113.396 24.2655C113.894 25.3281 115.107 28.3253 115.966 31.8125C117.039 36.1716 115.071 36.1229 113.9 35.7C112.244 35.102 111.607 32.8862 110.484 30.4952C109.362 28.1042 107.865 24.9162 109.882 22.9969Z" fill="url(#paint16_radial_3576_7711)"/>
<path d="M69.3473 37.9405C70.643 35.4016 74.2709 35.4016 75.5666 37.9405L77.8306 42.3769C78.3379 43.3709 79.2898 44.0625 80.3919 44.2378L85.3108 45.0201C88.1259 45.4678 89.247 48.9181 87.2327 50.935L83.7131 54.4591C82.9245 55.2488 82.5609 56.3678 82.7347 57.4701L83.5107 62.39C83.9548 65.2057 81.0198 67.3381 78.4792 66.0456L74.0399 63.7873C73.0453 63.2813 71.8687 63.2813 70.874 63.7873L66.4347 66.0456C63.8941 67.3381 60.9591 65.2057 61.4032 62.39L62.1792 57.4701C62.3531 56.3678 61.9895 55.2488 61.2009 54.4591L57.6813 50.935C55.667 48.9181 56.788 45.4678 59.6031 45.0201L64.522 44.2378C65.6241 44.0625 66.576 43.3709 67.0833 42.3769L69.3473 37.9405Z" fill="url(#paint17_radial_3576_7711)"/>
<path d="M70.9051 39.4773C71.5529 38.2079 73.3669 38.2079 74.0147 39.4773L76.8637 45.0599C77.1173 45.5569 77.5933 45.9027 78.1443 45.9903L84.334 46.9748C85.7416 47.1986 86.3021 48.9238 85.295 49.9322L80.866 54.3668C80.4717 54.7616 80.2899 55.3211 80.3769 55.8723L81.3533 62.0633C81.5754 63.4711 80.1079 64.5373 78.8376 63.8911L73.2514 61.0493C72.7541 60.7963 72.1658 60.7963 71.6684 61.0493L66.0822 63.8911C64.8119 64.5373 63.3444 63.4711 63.5665 62.0633L64.543 55.8723C64.6299 55.3211 64.4481 54.7616 64.0538 54.3668L59.6249 49.9322C58.6177 48.9238 59.1782 47.1986 60.5858 46.9748L66.7755 45.9903C67.3265 45.9027 67.8025 45.5569 68.0561 45.0599L70.9051 39.4773Z" fill="url(#paint18_radial_3576_7711)"/>
<path d="M75.1699 46.5772C74.9227 44.9855 76.535 44.8709 77.3721 45.0126C78.2092 45.1543 80.4898 45.6694 82.916 46.5967C85.9488 47.7558 85.1085 48.9051 84.3744 49.4267C83.3363 50.1642 81.757 49.6294 79.8736 49.3107C77.9902 48.9919 75.479 48.5669 75.1699 46.5772Z" fill="url(#paint19_radial_3576_7711)"/>
<path d="M84.2768 47.4834C84.3277 45.9421 85.0208 45.672 85.361 45.7296C85.7012 45.7871 86.6155 46.071 87.5511 46.746C88.7206 47.5897 88.2529 48.8021 87.8915 49.3868C87.3804 50.2135 86.7646 49.8418 85.9992 49.7123C85.2337 49.5827 84.2131 49.41 84.2768 47.4834Z" fill="url(#paint20_radial_3576_7711)" fill-opacity="0.56"/>
<path d="M63.1277 46.1547C62.6314 45.1764 63.5429 44.7459 64.0607 44.653C64.5784 44.56 66.0178 44.3905 67.6331 44.4563C69.6522 44.5385 69.4185 45.4699 69.1075 45.9705C68.6677 46.6784 67.6315 46.6802 66.4665 46.8894C65.3015 47.0986 63.7481 47.3775 63.1277 46.1547Z" fill="url(#paint21_radial_3576_7711)" fill-opacity="0.5"/>
<path d="M67.2298 63.6699C66.4191 62.931 67.1189 62.2055 67.5701 61.9351C68.0214 61.6647 69.3074 60.9962 70.8411 60.4854C72.7583 59.8468 72.8699 60.8006 72.7564 61.3789C72.596 62.1967 71.6277 62.5655 70.6123 63.174C69.597 63.7824 68.2432 64.5936 67.2298 63.6699Z" fill="url(#paint22_radial_3576_7711)" fill-opacity="0.5"/>
<path d="M79.407 55.3343C80.759 54.4586 81.522 55.8835 81.7346 56.7054C81.9471 57.5273 82.4083 59.8195 82.5528 62.4129C82.7334 65.6545 81.3411 65.3569 80.5652 64.8998C79.468 64.2535 79.3111 62.5935 78.8329 60.7441C78.3547 58.8948 77.7171 56.429 79.407 55.3343Z" fill="url(#paint23_radial_3576_7711)"/>
<path d="M73.8034 40.0765C74.9702 38.9661 75.9834 40.2255 76.3442 40.994C76.705 41.7625 77.5817 43.93 78.2029 46.452C78.9793 49.6045 77.556 49.5692 76.7091 49.2634C75.5113 48.8309 75.0504 47.2284 74.2387 45.4993C73.427 43.7701 72.3448 41.4646 73.8034 40.0765Z" fill="url(#paint24_radial_3576_7711)"/>
<path d="M141.087 37.9405C142.382 35.4016 146.01 35.4016 147.306 37.9405L149.57 42.3769C150.077 43.3709 151.029 44.0625 152.131 44.2378L157.05 45.0201C159.865 45.4678 160.986 48.9181 158.972 50.935L155.452 54.4591C154.664 55.2488 154.3 56.3678 154.474 57.4701L155.25 62.39C155.694 65.2057 152.759 67.3381 150.218 66.0456L145.779 63.7873C144.785 63.2813 143.608 63.2813 142.613 63.7873L138.174 66.0456C135.633 67.3381 132.698 65.2057 133.142 62.39L133.918 57.4701C134.092 56.3678 133.729 55.2488 132.94 54.4591L129.421 50.935C127.406 48.9181 128.527 45.4678 131.342 45.0201L136.261 44.2378C137.363 44.0625 138.315 43.3709 138.823 42.3769L141.087 37.9405Z" fill="url(#paint25_radial_3576_7711)"/>
<path d="M142.642 39.4773C143.29 38.2079 145.104 38.2079 145.752 39.4773L148.601 45.0599C148.855 45.5569 149.331 45.9027 149.882 45.9903L156.071 46.9748C157.479 47.1986 158.039 48.9238 157.032 49.9322L152.603 54.3668C152.209 54.7616 152.027 55.3211 152.114 55.8723L153.091 62.0633C153.313 63.4711 151.845 64.5373 150.575 63.8911L144.989 61.0493C144.491 60.7963 143.903 60.7963 143.406 61.0493L137.82 63.8911C136.549 64.5373 135.082 63.4711 135.304 62.0633L136.28 55.8723C136.367 55.3211 136.185 54.7616 135.791 54.3668L131.362 49.9322C130.355 48.9238 130.916 47.1986 132.323 46.9748L138.513 45.9903C139.064 45.9027 139.54 45.5569 139.793 45.0599L142.642 39.4773Z" fill="url(#paint26_radial_3576_7711)"/>
<path d="M146.909 46.5772C146.662 44.9855 148.274 44.8709 149.111 45.0126C149.948 45.1543 152.229 45.6694 154.655 46.5967C157.688 47.7558 156.848 48.9051 156.114 49.4267C155.076 50.1642 153.496 49.6294 151.613 49.3107C149.729 48.9919 147.218 48.5669 146.909 46.5772Z" fill="url(#paint27_radial_3576_7711)"/>
<path d="M156.015 47.4834C156.066 45.9421 156.759 45.672 157.099 45.7296C157.439 45.7871 158.354 46.071 159.289 46.746C160.459 47.5897 159.991 48.8021 159.63 49.3868C159.119 50.2135 158.503 49.8418 157.737 49.7123C156.972 49.5827 155.951 49.41 156.015 47.4834Z" fill="url(#paint28_radial_3576_7711)" fill-opacity="0.56"/>
<path d="M134.867 46.1547C134.371 45.1764 135.282 44.7459 135.8 44.653C136.318 44.56 137.757 44.3905 139.372 44.4563C141.391 44.5385 141.158 45.4699 140.847 45.9705C140.407 46.6784 139.371 46.6802 138.206 46.8894C137.041 47.0986 135.487 47.3775 134.867 46.1547Z" fill="url(#paint29_radial_3576_7711)" fill-opacity="0.5"/>
<path d="M138.969 63.6699C138.158 62.931 138.858 62.2055 139.309 61.9351C139.761 61.6647 141.047 60.9962 142.58 60.4854C144.498 59.8468 144.609 60.8006 144.496 61.3789C144.335 62.1967 143.367 62.5655 142.352 63.174C141.336 63.7824 139.983 64.5936 138.969 63.6699Z" fill="url(#paint30_radial_3576_7711)" fill-opacity="0.5"/>
<path d="M151.145 55.3343C152.497 54.4586 153.26 55.8835 153.473 56.7054C153.685 57.5273 154.147 59.8195 154.291 62.4129C154.472 65.6545 153.079 65.3569 152.304 64.8998C151.206 64.2535 151.049 62.5935 150.571 60.7441C150.093 58.8948 149.455 56.429 151.145 55.3343Z" fill="url(#paint31_radial_3576_7711)"/>
<path d="M145.543 40.0765C146.709 38.9661 147.723 40.2255 148.083 40.994C148.444 41.7625 149.321 43.93 149.942 46.452C150.719 49.6045 149.295 49.5692 148.448 49.2634C147.251 48.8309 146.79 47.2284 145.978 45.4993C145.166 43.7701 144.084 41.4646 145.543 40.0765Z" fill="url(#paint32_radial_3576_7711)"/>
<path d="M12.4941 120.368C27.2677 121.836 38.0535 135.003 36.5849 149.777C21.8114 148.308 11.0256 135.141 12.4941 120.368Z" fill="#00E5FF"/>
<path d="M44.4043 129.579C54.2776 137.169 56.1281 151.326 48.5376 161.2C38.6643 153.609 36.8138 139.452 44.4043 129.579Z" fill="#00E5FF"/>
<path d="M16.5674 154.552C27.2059 148.078 41.0788 151.453 47.5532 162.092C36.9147 168.566 23.0418 165.191 16.5674 154.552Z" fill="#00BED4"/>
<path d="M59.3848 145.905C70.6376 151.241 75.4341 164.688 70.0982 175.941C58.8454 170.605 54.0488 157.158 59.3848 145.905Z" fill="#00E5FF"/>
<path d="M35.3076 147.727C40.5599 155.425 56.7017 171.801 79.2506 175.722" stroke="#00E5FF" stroke-width="1.40178" stroke-linecap="round" stroke-linejoin="round"/>
<path d="M39.5127 181.761C46.3574 171.357 60.3404 168.471 70.7446 175.316C63.8999 185.72 49.9169 188.605 39.5127 181.761Z" fill="#00BED4"/>
<path d="M207.772 120.992C192.999 122.46 182.213 135.627 183.682 150.401C198.455 148.932 209.241 135.765 207.772 120.992Z" fill="#00E5FF"/>
<path d="M175.859 130.203C165.986 137.793 164.136 151.95 171.726 161.824C181.599 154.233 183.45 140.076 175.859 130.203Z" fill="#00E5FF"/>
<path d="M203.7 155.177C193.062 148.703 179.189 152.078 172.714 162.717C183.353 169.191 197.226 165.816 203.7 155.177Z" fill="#00BED4"/>
<path d="M160.889 146.532C149.636 151.868 144.839 165.316 150.175 176.569C161.428 171.233 166.225 157.785 160.889 146.532Z" fill="#00E5FF"/>
<path d="M184.965 148.355C179.713 156.054 163.571 172.43 141.022 176.351" stroke="#00E5FF" stroke-width="1.40178" stroke-linecap="round" stroke-linejoin="round"/>
<path d="M180.758 182.389C173.913 171.985 159.93 169.099 149.526 175.944C156.371 186.348 170.354 189.234 180.758 182.389Z" fill="#00BED4"/>
<path d="M34.8857 180.198L69.4493 172.483L75.6214 199.023L41.675 205.813L45.9955 191.308L34.8857 180.198Z" fill="#00E5FF"/>
<path d="M181.786 180.198L147.223 172.483L141.051 199.023L174.997 205.813L170.676 191.308L181.786 180.198Z" fill="#00E5FF"/>
<path d="M141.047 199.021L142.899 185.442L160.489 188.689L141.047 199.021Z" fill="#00D7EF"/>
<path d="M165.743 162.915C121.321 152.24 96.1756 152.622 50.9424 162.915L56.4972 188.837C97.1126 181.837 119.881 181.142 160.497 188.837L165.743 162.915Z" fill="#58EEFF"/>
<path d="M75.6217 199.021L73.7701 186.06L56.4883 188.837L75.6217 199.021Z" fill="#00D7EF"/>
<defs>
<linearGradient id="paint0_linear_3576_7711" x1="-24.4977" y1="-167.361" x2="131.854" y2="168.335" gradientUnits="userSpaceOnUse">
<stop stop-color="#009DFF"/>
<stop offset="1" stop-color="#00E5FF"/>
</linearGradient>
<radialGradient id="paint1_radial_3576_7711" cx="0" cy="0" r="1" gradientUnits="userSpaceOnUse" gradientTransform="translate(107.942 30.38) scale(27.5914 16.9994)">
<stop stop-color="white" stop-opacity="0.22"/>
<stop offset="1" stop-color="white" stop-opacity="0"/>
</radialGradient>
<linearGradient id="paint2_linear_3576_7711" x1="112.507" y1="17.5031" x2="372.786" y2="218.92" gradientUnits="userSpaceOnUse">
<stop stop-color="#00E5FF"/>
<stop offset="1" stop-color="#00BCD2"/>
</linearGradient>
<linearGradient id="paint3_linear_3576_7711" x1="104.229" y1="187.65" x2="-37.4065" y2="84.6421" gradientUnits="userSpaceOnUse">
<stop stop-color="#00BCD2"/>
<stop offset="1" stop-color="#00E5FF"/>
</linearGradient>
<linearGradient id="paint4_linear_3576_7711" x1="414.173" y1="-117.696" x2="20.5358" y2="143.502" gradientUnits="userSpaceOnUse">
<stop stop-color="white" stop-opacity="0.4"/>
<stop offset="1" stop-color="white" stop-opacity="0"/>
</linearGradient>
<linearGradient id="paint5_linear_3576_7711" x1="98.7115" y1="248.351" x2="215.515" y2="9.22587" gradientUnits="userSpaceOnUse">
<stop stop-color="white" stop-opacity="0.13"/>
<stop offset="1" stop-color="white" stop-opacity="0"/>
</linearGradient>
<radialGradient id="paint6_radial_3576_7711" cx="0" cy="0" r="1" gradientTransform="matrix(-13.7957 21.1534 -10.4798 -7.30906 157.574 136.146)" gradientUnits="userSpaceOnUse">
<stop stop-color="white" stop-opacity="0.1"/>
<stop offset="1" stop-color="white" stop-opacity="0"/>
</radialGradient>
<radialGradient id="paint7_radial_3576_7711" cx="0" cy="0" r="1" gradientTransform="matrix(25.1908 1.79199 -1.30252 12.7103 103.455 14.3181)" gradientUnits="userSpaceOnUse">
<stop stop-color="white" stop-opacity="0.1"/>
<stop offset="1" stop-color="white" stop-opacity="0"/>
</radialGradient>
<radialGradient id="paint8_radial_3576_7711" cx="0" cy="0" r="1" gradientTransform="matrix(13.3137 -21.46 10.6425 7.07014 168.167 69.3935)" gradientUnits="userSpaceOnUse">
<stop stop-color="white" stop-opacity="0.1"/>
<stop offset="1" stop-color="white" stop-opacity="0"/>
</radialGradient>
<radialGradient id="paint9_radial_3576_7711" cx="0" cy="0" r="1" gradientUnits="userSpaceOnUse" gradientTransform="translate(108.021 40.1239) rotate(90) scale(28.5111)">
<stop stop-color="#FFE86C"/>
<stop offset="1" stop-color="#FF9900"/>
</radialGradient>
<radialGradient id="paint10_radial_3576_7711" cx="0" cy="0" r="1" gradientUnits="userSpaceOnUse" gradientTransform="translate(108.02 40.1235) rotate(90) scale(22.1753)">
<stop stop-color="#FFF5BC"/>
<stop offset="0.765" stop-color="#FFA800"/>
</radialGradient>
<radialGradient id="paint11_radial_3576_7711" cx="0" cy="0" r="1" gradientUnits="userSpaceOnUse" gradientTransform="translate(118.565 33.1557) rotate(99.6063) scale(2.66619 7.03148)">
<stop stop-color="white"/>
<stop offset="0.84" stop-color="white" stop-opacity="0"/>
</radialGradient>
<radialGradient id="paint12_radial_3576_7711" cx="0" cy="0" r="1" gradientUnits="userSpaceOnUse" gradientTransform="translate(127.122 33.7263) rotate(99.6063) scale(2.66619 2.85773)">
<stop stop-color="white"/>
<stop offset="0.84" stop-color="white" stop-opacity="0"/>
</radialGradient>
<radialGradient id="paint13_radial_3576_7711" cx="0" cy="0" r="1" gradientUnits="userSpaceOnUse" gradientTransform="translate(99.3273 30.6601) rotate(79.8213) scale(1.83292 4.3571)">
<stop stop-color="white"/>
<stop offset="0.84" stop-color="white" stop-opacity="0"/>
</radialGradient>
<radialGradient id="paint14_radial_3576_7711" cx="0" cy="0" r="1" gradientUnits="userSpaceOnUse" gradientTransform="translate(104.464 53.4391) rotate(59.0688) scale(1.83292 4.3571)">
<stop stop-color="white"/>
<stop offset="0.84" stop-color="white" stop-opacity="0"/>
</radialGradient>
<radialGradient id="paint15_radial_3576_7711" cx="0" cy="0" r="1" gradientUnits="userSpaceOnUse" gradientTransform="translate(119.331 50.7695) rotate(165.501) scale(2.66619 7.03148)">
<stop stop-color="white"/>
<stop offset="0.84" stop-color="white" stop-opacity="0"/>
</radialGradient>
<radialGradient id="paint16_radial_3576_7711" cx="0" cy="0" r="1" gradientUnits="userSpaceOnUse" gradientTransform="translate(112.789 29.248) rotate(154.854) scale(2.66619 7.03148)">
<stop stop-color="white"/>
<stop offset="0.84" stop-color="white" stop-opacity="0"/>
</radialGradient>
<radialGradient id="paint17_radial_3576_7711" cx="0" cy="0" r="1" gradientUnits="userSpaceOnUse" gradientTransform="translate(72.457 52.4662) rotate(90) scale(20.6191)">
<stop stop-color="#FFE86C"/>
<stop offset="1" stop-color="#FF9900"/>
</radialGradient>
<radialGradient id="paint18_radial_3576_7711" cx="0" cy="0" r="1" gradientUnits="userSpaceOnUse" gradientTransform="translate(72.4599 52.4677) rotate(90) scale(16.0371)">
<stop stop-color="#FFF5BC"/>
<stop offset="0.765" stop-color="#FFA800"/>
</radialGradient>
<radialGradient id="paint19_radial_3576_7711" cx="0" cy="0" r="1" gradientUnits="userSpaceOnUse" gradientTransform="translate(80.0827 47.427) rotate(99.6063) scale(1.92817 5.08512)">
<stop stop-color="white"/>
<stop offset="0.84" stop-color="white" stop-opacity="0"/>
</radialGradient>
<radialGradient id="paint20_radial_3576_7711" cx="0" cy="0" r="1" gradientUnits="userSpaceOnUse" gradientTransform="translate(86.2716 47.8393) rotate(99.6063) scale(1.92817 2.06669)">
<stop stop-color="white"/>
<stop offset="0.84" stop-color="white" stop-opacity="0"/>
</radialGradient>
<radialGradient id="paint21_radial_3576_7711" cx="0" cy="0" r="1" gradientUnits="userSpaceOnUse" gradientTransform="translate(66.1707 45.6209) rotate(79.8213) scale(1.32556 3.15103)">
<stop stop-color="white"/>
<stop offset="0.84" stop-color="white" stop-opacity="0"/>
</radialGradient>
<radialGradient id="paint22_radial_3576_7711" cx="0" cy="0" r="1" gradientUnits="userSpaceOnUse" gradientTransform="translate(69.8862 62.0926) rotate(59.0688) scale(1.32556 3.15103)">
<stop stop-color="white"/>
<stop offset="0.84" stop-color="white" stop-opacity="0"/>
</radialGradient>
<radialGradient id="paint23_radial_3576_7711" cx="0" cy="0" r="1" gradientUnits="userSpaceOnUse" gradientTransform="translate(80.6378 60.1657) rotate(165.501) scale(1.92817 5.08513)">
<stop stop-color="white"/>
<stop offset="0.84" stop-color="white" stop-opacity="0"/>
</radialGradient>
<radialGradient id="paint24_radial_3576_7711" cx="0" cy="0" r="1" gradientUnits="userSpaceOnUse" gradientTransform="translate(75.9056 44.5973) rotate(154.854) scale(1.92817 5.08512)">
<stop stop-color="white"/>
<stop offset="0.84" stop-color="white" stop-opacity="0"/>
</radialGradient>
<radialGradient id="paint25_radial_3576_7711" cx="0" cy="0" r="1" gradientUnits="userSpaceOnUse" gradientTransform="translate(144.196 52.4662) rotate(90) scale(20.6191)">
<stop stop-color="#FFE86C"/>
<stop offset="1" stop-color="#FF9900"/>
</radialGradient>
<radialGradient id="paint26_radial_3576_7711" cx="0" cy="0" r="1" gradientUnits="userSpaceOnUse" gradientTransform="translate(144.197 52.4677) rotate(90) scale(16.0371)">
<stop stop-color="#FFF5BC"/>
<stop offset="0.765" stop-color="#FFA800"/>
</radialGradient>
<radialGradient id="paint27_radial_3576_7711" cx="0" cy="0" r="1" gradientUnits="userSpaceOnUse" gradientTransform="translate(151.822 47.427) rotate(99.6063) scale(1.92817 5.08512)">
<stop stop-color="white"/>
<stop offset="0.84" stop-color="white" stop-opacity="0"/>
</radialGradient>
<radialGradient id="paint28_radial_3576_7711" cx="0" cy="0" r="1" gradientUnits="userSpaceOnUse" gradientTransform="translate(158.01 47.8393) rotate(99.6063) scale(1.92817 2.06669)">
<stop stop-color="white"/>
<stop offset="0.84" stop-color="white" stop-opacity="0"/>
</radialGradient>
<radialGradient id="paint29_radial_3576_7711" cx="0" cy="0" r="1" gradientUnits="userSpaceOnUse" gradientTransform="translate(137.91 45.6209) rotate(79.8213) scale(1.32556 3.15103)">
<stop stop-color="white"/>
<stop offset="0.84" stop-color="white" stop-opacity="0"/>
</radialGradient>
<radialGradient id="paint30_radial_3576_7711" cx="0" cy="0" r="1" gradientUnits="userSpaceOnUse" gradientTransform="translate(141.625 62.0926) rotate(59.0688) scale(1.32556 3.15103)">
<stop stop-color="white"/>
<stop offset="0.84" stop-color="white" stop-opacity="0"/>
</radialGradient>
<radialGradient id="paint31_radial_3576_7711" cx="0" cy="0" r="1" gradientUnits="userSpaceOnUse" gradientTransform="translate(152.376 60.1657) rotate(165.501) scale(1.92817 5.08513)">
<stop stop-color="white"/>
<stop offset="0.84" stop-color="white" stop-opacity="0"/>
</radialGradient>
<radialGradient id="paint32_radial_3576_7711" cx="0" cy="0" r="1" gradientUnits="userSpaceOnUse" gradientTransform="translate(147.645 44.5973) rotate(154.854) scale(1.92817 5.08512)">
<stop stop-color="white"/>
<stop offset="0.84" stop-color="white" stop-opacity="0"/>
</radialGradient>
</defs>
</svg>
