<svg width="220" height="207" viewBox="0 0 220 207" fill="none" xmlns="http://www.w3.org/2000/svg">
<path d="M20.9411 67.7965C32.83 74.9972 37.0131 90.2669 30.4561 102.522C18.5679 95.3209 14.3832 80.0516 20.9411 67.7965Z" fill="#00E5FF"/>
<path d="M20.9411 67.7965C32.83 74.9972 37.0131 90.2669 30.4561 102.522C18.5679 95.3209 14.3832 80.0516 20.9411 67.7965Z" fill="black" fill-opacity="0.3"/>
<path d="M20.9411 67.7965C32.83 74.9972 37.0131 90.2669 30.4561 102.522C18.5679 95.3209 14.3832 80.0516 20.9411 67.7965Z" stroke="#00E5FF" stroke-width="1.40178"/>
<path d="M20.9411 67.7965C32.83 74.9972 37.0131 90.2669 30.4561 102.522C18.5679 95.3209 14.3832 80.0516 20.9411 67.7965Z" stroke="black" stroke-opacity="0.3" stroke-width="1.40178"/>
<path d="M45.7948 89.1881C50.9486 99.4749 47.2195 112.02 37.2842 117.823C32.1308 107.536 35.8592 94.9901 45.7948 89.1881Z" fill="#00E5FF"/>
<path d="M45.7948 89.1881C50.9486 99.4749 47.2195 112.02 37.2842 117.823C32.1308 107.536 35.8592 94.9901 45.7948 89.1881Z" fill="black" fill-opacity="0.3"/>
<path d="M45.7948 89.1881C50.9486 99.4749 47.2195 112.02 37.2842 117.823C32.1308 107.536 35.8592 94.9901 45.7948 89.1881Z" stroke="#00E5FF" stroke-width="1.40178"/>
<path d="M45.7948 89.1881C50.9486 99.4749 47.2195 112.02 37.2842 117.823C32.1308 107.536 35.8592 94.9901 45.7948 89.1881Z" stroke="black" stroke-opacity="0.3" stroke-width="1.40178"/>
<path d="M10.4941 99.7139C22.8463 98.1262 34.1468 106.853 35.7344 119.205C23.3822 120.792 12.0818 112.066 10.4941 99.7139Z" fill="#00BED4"/>
<path d="M53.0501 110.235C60.2587 119.202 59.2612 132.252 50.7741 140.02C43.5659 131.053 44.5627 118.003 53.0501 110.235Z" fill="#00E5FF"/>
<path d="M53.0501 110.235C60.2587 119.202 59.2612 132.252 50.7741 140.02C43.5659 131.053 44.5627 118.003 53.0501 110.235Z" fill="black" fill-opacity="0.3"/>
<path d="M53.0501 110.235C60.2587 119.202 59.2612 132.252 50.7741 140.02C43.5659 131.053 44.5627 118.003 53.0501 110.235Z" stroke="#00E5FF" stroke-width="1.40178"/>
<path d="M53.0501 110.235C60.2587 119.202 59.2612 132.252 50.7741 140.02C43.5659 131.053 44.5627 118.003 53.0501 110.235Z" stroke="black" stroke-opacity="0.3" stroke-width="1.40178"/>
<path d="M30.3916 101.104C32.0587 110.272 40.144 131.799 59.1487 144.552" stroke="#00E5FF" stroke-width="1.40178" stroke-linecap="round" stroke-linejoin="round"/>
<path d="M30.3916 101.104C32.0587 110.272 40.144 131.799 59.1487 144.552" stroke="black" stroke-opacity="0.3" stroke-width="1.40178" stroke-linecap="round" stroke-linejoin="round"/>
<path d="M20.3916 133.903C30.8763 127.183 44.8241 130.234 51.5448 140.719C41.0601 147.439 27.1123 144.388 20.3916 133.903Z" fill="#00BED4"/>
<path d="M191.138 67.7965C179.249 74.9972 175.066 90.2669 181.623 102.522C193.511 95.3209 197.696 80.0516 191.138 67.7965Z" fill="#00E5FF"/>
<path d="M191.138 67.7965C179.249 74.9972 175.066 90.2669 181.623 102.522C193.511 95.3209 197.696 80.0516 191.138 67.7965Z" fill="black" fill-opacity="0.3"/>
<path d="M191.138 67.7965C179.249 74.9972 175.066 90.2669 181.623 102.522C193.511 95.3209 197.696 80.0516 191.138 67.7965Z" stroke="#00E5FF" stroke-width="1.40178"/>
<path d="M191.138 67.7965C179.249 74.9972 175.066 90.2669 181.623 102.522C193.511 95.3209 197.696 80.0516 191.138 67.7965Z" stroke="black" stroke-opacity="0.3" stroke-width="1.40178"/>
<path d="M166.286 89.1881C161.132 99.4749 164.862 112.02 174.797 117.823C179.95 107.536 176.222 94.9901 166.286 89.1881Z" fill="#00E5FF"/>
<path d="M166.286 89.1881C161.132 99.4749 164.862 112.02 174.797 117.823C179.95 107.536 176.222 94.9901 166.286 89.1881Z" fill="black" fill-opacity="0.3"/>
<path d="M166.286 89.1881C161.132 99.4749 164.862 112.02 174.797 117.823C179.95 107.536 176.222 94.9901 166.286 89.1881Z" stroke="#00E5FF" stroke-width="1.40178"/>
<path d="M166.286 89.1881C161.132 99.4749 164.862 112.02 174.797 117.823C179.95 107.536 176.222 94.9901 166.286 89.1881Z" stroke="black" stroke-opacity="0.3" stroke-width="1.40178"/>
<path d="M201.589 99.7139C189.237 98.1262 177.936 106.853 176.349 119.205C188.701 120.792 200.001 112.066 201.589 99.7139Z" fill="#00BED4"/>
<path d="M159.039 110.235C151.83 119.202 152.828 132.252 161.315 140.02C168.523 131.053 167.526 118.003 159.039 110.235Z" fill="#00E5FF"/>
<path d="M159.039 110.235C151.83 119.202 152.828 132.252 161.315 140.02C168.523 131.053 167.526 118.003 159.039 110.235Z" fill="black" fill-opacity="0.3"/>
<path d="M159.039 110.235C151.83 119.202 152.828 132.252 161.315 140.02C168.523 131.053 167.526 118.003 159.039 110.235Z" stroke="#00E5FF" stroke-width="1.40178"/>
<path d="M159.039 110.235C151.83 119.202 152.828 132.252 161.315 140.02C168.523 131.053 167.526 118.003 159.039 110.235Z" stroke="black" stroke-opacity="0.3" stroke-width="1.40178"/>
<path d="M181.699 101.104C180.032 110.272 171.947 131.799 152.942 144.552" stroke="#00E5FF" stroke-width="1.40178" stroke-linecap="round" stroke-linejoin="round"/>
<path d="M181.699 101.104C180.032 110.272 171.947 131.799 152.942 144.552" stroke="black" stroke-opacity="0.3" stroke-width="1.40178" stroke-linecap="round" stroke-linejoin="round"/>
<path d="M191.701 133.905C181.216 127.185 167.269 130.236 160.548 140.721C171.033 147.441 184.98 144.39 191.701 133.905Z" fill="#00BED4"/>
<path d="M107.583 7.96582L172.896 55.7909V151.441L107.583 199.266L42.2709 151.441V55.7909L107.583 7.96582Z" fill="#00E5FF"/>
<path d="M107.583 24.521L161.745 64.0687V143.164L107.583 182.712L53.4218 143.164V64.0687L107.583 24.521Z" fill="url(#paint0_linear_2944_11232)"/>
<path d="M107.616 24.5216L128.769 40.1566C107.913 59.9136 89.3439 49.9557 81.8645 42.9159L107.616 24.5216Z" fill="url(#paint1_radial_2944_11232)"/>
<path d="M53.3207 64.0689L42.2842 55.7915V151.442L53.3207 143.164V64.0689Z" fill="#74F1FF"/>
<path d="M161.845 64.0689L172.882 55.7915V151.442L161.845 143.164V64.0689Z" fill="#00E5FF"/>
<path d="M107.583 24.5207V7.96582L172.883 55.7909L161.846 64.0683L107.583 24.5207Z" fill="url(#paint2_linear_2944_11232)"/>
<path d="M107.583 182.712V199.267L42.2834 151.442L53.3199 143.164L107.583 182.712Z" fill="url(#paint3_linear_2944_11232)"/>
<path d="M141.613 49.3521L53.3203 114.652V143.163L161.846 64.0675L141.613 49.3521Z" fill="url(#paint4_linear_2944_11232)"/>
<path d="M73.554 157.879L66.1963 152.361L161.846 79.7036V88.9007L73.554 157.879Z" fill="url(#paint5_linear_2944_11232)"/>
<path d="M161.847 143.164L141.614 157.879C134.466 130.054 152.061 115.935 161.847 112.813L161.847 143.164Z" fill="url(#paint6_radial_2944_11232)"/>
<path d="M106.526 7.75229L129.214 18.2978C108.357 38.0549 87.4712 29.526 79.9917 22.4861L106.526 7.75229Z" fill="url(#paint7_radial_2944_11232)"/>
<path d="M161.847 64.0699L182.995 48.4722C190.77 76.129 171.559 89.2382 161.847 92.5802L161.847 64.0699Z" fill="url(#paint8_radial_2944_11232)"/>
<mask id="path-25-outside-1_2944_11232" maskUnits="userSpaceOnUse" x="74.9434" y="62.3462" width="66" height="82" fill="black">
<rect fill="white" x="74.9434" y="62.3462" width="66" height="82"/>
<path d="M104.782 98.9429C106.725 98.8251 107.99 98.7074 108.579 98.5897C111.699 98.2954 114.141 97.383 115.907 95.8526C117.673 94.3222 118.468 92.4092 118.291 90.1136C118.114 87.3471 116.908 85.287 114.671 83.9331C112.434 82.5205 109.697 82.0201 106.46 82.4322C104.223 82.7265 102.281 83.5505 100.633 84.9043C99.0433 86.2582 97.8955 87.7886 97.1892 89.4956C96.836 90.4373 96.2474 91.1731 95.4233 91.7029C94.6581 92.2326 93.8046 92.6152 92.8628 92.8507C91.9211 93.0861 90.9204 93.1744 89.8609 93.1155C88.8014 93.0567 87.8302 92.9095 86.9472 92.6741C85.77 92.3209 84.8282 91.8206 84.1219 91.1731C83.4155 90.5256 82.9152 89.7604 82.6209 88.8775C82.3266 87.9946 82.2383 87.0528 82.356 86.0522C82.4738 84.9926 82.7386 83.9626 83.1507 82.9619C83.6804 81.5492 84.6516 80.1071 86.0643 78.6356C87.5359 77.1052 89.3017 75.7219 91.3619 74.4858C93.4809 73.1909 95.8648 72.1314 98.5136 71.3073C101.221 70.4832 104.135 70.0124 107.255 69.8946C110.668 69.8358 113.906 70.2772 116.967 71.219C120.086 72.1019 122.794 73.3969 125.09 75.1039C127.444 76.752 129.298 78.7239 130.652 81.0195C132.006 83.3151 132.683 85.7873 132.683 88.436C132.683 92.6741 131.564 96.0881 129.328 98.678C127.15 101.268 124.207 103.063 120.498 104.064C124.207 104.535 127.061 105.947 129.063 108.302C131.123 110.597 132.153 113.658 132.153 117.484C132.153 120.192 131.564 122.723 130.387 125.077C129.21 127.373 127.562 129.374 125.443 131.081C123.324 132.788 120.763 134.113 117.761 135.054C114.759 136.055 111.463 136.555 107.873 136.555C104.164 136.555 100.809 136.173 97.8072 135.408C94.8641 134.642 92.3331 133.612 90.2141 132.317C88.1539 131.022 86.5646 129.521 85.4463 127.814C84.3279 126.049 83.7687 124.224 83.7687 122.34C83.7687 121.104 84.0336 119.956 84.5634 118.897C85.152 117.837 86.0349 117.043 87.2121 116.513C87.9185 116.16 88.6542 115.895 89.4194 115.718C90.2435 115.542 91.0381 115.483 91.8033 115.542C92.6274 115.601 93.3632 115.807 94.0106 116.16C94.6581 116.454 95.1879 116.925 95.5999 117.573C96.9537 119.868 98.7196 121.516 100.897 122.517C103.075 123.459 105.636 123.959 108.579 124.018C109.874 124.018 111.081 123.871 112.199 123.576C113.317 123.282 114.288 122.841 115.113 122.252C115.937 121.605 116.584 120.839 117.055 119.956C117.526 119.074 117.761 118.073 117.761 116.955C117.702 115.424 116.878 114.07 115.289 112.893C113.759 111.657 111.875 110.951 109.638 110.774C109.285 110.774 108.579 110.745 107.519 110.686C106.46 110.627 105.312 110.568 104.076 110.509C102.899 110.391 101.78 110.303 100.721 110.244C99.6614 110.185 98.955 110.156 98.6019 110.156C97.248 110.097 96.2474 109.538 95.5999 108.478C95.0113 107.419 94.717 106.212 94.717 104.858C94.717 103.505 95.0113 102.327 95.5999 101.327C96.2474 100.267 97.248 99.6492 98.6019 99.4726C100.839 99.1783 102.899 99.0017 104.782 98.9429Z"/>
</mask>
<path d="M104.782 98.9429C106.725 98.8251 107.99 98.7074 108.579 98.5897C111.699 98.2954 114.141 97.383 115.907 95.8526C117.673 94.3222 118.468 92.4092 118.291 90.1136C118.114 87.3471 116.908 85.287 114.671 83.9331C112.434 82.5205 109.697 82.0201 106.46 82.4322C104.223 82.7265 102.281 83.5505 100.633 84.9043C99.0433 86.2582 97.8955 87.7886 97.1892 89.4956C96.836 90.4373 96.2474 91.1731 95.4233 91.7029C94.6581 92.2326 93.8046 92.6152 92.8628 92.8507C91.9211 93.0861 90.9204 93.1744 89.8609 93.1155C88.8014 93.0567 87.8302 92.9095 86.9472 92.6741C85.77 92.3209 84.8282 91.8206 84.1219 91.1731C83.4155 90.5256 82.9152 89.7604 82.6209 88.8775C82.3266 87.9946 82.2383 87.0528 82.356 86.0522C82.4738 84.9926 82.7386 83.9626 83.1507 82.9619C83.6804 81.5492 84.6516 80.1071 86.0643 78.6356C87.5359 77.1052 89.3017 75.7219 91.3619 74.4858C93.4809 73.1909 95.8648 72.1314 98.5136 71.3073C101.221 70.4832 104.135 70.0124 107.255 69.8946C110.668 69.8358 113.906 70.2772 116.967 71.219C120.086 72.1019 122.794 73.3969 125.09 75.1039C127.444 76.752 129.298 78.7239 130.652 81.0195C132.006 83.3151 132.683 85.7873 132.683 88.436C132.683 92.6741 131.564 96.0881 129.328 98.678C127.15 101.268 124.207 103.063 120.498 104.064C124.207 104.535 127.061 105.947 129.063 108.302C131.123 110.597 132.153 113.658 132.153 117.484C132.153 120.192 131.564 122.723 130.387 125.077C129.21 127.373 127.562 129.374 125.443 131.081C123.324 132.788 120.763 134.113 117.761 135.054C114.759 136.055 111.463 136.555 107.873 136.555C104.164 136.555 100.809 136.173 97.8072 135.408C94.8641 134.642 92.3331 133.612 90.2141 132.317C88.1539 131.022 86.5646 129.521 85.4463 127.814C84.3279 126.049 83.7687 124.224 83.7687 122.34C83.7687 121.104 84.0336 119.956 84.5634 118.897C85.152 117.837 86.0349 117.043 87.2121 116.513C87.9185 116.16 88.6542 115.895 89.4194 115.718C90.2435 115.542 91.0381 115.483 91.8033 115.542C92.6274 115.601 93.3632 115.807 94.0106 116.16C94.6581 116.454 95.1879 116.925 95.5999 117.573C96.9537 119.868 98.7196 121.516 100.897 122.517C103.075 123.459 105.636 123.959 108.579 124.018C109.874 124.018 111.081 123.871 112.199 123.576C113.317 123.282 114.288 122.841 115.113 122.252C115.937 121.605 116.584 120.839 117.055 119.956C117.526 119.074 117.761 118.073 117.761 116.955C117.702 115.424 116.878 114.07 115.289 112.893C113.759 111.657 111.875 110.951 109.638 110.774C109.285 110.774 108.579 110.745 107.519 110.686C106.46 110.627 105.312 110.568 104.076 110.509C102.899 110.391 101.78 110.303 100.721 110.244C99.6614 110.185 98.955 110.156 98.6019 110.156C97.248 110.097 96.2474 109.538 95.5999 108.478C95.0113 107.419 94.717 106.212 94.717 104.858C94.717 103.505 95.0113 102.327 95.5999 101.327C96.2474 100.267 97.248 99.6492 98.6019 99.4726C100.839 99.1783 102.899 99.0017 104.782 98.9429Z" fill="white"/>
<path d="M104.782 98.9429L105.012 106.297L105.12 106.294L105.227 106.287L104.782 98.9429ZM108.579 98.5897L107.888 91.2645L107.509 91.3002L107.136 91.3749L108.579 98.5897ZM115.907 95.8526L120.726 101.413L120.726 101.413L115.907 95.8526ZM118.291 90.1136L110.948 90.5823L110.951 90.6301L110.955 90.6779L118.291 90.1136ZM114.671 83.9331L110.742 90.154L110.801 90.1914L110.861 90.2276L114.671 83.9331ZM106.46 82.4322L105.531 75.1333L105.515 75.1353L105.5 75.1373L106.46 82.4322ZM100.633 84.9043L95.9624 79.2189L95.9115 79.2606L95.8614 79.3033L100.633 84.9043ZM97.1892 89.4956L90.3905 86.6823L90.3433 86.7964L90.2999 86.9121L97.1892 89.4956ZM95.4233 91.7029L91.4446 85.5137L91.3387 85.5818L91.2352 85.6534L95.4233 91.7029ZM89.8609 93.1155L90.269 85.7692L90.269 85.7692L89.8609 93.1155ZM86.9472 92.6741L84.833 99.7215L84.9418 99.7541L85.0514 99.7834L86.9472 92.6741ZM84.1219 91.1731L79.1501 96.5969L79.1501 96.5969L84.1219 91.1731ZM82.6209 88.8775L89.601 86.5508L89.601 86.5508L82.6209 88.8775ZM82.356 86.0522L89.6633 86.9118L89.6661 86.8883L89.6687 86.8647L82.356 86.0522ZM83.1507 82.9619L89.9542 85.7634L89.9988 85.655L90.0399 85.5454L83.1507 82.9619ZM86.0643 78.6356L80.7606 73.5359L80.7566 73.5401L86.0643 78.6356ZM91.3619 74.4858L95.1474 80.795L95.173 80.7796L95.1985 80.764L91.3619 74.4858ZM98.5136 71.3073L96.3713 64.2684L96.3495 64.275L96.3278 64.2818L98.5136 71.3073ZM107.255 69.8946L107.128 62.538L107.052 62.5393L106.977 62.5422L107.255 69.8946ZM116.967 71.219L114.803 78.2514L114.883 78.2759L114.963 78.2986L116.967 71.219ZM125.09 75.1039L120.699 81.0082L120.784 81.0711L120.87 81.1316L125.09 75.1039ZM130.652 81.0195L136.99 77.2819V77.2819L130.652 81.0195ZM129.328 98.678L123.759 93.8688L123.728 93.9055L123.696 93.9426L129.328 98.678ZM120.498 104.064L118.582 96.9602L119.572 111.363L120.498 104.064ZM129.063 108.302L123.457 113.067L123.521 113.142L123.587 113.216L129.063 108.302ZM130.387 125.077L136.934 128.435L136.951 128.401L136.968 128.368L130.387 125.077ZM125.443 131.081L120.827 125.351V125.351L125.443 131.081ZM117.761 135.054L115.559 128.034L115.497 128.054L115.435 128.074L117.761 135.054ZM97.8072 135.408L95.9558 142.529L95.9728 142.533L95.9898 142.537L97.8072 135.408ZM90.2141 132.317L86.2985 138.547L86.3378 138.571L86.3774 138.596L90.2141 132.317ZM85.4463 127.814L79.2303 131.751L79.2607 131.799L79.2918 131.847L85.4463 127.814ZM84.5634 118.897L78.1316 115.324L78.0539 115.463L77.9824 115.606L84.5634 118.897ZM87.2121 116.513L90.2315 123.223L90.3683 123.161L90.5026 123.094L87.2121 116.513ZM89.4194 115.718L87.8778 108.524L87.8213 108.536L87.765 108.549L89.4194 115.718ZM91.8033 115.542L91.239 122.878L91.2591 122.879L91.2791 122.881L91.8033 115.542ZM94.0106 116.16L90.4874 122.619L90.7224 122.747L90.966 122.858L94.0106 116.16ZM95.5999 117.573L101.938 113.835L101.874 113.728L101.807 113.622L95.5999 117.573ZM100.897 122.517L97.8256 129.203L97.901 129.237L97.9771 129.27L100.897 122.517ZM108.579 124.018L108.432 131.374L108.505 131.376H108.579V124.018ZM112.199 123.576L110.326 116.461H110.326L112.199 123.576ZM115.113 122.252L119.389 128.239L119.526 128.141L119.658 128.038L115.113 122.252ZM117.055 119.956L110.563 116.494L110.563 116.494L117.055 119.956ZM117.761 116.955H125.119V116.813L125.114 116.672L117.761 116.955ZM115.289 112.893L110.666 118.617L110.786 118.714L110.91 118.805L115.289 112.893ZM109.638 110.774L110.217 103.439L109.928 103.416H109.638V110.774ZM107.519 110.686L107.928 103.339H107.928L107.519 110.686ZM104.076 110.509L103.344 117.83L103.535 117.849L103.726 117.859L104.076 110.509ZM100.721 110.244L100.313 117.591L100.721 110.244ZM98.6019 110.156L98.2823 117.507L98.442 117.514H98.6019V110.156ZM95.5999 108.478L89.1681 112.052L89.2422 112.185L89.3217 112.315L95.5999 108.478ZM95.5999 101.327L89.3217 97.4901L89.2894 97.5429L89.2581 97.5962L95.5999 101.327ZM98.6019 99.4726L99.5535 106.769L99.5617 106.767L98.6019 99.4726ZM104.782 98.9429L105.227 106.287C107.056 106.176 108.847 106.039 110.022 105.805L108.579 98.5897L107.136 91.3749C107.242 91.3537 107.1 91.385 106.507 91.4402C105.982 91.489 105.266 91.5423 104.337 91.5986L104.782 98.9429ZM108.579 98.5897L109.27 105.915C113.403 105.525 117.465 104.239 120.726 101.413L115.907 95.8526L111.088 90.2925C110.817 90.5273 109.994 91.0658 107.888 91.2645L108.579 98.5897ZM115.907 95.8526L120.726 101.413C124.223 98.3821 125.986 94.2107 125.627 89.5493L118.291 90.1136L110.955 90.6779C110.961 90.7514 110.953 90.7515 110.962 90.6945C110.971 90.6345 110.992 90.5464 111.033 90.4476C111.074 90.3491 111.118 90.2791 111.145 90.2427C111.17 90.2089 111.162 90.2286 111.088 90.2925L115.907 95.8526ZM118.291 90.1136L125.634 89.6449C125.315 84.6466 122.92 80.3256 118.481 77.6386L114.671 83.9331L110.861 90.2276C110.962 90.2884 110.989 90.3192 110.975 90.3059C110.96 90.2903 110.931 90.2564 110.905 90.2122C110.88 90.1693 110.881 90.1563 110.893 90.1982C110.906 90.2437 110.934 90.3643 110.948 90.5823L118.291 90.1136ZM114.671 83.9331L118.6 77.7123C114.605 75.1889 110.055 74.5575 105.531 75.1333L106.46 82.4322L107.389 89.731C109.34 89.4827 110.264 89.852 110.742 90.154L114.671 83.9331ZM106.46 82.4322L105.5 75.1373C101.983 75.6001 98.735 76.9413 95.9624 79.2189L100.633 84.9043L105.303 90.5898C105.826 90.1597 106.464 89.8528 107.42 89.727L106.46 82.4322ZM100.633 84.9043L95.8614 79.3033C93.5016 81.3135 91.5974 83.7656 90.3905 86.6823L97.1892 89.4956L103.988 92.3088C104.194 91.8115 104.585 91.2028 105.404 90.5054L100.633 84.9043ZM97.1892 89.4956L90.2999 86.9121C90.3776 86.705 90.5149 86.4356 90.7374 86.1574C90.9613 85.8775 91.2122 85.6631 91.4446 85.5137L95.4233 91.7029L99.4021 97.892C101.597 96.4809 103.185 94.4622 104.078 92.079L97.1892 89.4956ZM95.4233 91.7029L91.2352 85.6534C91.2303 85.6569 91.1974 85.6829 91.0783 85.7126L92.8628 92.8507L94.6474 99.9887C96.4118 99.5476 98.086 98.8084 99.6114 97.7523L95.4233 91.7029ZM92.8628 92.8507L91.0783 85.7126C90.9162 85.7532 90.6595 85.7909 90.269 85.7692L89.8609 93.1155L89.4528 100.462C91.1813 100.558 92.9259 100.419 94.6474 99.9887L92.8628 92.8507ZM89.8609 93.1155L90.269 85.7692C89.6338 85.7339 89.1691 85.6517 88.8431 85.5648L86.9472 92.6741L85.0514 99.7834C86.4913 100.167 87.969 100.379 89.4528 100.462L89.8609 93.1155ZM86.9472 92.6741L89.0615 85.6267C88.8673 85.5684 88.7953 85.5285 88.8099 85.5363C88.8279 85.5458 88.9393 85.6079 89.0937 85.7493L84.1219 91.1731L79.1501 96.5969C80.8718 98.1751 82.8834 99.1366 84.833 99.7215L86.9472 92.6741ZM84.1219 91.1731L89.0937 85.7494C89.1709 85.8202 89.2738 85.9322 89.3751 86.0871C89.477 86.2429 89.552 86.4036 89.601 86.5508L82.6209 88.8775L75.6408 91.2042C76.3425 93.3094 77.5504 95.1305 79.1501 96.5969L84.1219 91.1731ZM82.6209 88.8775L89.601 86.5508C89.634 86.6497 89.6522 86.7443 89.6595 86.8222C89.6667 86.8982 89.661 86.9319 89.6633 86.9118L82.356 86.0522L75.0487 85.1925C74.8153 87.1764 74.9772 89.2134 75.6408 91.2042L82.6209 88.8775ZM82.356 86.0522L89.6687 86.8647C89.7094 86.4991 89.8 86.1378 89.9542 85.7634L83.1507 82.9619L76.3472 80.1605C75.6773 81.7873 75.2382 83.4862 75.0433 85.2396L82.356 86.0522ZM83.1507 82.9619L90.0399 85.5454C90.1184 85.3361 90.422 84.7207 91.3721 83.731L86.0643 78.6356L80.7566 73.5401C78.8813 75.4936 77.2425 77.7624 76.2614 80.3784L83.1507 82.9619ZM86.0643 78.6356L91.368 83.7353C92.3345 82.7301 93.5726 81.7399 95.1474 80.795L91.3619 74.4858L87.5764 68.1767C85.0308 69.704 82.7372 71.4803 80.7606 73.5359L86.0643 78.6356ZM91.3619 74.4858L95.1985 80.764C96.7439 79.8197 98.563 78.9975 100.699 78.3329L98.5136 71.3073L96.3278 64.2818C93.1666 65.2653 90.2179 66.5621 87.5252 68.2076L91.3619 74.4858ZM98.5136 71.3073L100.656 78.3462C102.699 77.7243 104.981 77.3434 107.532 77.2471L107.255 69.8946L106.977 62.5422C103.289 62.6813 99.7431 63.2422 96.3713 64.2684L98.5136 71.3073ZM107.255 69.8946L107.381 77.2512C110.071 77.2049 112.531 77.5524 114.803 78.2514L116.967 71.219L119.13 64.1867C115.28 63.002 111.266 62.4667 107.128 62.538L107.255 69.8946ZM116.967 71.219L114.963 78.2986C117.336 78.9703 119.21 79.901 120.699 81.0082L125.09 75.1039L129.48 69.1996C126.378 66.8928 122.837 65.2336 118.97 64.1394L116.967 71.219ZM125.09 75.1039L120.87 81.1316C122.432 82.2245 123.536 83.4369 124.314 84.7571L130.652 81.0195L136.99 77.2819C135.061 74.0109 132.457 71.2795 129.309 69.0762L125.09 75.1039ZM130.652 81.0195L124.314 84.7571C125.005 85.9277 125.325 87.1104 125.325 88.436H132.683H140.04C140.04 84.4642 139.007 80.7025 136.99 77.2819L130.652 81.0195ZM132.683 88.436H125.325C125.325 91.3448 124.585 92.9123 123.759 93.8688L129.328 98.678L134.896 103.487C138.544 99.2638 140.04 94.0033 140.04 88.436H132.683ZM129.328 98.678L123.696 93.9426C122.613 95.231 121.042 96.2962 118.582 96.9602L120.498 104.064L122.415 111.167C127.371 109.83 131.687 107.305 134.959 103.413L129.328 98.678ZM120.498 104.064L119.572 111.363C121.861 111.654 122.883 112.392 123.457 113.067L129.063 108.302L134.669 103.537C131.24 99.5024 126.553 97.4158 121.425 96.7647L120.498 104.064ZM129.063 108.302L123.587 113.216C124.163 113.858 124.795 115.018 124.795 117.484H132.153H139.511C139.511 112.299 138.083 107.337 134.539 103.388L129.063 108.302ZM132.153 117.484H124.795C124.795 119.083 124.458 120.484 123.806 121.787L130.387 125.077L136.968 128.368C138.671 124.962 139.511 121.3 139.511 117.484H132.153ZM130.387 125.077L123.84 121.72C123.159 123.048 122.188 124.255 120.827 125.351L125.443 131.081L130.058 136.811C132.936 134.493 135.261 131.698 136.934 128.435L130.387 125.077ZM125.443 131.081L120.827 125.351C119.527 126.398 117.818 127.325 115.559 128.034L117.761 135.054L119.964 142.075C123.708 140.9 127.12 139.178 130.058 136.811L125.443 131.081ZM117.761 135.054L115.435 128.074C113.276 128.794 110.777 129.198 107.873 129.198V136.555V143.913C112.149 143.913 116.242 143.316 120.088 142.035L117.761 135.054ZM107.873 136.555V129.198C104.661 129.198 101.93 128.865 99.6246 128.278L97.8072 135.408L95.9898 142.537C99.6887 143.48 103.668 143.913 107.873 143.913V136.555ZM97.8072 135.408L99.6587 128.287C97.2644 127.664 95.4329 126.884 94.0507 126.039L90.2141 132.317L86.3774 138.596C89.2333 140.341 92.4639 141.621 95.9558 142.529L97.8072 135.408ZM90.2141 132.317L94.1296 126.088C92.7951 125.249 92.0387 124.451 91.6007 123.782L85.4463 127.814L79.2918 131.847C81.0906 134.592 83.5127 136.796 86.2985 138.547L90.2141 132.317ZM85.4463 127.814L91.6622 123.878C91.2051 123.156 91.1264 122.68 91.1264 122.34H83.7687H76.411C76.411 125.768 77.4507 128.941 79.2303 131.751L85.4463 127.814ZM83.7687 122.34H91.1264C91.1264 122.252 91.1354 122.212 91.1367 122.207C91.1376 122.203 91.1382 122.201 91.1385 122.2C91.1387 122.2 91.1401 122.196 91.1443 122.187L84.5634 118.897L77.9824 115.606C76.9194 117.732 76.411 120.013 76.411 122.34H83.7687ZM84.5634 118.897L90.9951 122.47C90.9026 122.637 90.7645 122.817 90.5891 122.975C90.4174 123.13 90.2774 123.202 90.2315 123.223L87.2121 116.513L84.1928 109.803C81.67 110.939 79.5417 112.785 78.1316 115.324L84.5634 118.897ZM87.2121 116.513L90.5026 123.094C90.6917 122.999 90.8786 122.933 91.0739 122.888L89.4194 115.718L87.765 108.549C86.4299 108.857 85.1452 109.32 83.9217 109.932L87.2121 116.513ZM89.4194 115.718L90.9611 122.913C91.0629 122.891 91.1339 122.883 91.177 122.879C91.2195 122.876 91.2389 122.878 91.239 122.878L91.8033 115.542L92.3676 108.206C90.8319 108.088 89.3261 108.214 87.8778 108.524L89.4194 115.718ZM91.8033 115.542L91.2791 122.881C91.1789 122.874 90.8705 122.828 90.4874 122.619L94.0106 116.16L97.5339 109.701C95.8558 108.785 94.0759 108.328 92.3275 108.203L91.8033 115.542ZM94.0106 116.16L90.966 122.858C90.621 122.701 90.2934 122.489 90.0054 122.233C89.7206 121.98 89.5223 121.727 89.3925 121.523L95.5999 117.573L101.807 113.622C100.693 111.871 99.1043 110.393 97.0553 109.462L94.0106 116.16ZM95.5999 117.573L89.2622 121.31C91.2895 124.748 94.1329 127.506 97.8256 129.203L100.897 122.517L103.969 115.831C103.306 115.527 102.618 114.989 101.938 113.835L95.5999 117.573ZM100.897 122.517L97.9771 129.27C101.215 130.67 104.756 131.301 108.432 131.374L108.579 124.018L108.726 116.662C106.515 116.617 104.936 116.247 103.818 115.764L100.897 122.517ZM108.579 124.018V131.376C110.431 131.376 112.274 131.165 114.071 130.692L112.199 123.576L110.326 116.461C109.887 116.577 109.316 116.66 108.579 116.66V124.018ZM112.199 123.576L114.071 130.692C115.932 130.202 117.743 129.415 119.389 128.239L115.113 122.252L110.836 116.265C110.834 116.267 110.703 116.362 110.326 116.461L112.199 123.576ZM115.113 122.252L119.658 128.038C121.247 126.79 122.573 125.245 123.547 123.419L117.055 119.956L110.563 116.494C110.567 116.486 110.573 116.476 110.58 116.465C110.588 116.455 110.594 116.446 110.599 116.44C110.604 116.434 110.606 116.433 110.602 116.437C110.598 116.44 110.587 116.451 110.567 116.467L115.113 122.252ZM117.055 119.956L123.547 123.419C124.651 121.35 125.119 119.136 125.119 116.955H117.761H110.404C110.404 116.996 110.4 116.957 110.423 116.859C110.447 116.757 110.491 116.629 110.563 116.494L117.055 119.956ZM117.761 116.955L125.114 116.672C124.945 112.291 122.485 109.067 119.669 106.981L115.289 112.893L110.91 118.805C111.123 118.964 111.002 118.926 110.814 118.617C110.598 118.262 110.43 117.769 110.409 117.237L117.761 116.955ZM115.289 112.893L119.912 107.169C117.07 104.874 113.719 103.716 110.217 103.439L109.638 110.774L109.059 118.109C110.031 118.186 110.447 118.44 110.666 118.617L115.289 112.893ZM109.638 110.774V103.416C109.643 103.416 109.606 103.416 109.512 103.414C109.422 103.411 109.303 103.407 109.15 103.401C108.843 103.388 108.438 103.368 107.928 103.339L107.519 110.686L107.111 118.032C108.136 118.089 109.047 118.132 109.638 118.132V110.774ZM107.519 110.686L107.928 103.339C106.846 103.279 105.678 103.219 104.426 103.16L104.076 110.509L103.726 117.859C104.946 117.917 106.074 117.975 107.111 118.032L107.519 110.686ZM104.076 110.509L104.808 103.188C103.535 103.061 102.308 102.963 101.129 102.898L100.721 110.244L100.313 117.591C101.253 117.643 102.262 117.722 103.344 117.83L104.076 110.509ZM100.721 110.244L101.129 102.898C100.104 102.841 99.1934 102.798 98.6019 102.798V110.156V117.514C98.5975 117.514 98.6343 117.514 98.7286 117.516C98.818 117.519 98.9372 117.523 99.0902 117.529C99.3972 117.542 99.802 117.562 100.313 117.591L100.721 110.244ZM98.6019 110.156L98.9215 102.805C99.184 102.817 99.7559 102.896 100.425 103.27C101.119 103.657 101.599 104.185 101.878 104.642L95.5999 108.478L89.3217 112.315C91.3784 115.681 94.745 117.353 98.2823 117.507L98.6019 110.156ZM95.5999 108.478L102.032 104.905C102.047 104.932 102.059 104.959 102.069 104.985C102.079 105.011 102.084 105.028 102.086 105.035C102.088 105.042 102.085 105.033 102.082 105.006C102.079 104.979 102.075 104.93 102.075 104.858H94.717H87.3593C87.3593 107.314 87.9037 109.776 89.1681 112.052L95.5999 108.478ZM94.717 104.858H102.075C102.075 104.715 102.09 104.687 102.076 104.745C102.069 104.773 102.055 104.818 102.032 104.875C102.009 104.932 101.979 104.994 101.942 105.057L95.5999 101.327L89.2581 97.5962C87.9008 99.9036 87.3593 102.413 87.3593 104.858H94.717ZM95.5999 101.327L101.878 105.163C101.634 105.563 101.24 105.996 100.702 106.328C100.184 106.649 99.7455 106.743 99.5535 106.769L98.6019 99.4726L97.6502 92.1767C94.3394 92.6086 91.2555 94.3256 89.3217 97.4901L95.5999 101.327ZM98.6019 99.4726L99.5617 106.767C101.602 106.499 103.415 106.347 105.012 106.297L104.782 98.9429L104.553 91.5887C102.383 91.6565 100.075 91.8576 97.642 92.1778L98.6019 99.4726Z" fill="#00BED4" mask="url(#path-25-outside-1_2944_11232)"/>
<path d="M104.586 18.2857C105.882 15.7468 109.51 15.7468 110.805 18.2857L115.435 27.3579C115.942 28.3519 116.894 29.0435 117.996 29.2188L128.055 30.8186C130.87 31.2663 131.991 34.7166 129.977 36.7335L122.78 43.9402C121.991 44.7298 121.628 45.8488 121.801 46.9511L123.388 57.012C123.832 59.8277 120.897 61.9601 118.357 60.6676L109.279 56.0494C108.284 55.5434 107.107 55.5434 106.113 56.0494L97.0346 60.6676C94.494 61.9601 91.559 59.8277 92.0031 57.012L93.59 46.9511C93.7638 45.8488 93.4003 44.7298 92.6117 43.9402L85.4142 36.7335C83.3999 34.7166 84.521 31.2663 87.3361 30.8186L97.3949 29.2188C98.497 29.0435 99.4489 28.3519 99.9562 27.3579L104.586 18.2857Z" fill="url(#paint9_radial_2944_11232)"/>
<path d="M106.14 21.5745C106.788 20.305 108.602 20.305 109.25 21.5745L113.939 30.7627C114.192 31.2597 114.668 31.6055 115.219 31.6931L125.407 33.3133C126.814 33.5372 127.375 35.2624 126.368 36.2708L119.078 43.5696C118.684 43.9644 118.502 44.5239 118.589 45.0751L120.196 55.2646C120.418 56.6725 118.951 57.7387 117.68 57.0924L108.486 52.4152C107.989 52.1622 107.401 52.1622 106.903 52.4152L97.7092 57.0924C96.4389 57.7387 94.9714 56.6725 95.1934 55.2646L96.8006 45.0751C96.8875 44.5239 96.7057 43.9644 96.3114 43.5696L89.022 36.2708C88.0148 35.2623 88.5754 33.5372 89.9829 33.3133L100.17 31.6931C100.721 31.6055 101.197 31.2597 101.451 30.7627L106.14 21.5745Z" fill="url(#paint10_radial_2944_11232)"/>
<path d="M111.447 32.5603C111.105 30.3594 113.334 30.2009 114.492 30.3968C115.649 30.5927 118.803 31.3051 122.158 32.5872C126.351 34.1899 125.189 35.7792 124.174 36.5004C122.739 37.5203 120.555 36.7808 117.951 36.34C115.346 35.8992 111.874 35.3115 111.447 32.5603Z" fill="url(#paint11_radial_2944_11232)"/>
<path d="M124.038 33.8138C124.109 31.6826 125.067 31.309 125.537 31.3887C126.008 31.4683 127.272 31.8608 128.566 32.7942C130.183 33.9608 129.536 35.6373 129.036 36.4457C128.33 37.5889 127.478 37.0749 126.42 36.8958C125.361 36.7166 123.95 36.4778 124.038 33.8138Z" fill="url(#paint12_radial_2944_11232)" fill-opacity="0.56"/>
<path d="M94.7944 31.9777C94.1081 30.6251 95.3685 30.0298 96.0845 29.9013C96.8005 29.7727 98.7908 29.5384 101.024 29.6293C103.816 29.743 103.493 31.0309 103.063 31.7231C102.455 32.7019 101.022 32.7045 99.4112 32.9937C97.8002 33.2829 95.6523 33.6686 94.7944 31.9777Z" fill="url(#paint13_radial_2944_11232)" fill-opacity="0.5"/>
<path d="M100.465 56.1998C99.3444 55.1781 100.312 54.1748 100.936 53.8009C101.56 53.427 103.338 52.5027 105.459 51.7963C108.11 50.9134 108.264 52.2322 108.107 53.0318C107.886 54.1626 106.547 54.6727 105.143 55.514C103.739 56.3553 101.867 57.477 100.465 56.1998Z" fill="url(#paint14_radial_2944_11232)" fill-opacity="0.5"/>
<path d="M117.304 44.6685C119.174 43.4575 120.229 45.4278 120.523 46.5644C120.817 47.7009 121.454 50.8704 121.654 54.4564C121.904 58.9388 119.979 58.5272 118.906 57.8953C117.389 57.0015 117.172 54.7061 116.511 52.1489C115.849 49.5917 114.968 46.1821 117.304 44.6685Z" fill="url(#paint15_radial_2944_11232)"/>
<path d="M109.557 23.5765C111.171 22.041 112.572 23.7824 113.07 24.8451C113.569 25.9077 114.782 28.9049 115.641 32.3921C116.714 36.7512 114.746 36.7025 113.575 36.2796C111.919 35.6816 111.282 33.4658 110.159 31.0748C109.037 28.6838 107.54 25.4958 109.557 23.5765Z" fill="url(#paint16_radial_2944_11232)"/>
<path d="M69.0221 38.5201C70.3178 35.9812 73.9457 35.9812 75.2414 38.5201L77.5054 42.9565C78.0127 43.9505 78.9646 44.6421 80.0667 44.8174L84.9856 45.5997C87.8007 46.0474 88.9218 49.4977 86.9075 51.5146L83.3879 55.0387C82.5993 55.8283 82.2357 56.9474 82.4095 58.0497L83.1855 62.9696C83.6296 65.7852 80.6946 67.9177 78.154 66.6252L73.7147 64.3668C72.7201 63.8608 71.5435 63.8608 70.5488 64.3668L66.1095 66.6252C63.5689 67.9176 60.6339 65.7853 61.078 62.9696L61.854 58.0497C62.0279 56.9474 61.6643 55.8283 60.8757 55.0387L57.3561 51.5146C55.3418 49.4977 56.4628 46.0474 59.2779 45.5997L64.1968 44.8174C65.2989 44.6421 66.2508 43.9505 66.7581 42.9565L69.0221 38.5201Z" fill="url(#paint17_radial_2944_11232)"/>
<path d="M70.5799 40.0569C71.2278 38.7875 73.0417 38.7875 73.6895 40.0569L76.5385 45.6395C76.7921 46.1365 77.2681 46.4823 77.8191 46.5699L84.0088 47.5543C85.4164 47.7782 85.9769 49.5033 84.9698 50.5118L80.5408 54.9464C80.1465 55.3412 79.9647 55.9007 80.0517 56.4519L81.0281 62.6429C81.2502 64.0507 79.7827 65.1169 78.5124 64.4707L72.9262 61.6289C72.4289 61.3759 71.8406 61.3759 71.3432 61.6289L65.757 64.4707C64.4867 65.1169 63.0192 64.0507 63.2413 62.6429L64.2178 56.4519C64.3047 55.9007 64.1229 55.3412 63.7286 54.9464L59.2997 50.5118C58.2925 49.5033 58.853 47.7782 60.2606 47.5543L66.4503 46.5699C67.0013 46.4823 67.4773 46.1365 67.7309 45.6395L70.5799 40.0569Z" fill="url(#paint18_radial_2944_11232)"/>
<path d="M74.8447 47.1568C74.5975 45.5651 76.2098 45.4505 77.0469 45.5922C77.884 45.7339 80.1646 46.249 82.5908 47.1763C85.6236 48.3354 84.7833 49.4847 84.0492 50.0062C83.0111 50.7438 81.4318 50.209 79.5484 49.8903C77.665 49.5715 75.1538 49.1465 74.8447 47.1568Z" fill="url(#paint19_radial_2944_11232)"/>
<path d="M83.9516 48.063C84.0025 46.5217 84.6956 46.2516 85.0358 46.3091C85.376 46.3667 86.2903 46.6506 87.2259 47.3256C88.3954 48.1693 87.9277 49.3817 87.5663 49.9663C87.0552 50.7931 86.4394 50.4214 85.674 50.2919C84.9085 50.1623 83.888 49.9896 83.9516 48.063Z" fill="url(#paint20_radial_2944_11232)" fill-opacity="0.56"/>
<path d="M62.8025 46.7343C62.3062 45.756 63.2177 45.3255 63.7355 45.2326C64.2532 45.1396 65.6926 44.9701 67.3079 45.0359C69.327 45.1181 69.0933 46.0495 68.7823 46.5501C68.3425 47.258 67.3063 47.2598 66.1413 47.469C64.9763 47.6782 63.4229 47.9571 62.8025 46.7343Z" fill="url(#paint21_radial_2944_11232)" fill-opacity="0.5"/>
<path d="M66.9046 64.2495C66.0939 63.5106 66.7937 62.7851 67.245 62.5147C67.6962 62.2443 68.9822 61.5758 70.5159 61.0649C72.4331 60.4264 72.5447 61.3802 72.4312 61.9584C72.2708 62.7763 71.3025 63.1451 70.2871 63.7535C69.2718 64.362 67.9181 65.1732 66.9046 64.2495Z" fill="url(#paint22_radial_2944_11232)" fill-opacity="0.5"/>
<path d="M79.0818 55.9139C80.4338 55.0381 81.1968 56.4631 81.4094 57.285C81.6219 58.1069 82.0831 60.3991 82.2276 62.9925C82.4082 66.2341 81.0159 65.9365 80.24 65.4794C79.1428 64.8331 78.9859 63.173 78.5077 61.3237C78.0295 59.4744 77.3919 57.0086 79.0818 55.9139Z" fill="url(#paint23_radial_2944_11232)"/>
<path d="M73.4782 40.6561C74.645 39.5457 75.6582 40.8051 76.019 41.5736C76.3798 42.3421 77.2566 44.5096 77.8777 47.0316C78.6541 50.184 77.2308 50.1488 76.3839 49.843C75.1861 49.4105 74.7252 47.808 73.9135 46.0789C73.1018 44.3497 72.0196 42.0442 73.4782 40.6561Z" fill="url(#paint24_radial_2944_11232)"/>
<path d="M140.761 38.5201C142.057 35.9812 145.685 35.9812 146.981 38.5201L149.245 42.9565C149.752 43.9505 150.704 44.6421 151.806 44.8174L156.725 45.5997C159.54 46.0474 160.661 49.4977 158.647 51.5146L155.127 55.0387C154.339 55.8283 153.975 56.9474 154.149 58.0497L154.925 62.9696C155.369 65.7852 152.434 67.9177 149.893 66.6252L145.454 64.3668C144.459 63.8608 143.283 63.8608 142.288 64.3668L137.849 66.6252C135.308 67.9176 132.373 65.7853 132.817 62.9696L133.593 58.0497C133.767 56.9474 133.404 55.8283 132.615 55.0387L129.095 51.5146C127.081 49.4977 128.202 46.0474 131.017 45.5997L135.936 44.8174C137.038 44.6421 137.99 43.9505 138.497 42.9565L140.761 38.5201Z" fill="url(#paint25_radial_2944_11232)"/>
<path d="M142.317 40.0569C142.965 38.7875 144.779 38.7875 145.427 40.0569L148.276 45.6395C148.529 46.1365 149.005 46.4823 149.556 46.5699L155.746 47.5543C157.154 47.7782 157.714 49.5033 156.707 50.5118L152.278 54.9464C151.884 55.3412 151.702 55.9007 151.789 56.4519L152.765 62.6429C152.988 64.0507 151.52 65.1169 150.25 64.4707L144.664 61.6289C144.166 61.3759 143.578 61.3759 143.081 61.6289L137.494 64.4707C136.224 65.1169 134.757 64.0507 134.979 62.6429L135.955 56.4519C136.042 55.9007 135.86 55.3412 135.466 54.9464L131.037 50.5118C130.03 49.5033 130.59 47.7782 131.998 47.5543L138.188 46.5699C138.739 46.4823 139.215 46.1365 139.468 45.6395L142.317 40.0569Z" fill="url(#paint26_radial_2944_11232)"/>
<path d="M146.584 47.1568C146.337 45.5651 147.949 45.4505 148.786 45.5922C149.623 45.7339 151.904 46.249 154.33 47.1763C157.363 48.3354 156.523 49.4847 155.788 50.0062C154.75 50.7438 153.171 50.209 151.288 49.8903C149.404 49.5715 146.893 49.1465 146.584 47.1568Z" fill="url(#paint27_radial_2944_11232)"/>
<path d="M155.69 48.063C155.741 46.5217 156.434 46.2516 156.774 46.3091C157.114 46.3667 158.029 46.6506 158.964 47.3256C160.134 48.1693 159.666 49.3817 159.305 49.9663C158.793 50.7931 158.178 50.4214 157.412 50.2919C156.647 50.1623 155.626 49.9896 155.69 48.063Z" fill="url(#paint28_radial_2944_11232)" fill-opacity="0.56"/>
<path d="M134.542 46.7343C134.045 45.756 134.957 45.3255 135.475 45.2326C135.993 45.1396 137.432 44.9701 139.047 45.0359C141.066 45.1181 140.833 46.0495 140.522 46.5501C140.082 47.258 139.046 47.2598 137.881 47.469C136.716 47.6782 135.162 47.9571 134.542 46.7343Z" fill="url(#paint29_radial_2944_11232)" fill-opacity="0.5"/>
<path d="M138.644 64.2495C137.833 63.5106 138.533 62.7851 138.984 62.5147C139.435 62.2443 140.721 61.5758 142.255 61.0649C144.172 60.4264 144.284 61.3802 144.17 61.9584C144.01 62.7763 143.042 63.1451 142.026 63.7535C141.011 64.362 139.657 65.1732 138.644 64.2495Z" fill="url(#paint30_radial_2944_11232)" fill-opacity="0.5"/>
<path d="M150.82 55.9139C152.172 55.0381 152.935 56.4631 153.148 57.285C153.36 58.1069 153.821 60.3991 153.966 62.9925C154.146 66.2341 152.754 65.9365 151.978 65.4794C150.881 64.8331 150.724 63.173 150.246 61.3237C149.768 59.4744 149.13 57.0086 150.82 55.9139Z" fill="url(#paint31_radial_2944_11232)"/>
<path d="M145.217 40.6561C146.384 39.5457 147.398 40.8051 147.758 41.5736C148.119 42.3421 148.996 44.5096 149.617 47.0316C150.393 50.184 148.97 50.1488 148.123 49.843C146.925 49.4105 146.464 47.808 145.653 46.0789C144.841 44.3497 143.759 42.0442 145.217 40.6561Z" fill="url(#paint32_radial_2944_11232)"/>
<path d="M107.583 7.96582L172.896 55.7909V151.441L107.583 199.266L42.2709 151.441V55.7909L107.583 7.96582Z" fill="black" fill-opacity="0.3"/>
<path d="M12.8052 121.724C26.595 123.466 36.6272 135.715 35.6218 149.578C21.8324 147.834 11.7989 135.587 12.8052 121.724Z" fill="#00E5FF"/>
<path d="M12.8052 121.724C26.595 123.466 36.6272 135.715 35.6218 149.578C21.8324 147.834 11.7989 135.587 12.8052 121.724Z" fill="black" fill-opacity="0.3"/>
<path d="M12.8052 121.724C26.595 123.466 36.6272 135.715 35.6218 149.578C21.8324 147.834 11.7989 135.587 12.8052 121.724Z" stroke="#00E5FF" stroke-width="1.40178"/>
<path d="M12.8052 121.724C26.595 123.466 36.6272 135.715 35.6218 149.578C21.8324 147.834 11.7989 135.587 12.8052 121.724Z" stroke="black" stroke-opacity="0.3" stroke-width="1.40178"/>
<path d="M44.2108 131.158C53.103 138.459 54.799 151.437 48.0826 160.778C39.1907 153.477 37.494 140.499 44.2108 131.158Z" fill="#00E5FF"/>
<path d="M44.2108 131.158C53.103 138.459 54.799 151.437 48.0826 160.778C39.1907 153.477 37.494 140.499 44.2108 131.158Z" fill="black" fill-opacity="0.3"/>
<path d="M44.2108 131.158C53.103 138.459 54.799 151.437 48.0826 160.778C39.1907 153.477 37.494 140.499 44.2108 131.158Z" stroke="#00E5FF" stroke-width="1.40178"/>
<path d="M44.2108 131.158C53.103 138.459 54.799 151.437 48.0826 160.778C39.1907 153.477 37.494 140.499 44.2108 131.158Z" stroke="black" stroke-opacity="0.3" stroke-width="1.40178"/>
<path d="M16.2422 155.132C26.8807 148.657 40.7536 152.033 47.228 162.672C36.5895 169.146 22.7166 165.77 16.2422 155.132Z" fill="#00BED4"/>
<path d="M59.3992 147.434C69.6321 152.694 74.0286 165.021 69.4349 175.57C59.2024 170.31 54.8052 157.983 59.3992 147.434Z" fill="#00E5FF"/>
<path d="M59.3992 147.434C69.6321 152.694 74.0286 165.021 69.4349 175.57C59.2024 170.31 54.8052 157.983 59.3992 147.434Z" fill="black" fill-opacity="0.3"/>
<path d="M59.3992 147.434C69.6321 152.694 74.0286 165.021 69.4349 175.57C59.2024 170.31 54.8052 157.983 59.3992 147.434Z" stroke="#00E5FF" stroke-width="1.40178"/>
<path d="M59.3992 147.434C69.6321 152.694 74.0286 165.021 69.4349 175.57C59.2024 170.31 54.8052 157.983 59.3992 147.434Z" stroke="black" stroke-opacity="0.3" stroke-width="1.40178"/>
<path d="M34.9834 148.306C40.2357 156.004 56.3775 172.38 78.9264 176.301" stroke="#00E5FF" stroke-width="1.40178" stroke-linecap="round" stroke-linejoin="round"/>
<path d="M34.9834 148.306C40.2357 156.004 56.3775 172.38 78.9264 176.301" stroke="black" stroke-opacity="0.3" stroke-width="1.40178" stroke-linecap="round" stroke-linejoin="round"/>
<path d="M39.1885 182.34C46.0332 171.936 60.0162 169.05 70.4204 175.895C63.5757 186.299 49.5927 189.185 39.1885 182.34Z" fill="#00BED4"/>
<path d="M206.81 122.348C193.02 124.091 182.988 136.339 183.993 150.202C197.783 148.458 207.816 136.211 206.81 122.348Z" fill="#00E5FF"/>
<path d="M206.81 122.348C193.02 124.091 182.988 136.339 183.993 150.202C197.783 148.458 207.816 136.211 206.81 122.348Z" fill="black" fill-opacity="0.3"/>
<path d="M206.81 122.348C193.02 124.091 182.988 136.339 183.993 150.202C197.783 148.458 207.816 136.211 206.81 122.348Z" stroke="#00E5FF" stroke-width="1.40178"/>
<path d="M206.81 122.348C193.02 124.091 182.988 136.339 183.993 150.202C197.783 148.458 207.816 136.211 206.81 122.348Z" stroke="black" stroke-opacity="0.3" stroke-width="1.40178"/>
<path d="M175.404 131.783C166.511 139.084 164.815 152.062 171.532 161.403C180.424 154.102 182.12 141.124 175.404 131.783Z" fill="#00E5FF"/>
<path d="M175.404 131.783C166.511 139.084 164.815 152.062 171.532 161.403C180.424 154.102 182.12 141.124 175.404 131.783Z" fill="black" fill-opacity="0.3"/>
<path d="M175.404 131.783C166.511 139.084 164.815 152.062 171.532 161.403C180.424 154.102 182.12 141.124 175.404 131.783Z" stroke="#00E5FF" stroke-width="1.40178"/>
<path d="M175.404 131.783C166.511 139.084 164.815 152.062 171.532 161.403C180.424 154.102 182.12 141.124 175.404 131.783Z" stroke="black" stroke-opacity="0.3" stroke-width="1.40178"/>
<path d="M203.374 155.757C192.735 149.282 178.863 152.658 172.388 163.297C183.027 169.771 196.9 166.395 203.374 155.757Z" fill="#00BED4"/>
<path d="M160.225 148.062C149.992 153.322 145.595 165.649 150.189 176.198C160.422 170.938 164.819 158.611 160.225 148.062Z" fill="#00E5FF"/>
<path d="M160.225 148.062C149.992 153.322 145.595 165.649 150.189 176.198C160.422 170.938 164.819 158.611 160.225 148.062Z" fill="black" fill-opacity="0.3"/>
<path d="M160.225 148.062C149.992 153.322 145.595 165.649 150.189 176.198C160.422 170.938 164.819 158.611 160.225 148.062Z" stroke="#00E5FF" stroke-width="1.40178"/>
<path d="M160.225 148.062C149.992 153.322 145.595 165.649 150.189 176.198C160.422 170.938 164.819 158.611 160.225 148.062Z" stroke="black" stroke-opacity="0.3" stroke-width="1.40178"/>
<path d="M184.639 148.936C179.386 156.634 163.245 173.01 140.696 176.931" stroke="#00E5FF" stroke-width="1.40178" stroke-linecap="round" stroke-linejoin="round"/>
<path d="M184.639 148.936C179.386 156.634 163.245 173.01 140.696 176.931" stroke="black" stroke-opacity="0.3" stroke-width="1.40178" stroke-linecap="round" stroke-linejoin="round"/>
<path d="M180.433 182.97C173.588 172.566 159.605 169.68 149.201 176.525C156.045 186.929 170.028 189.814 180.433 182.97Z" fill="#00BED4"/>
<path d="M34.3477 180.78L68.9112 173.064L75.0833 199.604L41.1369 206.394L45.4574 191.889L34.3477 180.78Z" fill="#00E5FF"/>
<path d="M34.3477 180.78L68.9112 173.064L75.0833 199.604L41.1369 206.394L45.4574 191.889L34.3477 180.78Z" fill="black" fill-opacity="0.3"/>
<path d="M181.248 180.78L146.684 173.064L140.512 199.604L174.459 206.394L170.138 191.889L181.248 180.78Z" fill="#00E5FF"/>
<path d="M181.248 180.78L146.684 173.064L140.512 199.604L174.459 206.394L170.138 191.889L181.248 180.78Z" fill="black" fill-opacity="0.3"/>
<path d="M140.509 199.601L142.361 186.022L159.951 189.269L140.509 199.601Z" fill="#00D7EF"/>
<path d="M140.509 199.601L142.361 186.022L159.951 189.269L140.509 199.601Z" fill="black" fill-opacity="0.3"/>
<path d="M165.205 163.495C120.783 152.821 95.6375 153.202 50.4043 163.495L55.9592 189.418C96.5746 182.418 119.343 181.723 159.958 189.418L165.205 163.495Z" fill="#58EEFF"/>
<path d="M165.205 163.495C120.783 152.821 95.6375 153.202 50.4043 163.495L55.9592 189.418C96.5746 182.418 119.343 181.723 159.958 189.418L165.205 163.495Z" fill="black" fill-opacity="0.3"/>
<path d="M75.0836 199.601L73.232 186.64L55.9502 189.417L75.0836 199.601Z" fill="#00D7EF"/>
<path d="M75.0836 199.601L73.232 186.64L55.9502 189.417L75.0836 199.601Z" fill="black" fill-opacity="0.3"/>
<defs>
<linearGradient id="paint0_linear_2944_11232" x1="-24.8229" y1="-166.781" x2="131.528" y2="168.914" gradientUnits="userSpaceOnUse">
<stop stop-color="#009DFF"/>
<stop offset="1" stop-color="#00E5FF"/>
</linearGradient>
<radialGradient id="paint1_radial_2944_11232" cx="0" cy="0" r="1" gradientUnits="userSpaceOnUse" gradientTransform="translate(107.616 30.9596) scale(27.5914 16.9994)">
<stop stop-color="white" stop-opacity="0.22"/>
<stop offset="1" stop-color="white" stop-opacity="0"/>
</radialGradient>
<linearGradient id="paint2_linear_2944_11232" x1="112.182" y1="18.0827" x2="372.46" y2="219.5" gradientUnits="userSpaceOnUse">
<stop stop-color="#00E5FF"/>
<stop offset="1" stop-color="#00BCD2"/>
</linearGradient>
<linearGradient id="paint3_linear_2944_11232" x1="103.904" y1="188.23" x2="-37.7317" y2="85.2222" gradientUnits="userSpaceOnUse">
<stop stop-color="#00BCD2"/>
<stop offset="1" stop-color="#00E5FF"/>
</linearGradient>
<linearGradient id="paint4_linear_2944_11232" x1="413.848" y1="-117.116" x2="20.2106" y2="144.082" gradientUnits="userSpaceOnUse">
<stop stop-color="white" stop-opacity="0.4"/>
<stop offset="1" stop-color="white" stop-opacity="0"/>
</linearGradient>
<linearGradient id="paint5_linear_2944_11232" x1="98.3863" y1="248.931" x2="215.19" y2="9.80546" gradientUnits="userSpaceOnUse">
<stop stop-color="white" stop-opacity="0.13"/>
<stop offset="1" stop-color="white" stop-opacity="0"/>
</linearGradient>
<radialGradient id="paint6_radial_2944_11232" cx="0" cy="0" r="1" gradientTransform="matrix(-13.7957 21.1534 -10.4798 -7.30906 157.249 136.726)" gradientUnits="userSpaceOnUse">
<stop stop-color="white" stop-opacity="0.1"/>
<stop offset="1" stop-color="white" stop-opacity="0"/>
</radialGradient>
<radialGradient id="paint7_radial_2944_11232" cx="0" cy="0" r="1" gradientTransform="matrix(25.1908 1.79199 -1.30252 12.7103 103.13 14.8977)" gradientUnits="userSpaceOnUse">
<stop stop-color="white" stop-opacity="0.1"/>
<stop offset="1" stop-color="white" stop-opacity="0"/>
</radialGradient>
<radialGradient id="paint8_radial_2944_11232" cx="0" cy="0" r="1" gradientTransform="matrix(13.3137 -21.46 10.6425 7.07014 167.842 69.9731)" gradientUnits="userSpaceOnUse">
<stop stop-color="white" stop-opacity="0.1"/>
<stop offset="1" stop-color="white" stop-opacity="0"/>
</radialGradient>
<radialGradient id="paint9_radial_2944_11232" cx="0" cy="0" r="1" gradientUnits="userSpaceOnUse" gradientTransform="translate(107.696 40.7035) rotate(90) scale(28.5111)">
<stop stop-color="#FFE86C"/>
<stop offset="1" stop-color="#FF9900"/>
</radialGradient>
<radialGradient id="paint10_radial_2944_11232" cx="0" cy="0" r="1" gradientUnits="userSpaceOnUse" gradientTransform="translate(107.695 40.7031) rotate(90) scale(22.1753)">
<stop stop-color="#FFF5BC"/>
<stop offset="0.765" stop-color="#FFA800"/>
</radialGradient>
<radialGradient id="paint11_radial_2944_11232" cx="0" cy="0" r="1" gradientUnits="userSpaceOnUse" gradientTransform="translate(118.24 33.7353) rotate(99.6063) scale(2.66619 7.03148)">
<stop stop-color="white"/>
<stop offset="0.84" stop-color="white" stop-opacity="0"/>
</radialGradient>
<radialGradient id="paint12_radial_2944_11232" cx="0" cy="0" r="1" gradientUnits="userSpaceOnUse" gradientTransform="translate(126.797 34.3059) rotate(99.6063) scale(2.66619 2.85773)">
<stop stop-color="white"/>
<stop offset="0.84" stop-color="white" stop-opacity="0"/>
</radialGradient>
<radialGradient id="paint13_radial_2944_11232" cx="0" cy="0" r="1" gradientUnits="userSpaceOnUse" gradientTransform="translate(99.0021 31.2397) rotate(79.8213) scale(1.83292 4.3571)">
<stop stop-color="white"/>
<stop offset="0.84" stop-color="white" stop-opacity="0"/>
</radialGradient>
<radialGradient id="paint14_radial_2944_11232" cx="0" cy="0" r="1" gradientUnits="userSpaceOnUse" gradientTransform="translate(104.139 54.0187) rotate(59.0688) scale(1.83292 4.3571)">
<stop stop-color="white"/>
<stop offset="0.84" stop-color="white" stop-opacity="0"/>
</radialGradient>
<radialGradient id="paint15_radial_2944_11232" cx="0" cy="0" r="1" gradientUnits="userSpaceOnUse" gradientTransform="translate(119.006 51.3491) rotate(165.501) scale(2.66619 7.03148)">
<stop stop-color="white"/>
<stop offset="0.84" stop-color="white" stop-opacity="0"/>
</radialGradient>
<radialGradient id="paint16_radial_2944_11232" cx="0" cy="0" r="1" gradientUnits="userSpaceOnUse" gradientTransform="translate(112.464 29.8276) rotate(154.854) scale(2.66619 7.03148)">
<stop stop-color="white"/>
<stop offset="0.84" stop-color="white" stop-opacity="0"/>
</radialGradient>
<radialGradient id="paint17_radial_2944_11232" cx="0" cy="0" r="1" gradientUnits="userSpaceOnUse" gradientTransform="translate(72.1318 53.0458) rotate(90) scale(20.6191)">
<stop stop-color="#FFE86C"/>
<stop offset="1" stop-color="#FF9900"/>
</radialGradient>
<radialGradient id="paint18_radial_2944_11232" cx="0" cy="0" r="1" gradientUnits="userSpaceOnUse" gradientTransform="translate(72.1347 53.0473) rotate(90) scale(16.0371)">
<stop stop-color="#FFF5BC"/>
<stop offset="0.765" stop-color="#FFA800"/>
</radialGradient>
<radialGradient id="paint19_radial_2944_11232" cx="0" cy="0" r="1" gradientUnits="userSpaceOnUse" gradientTransform="translate(79.7575 48.0066) rotate(99.6063) scale(1.92817 5.08512)">
<stop stop-color="white"/>
<stop offset="0.84" stop-color="white" stop-opacity="0"/>
</radialGradient>
<radialGradient id="paint20_radial_2944_11232" cx="0" cy="0" r="1" gradientUnits="userSpaceOnUse" gradientTransform="translate(85.9464 48.4189) rotate(99.6063) scale(1.92817 2.06669)">
<stop stop-color="white"/>
<stop offset="0.84" stop-color="white" stop-opacity="0"/>
</radialGradient>
<radialGradient id="paint21_radial_2944_11232" cx="0" cy="0" r="1" gradientUnits="userSpaceOnUse" gradientTransform="translate(65.8455 46.2005) rotate(79.8213) scale(1.32556 3.15103)">
<stop stop-color="white"/>
<stop offset="0.84" stop-color="white" stop-opacity="0"/>
</radialGradient>
<radialGradient id="paint22_radial_2944_11232" cx="0" cy="0" r="1" gradientUnits="userSpaceOnUse" gradientTransform="translate(69.561 62.6722) rotate(59.0688) scale(1.32556 3.15103)">
<stop stop-color="white"/>
<stop offset="0.84" stop-color="white" stop-opacity="0"/>
</radialGradient>
<radialGradient id="paint23_radial_2944_11232" cx="0" cy="0" r="1" gradientUnits="userSpaceOnUse" gradientTransform="translate(80.3126 60.7453) rotate(165.501) scale(1.92817 5.08513)">
<stop stop-color="white"/>
<stop offset="0.84" stop-color="white" stop-opacity="0"/>
</radialGradient>
<radialGradient id="paint24_radial_2944_11232" cx="0" cy="0" r="1" gradientUnits="userSpaceOnUse" gradientTransform="translate(75.5804 45.1769) rotate(154.854) scale(1.92817 5.08512)">
<stop stop-color="white"/>
<stop offset="0.84" stop-color="white" stop-opacity="0"/>
</radialGradient>
<radialGradient id="paint25_radial_2944_11232" cx="0" cy="0" r="1" gradientUnits="userSpaceOnUse" gradientTransform="translate(143.871 53.0458) rotate(90) scale(20.6191)">
<stop stop-color="#FFE86C"/>
<stop offset="1" stop-color="#FF9900"/>
</radialGradient>
<radialGradient id="paint26_radial_2944_11232" cx="0" cy="0" r="1" gradientUnits="userSpaceOnUse" gradientTransform="translate(143.872 53.0473) rotate(90) scale(16.0371)">
<stop stop-color="#FFF5BC"/>
<stop offset="0.765" stop-color="#FFA800"/>
</radialGradient>
<radialGradient id="paint27_radial_2944_11232" cx="0" cy="0" r="1" gradientUnits="userSpaceOnUse" gradientTransform="translate(151.497 48.0066) rotate(99.6063) scale(1.92817 5.08512)">
<stop stop-color="white"/>
<stop offset="0.84" stop-color="white" stop-opacity="0"/>
</radialGradient>
<radialGradient id="paint28_radial_2944_11232" cx="0" cy="0" r="1" gradientUnits="userSpaceOnUse" gradientTransform="translate(157.685 48.4189) rotate(99.6063) scale(1.92817 2.06669)">
<stop stop-color="white"/>
<stop offset="0.84" stop-color="white" stop-opacity="0"/>
</radialGradient>
<radialGradient id="paint29_radial_2944_11232" cx="0" cy="0" r="1" gradientUnits="userSpaceOnUse" gradientTransform="translate(137.585 46.2005) rotate(79.8213) scale(1.32556 3.15103)">
<stop stop-color="white"/>
<stop offset="0.84" stop-color="white" stop-opacity="0"/>
</radialGradient>
<radialGradient id="paint30_radial_2944_11232" cx="0" cy="0" r="1" gradientUnits="userSpaceOnUse" gradientTransform="translate(141.3 62.6722) rotate(59.0688) scale(1.32556 3.15103)">
<stop stop-color="white"/>
<stop offset="0.84" stop-color="white" stop-opacity="0"/>
</radialGradient>
<radialGradient id="paint31_radial_2944_11232" cx="0" cy="0" r="1" gradientUnits="userSpaceOnUse" gradientTransform="translate(152.051 60.7453) rotate(165.501) scale(1.92817 5.08513)">
<stop stop-color="white"/>
<stop offset="0.84" stop-color="white" stop-opacity="0"/>
</radialGradient>
<radialGradient id="paint32_radial_2944_11232" cx="0" cy="0" r="1" gradientUnits="userSpaceOnUse" gradientTransform="translate(147.32 45.1769) rotate(154.854) scale(1.92817 5.08512)">
<stop stop-color="white"/>
<stop offset="0.84" stop-color="white" stop-opacity="0"/>
</radialGradient>
</defs>
</svg>
