<svg width="221" height="207" viewBox="0 0 221 207" fill="none" xmlns="http://www.w3.org/2000/svg">
<path d="M21.2715 66.8281C34.1704 74.1787 38.6683 90.5941 31.3178 103.493C18.4188 96.1426 13.9209 79.7271 21.2715 66.8281Z" fill="#00E5FF"/>
<path d="M46.6777 88.2217C52.6101 99.1718 48.5424 112.858 37.5923 118.79C31.66 107.84 35.7276 94.154 46.6777 88.2217Z" fill="#00E5FF"/>
<path d="M11.0898 99.7139C23.442 98.1262 34.7425 106.853 36.3301 119.205C23.9779 120.792 12.6775 112.066 11.0898 99.7139Z" fill="#00BED4"/>
<path d="M53.7227 109.229C61.8323 118.681 60.7445 132.917 51.2929 141.027C43.1833 131.575 44.2711 117.339 53.7227 109.229Z" fill="#00E5FF"/>
<path d="M30.9873 101.104C32.6544 110.272 40.7397 131.799 59.7444 144.552" stroke="#00E5FF" stroke-width="1.40178" stroke-linecap="round" stroke-linejoin="round"/>
<path d="M20.9873 133.903C31.472 127.183 45.4198 130.234 52.1405 140.719C41.6558 147.439 27.708 144.388 20.9873 133.903Z" fill="#00BED4"/>
<path d="M192.001 66.8281C179.102 74.1787 174.604 90.5941 181.955 103.493C194.854 96.1426 199.352 79.7271 192.001 66.8281Z" fill="#00E5FF"/>
<path d="M166.597 88.2217C160.664 99.1718 164.732 112.858 175.682 118.79C181.614 107.84 177.547 94.154 166.597 88.2217Z" fill="#00E5FF"/>
<path d="M202.187 99.7139C189.834 98.1262 178.534 106.853 176.946 119.205C189.298 120.792 200.599 112.066 202.187 99.7139Z" fill="#00BED4"/>
<path d="M159.56 109.229C151.45 118.681 152.538 132.917 161.989 141.027C170.099 131.575 169.011 117.339 159.56 109.229Z" fill="#00E5FF"/>
<path d="M182.297 101.104C180.63 110.272 172.544 131.799 153.54 144.552" stroke="#00E5FF" stroke-width="1.40178" stroke-linecap="round" stroke-linejoin="round"/>
<path d="M192.299 133.905C181.814 127.185 167.866 130.236 161.146 140.721C171.63 147.441 185.578 144.39 192.299 133.905Z" fill="#00BED4"/>
<path d="M108.18 7.96631L173.493 55.7914V151.442L108.18 199.267L42.8676 151.442V55.7914L108.18 7.96631Z" fill="#00E5FF"/>
<path d="M108.18 24.5215L162.342 64.0692V143.164L108.18 182.712L54.0185 143.164V64.0692L108.18 24.5215Z" fill="url(#paint0_linear_2944_11872)"/>
<path d="M108.213 24.5221L129.366 40.1571C108.509 59.9141 89.9406 49.9562 82.4612 42.9164L108.213 24.5221Z" fill="url(#paint1_radial_2944_11872)"/>
<path d="M53.9174 64.0694L42.8809 55.792V151.442L53.9174 143.165V64.0694Z" fill="#74F1FF"/>
<path d="M162.442 64.0694L173.479 55.792V151.442L162.442 143.165V64.0694Z" fill="#00E5FF"/>
<path d="M108.18 24.5211V7.96631L173.479 55.7914L162.443 64.0688L108.18 24.5211Z" fill="url(#paint2_linear_2944_11872)"/>
<path d="M108.18 182.712V199.267L42.8801 151.442L53.9166 143.164L108.18 182.712Z" fill="url(#paint3_linear_2944_11872)"/>
<path d="M142.209 49.3521L53.917 114.652V143.163L162.443 64.0675L142.209 49.3521Z" fill="url(#paint4_linear_2944_11872)"/>
<path d="M74.1507 157.88L66.793 152.361L162.443 79.7041V88.9012L74.1507 157.88Z" fill="url(#paint5_linear_2944_11872)"/>
<path d="M162.444 143.164L142.21 157.879C135.062 130.054 152.658 115.935 162.444 112.813L162.444 143.164Z" fill="url(#paint6_radial_2944_11872)"/>
<path d="M107.123 7.75277L129.81 18.2983C108.953 38.0553 88.0679 29.5265 80.5884 22.4866L107.123 7.75277Z" fill="url(#paint7_radial_2944_11872)"/>
<path d="M162.444 64.0699L183.592 48.4722C191.367 76.129 172.156 89.2382 162.444 92.5802L162.444 64.0699Z" fill="url(#paint8_radial_2944_11872)"/>
<mask id="path-25-outside-1_2944_11872" maskUnits="userSpaceOnUse" x="75.5391" y="62.3462" width="66" height="81" fill="black">
<rect fill="white" x="75.5391" y="62.3462" width="66" height="81"/>
<path d="M131.777 130.905C130.895 131.905 129.776 132.523 128.422 132.759C122.889 133.583 117.003 134.201 110.764 134.613C104.525 135.084 98.2263 135.378 91.8693 135.496C90.9275 135.496 90.1329 135.349 89.4854 135.054C88.8379 134.76 88.3082 134.348 87.8961 133.818C87.4841 133.347 87.1604 132.759 86.9249 132.053C86.6895 131.405 86.5423 130.728 86.4834 130.022C86.3069 128.668 86.5129 127.461 87.1015 126.402C87.6901 125.342 88.3964 124.371 89.2205 123.488C89.3971 123.253 89.9563 122.723 90.8981 121.899C91.8399 121.016 92.9288 119.986 94.1649 118.809C95.4598 117.573 96.8431 116.278 98.3146 114.924C99.845 113.511 101.287 112.187 102.641 110.951C103.995 109.656 105.172 108.537 106.173 107.596C107.232 106.595 107.968 105.918 108.38 105.565C111.264 102.798 113.619 100.297 115.443 98.0599C117.268 95.8232 118.269 93.7042 118.445 91.7029C118.74 88.9364 118.033 86.7291 116.326 85.0809C114.619 83.3739 111.882 82.6087 108.115 82.7853C106.997 82.8442 105.878 83.0796 104.76 83.4917C103.7 83.9037 102.7 84.4923 101.758 85.2575C100.816 85.9639 99.9628 86.8174 99.1976 87.818C98.4912 88.7598 97.9615 89.7899 97.6083 90.9082C97.314 91.9089 96.8137 92.7329 96.1073 93.3804C95.401 93.969 94.6063 94.4399 93.7234 94.7931C92.8405 95.0874 91.8987 95.264 90.8981 95.3229C89.8974 95.3229 88.9262 95.2051 87.9844 94.9697C86.454 94.4988 85.2179 93.7336 84.2761 92.6741C83.3343 91.6146 82.8929 90.3785 82.9517 88.9658C83.0695 86.6702 83.8052 84.4335 85.1591 82.2556C86.5129 80.0777 88.3082 78.1353 90.5449 76.4283C92.8405 74.6624 95.4893 73.2203 98.4912 72.1019C101.552 70.9247 104.819 70.1889 108.292 69.8946C111.647 69.6003 114.855 69.8652 117.916 70.6893C121.035 71.4545 123.772 72.6906 126.127 74.3975C128.481 76.0457 130.335 78.0764 131.689 80.4897C133.102 82.9031 133.808 85.5518 133.808 88.436C133.808 91.9677 133.072 95.264 131.601 98.3248C130.129 101.386 127.716 104.535 124.361 107.772C122.948 109.126 121.477 110.509 119.946 111.922C118.416 113.335 116.856 114.718 115.267 116.072C113.736 117.425 112.235 118.72 110.764 119.956C109.351 121.134 108.056 122.164 106.879 123.047C110.882 122.694 114.708 122.399 118.357 122.164C122.006 121.928 125.42 121.752 128.599 121.634C129.894 121.575 130.924 121.958 131.689 122.782C132.513 123.606 132.955 124.813 133.014 126.402C133.072 128.403 132.66 129.904 131.777 130.905Z"/>
</mask>
<path d="M131.777 130.905C130.895 131.905 129.776 132.523 128.422 132.759C122.889 133.583 117.003 134.201 110.764 134.613C104.525 135.084 98.2263 135.378 91.8693 135.496C90.9275 135.496 90.1329 135.349 89.4854 135.054C88.8379 134.76 88.3082 134.348 87.8961 133.818C87.4841 133.347 87.1604 132.759 86.9249 132.053C86.6895 131.405 86.5423 130.728 86.4834 130.022C86.3069 128.668 86.5129 127.461 87.1015 126.402C87.6901 125.342 88.3964 124.371 89.2205 123.488C89.3971 123.253 89.9563 122.723 90.8981 121.899C91.8399 121.016 92.9288 119.986 94.1649 118.809C95.4598 117.573 96.8431 116.278 98.3146 114.924C99.845 113.511 101.287 112.187 102.641 110.951C103.995 109.656 105.172 108.537 106.173 107.596C107.232 106.595 107.968 105.918 108.38 105.565C111.264 102.798 113.619 100.297 115.443 98.0599C117.268 95.8232 118.269 93.7042 118.445 91.7029C118.74 88.9364 118.033 86.7291 116.326 85.0809C114.619 83.3739 111.882 82.6087 108.115 82.7853C106.997 82.8442 105.878 83.0796 104.76 83.4917C103.7 83.9037 102.7 84.4923 101.758 85.2575C100.816 85.9639 99.9628 86.8174 99.1976 87.818C98.4912 88.7598 97.9615 89.7899 97.6083 90.9082C97.314 91.9089 96.8137 92.7329 96.1073 93.3804C95.401 93.969 94.6063 94.4399 93.7234 94.7931C92.8405 95.0874 91.8987 95.264 90.8981 95.3229C89.8974 95.3229 88.9262 95.2051 87.9844 94.9697C86.454 94.4988 85.2179 93.7336 84.2761 92.6741C83.3343 91.6146 82.8929 90.3785 82.9517 88.9658C83.0695 86.6702 83.8052 84.4335 85.1591 82.2556C86.5129 80.0777 88.3082 78.1353 90.5449 76.4283C92.8405 74.6624 95.4893 73.2203 98.4912 72.1019C101.552 70.9247 104.819 70.1889 108.292 69.8946C111.647 69.6003 114.855 69.8652 117.916 70.6893C121.035 71.4545 123.772 72.6906 126.127 74.3975C128.481 76.0457 130.335 78.0764 131.689 80.4897C133.102 82.9031 133.808 85.5518 133.808 88.436C133.808 91.9677 133.072 95.264 131.601 98.3248C130.129 101.386 127.716 104.535 124.361 107.772C122.948 109.126 121.477 110.509 119.946 111.922C118.416 113.335 116.856 114.718 115.267 116.072C113.736 117.425 112.235 118.72 110.764 119.956C109.351 121.134 108.056 122.164 106.879 123.047C110.882 122.694 114.708 122.399 118.357 122.164C122.006 121.928 125.42 121.752 128.599 121.634C129.894 121.575 130.924 121.958 131.689 122.782C132.513 123.606 132.955 124.813 133.014 126.402C133.072 128.403 132.66 129.904 131.777 130.905Z" fill="white"/>
<path d="M131.777 130.905L126.26 126.037L126.26 126.037L131.777 130.905ZM128.422 132.759L129.506 140.036L129.595 140.023L129.683 140.008L128.422 132.759ZM110.764 134.613L110.279 127.271L110.245 127.274L110.21 127.276L110.764 134.613ZM91.8693 135.496V142.854H91.9374L92.0055 142.852L91.8693 135.496ZM89.4854 135.054L86.4407 141.753H86.4407L89.4854 135.054ZM87.8961 133.818L93.7039 129.301L93.5734 129.133L93.4334 128.973L87.8961 133.818ZM86.9249 132.053L93.905 129.726L93.8736 129.632L93.8396 129.538L86.9249 132.053ZM86.4834 130.022L93.8157 129.411L93.8015 129.24L93.7793 129.07L86.4834 130.022ZM87.1015 126.402L80.6697 122.829H80.6697L87.1015 126.402ZM89.2205 123.488L94.5994 128.508L94.8693 128.219L95.1067 127.903L89.2205 123.488ZM90.8981 121.899L95.7431 127.436L95.8382 127.353L95.9303 127.267L90.8981 121.899ZM94.1649 118.809L99.2392 124.137L99.2452 124.131L94.1649 118.809ZM98.3146 114.924L103.296 120.339L103.305 120.33L98.3146 114.924ZM102.641 110.951L107.602 116.384L107.665 116.327L107.727 116.268L102.641 110.951ZM106.173 107.596L111.215 112.953L111.225 112.945L106.173 107.596ZM108.38 105.565L113.168 111.151L113.325 111.017L113.473 110.875L108.38 105.565ZM115.443 98.0599L109.742 93.4089L115.443 98.0599ZM118.445 91.7029L111.129 90.9245L111.122 90.9903L111.116 91.0562L118.445 91.7029ZM116.326 85.0809L111.124 90.2836L111.169 90.3292L111.216 90.3741L116.326 85.0809ZM108.115 82.7853L107.771 75.4357L107.749 75.4367L107.728 75.4378L108.115 82.7853ZM104.76 83.4917L102.216 76.5876L102.155 76.6104L102.093 76.6343L104.76 83.4917ZM101.758 85.2575L106.173 91.1437L106.287 91.058L106.398 90.9679L101.758 85.2575ZM99.1976 87.818L93.3529 83.3486L93.332 83.3759L93.3114 83.4034L99.1976 87.818ZM97.6083 90.9082L90.5921 88.6926L90.5701 88.7622L90.5496 88.8321L97.6083 90.9082ZM96.1073 93.3804L100.818 99.0328L100.951 98.9216L101.079 98.8042L96.1073 93.3804ZM93.7234 94.7931L96.0501 101.773L96.2553 101.705L96.456 101.625L93.7234 94.7931ZM90.8981 95.3229V102.681H91.1143L91.3301 102.668L90.8981 95.3229ZM87.9844 94.9697L85.8206 102.002L86.0088 102.06L86.1999 102.108L87.9844 94.9697ZM82.9517 88.9658L75.6037 88.589L75.6019 88.6242L75.6004 88.6595L82.9517 88.9658ZM85.1591 82.2556L78.9103 78.3712L78.9103 78.3712L85.1591 82.2556ZM90.5449 76.4283L95.0086 82.2773L95.0198 82.2687L95.031 82.2602L90.5449 76.4283ZM98.4912 72.1019L101.06 78.9967L101.096 78.9832L101.132 78.9692L98.4912 72.1019ZM108.292 69.8946L108.913 77.2261L108.924 77.2251L108.935 77.2242L108.292 69.8946ZM117.916 70.6893L116.003 77.794L116.083 77.8155L116.163 77.8351L117.916 70.6893ZM126.127 74.3975L121.808 80.3544L121.857 80.3902L121.907 80.4252L126.127 74.3975ZM131.689 80.4897L125.272 84.0895L125.305 84.1484L125.339 84.2067L131.689 80.4897ZM131.601 98.3248L138.232 101.513V101.513L131.601 98.3248ZM124.361 107.772L129.452 113.084L129.461 113.076L129.47 113.067L124.361 107.772ZM119.946 111.922L124.937 117.328L124.937 117.328L119.946 111.922ZM115.267 116.072L110.496 110.471L110.443 110.515L110.392 110.561L115.267 116.072ZM110.764 119.956L115.474 125.609L115.485 125.6L115.496 125.59L110.764 119.956ZM106.879 123.047L102.464 117.161L81.8196 132.644L107.526 130.376L106.879 123.047ZM128.599 121.634L128.871 128.987L128.902 128.986L128.933 128.984L128.599 121.634ZM131.689 122.782L126.298 127.788L126.39 127.888L126.487 127.985L131.689 122.782ZM133.014 126.402L140.368 126.185L140.367 126.157L140.366 126.129L133.014 126.402ZM131.777 130.905L126.26 126.037C126.352 125.933 126.506 125.796 126.718 125.679C126.926 125.564 127.094 125.522 127.162 125.51L128.422 132.759L129.683 140.008C132.632 139.495 135.27 138.068 137.295 135.773L131.777 130.905ZM128.422 132.759L127.338 125.481C122.026 126.273 116.341 126.871 110.279 127.271L110.764 134.613L111.249 141.955C117.666 141.531 123.753 140.893 129.506 140.036L128.422 132.759ZM110.764 134.613L110.21 127.276C104.112 127.736 97.953 128.024 91.7331 128.139L91.8693 135.496L92.0055 142.852C98.4997 142.732 104.937 142.431 111.318 141.95L110.764 134.613ZM91.8693 135.496V128.138C91.7761 128.138 91.7968 128.131 91.9067 128.151C92.0191 128.172 92.2414 128.225 92.53 128.356L89.4854 135.054L86.4407 141.753C88.3011 142.598 90.2014 142.854 91.8693 142.854V135.496ZM89.4854 135.054L92.53 128.356C92.8998 128.524 93.3413 128.835 93.7039 129.301L87.8961 133.818L82.0883 138.336C83.275 139.861 84.776 140.996 86.4407 141.753L89.4854 135.054ZM87.8961 133.818L93.4334 128.973C93.7747 129.363 93.8891 129.678 93.905 129.726L86.9249 132.053L79.9448 134.379C80.4316 135.84 81.1935 137.332 82.3589 138.663L87.8961 133.818ZM86.9249 132.053L93.8396 129.538C93.8335 129.521 93.822 129.486 93.8157 129.411L86.4834 130.022L79.1512 130.633C79.2626 131.971 79.5454 133.289 80.0102 134.567L86.9249 132.053ZM86.4834 130.022L93.7793 129.07C93.7752 129.038 93.7922 129.141 93.7583 129.34C93.7229 129.547 93.6466 129.771 93.5333 129.975L87.1015 126.402L80.6697 122.829C79.2208 125.437 78.8342 128.264 79.1875 130.973L86.4834 130.022ZM87.1015 126.402L93.5333 129.975C93.8322 129.437 94.1853 128.952 94.5994 128.508L89.2205 123.488L83.8416 118.468C82.6076 119.79 81.548 121.248 80.6697 122.829L87.1015 126.402ZM89.2205 123.488L95.1067 127.903C94.9776 128.075 94.8731 128.196 94.8256 128.25C94.7722 128.31 94.7366 128.348 94.7284 128.356C94.7146 128.37 94.7424 128.341 94.8326 128.256C95.0122 128.085 95.3064 127.818 95.7431 127.436L90.8981 121.899L86.053 116.362C85.548 116.804 85.0917 117.213 84.7121 117.573C84.4623 117.81 83.8449 118.393 83.3343 119.074L89.2205 123.488ZM90.8981 121.899L95.9303 127.267C96.8898 126.367 97.9933 125.323 99.2392 124.137L94.1649 118.809L89.0906 113.481C87.8643 114.649 86.7899 115.665 85.8658 116.531L90.8981 121.899ZM94.1649 118.809L99.2452 124.131C100.504 122.929 101.854 121.665 103.296 120.339L98.3146 114.924L93.3331 109.509C91.8321 110.89 90.4157 112.216 89.0846 113.486L94.1649 118.809ZM98.3146 114.924L103.305 120.33C104.827 118.925 106.259 117.61 107.602 116.384L102.641 110.951L97.6799 105.517C96.315 106.763 94.863 108.097 93.324 109.517L98.3146 114.924ZM102.641 110.951L107.727 116.268C109.071 114.982 110.233 113.878 111.215 112.953L106.173 107.596L101.13 102.238C100.111 103.197 98.9185 104.33 97.5552 105.634L102.641 110.951ZM106.173 107.596L111.225 112.945C112.295 111.934 112.909 111.373 113.168 111.151L108.38 105.565L103.592 99.9784C103.026 100.463 102.17 101.256 101.121 102.246L106.173 107.596ZM108.38 105.565L113.473 110.875C116.498 107.973 119.075 105.248 121.145 102.711L115.443 98.0599L109.742 93.4089C108.163 95.345 106.031 97.6231 103.287 100.255L108.38 105.565ZM115.443 98.0599L121.145 102.711C123.512 99.8091 125.423 96.3305 125.775 92.3496L118.445 91.7029L111.116 91.0562C111.114 91.0779 111.024 91.8373 109.742 93.4089L115.443 98.0599ZM118.445 91.7029L125.762 92.4812C126.249 87.8967 125.068 83.2938 121.437 79.7878L116.326 85.0809L111.216 90.3741C111.231 90.3885 111.212 90.3725 111.182 90.3257C111.153 90.2783 111.135 90.2357 111.129 90.215C111.114 90.1691 111.189 90.3585 111.129 90.9245L118.445 91.7029ZM116.326 85.0809L121.529 79.8782C117.706 76.0549 112.459 75.2159 107.771 75.4357L108.115 82.7853L108.46 90.135C109.799 90.0722 110.601 90.1979 111.012 90.3128C111.38 90.4156 111.311 90.4711 111.124 90.2836L116.326 85.0809ZM108.115 82.7853L107.728 75.4378C105.827 75.5379 103.983 75.9368 102.216 76.5876L104.76 83.4917L107.304 90.3957C107.774 90.2225 108.167 90.1505 108.502 90.1329L108.115 82.7853ZM104.76 83.4917L102.093 76.6343C100.274 77.3418 98.614 78.3319 97.1183 79.5471L101.758 85.2575L106.398 90.9679C106.786 90.6528 107.127 90.4656 107.427 90.3491L104.76 83.4917ZM101.758 85.2575L97.3434 79.3713C95.8259 80.5095 94.499 81.8498 93.3529 83.3486L99.1976 87.818L105.042 92.2874C105.426 91.7849 105.807 91.4182 106.173 91.1437L101.758 85.2575ZM99.1976 87.818L93.3114 83.4034C92.109 85.0066 91.1962 86.7797 90.5921 88.6926L97.6083 90.9082L104.624 93.1239C104.727 92.8 104.873 92.513 105.084 92.2326L99.1976 87.818ZM97.6083 90.9082L90.5496 88.8321C90.5677 88.7705 90.6165 88.6338 90.723 88.4583C90.8317 88.2793 90.9727 88.1059 91.1355 87.9567L96.1073 93.3804L101.079 98.8042C102.86 97.1721 104.029 95.1524 104.667 92.9843L97.6083 90.9082ZM96.1073 93.3804L91.397 87.7281C91.3041 87.8055 91.1815 87.8854 90.9908 87.9616L93.7234 94.7931L96.456 101.625C98.0312 100.995 99.4978 100.133 100.818 99.0328L96.1073 93.3804ZM93.7234 94.7931L91.3967 87.813C91.1718 87.888 90.8712 87.954 90.466 87.9779L90.8981 95.3229L91.3301 102.668C92.9262 102.574 94.5092 102.287 96.0501 101.773L93.7234 94.7931ZM90.8981 95.3229V87.9652C90.4804 87.9652 90.1093 87.9168 89.7689 87.8317L87.9844 94.9697L86.1999 102.108C87.7431 102.494 89.3144 102.681 90.8981 102.681V95.3229ZM87.9844 94.9697L90.1482 87.9373C89.9234 87.8682 89.8152 87.807 89.7823 87.7866C89.7541 87.7692 89.7611 87.7699 89.7753 87.7859L84.2761 92.6741L78.7769 97.5623C80.725 99.7539 83.1739 101.188 85.8206 102.002L87.9844 94.9697ZM84.2761 92.6741L89.7753 87.7859C89.8809 87.9046 90.0464 88.1381 90.1678 88.4777C90.2892 88.8177 90.31 89.1066 90.3031 89.2721L82.9517 88.9658L75.6004 88.6595C75.4619 91.9839 76.5713 95.081 78.7769 97.5623L84.2761 92.6741ZM82.9517 88.9658L90.2998 89.3426C90.3466 88.4291 90.6338 87.3851 91.4078 86.14L85.1591 82.2556L78.9103 78.3712C76.9766 81.4818 75.7923 84.9113 75.6037 88.589L82.9517 88.9658ZM85.1591 82.2556L91.4078 86.14C92.2469 84.7901 93.4121 83.4957 95.0086 82.2773L90.5449 76.4283L86.0812 70.5793C83.2042 72.7748 80.7788 75.3653 78.9103 78.3712L85.1591 82.2556ZM90.5449 76.4283L95.031 82.2602C96.6859 80.9871 98.6742 79.8855 101.06 78.9967L98.4912 72.1019L95.9226 65.2072C92.3043 66.5551 88.9951 68.3377 86.0588 70.5964L90.5449 76.4283ZM98.4912 72.1019L101.132 78.9692C103.506 78.0564 106.089 77.4654 108.913 77.2261L108.292 69.8946L107.67 62.5632C103.549 62.9125 99.5982 63.793 95.85 65.2347L98.4912 72.1019ZM108.292 69.8946L108.935 77.2242C111.485 77.0004 113.825 77.2077 116.003 77.794L117.916 70.6893L119.828 63.5845C115.885 62.5227 111.808 62.2002 107.649 62.5651L108.292 69.8946ZM117.916 70.6893L116.163 77.8351C118.455 78.3974 120.301 79.2616 121.808 80.3544L126.127 74.3975L130.445 68.4407C127.244 66.1195 123.615 64.5115 119.668 63.5434L117.916 70.6893ZM126.127 74.3975L121.907 80.4252C123.392 81.4646 124.48 82.6779 125.272 84.0895L131.689 80.4897L138.106 76.89C136.19 73.4749 133.57 70.6267 130.346 68.3699L126.127 74.3975ZM131.689 80.4897L125.339 84.2067C126.071 85.456 126.451 86.8154 126.451 88.436H133.808H141.166C141.166 84.2883 140.133 80.3501 138.039 76.7728L131.689 80.4897ZM133.808 88.436H126.451C126.451 90.9093 125.944 93.1107 124.97 95.1368L131.601 98.3248L138.232 101.513C140.201 97.4173 141.166 93.0262 141.166 88.436H133.808ZM131.601 98.3248L124.97 95.1368C123.989 97.1773 122.197 99.6359 119.252 102.477L124.361 107.772L129.47 113.067C133.235 109.433 136.27 105.594 138.232 101.513L131.601 98.3248ZM124.361 107.772L119.27 102.46C117.893 103.78 116.455 105.132 114.956 106.515L119.946 111.922L124.937 117.328C126.499 115.886 128.004 114.472 129.452 113.084L124.361 107.772ZM119.946 111.922L114.956 106.515C113.497 107.862 112.011 109.18 110.496 110.471L115.267 116.072L120.038 121.673C121.702 120.256 123.334 118.807 124.937 117.328L119.946 111.922ZM115.267 116.072L110.392 110.561C108.905 111.876 107.452 113.129 106.031 114.323L110.764 119.956L115.496 125.59C117.019 124.311 118.567 122.975 120.142 121.582L115.267 116.072ZM110.764 119.956L106.054 114.304C104.715 115.42 103.52 116.369 102.464 117.161L106.879 123.047L111.294 128.933C112.592 127.959 113.988 126.848 115.474 125.609L110.764 119.956ZM106.879 123.047L107.526 130.376C111.476 130.027 115.244 129.738 118.831 129.506L118.357 122.164L117.883 114.821C114.171 115.061 110.287 115.36 106.232 115.717L106.879 123.047ZM118.357 122.164L118.831 129.506C122.423 129.274 125.769 129.102 128.871 128.987L128.599 121.634L128.327 114.281C125.072 114.402 121.59 114.582 117.883 114.821L118.357 122.164ZM128.599 121.634L128.933 128.984C128.769 128.992 128.342 128.982 127.781 128.774C127.192 128.555 126.678 128.199 126.298 127.788L131.689 122.782L137.081 117.775C134.611 115.115 131.353 114.144 128.265 114.284L128.599 121.634ZM131.689 122.782L126.487 127.985C126.067 127.565 125.837 127.131 125.729 126.833C125.63 126.564 125.654 126.474 125.661 126.674L133.014 126.402L140.366 126.129C140.264 123.37 139.445 120.132 136.892 117.579L131.689 122.782ZM133.014 126.402L125.659 126.618C125.673 127.086 125.62 127.203 125.653 127.081C125.695 126.93 125.846 126.506 126.26 126.037L131.777 130.905L137.295 135.773C139.908 132.811 140.455 129.14 140.368 126.185L133.014 126.402Z" fill="#00BED4" mask="url(#path-25-outside-1_2944_11872)"/>
<path d="M105.183 18.2857C106.478 15.7468 110.106 15.7468 111.402 18.2857L116.032 27.3579C116.539 28.3519 117.491 29.0435 118.593 29.2188L128.652 30.8186C131.467 31.2663 132.588 34.7166 130.574 36.7335L123.376 43.9402C122.588 44.7298 122.224 45.8488 122.398 46.9511L123.985 57.012C124.429 59.8277 121.494 61.9601 118.953 60.6676L109.875 56.0494C108.881 55.5434 107.704 55.5434 106.709 56.0494L97.6313 60.6676C95.0907 61.9601 92.1557 59.8277 92.5998 57.012L94.1867 46.9511C94.3605 45.8488 93.9969 44.7298 93.2083 43.9402L86.0109 36.7335C83.9966 34.7166 85.1177 31.2663 87.9327 30.8186L97.9916 29.2188C99.0937 29.0435 100.046 28.3519 100.553 27.3579L105.183 18.2857Z" fill="url(#paint9_radial_2944_11872)"/>
<path d="M106.737 21.5745C107.385 20.305 109.198 20.305 109.846 21.5745L114.535 30.7627C114.789 31.2597 115.265 31.6055 115.816 31.6931L126.003 33.3133C127.411 33.5372 127.972 35.2624 126.964 36.2708L119.675 43.5696C119.281 43.9644 119.099 44.5239 119.186 45.0751L120.793 55.2646C121.015 56.6725 119.547 57.7387 118.277 57.0924L109.083 52.4152C108.586 52.1622 107.997 52.1622 107.5 52.4152L98.3059 57.0924C97.0356 57.7387 95.5681 56.6725 95.7901 55.2646L97.3973 45.0751C97.4842 44.5239 97.3024 43.9644 96.9081 43.5696L89.6186 36.2708C88.6115 35.2623 89.172 33.5372 90.5796 33.3133L100.767 31.6931C101.318 31.6055 101.794 31.2597 102.048 30.7627L106.737 21.5745Z" fill="url(#paint10_radial_2944_11872)"/>
<path d="M112.043 32.5603C111.702 30.3594 113.931 30.2009 115.089 30.3968C116.246 30.5927 119.4 31.3051 122.754 32.5872C126.948 34.1899 125.786 35.7792 124.771 36.5004C123.336 37.5203 121.152 36.7808 118.547 36.34C115.943 35.8992 112.471 35.3115 112.043 32.5603Z" fill="url(#paint11_radial_2944_11872)"/>
<path d="M124.635 33.8138C124.705 31.6826 125.664 31.309 126.134 31.3887C126.604 31.4683 127.869 31.8608 129.162 32.7942C130.78 33.9608 130.133 35.6373 129.633 36.4457C128.926 37.5889 128.075 37.0749 127.017 36.8958C125.958 36.7166 124.547 36.4778 124.635 33.8138Z" fill="url(#paint12_radial_2944_11872)" fill-opacity="0.56"/>
<path d="M95.3911 31.9777C94.7048 30.6251 95.9652 30.0298 96.6812 29.9013C97.3971 29.7727 99.3875 29.5384 101.621 29.6293C104.413 29.743 104.09 31.0309 103.66 31.7231C103.052 32.7019 101.619 32.7045 100.008 32.9937C98.3969 33.2829 96.249 33.6686 95.3911 31.9777Z" fill="url(#paint13_radial_2944_11872)" fill-opacity="0.5"/>
<path d="M101.062 56.1998C99.9411 55.1781 100.909 54.1748 101.533 53.8009C102.157 53.427 103.935 52.5027 106.056 51.7963C108.707 50.9134 108.861 52.2322 108.704 53.0318C108.482 54.1626 107.143 54.6727 105.739 55.514C104.335 56.3553 102.463 57.477 101.062 56.1998Z" fill="url(#paint14_radial_2944_11872)" fill-opacity="0.5"/>
<path d="M117.901 44.6685C119.77 43.4575 120.826 45.4278 121.12 46.5644C121.413 47.7009 122.051 50.8704 122.251 54.4564C122.501 58.9388 120.575 58.5272 119.503 57.8953C117.985 57.0015 117.769 54.7061 117.107 52.1489C116.446 49.5917 115.564 46.1821 117.901 44.6685Z" fill="url(#paint15_radial_2944_11872)"/>
<path d="M110.154 23.5765C111.767 22.041 113.168 23.7824 113.667 24.8451C114.166 25.9077 115.378 28.9049 116.237 32.3921C117.311 36.7512 115.343 36.7025 114.172 36.2796C112.515 35.6816 111.878 33.4658 110.756 31.0748C109.633 28.6838 108.137 25.4958 110.154 23.5765Z" fill="url(#paint16_radial_2944_11872)"/>
<path d="M69.6188 38.5201C70.9145 35.9812 74.5424 35.9812 75.8381 38.5201L78.1021 42.9565C78.6094 43.9505 79.5613 44.6421 80.6634 44.8174L85.5823 45.5997C88.3974 46.0474 89.5185 49.4977 87.5042 51.5146L83.9845 55.0387C83.1959 55.8283 82.8323 56.9474 83.0062 58.0497L83.7822 62.9696C84.2263 65.7852 81.2913 67.9177 78.7507 66.6252L74.3114 64.3668C73.3168 63.8608 72.1401 63.8608 71.1455 64.3668L66.7062 66.6252C64.1656 67.9176 61.2306 65.7853 61.6747 62.9696L62.4507 58.0497C62.6246 56.9474 62.261 55.8283 61.4724 55.0387L57.9527 51.5146C55.9384 49.4977 57.0595 46.0474 59.8746 45.5997L64.7935 44.8174C65.8956 44.6421 66.8475 43.9505 67.3548 42.9565L69.6188 38.5201Z" fill="url(#paint17_radial_2944_11872)"/>
<path d="M71.1766 40.0569C71.8244 38.7875 73.6384 38.7875 74.2862 40.0569L77.1352 45.6395C77.3888 46.1365 77.8648 46.4823 78.4158 46.5699L84.6055 47.5543C86.0131 47.7782 86.5736 49.5033 85.5664 50.5118L81.1375 54.9464C80.7432 55.3412 80.5614 55.9007 80.6483 56.4519L81.6248 62.6429C81.8469 64.0507 80.3794 65.1169 79.1091 64.4707L73.5229 61.6289C73.0256 61.3759 72.4372 61.3759 71.9399 61.6289L66.3537 64.4707C65.0834 65.1169 63.6159 64.0507 63.838 62.6429L64.8144 56.4519C64.9014 55.9007 64.7196 55.3412 64.3253 54.9464L59.8963 50.5118C58.8892 49.5033 59.4497 47.7782 60.8573 47.5543L67.047 46.5699C67.598 46.4823 68.074 46.1365 68.3276 45.6395L71.1766 40.0569Z" fill="url(#paint18_radial_2944_11872)"/>
<path d="M75.4414 47.1568C75.1942 45.5651 76.8065 45.4505 77.6436 45.5922C78.4806 45.7339 80.7613 46.249 83.1875 47.1763C86.2202 48.3354 85.3799 49.4847 84.6459 50.0062C83.6078 50.7438 82.0284 50.209 80.145 49.8903C78.2616 49.5715 75.7505 49.1465 75.4414 47.1568Z" fill="url(#paint19_radial_2944_11872)"/>
<path d="M84.5482 48.063C84.5991 46.5217 85.2923 46.2516 85.6325 46.3091C85.9727 46.3667 86.887 46.6506 87.8225 47.3256C88.992 48.1693 88.5244 49.3817 88.163 49.9663C87.6519 50.7931 87.0361 50.4214 86.2707 50.2919C85.5052 50.1623 84.4846 49.9896 84.5482 48.063Z" fill="url(#paint20_radial_2944_11872)" fill-opacity="0.56"/>
<path d="M63.3992 46.7343C62.9029 45.756 63.8143 45.3255 64.3321 45.2326C64.8499 45.1396 66.2893 44.9701 67.9046 45.0359C69.9236 45.1181 69.69 46.0495 69.379 46.5501C68.9392 47.258 67.903 47.2598 66.738 47.469C65.573 47.6782 64.0196 47.9571 63.3992 46.7343Z" fill="url(#paint21_radial_2944_11872)" fill-opacity="0.5"/>
<path d="M67.5013 64.2495C66.6906 63.5106 67.3904 62.7851 67.8416 62.5147C68.2929 62.2443 69.5788 61.5758 71.1126 61.0649C73.0298 60.4264 73.1413 61.3802 73.0279 61.9584C72.8675 62.7763 71.8991 63.1451 70.8838 63.7535C69.8685 64.362 68.5147 65.1732 67.5013 64.2495Z" fill="url(#paint22_radial_2944_11872)" fill-opacity="0.5"/>
<path d="M79.6785 55.9139C81.0304 55.0381 81.7935 56.4631 82.0061 57.285C82.2186 58.1069 82.6798 60.3991 82.8243 62.9925C83.0049 66.2341 81.6126 65.9365 80.8367 65.4794C79.7395 64.8331 79.5826 63.173 79.1044 61.3237C78.6262 59.4744 77.9885 57.0086 79.6785 55.9139Z" fill="url(#paint23_radial_2944_11872)"/>
<path d="M74.0748 40.6561C75.2417 39.5457 76.2549 40.8051 76.6157 41.5736C76.9764 42.3421 77.8532 44.5096 78.4744 47.0316C79.2508 50.184 77.8275 50.1488 76.9806 49.843C75.7828 49.4105 75.3219 47.808 74.5102 46.0789C73.6985 44.3497 72.6163 42.0442 74.0748 40.6561Z" fill="url(#paint24_radial_2944_11872)"/>
<path d="M141.358 38.5201C142.654 35.9812 146.282 35.9812 147.577 38.5201L149.841 42.9565C150.349 43.9505 151.301 44.6421 152.403 44.8174L157.322 45.5997C160.137 46.0474 161.258 49.4977 159.243 51.5146L155.724 55.0387C154.935 55.8283 154.572 56.9474 154.745 58.0497L155.521 62.9696C155.966 65.7852 153.031 67.9177 150.49 66.6252L146.051 64.3668C145.056 63.8608 143.879 63.8608 142.885 64.3668L138.445 66.6252C135.905 67.9176 132.97 65.7853 133.414 62.9696L134.19 58.0497C134.364 56.9474 134 55.8283 133.212 55.0387L129.692 51.5146C127.678 49.4977 128.799 46.0474 131.614 45.5997L136.533 44.8174C137.635 44.6421 138.587 43.9505 139.094 42.9565L141.358 38.5201Z" fill="url(#paint25_radial_2944_11872)"/>
<path d="M142.914 40.0569C143.562 38.7875 145.376 38.7875 146.024 40.0569L148.872 45.6395C149.126 46.1365 149.602 46.4823 150.153 46.5699L156.343 47.5543C157.75 47.7782 158.311 49.5033 157.304 50.5118L152.875 54.9464C152.481 55.3412 152.299 55.9007 152.386 56.4519L153.362 62.6429C153.584 64.0507 152.117 65.1169 150.846 64.4707L145.26 61.6289C144.763 61.3759 144.175 61.3759 143.677 61.6289L138.091 64.4707C136.821 65.1169 135.353 64.0507 135.575 62.6429L136.552 56.4519C136.639 55.9007 136.457 55.3412 136.063 54.9464L131.634 50.5118C130.626 49.5033 131.187 47.7782 132.595 47.5543L138.784 46.5699C139.335 46.4823 139.811 46.1365 140.065 45.6395L142.914 40.0569Z" fill="url(#paint26_radial_2944_11872)"/>
<path d="M147.181 47.1568C146.933 45.5651 148.546 45.4505 149.383 45.5922C150.22 45.7339 152.501 46.249 154.927 47.1763C157.96 48.3354 157.119 49.4847 156.385 50.0062C155.347 50.7438 153.768 50.209 151.884 49.8903C150.001 49.5715 147.49 49.1465 147.181 47.1568Z" fill="url(#paint27_radial_2944_11872)"/>
<path d="M156.287 48.063C156.337 46.5217 157.031 46.2516 157.371 46.3091C157.711 46.3667 158.625 46.6506 159.561 47.3256C160.73 48.1693 160.263 49.3817 159.901 49.9663C159.39 50.7931 158.774 50.4214 158.009 50.2919C157.244 50.1623 156.223 49.9896 156.287 48.063Z" fill="url(#paint28_radial_2944_11872)" fill-opacity="0.56"/>
<path d="M135.138 46.7343C134.642 45.756 135.554 45.3255 136.071 45.2326C136.589 45.1396 138.029 44.9701 139.644 45.0359C141.663 45.1181 141.429 46.0495 141.118 46.5501C140.678 47.258 139.642 47.2598 138.477 47.469C137.312 47.6782 135.759 47.9571 135.138 46.7343Z" fill="url(#paint29_radial_2944_11872)" fill-opacity="0.5"/>
<path d="M139.241 64.2495C138.43 63.5106 139.13 62.7851 139.581 62.5147C140.032 62.2443 141.318 61.5758 142.852 61.0649C144.769 60.4264 144.881 61.3802 144.767 61.9584C144.607 62.7763 143.638 63.1451 142.623 63.7535C141.608 64.362 140.254 65.1732 139.241 64.2495Z" fill="url(#paint30_radial_2944_11872)" fill-opacity="0.5"/>
<path d="M151.417 55.9139C152.769 55.0381 153.532 56.4631 153.744 57.285C153.957 58.1069 154.418 60.3991 154.563 62.9925C154.743 66.2341 153.351 65.9365 152.575 65.4794C151.478 64.8331 151.321 63.173 150.843 61.3237C150.364 59.4744 149.727 57.0086 151.417 55.9139Z" fill="url(#paint31_radial_2944_11872)"/>
<path d="M145.814 40.6561C146.981 39.5457 147.994 40.8051 148.355 41.5736C148.716 42.3421 149.592 44.5096 150.214 47.0316C150.99 50.184 149.567 50.1488 148.72 49.843C147.522 49.4105 147.061 47.808 146.249 46.0789C145.438 44.3497 144.356 42.0442 145.814 40.6561Z" fill="url(#paint32_radial_2944_11872)"/>
<path d="M12.7646 120.947C27.5382 122.416 38.324 135.583 36.8554 150.356C22.0819 148.888 11.2961 135.721 12.7646 120.947Z" fill="#00E5FF"/>
<path d="M44.6748 130.158C54.5481 137.749 56.3986 151.906 48.8081 161.779C38.9349 154.189 37.0843 140.031 44.6748 130.158Z" fill="#00E5FF"/>
<path d="M16.8379 155.132C27.4764 148.657 41.3493 152.033 47.8237 162.672C37.1852 169.146 23.3123 165.77 16.8379 155.132Z" fill="#00BED4"/>
<path d="M59.6553 146.484C70.9081 151.82 75.7046 165.268 70.3687 176.521C59.1159 171.185 54.3194 157.737 59.6553 146.484Z" fill="#00E5FF"/>
<path d="M35.5781 148.307C40.8304 156.005 56.9722 172.381 79.5211 176.302" stroke="#00E5FF" stroke-width="1.40178" stroke-linecap="round" stroke-linejoin="round"/>
<path d="M39.7832 182.341C46.6279 171.937 60.6109 169.051 71.0151 175.896C64.1704 186.3 50.1874 189.186 39.7832 182.341Z" fill="#00BED4"/>
<path d="M208.044 121.571C193.27 123.04 182.485 136.207 183.953 150.98C198.727 149.512 209.513 136.345 208.044 121.571Z" fill="#00E5FF"/>
<path d="M176.131 130.782C166.258 138.373 164.407 152.53 171.998 162.403C181.871 154.813 183.721 140.655 176.131 130.782Z" fill="#00E5FF"/>
<path d="M203.972 155.756C193.333 149.281 179.46 152.657 172.986 163.296C183.624 169.77 197.497 166.394 203.972 155.756Z" fill="#00BED4"/>
<path d="M161.16 147.111C149.907 152.447 145.111 165.895 150.447 177.148C161.699 171.812 166.496 158.364 161.16 147.111Z" fill="#00E5FF"/>
<path d="M185.236 148.935C179.984 156.633 163.842 173.009 141.293 176.93" stroke="#00E5FF" stroke-width="1.40178" stroke-linecap="round" stroke-linejoin="round"/>
<path d="M181.029 182.969C174.185 172.565 160.202 169.679 149.797 176.524C156.642 186.928 170.625 189.813 181.029 182.969Z" fill="#00BED4"/>
<path d="M35.1572 180.779L69.7208 173.063L75.8928 199.603L41.9465 206.393L46.2669 191.888L35.1572 180.779Z" fill="#00E5FF"/>
<path d="M182.058 180.779L147.494 173.063L141.322 199.603L175.268 206.393L170.948 191.888L182.058 180.779Z" fill="#00E5FF"/>
<path d="M141.319 199.6L143.17 186.021L160.761 189.268L141.319 199.6Z" fill="#00D7EF"/>
<path d="M166.014 163.494C121.593 152.82 96.4471 153.201 51.2139 163.494L56.7687 189.417C97.3841 182.417 120.152 181.722 160.768 189.417L166.014 163.494Z" fill="#58EEFF"/>
<path d="M75.8932 199.6L74.0415 186.639L56.7598 189.416L75.8932 199.6Z" fill="#00D7EF"/>
<defs>
<linearGradient id="paint0_linear_2944_11872" x1="-24.2262" y1="-166.781" x2="132.125" y2="168.915" gradientUnits="userSpaceOnUse">
<stop stop-color="#009DFF"/>
<stop offset="1" stop-color="#00E5FF"/>
</linearGradient>
<radialGradient id="paint1_radial_2944_11872" cx="0" cy="0" r="1" gradientUnits="userSpaceOnUse" gradientTransform="translate(108.213 30.9601) scale(27.5914 16.9994)">
<stop stop-color="white" stop-opacity="0.22"/>
<stop offset="1" stop-color="white" stop-opacity="0"/>
</radialGradient>
<linearGradient id="paint2_linear_2944_11872" x1="112.778" y1="18.0832" x2="373.057" y2="219.5" gradientUnits="userSpaceOnUse">
<stop stop-color="#00E5FF"/>
<stop offset="1" stop-color="#00BCD2"/>
</linearGradient>
<linearGradient id="paint3_linear_2944_11872" x1="104.501" y1="188.23" x2="-37.135" y2="85.2222" gradientUnits="userSpaceOnUse">
<stop stop-color="#00BCD2"/>
<stop offset="1" stop-color="#00E5FF"/>
</linearGradient>
<linearGradient id="paint4_linear_2944_11872" x1="414.445" y1="-117.116" x2="20.8073" y2="144.082" gradientUnits="userSpaceOnUse">
<stop stop-color="white" stop-opacity="0.4"/>
<stop offset="1" stop-color="white" stop-opacity="0"/>
</linearGradient>
<linearGradient id="paint5_linear_2944_11872" x1="98.9829" y1="248.931" x2="215.787" y2="9.80595" gradientUnits="userSpaceOnUse">
<stop stop-color="white" stop-opacity="0.13"/>
<stop offset="1" stop-color="white" stop-opacity="0"/>
</linearGradient>
<radialGradient id="paint6_radial_2944_11872" cx="0" cy="0" r="1" gradientTransform="matrix(-13.7957 21.1534 -10.4798 -7.30906 157.845 136.726)" gradientUnits="userSpaceOnUse">
<stop stop-color="white" stop-opacity="0.1"/>
<stop offset="1" stop-color="white" stop-opacity="0"/>
</radialGradient>
<radialGradient id="paint7_radial_2944_11872" cx="0" cy="0" r="1" gradientTransform="matrix(25.1908 1.79199 -1.30252 12.7103 103.726 14.8982)" gradientUnits="userSpaceOnUse">
<stop stop-color="white" stop-opacity="0.1"/>
<stop offset="1" stop-color="white" stop-opacity="0"/>
</radialGradient>
<radialGradient id="paint8_radial_2944_11872" cx="0" cy="0" r="1" gradientTransform="matrix(13.3137 -21.46 10.6425 7.07014 168.439 69.9731)" gradientUnits="userSpaceOnUse">
<stop stop-color="white" stop-opacity="0.1"/>
<stop offset="1" stop-color="white" stop-opacity="0"/>
</radialGradient>
<radialGradient id="paint9_radial_2944_11872" cx="0" cy="0" r="1" gradientUnits="userSpaceOnUse" gradientTransform="translate(108.292 40.7035) rotate(90) scale(28.5111)">
<stop stop-color="#FFE86C"/>
<stop offset="1" stop-color="#FF9900"/>
</radialGradient>
<radialGradient id="paint10_radial_2944_11872" cx="0" cy="0" r="1" gradientUnits="userSpaceOnUse" gradientTransform="translate(108.292 40.7031) rotate(90) scale(22.1753)">
<stop stop-color="#FFF5BC"/>
<stop offset="0.765" stop-color="#FFA800"/>
</radialGradient>
<radialGradient id="paint11_radial_2944_11872" cx="0" cy="0" r="1" gradientUnits="userSpaceOnUse" gradientTransform="translate(118.837 33.7353) rotate(99.6063) scale(2.66619 7.03148)">
<stop stop-color="white"/>
<stop offset="0.84" stop-color="white" stop-opacity="0"/>
</radialGradient>
<radialGradient id="paint12_radial_2944_11872" cx="0" cy="0" r="1" gradientUnits="userSpaceOnUse" gradientTransform="translate(127.393 34.3059) rotate(99.6063) scale(2.66619 2.85773)">
<stop stop-color="white"/>
<stop offset="0.84" stop-color="white" stop-opacity="0"/>
</radialGradient>
<radialGradient id="paint13_radial_2944_11872" cx="0" cy="0" r="1" gradientUnits="userSpaceOnUse" gradientTransform="translate(99.5988 31.2397) rotate(79.8213) scale(1.83292 4.3571)">
<stop stop-color="white"/>
<stop offset="0.84" stop-color="white" stop-opacity="0"/>
</radialGradient>
<radialGradient id="paint14_radial_2944_11872" cx="0" cy="0" r="1" gradientUnits="userSpaceOnUse" gradientTransform="translate(104.735 54.0187) rotate(59.0688) scale(1.83292 4.3571)">
<stop stop-color="white"/>
<stop offset="0.84" stop-color="white" stop-opacity="0"/>
</radialGradient>
<radialGradient id="paint15_radial_2944_11872" cx="0" cy="0" r="1" gradientUnits="userSpaceOnUse" gradientTransform="translate(119.603 51.3491) rotate(165.501) scale(2.66619 7.03148)">
<stop stop-color="white"/>
<stop offset="0.84" stop-color="white" stop-opacity="0"/>
</radialGradient>
<radialGradient id="paint16_radial_2944_11872" cx="0" cy="0" r="1" gradientUnits="userSpaceOnUse" gradientTransform="translate(113.061 29.8276) rotate(154.854) scale(2.66619 7.03148)">
<stop stop-color="white"/>
<stop offset="0.84" stop-color="white" stop-opacity="0"/>
</radialGradient>
<radialGradient id="paint17_radial_2944_11872" cx="0" cy="0" r="1" gradientUnits="userSpaceOnUse" gradientTransform="translate(72.7285 53.0458) rotate(90) scale(20.6191)">
<stop stop-color="#FFE86C"/>
<stop offset="1" stop-color="#FF9900"/>
</radialGradient>
<radialGradient id="paint18_radial_2944_11872" cx="0" cy="0" r="1" gradientUnits="userSpaceOnUse" gradientTransform="translate(72.7314 53.0473) rotate(90) scale(16.0371)">
<stop stop-color="#FFF5BC"/>
<stop offset="0.765" stop-color="#FFA800"/>
</radialGradient>
<radialGradient id="paint19_radial_2944_11872" cx="0" cy="0" r="1" gradientUnits="userSpaceOnUse" gradientTransform="translate(80.3542 48.0066) rotate(99.6063) scale(1.92817 5.08512)">
<stop stop-color="white"/>
<stop offset="0.84" stop-color="white" stop-opacity="0"/>
</radialGradient>
<radialGradient id="paint20_radial_2944_11872" cx="0" cy="0" r="1" gradientUnits="userSpaceOnUse" gradientTransform="translate(86.5431 48.4189) rotate(99.6063) scale(1.92817 2.06669)">
<stop stop-color="white"/>
<stop offset="0.84" stop-color="white" stop-opacity="0"/>
</radialGradient>
<radialGradient id="paint21_radial_2944_11872" cx="0" cy="0" r="1" gradientUnits="userSpaceOnUse" gradientTransform="translate(66.4421 46.2005) rotate(79.8213) scale(1.32556 3.15103)">
<stop stop-color="white"/>
<stop offset="0.84" stop-color="white" stop-opacity="0"/>
</radialGradient>
<radialGradient id="paint22_radial_2944_11872" cx="0" cy="0" r="1" gradientUnits="userSpaceOnUse" gradientTransform="translate(70.1577 62.6722) rotate(59.0688) scale(1.32556 3.15103)">
<stop stop-color="white"/>
<stop offset="0.84" stop-color="white" stop-opacity="0"/>
</radialGradient>
<radialGradient id="paint23_radial_2944_11872" cx="0" cy="0" r="1" gradientUnits="userSpaceOnUse" gradientTransform="translate(80.9093 60.7453) rotate(165.501) scale(1.92817 5.08513)">
<stop stop-color="white"/>
<stop offset="0.84" stop-color="white" stop-opacity="0"/>
</radialGradient>
<radialGradient id="paint24_radial_2944_11872" cx="0" cy="0" r="1" gradientUnits="userSpaceOnUse" gradientTransform="translate(76.1771 45.1769) rotate(154.854) scale(1.92817 5.08512)">
<stop stop-color="white"/>
<stop offset="0.84" stop-color="white" stop-opacity="0"/>
</radialGradient>
<radialGradient id="paint25_radial_2944_11872" cx="0" cy="0" r="1" gradientUnits="userSpaceOnUse" gradientTransform="translate(144.468 53.0458) rotate(90) scale(20.6191)">
<stop stop-color="#FFE86C"/>
<stop offset="1" stop-color="#FF9900"/>
</radialGradient>
<radialGradient id="paint26_radial_2944_11872" cx="0" cy="0" r="1" gradientUnits="userSpaceOnUse" gradientTransform="translate(144.469 53.0473) rotate(90) scale(16.0371)">
<stop stop-color="#FFF5BC"/>
<stop offset="0.765" stop-color="#FFA800"/>
</radialGradient>
<radialGradient id="paint27_radial_2944_11872" cx="0" cy="0" r="1" gradientUnits="userSpaceOnUse" gradientTransform="translate(152.093 48.0066) rotate(99.6063) scale(1.92817 5.08512)">
<stop stop-color="white"/>
<stop offset="0.84" stop-color="white" stop-opacity="0"/>
</radialGradient>
<radialGradient id="paint28_radial_2944_11872" cx="0" cy="0" r="1" gradientUnits="userSpaceOnUse" gradientTransform="translate(158.281 48.4189) rotate(99.6063) scale(1.92817 2.06669)">
<stop stop-color="white"/>
<stop offset="0.84" stop-color="white" stop-opacity="0"/>
</radialGradient>
<radialGradient id="paint29_radial_2944_11872" cx="0" cy="0" r="1" gradientUnits="userSpaceOnUse" gradientTransform="translate(138.181 46.2005) rotate(79.8213) scale(1.32556 3.15103)">
<stop stop-color="white"/>
<stop offset="0.84" stop-color="white" stop-opacity="0"/>
</radialGradient>
<radialGradient id="paint30_radial_2944_11872" cx="0" cy="0" r="1" gradientUnits="userSpaceOnUse" gradientTransform="translate(141.897 62.6722) rotate(59.0688) scale(1.32556 3.15103)">
<stop stop-color="white"/>
<stop offset="0.84" stop-color="white" stop-opacity="0"/>
</radialGradient>
<radialGradient id="paint31_radial_2944_11872" cx="0" cy="0" r="1" gradientUnits="userSpaceOnUse" gradientTransform="translate(152.648 60.7453) rotate(165.501) scale(1.92817 5.08513)">
<stop stop-color="white"/>
<stop offset="0.84" stop-color="white" stop-opacity="0"/>
</radialGradient>
<radialGradient id="paint32_radial_2944_11872" cx="0" cy="0" r="1" gradientUnits="userSpaceOnUse" gradientTransform="translate(147.916 45.1769) rotate(154.854) scale(1.92817 5.08512)">
<stop stop-color="white"/>
<stop offset="0.84" stop-color="white" stop-opacity="0"/>
</radialGradient>
</defs>
</svg>
