<svg width="221" height="208" viewBox="0 0 221 208" fill="none" xmlns="http://www.w3.org/2000/svg">
<path d="M21.5957 66.2451C34.4947 73.5957 38.9926 90.0111 31.642 102.91C18.7431 95.5595 14.2452 79.1441 21.5957 66.2451Z" fill="#00E5FF"/>
<path d="M47.002 87.6387C52.9343 98.5888 48.8666 112.275 37.9165 118.207C31.9842 107.257 36.0519 93.571 47.002 87.6387Z" fill="#00E5FF"/>
<path d="M11.4141 99.1304C23.7663 97.5428 35.0667 106.269 36.6543 118.621C24.3021 120.209 13.0017 111.483 11.4141 99.1304Z" fill="#00BED4"/>
<path d="M54.0469 108.646C62.1565 118.098 61.0687 132.334 51.6171 140.443C43.5075 130.992 44.5954 116.756 54.0469 108.646Z" fill="#00E5FF"/>
<path d="M31.3115 100.521C32.9786 109.689 41.0639 131.216 60.0687 143.969" stroke="#00E5FF" stroke-width="1.40178" stroke-linecap="round" stroke-linejoin="round"/>
<path d="M21.3115 133.32C31.7962 126.6 45.744 129.651 52.4647 140.136C41.98 146.856 28.0323 143.805 21.3115 133.32Z" fill="#00BED4"/>
<path d="M192.324 66.2451C179.425 73.5957 174.927 90.0111 182.278 102.91C195.177 95.5595 199.675 79.1441 192.324 66.2451Z" fill="#00E5FF"/>
<path d="M166.92 87.6387C160.988 98.5888 165.055 112.275 176.005 118.207C181.938 107.257 177.87 93.571 166.92 87.6387Z" fill="#00E5FF"/>
<path d="M202.51 99.1304C190.158 97.5428 178.857 106.269 177.269 118.621C189.622 120.209 200.922 111.483 202.51 99.1304Z" fill="#00BED4"/>
<path d="M159.883 108.646C151.773 118.098 152.861 132.334 162.313 140.443C170.422 130.992 169.334 116.756 159.883 108.646Z" fill="#00E5FF"/>
<path d="M182.62 100.521C180.953 109.689 172.868 131.216 153.863 143.969" stroke="#00E5FF" stroke-width="1.40178" stroke-linecap="round" stroke-linejoin="round"/>
<path d="M192.622 133.322C182.137 126.602 168.19 129.653 161.469 140.138C171.954 146.858 185.901 143.807 192.622 133.322Z" fill="#00BED4"/>
<path d="M108.504 7.38281L173.817 55.2079V150.858L108.504 198.683L43.1918 150.858V55.2079L108.504 7.38281Z" fill="#00E5FF"/>
<path d="M108.504 23.9385L162.666 63.4861V142.581L108.504 182.129L54.3427 142.581V63.4861L108.504 23.9385Z" fill="url(#paint0_linear_3576_7278)"/>
<path d="M108.537 23.9386L129.69 39.5736C108.833 59.3306 90.2648 49.3727 82.7854 42.3329L108.537 23.9386Z" fill="url(#paint1_radial_3576_7278)"/>
<path d="M54.2416 63.4864L43.2051 55.209V150.859L54.2416 142.582V63.4864Z" fill="#74F1FF"/>
<path d="M162.766 63.4864L173.803 55.209V150.859L162.766 142.582V63.4864Z" fill="#00E5FF"/>
<path d="M108.504 23.9377V7.38281L173.804 55.2079L162.767 63.4853L108.504 23.9377Z" fill="url(#paint2_linear_3576_7278)"/>
<path d="M108.504 182.128V198.683L43.2043 150.858L54.2408 142.581L108.504 182.128Z" fill="url(#paint3_linear_3576_7278)"/>
<path d="M142.534 48.769L54.2412 114.069V142.58L162.767 63.4845L142.534 48.769Z" fill="url(#paint4_linear_3576_7278)"/>
<path d="M74.4749 157.296L67.1172 151.778L162.767 79.1206V88.3177L74.4749 157.296Z" fill="url(#paint5_linear_3576_7278)"/>
<path d="M162.768 142.581L142.534 157.296C135.387 129.471 152.982 115.352 162.768 112.23L162.768 142.581Z" fill="url(#paint6_radial_3576_7278)"/>
<path d="M107.447 7.16928L130.134 17.7148C109.278 37.4718 88.3921 28.943 80.9126 21.9031L107.447 7.16928Z" fill="url(#paint7_radial_3576_7278)"/>
<path d="M162.768 63.4873L183.916 47.8897C191.691 75.5464 172.48 88.6557 162.768 91.9977L162.768 63.4873Z" fill="url(#paint8_radial_3576_7278)"/>
<mask id="path-25-outside-1_3576_7278" maskUnits="userSpaceOnUse" x="77.8633" y="61.7632" width="50" height="81" fill="black">
<rect fill="white" x="77.8633" y="61.7632" width="50" height="81"/>
<path d="M116.825 69.3999C118.768 69.6354 119.798 70.6066 119.915 72.3136C120.033 75.8453 120.121 79.9656 120.18 84.6745C120.239 89.3246 120.269 94.1807 120.269 99.2428C120.327 104.246 120.327 109.19 120.269 114.076C120.21 118.903 120.151 123.258 120.092 127.143C120.033 129.733 119.445 131.705 118.326 133.059C117.208 134.413 115.295 135.148 112.587 135.266C111.174 135.325 110.056 135.178 109.232 134.825C108.408 134.53 107.76 134.03 107.29 133.324C106.878 132.617 106.583 131.734 106.407 130.675C106.23 129.615 106.112 128.409 106.053 127.055C105.759 120.639 105.494 114.017 105.259 107.189C105.082 100.302 104.906 93.5921 104.729 87.0584C104.023 87.3527 103.11 87.7647 101.992 88.2945C100.874 88.7654 99.667 89.2952 98.372 89.8838C97.1359 90.4724 95.8704 91.0316 94.5755 91.5613C93.3394 92.0322 92.2504 92.356 91.3086 92.5325C90.1903 92.768 89.2485 92.6503 88.4833 92.1794C87.7181 91.6496 86.9823 90.6784 86.276 89.2657C85.5696 87.853 85.2459 86.6758 85.3047 85.734C85.4225 84.7334 85.8051 83.9682 86.4525 83.4384C87.5121 82.6144 88.7776 81.6726 90.2491 80.6131C91.7207 79.5535 93.2511 78.494 94.8403 77.4345C96.4296 76.3162 97.96 75.2272 99.4315 74.1677C100.962 73.1082 102.286 72.1958 103.405 71.4306C104.405 70.7243 105.318 70.224 106.142 69.9297C106.966 69.6354 107.849 69.4293 108.791 69.3116C109.968 69.1939 111.322 69.1645 112.852 69.2233C114.382 69.2233 115.707 69.2822 116.825 69.3999Z"/>
</mask>
<path d="M116.825 69.3999C118.768 69.6354 119.798 70.6066 119.915 72.3136C120.033 75.8453 120.121 79.9656 120.18 84.6745C120.239 89.3246 120.269 94.1807 120.269 99.2428C120.327 104.246 120.327 109.19 120.269 114.076C120.21 118.903 120.151 123.258 120.092 127.143C120.033 129.733 119.445 131.705 118.326 133.059C117.208 134.413 115.295 135.148 112.587 135.266C111.174 135.325 110.056 135.178 109.232 134.825C108.408 134.53 107.76 134.03 107.29 133.324C106.878 132.617 106.583 131.734 106.407 130.675C106.23 129.615 106.112 128.409 106.053 127.055C105.759 120.639 105.494 114.017 105.259 107.189C105.082 100.302 104.906 93.5921 104.729 87.0584C104.023 87.3527 103.11 87.7647 101.992 88.2945C100.874 88.7654 99.667 89.2952 98.372 89.8838C97.1359 90.4724 95.8704 91.0316 94.5755 91.5613C93.3394 92.0322 92.2504 92.356 91.3086 92.5325C90.1903 92.768 89.2485 92.6503 88.4833 92.1794C87.7181 91.6496 86.9823 90.6784 86.276 89.2657C85.5696 87.853 85.2459 86.6758 85.3047 85.734C85.4225 84.7334 85.8051 83.9682 86.4525 83.4384C87.5121 82.6144 88.7776 81.6726 90.2491 80.6131C91.7207 79.5535 93.2511 78.494 94.8403 77.4345C96.4296 76.3162 97.96 75.2272 99.4315 74.1677C100.962 73.1082 102.286 72.1958 103.405 71.4306C104.405 70.7243 105.318 70.224 106.142 69.9297C106.966 69.6354 107.849 69.4293 108.791 69.3116C109.968 69.1939 111.322 69.1645 112.852 69.2233C114.382 69.2233 115.707 69.2822 116.825 69.3999Z" fill="white"/>
<path d="M116.825 69.3999L117.711 62.0957L117.653 62.0887L117.595 62.0826L116.825 69.3999ZM119.915 72.3136L127.269 72.0684L127.265 71.9378L127.256 71.8073L119.915 72.3136ZM120.18 84.6745L112.823 84.7665L112.823 84.7676L120.18 84.6745ZM120.269 99.2428H112.911V99.286L112.911 99.3293L120.269 99.2428ZM120.269 114.076L127.626 114.166L127.626 114.165L120.269 114.076ZM120.092 127.143L127.448 127.31L127.448 127.283L127.449 127.255L120.092 127.143ZM118.326 133.059L112.654 128.373L112.654 128.373L118.326 133.059ZM112.587 135.266L112.893 142.617L112.907 142.617L112.587 135.266ZM109.232 134.825L112.13 128.062L111.921 127.972L111.707 127.896L109.232 134.825ZM107.29 133.324L100.934 137.031L101.045 137.221L101.168 137.405L107.29 133.324ZM106.407 130.675L113.664 129.465L113.664 129.465L106.407 130.675ZM106.053 127.055L113.404 126.735L113.404 126.727L113.403 126.718L106.053 127.055ZM105.259 107.189L97.9036 107.378L97.9044 107.41L97.9055 107.443L105.259 107.189ZM104.729 87.0584L112.084 86.8596L111.794 76.1436L101.899 80.2667L104.729 87.0584ZM101.992 88.2945L104.847 95.0756L104.996 95.013L105.142 94.9439L101.992 88.2945ZM98.372 89.8838L95.3274 83.1856L95.2678 83.2126L95.2087 83.2408L98.372 89.8838ZM94.5755 91.5613L97.1948 98.437L97.2784 98.4051L97.3613 98.3712L94.5755 91.5613ZM91.3086 92.5325L89.9527 85.3009L89.8726 85.3159L89.7929 85.3327L91.3086 92.5325ZM88.4833 92.1794L84.2952 98.2288L84.4582 98.3417L84.6271 98.4456L88.4833 92.1794ZM86.276 89.2657L92.8569 85.9753L92.8569 85.9753L86.276 89.2657ZM85.3047 85.734L77.9974 84.8743L77.9739 85.0742L77.9614 85.2751L85.3047 85.734ZM86.4525 83.4384L81.9354 77.6306L81.8637 77.6864L81.7934 77.7439L86.4525 83.4384ZM90.2491 80.6131L94.5483 86.5841L90.2491 80.6131ZM94.8403 77.4345L98.9217 83.5565L98.9988 83.5051L99.0746 83.4517L94.8403 77.4345ZM99.4315 74.1677L95.2435 68.1183L95.1876 68.157L95.1324 68.1967L99.4315 74.1677ZM103.405 71.4306L107.559 77.503L107.604 77.4727L107.648 77.4417L103.405 71.4306ZM106.142 69.9297L103.667 63.0006L103.667 63.0006L106.142 69.9297ZM108.791 69.3116L108.058 61.9904L107.968 61.9995L107.878 62.0107L108.791 69.3116ZM112.852 69.2233L112.569 76.5756L112.711 76.581H112.852V69.2233ZM116.825 69.3999L115.94 76.7042C115.934 76.7035 114.999 76.594 114.007 75.6583C112.906 74.6198 112.616 73.4065 112.575 72.8198L119.915 72.3136L127.256 71.8073C127.097 69.5137 126.234 66.9612 124.102 64.9515C122.08 63.0446 119.659 62.3318 117.711 62.0957L116.825 69.3999ZM119.915 72.3136L112.562 72.5587C112.677 76.0258 112.765 80.093 112.823 84.7665L120.18 84.6745L127.537 84.5825C127.478 79.8382 127.389 75.6647 127.269 72.0684L119.915 72.3136ZM120.18 84.6745L112.823 84.7676C112.882 89.3841 112.911 94.209 112.911 99.2428H120.269H127.626C127.626 94.1523 127.597 89.2651 127.537 84.5814L120.18 84.6745ZM120.269 99.2428L112.911 99.3293C112.97 104.276 112.97 109.162 112.911 113.987L120.269 114.076L127.626 114.165C127.685 109.219 127.685 104.216 127.626 99.1562L120.269 99.2428ZM120.269 114.076L112.911 113.986C112.853 118.807 112.794 123.156 112.735 127.032L120.092 127.143L127.449 127.255C127.508 123.361 127.567 118.998 127.626 114.166L120.269 114.076ZM120.092 127.143L112.736 126.976C112.718 127.776 112.621 128.241 112.556 128.46C112.496 128.662 112.487 128.574 112.654 128.373L118.326 133.059L123.999 137.745C126.567 134.636 127.369 130.797 127.448 127.31L120.092 127.143ZM118.326 133.059L112.654 128.373C112.828 128.162 113.009 128.006 113.163 127.9C113.312 127.797 113.408 127.76 113.411 127.759C113.412 127.759 113.328 127.791 113.132 127.827C112.937 127.863 112.654 127.899 112.268 127.915L112.587 135.266L112.907 142.617C116.573 142.457 120.976 141.404 123.999 137.745L118.326 133.059ZM112.587 135.266L112.281 127.915C112.094 127.923 111.948 127.922 111.839 127.918C111.73 127.915 111.669 127.908 111.649 127.905C111.628 127.902 111.662 127.906 111.74 127.926C111.819 127.946 111.954 127.986 112.13 128.062L109.232 134.825L106.334 141.587C108.586 142.553 110.949 142.698 112.893 142.617L112.587 135.266ZM109.232 134.825L111.707 127.896C111.973 127.991 112.297 128.152 112.627 128.407C112.959 128.663 113.221 128.956 113.412 129.242L107.29 133.324L101.168 137.405C102.545 139.471 104.492 140.945 106.757 141.754L109.232 134.825ZM107.29 133.324L113.645 129.616C113.726 129.756 113.748 129.831 113.74 129.805C113.731 129.779 113.699 129.672 113.664 129.465L106.407 130.675L99.149 131.884C99.4288 133.563 99.9559 135.354 100.934 137.031L107.29 133.324ZM106.407 130.675L113.664 129.465C113.547 128.765 113.453 127.864 113.404 126.735L106.053 127.055L98.7027 127.375C98.7714 128.953 98.9127 130.466 99.1491 131.884L106.407 130.675ZM106.053 127.055L113.403 126.718C113.111 120.331 112.847 113.737 112.612 106.936L105.259 107.189L97.9055 107.443C98.1419 114.297 98.4078 120.947 98.7035 127.392L106.053 127.055ZM105.259 107.189L112.614 107C112.437 100.11 112.261 93.3968 112.084 86.8596L104.729 87.0584L97.3741 87.2572C97.5506 93.7873 97.7271 100.494 97.9036 107.378L105.259 107.189ZM104.729 87.0584L101.899 80.2667C101.04 80.6246 100.011 81.0917 98.8423 81.6451L101.992 88.2945L105.142 94.9439C106.21 94.4378 107.005 94.0809 107.559 93.8501L104.729 87.0584ZM101.992 88.2945L99.1368 81.5134C97.9452 82.0151 96.6748 82.5731 95.3274 83.1856L98.372 89.8838L101.417 96.582C102.659 96.0172 103.802 95.5157 104.847 95.0756L101.992 88.2945ZM98.372 89.8838L95.2087 83.2408C94.0995 83.769 92.96 84.2726 91.7896 84.7514L94.5755 91.5613L97.3613 98.3712C98.7809 97.7905 100.172 97.1758 101.535 96.5267L98.372 89.8838ZM94.5755 91.5613L91.9561 84.6856C90.9875 85.0547 90.3361 85.229 89.9527 85.3009L91.3086 92.5325L92.6646 99.7642C94.1647 99.4829 95.6912 99.0098 97.1948 98.437L94.5755 91.5613ZM91.3086 92.5325L89.7929 85.3327C89.874 85.3156 90.1916 85.2594 90.6761 85.3199C91.1891 85.3841 91.776 85.5664 92.3394 85.9131L88.4833 92.1794L84.6271 98.4456C87.4008 100.152 90.3845 100.246 92.8244 99.7324L91.3086 92.5325ZM88.4833 92.1794L92.6714 86.1299C92.8893 86.2808 93.0356 86.4146 93.1176 86.4966C93.1995 86.5785 93.2322 86.6237 93.2223 86.6106C93.2129 86.5982 93.1728 86.5435 93.1067 86.4341C93.0409 86.3254 92.9567 86.1749 92.8569 85.9753L86.276 89.2657L79.695 92.5562C80.6166 94.3993 82.0341 96.6634 84.2952 98.2288L88.4833 92.1794ZM86.276 89.2657L92.8569 85.9753C92.7616 85.7847 92.697 85.6374 92.6547 85.5312C92.6339 85.4788 92.6196 85.4391 92.6103 85.4118C92.601 85.3844 92.5975 85.3715 92.5977 85.3723C92.598 85.3732 92.6026 85.3902 92.6092 85.4225C92.6158 85.4549 92.6249 85.5051 92.6332 85.5719C92.6497 85.7036 92.6654 85.9158 92.6481 86.193L85.3047 85.734L77.9614 85.2751C77.7841 88.1121 78.7546 90.6754 79.695 92.5562L86.276 89.2657ZM85.3047 85.734L92.6121 86.5937C92.5887 86.7926 92.5117 87.1986 92.2609 87.7001C91.9991 88.2238 91.6094 88.7258 91.1117 89.133L86.4525 83.4384L81.7934 77.7439C79.3777 79.7204 78.2896 82.3914 77.9974 84.8743L85.3047 85.734ZM86.4525 83.4384L90.9697 89.2462C91.9378 88.4933 93.1268 87.6076 94.5483 86.5841L90.2491 80.6131L85.95 74.642C84.4284 75.7376 83.0863 76.7354 81.9354 77.6306L86.4525 83.4384ZM90.2491 80.6131L94.5483 86.5841C95.9444 85.5788 97.402 84.5696 98.9217 83.5565L94.8403 77.4345L90.759 71.3125C89.1001 72.4185 87.4969 73.5282 85.95 74.642L90.2491 80.6131ZM94.8403 77.4345L99.0746 83.4517C100.684 82.3191 102.236 81.2148 103.731 80.1387L99.4315 74.1677L95.1324 68.1967C93.6838 69.2396 92.1751 70.3132 90.606 71.4173L94.8403 77.4345ZM99.4315 74.1677L103.62 80.2172C105.143 79.1627 106.455 78.2584 107.559 77.503L103.405 71.4306L99.2499 65.3583C98.1172 66.1333 96.7812 67.0537 95.2435 68.1183L99.4315 74.1677ZM103.405 71.4306L107.648 77.4417C107.96 77.2213 108.202 77.0729 108.377 76.977C108.554 76.88 108.632 76.8533 108.616 76.8587L106.142 69.9297L103.667 63.0006C102.02 63.5888 100.508 64.4693 99.1616 65.4196L103.405 71.4306ZM106.142 69.9297L108.616 76.8587C108.894 76.7595 109.25 76.6692 109.703 76.6125L108.791 69.3116L107.878 62.0107C106.448 62.1895 105.037 62.5112 103.667 63.0006L106.142 69.9297ZM108.791 69.3116L109.523 76.6328C110.281 76.5569 111.285 76.5262 112.569 76.5756L112.852 69.2233L113.135 61.8711C111.359 61.8027 109.654 61.8309 108.058 61.9904L108.791 69.3116ZM112.852 69.2233V76.581C114.21 76.581 115.265 76.634 116.055 76.7172L116.825 69.3999L117.595 62.0826C116.149 61.9304 114.555 61.8656 112.852 61.8656V69.2233Z" fill="#00BED4" mask="url(#path-25-outside-1_3576_7278)"/>
<path d="M105.507 17.7027C106.803 15.1638 110.431 15.1638 111.726 17.7027L116.356 26.7749C116.863 27.7689 117.815 28.4605 118.917 28.6358L128.976 30.2356C131.791 30.6833 132.912 34.1336 130.898 36.1505L123.701 43.3572C122.912 44.1468 122.548 45.2658 122.722 46.3681L124.309 56.429C124.753 59.2447 121.818 61.3771 119.278 60.0846L110.2 55.4664C109.205 54.9604 108.028 54.9604 107.034 55.4664L97.9555 60.0846C95.4149 61.3771 92.4799 59.2447 92.924 56.429L94.5109 46.3681C94.6847 45.2658 94.3211 44.1468 93.5325 43.3572L86.3351 36.1505C84.3208 34.1336 85.4419 30.6833 88.257 30.2356L98.3158 28.6358C99.4179 28.4605 100.37 27.7689 100.877 26.7749L105.507 17.7027Z" fill="url(#paint9_radial_3576_7278)"/>
<path d="M107.061 20.9915C107.709 19.722 109.523 19.722 110.171 20.9915L114.86 30.1797C115.113 30.6767 115.589 31.0225 116.14 31.1101L126.328 32.7303C127.735 32.9542 128.296 34.6793 127.289 35.6878L119.999 42.9866C119.605 43.3814 119.423 43.9409 119.51 44.4921L121.117 54.6816C121.339 56.0894 119.872 57.1556 118.601 56.5094L109.407 51.8322C108.91 51.5792 108.322 51.5792 107.824 51.8322L98.6301 56.5094C97.3598 57.1556 95.8923 56.0894 96.1143 54.6816L97.7215 44.4921C97.8084 43.9409 97.6266 43.3814 97.2323 42.9866L89.9429 35.6878C88.9357 34.6793 89.4963 32.9542 90.9038 32.7303L101.091 31.1101C101.642 31.0225 102.118 30.6767 102.372 30.1797L107.061 20.9915Z" fill="url(#paint10_radial_3576_7278)"/>
<path d="M112.368 31.9773C112.026 29.7764 114.255 29.6179 115.413 29.8138C116.57 30.0097 119.724 30.7221 123.079 32.0042C127.272 33.6069 126.11 35.1962 125.095 35.9174C123.66 36.9372 121.476 36.1978 118.872 35.757C116.267 35.3162 112.795 34.7285 112.368 31.9773Z" fill="url(#paint11_radial_3576_7278)"/>
<path d="M124.959 33.2308C125.029 31.0996 125.988 30.726 126.458 30.8057C126.929 30.8853 128.193 31.2778 129.487 32.2112C131.104 33.3778 130.457 35.0543 129.957 35.8627C129.251 37.0059 128.399 36.4919 127.341 36.3128C126.282 36.1336 124.871 35.8948 124.959 33.2308Z" fill="url(#paint12_radial_3576_7278)" fill-opacity="0.56"/>
<path d="M95.7153 31.3947C95.029 30.0421 96.2894 29.4468 97.0054 29.3183C97.7214 29.1897 99.7117 28.9554 101.945 29.0463C104.737 29.16 104.414 30.4479 103.984 31.1401C103.376 32.1189 101.943 32.1214 100.332 32.4107C98.7211 32.6999 96.5732 33.0856 95.7153 31.3947Z" fill="url(#paint13_radial_3576_7278)" fill-opacity="0.5"/>
<path d="M101.386 55.6168C100.265 54.5951 101.233 53.5918 101.857 53.2179C102.481 52.844 104.259 51.9196 106.38 51.2133C109.031 50.3304 109.185 51.6492 109.028 52.4488C108.806 53.5796 107.467 54.0897 106.064 54.931C104.66 55.7723 102.788 56.894 101.386 55.6168Z" fill="url(#paint14_radial_3576_7278)" fill-opacity="0.5"/>
<path d="M118.225 44.0854C120.095 42.8745 121.15 44.8448 121.444 45.9814C121.738 47.1179 122.375 50.2874 122.575 53.8734C122.825 58.3558 120.9 57.9442 119.827 57.3122C118.31 56.4185 118.093 54.1231 117.431 51.5659C116.77 49.0087 115.889 45.5991 118.225 44.0854Z" fill="url(#paint15_radial_3576_7278)"/>
<path d="M110.478 22.9935C112.091 21.458 113.493 23.1994 113.991 24.2621C114.49 25.3247 115.703 28.3219 116.561 31.8091C117.635 36.1682 115.667 36.1195 114.496 35.6966C112.84 35.0986 112.202 32.8828 111.08 30.4918C109.958 28.1008 108.461 24.9128 110.478 22.9935Z" fill="url(#paint16_radial_3576_7278)"/>
<path d="M69.943 37.9371C71.2387 35.3982 74.8666 35.3981 76.1623 37.9371L78.4263 42.3735C78.9336 43.3675 79.8855 44.0591 80.9876 44.2344L85.9065 45.0167C88.7216 45.4644 89.8427 48.9147 87.8284 50.9316L84.3088 54.4557C83.5202 55.2453 83.1566 56.3644 83.3304 57.4667L84.1064 62.3866C84.5505 65.2022 81.6155 67.3346 79.0749 66.0422L74.6356 63.7838C73.641 63.2778 72.4644 63.2778 71.4697 63.7838L67.0304 66.0422C64.4898 67.3346 61.5548 65.2022 61.9989 62.3866L62.7749 57.4667C62.9488 56.3644 62.5852 55.2453 61.7966 54.4557L58.277 50.9316C56.2627 48.9147 57.3837 45.4644 60.1988 45.0167L65.1177 44.2344C66.2198 44.0591 67.1717 43.3675 67.679 42.3735L69.943 37.9371Z" fill="url(#paint17_radial_3576_7278)"/>
<path d="M71.5008 39.4739C72.1487 38.2044 73.9626 38.2044 74.6104 39.4739L77.4594 45.0565C77.713 45.5535 78.189 45.8993 78.74 45.9869L84.9297 46.9713C86.3373 47.1952 86.8978 48.9203 85.8907 49.9288L81.4617 54.3634C81.0674 54.7582 80.8856 55.3177 80.9726 55.8689L81.949 62.0598C82.1711 63.4677 80.7036 64.5339 79.4333 63.8876L73.8471 61.0458C73.3498 60.7928 72.7615 60.7928 72.2641 61.0458L66.6779 63.8876C65.4076 64.5339 63.9401 63.4677 64.1622 62.0598L65.1387 55.8689C65.2256 55.3177 65.0438 54.7582 64.6495 54.3634L60.2206 49.9288C59.2134 48.9203 59.7739 47.1952 61.1815 46.9713L67.3712 45.9869C67.9222 45.8993 68.3982 45.5535 68.6518 45.0565L71.5008 39.4739Z" fill="url(#paint18_radial_3576_7278)"/>
<path d="M75.7656 46.5738C75.5184 44.9821 77.1307 44.8675 77.9678 45.0092C78.8049 45.1509 81.0855 45.666 83.5117 46.5933C86.5445 47.7524 85.7042 48.9017 84.9701 49.4232C83.932 50.1608 82.3527 49.626 80.4693 49.3073C78.5859 48.9885 76.0747 48.5635 75.7656 46.5738Z" fill="url(#paint19_radial_3576_7278)"/>
<path d="M84.8725 47.48C84.9234 45.9387 85.6165 45.6686 85.9567 45.7261C86.2969 45.7837 87.2112 46.0676 88.1468 46.7426C89.3163 47.5863 88.8486 48.7987 88.4872 49.3833C87.9761 50.2101 87.3603 49.8384 86.5949 49.7088C85.8294 49.5793 84.8088 49.4066 84.8725 47.48Z" fill="url(#paint20_radial_3576_7278)" fill-opacity="0.56"/>
<path d="M63.7234 46.1513C63.2271 45.173 64.1386 44.7425 64.6564 44.6496C65.1741 44.5566 66.6135 44.3871 68.2288 44.4529C70.2479 44.5351 70.0142 45.4665 69.7032 45.9671C69.2634 46.675 68.2272 46.6768 67.0622 46.886C65.8972 47.0952 64.3438 47.3741 63.7234 46.1513Z" fill="url(#paint21_radial_3576_7278)" fill-opacity="0.5"/>
<path d="M67.8255 63.6665C67.0148 62.9276 67.7146 62.2021 68.1659 61.9317C68.6171 61.6613 69.9031 60.9928 71.4368 60.4819C73.354 59.8434 73.4656 60.7972 73.3521 61.3754C73.1917 62.1933 72.2234 62.5621 71.208 63.1705C70.1927 63.779 68.839 64.5902 67.8255 63.6665Z" fill="url(#paint22_radial_3576_7278)" fill-opacity="0.5"/>
<path d="M80.0027 55.3309C81.3547 54.4551 82.1177 55.8801 82.3303 56.702C82.5428 57.5239 83.004 59.8161 83.1485 62.4094C83.3291 65.6511 81.9368 65.3535 81.1609 64.8964C80.0637 64.2501 79.9068 62.59 79.4286 60.7407C78.9504 58.8913 78.3128 56.4255 80.0027 55.3309Z" fill="url(#paint23_radial_3576_7278)"/>
<path d="M74.3991 40.0731C75.5659 38.9627 76.5791 40.2221 76.9399 40.9906C77.3007 41.7591 78.1774 43.9266 78.7986 46.4486C79.575 49.601 78.1517 49.5658 77.3048 49.26C76.107 48.8275 75.6461 47.225 74.8344 45.4959C74.0227 43.7667 72.9405 41.4612 74.3991 40.0731Z" fill="url(#paint24_radial_3576_7278)"/>
<path d="M141.682 37.9371C142.978 35.3982 146.606 35.3981 147.902 37.9371L150.166 42.3735C150.673 43.3675 151.625 44.0591 152.727 44.2344L157.646 45.0167C160.461 45.4644 161.582 48.9147 159.568 50.9316L156.048 54.4557C155.259 55.2453 154.896 56.3644 155.07 57.4667L155.846 62.3866C156.29 65.2022 153.355 67.3346 150.814 66.0422L146.375 63.7838C145.38 63.2778 144.204 63.2778 143.209 63.7838L138.77 66.0422C136.229 67.3346 133.294 65.2022 133.738 62.3866L134.514 57.4667C134.688 56.3644 134.324 55.2453 133.536 54.4557L130.016 50.9316C128.002 48.9147 129.123 45.4644 131.938 45.0167L136.857 44.2344C137.959 44.0591 138.911 43.3675 139.418 42.3735L141.682 37.9371Z" fill="url(#paint25_radial_3576_7278)"/>
<path d="M143.238 39.4739C143.886 38.2044 145.7 38.2044 146.348 39.4739L149.197 45.0565C149.45 45.5535 149.926 45.8993 150.477 45.9869L156.667 46.9713C158.075 47.1952 158.635 48.9203 157.628 49.9288L153.199 54.3634C152.805 54.7582 152.623 55.3177 152.71 55.8689L153.686 62.0598C153.908 63.4677 152.441 64.5339 151.171 63.8876L145.584 61.0458C145.087 60.7928 144.499 60.7928 144.001 61.0458L138.415 63.8876C137.145 64.5339 135.677 63.4677 135.899 62.0598L136.876 55.8689C136.963 55.3177 136.781 54.7582 136.387 54.3634L131.958 49.9288C130.951 48.9203 131.511 47.1952 132.919 46.9713L139.108 45.9869C139.66 45.8993 140.136 45.5535 140.389 45.0565L143.238 39.4739Z" fill="url(#paint26_radial_3576_7278)"/>
<path d="M147.505 46.5738C147.258 44.9821 148.87 44.8675 149.707 45.0092C150.544 45.1509 152.825 45.666 155.251 46.5933C158.284 47.7524 157.443 48.9017 156.709 49.4232C155.671 50.1608 154.092 49.626 152.209 49.3073C150.325 48.9885 147.814 48.5635 147.505 46.5738Z" fill="url(#paint27_radial_3576_7278)"/>
<path d="M156.611 47.48C156.662 45.9387 157.355 45.6686 157.695 45.7261C158.035 45.7837 158.949 46.0676 159.885 46.7426C161.055 47.5863 160.587 48.7987 160.225 49.3833C159.714 50.2101 159.099 49.8384 158.333 49.7088C157.568 49.5793 156.547 49.4066 156.611 47.48Z" fill="url(#paint28_radial_3576_7278)" fill-opacity="0.56"/>
<path d="M135.463 46.1513C134.966 45.173 135.878 44.7425 136.396 44.6496C136.913 44.5566 138.353 44.3871 139.968 44.4529C141.987 44.5351 141.753 45.4665 141.442 45.9671C141.003 46.675 139.966 46.6768 138.801 46.886C137.636 47.0952 136.083 47.3741 135.463 46.1513Z" fill="url(#paint29_radial_3576_7278)" fill-opacity="0.5"/>
<path d="M139.565 63.6665C138.754 62.9276 139.454 62.2021 139.905 61.9317C140.356 61.6613 141.642 60.9928 143.176 60.4819C145.093 59.8434 145.205 60.7972 145.091 61.3754C144.931 62.1933 143.963 62.5621 142.947 63.1705C141.932 63.779 140.578 64.5902 139.565 63.6665Z" fill="url(#paint30_radial_3576_7278)" fill-opacity="0.5"/>
<path d="M151.741 55.3309C153.093 54.4551 153.856 55.8801 154.069 56.702C154.281 57.5239 154.742 59.8161 154.887 62.4094C155.067 65.6511 153.675 65.3535 152.899 64.8964C151.802 64.2501 151.645 62.59 151.167 60.7407C150.689 58.8913 150.051 56.4255 151.741 55.3309Z" fill="url(#paint31_radial_3576_7278)"/>
<path d="M146.138 40.0731C147.305 38.9627 148.318 40.2221 148.679 40.9906C149.04 41.7591 149.917 43.9266 150.538 46.4486C151.314 49.601 149.891 49.5658 149.044 49.26C147.846 48.8275 147.385 47.225 146.574 45.4959C145.762 43.7667 144.68 41.4612 146.138 40.0731Z" fill="url(#paint32_radial_3576_7278)"/>
<path d="M13.0889 120.364C27.8624 121.832 38.6482 134.999 37.1796 149.773C22.4061 148.304 11.6203 135.137 13.0889 120.364Z" fill="#00E5FF"/>
<path d="M45 129.575C54.8733 137.166 56.7238 151.323 49.1333 161.196C39.26 153.606 37.4095 139.448 45 129.575Z" fill="#00E5FF"/>
<path d="M17.1621 154.548C27.8007 148.074 41.6735 151.45 48.1479 162.088C37.5094 168.563 23.6366 165.187 17.1621 154.548Z" fill="#00BED4"/>
<path d="M59.9805 145.901C71.2333 151.237 76.0298 164.685 70.6939 175.938C59.4411 170.602 54.6446 157.154 59.9805 145.901Z" fill="#00E5FF"/>
<path d="M35.9033 147.723C41.1556 155.421 57.2974 171.798 79.8463 175.719" stroke="#00E5FF" stroke-width="1.40178" stroke-linecap="round" stroke-linejoin="round"/>
<path d="M40.1084 181.757C46.9531 171.353 60.9361 168.468 71.3403 175.312C64.4956 185.716 50.5126 188.602 40.1084 181.757Z" fill="#00BED4"/>
<path d="M208.367 120.989C193.594 122.457 182.808 135.624 184.276 150.398C199.05 148.929 209.836 135.762 208.367 120.989Z" fill="#00E5FF"/>
<path d="M176.455 130.2C166.582 137.79 164.731 151.947 172.322 161.821C182.195 154.23 184.046 140.073 176.455 130.2Z" fill="#00E5FF"/>
<path d="M204.295 155.174C193.656 148.699 179.784 152.075 173.309 162.714C183.948 169.188 197.82 165.812 204.295 155.174Z" fill="#00BED4"/>
<path d="M161.484 146.529C150.232 151.865 145.435 165.313 150.771 176.565C162.024 171.229 166.82 157.782 161.484 146.529Z" fill="#00E5FF"/>
<path d="M185.56 148.353C180.307 156.051 164.165 172.427 141.617 176.348" stroke="#00E5FF" stroke-width="1.40178" stroke-linecap="round" stroke-linejoin="round"/>
<path d="M181.354 182.386C174.509 171.982 160.526 169.096 150.122 175.941C156.966 186.345 170.949 189.231 181.354 182.386Z" fill="#00BED4"/>
<path d="M35.0752 182.201L69.6388 174.486L75.8109 201.026L41.8645 207.815L46.1849 193.311L35.0752 182.201Z" fill="#00E5FF"/>
<path d="M181.976 182.201L147.412 174.486L141.24 201.026L175.186 207.815L170.866 193.311L181.976 182.201Z" fill="#00E5FF"/>
<path d="M141.237 201.023L143.088 187.444L160.679 190.691L141.237 201.023Z" fill="#00D7EF"/>
<path d="M165.931 164.917C121.51 154.242 96.3641 154.624 51.1309 164.917L56.6857 190.839C97.3012 183.839 120.07 183.144 160.685 190.839L165.931 164.917Z" fill="#58EEFF"/>
<path d="M75.8112 201.023L73.9595 188.062L56.6777 190.839L75.8112 201.023Z" fill="#00D7EF"/>
<defs>
<linearGradient id="paint0_linear_3576_7278" x1="-23.902" y1="-167.364" x2="132.449" y2="168.332" gradientUnits="userSpaceOnUse">
<stop stop-color="#009DFF"/>
<stop offset="1" stop-color="#00E5FF"/>
</linearGradient>
<radialGradient id="paint1_radial_3576_7278" cx="0" cy="0" r="1" gradientUnits="userSpaceOnUse" gradientTransform="translate(108.537 30.3766) scale(27.5914 16.9994)">
<stop stop-color="white" stop-opacity="0.22"/>
<stop offset="1" stop-color="white" stop-opacity="0"/>
</radialGradient>
<linearGradient id="paint2_linear_3576_7278" x1="113.102" y1="17.4997" x2="373.381" y2="218.917" gradientUnits="userSpaceOnUse">
<stop stop-color="#00E5FF"/>
<stop offset="1" stop-color="#00BCD2"/>
</linearGradient>
<linearGradient id="paint3_linear_3576_7278" x1="104.825" y1="187.647" x2="-36.8108" y2="84.6387" gradientUnits="userSpaceOnUse">
<stop stop-color="#00BCD2"/>
<stop offset="1" stop-color="#00E5FF"/>
</linearGradient>
<linearGradient id="paint4_linear_3576_7278" x1="414.769" y1="-117.699" x2="21.1315" y2="143.499" gradientUnits="userSpaceOnUse">
<stop stop-color="white" stop-opacity="0.4"/>
<stop offset="1" stop-color="white" stop-opacity="0"/>
</linearGradient>
<linearGradient id="paint5_linear_3576_7278" x1="99.3072" y1="248.348" x2="216.111" y2="9.22246" gradientUnits="userSpaceOnUse">
<stop stop-color="white" stop-opacity="0.13"/>
<stop offset="1" stop-color="white" stop-opacity="0"/>
</linearGradient>
<radialGradient id="paint6_radial_3576_7278" cx="0" cy="0" r="1" gradientTransform="matrix(-13.7957 21.1534 -10.4798 -7.30906 158.17 136.143)" gradientUnits="userSpaceOnUse">
<stop stop-color="white" stop-opacity="0.1"/>
<stop offset="1" stop-color="white" stop-opacity="0"/>
</radialGradient>
<radialGradient id="paint7_radial_3576_7278" cx="0" cy="0" r="1" gradientTransform="matrix(25.1908 1.79199 -1.30252 12.7103 104.051 14.3147)" gradientUnits="userSpaceOnUse">
<stop stop-color="white" stop-opacity="0.1"/>
<stop offset="1" stop-color="white" stop-opacity="0"/>
</radialGradient>
<radialGradient id="paint8_radial_3576_7278" cx="0" cy="0" r="1" gradientTransform="matrix(13.3137 -21.46 10.6425 7.07014 168.763 69.3906)" gradientUnits="userSpaceOnUse">
<stop stop-color="white" stop-opacity="0.1"/>
<stop offset="1" stop-color="white" stop-opacity="0"/>
</radialGradient>
<radialGradient id="paint9_radial_3576_7278" cx="0" cy="0" r="1" gradientUnits="userSpaceOnUse" gradientTransform="translate(108.617 40.1205) rotate(90) scale(28.5111)">
<stop stop-color="#FFE86C"/>
<stop offset="1" stop-color="#FF9900"/>
</radialGradient>
<radialGradient id="paint10_radial_3576_7278" cx="0" cy="0" r="1" gradientUnits="userSpaceOnUse" gradientTransform="translate(108.616 40.1201) rotate(90) scale(22.1753)">
<stop stop-color="#FFF5BC"/>
<stop offset="0.765" stop-color="#FFA800"/>
</radialGradient>
<radialGradient id="paint11_radial_3576_7278" cx="0" cy="0" r="1" gradientUnits="userSpaceOnUse" gradientTransform="translate(119.161 33.1523) rotate(99.6063) scale(2.66619 7.03148)">
<stop stop-color="white"/>
<stop offset="0.84" stop-color="white" stop-opacity="0"/>
</radialGradient>
<radialGradient id="paint12_radial_3576_7278" cx="0" cy="0" r="1" gradientUnits="userSpaceOnUse" gradientTransform="translate(127.717 33.7229) rotate(99.6063) scale(2.66619 2.85773)">
<stop stop-color="white"/>
<stop offset="0.84" stop-color="white" stop-opacity="0"/>
</radialGradient>
<radialGradient id="paint13_radial_3576_7278" cx="0" cy="0" r="1" gradientUnits="userSpaceOnUse" gradientTransform="translate(99.923 30.6567) rotate(79.8213) scale(1.83292 4.3571)">
<stop stop-color="white"/>
<stop offset="0.84" stop-color="white" stop-opacity="0"/>
</radialGradient>
<radialGradient id="paint14_radial_3576_7278" cx="0" cy="0" r="1" gradientUnits="userSpaceOnUse" gradientTransform="translate(105.059 53.4357) rotate(59.0688) scale(1.83292 4.3571)">
<stop stop-color="white"/>
<stop offset="0.84" stop-color="white" stop-opacity="0"/>
</radialGradient>
<radialGradient id="paint15_radial_3576_7278" cx="0" cy="0" r="1" gradientUnits="userSpaceOnUse" gradientTransform="translate(119.927 50.7661) rotate(165.501) scale(2.66619 7.03148)">
<stop stop-color="white"/>
<stop offset="0.84" stop-color="white" stop-opacity="0"/>
</radialGradient>
<radialGradient id="paint16_radial_3576_7278" cx="0" cy="0" r="1" gradientUnits="userSpaceOnUse" gradientTransform="translate(113.385 29.2446) rotate(154.854) scale(2.66619 7.03148)">
<stop stop-color="white"/>
<stop offset="0.84" stop-color="white" stop-opacity="0"/>
</radialGradient>
<radialGradient id="paint17_radial_3576_7278" cx="0" cy="0" r="1" gradientUnits="userSpaceOnUse" gradientTransform="translate(73.0527 52.4628) rotate(90) scale(20.6191)">
<stop stop-color="#FFE86C"/>
<stop offset="1" stop-color="#FF9900"/>
</radialGradient>
<radialGradient id="paint18_radial_3576_7278" cx="0" cy="0" r="1" gradientUnits="userSpaceOnUse" gradientTransform="translate(73.0556 52.4643) rotate(90) scale(16.0371)">
<stop stop-color="#FFF5BC"/>
<stop offset="0.765" stop-color="#FFA800"/>
</radialGradient>
<radialGradient id="paint19_radial_3576_7278" cx="0" cy="0" r="1" gradientUnits="userSpaceOnUse" gradientTransform="translate(80.6784 47.4236) rotate(99.6063) scale(1.92817 5.08512)">
<stop stop-color="white"/>
<stop offset="0.84" stop-color="white" stop-opacity="0"/>
</radialGradient>
<radialGradient id="paint20_radial_3576_7278" cx="0" cy="0" r="1" gradientUnits="userSpaceOnUse" gradientTransform="translate(86.8673 47.8359) rotate(99.6063) scale(1.92817 2.06669)">
<stop stop-color="white"/>
<stop offset="0.84" stop-color="white" stop-opacity="0"/>
</radialGradient>
<radialGradient id="paint21_radial_3576_7278" cx="0" cy="0" r="1" gradientUnits="userSpaceOnUse" gradientTransform="translate(66.7664 45.6175) rotate(79.8213) scale(1.32556 3.15103)">
<stop stop-color="white"/>
<stop offset="0.84" stop-color="white" stop-opacity="0"/>
</radialGradient>
<radialGradient id="paint22_radial_3576_7278" cx="0" cy="0" r="1" gradientUnits="userSpaceOnUse" gradientTransform="translate(70.4819 62.0892) rotate(59.0688) scale(1.32556 3.15103)">
<stop stop-color="white"/>
<stop offset="0.84" stop-color="white" stop-opacity="0"/>
</radialGradient>
<radialGradient id="paint23_radial_3576_7278" cx="0" cy="0" r="1" gradientUnits="userSpaceOnUse" gradientTransform="translate(81.2335 60.1623) rotate(165.501) scale(1.92817 5.08513)">
<stop stop-color="white"/>
<stop offset="0.84" stop-color="white" stop-opacity="0"/>
</radialGradient>
<radialGradient id="paint24_radial_3576_7278" cx="0" cy="0" r="1" gradientUnits="userSpaceOnUse" gradientTransform="translate(76.5013 44.5939) rotate(154.854) scale(1.92817 5.08512)">
<stop stop-color="white"/>
<stop offset="0.84" stop-color="white" stop-opacity="0"/>
</radialGradient>
<radialGradient id="paint25_radial_3576_7278" cx="0" cy="0" r="1" gradientUnits="userSpaceOnUse" gradientTransform="translate(144.792 52.4628) rotate(90) scale(20.6191)">
<stop stop-color="#FFE86C"/>
<stop offset="1" stop-color="#FF9900"/>
</radialGradient>
<radialGradient id="paint26_radial_3576_7278" cx="0" cy="0" r="1" gradientUnits="userSpaceOnUse" gradientTransform="translate(144.793 52.4643) rotate(90) scale(16.0371)">
<stop stop-color="#FFF5BC"/>
<stop offset="0.765" stop-color="#FFA800"/>
</radialGradient>
<radialGradient id="paint27_radial_3576_7278" cx="0" cy="0" r="1" gradientUnits="userSpaceOnUse" gradientTransform="translate(152.418 47.4236) rotate(99.6063) scale(1.92817 5.08512)">
<stop stop-color="white"/>
<stop offset="0.84" stop-color="white" stop-opacity="0"/>
</radialGradient>
<radialGradient id="paint28_radial_3576_7278" cx="0" cy="0" r="1" gradientUnits="userSpaceOnUse" gradientTransform="translate(158.606 47.8359) rotate(99.6063) scale(1.92817 2.06669)">
<stop stop-color="white"/>
<stop offset="0.84" stop-color="white" stop-opacity="0"/>
</radialGradient>
<radialGradient id="paint29_radial_3576_7278" cx="0" cy="0" r="1" gradientUnits="userSpaceOnUse" gradientTransform="translate(138.506 45.6175) rotate(79.8213) scale(1.32556 3.15103)">
<stop stop-color="white"/>
<stop offset="0.84" stop-color="white" stop-opacity="0"/>
</radialGradient>
<radialGradient id="paint30_radial_3576_7278" cx="0" cy="0" r="1" gradientUnits="userSpaceOnUse" gradientTransform="translate(142.221 62.0892) rotate(59.0688) scale(1.32556 3.15103)">
<stop stop-color="white"/>
<stop offset="0.84" stop-color="white" stop-opacity="0"/>
</radialGradient>
<radialGradient id="paint31_radial_3576_7278" cx="0" cy="0" r="1" gradientUnits="userSpaceOnUse" gradientTransform="translate(152.972 60.1623) rotate(165.501) scale(1.92817 5.08513)">
<stop stop-color="white"/>
<stop offset="0.84" stop-color="white" stop-opacity="0"/>
</radialGradient>
<radialGradient id="paint32_radial_3576_7278" cx="0" cy="0" r="1" gradientUnits="userSpaceOnUse" gradientTransform="translate(148.241 44.5939) rotate(154.854) scale(1.92817 5.08512)">
<stop stop-color="white"/>
<stop offset="0.84" stop-color="white" stop-opacity="0"/>
</radialGradient>
</defs>
</svg>
