<svg width="221" height="206" viewBox="0 0 221 206" fill="none" xmlns="http://www.w3.org/2000/svg">
<path d="M21.4043 66.248C34.3033 73.5986 38.8011 90.0141 31.4506 102.913C18.5516 95.5625 14.0538 79.147 21.4043 66.248Z" fill="#00E5FF"/>
<path d="M46.8105 87.6416C52.7429 98.5917 48.6752 112.278 37.7251 118.21C31.7928 107.26 35.8605 93.574 46.8105 87.6416Z" fill="#00E5FF"/>
<path d="M11.2227 99.1333C23.5748 97.5457 34.8753 106.272 36.4629 118.624C24.1107 120.212 12.8103 111.485 11.2227 99.1333Z" fill="#00BED4"/>
<path d="M53.8555 108.649C61.9651 118.1 60.8773 132.337 51.4257 140.446C43.3161 130.995 44.4039 116.759 53.8555 108.649Z" fill="#00E5FF"/>
<path d="M31.1201 100.523C32.7872 109.692 40.8725 131.219 59.8773 143.972" stroke="#00E5FF" stroke-width="1.40178" stroke-linecap="round" stroke-linejoin="round"/>
<path d="M21.1201 133.323C31.6048 126.603 45.5526 129.654 52.2733 140.139C41.7886 146.859 27.8408 143.808 21.1201 133.323Z" fill="#00BED4"/>
<path d="M192.133 66.248C179.234 73.5986 174.736 90.0141 182.087 102.913C194.985 95.5625 199.483 79.147 192.133 66.248Z" fill="#00E5FF"/>
<path d="M166.729 87.6416C160.796 98.5917 164.864 112.278 175.814 118.21C181.746 107.26 177.679 93.574 166.729 87.6416Z" fill="#00E5FF"/>
<path d="M202.318 99.1333C189.966 97.5457 178.666 106.272 177.078 118.624C189.43 120.212 200.731 111.485 202.318 99.1333Z" fill="#00BED4"/>
<path d="M159.691 108.649C151.582 118.1 152.67 132.337 162.121 140.446C170.231 130.995 169.143 116.759 159.691 108.649Z" fill="#00E5FF"/>
<path d="M182.429 100.523C180.762 109.692 172.676 131.219 153.672 143.972" stroke="#00E5FF" stroke-width="1.40178" stroke-linecap="round" stroke-linejoin="round"/>
<path d="M192.431 133.325C181.946 126.604 167.998 129.656 161.277 140.14C171.762 146.861 185.71 143.81 192.431 133.325Z" fill="#00BED4"/>
<path d="M108.313 7.38574L173.626 55.2108V150.861L108.313 198.686L43.0004 150.861V55.2108L108.313 7.38574Z" fill="#00E5FF"/>
<path d="M108.313 23.9414L162.475 63.4891V142.584L108.313 182.132L54.1513 142.584V63.4891L108.313 23.9414Z" fill="url(#paint0_linear_3576_7197)"/>
<path d="M108.346 23.9416L129.499 39.5765C108.642 59.3336 90.0734 49.3757 82.594 42.3358L108.346 23.9416Z" fill="url(#paint1_radial_3576_7197)"/>
<path d="M54.0502 63.4893L43.0137 55.2119V150.862L54.0502 142.585V63.4893Z" fill="#74F1FF"/>
<path d="M162.575 63.4893L173.611 55.2119V150.862L162.575 142.585V63.4893Z" fill="#00E5FF"/>
<path d="M108.312 23.9406V7.38574L173.612 55.2108L162.576 63.4882L108.312 23.9406Z" fill="url(#paint2_linear_3576_7197)"/>
<path d="M108.312 182.131V198.686L43.0129 150.861L54.0494 142.584L108.312 182.131Z" fill="url(#paint3_linear_3576_7197)"/>
<path d="M142.342 48.772L54.0498 114.072V142.583L162.576 63.4874L142.342 48.772Z" fill="url(#paint4_linear_3576_7197)"/>
<path d="M74.2835 157.299L66.9258 151.781L162.576 79.1235V88.3207L74.2835 157.299Z" fill="url(#paint5_linear_3576_7197)"/>
<path d="M162.576 142.584L142.343 157.299C135.195 129.474 152.791 115.355 162.576 112.233L162.576 142.584Z" fill="url(#paint6_radial_3576_7197)"/>
<path d="M107.256 7.17221L129.943 17.7177C109.086 37.4748 88.2007 28.9459 80.7212 21.9061L107.256 7.17221Z" fill="url(#paint7_radial_3576_7197)"/>
<path d="M162.577 63.4903L183.724 47.8927C191.5 75.5494 172.289 88.6586 162.576 92.0006L162.577 63.4903Z" fill="url(#paint8_radial_3576_7197)"/>
<mask id="path-25-outside-1_3576_7197" maskUnits="userSpaceOnUse" x="75.6719" y="61.7661" width="66" height="82" fill="black">
<rect fill="white" x="75.6719" y="61.7661" width="66" height="82"/>
<path d="M105.511 98.3628C107.453 98.2451 108.719 98.1273 109.307 98.0096C112.427 97.7153 114.87 96.8029 116.636 95.2725C118.402 93.7421 119.196 91.8291 119.02 89.5335C118.843 86.767 117.636 84.7069 115.4 83.3531C113.163 81.9404 110.426 81.44 107.188 81.8521C104.952 82.1464 103.009 82.9705 101.361 84.3243C99.7718 85.6781 98.624 87.2085 97.9177 88.9155C97.5645 89.8573 96.9759 90.593 96.1518 91.1228C95.3866 91.6525 94.5331 92.0351 93.5914 92.2706C92.6496 92.506 91.6489 92.5943 90.5894 92.5355C89.5299 92.4766 88.5587 92.3295 87.6758 92.094C86.4985 91.7408 85.5567 91.2405 84.8504 90.593C84.1441 89.9456 83.6437 89.1804 83.3494 88.2974C83.0551 87.4145 82.9668 86.4727 83.0846 85.4721C83.2023 84.4126 83.4672 83.3825 83.8792 82.3818C84.4089 80.9692 85.3802 79.527 86.7928 78.0555C88.2644 76.5251 90.0302 75.1419 92.0904 73.9058C94.2094 72.6108 96.5933 71.5513 99.2421 70.7272C101.95 69.9032 104.863 69.4323 107.983 69.3145C111.397 69.2557 114.634 69.6971 117.695 70.6389C120.815 71.5219 123.523 72.8168 125.818 74.5238C128.173 76.1719 130.027 78.1438 131.381 80.4394C132.734 82.735 133.411 85.2072 133.411 87.856C133.411 92.094 132.293 95.508 130.056 98.0979C127.878 100.688 124.935 102.483 121.227 103.484C124.935 103.955 127.79 105.367 129.791 107.722C131.851 110.017 132.882 113.078 132.882 116.904C132.882 119.612 132.293 122.143 131.116 124.497C129.938 126.793 128.29 128.794 126.171 130.501C124.052 132.208 121.492 133.533 118.49 134.474C115.488 135.475 112.192 135.975 108.601 135.975C104.893 135.975 101.538 135.593 98.5357 134.828C95.5927 134.062 93.0616 133.032 90.9426 131.737C88.8824 130.442 87.2932 128.941 86.1748 127.234C85.0564 125.469 84.4972 123.644 84.4972 121.76C84.4972 120.524 84.7621 119.376 85.2919 118.317C85.8805 117.257 86.7634 116.463 87.9406 115.933C88.647 115.58 89.3828 115.315 90.148 115.138C90.972 114.962 91.7666 114.903 92.5318 114.962C93.3559 115.021 94.0917 115.227 94.7392 115.58C95.3866 115.874 95.9164 116.345 96.3284 116.992C97.6822 119.288 99.4481 120.936 101.626 121.937C103.804 122.879 106.364 123.379 109.307 123.438C110.602 123.438 111.809 123.291 112.927 122.996C114.046 122.702 115.017 122.261 115.841 121.672C116.665 121.025 117.313 120.259 117.783 119.376C118.254 118.493 118.49 117.493 118.49 116.374C118.431 114.844 117.607 113.49 116.018 112.313C114.487 111.077 112.604 110.371 110.367 110.194C110.014 110.194 109.307 110.165 108.248 110.106C107.188 110.047 106.041 109.988 104.805 109.929C103.627 109.811 102.509 109.723 101.449 109.664C100.39 109.605 99.6835 109.576 99.3304 109.576C97.9766 109.517 96.9759 108.958 96.3284 107.898C95.7398 106.839 95.4455 105.632 95.4455 104.278C95.4455 102.925 95.7398 101.747 96.3284 100.747C96.9759 99.6872 97.9766 99.0691 99.3304 98.8925C101.567 98.5982 103.627 98.4216 105.511 98.3628Z"/>
</mask>
<path d="M105.511 98.3628C107.453 98.2451 108.719 98.1273 109.307 98.0096C112.427 97.7153 114.87 96.8029 116.636 95.2725C118.402 93.7421 119.196 91.8291 119.02 89.5335C118.843 86.767 117.636 84.7069 115.4 83.3531C113.163 81.9404 110.426 81.44 107.188 81.8521C104.952 82.1464 103.009 82.9705 101.361 84.3243C99.7718 85.6781 98.624 87.2085 97.9177 88.9155C97.5645 89.8573 96.9759 90.593 96.1518 91.1228C95.3866 91.6525 94.5331 92.0351 93.5914 92.2706C92.6496 92.506 91.6489 92.5943 90.5894 92.5355C89.5299 92.4766 88.5587 92.3295 87.6758 92.094C86.4985 91.7408 85.5567 91.2405 84.8504 90.593C84.1441 89.9456 83.6437 89.1804 83.3494 88.2974C83.0551 87.4145 82.9668 86.4727 83.0846 85.4721C83.2023 84.4126 83.4672 83.3825 83.8792 82.3818C84.4089 80.9692 85.3802 79.527 86.7928 78.0555C88.2644 76.5251 90.0302 75.1419 92.0904 73.9058C94.2094 72.6108 96.5933 71.5513 99.2421 70.7272C101.95 69.9032 104.863 69.4323 107.983 69.3145C111.397 69.2557 114.634 69.6971 117.695 70.6389C120.815 71.5219 123.523 72.8168 125.818 74.5238C128.173 76.1719 130.027 78.1438 131.381 80.4394C132.734 82.735 133.411 85.2072 133.411 87.856C133.411 92.094 132.293 95.508 130.056 98.0979C127.878 100.688 124.935 102.483 121.227 103.484C124.935 103.955 127.79 105.367 129.791 107.722C131.851 110.017 132.882 113.078 132.882 116.904C132.882 119.612 132.293 122.143 131.116 124.497C129.938 126.793 128.29 128.794 126.171 130.501C124.052 132.208 121.492 133.533 118.49 134.474C115.488 135.475 112.192 135.975 108.601 135.975C104.893 135.975 101.538 135.593 98.5357 134.828C95.5927 134.062 93.0616 133.032 90.9426 131.737C88.8824 130.442 87.2932 128.941 86.1748 127.234C85.0564 125.469 84.4972 123.644 84.4972 121.76C84.4972 120.524 84.7621 119.376 85.2919 118.317C85.8805 117.257 86.7634 116.463 87.9406 115.933C88.647 115.58 89.3828 115.315 90.148 115.138C90.972 114.962 91.7666 114.903 92.5318 114.962C93.3559 115.021 94.0917 115.227 94.7392 115.58C95.3866 115.874 95.9164 116.345 96.3284 116.992C97.6822 119.288 99.4481 120.936 101.626 121.937C103.804 122.879 106.364 123.379 109.307 123.438C110.602 123.438 111.809 123.291 112.927 122.996C114.046 122.702 115.017 122.261 115.841 121.672C116.665 121.025 117.313 120.259 117.783 119.376C118.254 118.493 118.49 117.493 118.49 116.374C118.431 114.844 117.607 113.49 116.018 112.313C114.487 111.077 112.604 110.371 110.367 110.194C110.014 110.194 109.307 110.165 108.248 110.106C107.188 110.047 106.041 109.988 104.805 109.929C103.627 109.811 102.509 109.723 101.449 109.664C100.39 109.605 99.6835 109.576 99.3304 109.576C97.9766 109.517 96.9759 108.958 96.3284 107.898C95.7398 106.839 95.4455 105.632 95.4455 104.278C95.4455 102.925 95.7398 101.747 96.3284 100.747C96.9759 99.6872 97.9766 99.0691 99.3304 98.8925C101.567 98.5982 103.627 98.4216 105.511 98.3628Z" fill="white"/>
<path d="M105.511 98.3628L105.741 105.717L105.848 105.714L105.956 105.707L105.511 98.3628ZM109.307 98.0096L108.616 90.6844L108.238 90.7202L107.864 90.7948L109.307 98.0096ZM116.636 95.2725L121.454 100.833L121.454 100.833L116.636 95.2725ZM119.02 89.5335L111.677 90.0022L111.68 90.0501L111.684 90.0978L119.02 89.5335ZM115.4 83.3531L111.471 89.5739L111.53 89.6113L111.59 89.6476L115.4 83.3531ZM107.188 81.8521L106.259 74.5533L106.244 74.5552L106.229 74.5573L107.188 81.8521ZM101.361 84.3243L96.6909 78.6388L96.64 78.6806L96.5899 78.7233L101.361 84.3243ZM97.9177 88.9155L91.119 86.1022L91.0718 86.2164L91.0285 86.332L97.9177 88.9155ZM96.1518 91.1228L92.1731 84.9336L92.0672 85.0017L91.9638 85.0733L96.1518 91.1228ZM90.5894 92.5355L90.9976 85.1891L90.9975 85.1891L90.5894 92.5355ZM87.6758 92.094L85.5615 99.1414L85.6703 99.174L85.78 99.2033L87.6758 92.094ZM84.8504 90.593L79.8786 96.0168L79.8786 96.0168L84.8504 90.593ZM83.3494 88.2974L90.3296 85.9707L90.3296 85.9707L83.3494 88.2974ZM83.0846 85.4721L90.3919 86.3318L90.3946 86.3082L90.3973 86.2846L83.0846 85.4721ZM83.8792 82.3818L90.6827 85.1833L90.7273 85.075L90.7684 84.9653L83.8792 82.3818ZM86.7928 78.0555L81.4892 72.9558L81.4851 72.9601L86.7928 78.0555ZM92.0904 73.9058L95.8759 80.2149L95.9015 80.1995L95.9271 80.184L92.0904 73.9058ZM99.2421 70.7272L97.0998 63.6883L97.0781 63.6949L97.0564 63.7017L99.2421 70.7272ZM107.983 69.3145L107.856 61.9579L107.781 61.9592L107.706 61.9621L107.983 69.3145ZM117.695 70.6389L115.531 77.6713L115.611 77.6958L115.692 77.7186L117.695 70.6389ZM125.818 74.5238L121.428 80.4281L121.512 80.491L121.599 80.5515L125.818 74.5238ZM131.381 80.4394L137.718 76.7018V76.7018L131.381 80.4394ZM130.056 98.0979L124.488 93.2888L124.456 93.3254L124.425 93.3625L130.056 98.0979ZM121.227 103.484L119.31 96.3801L120.3 110.783L121.227 103.484ZM129.791 107.722L124.185 112.487L124.249 112.562L124.315 112.636L129.791 107.722ZM131.116 124.497L137.663 127.855L137.68 127.821L137.697 127.788L131.116 124.497ZM126.171 130.501L121.556 124.771V124.771L126.171 130.501ZM118.49 134.474L116.287 127.454L116.225 127.474L116.163 127.494L118.49 134.474ZM98.5357 134.828L96.6843 141.949L96.7013 141.953L96.7184 141.957L98.5357 134.828ZM90.9426 131.737L87.027 137.967L87.0663 137.991L87.1059 138.016L90.9426 131.737ZM86.1748 127.234L79.9589 131.171L79.9892 131.219L80.0204 131.267L86.1748 127.234ZM85.2919 118.317L78.8601 114.744L78.7824 114.883L78.7109 115.026L85.2919 118.317ZM87.9406 115.933L90.96 122.643L91.0969 122.581L91.2311 122.514L87.9406 115.933ZM90.148 115.138L88.6063 107.944L88.5498 107.956L88.4935 107.969L90.148 115.138ZM92.5318 114.962L91.9675 122.298L91.9876 122.299L92.0076 122.301L92.5318 114.962ZM94.7392 115.58L91.2159 122.039L91.4509 122.167L91.6945 122.278L94.7392 115.58ZM96.3284 116.992L102.666 113.255L102.603 113.147L102.536 113.042L96.3284 116.992ZM101.626 121.937L98.5541 128.623L98.6295 128.657L98.7056 128.69L101.626 121.937ZM109.307 123.438L109.16 130.794L109.234 130.796H109.307V123.438ZM112.927 122.996L111.055 115.881H111.055L112.927 122.996ZM115.841 121.672L120.118 127.659L120.255 127.561L120.387 127.457L115.841 121.672ZM117.783 119.376L111.291 115.914L111.291 115.914L117.783 119.376ZM118.49 116.374H125.848V116.233L125.842 116.092L118.49 116.374ZM116.018 112.313L111.395 118.037L111.514 118.134L111.638 118.225L116.018 112.313ZM110.367 110.194L110.946 102.859L110.657 102.836H110.367V110.194ZM108.248 110.106L108.656 102.759H108.656L108.248 110.106ZM104.805 109.929L104.072 117.25L104.263 117.269L104.455 117.278L104.805 109.929ZM101.449 109.664L101.041 117.011L101.449 109.664ZM99.3304 109.576L99.0108 116.927L99.1705 116.934H99.3304V109.576ZM96.3284 107.898L89.8966 111.472L89.9707 111.605L90.0502 111.735L96.3284 107.898ZM96.3284 100.747L90.0502 96.91L90.018 96.9628L89.9866 97.0162L96.3284 100.747ZM99.3304 98.8925L100.282 106.188L100.29 106.187L99.3304 98.8925ZM105.511 98.3628L105.956 105.707C107.784 105.596 109.576 105.459 110.75 105.224L109.307 98.0096L107.864 90.7948C107.97 90.7736 107.829 90.8049 107.235 90.8601C106.711 90.9089 105.995 90.9622 105.066 91.0185L105.511 98.3628ZM109.307 98.0096L109.998 105.335C114.132 104.945 118.194 103.659 121.454 100.833L116.636 95.2725L111.817 89.7124C111.546 89.9473 110.723 90.4857 108.616 90.6844L109.307 98.0096ZM116.636 95.2725L121.454 100.833C124.951 97.802 126.714 93.6306 126.356 88.9692L119.02 89.5335L111.684 90.0978C111.689 90.1713 111.682 90.1714 111.69 90.1145C111.699 90.0544 111.72 89.9663 111.761 89.8675C111.802 89.769 111.847 89.699 111.874 89.6626C111.899 89.6289 111.891 89.6485 111.817 89.7124L116.636 95.2725ZM119.02 89.5335L126.362 89.0648C126.043 84.0665 123.649 79.7455 119.209 77.0585L115.4 83.3531L111.59 89.6476C111.69 89.7083 111.717 89.7391 111.704 89.7258C111.688 89.7103 111.659 89.6763 111.633 89.6321C111.608 89.5892 111.609 89.5763 111.621 89.6181C111.634 89.6637 111.663 89.7842 111.677 90.0022L119.02 89.5335ZM115.4 83.3531L119.329 77.1322C115.333 74.6088 110.784 73.9775 106.259 74.5533L107.188 81.8521L108.117 89.1509C110.068 88.9026 110.993 89.272 111.471 89.5739L115.4 83.3531ZM107.188 81.8521L106.229 74.5573C102.711 75.0201 99.4635 76.3612 96.6909 78.6388L101.361 84.3243L106.031 90.0098C106.555 89.5797 107.192 89.2727 108.148 89.1469L107.188 81.8521ZM101.361 84.3243L96.5899 78.7233C94.2301 80.7335 92.326 83.1855 91.119 86.1022L97.9177 88.9155L104.716 91.7287C104.922 91.2314 105.314 90.6227 106.132 89.9253L101.361 84.3243ZM97.9177 88.9155L91.0285 86.332C91.1061 86.1249 91.2434 85.8555 91.4659 85.5773C91.6898 85.2975 91.9407 85.0831 92.1731 84.9336L96.1518 91.1228L100.131 97.3119C102.326 95.9008 103.913 93.8821 104.807 91.4989L97.9177 88.9155ZM96.1518 91.1228L91.9638 85.0733C91.9588 85.0768 91.926 85.1028 91.8069 85.1326L93.5914 92.2706L95.3759 99.4086C97.1403 98.9675 98.8145 98.2283 100.34 97.1722L96.1518 91.1228ZM93.5914 92.2706L91.8069 85.1326C91.6447 85.1731 91.388 85.2108 90.9976 85.1891L90.5894 92.5355L90.1813 99.8818C91.9098 99.9779 93.6544 99.839 95.3759 99.4086L93.5914 92.2706ZM90.5894 92.5355L90.9975 85.1891C90.3623 85.1538 89.8976 85.0717 89.5716 84.9847L87.6758 92.094L85.78 99.2033C87.2198 99.5872 88.6975 99.7994 90.1813 99.8818L90.5894 92.5355ZM87.6758 92.094L89.79 85.0466C89.5958 84.9884 89.5238 84.9484 89.5384 84.9562C89.5564 84.9658 89.6679 85.0278 89.8222 85.1693L84.8504 90.593L79.8786 96.0168C81.6003 97.595 83.6119 98.5565 85.5615 99.1414L87.6758 92.094ZM84.8504 90.593L89.8222 85.1693C89.8995 85.2401 90.0023 85.3521 90.1036 85.507C90.2055 85.6629 90.2805 85.8235 90.3296 85.9707L83.3494 88.2974L76.3693 90.6241C77.071 92.7293 78.2789 94.5504 79.8786 96.0168L84.8504 90.593ZM83.3494 88.2974L90.3296 85.9707C90.3625 86.0696 90.3808 86.1642 90.3881 86.2421C90.3952 86.3182 90.3895 86.3519 90.3919 86.3318L83.0846 85.4721L75.7772 84.6124C75.5438 86.5963 75.7057 88.6333 76.3693 90.6241L83.3494 88.2974ZM83.0846 85.4721L90.3973 86.2846C90.4379 85.919 90.5285 85.5577 90.6827 85.1833L83.8792 82.3818L77.0757 79.5804C76.4058 81.2072 75.9667 82.9062 75.7719 84.6596L83.0846 85.4721ZM83.8792 82.3818L90.7684 84.9653C90.8469 84.756 91.1505 84.1406 92.1006 83.151L86.7928 78.0555L81.4851 72.9601C79.6098 74.9135 77.971 77.1823 76.99 79.7984L83.8792 82.3818ZM86.7928 78.0555L92.0965 83.1552C93.063 82.15 94.3011 81.1598 95.8759 80.2149L92.0904 73.9058L88.3049 67.5966C85.7593 69.1239 83.4657 70.9002 81.4892 72.9558L86.7928 78.0555ZM92.0904 73.9058L95.9271 80.184C97.4724 79.2396 99.2915 78.4174 101.428 77.7528L99.2421 70.7272L97.0564 63.7017C93.8951 64.6852 90.9464 65.982 88.2537 67.6276L92.0904 73.9058ZM99.2421 70.7272L101.384 77.7662C103.428 77.1442 105.709 76.7633 108.26 76.667L107.983 69.3145L107.706 61.9621C104.018 62.1012 100.472 62.6621 97.0998 63.6883L99.2421 70.7272ZM107.983 69.3145L108.11 76.6712C110.799 76.6248 113.26 76.9724 115.531 77.6713L117.695 70.6389L119.859 63.6066C116.009 62.4219 111.995 61.8866 107.856 61.9579L107.983 69.3145ZM117.695 70.6389L115.692 77.7186C118.065 78.3902 119.939 79.3209 121.428 80.4281L125.818 74.5238L130.208 68.6195C127.106 66.3127 123.565 64.6536 119.699 63.5593L117.695 70.6389ZM125.818 74.5238L121.599 80.5515C123.16 81.6444 124.264 82.8568 125.043 84.177L131.381 80.4394L137.718 76.7018C135.789 73.4308 133.185 70.6994 130.037 68.4961L125.818 74.5238ZM131.381 80.4394L125.043 84.177C125.733 85.3476 126.054 86.5303 126.054 87.856H133.411H140.769C140.769 83.8841 139.736 80.1224 137.718 76.7018L131.381 80.4394ZM133.411 87.856H126.054C126.054 90.7648 125.314 92.3322 124.488 93.2888L130.056 98.0979L135.625 102.907C139.272 98.6837 140.769 93.4233 140.769 87.856H133.411ZM130.056 98.0979L124.425 93.3625C123.341 94.651 121.771 95.7162 119.31 96.3801L121.227 103.484L123.144 110.587C128.1 109.25 132.415 106.725 135.687 102.833L130.056 98.0979ZM121.227 103.484L120.3 110.783C122.589 111.074 123.612 111.812 124.185 112.487L129.791 107.722L135.397 102.957C131.968 98.9224 127.281 96.8357 122.154 96.1846L121.227 103.484ZM129.791 107.722L124.315 112.636C124.891 113.278 125.524 114.438 125.524 116.904H132.882H140.239C140.239 111.719 138.812 106.757 135.267 102.807L129.791 107.722ZM132.882 116.904H125.524C125.524 118.503 125.186 119.904 124.535 121.207L131.116 124.497L137.697 127.788C139.4 124.382 140.239 120.72 140.239 116.904H132.882ZM131.116 124.497L124.569 121.14C123.887 122.468 122.917 123.675 121.556 124.771L126.171 130.501L130.787 136.231C133.664 133.913 135.989 131.118 137.663 127.855L131.116 124.497ZM126.171 130.501L121.556 124.771C120.256 125.818 118.547 126.745 116.287 127.454L118.49 134.474L120.692 141.495C124.437 140.32 127.849 138.598 130.787 136.231L126.171 130.501ZM118.49 134.474L116.163 127.494C114.005 128.214 111.506 128.618 108.601 128.618V135.975V143.333C112.877 143.333 116.971 142.736 120.817 141.455L118.49 134.474ZM108.601 135.975V128.618C105.39 128.618 102.658 128.285 100.353 127.698L98.5357 134.828L96.7184 141.957C100.417 142.9 104.396 143.333 108.601 143.333V135.975ZM98.5357 134.828L100.387 127.707C97.9929 127.084 96.1614 126.304 94.7793 125.459L90.9426 131.737L87.1059 138.016C89.9618 139.761 93.1924 141.041 96.6843 141.949L98.5357 134.828ZM90.9426 131.737L94.8581 125.508C93.5237 124.669 92.7672 123.871 92.3292 123.202L86.1748 127.234L80.0204 131.267C81.8191 134.012 84.2412 136.216 87.027 137.967L90.9426 131.737ZM86.1748 127.234L92.3907 123.298C91.9336 122.576 91.8549 122.1 91.8549 121.76H84.4972H77.1395C77.1395 125.188 78.1792 128.361 79.9589 131.171L86.1748 127.234ZM84.4972 121.76H91.8549C91.8549 121.672 91.864 121.632 91.8652 121.627C91.8662 121.623 91.8668 121.621 91.867 121.62C91.8672 121.62 91.8686 121.616 91.8728 121.607L85.2919 118.317L78.7109 115.026C77.6479 117.152 77.1395 119.433 77.1395 121.76H84.4972ZM85.2919 118.317L91.7237 121.89C91.6311 122.057 91.4931 122.237 91.3176 122.395C91.1459 122.55 91.006 122.622 90.96 122.643L87.9406 115.933L84.9213 109.223C82.3985 110.359 80.2703 112.205 78.8601 114.744L85.2919 118.317ZM87.9406 115.933L91.2311 122.514C91.4202 122.419 91.6071 122.353 91.8024 122.308L90.148 115.138L88.4935 107.969C87.1584 108.277 85.8737 108.74 84.6502 109.352L87.9406 115.933ZM90.148 115.138L91.6896 122.333C91.7914 122.311 91.8624 122.303 91.9055 122.299C91.9481 122.296 91.9674 122.298 91.9675 122.298L92.5318 114.962L93.0962 107.626C91.5604 107.508 90.0547 107.634 88.6063 107.944L90.148 115.138ZM92.5318 114.962L92.0076 122.301C91.9074 122.294 91.5991 122.248 91.2159 122.039L94.7392 115.58L98.2624 109.121C96.5843 108.205 94.8044 107.748 93.0561 107.623L92.5318 114.962ZM94.7392 115.58L91.6945 122.278C91.3495 122.121 91.0219 121.909 90.7339 121.653C90.4492 121.4 90.2508 121.147 90.121 120.943L96.3284 116.992L102.536 113.042C101.421 111.291 99.8328 109.813 97.7838 108.882L94.7392 115.58ZM96.3284 116.992L89.9907 120.73C92.018 124.168 94.8614 126.926 98.5541 128.623L101.626 121.937L104.698 115.251C104.035 114.946 103.347 114.409 102.666 113.255L96.3284 116.992ZM101.626 121.937L98.7056 128.69C101.943 130.09 105.485 130.721 109.16 130.794L109.307 123.438L109.455 116.082C107.244 116.037 105.664 115.667 104.546 115.184L101.626 121.937ZM109.307 123.438V130.796C111.16 130.796 113.002 130.585 114.8 130.112L112.927 122.996L111.055 115.881C110.616 115.997 110.045 116.08 109.307 116.08V123.438ZM112.927 122.996L114.8 130.112C116.66 129.622 118.472 128.835 120.118 127.659L115.841 121.672L111.564 115.685C111.562 115.686 111.431 115.782 111.055 115.881L112.927 122.996ZM115.841 121.672L120.387 127.457C121.975 126.21 123.301 124.665 124.276 122.839L117.783 119.376L111.291 115.914C111.296 115.906 111.302 115.896 111.309 115.885C111.316 115.874 111.323 115.866 111.328 115.86C111.333 115.854 111.334 115.853 111.331 115.857C111.327 115.86 111.316 115.871 111.295 115.886L115.841 121.672ZM117.783 119.376L124.276 122.839C125.379 120.77 125.848 118.556 125.848 116.374H118.49H111.132C111.132 116.416 111.128 116.376 111.151 116.278C111.175 116.177 111.22 116.049 111.291 115.914L117.783 119.376ZM118.49 116.374L125.842 116.092C125.674 111.711 123.214 108.487 120.397 106.401L116.018 112.313L111.638 118.225C111.852 118.383 111.731 118.346 111.543 118.037C111.327 117.682 111.158 117.189 111.138 116.657L118.49 116.374ZM116.018 112.313L120.641 106.589C117.799 104.294 114.447 103.136 110.946 102.859L110.367 110.194L109.788 117.529C110.76 117.606 111.176 117.86 111.395 118.037L116.018 112.313ZM110.367 110.194V102.836C110.371 102.836 110.334 102.836 110.24 102.834C110.151 102.831 110.032 102.827 109.879 102.821C109.572 102.808 109.167 102.788 108.656 102.759L108.248 110.106L107.84 117.452C108.865 117.509 109.775 117.552 110.367 117.552V110.194ZM108.248 110.106L108.656 102.759C107.574 102.699 106.407 102.639 105.154 102.58L104.805 109.929L104.455 117.278C105.674 117.337 106.803 117.394 107.84 117.452L108.248 110.106ZM104.805 109.929L105.537 102.608C104.264 102.481 103.037 102.383 101.858 102.318L101.449 109.664L101.041 117.011C101.981 117.063 102.991 117.142 104.072 117.25L104.805 109.929ZM101.449 109.664L101.858 102.318C100.832 102.261 99.9219 102.218 99.3304 102.218V109.576V116.934C99.326 116.934 99.3628 116.934 99.4572 116.936C99.5466 116.939 99.6657 116.943 99.8187 116.949C100.126 116.962 100.53 116.982 101.041 117.011L101.449 109.664ZM99.3304 109.576L99.65 102.225C99.9125 102.237 100.484 102.315 101.154 102.69C101.848 103.077 102.328 103.605 102.607 104.062L96.3284 107.898L90.0502 111.735C92.1069 115.101 95.4735 116.773 99.0108 116.927L99.3304 109.576ZM96.3284 107.898L102.76 104.325C102.775 104.352 102.788 104.379 102.798 104.405C102.808 104.431 102.813 104.448 102.814 104.455C102.816 104.462 102.813 104.453 102.81 104.426C102.807 104.398 102.803 104.35 102.803 104.278H95.4455H88.0878C88.0878 106.733 88.6323 109.196 89.8966 111.472L96.3284 107.898ZM95.4455 104.278H102.803C102.803 104.135 102.819 104.107 102.804 104.165C102.797 104.193 102.784 104.238 102.761 104.295C102.738 104.352 102.708 104.414 102.67 104.477L96.3284 100.747L89.9866 97.0162C88.6293 99.3235 88.0878 101.833 88.0878 104.278H95.4455ZM96.3284 100.747L102.607 104.583C102.362 104.983 101.968 105.416 101.431 105.748C100.913 106.069 100.474 106.163 100.282 106.188L99.3304 98.8925L98.3787 91.5966C95.0679 92.0285 91.9841 93.7455 90.0502 96.91L96.3284 100.747ZM99.3304 98.8925L100.29 106.187C102.33 105.919 104.143 105.767 105.741 105.717L105.511 98.3628L105.281 91.0087C103.111 91.0765 100.804 91.2775 98.3705 91.5977L99.3304 98.8925Z" fill="#00BED4" mask="url(#path-25-outside-1_3576_7197)"/>
<path d="M105.316 17.7057C106.611 15.1667 110.239 15.1667 111.535 17.7057L116.165 26.7778C116.672 27.7718 117.624 28.4634 118.726 28.6387L128.785 30.2385C131.6 30.6862 132.721 34.1365 130.707 36.1534L123.509 43.3601C122.721 44.1497 122.357 45.2687 122.531 46.3711L124.118 56.4319C124.562 59.2476 121.627 61.38 119.086 60.0876L110.008 55.4694C109.013 54.9634 107.837 54.9634 106.842 55.4694L97.7641 60.0876C95.2235 61.38 92.2885 59.2476 92.7326 56.4319L94.3195 46.3711C94.4933 45.2687 94.1297 44.1497 93.3411 43.3601L86.1437 36.1534C84.1294 34.1365 85.2505 30.6862 88.0656 30.2385L98.1244 28.6387C99.2265 28.4634 100.178 27.7718 100.686 26.7778L105.316 17.7057Z" fill="url(#paint9_radial_3576_7197)"/>
<path d="M106.87 20.9944C107.517 19.725 109.331 19.725 109.979 20.9944L114.668 30.1826C114.922 30.6796 115.398 31.0254 115.949 31.113L126.136 32.7333C127.544 32.9571 128.104 34.6823 127.097 35.6907L119.808 42.9895C119.413 43.3843 119.232 43.9439 119.319 44.495L120.926 54.6845C121.148 56.0924 119.68 57.1586 118.41 56.5123L109.216 51.8351C108.718 51.5821 108.13 51.5821 107.633 51.8351L98.4387 56.5123C97.1684 57.1586 95.7009 56.0924 95.9229 54.6845L97.5301 44.495C97.617 43.9439 97.4352 43.3843 97.0409 42.9895L89.7515 35.6907C88.7443 34.6823 89.3048 32.9571 90.7124 32.7333L100.9 31.113C101.451 31.0254 101.927 30.6796 102.18 30.1826L106.87 20.9944Z" fill="url(#paint10_radial_3576_7197)"/>
<path d="M112.176 31.9803C111.834 29.7793 114.064 29.6209 115.221 29.8168C116.379 30.0127 119.532 30.725 122.887 32.0072C127.081 33.6099 125.919 35.1991 124.904 35.9203C123.468 36.9402 121.285 36.2007 118.68 35.7599C116.076 35.3191 112.604 34.7314 112.176 31.9803Z" fill="url(#paint11_radial_3576_7197)"/>
<path d="M124.768 33.2337C124.838 31.1025 125.796 30.729 126.267 30.8086C126.737 30.8882 128.002 31.2808 129.295 32.2141C130.912 33.3807 130.266 35.0572 129.766 35.8656C129.059 37.0088 128.208 36.4948 127.149 36.3157C126.091 36.1366 124.68 35.8977 124.768 33.2337Z" fill="url(#paint12_radial_3576_7197)" fill-opacity="0.56"/>
<path d="M95.5239 31.3977C94.8376 30.045 96.098 29.4497 96.814 29.3212C97.5299 29.1926 99.5203 28.9583 101.754 29.0492C104.546 29.1629 104.223 30.4508 103.793 31.143C103.184 32.1218 101.752 32.1244 100.141 32.4136C98.5297 32.7028 96.3818 33.0885 95.5239 31.3977Z" fill="url(#paint13_radial_3576_7197)" fill-opacity="0.5"/>
<path d="M101.195 55.6197C100.074 54.598 101.042 53.5948 101.666 53.2209C102.289 52.847 104.068 51.9226 106.188 51.2162C108.839 50.3333 108.994 51.6521 108.837 52.4517C108.615 53.5826 107.276 54.0926 105.872 54.9339C104.468 55.7752 102.596 56.8969 101.195 55.6197Z" fill="url(#paint14_radial_3576_7197)" fill-opacity="0.5"/>
<path d="M118.034 44.0884C119.903 42.8774 120.958 44.8478 121.252 45.9843C121.546 47.1208 122.184 50.2904 122.384 53.8763C122.633 58.3587 120.708 57.9472 119.635 57.3152C118.118 56.4214 117.901 54.126 117.24 51.5688C116.579 49.0116 115.697 45.602 118.034 44.0884Z" fill="url(#paint15_radial_3576_7197)"/>
<path d="M110.287 22.9964C111.9 21.4609 113.301 23.2023 113.8 24.265C114.299 25.3277 115.511 28.3248 116.37 31.8121C117.444 36.1711 115.476 36.1224 114.304 35.6995C112.648 35.1015 112.011 32.8857 110.889 30.4947C109.766 28.1037 108.27 24.9158 110.287 22.9964Z" fill="url(#paint16_radial_3576_7197)"/>
<path d="M69.7516 37.94C71.0473 35.4011 74.6752 35.4011 75.9709 37.94L78.2349 42.3764C78.7422 43.3704 79.6941 44.062 80.7962 44.2373L85.7151 45.0196C88.5302 45.4673 89.6513 48.9176 87.637 50.9345L84.1174 54.4587C83.3288 55.2483 82.9652 56.3673 83.139 57.4696L83.915 62.3895C84.3591 65.2052 81.4241 67.3376 78.8835 66.0451L74.4442 63.7868C73.4496 63.2808 72.273 63.2808 71.2783 63.7868L66.839 66.0451C64.2984 67.3376 61.3634 65.2052 61.8075 62.3895L62.5835 57.4696C62.7574 56.3673 62.3938 55.2483 61.6052 54.4587L58.0856 50.9345C56.0713 48.9176 57.1923 45.4673 60.0074 45.0196L64.9263 44.2373C66.0284 44.062 66.9803 43.3704 67.4876 42.3764L69.7516 37.94Z" fill="url(#paint17_radial_3576_7197)"/>
<path d="M71.3094 39.4769C71.9572 38.2074 73.7712 38.2074 74.419 39.4769L77.268 45.0594C77.5216 45.5564 77.9976 45.9022 78.5486 45.9898L84.7383 46.9743C86.1459 47.1981 86.7064 48.9233 85.6993 49.9317L81.2703 54.3663C80.876 54.7611 80.6942 55.3207 80.7812 55.8718L81.7576 62.0628C81.9797 63.4706 80.5122 64.5368 79.2419 63.8906L73.6557 61.0488C73.1584 60.7958 72.5701 60.7958 72.0727 61.0488L66.4865 63.8906C65.2162 64.5368 63.7487 63.4706 63.9708 62.0628L64.9473 55.8718C65.0342 55.3207 64.8524 54.7611 64.4581 54.3663L60.0292 49.9317C59.022 48.9233 59.5825 47.1981 60.9901 46.9743L67.1798 45.9898C67.7308 45.9022 68.2068 45.5564 68.4604 45.0594L71.3094 39.4769Z" fill="url(#paint18_radial_3576_7197)"/>
<path d="M75.5742 46.5768C75.327 44.985 76.9393 44.8704 77.7764 45.0121C78.6135 45.1538 80.8941 45.669 83.3203 46.5962C86.3531 47.7553 85.5127 48.9046 84.7787 49.4262C83.7406 50.1637 82.1612 49.6289 80.2779 49.3102C78.3945 48.9914 75.8833 48.5664 75.5742 46.5768Z" fill="url(#paint19_radial_3576_7197)"/>
<path d="M84.6811 47.4829C84.7319 45.9417 85.4251 45.6715 85.7653 45.7291C86.1055 45.7866 87.0198 46.0706 87.9554 46.7455C89.1248 47.5892 88.6572 48.8017 88.2958 49.3863C87.7847 50.213 87.1689 49.8413 86.4035 49.7118C85.638 49.5822 84.6174 49.4095 84.6811 47.4829Z" fill="url(#paint20_radial_3576_7197)" fill-opacity="0.56"/>
<path d="M63.532 46.1542C63.0357 45.176 63.9472 44.7455 64.465 44.6525C64.9827 44.5595 66.4221 44.39 68.0374 44.4558C70.0565 44.538 69.8228 45.4694 69.5118 45.97C69.072 46.6779 68.0358 46.6797 66.8708 46.8889C65.7058 47.0981 64.1524 47.377 63.532 46.1542Z" fill="url(#paint21_radial_3576_7197)" fill-opacity="0.5"/>
<path d="M67.6341 63.6695C66.8234 62.9306 67.5232 62.205 67.9744 61.9346C68.4257 61.6642 69.7116 60.9957 71.2454 60.4849C73.1626 59.8463 73.2742 60.8001 73.1607 61.3784C73.0003 62.1962 72.032 62.5651 71.0166 63.1735C70.0013 63.7819 68.6475 64.5931 67.6341 63.6695Z" fill="url(#paint22_radial_3576_7197)" fill-opacity="0.5"/>
<path d="M79.8113 55.3338C81.1632 54.4581 81.9263 55.883 82.1389 56.7049C82.3514 57.5269 82.8126 59.8191 82.9571 62.4124C83.1377 65.654 81.7454 65.3564 80.9695 64.8994C79.8723 64.253 79.7154 62.593 79.2372 60.7436C78.759 58.8943 78.1214 56.4285 79.8113 55.3338Z" fill="url(#paint23_radial_3576_7197)"/>
<path d="M74.2077 40.0761C75.3745 38.9656 76.3877 40.225 76.7485 40.9935C77.1092 41.762 77.986 43.9295 78.6072 46.4515C79.3836 49.604 77.9603 49.5687 77.1134 49.2629C75.9156 48.8304 75.4547 47.2279 74.643 45.4988C73.8313 43.7697 72.7491 41.4641 74.2077 40.0761Z" fill="url(#paint24_radial_3576_7197)"/>
<path d="M141.491 37.94C142.787 35.4011 146.414 35.4011 147.71 37.94L149.974 42.3764C150.481 43.3704 151.433 44.062 152.535 44.2373L157.454 45.0196C160.269 45.4673 161.391 48.9176 159.376 50.9345L155.857 54.4587C155.068 55.2483 154.704 56.3673 154.878 57.4696L155.654 62.3895C156.098 65.2052 153.163 67.3376 150.623 66.0451L146.183 63.7868C145.189 63.2808 144.012 63.2808 143.018 63.7868L138.578 66.0451C136.038 67.3376 133.103 65.2052 133.547 62.3895L134.323 57.4696C134.497 56.3673 134.133 55.2483 133.344 54.4587L129.825 50.9345C127.811 48.9176 128.932 45.4673 131.747 45.0196L136.666 44.2373C137.768 44.062 138.72 43.3704 139.227 42.3764L141.491 37.94Z" fill="url(#paint25_radial_3576_7197)"/>
<path d="M143.047 39.4769C143.695 38.2074 145.508 38.2074 146.156 39.4769L149.005 45.0594C149.259 45.5564 149.735 45.9022 150.286 45.9898L156.476 46.9743C157.883 47.1981 158.444 48.9233 157.437 49.9317L153.008 54.3663C152.613 54.7611 152.432 55.3207 152.518 55.8718L153.495 62.0628C153.717 63.4706 152.249 64.5368 150.979 63.8906L145.393 61.0488C144.896 60.7958 144.307 60.7958 143.81 61.0488L138.224 63.8906C136.954 64.5368 135.486 63.4706 135.708 62.0628L136.685 55.8718C136.771 55.3207 136.59 54.7611 136.195 54.3663L131.766 49.9317C130.759 48.9233 131.32 47.1981 132.727 46.9743L138.917 45.9898C139.468 45.9022 139.944 45.5564 140.198 45.0594L143.047 39.4769Z" fill="url(#paint26_radial_3576_7197)"/>
<path d="M147.313 46.5768C147.066 44.985 148.679 44.8704 149.516 45.0121C150.353 45.1538 152.633 45.669 155.06 46.5962C158.092 47.7553 157.252 48.9046 156.518 49.4262C155.48 50.1637 153.901 49.6289 152.017 49.3102C150.134 48.9914 147.623 48.5664 147.313 46.5768Z" fill="url(#paint27_radial_3576_7197)"/>
<path d="M156.419 47.4829C156.47 45.9417 157.163 45.6715 157.504 45.7291C157.844 45.7866 158.758 46.0706 159.694 46.7455C160.863 47.5892 160.395 48.8017 160.034 49.3863C159.523 50.213 158.907 49.8413 158.142 49.7118C157.376 49.5822 156.356 49.4095 156.419 47.4829Z" fill="url(#paint28_radial_3576_7197)" fill-opacity="0.56"/>
<path d="M135.271 46.1542C134.775 45.176 135.686 44.7455 136.204 44.6525C136.722 44.5595 138.161 44.39 139.777 44.4558C141.796 44.538 141.562 45.4694 141.251 45.97C140.811 46.6779 139.775 46.6797 138.61 46.8889C137.445 47.0981 135.892 47.377 135.271 46.1542Z" fill="url(#paint29_radial_3576_7197)" fill-opacity="0.5"/>
<path d="M139.373 63.6695C138.563 62.9306 139.262 62.205 139.714 61.9346C140.165 61.6642 141.451 60.9957 142.985 60.4849C144.902 59.8463 145.013 60.8001 144.9 61.3784C144.74 62.1962 143.771 62.5651 142.756 63.1735C141.741 63.7819 140.387 64.5931 139.373 63.6695Z" fill="url(#paint30_radial_3576_7197)" fill-opacity="0.5"/>
<path d="M151.55 55.3338C152.902 54.4581 153.665 55.883 153.877 56.7049C154.09 57.5269 154.551 59.8191 154.695 62.4124C154.876 65.654 153.484 65.3564 152.708 64.8994C151.611 64.253 151.454 62.593 150.975 60.7436C150.497 58.8943 149.86 56.4285 151.55 55.3338Z" fill="url(#paint31_radial_3576_7197)"/>
<path d="M145.947 40.0761C147.114 38.9656 148.127 40.225 148.488 40.9935C148.849 41.762 149.725 43.9295 150.346 46.4515C151.123 49.604 149.7 49.5687 148.853 49.2629C147.655 48.8304 147.194 47.2279 146.382 45.4988C145.571 43.7697 144.488 41.4641 145.947 40.0761Z" fill="url(#paint32_radial_3576_7197)"/>
<path d="M12.8975 120.367C27.671 121.835 38.4568 135.002 36.9882 149.776C22.2147 148.307 11.4289 135.14 12.8975 120.367Z" fill="#00E5FF"/>
<path d="M44.8086 129.578C54.6819 137.169 56.5324 151.326 48.9419 161.199C39.0686 153.609 37.2181 139.451 44.8086 129.578Z" fill="#00E5FF"/>
<path d="M16.9707 154.551C27.6092 148.077 41.4821 151.452 47.9565 162.091C37.318 168.565 23.4452 165.19 16.9707 154.551Z" fill="#00BED4"/>
<path d="M59.7891 145.904C71.0419 151.24 75.8384 164.688 70.5025 175.941C59.2497 170.605 54.4531 157.157 59.7891 145.904Z" fill="#00E5FF"/>
<path d="M35.7119 147.726C40.9642 155.424 57.106 171.801 79.6549 175.721" stroke="#00E5FF" stroke-width="1.40178" stroke-linecap="round" stroke-linejoin="round"/>
<path d="M39.917 181.76C46.7617 171.356 60.7447 168.47 71.1489 175.315C64.3042 185.719 50.3212 188.605 39.917 181.76Z" fill="#00BED4"/>
<path d="M208.176 120.992C193.402 122.46 182.616 135.627 184.085 150.401C198.859 148.932 209.644 135.765 208.176 120.992Z" fill="#00E5FF"/>
<path d="M176.264 130.203C166.39 137.793 164.54 151.95 172.13 161.824C182.004 154.233 183.854 140.076 176.264 130.203Z" fill="#00E5FF"/>
<path d="M204.104 155.177C193.465 148.702 179.592 152.078 173.118 162.717C183.756 169.191 197.629 165.815 204.104 155.177Z" fill="#00BED4"/>
<path d="M161.293 146.532C150.04 151.868 145.244 165.315 150.58 176.568C161.832 171.232 166.629 157.785 161.293 146.532Z" fill="#00E5FF"/>
<path d="M185.368 148.355C180.116 156.054 163.974 172.43 141.425 176.351" stroke="#00E5FF" stroke-width="1.40178" stroke-linecap="round" stroke-linejoin="round"/>
<path d="M181.162 182.389C174.317 171.985 160.334 169.099 149.93 175.944C156.775 186.348 170.758 189.234 181.162 182.389Z" fill="#00BED4"/>
<path d="M35.29 180.198L69.8536 172.483L76.0257 199.023L42.0793 205.812L46.3998 191.308L35.29 180.198Z" fill="#00E5FF"/>
<path d="M182.19 180.198L147.627 172.483L141.455 199.023L175.401 205.812L171.081 191.308L182.19 180.198Z" fill="#00E5FF"/>
<path d="M141.452 199.02L143.303 185.442L160.894 188.688L141.452 199.02Z" fill="#00D7EF"/>
<path d="M166.147 162.914C121.726 152.24 96.5799 152.621 51.3467 162.914L56.9015 188.837C97.5169 181.837 120.285 181.142 160.901 188.837L166.147 162.914Z" fill="#58EEFF"/>
<path d="M76.026 199.02L74.1744 186.059L56.8926 188.837L76.026 199.02Z" fill="#00D7EF"/>
<defs>
<linearGradient id="paint0_linear_3576_7197" x1="-24.0934" y1="-167.361" x2="132.258" y2="168.335" gradientUnits="userSpaceOnUse">
<stop stop-color="#009DFF"/>
<stop offset="1" stop-color="#00E5FF"/>
</linearGradient>
<radialGradient id="paint1_radial_3576_7197" cx="0" cy="0" r="1" gradientUnits="userSpaceOnUse" gradientTransform="translate(108.346 30.3796) scale(27.5914 16.9994)">
<stop stop-color="white" stop-opacity="0.22"/>
<stop offset="1" stop-color="white" stop-opacity="0"/>
</radialGradient>
<linearGradient id="paint2_linear_3576_7197" x1="112.911" y1="17.5026" x2="373.19" y2="218.92" gradientUnits="userSpaceOnUse">
<stop stop-color="#00E5FF"/>
<stop offset="1" stop-color="#00BCD2"/>
</linearGradient>
<linearGradient id="paint3_linear_3576_7197" x1="104.634" y1="187.649" x2="-37.0022" y2="84.6416" gradientUnits="userSpaceOnUse">
<stop stop-color="#00BCD2"/>
<stop offset="1" stop-color="#00E5FF"/>
</linearGradient>
<linearGradient id="paint4_linear_3576_7197" x1="414.577" y1="-117.696" x2="20.9401" y2="143.502" gradientUnits="userSpaceOnUse">
<stop stop-color="white" stop-opacity="0.4"/>
<stop offset="1" stop-color="white" stop-opacity="0"/>
</linearGradient>
<linearGradient id="paint5_linear_3576_7197" x1="99.1158" y1="248.351" x2="215.919" y2="9.22539" gradientUnits="userSpaceOnUse">
<stop stop-color="white" stop-opacity="0.13"/>
<stop offset="1" stop-color="white" stop-opacity="0"/>
</linearGradient>
<radialGradient id="paint6_radial_3576_7197" cx="0" cy="0" r="1" gradientTransform="matrix(-13.7957 21.1534 -10.4798 -7.30906 157.978 136.146)" gradientUnits="userSpaceOnUse">
<stop stop-color="white" stop-opacity="0.1"/>
<stop offset="1" stop-color="white" stop-opacity="0"/>
</radialGradient>
<radialGradient id="paint7_radial_3576_7197" cx="0" cy="0" r="1" gradientTransform="matrix(25.1908 1.79199 -1.30252 12.7103 103.859 14.3176)" gradientUnits="userSpaceOnUse">
<stop stop-color="white" stop-opacity="0.1"/>
<stop offset="1" stop-color="white" stop-opacity="0"/>
</radialGradient>
<radialGradient id="paint8_radial_3576_7197" cx="0" cy="0" r="1" gradientTransform="matrix(13.3137 -21.46 10.6425 7.07014 168.571 69.3935)" gradientUnits="userSpaceOnUse">
<stop stop-color="white" stop-opacity="0.1"/>
<stop offset="1" stop-color="white" stop-opacity="0"/>
</radialGradient>
<radialGradient id="paint9_radial_3576_7197" cx="0" cy="0" r="1" gradientUnits="userSpaceOnUse" gradientTransform="translate(108.425 40.1234) rotate(90) scale(28.5111)">
<stop stop-color="#FFE86C"/>
<stop offset="1" stop-color="#FF9900"/>
</radialGradient>
<radialGradient id="paint10_radial_3576_7197" cx="0" cy="0" r="1" gradientUnits="userSpaceOnUse" gradientTransform="translate(108.424 40.1231) rotate(90) scale(22.1753)">
<stop stop-color="#FFF5BC"/>
<stop offset="0.765" stop-color="#FFA800"/>
</radialGradient>
<radialGradient id="paint11_radial_3576_7197" cx="0" cy="0" r="1" gradientUnits="userSpaceOnUse" gradientTransform="translate(118.969 33.1552) rotate(99.6063) scale(2.66619 7.03148)">
<stop stop-color="white"/>
<stop offset="0.84" stop-color="white" stop-opacity="0"/>
</radialGradient>
<radialGradient id="paint12_radial_3576_7197" cx="0" cy="0" r="1" gradientUnits="userSpaceOnUse" gradientTransform="translate(127.526 33.7258) rotate(99.6063) scale(2.66619 2.85773)">
<stop stop-color="white"/>
<stop offset="0.84" stop-color="white" stop-opacity="0"/>
</radialGradient>
<radialGradient id="paint13_radial_3576_7197" cx="0" cy="0" r="1" gradientUnits="userSpaceOnUse" gradientTransform="translate(99.7316 30.6596) rotate(79.8213) scale(1.83292 4.3571)">
<stop stop-color="white"/>
<stop offset="0.84" stop-color="white" stop-opacity="0"/>
</radialGradient>
<radialGradient id="paint14_radial_3576_7197" cx="0" cy="0" r="1" gradientUnits="userSpaceOnUse" gradientTransform="translate(104.868 53.4386) rotate(59.0688) scale(1.83292 4.3571)">
<stop stop-color="white"/>
<stop offset="0.84" stop-color="white" stop-opacity="0"/>
</radialGradient>
<radialGradient id="paint15_radial_3576_7197" cx="0" cy="0" r="1" gradientUnits="userSpaceOnUse" gradientTransform="translate(119.736 50.769) rotate(165.501) scale(2.66619 7.03148)">
<stop stop-color="white"/>
<stop offset="0.84" stop-color="white" stop-opacity="0"/>
</radialGradient>
<radialGradient id="paint16_radial_3576_7197" cx="0" cy="0" r="1" gradientUnits="userSpaceOnUse" gradientTransform="translate(113.194 29.2475) rotate(154.854) scale(2.66619 7.03148)">
<stop stop-color="white"/>
<stop offset="0.84" stop-color="white" stop-opacity="0"/>
</radialGradient>
<radialGradient id="paint17_radial_3576_7197" cx="0" cy="0" r="1" gradientUnits="userSpaceOnUse" gradientTransform="translate(72.8613 52.4658) rotate(90) scale(20.6191)">
<stop stop-color="#FFE86C"/>
<stop offset="1" stop-color="#FF9900"/>
</radialGradient>
<radialGradient id="paint18_radial_3576_7197" cx="0" cy="0" r="1" gradientUnits="userSpaceOnUse" gradientTransform="translate(72.8642 52.4672) rotate(90) scale(16.0371)">
<stop stop-color="#FFF5BC"/>
<stop offset="0.765" stop-color="#FFA800"/>
</radialGradient>
<radialGradient id="paint19_radial_3576_7197" cx="0" cy="0" r="1" gradientUnits="userSpaceOnUse" gradientTransform="translate(80.487 47.4265) rotate(99.6063) scale(1.92817 5.08512)">
<stop stop-color="white"/>
<stop offset="0.84" stop-color="white" stop-opacity="0"/>
</radialGradient>
<radialGradient id="paint20_radial_3576_7197" cx="0" cy="0" r="1" gradientUnits="userSpaceOnUse" gradientTransform="translate(86.6759 47.8388) rotate(99.6063) scale(1.92817 2.06669)">
<stop stop-color="white"/>
<stop offset="0.84" stop-color="white" stop-opacity="0"/>
</radialGradient>
<radialGradient id="paint21_radial_3576_7197" cx="0" cy="0" r="1" gradientUnits="userSpaceOnUse" gradientTransform="translate(66.5749 45.6204) rotate(79.8213) scale(1.32556 3.15103)">
<stop stop-color="white"/>
<stop offset="0.84" stop-color="white" stop-opacity="0"/>
</radialGradient>
<radialGradient id="paint22_radial_3576_7197" cx="0" cy="0" r="1" gradientUnits="userSpaceOnUse" gradientTransform="translate(70.2905 62.0921) rotate(59.0688) scale(1.32556 3.15103)">
<stop stop-color="white"/>
<stop offset="0.84" stop-color="white" stop-opacity="0"/>
</radialGradient>
<radialGradient id="paint23_radial_3576_7197" cx="0" cy="0" r="1" gradientUnits="userSpaceOnUse" gradientTransform="translate(81.0421 60.1652) rotate(165.501) scale(1.92817 5.08513)">
<stop stop-color="white"/>
<stop offset="0.84" stop-color="white" stop-opacity="0"/>
</radialGradient>
<radialGradient id="paint24_radial_3576_7197" cx="0" cy="0" r="1" gradientUnits="userSpaceOnUse" gradientTransform="translate(76.3099 44.5968) rotate(154.854) scale(1.92817 5.08512)">
<stop stop-color="white"/>
<stop offset="0.84" stop-color="white" stop-opacity="0"/>
</radialGradient>
<radialGradient id="paint25_radial_3576_7197" cx="0" cy="0" r="1" gradientUnits="userSpaceOnUse" gradientTransform="translate(144.601 52.4658) rotate(90) scale(20.6191)">
<stop stop-color="#FFE86C"/>
<stop offset="1" stop-color="#FF9900"/>
</radialGradient>
<radialGradient id="paint26_radial_3576_7197" cx="0" cy="0" r="1" gradientUnits="userSpaceOnUse" gradientTransform="translate(144.602 52.4672) rotate(90) scale(16.0371)">
<stop stop-color="#FFF5BC"/>
<stop offset="0.765" stop-color="#FFA800"/>
</radialGradient>
<radialGradient id="paint27_radial_3576_7197" cx="0" cy="0" r="1" gradientUnits="userSpaceOnUse" gradientTransform="translate(152.226 47.4265) rotate(99.6063) scale(1.92817 5.08512)">
<stop stop-color="white"/>
<stop offset="0.84" stop-color="white" stop-opacity="0"/>
</radialGradient>
<radialGradient id="paint28_radial_3576_7197" cx="0" cy="0" r="1" gradientUnits="userSpaceOnUse" gradientTransform="translate(158.414 47.8388) rotate(99.6063) scale(1.92817 2.06669)">
<stop stop-color="white"/>
<stop offset="0.84" stop-color="white" stop-opacity="0"/>
</radialGradient>
<radialGradient id="paint29_radial_3576_7197" cx="0" cy="0" r="1" gradientUnits="userSpaceOnUse" gradientTransform="translate(138.314 45.6204) rotate(79.8213) scale(1.32556 3.15103)">
<stop stop-color="white"/>
<stop offset="0.84" stop-color="white" stop-opacity="0"/>
</radialGradient>
<radialGradient id="paint30_radial_3576_7197" cx="0" cy="0" r="1" gradientUnits="userSpaceOnUse" gradientTransform="translate(142.03 62.0921) rotate(59.0688) scale(1.32556 3.15103)">
<stop stop-color="white"/>
<stop offset="0.84" stop-color="white" stop-opacity="0"/>
</radialGradient>
<radialGradient id="paint31_radial_3576_7197" cx="0" cy="0" r="1" gradientUnits="userSpaceOnUse" gradientTransform="translate(152.78 60.1652) rotate(165.501) scale(1.92817 5.08513)">
<stop stop-color="white"/>
<stop offset="0.84" stop-color="white" stop-opacity="0"/>
</radialGradient>
<radialGradient id="paint32_radial_3576_7197" cx="0" cy="0" r="1" gradientUnits="userSpaceOnUse" gradientTransform="translate(148.049 44.5968) rotate(154.854) scale(1.92817 5.08512)">
<stop stop-color="white"/>
<stop offset="0.84" stop-color="white" stop-opacity="0"/>
</radialGradient>
</defs>
</svg>
