<svg width="154" height="206" viewBox="0 0 154 206" fill="none" xmlns="http://www.w3.org/2000/svg">
<path d="M76.0473 7.79199L141.36 55.6171V151.267L76.0473 199.092L10.7347 151.267V55.6171L76.0473 7.79199Z" fill="#FFD900"/>
<path d="M76.0473 24.3462L130.209 63.8939V142.989L76.0473 182.537L21.8857 142.989V63.8939L76.0473 24.3462Z" fill="url(#paint0_linear_3576_6854)"/>
<path d="M21.7856 63.8951L10.749 55.6177V151.268L21.7856 142.99V63.8951Z" fill="#FFE02D"/>
<path d="M130.31 63.8951L141.347 55.6177V151.268L130.31 142.99V63.8951Z" fill="#FFD900"/>
<path d="M76.0479 24.3468V7.79199L141.347 55.6171L130.311 63.8945L76.0479 24.3468Z" fill="url(#paint1_linear_3576_6854)"/>
<path d="M76.0479 182.536V199.091L10.7482 151.266L21.7848 142.989L76.0479 182.536Z" fill="url(#paint2_linear_3576_6854)"/>
<path d="M110.078 49.1777L21.7852 114.477V142.988L130.311 63.8931L110.078 49.1777Z" fill="url(#paint3_linear_3576_6854)"/>
<path d="M42.0188 157.705L34.6611 152.187L130.311 79.5298V88.7269L42.0188 157.705Z" fill="url(#paint4_linear_3576_6854)"/>
<path d="M130.313 142.989L110.079 157.704C102.932 129.879 120.527 115.76 130.313 112.638L130.313 142.989Z" fill="url(#paint5_radial_3576_6854)"/>
<path d="M74.9909 7.5765L97.6784 18.122C76.8215 37.8791 55.936 29.3502 48.4566 22.3104L74.9909 7.5765Z" fill="url(#paint6_radial_3576_6854)"/>
<path d="M130.311 63.8941L151.459 48.2965C159.234 75.9532 140.023 89.0624 130.311 92.4044L130.311 63.8941Z" fill="url(#paint7_radial_3576_6854)"/>
<path d="M75.6048 24.3459L96.7577 39.9808C75.9009 59.7379 57.3322 49.7799 49.8528 42.7401L75.6048 24.3459Z" fill="url(#paint8_radial_3576_6854)"/>
<mask id="path-13-outside-1_3576_6854" maskUnits="userSpaceOnUse" x="42.457" y="62.1719" width="66" height="82" fill="black">
<rect fill="white" x="42.457" y="62.1719" width="66" height="82"/>
<path d="M72.296 98.7685C74.2384 98.6508 75.504 98.5331 76.0926 98.4154C79.2122 98.1211 81.655 97.2087 83.4209 95.6783C85.1867 94.1479 85.9813 92.2349 85.8047 89.9393C85.6282 87.1728 84.4215 85.1126 82.1848 83.7588C79.948 82.3461 77.2109 81.8458 73.9736 82.2578C71.7368 82.5522 69.7944 83.3762 68.1463 84.73C66.557 86.0839 65.4092 87.6143 64.7028 89.3212C64.3497 90.263 63.7611 90.9988 62.937 91.5286C62.1718 92.0583 61.3183 92.4409 60.3765 92.6764C59.4347 92.9118 58.4341 93.0001 57.3746 92.9412C56.3151 92.8824 55.3438 92.7352 54.4609 92.4998C53.2837 92.1466 52.3419 91.6463 51.6356 90.9988C50.9292 90.3513 50.4289 89.5861 50.1346 88.7032C49.8403 87.8203 49.752 86.8785 49.8697 85.8778C49.9874 84.8183 50.2523 83.7882 50.6643 82.7876C51.1941 81.3749 52.1653 79.9328 53.578 78.4613C55.0495 76.9309 56.8154 75.5476 58.8755 74.3115C60.9946 73.0166 63.3785 71.9571 66.0272 71.133C68.7349 70.3089 71.6485 69.838 74.7682 69.7203C78.1822 69.6614 81.4196 70.1029 84.4804 71.0447C87.6 71.9276 90.3077 73.2226 92.6033 74.9296C94.9577 76.5777 96.8119 78.5496 98.1657 80.8452C99.5195 83.1408 100.196 85.613 100.196 88.2617C100.196 92.4998 99.0781 95.9137 96.8413 98.5037C94.6634 101.094 91.7203 102.889 88.0121 103.889C91.7203 104.36 94.5751 105.773 96.5764 108.128C98.6366 110.423 99.6667 113.484 99.6667 117.31C99.6667 120.018 99.0781 122.549 97.9008 124.903C96.7236 127.199 95.0755 129.2 92.9564 130.907C90.8374 132.614 88.2769 133.938 85.275 134.88C82.2731 135.881 78.9768 136.381 75.3862 136.381C71.678 136.381 68.3228 135.999 65.3209 135.233C62.3778 134.468 59.8468 133.438 57.7277 132.143C55.6676 130.848 54.0783 129.347 52.9599 127.64C51.8416 125.874 51.2824 124.05 51.2824 122.166C51.2824 120.93 51.5473 119.782 52.077 118.723C52.6656 117.663 53.5486 116.868 54.7258 116.339C55.4321 115.986 56.1679 115.721 56.9331 115.544C57.7572 115.368 58.5518 115.309 59.317 115.368C60.1411 115.426 60.8768 115.632 61.5243 115.986C62.1718 116.28 62.7016 116.751 63.1136 117.398C64.4674 119.694 66.2333 121.342 68.4111 122.343C70.589 123.284 73.1495 123.785 76.0926 123.844C77.3875 123.844 78.5942 123.696 79.7126 123.402C80.8309 123.108 81.8022 122.666 82.6262 122.078C83.4503 121.43 84.0978 120.665 84.5687 119.782C85.0395 118.899 85.275 117.899 85.275 116.78C85.2161 115.25 84.3921 113.896 82.8028 112.719C81.2724 111.483 79.3888 110.776 77.1521 110.6C76.7989 110.6 76.0926 110.57 75.0331 110.511C73.9736 110.453 72.8258 110.394 71.5897 110.335C70.4124 110.217 69.2941 110.129 68.2345 110.07C67.175 110.011 66.4687 109.982 66.1155 109.982C64.7617 109.923 63.7611 109.364 63.1136 108.304C62.525 107.245 62.2307 106.038 62.2307 104.684C62.2307 103.33 62.525 102.153 63.1136 101.152C63.7611 100.093 64.7617 99.4749 66.1155 99.2983C68.3523 99.004 70.4124 98.8274 72.296 98.7685Z"/>
</mask>
<path d="M72.296 98.7685C74.2384 98.6508 75.504 98.5331 76.0926 98.4154C79.2122 98.1211 81.655 97.2087 83.4209 95.6783C85.1867 94.1479 85.9813 92.2349 85.8047 89.9393C85.6282 87.1728 84.4215 85.1126 82.1848 83.7588C79.948 82.3461 77.2109 81.8458 73.9736 82.2578C71.7368 82.5522 69.7944 83.3762 68.1463 84.73C66.557 86.0839 65.4092 87.6143 64.7028 89.3212C64.3497 90.263 63.7611 90.9988 62.937 91.5286C62.1718 92.0583 61.3183 92.4409 60.3765 92.6764C59.4347 92.9118 58.4341 93.0001 57.3746 92.9412C56.3151 92.8824 55.3438 92.7352 54.4609 92.4998C53.2837 92.1466 52.3419 91.6463 51.6356 90.9988C50.9292 90.3513 50.4289 89.5861 50.1346 88.7032C49.8403 87.8203 49.752 86.8785 49.8697 85.8778C49.9874 84.8183 50.2523 83.7882 50.6643 82.7876C51.1941 81.3749 52.1653 79.9328 53.578 78.4613C55.0495 76.9309 56.8154 75.5476 58.8755 74.3115C60.9946 73.0166 63.3785 71.9571 66.0272 71.133C68.7349 70.3089 71.6485 69.838 74.7682 69.7203C78.1822 69.6614 81.4196 70.1029 84.4804 71.0447C87.6 71.9276 90.3077 73.2226 92.6033 74.9296C94.9577 76.5777 96.8119 78.5496 98.1657 80.8452C99.5195 83.1408 100.196 85.613 100.196 88.2617C100.196 92.4998 99.0781 95.9137 96.8413 98.5037C94.6634 101.094 91.7203 102.889 88.0121 103.889C91.7203 104.36 94.5751 105.773 96.5764 108.128C98.6366 110.423 99.6667 113.484 99.6667 117.31C99.6667 120.018 99.0781 122.549 97.9008 124.903C96.7236 127.199 95.0755 129.2 92.9564 130.907C90.8374 132.614 88.2769 133.938 85.275 134.88C82.2731 135.881 78.9768 136.381 75.3862 136.381C71.678 136.381 68.3228 135.999 65.3209 135.233C62.3778 134.468 59.8468 133.438 57.7277 132.143C55.6676 130.848 54.0783 129.347 52.9599 127.64C51.8416 125.874 51.2824 124.05 51.2824 122.166C51.2824 120.93 51.5473 119.782 52.077 118.723C52.6656 117.663 53.5486 116.868 54.7258 116.339C55.4321 115.986 56.1679 115.721 56.9331 115.544C57.7572 115.368 58.5518 115.309 59.317 115.368C60.1411 115.426 60.8768 115.632 61.5243 115.986C62.1718 116.28 62.7016 116.751 63.1136 117.398C64.4674 119.694 66.2333 121.342 68.4111 122.343C70.589 123.284 73.1495 123.785 76.0926 123.844C77.3875 123.844 78.5942 123.696 79.7126 123.402C80.8309 123.108 81.8022 122.666 82.6262 122.078C83.4503 121.43 84.0978 120.665 84.5687 119.782C85.0395 118.899 85.275 117.899 85.275 116.78C85.2161 115.25 84.3921 113.896 82.8028 112.719C81.2724 111.483 79.3888 110.776 77.1521 110.6C76.7989 110.6 76.0926 110.57 75.0331 110.511C73.9736 110.453 72.8258 110.394 71.5897 110.335C70.4124 110.217 69.2941 110.129 68.2345 110.07C67.175 110.011 66.4687 109.982 66.1155 109.982C64.7617 109.923 63.7611 109.364 63.1136 108.304C62.525 107.245 62.2307 106.038 62.2307 104.684C62.2307 103.33 62.525 102.153 63.1136 101.152C63.7611 100.093 64.7617 99.4749 66.1155 99.2983C68.3523 99.004 70.4124 98.8274 72.296 98.7685Z" fill="white"/>
<path d="M72.296 98.7685L72.5258 106.123L72.6335 106.119L72.7411 106.113L72.296 98.7685ZM76.0926 98.4154L75.4015 91.0902L75.0227 91.1259L74.6496 91.2005L76.0926 98.4154ZM83.4209 95.6783L88.2396 101.238L88.2396 101.238L83.4209 95.6783ZM85.8047 89.9393L78.462 90.408L78.465 90.4558L78.4687 90.5036L85.8047 89.9393ZM82.1848 83.7588L78.2558 89.9797L78.315 90.0171L78.3749 90.0533L82.1848 83.7588ZM73.9736 82.2578L73.0446 74.959L73.0292 74.961L73.0137 74.963L73.9736 82.2578ZM68.1463 84.73L63.476 79.0445L63.4251 79.0863L63.375 79.129L68.1463 84.73ZM64.7028 89.3212L57.9042 86.508L57.857 86.6221L57.8136 86.7378L64.7028 89.3212ZM62.937 91.5286L58.9583 85.3394L58.8524 85.4075L58.7489 85.4791L62.937 91.5286ZM57.3746 92.9412L57.7827 85.5949L57.7827 85.5949L57.3746 92.9412ZM54.4609 92.4998L52.3467 99.5472L52.4554 99.5798L52.5651 99.609L54.4609 92.4998ZM51.6356 90.9988L46.6638 96.4226L46.6638 96.4226L51.6356 90.9988ZM50.1346 88.7032L57.1147 86.3765L57.1147 86.3765L50.1346 88.7032ZM49.8697 85.8778L57.177 86.7375L57.1798 86.7139L57.1824 86.6904L49.8697 85.8778ZM50.6643 82.7876L57.4679 85.589L57.5125 85.4807L57.5536 85.3711L50.6643 82.7876ZM53.578 78.4613L48.2743 73.3616L48.2702 73.3658L53.578 78.4613ZM58.8755 74.3115L62.6611 80.6207L62.6867 80.6053L62.7122 80.5897L58.8755 74.3115ZM66.0272 71.133L63.885 64.0941L63.8632 64.1007L63.8415 64.1074L66.0272 71.133ZM74.7682 69.7203L74.6414 62.3637L74.566 62.365L74.4907 62.3678L74.7682 69.7203ZM84.4804 71.0447L82.3166 78.077L82.3964 78.1016L82.4767 78.1243L84.4804 71.0447ZM92.6033 74.9296L88.2129 80.8338L88.2975 80.8968L88.3839 80.9572L92.6033 74.9296ZM98.1657 80.8452L104.503 77.1076V77.1076L98.1657 80.8452ZM96.8413 98.5037L91.2728 93.6945L91.2412 93.7312L91.21 93.7682L96.8413 98.5037ZM88.0121 103.889L86.0952 96.7859L87.0852 111.189L88.0121 103.889ZM96.5764 108.128L90.9703 112.893L91.0344 112.968L91.1005 113.042L96.5764 108.128ZM97.9008 124.903L104.448 128.261L104.465 128.227L104.482 128.194L97.9008 124.903ZM92.9564 130.907L88.3407 125.177V125.177L92.9564 130.907ZM85.275 134.88L83.0725 127.86L83.0102 127.879L82.9483 127.9L85.275 134.88ZM65.3209 135.233L63.4694 142.354L63.4865 142.359L63.5035 142.363L65.3209 135.233ZM57.7277 132.143L53.8122 138.372L53.8515 138.397L53.8911 138.421L57.7277 132.143ZM52.9599 127.64L46.744 131.577L46.7744 131.625L46.8055 131.672L52.9599 127.64ZM52.077 118.723L45.6452 115.149L45.5676 115.289L45.4961 115.432L52.077 118.723ZM54.7258 116.339L57.7451 123.048L57.882 122.987L58.0163 122.92L54.7258 116.339ZM56.9331 115.544L55.3915 108.35L55.335 108.362L55.2787 108.375L56.9331 115.544ZM59.317 115.368L58.7527 122.704L58.7727 122.705L58.7928 122.707L59.317 115.368ZM61.5243 115.986L58.0011 122.445L58.236 122.573L58.4797 122.684L61.5243 115.986ZM63.1136 117.398L69.4513 113.661L69.3879 113.553L69.321 113.448L63.1136 117.398ZM68.4111 122.343L65.3393 129.028L65.4147 129.063L65.4908 129.096L68.4111 122.343ZM76.0926 123.844L75.9455 131.2L76.019 131.201H76.0926V123.844ZM79.7126 123.402L77.8401 116.287H77.8401L79.7126 123.402ZM82.6262 122.078L86.9028 128.065L87.0397 127.967L87.172 127.863L82.6262 122.078ZM84.5687 119.782L78.0766 116.32L78.0766 116.32L84.5687 119.782ZM85.275 116.78H92.6327V116.639L92.6273 116.497L85.275 116.78ZM82.8028 112.719L78.1797 118.443L78.2995 118.539L78.4233 118.631L82.8028 112.719ZM77.1521 110.6L77.7312 103.265L77.4421 103.242H77.1521V110.6ZM75.0331 110.511L75.4412 103.165H75.4412L75.0331 110.511ZM71.5897 110.335L70.8575 117.656L71.0483 117.675L71.2397 117.684L71.5897 110.335ZM68.2345 110.07L67.8264 117.416L68.2345 110.07ZM66.1155 109.982L65.7959 117.332L65.9557 117.339H66.1155V109.982ZM63.1136 108.304L56.6818 111.877L56.7559 112.011L56.8354 112.141L63.1136 108.304ZM63.1136 101.152L56.8354 97.3158L56.8031 97.3686L56.7717 97.4219L63.1136 101.152ZM66.1155 99.2983L67.0672 106.594L67.0754 106.593L66.1155 99.2983ZM72.296 98.7685L72.7411 106.113C74.5696 106.002 76.3608 105.865 77.5355 105.63L76.0926 98.4154L74.6496 91.2005C74.7554 91.1794 74.6141 91.2107 74.0205 91.2659C73.496 91.3147 72.7798 91.368 71.8509 91.4243L72.296 98.7685ZM76.0926 98.4154L76.7836 105.741C80.9167 105.351 84.9789 104.064 88.2396 101.238L83.4209 95.6783L78.6021 90.1182C78.3311 90.353 77.5078 90.8915 75.4015 91.0902L76.0926 98.4154ZM83.4209 95.6783L88.2396 101.238C91.7366 98.2077 93.4994 94.0363 93.1408 89.375L85.8047 89.9393L78.4687 90.5036C78.4744 90.5771 78.4671 90.5772 78.4755 90.5202C78.4843 90.4602 78.5053 90.3721 78.5464 90.2733C78.5873 90.1747 78.6318 90.1048 78.6589 90.0684C78.684 90.0346 78.6758 90.0543 78.6021 90.1182L83.4209 95.6783ZM85.8047 89.9393L93.1475 89.4706C92.8285 84.4723 90.4339 80.1512 85.9946 77.4643L82.1848 83.7588L78.3749 90.0533C78.4753 90.1141 78.5023 90.1449 78.4889 90.1316C78.4732 90.116 78.4443 90.0821 78.4185 90.0379C78.3933 89.9949 78.3942 89.982 78.4062 90.0239C78.4192 90.0694 78.4481 90.1899 78.462 90.408L85.8047 89.9393ZM82.1848 83.7588L86.1137 77.538C82.1183 75.0146 77.5687 74.3832 73.0446 74.959L73.9736 82.2578L74.9025 89.5567C76.8532 89.3084 77.7777 89.6777 78.2558 89.9797L82.1848 83.7588ZM73.9736 82.2578L73.0137 74.963C69.4964 75.4258 66.2487 76.767 63.476 79.0445L68.1463 84.73L72.8165 90.4155C73.3401 89.9854 73.9772 89.6785 74.9334 89.5527L73.9736 82.2578ZM68.1463 84.73L63.375 79.129C61.0152 81.1392 59.1111 83.5913 57.9042 86.508L64.7028 89.3212L71.5015 92.1345C71.7073 91.6372 72.0987 91.0285 72.9175 90.331L68.1463 84.73ZM64.7028 89.3212L57.8136 86.7378C57.8913 86.5307 58.0286 86.2613 58.2511 85.9831C58.475 85.7032 58.7258 85.4888 58.9583 85.3394L62.937 91.5286L66.9157 97.7177C69.1108 96.3066 70.6984 94.2879 71.5921 91.9047L64.7028 89.3212ZM62.937 91.5286L58.7489 85.4791C58.7439 85.4826 58.7111 85.5086 58.592 85.5383L60.3765 92.6764L62.161 99.8144C63.9255 99.3733 65.5997 98.6341 67.1251 97.578L62.937 91.5286ZM60.3765 92.6764L58.592 85.5383C58.4299 85.5789 58.1732 85.6165 57.7827 85.5949L57.3746 92.9412L56.9664 100.288C58.695 100.384 60.4396 100.245 62.161 99.8144L60.3765 92.6764ZM57.3746 92.9412L57.7827 85.5949C57.1475 85.5596 56.6827 85.4774 56.3567 85.3905L54.4609 92.4998L52.5651 99.609C54.005 99.993 55.4827 100.205 56.9664 100.288L57.3746 92.9412ZM54.4609 92.4998L56.5751 85.4524C56.381 85.3941 56.3089 85.3542 56.3236 85.3619C56.3416 85.3715 56.453 85.4336 56.6073 85.575L51.6356 90.9988L46.6638 96.4226C48.3854 98.0008 50.3971 98.9623 52.3467 99.5472L54.4609 92.4998ZM51.6356 90.9988L56.6073 85.575C56.6846 85.6459 56.7875 85.7579 56.8887 85.9128C56.9906 86.0686 57.0656 86.2293 57.1147 86.3765L50.1346 88.7032L43.1545 91.0299C43.8562 93.1351 45.0641 94.9562 46.6638 96.4226L51.6356 90.9988ZM50.1346 88.7032L57.1147 86.3765C57.1477 86.4754 57.1659 86.5699 57.1732 86.6479C57.1803 86.7239 57.1747 86.7576 57.177 86.7375L49.8697 85.8778L42.5624 85.0182C42.329 87.002 42.4909 89.0391 43.1545 91.0299L50.1346 88.7032ZM49.8697 85.8778L57.1824 86.6904C57.223 86.3247 57.3137 85.9635 57.4679 85.589L50.6643 82.7876L43.8608 79.9862C43.191 81.613 42.7518 83.3119 42.557 85.0653L49.8697 85.8778ZM50.6643 82.7876L57.5536 85.3711C57.6321 85.1618 57.9357 84.5463 58.8857 83.5567L53.578 78.4613L48.2702 73.3658C46.3949 75.3193 44.7561 77.588 43.7751 80.2041L50.6643 82.7876ZM53.578 78.4613L58.8817 83.561C59.8482 82.5558 61.0863 81.5656 62.6611 80.6207L58.8755 74.3115L55.09 68.0023C52.5445 69.5297 50.2509 71.3059 48.2743 73.3616L53.578 78.4613ZM58.8755 74.3115L62.7122 80.5897C64.2576 79.6453 66.0767 78.8232 68.213 78.1585L66.0272 71.133L63.8415 64.1074C60.6803 65.0909 57.7316 66.3878 55.0389 68.0333L58.8755 74.3115ZM66.0272 71.133L68.1695 78.1719C70.213 77.55 72.4942 77.1691 75.0456 77.0728L74.7682 69.7203L74.4907 62.3678C70.8029 62.507 67.2567 63.0679 63.885 64.0941L66.0272 71.133ZM74.7682 69.7203L74.895 77.0769C77.5846 77.0306 80.0451 77.3781 82.3166 78.077L84.4804 71.0447L86.6442 64.0124C82.794 62.8277 78.7797 62.2923 74.6414 62.3637L74.7682 69.7203ZM84.4804 71.0447L82.4767 78.1243C84.8497 78.7959 86.7239 79.7267 88.2129 80.8338L92.6033 74.9296L96.9936 69.0253C93.8914 66.7185 90.3503 65.0593 86.484 63.9651L84.4804 71.0447ZM92.6033 74.9296L88.3839 80.9572C89.9452 82.0502 91.0494 83.2626 91.828 84.5828L98.1657 80.8452L104.503 77.1076C102.574 73.8366 99.9702 71.1052 96.8226 68.9019L92.6033 74.9296ZM98.1657 80.8452L91.828 84.5828C92.5184 85.7533 92.8387 86.9361 92.8387 88.2617H100.196H107.554C107.554 84.2898 106.521 80.5282 104.503 77.1076L98.1657 80.8452ZM100.196 88.2617H92.8387C92.8387 91.1705 92.0989 92.738 91.2728 93.6945L96.8413 98.5037L102.41 103.313C106.057 99.0895 107.554 93.829 107.554 88.2617H100.196ZM96.8413 98.5037L91.21 93.7682C90.1265 95.0567 88.5557 96.1219 86.0952 96.7859L88.0121 103.889L89.9289 110.993C94.885 109.656 99.2003 107.13 102.473 103.239L96.8413 98.5037ZM88.0121 103.889L87.0852 111.189C89.3744 111.479 90.3968 112.218 90.9703 112.893L96.5764 108.128L102.183 103.362C98.7535 99.3281 94.0663 97.2415 88.9389 96.5904L88.0121 103.889ZM96.5764 108.128L91.1005 113.042C91.6764 113.684 92.309 114.844 92.309 117.31H99.6667H107.024C107.024 112.124 105.597 107.163 102.052 103.213L96.5764 108.128ZM99.6667 117.31H92.309C92.309 118.909 91.9714 120.31 91.3199 121.613L97.9008 124.903L104.482 128.194C106.185 124.788 107.024 121.126 107.024 117.31H99.6667ZM97.9008 124.903L91.3538 121.546C90.6726 122.874 89.7017 124.081 88.3407 125.177L92.9564 130.907L97.5721 136.637C100.449 134.319 102.775 131.523 104.448 128.261L97.9008 124.903ZM92.9564 130.907L88.3407 125.177C87.0411 126.224 85.3318 127.151 83.0725 127.86L85.275 134.88L87.4775 141.9C91.222 140.726 94.6337 139.004 97.5721 136.637L92.9564 130.907ZM85.275 134.88L82.9483 127.9C80.7901 128.619 78.291 129.023 75.3862 129.023V136.381V143.739C79.6626 143.739 83.756 143.142 87.6017 141.86L85.275 134.88ZM75.3862 136.381V129.023C72.1747 129.023 69.4433 128.691 67.1383 128.104L65.3209 135.233L63.5035 142.363C67.2023 143.306 71.1812 143.739 75.3862 143.739V136.381ZM65.3209 135.233L67.1723 128.112C64.7781 127.49 62.9465 126.71 61.5644 125.865L57.7277 132.143L53.8911 138.421C56.747 140.167 59.9776 141.446 63.4694 142.354L65.3209 135.233ZM57.7277 132.143L61.6433 125.914C60.3088 125.075 59.5524 124.276 59.1144 123.608L52.9599 127.64L46.8055 131.672C48.6043 134.418 51.0264 136.621 53.8122 138.372L57.7277 132.143ZM52.9599 127.64L59.1759 123.703C58.7188 122.982 58.6401 122.506 58.6401 122.166H51.2824H43.9247C43.9247 125.594 44.9644 128.767 46.744 131.577L52.9599 127.64ZM51.2824 122.166H58.6401C58.6401 122.077 58.6491 122.038 58.6503 122.033C58.6513 122.028 58.6519 122.027 58.6521 122.026C58.6524 122.025 58.6538 122.021 58.658 122.013L52.077 118.723L45.4961 115.432C44.4331 117.558 43.9247 119.839 43.9247 122.166H51.2824ZM52.077 118.723L58.5088 122.296C58.4163 122.462 58.2782 122.643 58.1027 122.801C57.931 122.955 57.7911 123.028 57.7451 123.048L54.7258 116.339L51.7065 109.629C49.1837 110.764 47.0554 112.611 45.6452 115.149L52.077 118.723ZM54.7258 116.339L58.0163 122.92C58.2054 122.825 58.3922 122.758 58.5876 122.713L56.9331 115.544L55.2787 108.375C53.9436 108.683 52.6589 109.146 51.4353 109.758L54.7258 116.339ZM56.9331 115.544L58.4748 122.738C58.5765 122.717 58.6476 122.708 58.6907 122.705C58.7332 122.702 58.7526 122.704 58.7527 122.704L59.317 115.368L59.8813 108.031C58.3455 107.913 56.8398 108.039 55.3915 108.35L56.9331 115.544ZM59.317 115.368L58.7928 122.707C58.6926 122.699 58.3842 122.654 58.0011 122.445L61.5243 115.986L65.0476 109.526C63.3695 108.611 61.5896 108.153 59.8412 108.029L59.317 115.368ZM61.5243 115.986L58.4797 122.684C58.1347 122.527 57.8071 122.315 57.519 122.059C57.2343 121.806 57.0359 121.552 56.9062 121.348L63.1136 117.398L69.321 113.448C68.2065 111.697 66.618 110.219 64.569 109.287L61.5243 115.986ZM63.1136 117.398L56.7759 121.136C58.8031 124.573 61.6466 127.332 65.3393 129.028L68.4111 122.343L71.483 115.657C70.8199 115.352 70.1317 114.814 69.4513 113.661L63.1136 117.398ZM68.4111 122.343L65.4908 129.096C68.7284 130.496 72.2698 131.126 75.9455 131.2L76.0926 123.844L76.2397 116.487C74.0291 116.443 72.4496 116.073 71.3315 115.589L68.4111 122.343ZM76.0926 123.844V131.201C77.9452 131.201 79.7876 130.991 81.5851 130.518L79.7126 123.402L77.8401 116.287C77.4008 116.402 76.8299 116.486 76.0926 116.486V123.844ZM79.7126 123.402L81.585 130.518C83.4454 130.028 85.257 129.241 86.9028 128.065L82.6262 122.078L78.3496 116.091C78.3473 116.092 78.2165 116.188 77.8401 116.287L79.7126 123.402ZM82.6262 122.078L87.172 127.863C88.7602 126.615 90.0866 125.071 91.0607 123.245L84.5687 119.782L78.0766 116.32C78.0809 116.312 78.0868 116.302 78.094 116.291C78.1013 116.28 78.108 116.272 78.1131 116.266C78.1182 116.26 78.1196 116.259 78.1157 116.262C78.1117 116.266 78.1007 116.276 78.0805 116.292L82.6262 122.078ZM84.5687 119.782L91.0607 123.245C92.1642 121.176 92.6327 118.962 92.6327 116.78H85.275H77.9173C77.9173 116.821 77.9132 116.782 77.9363 116.684C77.9602 116.583 78.0047 116.454 78.0766 116.32L84.5687 119.782ZM85.275 116.78L92.6273 116.497C92.4588 112.117 89.9987 108.893 87.1823 106.806L82.8028 112.719L78.4233 118.631C78.6368 118.789 78.5161 118.752 78.3279 118.443C78.1118 118.088 77.9432 117.595 77.9227 117.063L85.275 116.78ZM82.8028 112.719L87.4259 106.995C84.5838 104.699 81.2326 103.541 77.7312 103.265L77.1521 110.6L76.573 117.935C77.545 118.011 77.961 118.266 78.1797 118.443L82.8028 112.719ZM77.1521 110.6V103.242C77.1564 103.242 77.1196 103.242 77.0253 103.239C76.9359 103.237 76.8168 103.233 76.6638 103.226C76.3568 103.214 75.952 103.193 75.4412 103.165L75.0331 110.511L74.6249 117.858C75.6502 117.915 76.5606 117.957 77.1521 117.957V110.6ZM75.0331 110.511L75.4412 103.165C74.3594 103.105 73.192 103.045 71.9396 102.985L71.5897 110.335L71.2397 117.684C72.4595 117.742 73.5877 117.8 74.6249 117.858L75.0331 110.511ZM71.5897 110.335L72.3218 103.014C71.0488 102.886 69.8218 102.789 68.6427 102.724L68.2345 110.07L67.8264 117.416C68.7663 117.469 69.7761 117.548 70.8575 117.656L71.5897 110.335ZM68.2345 110.07L68.6427 102.724C67.6175 102.667 66.707 102.624 66.1155 102.624V109.982V117.339C66.1112 117.339 66.148 117.339 66.2423 117.342C66.3317 117.345 66.4508 117.349 66.6039 117.355C66.9108 117.368 67.3156 117.388 67.8264 117.416L68.2345 110.07ZM66.1155 109.982L66.4351 102.631C66.6977 102.642 67.2696 102.721 67.9389 103.095C68.6331 103.483 69.1127 104.011 69.3918 104.467L63.1136 108.304L56.8354 112.141C58.8921 115.506 62.2586 117.179 65.7959 117.332L66.1155 109.982ZM63.1136 108.304L69.5454 104.731C69.5603 104.758 69.5731 104.785 69.583 104.811C69.593 104.836 69.5979 104.854 69.5995 104.861C69.6012 104.868 69.5986 104.859 69.5954 104.832C69.5923 104.804 69.5884 104.756 69.5884 104.684H62.2307H54.873C54.873 107.139 55.4174 109.601 56.6818 111.877L63.1136 108.304ZM62.2307 104.684H69.5884C69.5884 104.54 69.6039 104.513 69.5894 104.57C69.5823 104.599 69.569 104.644 69.546 104.7C69.5229 104.757 69.4928 104.819 69.4554 104.883L63.1136 101.152L56.7717 97.4219C55.4145 99.7293 54.873 102.239 54.873 104.684H62.2307ZM63.1136 101.152L69.3918 104.989C69.1475 105.389 68.7536 105.822 68.2161 106.154C67.6977 106.474 67.2591 106.569 67.0672 106.594L66.1155 99.2983L65.1639 92.0024C61.853 92.4342 58.7692 94.1513 56.8354 97.3158L63.1136 101.152ZM66.1155 99.2983L67.0754 106.593C69.1154 106.325 70.9283 106.173 72.5258 106.123L72.296 98.7685L72.0662 91.4144C69.8965 91.4822 67.5891 91.6833 65.1557 92.0035L66.1155 99.2983Z" fill="#E2A003" mask="url(#path-13-outside-1_3576_6854)"/>
<path d="M3.63086 179.794L38.1951 172.079L44.3673 198.619L10.4203 205.408L14.7408 190.904L3.63086 179.794Z" fill="#F3AD06"/>
<path d="M150.534 179.794L115.97 172.079L109.798 198.619L143.745 205.408L139.424 190.904L150.534 179.794Z" fill="#F3AD06"/>
<path d="M109.794 198.616L111.646 185.038L129.236 188.284L109.794 198.616Z" fill="#DF9D00"/>
<path d="M134.488 162.51C90.066 151.835 64.9197 152.216 19.6855 162.51L25.2405 188.433C65.8568 181.433 88.6256 180.738 129.242 188.433L134.488 162.51Z" fill="#FFB608"/>
<path d="M44.3662 198.616L42.5146 185.655L25.2324 188.432L44.3662 198.616Z" fill="#DF9D00"/>
<path d="M73.8585 6.52793C75.1542 3.98897 78.7821 3.98897 80.0778 6.52793L84.7076 15.6001C85.2149 16.5941 86.1668 17.2857 87.2689 17.461L97.3278 19.0608C100.143 19.5085 101.264 22.9588 99.2496 24.9757L92.0522 32.1823C91.2636 32.972 90.9 34.091 91.0738 35.1933L92.6607 45.2542C93.1048 48.0699 90.1698 50.2023 87.6292 48.9098L78.5511 44.2916C77.5565 43.7856 76.3798 43.7856 75.3852 44.2916L66.3071 48.9098C63.7665 50.2023 60.8315 48.0699 61.2756 45.2542L62.8624 35.1933C63.0363 34.091 62.6727 32.972 61.8841 32.1823L54.6867 24.9757C52.6724 22.9588 53.7934 19.5085 56.6085 19.0608L66.6674 17.461C67.7695 17.2857 68.7214 16.5941 69.2287 15.6001L73.8585 6.52793Z" fill="url(#paint9_radial_3576_6854)"/>
<path d="M75.4135 9.8167C76.0613 8.54722 77.8752 8.54722 78.5231 9.8167L83.2121 19.0049C83.4658 19.5019 83.9417 19.8477 84.4928 19.9353L94.6802 21.5555C96.0878 21.7794 96.6483 23.5045 95.6411 24.513L88.3517 31.8118C87.9574 32.2066 87.7756 32.7661 87.8625 33.3173L89.4697 43.5068C89.6917 44.9146 88.2242 45.9808 86.9539 45.3346L77.7598 40.6574C77.2624 40.4044 76.6741 40.4044 76.1768 40.6574L66.9826 45.3346C65.7123 45.9808 64.2448 44.9146 64.4669 43.5068L66.074 33.3173C66.161 32.7661 65.9792 32.2066 65.5849 31.8118L58.2954 24.513C57.2883 23.5045 57.8488 21.7794 59.2563 21.5555L69.4438 19.9353C69.9948 19.8477 70.4708 19.5019 70.7244 19.0049L75.4135 9.8167Z" fill="url(#paint10_radial_3576_6854)"/>
<path d="M80.7193 20.8025C80.3774 18.6016 82.6068 18.4431 83.7643 18.639C84.9218 18.8349 88.0754 19.5473 91.4302 20.8294C95.6237 22.4321 94.4618 24.0214 93.4468 24.7426C92.0113 25.7624 89.8275 25.0229 87.2232 24.5822C84.6189 24.1414 81.1466 23.5537 80.7193 20.8025Z" fill="url(#paint11_radial_3576_6854)"/>
<path d="M93.3116 22.056C93.382 19.9248 94.3404 19.5512 94.8108 19.6308C95.2812 19.7105 96.5455 20.103 97.8392 21.0364C99.4563 22.203 98.8096 23.8795 98.3099 24.6879C97.6032 25.8311 96.7517 25.3171 95.6933 25.138C94.6349 24.9588 93.2236 24.72 93.3116 22.056Z" fill="url(#paint12_radial_3576_6854)" fill-opacity="0.56"/>
<path d="M64.0669 20.2199C63.3806 18.8673 64.641 18.272 65.3569 18.1435C66.0729 18.0149 68.0632 17.7805 70.2967 17.8715C73.0886 17.9852 72.7656 19.2731 72.3355 19.9652C71.7274 20.9441 70.2946 20.9466 68.6836 21.2359C67.0727 21.5251 64.9248 21.9108 64.0669 20.2199Z" fill="url(#paint13_radial_3576_6854)" fill-opacity="0.5"/>
<path d="M69.7379 44.442C68.6168 43.4203 69.5845 42.417 70.2085 42.0431C70.8325 41.6692 72.6106 40.7448 74.7314 40.0385C77.3824 39.1555 77.5367 40.4744 77.3798 41.274C77.158 42.4048 75.819 42.9149 74.4151 43.7562C73.0111 44.5974 71.1392 45.7192 69.7379 44.442Z" fill="url(#paint14_radial_3576_6854)" fill-opacity="0.5"/>
<path d="M86.5778 32.9106C88.4472 31.6997 89.5024 33.67 89.7963 34.8066C90.0902 35.9431 90.7279 39.1126 90.9277 42.6986C91.1774 47.181 89.2522 46.7694 88.1794 46.1374C86.6622 45.2437 86.4453 42.9483 85.784 40.3911C85.1227 37.8339 84.2411 34.4243 86.5778 32.9106Z" fill="url(#paint15_radial_3576_6854)"/>
<path d="M78.8296 11.8187C80.4431 10.2832 81.8441 12.0246 82.3429 13.0873C82.8418 14.1499 84.0542 17.1471 84.9131 20.6343C85.9867 24.9934 84.0186 24.9447 82.8475 24.5218C81.1913 23.9238 80.554 21.708 79.4316 19.317C78.3092 16.926 76.8127 13.738 78.8296 11.8187Z" fill="url(#paint16_radial_3576_6854)"/>
<defs>
<linearGradient id="paint0_linear_3576_6854" x1="13.5068" y1="-19.8" x2="160.661" y2="234.041" gradientUnits="userSpaceOnUse">
<stop stop-color="#FFD900"/>
<stop offset="1" stop-color="#FFA600"/>
</linearGradient>
<linearGradient id="paint1_linear_3576_6854" x1="80.6464" y1="17.9088" x2="340.925" y2="219.326" gradientUnits="userSpaceOnUse">
<stop stop-color="#FFD900"/>
<stop offset="1" stop-color="#FFA600"/>
</linearGradient>
<linearGradient id="paint2_linear_3576_6854" x1="72.369" y1="188.055" x2="-69.2668" y2="85.0469" gradientUnits="userSpaceOnUse">
<stop stop-color="#FFD900"/>
<stop offset="0.576923" stop-color="#FFA600"/>
</linearGradient>
<linearGradient id="paint3_linear_3576_6854" x1="382.313" y1="-117.29" x2="-11.3246" y2="143.908" gradientUnits="userSpaceOnUse">
<stop stop-color="white" stop-opacity="0.4"/>
<stop offset="1" stop-color="white" stop-opacity="0"/>
</linearGradient>
<linearGradient id="paint4_linear_3576_6854" x1="66.8511" y1="248.757" x2="183.655" y2="9.63164" gradientUnits="userSpaceOnUse">
<stop stop-color="white" stop-opacity="0.13"/>
<stop offset="1" stop-color="white" stop-opacity="0"/>
</linearGradient>
<radialGradient id="paint5_radial_3576_6854" cx="0" cy="0" r="1" gradientTransform="matrix(-13.7957 21.1534 -10.4798 -7.30906 125.714 136.551)" gradientUnits="userSpaceOnUse">
<stop stop-color="white" stop-opacity="0.1"/>
<stop offset="1" stop-color="white" stop-opacity="0"/>
</radialGradient>
<radialGradient id="paint6_radial_3576_6854" cx="0" cy="0" r="1" gradientTransform="matrix(25.1908 1.79199 -1.30252 12.7103 71.5946 14.7219)" gradientUnits="userSpaceOnUse">
<stop stop-color="white" stop-opacity="0.1"/>
<stop offset="1" stop-color="white" stop-opacity="0"/>
</radialGradient>
<radialGradient id="paint7_radial_3576_6854" cx="0" cy="0" r="1" gradientTransform="matrix(13.3137 -21.46 10.6425 7.07014 136.306 69.7973)" gradientUnits="userSpaceOnUse">
<stop stop-color="white" stop-opacity="0.1"/>
<stop offset="1" stop-color="white" stop-opacity="0"/>
</radialGradient>
<radialGradient id="paint8_radial_3576_6854" cx="0" cy="0" r="1" gradientUnits="userSpaceOnUse" gradientTransform="translate(75.6048 30.7838) scale(27.5914 16.9994)">
<stop stop-color="white" stop-opacity="0.22"/>
<stop offset="1" stop-color="white" stop-opacity="0"/>
</radialGradient>
<radialGradient id="paint9_radial_3576_6854" cx="0" cy="0" r="1" gradientUnits="userSpaceOnUse" gradientTransform="translate(76.9681 28.9457) rotate(90) scale(28.5111)">
<stop stop-color="#FFE86C"/>
<stop offset="1" stop-color="#FF9900"/>
</radialGradient>
<radialGradient id="paint10_radial_3576_6854" cx="0" cy="0" r="1" gradientUnits="userSpaceOnUse" gradientTransform="translate(76.9683 28.9453) rotate(90) scale(22.1753)">
<stop stop-color="#FFF5BC"/>
<stop offset="0.765" stop-color="#FFA800"/>
</radialGradient>
<radialGradient id="paint11_radial_3576_6854" cx="0" cy="0" r="1" gradientUnits="userSpaceOnUse" gradientTransform="translate(87.5124 21.9775) rotate(99.6063) scale(2.66619 7.03148)">
<stop stop-color="white"/>
<stop offset="0.84" stop-color="white" stop-opacity="0"/>
</radialGradient>
<radialGradient id="paint12_radial_3576_6854" cx="0" cy="0" r="1" gradientUnits="userSpaceOnUse" gradientTransform="translate(96.07 22.5481) rotate(99.6063) scale(2.66619 2.85773)">
<stop stop-color="white"/>
<stop offset="0.84" stop-color="white" stop-opacity="0"/>
</radialGradient>
<radialGradient id="paint13_radial_3576_6854" cx="0" cy="0" r="1" gradientUnits="userSpaceOnUse" gradientTransform="translate(68.2746 19.4819) rotate(79.8213) scale(1.83292 4.3571)">
<stop stop-color="white"/>
<stop offset="0.84" stop-color="white" stop-opacity="0"/>
</radialGradient>
<radialGradient id="paint14_radial_3576_6854" cx="0" cy="0" r="1" gradientUnits="userSpaceOnUse" gradientTransform="translate(73.411 42.2609) rotate(59.0688) scale(1.83292 4.3571)">
<stop stop-color="white"/>
<stop offset="0.84" stop-color="white" stop-opacity="0"/>
</radialGradient>
<radialGradient id="paint15_radial_3576_6854" cx="0" cy="0" r="1" gradientUnits="userSpaceOnUse" gradientTransform="translate(88.2797 39.5913) rotate(165.501) scale(2.66619 7.03148)">
<stop stop-color="white"/>
<stop offset="0.84" stop-color="white" stop-opacity="0"/>
</radialGradient>
<radialGradient id="paint16_radial_3576_6854" cx="0" cy="0" r="1" gradientUnits="userSpaceOnUse" gradientTransform="translate(81.7365 18.0698) rotate(154.854) scale(2.66619 7.03148)">
<stop stop-color="white"/>
<stop offset="0.84" stop-color="white" stop-opacity="0"/>
</radialGradient>
</defs>
</svg>
