<svg width="154" height="205" viewBox="0 0 154 205" fill="none" xmlns="http://www.w3.org/2000/svg">
<path d="M76.0288 8.09717L141.341 55.9223V151.572L76.0288 199.398L10.7162 151.572V55.9223L76.0288 8.09717Z" fill="#FFD900"/>
<path d="M76.0288 24.6514L130.19 64.199V143.294L76.0288 182.842L21.8671 143.294V64.199L76.0288 24.6514Z" fill="url(#paint0_linear_2944_12257)"/>
<path d="M21.767 64.2003L10.7305 55.9229V151.573L21.767 143.296V64.2003Z" fill="#FFE02D"/>
<path d="M130.292 64.2003L141.328 55.9229V151.573L130.292 143.296V64.2003Z" fill="#FFD900"/>
<path d="M76.0293 24.652V8.09717L141.329 55.9223L130.292 64.1997L76.0293 24.652Z" fill="url(#paint1_linear_2944_12257)"/>
<path d="M76.0293 182.842V199.396L10.7297 151.571L21.7662 143.294L76.0293 182.842Z" fill="url(#paint2_linear_2944_12257)"/>
<path d="M110.059 49.4829L21.7666 114.783V143.294L130.293 64.1983L110.059 49.4829Z" fill="url(#paint3_linear_2944_12257)"/>
<path d="M42.0003 158.011L34.6426 152.492L130.293 79.835V89.0321L42.0003 158.011Z" fill="url(#paint4_linear_2944_12257)"/>
<path d="M130.294 143.294L110.061 158.009C102.913 130.184 120.509 116.065 130.294 112.943L130.294 143.294Z" fill="url(#paint5_radial_2944_12257)"/>
<path d="M74.9723 7.88168L97.6598 18.4272C76.803 38.1842 55.9175 29.6554 48.438 22.6155L74.9723 7.88168Z" fill="url(#paint6_radial_2944_12257)"/>
<path d="M130.292 64.1998L151.44 48.6021C159.215 76.2588 140.005 89.3681 130.292 92.7101L130.292 64.1998Z" fill="url(#paint7_radial_2944_12257)"/>
<path d="M75.5862 24.651L96.7392 40.286C75.8823 60.043 57.3137 50.0851 49.8342 43.0453L75.5862 24.651Z" fill="url(#paint8_radial_2944_12257)"/>
<mask id="path-13-outside-1_2944_12257" maskUnits="userSpaceOnUse" x="41.4385" y="62.4771" width="50" height="81" fill="black">
<rect fill="white" x="41.4385" y="62.4771" width="50" height="81"/>
<path d="M80.4004 70.1138C82.3428 70.3492 83.3729 71.3204 83.4906 73.0274C83.6083 76.5591 83.6966 80.6794 83.7555 85.3884C83.8143 90.0384 83.8438 94.8945 83.8438 99.9566C83.9026 104.96 83.9026 109.904 83.8438 114.79C83.7849 119.616 83.726 123.972 83.6672 127.857C83.6083 130.447 83.0197 132.419 81.9013 133.773C80.783 135.126 78.87 135.862 76.1623 135.98C74.7496 136.039 73.6313 135.892 72.8072 135.539C71.9831 135.244 71.3357 134.744 70.8648 134.038C70.4527 133.331 70.1584 132.448 69.9818 131.389C69.8053 130.329 69.6875 129.123 69.6287 127.769C69.3344 121.353 69.0695 114.731 68.834 107.903C68.6575 101.016 68.4809 94.3059 68.3043 87.7723C67.5979 88.0666 66.6856 88.4786 65.5672 89.0084C64.4488 89.4793 63.2422 90.009 61.9472 90.5976C60.7111 91.1863 59.4456 91.7454 58.1506 92.2752C56.9146 92.7461 55.8256 93.0698 54.8838 93.2464C53.7655 93.4819 52.8237 93.3641 52.0585 92.8932C51.2933 92.3635 50.5575 91.3923 49.8512 89.9796C49.1448 88.5669 48.8211 87.3897 48.8799 86.4479C48.9977 85.4472 49.3803 84.682 50.0277 84.1523C51.0873 83.3282 52.3528 82.3864 53.8243 81.3269C55.2959 80.2674 56.8263 79.2079 58.4155 78.1484C60.0048 77.03 61.5352 75.9411 63.0067 74.8816C64.5371 73.8221 65.8615 72.9097 66.9799 72.1445C67.9805 71.4382 68.8929 70.9378 69.717 70.6435C70.541 70.3492 71.424 70.1432 72.3657 70.0255C73.543 69.9078 74.8968 69.8783 76.4272 69.9372C77.9576 69.9372 79.282 69.9961 80.4004 70.1138Z"/>
</mask>
<path d="M80.4004 70.1138C82.3428 70.3492 83.3729 71.3204 83.4906 73.0274C83.6083 76.5591 83.6966 80.6794 83.7555 85.3884C83.8143 90.0384 83.8438 94.8945 83.8438 99.9566C83.9026 104.96 83.9026 109.904 83.8438 114.79C83.7849 119.616 83.726 123.972 83.6672 127.857C83.6083 130.447 83.0197 132.419 81.9013 133.773C80.783 135.126 78.87 135.862 76.1623 135.98C74.7496 136.039 73.6313 135.892 72.8072 135.539C71.9831 135.244 71.3357 134.744 70.8648 134.038C70.4527 133.331 70.1584 132.448 69.9818 131.389C69.8053 130.329 69.6875 129.123 69.6287 127.769C69.3344 121.353 69.0695 114.731 68.834 107.903C68.6575 101.016 68.4809 94.3059 68.3043 87.7723C67.5979 88.0666 66.6856 88.4786 65.5672 89.0084C64.4488 89.4793 63.2422 90.009 61.9472 90.5976C60.7111 91.1863 59.4456 91.7454 58.1506 92.2752C56.9146 92.7461 55.8256 93.0698 54.8838 93.2464C53.7655 93.4819 52.8237 93.3641 52.0585 92.8932C51.2933 92.3635 50.5575 91.3923 49.8512 89.9796C49.1448 88.5669 48.8211 87.3897 48.8799 86.4479C48.9977 85.4472 49.3803 84.682 50.0277 84.1523C51.0873 83.3282 52.3528 82.3864 53.8243 81.3269C55.2959 80.2674 56.8263 79.2079 58.4155 78.1484C60.0048 77.03 61.5352 75.9411 63.0067 74.8816C64.5371 73.8221 65.8615 72.9097 66.9799 72.1445C67.9805 71.4382 68.8929 70.9378 69.717 70.6435C70.541 70.3492 71.424 70.1432 72.3657 70.0255C73.543 69.9078 74.8968 69.8783 76.4272 69.9372C77.9576 69.9372 79.282 69.9961 80.4004 70.1138Z" fill="white"/>
<path d="M80.4004 70.1138L81.2857 62.8095L81.2282 62.8026L81.1706 62.7965L80.4004 70.1138ZM83.4906 73.0274L90.8442 72.7823L90.8399 72.6516L90.8309 72.5212L83.4906 73.0274ZM83.7555 85.3884L76.3983 85.4803L76.3983 85.4815L83.7555 85.3884ZM83.8438 99.9566H76.4861V99.9999L76.4866 100.043L83.8438 99.9566ZM83.8438 114.79L91.2009 114.879L91.2009 114.878L83.8438 114.79ZM83.6672 127.857L91.023 128.024L91.0236 127.996L91.024 127.969L83.6672 127.857ZM81.9013 133.773L76.2288 129.087L76.2288 129.087L81.9013 133.773ZM76.1623 135.98L76.4686 143.331L76.4819 143.331L76.1623 135.98ZM72.8072 135.539L75.7055 128.776L75.4963 128.686L75.2819 128.609L72.8072 135.539ZM70.8648 134.038L64.5093 137.745L64.6205 137.935L64.7428 138.119L70.8648 134.038ZM69.9818 131.389L77.2394 130.179L77.2394 130.179L69.9818 131.389ZM69.6287 127.769L76.9794 127.449L76.979 127.44L76.9786 127.432L69.6287 127.769ZM68.834 107.903L61.4788 108.092L61.4796 108.124L61.4807 108.157L68.834 107.903ZM68.3043 87.7723L75.6593 87.5735L75.3697 76.8575L65.4744 80.9806L68.3043 87.7723ZM65.5672 89.0084L68.4224 95.7895L68.5711 95.7269L68.7169 95.6578L65.5672 89.0084ZM61.9472 90.5976L58.9026 83.8994L58.843 83.9265L58.7839 83.9547L61.9472 90.5976ZM58.1506 92.2752L60.77 99.1509L60.8536 99.119L60.9365 99.0851L58.1506 92.2752ZM54.8838 93.2464L53.5279 86.0147L53.4478 86.0297L53.3681 86.0465L54.8838 93.2464ZM52.0585 92.8932L47.8704 98.9427L48.0334 99.0556L48.2023 99.1595L52.0585 92.8932ZM49.8512 89.9796L56.4321 86.6891L56.4321 86.6891L49.8512 89.9796ZM48.8799 86.4479L41.5726 85.5882L41.5491 85.7881L41.5366 85.9889L48.8799 86.4479ZM50.0277 84.1523L45.5105 78.3445L45.4389 78.4002L45.3686 78.4577L50.0277 84.1523ZM53.8243 81.3269L58.1235 87.298L53.8243 81.3269ZM58.4155 78.1484L62.4968 84.2704L62.574 84.2189L62.6498 84.1656L58.4155 78.1484ZM63.0067 74.8816L58.8187 68.8321L58.7628 68.8708L58.7076 68.9105L63.0067 74.8816ZM66.9799 72.1445L71.1347 78.2169L71.179 78.1865L71.223 78.1555L66.9799 72.1445ZM69.717 70.6435L67.2423 63.7145L67.2423 63.7145L69.717 70.6435ZM72.3657 70.0255L71.6336 62.7043L71.5432 62.7133L71.4531 62.7246L72.3657 70.0255ZM76.4272 69.9372L76.1444 77.2895L76.2857 77.2949H76.4272V69.9372ZM80.4004 70.1138L79.515 77.418C79.5093 77.4173 78.5747 77.3079 77.5823 76.3722C76.4808 75.3337 76.1908 74.1203 76.1503 73.5337L83.4906 73.0274L90.8309 72.5212C90.6727 70.2275 89.8087 67.6751 87.6772 65.6654C85.6547 63.7585 83.2338 63.0457 81.2857 62.8095L80.4004 70.1138ZM83.4906 73.0274L76.137 73.2725C76.2525 76.7397 76.3399 80.8069 76.3983 85.4803L83.7555 85.3884L91.1126 85.2964C91.0533 80.552 90.9641 76.3786 90.8442 72.7823L83.4906 73.0274ZM83.7555 85.3884L76.3983 85.4815C76.4568 90.098 76.4861 94.9229 76.4861 99.9566H83.8438H91.2015C91.2015 94.8662 91.1719 89.9789 91.1126 85.2952L83.7555 85.3884ZM83.8438 99.9566L76.4866 100.043C76.5448 104.989 76.5447 109.875 76.4866 114.701L83.8438 114.79L91.2009 114.878C91.2605 109.933 91.2605 104.93 91.201 99.8701L83.8438 99.9566ZM83.8438 114.79L76.4866 114.7C76.4278 119.521 76.369 123.869 76.3103 127.746L83.6672 127.857L91.024 127.969C91.083 124.075 91.142 119.712 91.2009 114.879L83.8438 114.79ZM83.6672 127.857L76.3114 127.69C76.2932 128.49 76.1966 128.955 76.1313 129.174C76.071 129.376 76.0622 129.288 76.2288 129.087L81.9013 133.773L87.5738 138.459C90.1423 135.349 90.9437 131.511 91.023 128.024L83.6672 127.857ZM81.9013 133.773L76.2288 129.087C76.4028 128.876 76.5839 128.72 76.7377 128.614C76.887 128.511 76.9834 128.474 76.9865 128.473C76.987 128.472 76.903 128.504 76.7076 128.54C76.5122 128.577 76.229 128.612 75.8427 128.629L76.1623 135.98L76.4819 143.331C80.1479 143.171 84.551 142.118 87.5738 138.459L81.9013 133.773ZM76.1623 135.98L75.856 128.629C75.6691 128.636 75.5232 128.636 75.4145 128.632C75.3054 128.628 75.2439 128.622 75.2239 128.619C75.2035 128.616 75.2375 128.619 75.3157 128.64C75.394 128.66 75.5293 128.7 75.7055 128.776L72.8072 135.539L69.9089 142.301C72.1607 143.266 74.5246 143.412 76.4686 143.331L76.1623 135.98ZM72.8072 135.539L75.2819 128.609C75.548 128.704 75.8727 128.866 76.2024 129.12C76.5341 129.377 76.796 129.67 76.9867 129.956L70.8648 134.038L64.7428 138.119C66.1201 140.185 68.0673 141.659 70.3325 142.468L72.8072 135.539ZM70.8648 134.038L77.2202 130.33C77.3015 130.47 77.3237 130.544 77.3151 130.519C77.3064 130.493 77.274 130.386 77.2394 130.179L69.9818 131.389L62.7242 132.598C63.004 134.277 63.5311 136.068 64.5093 137.745L70.8648 134.038ZM69.9818 131.389L77.2394 130.179C77.1227 129.479 77.0285 128.578 76.9794 127.449L69.6287 127.769L62.2779 128.088C62.3466 129.667 62.4878 131.18 62.7242 132.598L69.9818 131.389ZM69.6287 127.769L76.9786 127.432C76.6857 121.045 76.4219 114.451 76.1874 107.649L68.834 107.903L61.4807 108.157C61.7171 115.011 61.983 121.66 62.2787 128.106L69.6287 127.769ZM68.834 107.903L76.1893 107.714C76.0127 100.824 75.836 94.1107 75.6593 87.5735L68.3043 87.7723L60.9493 87.9711C61.1258 94.5011 61.3022 101.208 61.4788 108.092L68.834 107.903ZM68.3043 87.7723L65.4744 80.9806C64.6155 81.3384 63.5857 81.8056 62.4175 82.3589L65.5672 89.0084L68.7169 95.6578C69.7855 95.1517 70.5804 94.7947 71.1342 94.564L68.3043 87.7723ZM65.5672 89.0084L62.712 82.2272C61.5204 82.729 60.2499 83.287 58.9026 83.8994L61.9472 90.5976L64.9919 97.2958C66.2344 96.731 67.3773 96.2296 68.4224 95.7895L65.5672 89.0084ZM61.9472 90.5976L58.7839 83.9547C57.6747 84.4828 56.5352 84.9865 55.3648 85.4653L58.1506 92.2752L60.9365 99.0851C62.356 98.5044 63.7475 97.8897 65.1106 97.2406L61.9472 90.5976ZM58.1506 92.2752L55.5313 85.3995C54.5627 85.7685 53.9113 85.9428 53.5279 86.0147L54.8838 93.2464L56.2398 100.478C57.7399 100.197 59.2664 99.7236 60.77 99.1509L58.1506 92.2752ZM54.8838 93.2464L53.3681 86.0465C53.4492 86.0294 53.7668 85.9732 54.2513 86.0338C54.7643 86.0979 55.3512 86.2802 55.9146 86.627L52.0585 92.8932L48.2023 99.1595C50.976 100.866 53.9597 100.96 56.3996 100.446L54.8838 93.2464ZM52.0585 92.8932L56.2465 86.8438C56.4645 86.9947 56.6108 87.1285 56.6928 87.2105C56.7747 87.2924 56.8074 87.3376 56.7975 87.3245C56.7881 87.312 56.748 87.2574 56.6819 87.148C56.6161 87.0392 56.5319 86.8887 56.4321 86.6891L49.8512 89.9796L43.2702 93.2701C44.1918 95.1132 45.6093 97.3773 47.8704 98.9427L52.0585 92.8932ZM49.8512 89.9796L56.4321 86.6891C56.3368 86.4986 56.2722 86.3513 56.2299 86.245C56.2091 86.1926 56.1948 86.153 56.1855 86.1256C56.1762 86.0983 56.1727 86.0853 56.1729 86.0862C56.1732 86.087 56.1778 86.1041 56.1844 86.1364C56.191 86.1687 56.2001 86.2189 56.2084 86.2858C56.2249 86.4175 56.2406 86.6297 56.2233 86.9068L48.8799 86.4479L41.5366 85.9889C41.3592 88.826 42.3298 91.3893 43.2702 93.2701L49.8512 89.9796ZM48.8799 86.4479L56.1872 87.3076C56.1639 87.5064 56.0869 87.9125 55.8361 88.414C55.5743 88.9376 55.1846 89.4397 54.6869 89.8468L50.0277 84.1523L45.3686 78.4577C42.9529 80.4342 41.8647 83.1052 41.5726 85.5882L48.8799 86.4479ZM50.0277 84.1523L54.5449 89.9601C55.513 89.2072 56.702 88.3214 58.1235 87.298L53.8243 81.3269L49.5252 75.3559C48.0036 76.4514 46.6615 77.4493 45.5105 78.3445L50.0277 84.1523ZM53.8243 81.3269L58.1235 87.298C59.5196 86.2927 60.9772 85.2835 62.4968 84.2704L58.4155 78.1484L54.3342 72.0264C52.6753 73.1323 51.0721 74.2421 49.5252 75.3559L53.8243 81.3269ZM58.4155 78.1484L62.6498 84.1656C64.2593 83.033 65.8113 81.9287 67.3059 80.8526L63.0067 74.8816L58.7076 68.9105C57.259 69.9535 55.7503 71.027 54.1812 72.1312L58.4155 78.1484ZM63.0067 74.8816L67.1948 80.931C68.7179 79.8766 70.0307 78.9723 71.1347 78.2169L66.9799 72.1445L62.8251 66.0721C61.6924 66.8472 60.3564 67.7675 58.8187 68.8321L63.0067 74.8816ZM66.9799 72.1445L71.223 78.1555C71.5351 77.9352 71.7775 77.7868 71.9525 77.6908C72.1292 77.5939 72.2069 77.5671 72.1916 77.5726L69.717 70.6435L67.2423 63.7145C65.5953 64.3027 64.0832 65.1831 62.7368 66.1335L66.9799 72.1445ZM69.717 70.6435L72.1916 77.5726C72.4695 77.4733 72.8247 77.3831 73.2784 77.3264L72.3657 70.0255L71.4531 62.7246C70.0232 62.9033 68.6125 63.2251 67.2423 63.7145L69.717 70.6435ZM72.3657 70.0255L73.0978 77.3467C73.8566 77.2708 74.8598 77.2401 76.1444 77.2895L76.4272 69.9372L76.71 62.5849C74.9338 62.5166 73.2293 62.5447 71.6336 62.7043L72.3657 70.0255ZM76.4272 69.9372V77.2949C77.7852 77.2949 78.84 77.3479 79.6301 77.4311L80.4004 70.1138L81.1706 62.7965C79.724 62.6442 78.13 62.5795 76.4272 62.5795V69.9372Z" fill="#E2A003" mask="url(#path-13-outside-1_2944_12257)"/>
<path d="M3 178.65L37.5636 170.935L43.7357 197.474L9.78928 204.264L14.1097 189.759L3 178.65Z" fill="#F3AD06"/>
<path d="M149.9 178.65L115.337 170.935L109.165 197.474L143.111 204.264L138.791 189.759L149.9 178.65Z" fill="#F3AD06"/>
<path d="M109.161 197.472L111.012 183.894L128.603 187.14L109.161 197.472Z" fill="#DF9D00"/>
<path d="M133.855 161.365C89.4338 150.691 64.288 151.072 19.0547 161.365L24.6096 187.288C65.225 180.288 87.9934 179.593 128.609 187.288L133.855 161.365Z" fill="#FFB608"/>
<path d="M43.735 197.471L41.8834 184.51L24.6016 187.287L43.735 197.471Z" fill="#DF9D00"/>
<path d="M73.8399 6.83311C75.1357 4.29414 78.7635 4.29415 80.0592 6.83311L84.6891 15.9053C85.1963 16.8993 86.1482 17.5909 87.2504 17.7662L97.3092 19.3659C100.124 19.8137 101.245 23.264 99.2311 25.2808L92.0336 32.4875C91.245 33.2771 90.8814 34.3962 91.0553 35.4985L92.6422 45.5594C93.0863 48.3751 90.1513 50.5075 87.6106 49.215L78.5326 44.5968C77.5379 44.0908 76.3613 44.0908 75.3666 44.5968L66.2885 49.215C63.7479 50.5075 60.8129 48.3751 61.257 45.5594L62.8439 35.4985C63.0178 34.3962 62.6542 33.2771 61.8656 32.4875L54.6681 25.2808C52.6538 23.264 53.7749 19.8137 56.59 19.3659L66.6488 17.7662C67.7509 17.5909 68.7028 16.8993 69.2101 15.9053L73.8399 6.83311Z" fill="url(#paint9_radial_2944_12257)"/>
<path d="M75.3949 10.1219C76.0428 8.85239 77.8567 8.85239 78.5045 10.1219L83.1936 19.31C83.4472 19.807 83.9232 20.1528 84.4742 20.2405L94.6617 21.8607C96.0692 22.0846 96.6297 23.8097 95.6226 24.8182L88.3331 32.117C87.9388 32.5118 87.757 33.0713 87.844 33.6225L89.4511 43.812C89.6732 45.2198 88.2057 46.286 86.9354 45.6398L77.7412 40.9625C77.2439 40.7095 76.6556 40.7095 76.1582 40.9625L66.9641 45.6398C65.6938 46.286 64.2263 45.2198 64.4483 43.812L66.0555 33.6225C66.1424 33.0713 65.9606 32.5118 65.5663 32.117L58.2768 24.8182C57.2697 23.8097 57.8302 22.0846 59.2378 21.8607L69.4252 20.2405C69.9763 20.1528 70.4522 19.807 70.7059 19.31L75.3949 10.1219Z" fill="url(#paint10_radial_2944_12257)"/>
<path d="M80.7007 21.1077C80.3588 18.9067 82.5883 18.7483 83.7457 18.9442C84.9032 19.1401 88.0568 19.8524 91.4116 21.1346C95.6052 22.7373 94.4432 24.3266 93.4282 25.0477C91.9928 26.0676 89.8089 25.3281 87.2046 24.8874C84.6004 24.4466 81.128 23.8589 80.7007 21.1077Z" fill="url(#paint11_radial_2944_12257)"/>
<path d="M93.2931 22.3612C93.3634 20.23 94.3218 19.8564 94.7923 19.936C95.2627 20.0156 96.5269 20.4082 97.8206 21.3415C99.4377 22.5082 98.7911 24.1847 98.2913 24.993C97.5846 26.1362 96.7332 25.6223 95.6748 25.4431C94.6163 25.264 93.2051 25.0251 93.2931 22.3612Z" fill="url(#paint12_radial_2944_12257)" fill-opacity="0.56"/>
<path d="M64.0483 20.5251C63.362 19.1724 64.6224 18.5772 65.3384 18.4486C66.0544 18.3201 68.0447 18.0857 70.2782 18.1767C73.0701 18.2904 72.747 19.5783 72.317 20.2704C71.7088 21.2493 70.276 21.2518 68.6651 21.5411C67.0541 21.8303 64.9062 22.2159 64.0483 20.5251Z" fill="url(#paint13_radial_2944_12257)" fill-opacity="0.5"/>
<path d="M69.7193 44.7472C68.5983 43.7254 69.566 42.7222 70.1899 42.3483C70.8139 41.9744 72.5921 41.05 74.7129 40.3437C77.3639 39.4607 77.5181 40.7795 77.3613 41.5792C77.1394 42.71 75.8005 43.2201 74.3965 44.0613C72.9926 44.9026 71.1207 46.0243 69.7193 44.7472Z" fill="url(#paint14_radial_2944_12257)" fill-opacity="0.5"/>
<path d="M86.5593 33.2158C88.4287 32.0049 89.4838 33.9752 89.7777 35.1117C90.0716 36.2483 90.7094 39.4178 90.9091 43.0037C91.1588 47.4861 89.2336 47.0746 88.1608 46.4426C86.6436 45.5489 86.4267 43.2535 85.7655 40.6963C85.1042 38.1391 84.2225 34.7295 86.5593 33.2158Z" fill="url(#paint15_radial_2944_12257)"/>
<path d="M78.811 12.1238C80.4245 10.5883 81.8255 12.3298 82.3244 13.3924C82.8232 14.4551 84.0356 17.4522 84.8945 20.9395C85.9681 25.2986 84 25.2498 82.8289 24.827C81.1727 24.229 80.5354 22.0131 79.413 19.6222C78.2907 17.2312 76.7942 14.0432 78.811 12.1238Z" fill="url(#paint16_radial_2944_12257)"/>
<defs>
<linearGradient id="paint0_linear_2944_12257" x1="13.4883" y1="-19.4949" x2="160.642" y2="234.346" gradientUnits="userSpaceOnUse">
<stop stop-color="#FFD900"/>
<stop offset="1" stop-color="#FFA600"/>
</linearGradient>
<linearGradient id="paint1_linear_2944_12257" x1="80.6279" y1="18.214" x2="340.907" y2="219.631" gradientUnits="userSpaceOnUse">
<stop stop-color="#FFD900"/>
<stop offset="1" stop-color="#FFA600"/>
</linearGradient>
<linearGradient id="paint2_linear_2944_12257" x1="72.3504" y1="188.36" x2="-69.2854" y2="85.352" gradientUnits="userSpaceOnUse">
<stop stop-color="#FFD900"/>
<stop offset="0.576923" stop-color="#FFA600"/>
</linearGradient>
<linearGradient id="paint3_linear_2944_12257" x1="382.294" y1="-116.985" x2="-11.3431" y2="144.213" gradientUnits="userSpaceOnUse">
<stop stop-color="white" stop-opacity="0.4"/>
<stop offset="1" stop-color="white" stop-opacity="0"/>
</linearGradient>
<linearGradient id="paint4_linear_2944_12257" x1="66.8326" y1="249.062" x2="183.636" y2="9.93681" gradientUnits="userSpaceOnUse">
<stop stop-color="white" stop-opacity="0.13"/>
<stop offset="1" stop-color="white" stop-opacity="0"/>
</linearGradient>
<radialGradient id="paint5_radial_2944_12257" cx="0" cy="0" r="1" gradientTransform="matrix(-13.7957 21.1534 -10.4798 -7.30906 125.696 136.856)" gradientUnits="userSpaceOnUse">
<stop stop-color="white" stop-opacity="0.1"/>
<stop offset="1" stop-color="white" stop-opacity="0"/>
</radialGradient>
<radialGradient id="paint6_radial_2944_12257" cx="0" cy="0" r="1" gradientTransform="matrix(25.1908 1.79199 -1.30252 12.7103 71.5761 15.0271)" gradientUnits="userSpaceOnUse">
<stop stop-color="white" stop-opacity="0.1"/>
<stop offset="1" stop-color="white" stop-opacity="0"/>
</radialGradient>
<radialGradient id="paint7_radial_2944_12257" cx="0" cy="0" r="1" gradientTransform="matrix(13.3137 -21.46 10.6425 7.07014 136.287 70.103)" gradientUnits="userSpaceOnUse">
<stop stop-color="white" stop-opacity="0.1"/>
<stop offset="1" stop-color="white" stop-opacity="0"/>
</radialGradient>
<radialGradient id="paint8_radial_2944_12257" cx="0" cy="0" r="1" gradientUnits="userSpaceOnUse" gradientTransform="translate(75.5862 31.089) scale(27.5914 16.9994)">
<stop stop-color="white" stop-opacity="0.22"/>
<stop offset="1" stop-color="white" stop-opacity="0"/>
</radialGradient>
<radialGradient id="paint9_radial_2944_12257" cx="0" cy="0" r="1" gradientUnits="userSpaceOnUse" gradientTransform="translate(76.9496 29.2509) rotate(90) scale(28.5111)">
<stop stop-color="#FFE86C"/>
<stop offset="1" stop-color="#FF9900"/>
</radialGradient>
<radialGradient id="paint10_radial_2944_12257" cx="0" cy="0" r="1" gradientUnits="userSpaceOnUse" gradientTransform="translate(76.9497 29.2505) rotate(90) scale(22.1753)">
<stop stop-color="#FFF5BC"/>
<stop offset="0.765" stop-color="#FFA800"/>
</radialGradient>
<radialGradient id="paint11_radial_2944_12257" cx="0" cy="0" r="1" gradientUnits="userSpaceOnUse" gradientTransform="translate(87.4938 22.2827) rotate(99.6063) scale(2.66619 7.03148)">
<stop stop-color="white"/>
<stop offset="0.84" stop-color="white" stop-opacity="0"/>
</radialGradient>
<radialGradient id="paint12_radial_2944_12257" cx="0" cy="0" r="1" gradientUnits="userSpaceOnUse" gradientTransform="translate(96.0514 22.8532) rotate(99.6063) scale(2.66619 2.85773)">
<stop stop-color="white"/>
<stop offset="0.84" stop-color="white" stop-opacity="0"/>
</radialGradient>
<radialGradient id="paint13_radial_2944_12257" cx="0" cy="0" r="1" gradientUnits="userSpaceOnUse" gradientTransform="translate(68.256 19.787) rotate(79.8213) scale(1.83292 4.3571)">
<stop stop-color="white"/>
<stop offset="0.84" stop-color="white" stop-opacity="0"/>
</radialGradient>
<radialGradient id="paint14_radial_2944_12257" cx="0" cy="0" r="1" gradientUnits="userSpaceOnUse" gradientTransform="translate(73.3925 42.5661) rotate(59.0688) scale(1.83292 4.3571)">
<stop stop-color="white"/>
<stop offset="0.84" stop-color="white" stop-opacity="0"/>
</radialGradient>
<radialGradient id="paint15_radial_2944_12257" cx="0" cy="0" r="1" gradientUnits="userSpaceOnUse" gradientTransform="translate(88.2611 39.8964) rotate(165.501) scale(2.66619 7.03148)">
<stop stop-color="white"/>
<stop offset="0.84" stop-color="white" stop-opacity="0"/>
</radialGradient>
<radialGradient id="paint16_radial_2944_12257" cx="0" cy="0" r="1" gradientUnits="userSpaceOnUse" gradientTransform="translate(81.7179 18.375) rotate(154.854) scale(2.66619 7.03148)">
<stop stop-color="white"/>
<stop offset="0.84" stop-color="white" stop-opacity="0"/>
</radialGradient>
</defs>
</svg>
