<svg width="155" height="205" viewBox="0 0 155 205" fill="none" xmlns="http://www.w3.org/2000/svg">
<path d="M76.3198 7.59863L141.632 55.4237V151.074L76.3198 198.899L11.0072 151.074V55.4237L76.3198 7.59863Z" fill="#FFD900"/>
<path d="M76.3198 24.1533L130.481 63.701V142.796L76.3198 182.344L22.1581 142.796V63.701L76.3198 24.1533Z" fill="url(#paint0_linear_2944_11382)"/>
<path d="M22.058 63.7022L11.0215 55.4248V151.075L22.058 142.798V63.7022Z" fill="#FFE02D"/>
<path d="M130.583 63.7022L141.619 55.4248V151.075L130.583 142.798V63.7022Z" fill="#FFD900"/>
<path d="M76.3203 24.1535V7.59863L141.62 55.4237L130.583 63.7011L76.3203 24.1535Z" fill="url(#paint1_linear_2944_11382)"/>
<path d="M76.3203 182.344V198.898L11.0207 151.073L22.0572 142.796L76.3203 182.344Z" fill="url(#paint2_linear_2944_11382)"/>
<path d="M110.35 48.9849L22.0576 114.285V142.796L130.584 63.7003L110.35 48.9849Z" fill="url(#paint3_linear_2944_11382)"/>
<path d="M42.2913 157.512L34.9336 151.993L130.584 79.3359V88.5331L42.2913 157.512Z" fill="url(#paint4_linear_2944_11382)"/>
<path d="M130.585 142.796L110.352 157.511C103.204 129.686 120.8 115.567 130.585 112.445L130.585 142.796Z" fill="url(#paint5_radial_2944_11382)"/>
<path d="M75.2633 7.38314L97.9508 17.9287C77.094 37.6857 56.2085 29.1568 48.729 22.117L75.2633 7.38314Z" fill="url(#paint6_radial_2944_11382)"/>
<path d="M130.583 63.7007L151.731 48.1031C159.507 75.7598 140.296 88.8691 130.583 92.2111L130.583 63.7007Z" fill="url(#paint7_radial_2944_11382)"/>
<path d="M75.8772 24.1525L97.0302 39.7875C76.1733 59.5445 57.6047 49.5866 50.1252 42.5468L75.8772 24.1525Z" fill="url(#paint8_radial_2944_11382)"/>
<mask id="path-13-outside-1_2944_11382" maskUnits="userSpaceOnUse" x="42.7295" y="61.979" width="66" height="82" fill="black">
<rect fill="white" x="42.7295" y="61.979" width="66" height="82"/>
<path d="M72.5685 98.5757C74.5109 98.4579 75.7764 98.3402 76.365 98.2225C79.4847 97.9282 81.9275 97.0158 83.6933 95.4854C85.4592 93.955 86.2538 92.042 86.0772 89.7464C85.9006 86.9799 84.694 84.9198 82.4572 83.5659C80.2205 82.1533 77.4834 81.6529 74.246 82.065C72.0093 82.3593 70.0668 83.1833 68.4187 84.5372C66.8294 85.891 65.6816 87.4214 64.9753 89.1284C64.6221 90.0702 64.0335 90.8059 63.2095 91.3357C62.4443 91.8654 61.5908 92.248 60.649 92.4835C59.7072 92.7189 58.7065 92.8072 57.647 92.7484C56.5875 92.6895 55.6163 92.5423 54.7334 92.3069C53.5561 91.9537 52.6144 91.4534 51.908 90.8059C51.2017 90.1584 50.7014 89.3932 50.407 88.5103C50.1127 87.6274 50.0244 86.6856 50.1422 85.685C50.2599 84.6255 50.5248 83.5954 50.9368 82.5947C51.4666 81.182 52.4378 79.7399 53.8505 78.2684C55.322 76.738 57.0878 75.3547 59.148 74.1186C61.267 72.8237 63.6509 71.7642 66.2997 70.9401C69.0073 70.1161 71.921 69.6452 75.0406 69.5274C78.4546 69.4686 81.692 69.91 84.7528 70.8518C87.8725 71.7348 90.5801 73.0297 92.8757 74.7367C95.2302 76.3848 97.0843 78.3567 98.4382 80.6523C99.792 82.9479 100.469 85.4201 100.469 88.0689C100.469 92.3069 99.3505 95.7209 97.1138 98.3108C94.9359 100.901 91.9928 102.696 88.2845 103.697C91.9928 104.168 94.8476 105.58 96.8489 107.935C98.9091 110.23 99.9391 113.291 99.9391 117.117C99.9391 119.825 99.3505 122.356 98.1733 124.71C96.996 127.006 95.3479 129.007 93.2289 130.714C91.1099 132.421 88.5494 133.746 85.5475 134.687C82.5455 135.688 79.2493 136.188 75.6587 136.188C71.9504 136.188 68.5953 135.806 65.5934 135.04C62.6503 134.275 60.1192 133.245 58.0002 131.95C55.94 130.655 54.3508 129.154 53.2324 127.447C52.114 125.681 51.5549 123.857 51.5549 121.973C51.5549 120.737 51.8197 119.589 52.3495 118.53C52.9381 117.47 53.821 116.676 54.9983 116.146C55.7046 115.793 56.4404 115.528 57.2056 115.351C58.0296 115.175 58.8243 115.116 59.5895 115.175C60.4135 115.234 61.1493 115.44 61.7968 115.793C62.4443 116.087 62.974 116.558 63.386 117.205C64.7399 119.501 66.5057 121.149 68.6836 122.15C70.8615 123.092 73.422 123.592 76.365 123.651C77.66 123.651 78.8667 123.504 79.985 123.209C81.1034 122.915 82.0746 122.473 82.8987 121.885C83.7227 121.237 84.3702 120.472 84.8411 119.589C85.312 118.706 85.5475 117.706 85.5475 116.587C85.4886 115.057 84.6645 113.703 83.0753 112.526C81.5449 111.29 79.6613 110.583 77.4245 110.407C77.0714 110.407 76.365 110.377 75.3055 110.319C74.246 110.26 73.0982 110.201 71.8621 110.142C70.6849 110.024 69.5665 109.936 68.507 109.877C67.4475 109.818 66.7412 109.789 66.388 109.789C65.0342 109.73 64.0335 109.171 63.386 108.111C62.7974 107.052 62.5031 105.845 62.5031 104.491C62.5031 103.137 62.7974 101.96 63.386 100.96C64.0335 99.9001 65.0342 99.282 66.388 99.1054C68.6247 98.8111 70.6849 98.6345 72.5685 98.5757Z"/>
</mask>
<path d="M72.5685 98.5757C74.5109 98.4579 75.7764 98.3402 76.365 98.2225C79.4847 97.9282 81.9275 97.0158 83.6933 95.4854C85.4592 93.955 86.2538 92.042 86.0772 89.7464C85.9006 86.9799 84.694 84.9198 82.4572 83.5659C80.2205 82.1533 77.4834 81.6529 74.246 82.065C72.0093 82.3593 70.0668 83.1833 68.4187 84.5372C66.8294 85.891 65.6816 87.4214 64.9753 89.1284C64.6221 90.0702 64.0335 90.8059 63.2095 91.3357C62.4443 91.8654 61.5908 92.248 60.649 92.4835C59.7072 92.7189 58.7065 92.8072 57.647 92.7484C56.5875 92.6895 55.6163 92.5423 54.7334 92.3069C53.5561 91.9537 52.6144 91.4534 51.908 90.8059C51.2017 90.1584 50.7014 89.3932 50.407 88.5103C50.1127 87.6274 50.0244 86.6856 50.1422 85.685C50.2599 84.6255 50.5248 83.5954 50.9368 82.5947C51.4666 81.182 52.4378 79.7399 53.8505 78.2684C55.322 76.738 57.0878 75.3547 59.148 74.1186C61.267 72.8237 63.6509 71.7642 66.2997 70.9401C69.0073 70.1161 71.921 69.6452 75.0406 69.5274C78.4546 69.4686 81.692 69.91 84.7528 70.8518C87.8725 71.7348 90.5801 73.0297 92.8757 74.7367C95.2302 76.3848 97.0843 78.3567 98.4382 80.6523C99.792 82.9479 100.469 85.4201 100.469 88.0689C100.469 92.3069 99.3505 95.7209 97.1138 98.3108C94.9359 100.901 91.9928 102.696 88.2845 103.697C91.9928 104.168 94.8476 105.58 96.8489 107.935C98.9091 110.23 99.9391 113.291 99.9391 117.117C99.9391 119.825 99.3505 122.356 98.1733 124.71C96.996 127.006 95.3479 129.007 93.2289 130.714C91.1099 132.421 88.5494 133.746 85.5475 134.687C82.5455 135.688 79.2493 136.188 75.6587 136.188C71.9504 136.188 68.5953 135.806 65.5934 135.04C62.6503 134.275 60.1192 133.245 58.0002 131.95C55.94 130.655 54.3508 129.154 53.2324 127.447C52.114 125.681 51.5549 123.857 51.5549 121.973C51.5549 120.737 51.8197 119.589 52.3495 118.53C52.9381 117.47 53.821 116.676 54.9983 116.146C55.7046 115.793 56.4404 115.528 57.2056 115.351C58.0296 115.175 58.8243 115.116 59.5895 115.175C60.4135 115.234 61.1493 115.44 61.7968 115.793C62.4443 116.087 62.974 116.558 63.386 117.205C64.7399 119.501 66.5057 121.149 68.6836 122.15C70.8615 123.092 73.422 123.592 76.365 123.651C77.66 123.651 78.8667 123.504 79.985 123.209C81.1034 122.915 82.0746 122.473 82.8987 121.885C83.7227 121.237 84.3702 120.472 84.8411 119.589C85.312 118.706 85.5475 117.706 85.5475 116.587C85.4886 115.057 84.6645 113.703 83.0753 112.526C81.5449 111.29 79.6613 110.583 77.4245 110.407C77.0714 110.407 76.365 110.377 75.3055 110.319C74.246 110.26 73.0982 110.201 71.8621 110.142C70.6849 110.024 69.5665 109.936 68.507 109.877C67.4475 109.818 66.7412 109.789 66.388 109.789C65.0342 109.73 64.0335 109.171 63.386 108.111C62.7974 107.052 62.5031 105.845 62.5031 104.491C62.5031 103.137 62.7974 101.96 63.386 100.96C64.0335 99.9001 65.0342 99.282 66.388 99.1054C68.6247 98.8111 70.6849 98.6345 72.5685 98.5757Z" fill="white"/>
<path d="M72.5685 98.5757L72.7983 105.93L72.906 105.926L73.0136 105.92L72.5685 98.5757ZM76.365 98.2225L75.674 90.8973L75.2952 90.9331L74.9221 91.0077L76.365 98.2225ZM83.6933 95.4854L88.5121 101.046L88.5121 101.046L83.6933 95.4854ZM86.0772 89.7464L78.7344 90.2151L78.7375 90.2629L78.7412 90.3107L86.0772 89.7464ZM82.4572 83.5659L78.5283 89.7868L78.5875 89.8242L78.6474 89.8605L82.4572 83.5659ZM74.246 82.065L73.3171 74.7661L73.3016 74.7681L73.2862 74.7701L74.246 82.065ZM68.4187 84.5372L63.7485 78.8517L63.6976 78.8935L63.6475 78.9362L68.4187 84.5372ZM64.9753 89.1284L58.1767 86.3151L58.1294 86.4293L58.0861 86.5449L64.9753 89.1284ZM63.2095 91.3357L59.2307 85.1465L59.1249 85.2146L59.0214 85.2862L63.2095 91.3357ZM57.647 92.7484L58.0552 85.402L58.0552 85.402L57.647 92.7484ZM54.7334 92.3069L52.6192 99.3543L52.7279 99.3869L52.8376 99.4162L54.7334 92.3069ZM51.908 90.8059L46.9362 96.2297L46.9362 96.2297L51.908 90.8059ZM50.407 88.5103L57.3872 86.1836L57.3872 86.1836L50.407 88.5103ZM50.1422 85.685L57.4495 86.5446L57.4523 86.5211L57.4549 86.4975L50.1422 85.685ZM50.9368 82.5947L57.7403 85.3962L57.7849 85.2879L57.826 85.1782L50.9368 82.5947ZM53.8505 78.2684L48.5468 73.1687L48.5427 73.1729L53.8505 78.2684ZM59.148 74.1186L62.9335 80.4278L62.9592 80.4124L62.9847 80.3968L59.148 74.1186ZM66.2997 70.9401L64.1574 63.9012L64.1357 63.9078L64.114 63.9146L66.2997 70.9401ZM75.0406 69.5274L74.9138 62.1708L74.8385 62.1721L74.7632 62.175L75.0406 69.5274ZM84.7528 70.8518L82.589 77.8842L82.6688 77.9087L82.7491 77.9315L84.7528 70.8518ZM92.8757 74.7367L88.4854 80.641L88.57 80.7039L88.6564 80.7644L92.8757 74.7367ZM98.4382 80.6523L104.776 76.9147V76.9147L98.4382 80.6523ZM97.1138 98.3108L91.5453 93.5016L91.5136 93.5383L91.4825 93.5754L97.1138 98.3108ZM88.2845 103.697L86.3677 96.593L87.3577 110.996L88.2845 103.697ZM96.8489 107.935L91.2428 112.7L91.3069 112.775L91.373 112.849L96.8489 107.935ZM98.1733 124.71L104.72 128.068L104.737 128.034L104.754 128.001L98.1733 124.71ZM93.2289 130.714L88.6132 124.984V124.984L93.2289 130.714ZM85.5475 134.687L83.345 127.667L83.2827 127.687L83.2207 127.707L85.5475 134.687ZM65.5934 135.04L63.7419 142.161L63.7589 142.166L63.776 142.17L65.5934 135.04ZM58.0002 131.95L54.0846 138.18L54.1239 138.204L54.1635 138.228L58.0002 131.95ZM53.2324 127.447L47.0165 131.384L47.0469 131.432L47.078 131.48L53.2324 127.447ZM52.3495 118.53L45.9177 114.957L45.84 115.096L45.7686 115.239L52.3495 118.53ZM54.9983 116.146L58.0176 122.856L58.1545 122.794L58.2887 122.727L54.9983 116.146ZM57.2056 115.351L55.6639 108.157L55.6074 108.169L55.5511 108.182L57.2056 115.351ZM59.5895 115.175L59.0252 122.511L59.0452 122.512L59.0653 122.514L59.5895 115.175ZM61.7968 115.793L58.2735 122.252L58.5085 122.38L58.7521 122.491L61.7968 115.793ZM63.386 117.205L69.7237 113.468L69.6604 113.36L69.5935 113.255L63.386 117.205ZM68.6836 122.15L65.6117 128.836L65.6871 128.87L65.7632 128.903L68.6836 122.15ZM76.365 123.651L76.2179 131.007L76.2915 131.008H76.365V123.651ZM79.985 123.209L78.1125 116.094H78.1125L79.985 123.209ZM82.8987 121.885L87.1753 127.872L87.3122 127.774L87.4444 127.67L82.8987 121.885ZM84.8411 119.589L78.349 116.127L78.349 116.127L84.8411 119.589ZM85.5475 116.587H92.9052V116.446L92.8997 116.305L85.5475 116.587ZM83.0753 112.526L78.4522 118.25L78.572 118.347L78.6958 118.438L83.0753 112.526ZM77.4245 110.407L78.0036 103.072L77.7145 103.049H77.4245V110.407ZM75.3055 110.319L75.7137 102.972H75.7137L75.3055 110.319ZM71.8621 110.142L71.13 117.463L71.3207 117.482L71.5122 117.491L71.8621 110.142ZM68.507 109.877L68.0989 117.223L68.507 109.877ZM66.388 109.789L66.0684 117.14L66.2281 117.147H66.388V109.789ZM63.386 108.111L56.9543 111.684L57.0283 111.818L57.1078 111.948L63.386 108.111ZM63.386 100.96L57.1078 97.1229L57.0756 97.1757L57.0442 97.2291L63.386 100.96ZM66.388 99.1054L67.3396 106.401L67.3478 106.4L66.388 99.1054ZM72.5685 98.5757L73.0136 105.92C74.842 105.809 76.6333 105.672 77.808 105.437L76.365 98.2225L74.9221 91.0077C75.0279 90.9865 74.8866 91.0178 74.2929 91.073C73.7684 91.1218 73.0523 91.1751 72.1234 91.2314L72.5685 98.5757ZM76.365 98.2225L77.0561 105.548C81.1891 105.158 85.2514 103.872 88.5121 101.046L83.6933 95.4854L78.8745 89.9253C78.6035 90.1601 77.7803 90.6986 75.674 90.8973L76.365 98.2225ZM83.6933 95.4854L88.5121 101.046C92.0091 98.0149 93.7718 93.8435 93.4132 89.1821L86.0772 89.7464L78.7412 90.3107C78.7468 90.3842 78.7395 90.3843 78.7479 90.3273C78.7567 90.2673 78.7778 90.1792 78.8189 90.0804C78.8598 89.9819 78.9043 89.9119 78.9313 89.8755C78.9564 89.8418 78.9483 89.8614 78.8745 89.9253L83.6933 95.4854ZM86.0772 89.7464L93.42 89.2777C93.1009 84.2794 90.7064 79.9584 86.2671 77.2714L82.4572 83.5659L78.6474 89.8605C78.7477 89.9212 78.7747 89.952 78.7613 89.9387C78.7456 89.9232 78.7168 89.8892 78.6909 89.845C78.6658 89.8021 78.6667 89.7892 78.6786 89.831C78.6917 89.8766 78.7205 89.9971 78.7344 90.2151L86.0772 89.7464ZM82.4572 83.5659L86.3862 77.3451C82.3908 74.8217 77.8412 74.1903 73.3171 74.7661L74.246 82.065L75.175 89.3638C77.1256 89.1155 78.0502 89.4848 78.5283 89.7868L82.4572 83.5659ZM74.246 82.065L73.2862 74.7701C69.7689 75.2329 66.5211 76.5741 63.7485 78.8517L68.4187 84.5372L73.0889 90.2227C73.6125 89.7926 74.2497 89.4856 75.2059 89.3598L74.246 82.065ZM68.4187 84.5372L63.6475 78.9362C61.2877 80.9463 59.3836 83.3984 58.1767 86.3151L64.9753 89.1284L71.774 91.9416C71.9797 91.4443 72.3712 90.8356 73.1899 90.1382L68.4187 84.5372ZM64.9753 89.1284L58.0861 86.5449C58.1637 86.3378 58.301 86.0684 58.5236 85.7902C58.7475 85.5103 58.9983 85.296 59.2307 85.1465L63.2095 91.3357L67.1882 97.5248C69.3832 96.1137 70.9708 94.095 71.8645 91.7118L64.9753 89.1284ZM63.2095 91.3357L59.0214 85.2862C59.0164 85.2897 58.9836 85.3157 58.8645 85.3455L60.649 92.4835L62.4335 99.6215C64.1979 99.1804 65.8721 98.4412 67.3975 97.3851L63.2095 91.3357ZM60.649 92.4835L58.8645 85.3455C58.7023 85.386 58.4457 85.4237 58.0552 85.402L57.647 92.7484L57.2389 100.095C58.9674 100.191 60.712 100.052 62.4335 99.6215L60.649 92.4835ZM57.647 92.7484L58.0552 85.402C57.4199 85.3667 56.9552 85.2846 56.6292 85.1976L54.7334 92.3069L52.8376 99.4162C54.2774 99.8001 55.7551 100.012 57.2389 100.095L57.647 92.7484ZM54.7334 92.3069L56.8476 85.2595C56.6534 85.2012 56.5814 85.1613 56.596 85.1691C56.614 85.1786 56.7255 85.2407 56.8798 85.3822L51.908 90.8059L46.9362 96.2297C48.6579 97.8079 50.6695 98.7694 52.6192 99.3543L54.7334 92.3069ZM51.908 90.8059L56.8798 85.3822C56.9571 85.453 57.0599 85.565 57.1612 85.7199C57.2631 85.8758 57.3381 86.0364 57.3872 86.1836L50.407 88.5103L43.4269 90.837C44.1286 92.9422 45.3366 94.7633 46.9362 96.2297L51.908 90.8059ZM50.407 88.5103L57.3872 86.1836C57.4202 86.2825 57.4384 86.3771 57.4457 86.455C57.4528 86.5311 57.4471 86.5647 57.4495 86.5446L50.1422 85.685L42.8349 84.8253C42.6015 86.8092 42.7633 88.8462 43.4269 90.837L50.407 88.5103ZM50.1422 85.685L57.4549 86.4975C57.4955 86.1319 57.5861 85.7706 57.7403 85.3962L50.9368 82.5947L44.1333 79.7933C43.4634 81.4201 43.0243 83.119 42.8295 84.8724L50.1422 85.685ZM50.9368 82.5947L57.826 85.1782C57.9045 84.9689 58.2082 84.3535 59.1582 83.3638L53.8505 78.2684L48.5427 73.1729C46.6674 75.1264 45.0286 77.3952 44.0476 80.0113L50.9368 82.5947ZM53.8505 78.2684L59.1541 83.3681C60.1206 82.3629 61.3587 81.3727 62.9335 80.4278L59.148 74.1186L55.3625 67.8095C52.817 69.3368 50.5234 71.1131 48.5468 73.1687L53.8505 78.2684ZM59.148 74.1186L62.9847 80.3968C64.53 79.4525 66.3491 78.6303 68.4854 77.9657L66.2997 70.9401L64.114 63.9146C60.9527 64.8981 58.004 66.1949 55.3113 67.8404L59.148 74.1186ZM66.2997 70.9401L68.442 77.979C70.4855 77.3571 72.7667 76.9762 75.3181 76.8799L75.0406 69.5274L74.7632 62.175C71.0753 62.3141 67.5292 62.875 64.1574 63.9012L66.2997 70.9401ZM75.0406 69.5274L75.1675 76.8841C77.8571 76.8377 80.3176 77.1853 82.589 77.8842L84.7528 70.8518L86.9166 63.8195C83.0665 62.6348 79.0522 62.0995 74.9138 62.1708L75.0406 69.5274ZM84.7528 70.8518L82.7491 77.9315C85.1222 78.6031 86.9964 79.5338 88.4854 80.641L92.8757 74.7367L97.2661 68.8324C94.1639 66.5256 90.6228 64.8664 86.7565 63.7722L84.7528 70.8518ZM92.8757 74.7367L88.6564 80.7644C90.2177 81.8573 91.3219 83.0697 92.1005 84.3899L98.4382 80.6523L104.776 76.9147C102.847 73.6437 100.243 70.9123 97.0951 68.709L92.8757 74.7367ZM98.4382 80.6523L92.1005 84.3899C92.7908 85.5605 93.1112 86.7432 93.1112 88.0689H100.469H107.827C107.827 84.097 106.793 80.3353 104.776 76.9147L98.4382 80.6523ZM100.469 88.0689H93.1112C93.1112 90.9776 92.3714 92.5451 91.5453 93.5016L97.1138 98.3108L102.682 103.12C106.33 98.8966 107.827 93.6362 107.827 88.0689H100.469ZM97.1138 98.3108L91.4825 93.5754C90.399 94.8638 88.8282 95.9291 86.3677 96.593L88.2845 103.697L90.2014 110.8C95.1574 109.463 99.4728 106.938 102.745 103.046L97.1138 98.3108ZM88.2845 103.697L87.3577 110.996C89.6468 111.286 90.6692 112.025 91.2428 112.7L96.8489 107.935L102.455 103.169C99.026 99.1353 94.3388 97.0486 89.2114 96.3975L88.2845 103.697ZM96.8489 107.935L91.373 112.849C91.9489 113.491 92.5814 114.651 92.5814 117.117H99.9391H107.297C107.297 111.931 105.869 106.97 102.325 103.02L96.8489 107.935ZM99.9391 117.117H92.5814C92.5814 118.716 92.2439 120.117 91.5923 121.42L98.1733 124.71L104.754 128.001C106.457 124.595 107.297 120.933 107.297 117.117H99.9391ZM98.1733 124.71L91.6263 121.353C90.945 122.681 89.9741 123.888 88.6132 124.984L93.2289 130.714L97.8446 136.444C100.722 134.126 103.047 131.331 104.72 128.068L98.1733 124.71ZM93.2289 130.714L88.6132 124.984C87.3136 126.031 85.6043 126.958 83.345 127.667L85.5475 134.687L87.7499 141.708C91.4945 140.533 94.9062 138.811 97.8446 136.444L93.2289 130.714ZM85.5475 134.687L83.2207 127.707C81.0625 128.427 78.5634 128.831 75.6587 128.831V136.188V143.546C79.9351 143.546 84.0285 142.949 87.8742 141.667L85.5475 134.687ZM75.6587 136.188V128.831C72.4471 128.831 69.7158 128.498 67.4107 127.911L65.5934 135.04L63.776 142.17C67.4748 143.113 71.4537 143.546 75.6587 143.546V136.188ZM65.5934 135.04L67.4448 127.92C65.0505 127.297 63.219 126.517 61.8369 125.672L58.0002 131.95L54.1635 138.228C57.0194 139.974 60.25 141.254 63.7419 142.161L65.5934 135.04ZM58.0002 131.95L61.9158 125.721C60.5813 124.882 59.8248 124.084 59.3868 123.415L53.2324 127.447L47.078 131.48C48.8767 134.225 51.2988 136.428 54.0846 138.18L58.0002 131.95ZM53.2324 127.447L59.4483 123.511C58.9912 122.789 58.9126 122.313 58.9126 121.973H51.5549H44.1971C44.1971 125.401 45.2368 128.574 47.0165 131.384L53.2324 127.447ZM51.5549 121.973H58.9126C58.9126 121.885 58.9216 121.845 58.9228 121.84C58.9238 121.835 58.9244 121.834 58.9246 121.833C58.9248 121.833 58.9263 121.829 58.9304 121.82L52.3495 118.53L45.7686 115.239C44.7056 117.365 44.1971 119.646 44.1971 121.973H51.5549ZM52.3495 118.53L58.7813 122.103C58.6887 122.27 58.5507 122.45 58.3752 122.608C58.2035 122.763 58.0636 122.835 58.0176 122.856L54.9983 116.146L51.9789 109.436C49.4562 110.571 47.3279 112.418 45.9177 114.957L52.3495 118.53ZM54.9983 116.146L58.2887 122.727C58.4778 122.632 58.6647 122.566 58.86 122.521L57.2056 115.351L55.5511 108.182C54.2161 108.49 52.9314 108.953 51.7078 109.565L54.9983 116.146ZM57.2056 115.351L58.7472 122.546C58.849 122.524 58.92 122.515 58.9631 122.512C59.0057 122.509 59.025 122.511 59.0252 122.511L59.5895 115.175L60.1538 107.839C58.618 107.72 57.1123 107.846 55.6639 108.157L57.2056 115.351ZM59.5895 115.175L59.0653 122.514C58.965 122.507 58.6567 122.461 58.2735 122.252L61.7968 115.793L65.32 109.333C63.6419 108.418 61.862 107.961 60.1137 107.836L59.5895 115.175ZM61.7968 115.793L58.7521 122.491C58.4071 122.334 58.0795 122.122 57.7915 121.866C57.5068 121.613 57.3084 121.359 57.1786 121.156L63.386 117.205L69.5935 113.255C68.479 111.504 66.8904 110.026 64.8414 109.094L61.7968 115.793ZM63.386 117.205L57.0484 120.943C59.0756 124.38 61.919 127.139 65.6117 128.836L68.6836 122.15L71.7554 115.464C71.0924 115.159 70.4041 114.622 69.7237 113.468L63.386 117.205ZM68.6836 122.15L65.7632 128.903C69.0009 130.303 72.5423 130.933 76.2179 131.007L76.365 123.651L76.5122 116.294C74.3016 116.25 72.7221 115.88 71.6039 115.396L68.6836 122.15ZM76.365 123.651V131.008C78.2176 131.008 80.06 130.798 81.8575 130.325L79.985 123.209L78.1125 116.094C77.6733 116.209 77.1024 116.293 76.365 116.293V123.651ZM79.985 123.209L81.8575 130.325C83.7179 129.835 85.5295 129.048 87.1753 127.872L82.8987 121.885L78.6221 115.898C78.6198 115.899 78.4889 115.995 78.1125 116.094L79.985 123.209ZM82.8987 121.885L87.4444 127.67C89.0327 126.422 90.3591 124.878 91.3332 123.052L84.8411 119.589L78.349 116.127C78.3534 116.119 78.3593 116.109 78.3665 116.098C78.3738 116.087 78.3805 116.079 78.3856 116.073C78.3906 116.067 78.3921 116.066 78.3882 116.069C78.3842 116.073 78.3732 116.083 78.3529 116.099L82.8987 121.885ZM84.8411 119.589L91.3332 123.052C92.4367 120.983 92.9052 118.769 92.9052 116.587H85.5475H78.1898C78.1898 116.628 78.1857 116.589 78.2088 116.491C78.2326 116.39 78.2772 116.262 78.349 116.127L84.8411 119.589ZM85.5475 116.587L92.8997 116.305C92.7312 111.924 90.2711 108.7 87.4548 106.614L83.0753 112.526L78.6958 118.438C78.9092 118.596 78.7886 118.559 78.6003 118.25C78.3842 117.895 78.2157 117.402 78.1952 116.87L85.5475 116.587ZM83.0753 112.526L87.6984 106.802C84.8562 104.506 81.5051 103.348 78.0036 103.072L77.4245 110.407L76.8455 117.742C77.8175 117.818 78.2335 118.073 78.4522 118.25L83.0753 112.526ZM77.4245 110.407V103.049C77.4289 103.049 77.3921 103.049 77.2978 103.046C77.2084 103.044 77.0892 103.04 76.9362 103.033C76.6292 103.021 76.2244 103.001 75.7137 102.972L75.3055 110.319L74.8974 117.665C75.9226 117.722 76.833 117.765 77.4245 117.765V110.407ZM75.3055 110.319L75.7137 102.972C74.6319 102.912 73.4645 102.852 72.2121 102.793L71.8621 110.142L71.5122 117.491C72.7319 117.549 73.8601 117.607 74.8974 117.665L75.3055 110.319ZM71.8621 110.142L72.5942 102.821C71.3212 102.693 70.0943 102.596 68.9151 102.531L68.507 109.877L68.0989 117.223C69.0388 117.276 70.0485 117.355 71.13 117.463L71.8621 110.142ZM68.507 109.877L68.9151 102.531C67.8899 102.474 66.9795 102.431 66.388 102.431V109.789V117.147C66.3836 117.147 66.4204 117.147 66.5148 117.149C66.6042 117.152 66.7233 117.156 66.8763 117.162C67.1833 117.175 67.5881 117.195 68.0989 117.223L68.507 109.877ZM66.388 109.789L66.7076 102.438C66.9701 102.449 67.5421 102.528 68.2114 102.902C68.9055 103.29 69.3852 103.818 69.6642 104.275L63.386 108.111L57.1078 111.948C59.1645 115.313 62.5311 116.986 66.0684 117.14L66.388 109.789ZM63.386 108.111L69.8178 104.538C69.8328 104.565 69.8455 104.592 69.8555 104.618C69.8655 104.643 69.8703 104.661 69.872 104.668C69.8736 104.675 69.871 104.666 69.8679 104.639C69.8647 104.611 69.8608 104.563 69.8608 104.491H62.5031H55.1454C55.1454 106.946 55.6899 109.409 56.9543 111.684L63.386 108.111ZM62.5031 104.491H69.8608C69.8608 104.348 69.8763 104.32 69.8619 104.377C69.8547 104.406 69.8414 104.451 69.8184 104.507C69.7953 104.564 69.7653 104.627 69.7279 104.69L63.386 100.96L57.0442 97.2291C55.6869 99.5364 55.1454 102.046 55.1454 104.491H62.5031ZM63.386 100.96L69.6642 104.796C69.42 105.196 69.0261 105.629 68.4886 105.961C67.9702 106.282 67.5316 106.376 67.3396 106.401L66.388 99.1054L65.4363 91.8095C62.1255 92.2414 59.0417 93.9584 57.1078 97.1229L63.386 100.96ZM66.388 99.1054L67.3478 106.4C69.3879 106.132 71.2008 105.98 72.7983 105.93L72.5685 98.5757L72.3386 91.2215C70.169 91.2894 67.8616 91.4904 65.4281 91.8106L66.388 99.1054Z" fill="#E2A003" mask="url(#path-13-outside-1_2944_11382)"/>
<path d="M73.4015 13.3312C74.6972 10.7922 78.325 10.7922 79.6208 13.3312L84.2506 22.4033C84.7579 23.3973 85.7098 24.0889 86.8119 24.2642L96.8707 25.864C99.6858 26.3117 100.807 29.762 98.7926 31.7789L91.5951 38.9856C90.8065 39.7752 90.4429 40.8942 90.6168 41.9966L92.2037 52.0574C92.6478 54.8731 89.7128 57.0055 87.1722 55.713L78.0941 51.0949C77.0994 50.5889 75.9228 50.5888 74.9281 51.0948L65.85 55.713C63.3094 57.0055 60.3744 54.8731 60.8185 52.0574L62.4054 41.9966C62.5793 40.8942 62.2157 39.7752 61.4271 38.9856L54.2296 31.7789C52.2153 29.762 53.3364 26.3117 56.1515 25.864L66.2103 24.2642C67.3125 24.0889 68.2644 23.3973 68.7716 22.4033L73.4015 13.3312Z" fill="url(#paint9_radial_2944_11382)"/>
<path d="M74.9564 16.6199C75.6043 15.3504 77.4182 15.3504 78.0661 16.6199L82.7551 25.8081C83.0087 26.3051 83.4847 26.6509 84.0357 26.7385L94.2232 28.3588C95.6307 28.5826 96.1913 30.3078 95.1841 31.3162L87.8946 38.615C87.5003 39.0098 87.3185 39.5693 87.4055 40.1205L89.0126 50.31C89.2347 51.7179 87.7672 52.7841 86.4969 52.1378L77.3027 47.4606C76.8054 47.2076 76.2171 47.2076 75.7198 47.4606L66.5256 52.1378C65.2553 52.7841 63.7878 51.7179 64.0098 50.31L65.617 40.1205C65.7039 39.5693 65.5221 39.0098 65.1278 38.615L57.8384 31.3162C56.8312 30.3078 57.3918 28.5826 58.7993 28.3588L68.9868 26.7385C69.5378 26.6509 70.0138 26.3051 70.2674 25.8081L74.9564 16.6199Z" fill="url(#paint10_radial_2944_11382)"/>
<path d="M80.2622 27.6057C79.9204 25.4048 82.1498 25.2463 83.3073 25.4422C84.4647 25.6381 87.6183 26.3505 90.9732 27.6326C95.1667 29.2354 94.0047 30.8246 92.9897 31.5458C91.5543 32.5657 89.3704 31.8262 86.7662 31.3854C84.1619 30.9446 80.6895 30.3569 80.2622 27.6057Z" fill="url(#paint11_radial_2944_11382)"/>
<path d="M92.8546 28.8592C92.9249 26.728 93.8834 26.3545 94.3538 26.4341C94.8242 26.5137 96.0884 26.9063 97.3821 27.8396C98.9992 29.0062 98.3526 30.6827 97.8529 31.4911C97.1461 32.6343 96.2947 32.1203 95.2363 31.9412C94.1778 31.762 92.7666 31.5232 92.8546 28.8592Z" fill="url(#paint12_radial_2944_11382)" fill-opacity="0.56"/>
<path d="M63.6099 27.0232C62.9236 25.6705 64.1839 25.0752 64.8999 24.9467C65.6159 24.8181 67.6062 24.5838 69.8397 24.6747C72.6316 24.7884 72.3085 26.0763 71.8785 26.7685C71.2704 27.7473 69.8375 27.7499 68.2266 28.0391C66.6157 28.3283 64.4677 28.714 63.6099 27.0232Z" fill="url(#paint13_radial_2944_11382)" fill-opacity="0.5"/>
<path d="M69.2809 51.2452C68.1598 50.2235 69.1275 49.2203 69.7515 48.8464C70.3754 48.4725 72.1536 47.5481 74.2744 46.8417C76.9254 45.9588 77.0797 47.2776 76.9228 48.0772C76.701 49.208 75.362 49.7181 73.9581 50.5594C72.5541 51.4007 70.6822 52.5224 69.2809 51.2452Z" fill="url(#paint14_radial_2944_11382)" fill-opacity="0.5"/>
<path d="M86.1208 39.7139C87.9902 38.5029 89.0454 40.4733 89.3393 41.6098C89.6332 42.7463 90.2709 45.9159 90.4707 49.5018C90.7204 53.9842 88.7952 53.5726 87.7223 52.9407C86.2051 52.0469 85.9882 49.7515 85.327 47.1943C84.6657 44.6371 83.784 41.2275 86.1208 39.7139Z" fill="url(#paint15_radial_2944_11382)"/>
<path d="M78.3725 18.6219C79.986 17.0864 81.3871 18.8278 81.8859 19.8905C82.3847 20.9531 83.5971 23.9503 84.456 27.4375C85.5297 31.7966 83.5615 31.7479 82.3904 31.325C80.7342 30.727 80.0969 28.5112 78.9746 26.1202C77.8522 23.7292 76.3557 20.5412 78.3725 18.6219Z" fill="url(#paint16_radial_2944_11382)"/>
<path d="M76.3198 7.59863L141.632 55.4237V151.074L76.3198 198.899L11.0072 151.074V55.4237L76.3198 7.59863Z" fill="black" fill-opacity="0.3"/>
<path d="M3 179.149L37.5636 171.434L43.7357 197.974L9.78928 204.763L14.1097 190.258L3 179.149Z" fill="#F3AD06"/>
<path d="M3 179.149L37.5636 171.434L43.7357 197.974L9.78928 204.763L14.1097 190.258L3 179.149Z" fill="black" fill-opacity="0.3"/>
<path d="M149.9 179.149L115.337 171.434L109.165 197.974L143.111 204.763L138.791 190.258L149.9 179.149Z" fill="#F3AD06"/>
<path d="M149.9 179.149L115.337 171.434L109.165 197.974L143.111 204.763L138.791 190.258L149.9 179.149Z" fill="black" fill-opacity="0.3"/>
<path d="M109.161 197.971L111.012 184.393L128.603 187.639L109.161 197.971Z" fill="#DF9D00"/>
<path d="M109.161 197.971L111.012 184.393L128.603 187.639L109.161 197.971Z" fill="black" fill-opacity="0.3"/>
<path d="M133.855 161.864C89.4338 151.19 64.288 151.571 19.0547 161.864L24.6096 187.787C65.225 180.787 87.9934 180.092 128.609 187.787L133.855 161.864Z" fill="#FFB608"/>
<path d="M133.855 161.864C89.4338 151.19 64.288 151.571 19.0547 161.864L24.6096 187.787C65.225 180.787 87.9934 180.092 128.609 187.787L133.855 161.864Z" fill="black" fill-opacity="0.3"/>
<path d="M43.735 197.97L41.8834 185.009L24.6016 187.786L43.735 197.97Z" fill="#DF9D00"/>
<path d="M43.735 197.97L41.8834 185.009L24.6016 187.786L43.735 197.97Z" fill="black" fill-opacity="0.3"/>
<defs>
<linearGradient id="paint0_linear_2944_11382" x1="13.7793" y1="-19.9929" x2="160.933" y2="233.848" gradientUnits="userSpaceOnUse">
<stop stop-color="#FFD900"/>
<stop offset="1" stop-color="#FFA600"/>
</linearGradient>
<linearGradient id="paint1_linear_2944_11382" x1="80.9189" y1="17.7155" x2="341.198" y2="219.133" gradientUnits="userSpaceOnUse">
<stop stop-color="#FFD900"/>
<stop offset="1" stop-color="#FFA600"/>
</linearGradient>
<linearGradient id="paint2_linear_2944_11382" x1="72.6415" y1="187.862" x2="-68.9944" y2="84.854" gradientUnits="userSpaceOnUse">
<stop stop-color="#FFD900"/>
<stop offset="0.576923" stop-color="#FFA600"/>
</linearGradient>
<linearGradient id="paint3_linear_2944_11382" x1="382.585" y1="-117.483" x2="-11.0521" y2="143.715" gradientUnits="userSpaceOnUse">
<stop stop-color="white" stop-opacity="0.4"/>
<stop offset="1" stop-color="white" stop-opacity="0"/>
</linearGradient>
<linearGradient id="paint4_linear_2944_11382" x1="67.1236" y1="248.563" x2="183.927" y2="9.43779" gradientUnits="userSpaceOnUse">
<stop stop-color="white" stop-opacity="0.13"/>
<stop offset="1" stop-color="white" stop-opacity="0"/>
</linearGradient>
<radialGradient id="paint5_radial_2944_11382" cx="0" cy="0" r="1" gradientTransform="matrix(-13.7957 21.1534 -10.4798 -7.30906 125.987 136.358)" gradientUnits="userSpaceOnUse">
<stop stop-color="white" stop-opacity="0.1"/>
<stop offset="1" stop-color="white" stop-opacity="0"/>
</radialGradient>
<radialGradient id="paint6_radial_2944_11382" cx="0" cy="0" r="1" gradientTransform="matrix(25.1908 1.79199 -1.30252 12.7103 71.8671 14.5285)" gradientUnits="userSpaceOnUse">
<stop stop-color="white" stop-opacity="0.1"/>
<stop offset="1" stop-color="white" stop-opacity="0"/>
</radialGradient>
<radialGradient id="paint7_radial_2944_11382" cx="0" cy="0" r="1" gradientTransform="matrix(13.3137 -21.46 10.6425 7.07014 136.578 69.604)" gradientUnits="userSpaceOnUse">
<stop stop-color="white" stop-opacity="0.1"/>
<stop offset="1" stop-color="white" stop-opacity="0"/>
</radialGradient>
<radialGradient id="paint8_radial_2944_11382" cx="0" cy="0" r="1" gradientUnits="userSpaceOnUse" gradientTransform="translate(75.8772 30.5905) scale(27.5914 16.9994)">
<stop stop-color="white" stop-opacity="0.22"/>
<stop offset="1" stop-color="white" stop-opacity="0"/>
</radialGradient>
<radialGradient id="paint9_radial_2944_11382" cx="0" cy="0" r="1" gradientUnits="userSpaceOnUse" gradientTransform="translate(76.5111 35.7489) rotate(90) scale(28.5111)">
<stop stop-color="#FFE86C"/>
<stop offset="1" stop-color="#FF9900"/>
</radialGradient>
<radialGradient id="paint10_radial_2944_11382" cx="0" cy="0" r="1" gradientUnits="userSpaceOnUse" gradientTransform="translate(76.5112 35.7485) rotate(90) scale(22.1753)">
<stop stop-color="#FFF5BC"/>
<stop offset="0.765" stop-color="#FFA800"/>
</radialGradient>
<radialGradient id="paint11_radial_2944_11382" cx="0" cy="0" r="1" gradientUnits="userSpaceOnUse" gradientTransform="translate(87.0553 28.7807) rotate(99.6063) scale(2.66619 7.03148)">
<stop stop-color="white"/>
<stop offset="0.84" stop-color="white" stop-opacity="0"/>
</radialGradient>
<radialGradient id="paint12_radial_2944_11382" cx="0" cy="0" r="1" gradientUnits="userSpaceOnUse" gradientTransform="translate(95.613 29.3513) rotate(99.6063) scale(2.66619 2.85773)">
<stop stop-color="white"/>
<stop offset="0.84" stop-color="white" stop-opacity="0"/>
</radialGradient>
<radialGradient id="paint13_radial_2944_11382" cx="0" cy="0" r="1" gradientUnits="userSpaceOnUse" gradientTransform="translate(67.8175 26.2851) rotate(79.8213) scale(1.83292 4.3571)">
<stop stop-color="white"/>
<stop offset="0.84" stop-color="white" stop-opacity="0"/>
</radialGradient>
<radialGradient id="paint14_radial_2944_11382" cx="0" cy="0" r="1" gradientUnits="userSpaceOnUse" gradientTransform="translate(72.954 49.0641) rotate(59.0688) scale(1.83292 4.3571)">
<stop stop-color="white"/>
<stop offset="0.84" stop-color="white" stop-opacity="0"/>
</radialGradient>
<radialGradient id="paint15_radial_2944_11382" cx="0" cy="0" r="1" gradientUnits="userSpaceOnUse" gradientTransform="translate(87.8226 46.3945) rotate(165.501) scale(2.66619 7.03148)">
<stop stop-color="white"/>
<stop offset="0.84" stop-color="white" stop-opacity="0"/>
</radialGradient>
<radialGradient id="paint16_radial_2944_11382" cx="0" cy="0" r="1" gradientUnits="userSpaceOnUse" gradientTransform="translate(81.2795 24.873) rotate(154.854) scale(2.66619 7.03148)">
<stop stop-color="white"/>
<stop offset="0.84" stop-color="white" stop-opacity="0"/>
</radialGradient>
</defs>
</svg>
