<svg width="154" height="205" viewBox="0 0 154 205" fill="none" xmlns="http://www.w3.org/2000/svg">
<path d="M75.6743 7.37256L140.987 55.1977V150.848L75.6743 198.673L10.3617 150.848V55.1977L75.6743 7.37256Z" fill="#FFD900"/>
<path d="M75.6743 23.9268L129.836 63.4744V142.57L75.6743 182.117L21.5126 142.57V63.4744L75.6743 23.9268Z" fill="url(#paint0_linear_2944_12118)"/>
<path d="M21.4125 63.4757L10.376 55.1982V150.848L21.4125 142.571V63.4757Z" fill="#FFE02D"/>
<path d="M129.937 63.4757L140.974 55.1982V150.848L129.937 142.571V63.4757Z" fill="#FFD900"/>
<path d="M75.6748 23.9274V7.37256L140.974 55.1976L129.938 63.4751L75.6748 23.9274Z" fill="url(#paint1_linear_2944_12118)"/>
<path d="M75.6748 182.117V198.672L10.3752 150.847L21.4117 142.569L75.6748 182.117Z" fill="url(#paint2_linear_2944_12118)"/>
<path d="M109.705 48.7583L21.4121 114.058V142.569L129.938 63.4737L109.705 48.7583Z" fill="url(#paint3_linear_2944_12118)"/>
<path d="M41.6458 157.286L34.2881 151.768L129.938 79.1104V88.3075L41.6458 157.286Z" fill="url(#paint4_linear_2944_12118)"/>
<path d="M129.94 142.569L109.706 157.285C102.559 129.459 120.154 115.34 129.94 112.219L129.94 142.569Z" fill="url(#paint5_radial_2944_12118)"/>
<path d="M74.6178 7.15707L97.3053 17.7026C76.4485 37.4596 55.563 28.9308 48.0835 21.8909L74.6178 7.15707Z" fill="url(#paint6_radial_2944_12118)"/>
<path d="M129.938 63.4751L151.086 47.8775C158.861 75.5342 139.65 88.6435 129.938 91.9855L129.938 63.4751Z" fill="url(#paint7_radial_2944_12118)"/>
<path d="M75.2317 23.9264L96.3847 39.5614C75.5278 59.3184 56.9592 49.3605 49.4797 42.3207L75.2317 23.9264Z" fill="url(#paint8_radial_2944_12118)"/>
<mask id="path-13-outside-1_2944_12118" maskUnits="userSpaceOnUse" x="42.084" y="61.7524" width="66" height="81" fill="black">
<rect fill="white" x="42.084" y="61.7524" width="66" height="81"/>
<path d="M98.3224 130.311C97.4395 131.312 96.3211 131.93 94.9673 132.165C89.4343 132.989 83.5481 133.607 77.3088 134.019C71.0695 134.49 64.7713 134.784 58.4142 134.902C57.4724 134.902 56.6778 134.755 56.0303 134.461C55.3828 134.166 54.8531 133.754 54.441 133.225C54.029 132.754 53.7053 132.165 53.4698 131.459C53.2344 130.811 53.0872 130.134 53.0284 129.428C52.8518 128.074 53.0578 126.868 53.6464 125.808C54.235 124.749 54.9414 123.777 55.7654 122.894C55.942 122.659 56.5012 122.129 57.443 121.305C58.3848 120.422 59.4737 119.392 60.7098 118.215C62.0048 116.979 63.388 115.684 64.8596 114.33C66.39 112.917 67.8321 111.593 69.1859 110.357C70.5397 109.062 71.7169 107.944 72.7176 107.002C73.7771 106.001 74.5129 105.324 74.9249 104.971C77.8091 102.205 80.1636 99.7029 81.9883 97.4662C83.813 95.2294 84.8137 93.1104 84.9902 91.1091C85.2845 88.3426 84.5782 86.1353 82.8712 84.4872C81.1642 82.7802 78.4272 82.015 74.66 82.1916C73.5416 82.2504 72.4233 82.4859 71.3049 82.8979C70.2454 83.3099 69.2447 83.8986 68.303 84.6638C67.3612 85.3701 66.5077 86.2236 65.7425 87.2242C65.0361 88.166 64.5064 89.1961 64.1532 90.3145C63.8589 91.3151 63.3586 92.1392 62.6522 92.7867C61.9459 93.3753 61.1513 93.8462 60.2683 94.1994C59.3854 94.4937 58.4436 94.6702 57.443 94.7291C56.4423 94.7291 55.4711 94.6114 54.5293 94.3759C52.9989 93.905 51.7628 93.1398 50.8211 92.0803C49.8793 91.0208 49.4378 89.7847 49.4967 88.3721C49.6144 86.0764 50.3502 83.8397 51.704 81.6618C53.0578 79.4839 54.8531 77.5415 57.0898 75.8345C59.3854 74.0687 62.0342 72.6266 65.0361 71.5082C68.0969 70.331 71.3638 69.5952 74.8366 69.3009C78.1917 69.0066 81.3997 69.2714 84.4605 70.0955C87.5802 70.8607 90.3172 72.0968 92.6717 73.8038C95.0261 75.4519 96.8803 77.4826 98.2341 79.896C99.6468 82.3093 100.353 84.9581 100.353 87.8423C100.353 91.374 99.6174 94.6702 98.1458 97.7311C96.6743 100.792 94.261 103.941 90.9058 107.178C89.4932 108.532 88.0216 109.915 86.4912 111.328C84.9608 112.741 83.401 114.124 81.8117 115.478C80.2813 116.832 78.7803 118.127 77.3088 119.363C75.8961 120.54 74.6012 121.57 73.4239 122.453C77.4265 122.1 81.2525 121.805 84.9019 121.57C88.5514 121.335 91.9653 121.158 95.1439 121.04C96.4388 120.981 97.4689 121.364 98.2341 122.188C99.0582 123.012 99.4996 124.219 99.5585 125.808C99.6174 127.809 99.2053 129.31 98.3224 130.311Z"/>
</mask>
<path d="M98.3224 130.311C97.4395 131.312 96.3211 131.93 94.9673 132.165C89.4343 132.989 83.5481 133.607 77.3088 134.019C71.0695 134.49 64.7713 134.784 58.4142 134.902C57.4724 134.902 56.6778 134.755 56.0303 134.461C55.3828 134.166 54.8531 133.754 54.441 133.225C54.029 132.754 53.7053 132.165 53.4698 131.459C53.2344 130.811 53.0872 130.134 53.0284 129.428C52.8518 128.074 53.0578 126.868 53.6464 125.808C54.235 124.749 54.9414 123.777 55.7654 122.894C55.942 122.659 56.5012 122.129 57.443 121.305C58.3848 120.422 59.4737 119.392 60.7098 118.215C62.0048 116.979 63.388 115.684 64.8596 114.33C66.39 112.917 67.8321 111.593 69.1859 110.357C70.5397 109.062 71.7169 107.944 72.7176 107.002C73.7771 106.001 74.5129 105.324 74.9249 104.971C77.8091 102.205 80.1636 99.7029 81.9883 97.4662C83.813 95.2294 84.8137 93.1104 84.9902 91.1091C85.2845 88.3426 84.5782 86.1353 82.8712 84.4872C81.1642 82.7802 78.4272 82.015 74.66 82.1916C73.5416 82.2504 72.4233 82.4859 71.3049 82.8979C70.2454 83.3099 69.2447 83.8986 68.303 84.6638C67.3612 85.3701 66.5077 86.2236 65.7425 87.2242C65.0361 88.166 64.5064 89.1961 64.1532 90.3145C63.8589 91.3151 63.3586 92.1392 62.6522 92.7867C61.9459 93.3753 61.1513 93.8462 60.2683 94.1994C59.3854 94.4937 58.4436 94.6702 57.443 94.7291C56.4423 94.7291 55.4711 94.6114 54.5293 94.3759C52.9989 93.905 51.7628 93.1398 50.8211 92.0803C49.8793 91.0208 49.4378 89.7847 49.4967 88.3721C49.6144 86.0764 50.3502 83.8397 51.704 81.6618C53.0578 79.4839 54.8531 77.5415 57.0898 75.8345C59.3854 74.0687 62.0342 72.6266 65.0361 71.5082C68.0969 70.331 71.3638 69.5952 74.8366 69.3009C78.1917 69.0066 81.3997 69.2714 84.4605 70.0955C87.5802 70.8607 90.3172 72.0968 92.6717 73.8038C95.0261 75.4519 96.8803 77.4826 98.2341 79.896C99.6468 82.3093 100.353 84.9581 100.353 87.8423C100.353 91.374 99.6174 94.6702 98.1458 97.7311C96.6743 100.792 94.261 103.941 90.9058 107.178C89.4932 108.532 88.0216 109.915 86.4912 111.328C84.9608 112.741 83.401 114.124 81.8117 115.478C80.2813 116.832 78.7803 118.127 77.3088 119.363C75.8961 120.54 74.6012 121.57 73.4239 122.453C77.4265 122.1 81.2525 121.805 84.9019 121.57C88.5514 121.335 91.9653 121.158 95.1439 121.04C96.4388 120.981 97.4689 121.364 98.2341 122.188C99.0582 123.012 99.4996 124.219 99.5585 125.808C99.6174 127.809 99.2053 129.31 98.3224 130.311Z" fill="white"/>
<path d="M98.3224 130.311L92.8053 125.443L92.8053 125.443L98.3224 130.311ZM94.9673 132.165L96.0512 139.443L96.1397 139.429L96.228 139.414L94.9673 132.165ZM77.3088 134.019L76.824 126.678L76.7895 126.68L76.7551 126.682L77.3088 134.019ZM58.4142 134.902V142.26H58.4823L58.5504 142.259L58.4142 134.902ZM56.0303 134.461L52.9857 141.159H52.9857L56.0303 134.461ZM54.441 133.225L60.2489 128.707L60.1183 128.54L59.9783 128.38L54.441 133.225ZM53.4698 131.459L60.45 129.132L60.4185 129.038L60.3845 128.944L53.4698 131.459ZM53.0284 129.428L60.3607 128.817L60.3464 128.646L60.3243 128.476L53.0284 129.428ZM53.6464 125.808L47.2146 122.235H47.2146L53.6464 125.808ZM55.7654 122.894L61.1443 127.915L61.4142 127.626L61.6516 127.309L55.7654 122.894ZM57.443 121.305L62.2881 126.842L62.3831 126.759L62.4752 126.673L57.443 121.305ZM60.7098 118.215L65.7841 123.543L65.7901 123.537L60.7098 118.215ZM64.8596 114.33L69.8411 119.745L69.8501 119.737L64.8596 114.33ZM69.1859 110.357L74.147 115.79L74.21 115.733L74.2717 115.674L69.1859 110.357ZM72.7176 107.002L77.7603 112.36L77.7696 112.351L72.7176 107.002ZM74.9249 104.971L79.7132 110.557L79.8695 110.423L80.0181 110.281L74.9249 104.971ZM81.9883 97.4662L76.2871 92.8152L81.9883 97.4662ZM84.9902 91.1091L77.6738 90.3308L77.6668 90.3965L77.661 90.4624L84.9902 91.1091ZM82.8712 84.4872L77.6685 89.6899L77.7142 89.7355L77.7606 89.7803L82.8712 84.4872ZM74.66 82.1916L74.3155 74.8419L74.2944 74.8429L74.2733 74.844L74.66 82.1916ZM71.3049 82.8979L68.7613 75.9939L68.6995 76.0166L68.6381 76.0405L71.3049 82.8979ZM68.303 84.6638L72.7176 90.5499L72.8318 90.4642L72.9427 90.3742L68.303 84.6638ZM65.7425 87.2242L59.8978 82.7548L59.8769 82.7821L59.8563 82.8096L65.7425 87.2242ZM64.1532 90.3145L57.137 88.0989L57.1151 88.1684L57.0945 88.2384L64.1532 90.3145ZM62.6522 92.7867L67.3625 98.439L67.496 98.3278L67.624 98.2104L62.6522 92.7867ZM60.2683 94.1994L62.5951 101.179L62.8002 101.111L63.0009 101.031L60.2683 94.1994ZM57.443 94.7291V102.087H57.6592L57.875 102.074L57.443 94.7291ZM54.5293 94.3759L52.3655 101.408L52.5538 101.466L52.7448 101.514L54.5293 94.3759ZM49.4967 88.3721L42.1486 87.9952L42.1468 88.0305L42.1453 88.0657L49.4967 88.3721ZM51.704 81.6618L45.4552 77.7774L45.4552 77.7774L51.704 81.6618ZM57.0898 75.8345L61.5535 81.6835L61.5647 81.675L61.5759 81.6664L57.0898 75.8345ZM65.0361 71.5082L67.6048 78.403L67.6412 78.3894L67.6774 78.3755L65.0361 71.5082ZM74.8366 69.3009L75.4579 76.6323L75.4687 76.6314L75.4795 76.6304L74.8366 69.3009ZM84.4605 70.0955L82.5477 77.2002L82.6275 77.2217L82.7077 77.2414L84.4605 70.0955ZM92.6717 73.8038L88.3529 79.7607L88.4023 79.7965L88.4523 79.8315L92.6717 73.8038ZM98.2341 79.896L91.8171 83.4957L91.8502 83.5546L91.8843 83.6129L98.2341 79.896ZM98.1458 97.7311L104.777 100.919V100.919L98.1458 97.7311ZM90.9058 107.178L95.9967 112.491L96.0057 112.482L96.0148 112.473L90.9058 107.178ZM86.4912 111.328L91.4818 116.735L91.4818 116.735L86.4912 111.328ZM81.8117 115.478L77.0405 109.877L76.9882 109.921L76.9367 109.967L81.8117 115.478ZM77.3088 119.363L82.0191 125.015L82.0302 125.006L82.0412 124.997L77.3088 119.363ZM73.4239 122.453L69.0093 116.567L48.3645 132.05L74.0706 129.782L73.4239 122.453ZM95.1439 121.04L95.4162 128.393L95.4471 128.392L95.478 128.39L95.1439 121.04ZM98.2341 122.188L92.8424 127.195L92.9351 127.294L93.0314 127.391L98.2341 122.188ZM99.5585 125.808L106.913 125.592L106.912 125.564L106.911 125.536L99.5585 125.808ZM98.3224 130.311L92.8053 125.443C92.8967 125.339 93.0514 125.202 93.2626 125.085C93.4713 124.97 93.6387 124.928 93.7066 124.916L94.9673 132.165L96.228 139.414C99.1769 138.901 101.815 137.474 103.839 135.179L98.3224 130.311ZM94.9673 132.165L93.8834 124.888C88.5707 125.679 82.8858 126.277 76.824 126.678L77.3088 134.019L77.7936 141.361C84.2105 140.937 90.2979 140.299 96.0512 139.443L94.9673 132.165ZM77.3088 134.019L76.7551 126.682C70.6569 127.143 64.498 127.431 58.278 127.546L58.4142 134.902L58.5504 142.259C65.0446 142.138 71.482 141.838 77.8625 141.356L77.3088 134.019ZM58.4142 134.902V127.544C58.321 127.544 58.3417 127.537 58.4516 127.557C58.564 127.578 58.7863 127.631 59.0749 127.763L56.0303 134.461L52.9857 141.159C54.846 142.005 56.7464 142.26 58.4142 142.26V134.902ZM56.0303 134.461L59.0749 127.763C59.4447 127.931 59.8862 128.241 60.2489 128.707L54.441 133.225L48.6332 137.742C49.82 139.268 51.3209 140.402 52.9857 141.159L56.0303 134.461ZM54.441 133.225L59.9783 128.38C60.3196 128.77 60.434 129.084 60.45 129.132L53.4698 131.459L46.4897 133.785C46.9765 135.246 47.7384 136.738 48.9038 138.07L54.441 133.225ZM53.4698 131.459L60.3845 128.944C60.3784 128.928 60.3669 128.892 60.3607 128.817L53.0284 129.428L45.6961 130.039C45.8075 131.377 46.0903 132.695 46.5551 133.973L53.4698 131.459ZM53.0284 129.428L60.3243 128.476C60.3201 128.445 60.3371 128.548 60.3032 128.746C60.2678 128.953 60.1915 129.177 60.0782 129.381L53.6464 125.808L47.2146 122.235C45.7657 124.843 45.3791 127.671 45.7325 130.38L53.0284 129.428ZM53.6464 125.808L60.0782 129.381C60.3771 128.843 60.7303 128.358 61.1443 127.915L55.7654 122.894L50.3865 117.874C49.1525 119.196 48.093 120.654 47.2146 122.235L53.6464 125.808ZM55.7654 122.894L61.6516 127.309C61.5225 127.481 61.418 127.602 61.3705 127.656C61.3171 127.717 61.2815 127.754 61.2733 127.762C61.2595 127.777 61.2873 127.747 61.3775 127.662C61.5571 127.492 61.8513 127.225 62.2881 126.842L57.443 121.305L52.5979 115.768C52.0929 116.21 51.6366 116.62 51.257 116.979C51.0073 117.216 50.3898 117.799 49.8793 118.48L55.7654 122.894ZM57.443 121.305L62.4752 126.673C63.4347 125.773 64.5382 124.729 65.7841 123.543L60.7098 118.215L55.6355 112.887C54.4093 114.055 53.3348 115.071 52.4107 115.937L57.443 121.305ZM60.7098 118.215L65.7901 123.537C67.0489 122.336 68.399 121.072 69.8411 119.745L64.8596 114.33L59.878 108.915C58.377 110.296 56.9606 111.622 55.6295 112.893L60.7098 118.215ZM64.8596 114.33L69.8501 119.737C71.372 118.332 72.8042 117.016 74.147 115.79L69.1859 110.357L64.2248 104.923C62.8599 106.17 61.4079 107.503 59.869 108.924L64.8596 114.33ZM69.1859 110.357L74.2717 115.674C75.6159 114.388 76.7782 113.284 77.7603 112.36L72.7176 107.002L67.6749 101.644C66.6557 102.603 65.4635 103.736 64.1001 105.04L69.1859 110.357ZM72.7176 107.002L77.7696 112.351C78.8397 111.34 79.4543 110.779 79.7132 110.557L74.9249 104.971L70.1366 99.3847C69.5714 99.8691 68.7144 100.662 67.6656 101.653L72.7176 107.002ZM74.9249 104.971L80.0181 110.281C83.0428 107.38 85.6195 104.655 87.6895 102.117L81.9883 97.4662L76.2871 92.8152C74.7077 94.7512 72.5755 97.0293 69.8317 99.6611L74.9249 104.971ZM81.9883 97.4662L87.6895 102.117C90.0568 99.2153 91.9682 95.7367 92.3195 91.7558L84.9902 91.1091L77.661 90.4624C77.6591 90.4841 77.5692 91.2435 76.2871 92.8152L81.9883 97.4662ZM84.9902 91.1091L92.3067 91.8875C92.7944 87.3029 91.6131 82.7001 87.9818 79.194L82.8712 84.4872L77.7606 89.7803C77.7756 89.7948 77.7565 89.7787 77.7272 89.732C77.6975 89.6845 77.6802 89.6419 77.6736 89.6212C77.6589 89.5753 77.734 89.7648 77.6738 90.3308L84.9902 91.1091ZM82.8712 84.4872L88.0739 79.2845C84.2505 75.4611 79.0042 74.6222 74.3155 74.8419L74.66 82.1916L75.0045 89.5412C76.3442 89.4784 77.1461 89.6041 77.5571 89.719C77.9247 89.8218 77.8561 89.8774 77.6685 89.6899L82.8712 84.4872ZM74.66 82.1916L74.2733 74.844C72.3719 74.9441 70.5278 75.3431 68.7613 75.9939L71.3049 82.8979L73.8485 89.802C74.3187 89.6287 74.7114 89.5568 75.0467 89.5391L74.66 82.1916ZM71.3049 82.8979L68.6381 76.0405C66.8187 76.7481 65.1589 77.7381 63.6632 78.9534L68.303 84.6638L72.9427 90.3742C73.3306 90.059 73.6721 89.8718 73.9717 89.7553L71.3049 82.8979ZM68.303 84.6638L63.8883 78.7776C62.3708 79.9157 61.044 81.256 59.8978 82.7548L65.7425 87.2242L71.5871 91.6937C71.9714 91.1912 72.3515 90.8245 72.7176 90.5499L68.303 84.6638ZM65.7425 87.2242L59.8563 82.8096C58.6539 84.4129 57.7411 86.186 57.137 88.0989L64.1532 90.3145L71.1694 92.5301C71.2717 92.2063 71.4184 91.9192 71.6286 91.6389L65.7425 87.2242ZM64.1532 90.3145L57.0945 88.2384C57.1126 88.1767 57.1614 88.0401 57.268 87.8645C57.3766 87.6856 57.5176 87.5122 57.6805 87.3629L62.6522 92.7867L67.624 98.2104C69.4044 96.5784 70.5743 94.5586 71.2119 92.3906L64.1532 90.3145ZM62.6522 92.7867L57.942 87.1343C57.8491 87.2117 57.7265 87.2916 57.5358 87.3679L60.2683 94.1994L63.0009 101.031C64.5761 100.401 66.0427 99.5389 67.3625 98.439L62.6522 92.7867ZM60.2683 94.1994L57.9416 87.2192C57.7167 87.2942 57.4161 87.3603 57.0109 87.3841L57.443 94.7291L57.875 102.074C59.4712 101.98 61.0541 101.693 62.5951 101.179L60.2683 94.1994ZM57.443 94.7291V87.3714C57.0253 87.3714 56.6543 87.323 56.3138 87.2379L54.5293 94.3759L52.7448 101.514C54.288 101.9 55.8593 102.087 57.443 102.087V94.7291ZM54.5293 94.3759L56.6931 87.3436C56.4683 87.2744 56.3602 87.2133 56.3272 87.1929C56.2991 87.1754 56.306 87.1761 56.3203 87.1921L50.8211 92.0803L45.3218 96.9685C47.2699 99.1602 49.7188 100.594 52.3655 101.408L54.5293 94.3759ZM50.8211 92.0803L56.3203 87.1921C56.4258 87.3109 56.5914 87.5443 56.7127 87.884C56.8341 88.224 56.8549 88.5128 56.848 88.6784L49.4967 88.3721L42.1453 88.0657C42.0068 91.3901 43.1163 94.4873 45.3218 96.9685L50.8211 92.0803ZM49.4967 88.3721L56.8447 88.7489C56.8916 87.8354 57.1788 86.7913 57.9528 85.5462L51.704 81.6618L45.4552 77.7774C43.5215 80.8881 42.3372 84.3175 42.1486 87.9952L49.4967 88.3721ZM51.704 81.6618L57.9528 85.5462C58.7919 84.1964 59.957 82.9019 61.5535 81.6835L57.0898 75.8345L52.6261 69.9855C49.7491 72.1811 47.3237 74.7715 45.4552 77.7774L51.704 81.6618ZM57.0898 75.8345L61.5759 81.6664C63.2308 80.3934 65.2191 79.2917 67.6048 78.403L65.0361 71.5082L62.4675 64.6134C58.8493 65.9614 55.54 67.744 52.6037 70.0026L57.0898 75.8345ZM65.0361 71.5082L67.6774 78.3755C70.0507 77.4627 72.6335 76.8717 75.4579 76.6323L74.8366 69.3009L74.2153 61.9695C70.094 62.3187 66.1432 63.1993 62.3949 64.6409L65.0361 71.5082ZM74.8366 69.3009L75.4795 76.6304C78.0302 76.4067 80.3699 76.6139 82.5477 77.2002L84.4605 70.0955L86.3733 62.9908C82.4295 61.929 78.3532 61.6064 74.1937 61.9713L74.8366 69.3009ZM84.4605 70.0955L82.7077 77.2414C85 77.8037 86.8456 78.6679 88.3529 79.7607L92.6717 73.8038L96.9904 67.8469C93.7888 65.5257 90.1603 63.9178 86.2132 62.9496L84.4605 70.0955ZM92.6717 73.8038L88.4523 79.8315C89.9371 80.8708 91.0253 82.0841 91.8171 83.4957L98.2341 79.896L104.651 76.2962C102.735 72.8812 100.115 70.033 96.891 67.7761L92.6717 73.8038ZM98.2341 79.896L91.8843 83.6129C92.6156 84.8622 92.9954 86.2216 92.9954 87.8423H100.353H107.711C107.711 83.6945 106.678 79.7564 104.584 76.179L98.2341 79.896ZM100.353 87.8423H92.9954C92.9954 90.3156 92.4887 92.517 91.5147 94.543L98.1458 97.7311L104.777 100.919C106.746 96.8235 107.711 92.4324 107.711 87.8423H100.353ZM98.1458 97.7311L91.5147 94.543C90.5336 96.5835 88.7416 99.0422 85.7969 101.884L90.9058 107.178L96.0148 112.473C99.7803 108.84 102.815 105 104.777 100.919L98.1458 97.7311ZM90.9058 107.178L85.815 101.866C84.4375 103.186 82.9995 104.538 81.5006 105.922L86.4912 111.328L91.4818 116.735C93.0438 115.293 94.5488 113.878 95.9967 112.491L90.9058 107.178ZM86.4912 111.328L81.5006 105.922C80.0422 107.268 78.5555 108.586 77.0405 109.877L81.8117 115.478L86.5829 121.079C88.2464 119.662 89.8794 118.214 91.4818 116.735L86.4912 111.328ZM81.8117 115.478L76.9367 109.967C75.4504 111.282 73.997 112.536 72.5764 113.729L77.3088 119.363L82.0412 124.997C83.5637 123.718 85.1122 122.382 86.6867 120.989L81.8117 115.478ZM77.3088 119.363L72.5985 113.71C71.2597 114.826 70.0649 115.775 69.0093 116.567L73.4239 122.453L77.8385 128.339C79.1374 127.365 80.5325 126.254 82.0191 125.015L77.3088 119.363ZM73.4239 122.453L74.0706 129.782C78.0212 129.434 81.7892 129.144 85.3757 128.912L84.9019 121.57L84.4282 114.228C80.7158 114.467 76.8319 114.766 72.7772 115.124L73.4239 122.453ZM84.9019 121.57L85.3757 128.912C88.9677 128.681 92.3139 128.508 95.4162 128.393L95.1439 121.04L94.8716 113.688C91.6168 113.808 88.1351 113.988 84.4282 114.228L84.9019 121.57ZM95.1439 121.04L95.478 128.39C95.314 128.398 94.8867 128.389 94.3258 128.18C93.7369 127.962 93.2234 127.605 92.8424 127.195L98.2341 122.188L103.626 117.182C101.156 114.522 97.8975 113.55 94.8098 113.69L95.1439 121.04ZM98.2341 122.188L93.0314 127.391C92.612 126.971 92.3824 126.537 92.2735 126.239C92.175 125.97 92.1984 125.881 92.2058 126.08L99.5585 125.808L106.911 125.536C106.809 122.776 105.99 119.538 103.437 116.985L98.2341 122.188ZM99.5585 125.808L92.204 126.024C92.2177 126.492 92.1649 126.609 92.1984 126.487C92.2399 126.336 92.3913 125.912 92.8053 125.443L98.3224 130.311L103.839 135.179C106.453 132.217 107 128.546 106.913 125.592L99.5585 125.808Z" fill="#E2A003" mask="url(#path-13-outside-1_2944_12118)"/>
<path d="M3.25781 179.374L37.8221 171.659L43.9943 198.2L10.0472 204.989L14.3678 190.484L3.25781 179.374Z" fill="#F3AD06"/>
<path d="M150.161 179.374L115.597 171.659L109.425 198.2L143.372 204.989L139.051 190.484L150.161 179.374Z" fill="#F3AD06"/>
<path d="M109.421 198.197L111.273 184.618L128.863 187.865L109.421 198.197Z" fill="#DF9D00"/>
<path d="M134.115 162.09C89.693 151.416 64.5466 151.797 19.3125 162.09L24.8675 188.013C65.4837 181.013 88.2525 180.318 128.869 188.013L134.115 162.09Z" fill="#FFB608"/>
<path d="M43.9932 198.197L42.1415 185.235L24.8594 188.013L43.9932 198.197Z" fill="#DF9D00"/>
<path d="M73.4854 6.1085C74.7812 3.56954 78.409 3.56954 79.7047 6.1085L84.3346 15.1807C84.8418 16.1747 85.7937 16.8663 86.8959 17.0416L96.9547 18.6413C99.7698 19.089 100.891 22.5393 98.8766 24.5562L91.6791 31.7629C90.8905 32.5525 90.5269 33.6716 90.7008 34.7739L92.2877 44.8348C92.7318 47.6504 89.7968 49.7828 87.2562 48.4904L78.1781 43.8722C77.1834 43.3662 76.0068 43.3662 75.0121 43.8722L65.934 48.4904C63.3934 49.7828 60.4584 47.6504 60.9025 44.8348L62.4894 34.7739C62.6633 33.6716 62.2997 32.5525 61.5111 31.7629L54.3136 24.5562C52.2993 22.5393 53.4204 19.0891 56.2355 18.6413L66.2943 17.0416C67.3964 16.8663 68.3483 16.1747 68.8556 15.1807L73.4854 6.1085Z" fill="url(#paint9_radial_2944_12118)"/>
<path d="M75.0404 9.39726C75.6883 8.12778 77.5022 8.12779 78.1501 9.39727L82.8391 18.5854C83.0927 19.0824 83.5687 19.4282 84.1197 19.5159L94.3072 21.1361C95.7147 21.36 96.2752 23.0851 95.2681 24.0935L87.9786 31.3924C87.5843 31.7872 87.4025 32.3467 87.4895 32.8979L89.0966 43.0874C89.3187 44.4952 87.8512 45.5614 86.5809 44.9152L77.3867 40.2379C76.8894 39.9849 76.3011 39.9849 75.8037 40.2379L66.6096 44.9152C65.3393 45.5614 63.8718 44.4952 64.0938 43.0874L65.701 32.8979C65.7879 32.3467 65.6061 31.7872 65.2118 31.3924L57.9224 24.0935C56.9152 23.0851 57.4757 21.36 58.8833 21.1361L69.0707 19.5159C69.6218 19.4282 70.0977 19.0824 70.3514 18.5854L75.0404 9.39726Z" fill="url(#paint10_radial_2944_12118)"/>
<path d="M80.3462 20.3831C80.0044 18.1821 82.2338 18.0237 83.3913 18.2196C84.5487 18.4155 87.7023 19.1278 91.0571 20.41C95.2507 22.0127 94.0887 23.602 93.0737 24.3231C91.6383 25.343 89.4544 24.6035 86.8502 24.1627C84.2459 23.722 80.7735 23.1343 80.3462 20.3831Z" fill="url(#paint11_radial_2944_12118)"/>
<path d="M92.9386 21.6365C93.0089 19.5054 93.9673 19.1318 94.4378 19.2114C94.9082 19.291 96.1724 19.6836 97.4661 20.6169C99.0832 21.7836 98.4366 23.46 97.9368 24.2684C97.2301 25.4116 96.3787 24.8977 95.3203 24.7185C94.2618 24.5394 92.8506 24.3005 92.9386 21.6365Z" fill="url(#paint12_radial_2944_12118)" fill-opacity="0.56"/>
<path d="M63.6938 19.8005C63.0075 18.4478 64.2679 17.8526 64.9839 17.724C65.6999 17.5955 67.6902 17.3611 69.9237 17.4521C72.7156 17.5658 72.3925 18.8537 71.9625 19.5458C71.3544 20.5247 69.9215 20.5272 68.3106 20.8164C66.6996 21.1057 64.5517 21.4913 63.6938 19.8005Z" fill="url(#paint13_radial_2944_12118)" fill-opacity="0.5"/>
<path d="M69.3649 44.0226C68.2438 43.0008 69.2115 41.9976 69.8354 41.6237C70.4594 41.2498 72.2376 40.3254 74.3584 39.6191C77.0094 38.7361 77.1637 40.0549 77.0068 40.8546C76.7849 41.9854 75.446 42.4955 74.042 43.3367C72.6381 44.178 70.7662 45.2997 69.3649 44.0226Z" fill="url(#paint14_radial_2944_12118)" fill-opacity="0.5"/>
<path d="M86.2048 32.4912C88.0742 31.2803 89.1293 33.2506 89.4232 34.3871C89.7171 35.5237 90.3549 38.6932 90.5546 42.2791C90.8044 46.7615 88.8791 46.35 87.8063 45.718C86.2891 44.8243 86.0722 42.5288 85.411 39.9716C84.7497 37.4145 83.868 34.0049 86.2048 32.4912Z" fill="url(#paint15_radial_2944_12118)"/>
<path d="M78.4565 11.3992C80.07 9.86373 81.4711 11.6052 81.9699 12.6678C82.4687 13.7305 83.6811 16.7276 84.54 20.2149C85.6136 24.574 83.6455 24.5252 82.4744 24.1024C80.8182 23.5043 80.1809 21.2885 79.0585 18.8975C77.9362 16.5066 76.4397 13.3186 78.4565 11.3992Z" fill="url(#paint16_radial_2944_12118)"/>
<defs>
<linearGradient id="paint0_linear_2944_12118" x1="13.1338" y1="-20.2195" x2="160.288" y2="233.621" gradientUnits="userSpaceOnUse">
<stop stop-color="#FFD900"/>
<stop offset="1" stop-color="#FFA600"/>
</linearGradient>
<linearGradient id="paint1_linear_2944_12118" x1="80.2734" y1="17.4894" x2="340.552" y2="218.907" gradientUnits="userSpaceOnUse">
<stop stop-color="#FFD900"/>
<stop offset="1" stop-color="#FFA600"/>
</linearGradient>
<linearGradient id="paint2_linear_2944_12118" x1="71.9959" y1="187.635" x2="-69.6399" y2="84.6274" gradientUnits="userSpaceOnUse">
<stop stop-color="#FFD900"/>
<stop offset="0.576923" stop-color="#FFA600"/>
</linearGradient>
<linearGradient id="paint3_linear_2944_12118" x1="381.94" y1="-117.71" x2="-11.6976" y2="143.489" gradientUnits="userSpaceOnUse">
<stop stop-color="white" stop-opacity="0.4"/>
<stop offset="1" stop-color="white" stop-opacity="0"/>
</linearGradient>
<linearGradient id="paint4_linear_2944_12118" x1="66.4781" y1="248.338" x2="183.282" y2="9.2122" gradientUnits="userSpaceOnUse">
<stop stop-color="white" stop-opacity="0.13"/>
<stop offset="1" stop-color="white" stop-opacity="0"/>
</linearGradient>
<radialGradient id="paint5_radial_2944_12118" cx="0" cy="0" r="1" gradientTransform="matrix(-13.7957 21.1534 -10.4798 -7.30906 125.341 136.131)" gradientUnits="userSpaceOnUse">
<stop stop-color="white" stop-opacity="0.1"/>
<stop offset="1" stop-color="white" stop-opacity="0"/>
</radialGradient>
<radialGradient id="paint6_radial_2944_12118" cx="0" cy="0" r="1" gradientTransform="matrix(25.1908 1.79199 -1.30252 12.7103 71.2216 14.3025)" gradientUnits="userSpaceOnUse">
<stop stop-color="white" stop-opacity="0.1"/>
<stop offset="1" stop-color="white" stop-opacity="0"/>
</radialGradient>
<radialGradient id="paint7_radial_2944_12118" cx="0" cy="0" r="1" gradientTransform="matrix(13.3137 -21.46 10.6425 7.07014 135.933 69.3784)" gradientUnits="userSpaceOnUse">
<stop stop-color="white" stop-opacity="0.1"/>
<stop offset="1" stop-color="white" stop-opacity="0"/>
</radialGradient>
<radialGradient id="paint8_radial_2944_12118" cx="0" cy="0" r="1" gradientUnits="userSpaceOnUse" gradientTransform="translate(75.2317 30.3644) scale(27.5914 16.9994)">
<stop stop-color="white" stop-opacity="0.22"/>
<stop offset="1" stop-color="white" stop-opacity="0"/>
</radialGradient>
<radialGradient id="paint9_radial_2944_12118" cx="0" cy="0" r="1" gradientUnits="userSpaceOnUse" gradientTransform="translate(76.5951 28.5262) rotate(90) scale(28.5111)">
<stop stop-color="#FFE86C"/>
<stop offset="1" stop-color="#FF9900"/>
</radialGradient>
<radialGradient id="paint10_radial_2944_12118" cx="0" cy="0" r="1" gradientUnits="userSpaceOnUse" gradientTransform="translate(76.5952 28.5259) rotate(90) scale(22.1753)">
<stop stop-color="#FFF5BC"/>
<stop offset="0.765" stop-color="#FFA800"/>
</radialGradient>
<radialGradient id="paint11_radial_2944_12118" cx="0" cy="0" r="1" gradientUnits="userSpaceOnUse" gradientTransform="translate(87.1393 21.5581) rotate(99.6063) scale(2.66619 7.03148)">
<stop stop-color="white"/>
<stop offset="0.84" stop-color="white" stop-opacity="0"/>
</radialGradient>
<radialGradient id="paint12_radial_2944_12118" cx="0" cy="0" r="1" gradientUnits="userSpaceOnUse" gradientTransform="translate(95.6969 22.1286) rotate(99.6063) scale(2.66619 2.85773)">
<stop stop-color="white"/>
<stop offset="0.84" stop-color="white" stop-opacity="0"/>
</radialGradient>
<radialGradient id="paint13_radial_2944_12118" cx="0" cy="0" r="1" gradientUnits="userSpaceOnUse" gradientTransform="translate(67.9015 19.0624) rotate(79.8213) scale(1.83292 4.3571)">
<stop stop-color="white"/>
<stop offset="0.84" stop-color="white" stop-opacity="0"/>
</radialGradient>
<radialGradient id="paint14_radial_2944_12118" cx="0" cy="0" r="1" gradientUnits="userSpaceOnUse" gradientTransform="translate(73.038 41.8415) rotate(59.0688) scale(1.83292 4.3571)">
<stop stop-color="white"/>
<stop offset="0.84" stop-color="white" stop-opacity="0"/>
</radialGradient>
<radialGradient id="paint15_radial_2944_12118" cx="0" cy="0" r="1" gradientUnits="userSpaceOnUse" gradientTransform="translate(87.9066 39.1718) rotate(165.501) scale(2.66619 7.03148)">
<stop stop-color="white"/>
<stop offset="0.84" stop-color="white" stop-opacity="0"/>
</radialGradient>
<radialGradient id="paint16_radial_2944_12118" cx="0" cy="0" r="1" gradientUnits="userSpaceOnUse" gradientTransform="translate(81.3635 17.6504) rotate(154.854) scale(2.66619 7.03148)">
<stop stop-color="white"/>
<stop offset="0.84" stop-color="white" stop-opacity="0"/>
</radialGradient>
</defs>
</svg>
