<svg width="155" height="206" viewBox="0 0 155 206" fill="none" xmlns="http://www.w3.org/2000/svg">
<path d="M76.4018 7.79199L141.714 55.6171V151.267L76.4018 199.092L11.0892 151.267V55.6171L76.4018 7.79199Z" fill="#FFD900"/>
<path d="M76.4018 24.3462L130.563 63.8939V142.989L76.4018 182.537L22.2402 142.989V63.8939L76.4018 24.3462Z" fill="url(#paint0_linear_3576_7609)"/>
<path d="M22.1401 63.8951L11.1035 55.6177V151.268L22.1401 142.99V63.8951Z" fill="#FFE02D"/>
<path d="M130.665 63.8951L141.701 55.6177V151.268L130.665 142.99V63.8951Z" fill="#FFD900"/>
<path d="M76.4023 24.3468V7.79199L141.702 55.6171L130.665 63.8945L76.4023 24.3468Z" fill="url(#paint1_linear_3576_7609)"/>
<path d="M76.4023 182.536V199.091L11.1027 151.266L22.1393 142.989L76.4023 182.536Z" fill="url(#paint2_linear_3576_7609)"/>
<path d="M110.432 49.1777L22.1396 114.477V142.988L130.666 63.8931L110.432 49.1777Z" fill="url(#paint3_linear_3576_7609)"/>
<path d="M42.3733 157.705L35.0156 152.187L130.666 79.5298V88.7269L42.3733 157.705Z" fill="url(#paint4_linear_3576_7609)"/>
<path d="M130.667 142.989L110.434 157.704C103.286 129.879 120.882 115.76 130.667 112.638L130.667 142.989Z" fill="url(#paint5_radial_3576_7609)"/>
<path d="M75.3454 7.5765L98.0329 18.122C77.176 37.8791 56.2905 29.3502 48.8111 22.3104L75.3454 7.5765Z" fill="url(#paint6_radial_3576_7609)"/>
<path d="M130.665 63.8941L151.813 48.2965C159.589 75.9532 140.378 89.0624 130.665 92.4044L130.665 63.8941Z" fill="url(#paint7_radial_3576_7609)"/>
<path d="M75.9592 24.3459L97.1122 39.9808C76.2554 59.7379 57.6867 49.7799 50.2073 42.7401L75.9592 24.3459Z" fill="url(#paint8_radial_3576_7609)"/>
<mask id="path-13-outside-1_3576_7609" maskUnits="userSpaceOnUse" x="42.8115" y="62.1719" width="66" height="81" fill="black">
<rect fill="white" x="42.8115" y="62.1719" width="66" height="81"/>
<path d="M99.0499 130.73C98.167 131.731 97.0486 132.349 95.6948 132.585C90.1618 133.409 84.2757 134.027 78.0363 134.439C71.797 134.91 65.4988 135.204 59.1417 135.322C58.2 135.322 57.4053 135.174 56.7578 134.88C56.1104 134.586 55.5806 134.174 55.1686 133.644C54.7566 133.173 54.4328 132.585 54.1974 131.878C53.9619 131.231 53.8148 130.554 53.7559 129.847C53.5793 128.494 53.7853 127.287 54.3739 126.227C54.9626 125.168 55.6689 124.197 56.493 123.314C56.6696 123.078 57.2287 122.549 58.1705 121.725C59.1123 120.842 60.2013 119.812 61.4373 118.634C62.7323 117.398 64.1156 116.103 65.5871 114.749C67.1175 113.337 68.5596 112.012 69.9134 110.776C71.2672 109.481 72.4445 108.363 73.4451 107.421C74.5046 106.421 75.2404 105.744 75.6524 105.39C78.5367 102.624 80.8911 100.122 82.7158 97.8856C84.5405 95.6489 85.5412 93.5298 85.7178 91.5286C86.0121 88.7621 85.3057 86.5547 83.5988 84.9066C81.8918 83.1996 79.1547 82.4344 75.3876 82.611C74.2692 82.6699 73.1508 82.9053 72.0324 83.3173C70.9729 83.7294 69.9723 84.318 69.0305 85.0832C68.0887 85.7895 67.2352 86.643 66.47 87.6437C65.7637 88.5855 65.2339 89.6155 64.8808 90.7339C64.5864 91.7346 64.0861 92.5586 63.3798 93.2061C62.6734 93.7947 61.8788 94.2656 60.9959 94.6188C60.113 94.9131 59.1712 95.0897 58.1705 95.1485C57.1699 95.1485 56.1987 95.0308 55.2569 94.7954C53.7265 94.3245 52.4904 93.5593 51.5486 92.4998C50.6068 91.4403 50.1653 90.2042 50.2242 88.7915C50.3419 86.4959 51.0777 84.2591 52.4315 82.0813C53.7853 79.9034 55.5806 77.9609 57.8174 76.254C60.113 74.4881 62.7617 73.046 65.7637 71.9276C68.8245 70.7504 72.0913 70.0146 75.5641 69.7203C78.9193 69.426 82.1272 69.6909 85.188 70.5149C88.3077 71.2801 91.0448 72.5162 93.3992 74.2232C95.7537 75.8714 97.6078 77.9021 98.9616 80.3154C100.374 82.7287 101.081 85.3775 101.081 88.2617C101.081 91.7934 100.345 95.0897 98.8734 98.1505C97.4018 101.211 94.9885 104.36 91.6334 107.598C90.2207 108.952 88.7492 110.335 87.2188 111.748C85.6883 113.16 84.1285 114.543 82.5393 115.897C81.0088 117.251 79.5079 118.546 78.0363 119.782C76.6237 120.959 75.3287 121.989 74.1515 122.872C78.1541 122.519 81.9801 122.225 85.6295 121.989C89.2789 121.754 92.6929 121.577 95.8714 121.46C97.1664 121.401 98.1964 121.783 98.9616 122.608C99.7857 123.432 100.227 124.638 100.286 126.227C100.345 128.229 99.9329 129.73 99.0499 130.73Z"/>
</mask>
<path d="M99.0499 130.73C98.167 131.731 97.0486 132.349 95.6948 132.585C90.1618 133.409 84.2757 134.027 78.0363 134.439C71.797 134.91 65.4988 135.204 59.1417 135.322C58.2 135.322 57.4053 135.174 56.7578 134.88C56.1104 134.586 55.5806 134.174 55.1686 133.644C54.7566 133.173 54.4328 132.585 54.1974 131.878C53.9619 131.231 53.8148 130.554 53.7559 129.847C53.5793 128.494 53.7853 127.287 54.3739 126.227C54.9626 125.168 55.6689 124.197 56.493 123.314C56.6696 123.078 57.2287 122.549 58.1705 121.725C59.1123 120.842 60.2013 119.812 61.4373 118.634C62.7323 117.398 64.1156 116.103 65.5871 114.749C67.1175 113.337 68.5596 112.012 69.9134 110.776C71.2672 109.481 72.4445 108.363 73.4451 107.421C74.5046 106.421 75.2404 105.744 75.6524 105.39C78.5367 102.624 80.8911 100.122 82.7158 97.8856C84.5405 95.6489 85.5412 93.5298 85.7178 91.5286C86.0121 88.7621 85.3057 86.5547 83.5988 84.9066C81.8918 83.1996 79.1547 82.4344 75.3876 82.611C74.2692 82.6699 73.1508 82.9053 72.0324 83.3173C70.9729 83.7294 69.9723 84.318 69.0305 85.0832C68.0887 85.7895 67.2352 86.643 66.47 87.6437C65.7637 88.5855 65.2339 89.6155 64.8808 90.7339C64.5864 91.7346 64.0861 92.5586 63.3798 93.2061C62.6734 93.7947 61.8788 94.2656 60.9959 94.6188C60.113 94.9131 59.1712 95.0897 58.1705 95.1485C57.1699 95.1485 56.1987 95.0308 55.2569 94.7954C53.7265 94.3245 52.4904 93.5593 51.5486 92.4998C50.6068 91.4403 50.1653 90.2042 50.2242 88.7915C50.3419 86.4959 51.0777 84.2591 52.4315 82.0813C53.7853 79.9034 55.5806 77.9609 57.8174 76.254C60.113 74.4881 62.7617 73.046 65.7637 71.9276C68.8245 70.7504 72.0913 70.0146 75.5641 69.7203C78.9193 69.426 82.1272 69.6909 85.188 70.5149C88.3077 71.2801 91.0448 72.5162 93.3992 74.2232C95.7537 75.8714 97.6078 77.9021 98.9616 80.3154C100.374 82.7287 101.081 85.3775 101.081 88.2617C101.081 91.7934 100.345 95.0897 98.8734 98.1505C97.4018 101.211 94.9885 104.36 91.6334 107.598C90.2207 108.952 88.7492 110.335 87.2188 111.748C85.6883 113.16 84.1285 114.543 82.5393 115.897C81.0088 117.251 79.5079 118.546 78.0363 119.782C76.6237 120.959 75.3287 121.989 74.1515 122.872C78.1541 122.519 81.9801 122.225 85.6295 121.989C89.2789 121.754 92.6929 121.577 95.8714 121.46C97.1664 121.401 98.1964 121.783 98.9616 122.608C99.7857 123.432 100.227 124.638 100.286 126.227C100.345 128.229 99.9329 129.73 99.0499 130.73Z" fill="white"/>
<path d="M99.0499 130.73L93.5329 125.862L93.5329 125.862L99.0499 130.73ZM95.6948 132.585L96.7787 139.862L96.8673 139.849L96.9555 139.833L95.6948 132.585ZM78.0363 134.439L77.5515 127.097L77.517 127.099L77.4826 127.102L78.0363 134.439ZM59.1417 135.322V142.679H59.2099L59.278 142.678L59.1417 135.322ZM56.7578 134.88L53.7132 141.578H53.7132L56.7578 134.88ZM55.1686 133.644L60.9764 129.127L60.8458 128.959L60.7058 128.799L55.1686 133.644ZM54.1974 131.878L61.1775 129.552L61.1461 129.457L61.1121 129.364L54.1974 131.878ZM53.7559 129.847L61.0882 129.236L61.074 129.066L61.0518 128.896L53.7559 129.847ZM54.3739 126.227L47.9422 122.654H47.9422L54.3739 126.227ZM56.493 123.314L61.8719 128.334L62.1418 128.045L62.3791 127.728L56.493 123.314ZM58.1705 121.725L63.0156 127.262L63.1106 127.179L63.2028 127.092L58.1705 121.725ZM61.4373 118.634L66.5116 123.962L66.5177 123.957L61.4373 118.634ZM65.5871 114.749L70.5687 120.164L70.5777 120.156L65.5871 114.749ZM69.9134 110.776L74.8745 116.21L74.9375 116.152L74.9992 116.093L69.9134 110.776ZM73.4451 107.421L78.4878 112.779L78.4971 112.77L73.4451 107.421ZM75.6524 105.39L80.4408 110.977L80.5971 110.843L80.7456 110.7L75.6524 105.39ZM82.7158 97.8856L77.0146 93.2346L82.7158 97.8856ZM85.7178 91.5286L78.4014 90.7502L78.3944 90.816L78.3885 90.8819L85.7178 91.5286ZM83.5988 84.9066L78.3961 90.1093L78.4417 90.1549L78.4881 90.1998L83.5988 84.9066ZM75.3876 82.611L75.043 75.2614L75.0219 75.2624L75.0009 75.2635L75.3876 82.611ZM72.0324 83.3173L69.4889 76.4133L69.4271 76.4361L69.3657 76.4599L72.0324 83.3173ZM69.0305 85.0832L73.4451 90.9694L73.5594 90.8837L73.6702 90.7936L69.0305 85.0832ZM66.47 87.6437L60.6254 83.1742L60.6045 83.2016L60.5839 83.2291L66.47 87.6437ZM64.8808 90.7339L57.8646 88.5183L57.8426 88.5878L57.822 88.6578L64.8808 90.7339ZM63.3798 93.2061L68.0901 98.8585L68.2235 98.7473L68.3516 98.6299L63.3798 93.2061ZM60.9959 94.6188L63.3226 101.599L63.5277 101.531L63.7285 101.45L60.9959 94.6188ZM58.1705 95.1485V102.506H58.3867L58.6026 102.494L58.1705 95.1485ZM55.2569 94.7954L53.0931 101.828L53.2813 101.886L53.4724 101.933L55.2569 94.7954ZM50.2242 88.7915L42.8762 88.4147L42.8743 88.4499L42.8729 88.4852L50.2242 88.7915ZM52.4315 82.0813L46.1827 78.1969L46.1827 78.1969L52.4315 82.0813ZM57.8174 76.254L62.2811 82.103L62.2923 82.0944L62.3034 82.0858L57.8174 76.254ZM65.7637 71.9276L68.3323 78.8224L68.3687 78.8088L68.4049 78.7949L65.7637 71.9276ZM75.5641 69.7203L76.1854 77.0517L76.1963 77.0508L76.2071 77.0499L75.5641 69.7203ZM85.188 70.5149L83.2752 77.6197L83.355 77.6411L83.4353 77.6608L85.188 70.5149ZM93.3992 74.2232L89.0805 80.1801L89.1299 80.2159L89.1799 80.2509L93.3992 74.2232ZM98.9617 80.3154L92.5447 83.9152L92.5777 83.9741L92.6118 84.0324L98.9617 80.3154ZM98.8734 98.1505L105.505 101.339V101.339L98.8734 98.1505ZM91.6334 107.598L96.7242 112.91L96.7333 112.901L96.7423 112.893L91.6334 107.598ZM87.2188 111.748L92.2093 117.154L92.2093 117.154L87.2188 111.748ZM82.5392 115.897L77.768 110.296L77.7157 110.341L77.6642 110.386L82.5392 115.897ZM78.0363 119.782L82.7466 125.434L82.7577 125.425L82.7688 125.416L78.0363 119.782ZM74.1515 122.872L69.7368 116.986L49.0921 132.47L74.7982 130.202L74.1515 122.872ZM95.8714 121.46L96.1437 128.812L96.1746 128.811L96.2055 128.81L95.8714 121.46ZM98.9617 122.608L93.57 127.614L93.6627 127.714L93.759 127.81L98.9617 122.608ZM100.286 126.227L107.641 126.011L107.64 125.983L107.639 125.955L100.286 126.227ZM99.0499 130.73L93.5329 125.862C93.6242 125.759 93.7789 125.621 93.9902 125.505C94.1989 125.389 94.3662 125.347 94.4342 125.336L95.6948 132.585L96.9555 139.833C99.9045 139.321 102.542 137.893 104.567 135.598L99.0499 130.73ZM95.6948 132.585L94.611 125.307C89.2982 126.098 83.6133 126.697 77.5515 127.097L78.0363 134.439L78.5212 141.78C84.938 141.357 91.0255 140.719 96.7787 139.862L95.6948 132.585ZM78.0363 134.439L77.4826 127.102C71.3844 127.562 65.2255 127.85 59.0055 127.965L59.1417 135.322L59.278 142.678C65.7721 142.558 72.2096 142.257 78.5901 141.776L78.0363 134.439ZM59.1417 135.322V127.964C59.0485 127.964 59.0693 127.956 59.1792 127.977C59.2916 127.997 59.5139 128.051 59.8025 128.182L56.7578 134.88L53.7132 141.578C55.5736 142.424 57.4739 142.679 59.1417 142.679V135.322ZM56.7578 134.88L59.8025 128.182C60.1723 128.35 60.6137 128.661 60.9764 129.127L55.1686 133.644L49.3608 138.161C50.5475 139.687 52.0485 140.822 53.7132 141.578L56.7578 134.88ZM55.1686 133.644L60.7058 128.799C61.0472 129.189 61.1616 129.504 61.1775 129.552L54.1974 131.878L47.2172 134.205C47.7041 135.665 48.4659 137.157 49.6313 138.489L55.1686 133.644ZM54.1974 131.878L61.1121 129.364C61.106 129.347 61.0944 129.311 61.0882 129.236L53.7559 129.847L46.4236 130.459C46.5351 131.796 46.8179 133.115 47.2826 134.393L54.1974 131.878ZM53.7559 129.847L61.0518 128.896C61.0477 128.864 61.0646 128.967 61.0307 129.165C60.9953 129.373 60.9191 129.597 60.8057 129.801L54.3739 126.227L47.9422 122.654C46.4932 125.262 46.1066 128.09 46.46 130.799L53.7559 129.847ZM54.3739 126.227L60.8057 129.801C61.1046 129.263 61.4578 128.778 61.8719 128.334L56.493 123.314L51.1141 118.294C49.88 119.616 48.8205 121.073 47.9422 122.654L54.3739 126.227ZM56.493 123.314L62.3791 127.728C62.25 127.901 62.1455 128.021 62.098 128.075C62.0447 128.136 62.0091 128.173 62.0008 128.182C61.987 128.196 62.0149 128.167 62.105 128.081C62.2847 127.911 62.5788 127.644 63.0156 127.262L58.1705 121.725L53.3254 116.187C52.8204 116.629 52.3641 117.039 51.9846 117.399C51.7348 117.635 51.1173 118.219 50.6068 118.899L56.493 123.314ZM58.1705 121.725L63.2028 127.092C64.1622 126.193 65.2657 125.149 66.5116 123.962L61.4373 118.634L56.3631 113.306C55.1368 114.474 54.0624 115.491 53.1383 116.357L58.1705 121.725ZM61.4373 118.634L66.5177 123.957C67.7765 122.755 69.1266 121.491 70.5687 120.164L65.5871 114.749L60.6055 109.335C59.1045 110.716 57.6881 112.042 56.357 113.312L61.4373 118.634ZM65.5871 114.749L70.5777 120.156C72.0996 118.751 73.5318 117.436 74.8745 116.21L69.9134 110.776L64.9524 105.343C63.5875 106.589 62.1354 107.922 60.5965 109.343L65.5871 114.749ZM69.9134 110.776L74.9992 116.093C76.3435 114.807 77.5057 113.703 78.4878 112.779L73.4451 107.421L68.4024 102.063C67.3832 103.023 66.191 104.155 64.8276 105.459L69.9134 110.776ZM73.4451 107.421L78.4971 112.77C79.5673 111.76 80.1819 111.199 80.4408 110.977L75.6524 105.39L70.8641 99.8041C70.2989 100.289 69.442 101.081 68.3932 102.072L73.4451 107.421ZM75.6524 105.39L80.7456 110.7C83.7703 107.799 86.347 105.074 88.4171 102.537L82.7158 97.8856L77.0146 93.2346C75.4352 95.1706 73.303 97.4488 70.5592 100.081L75.6524 105.39ZM82.7158 97.8856L88.4171 102.537C90.7844 99.6348 92.6958 96.1561 93.047 92.1752L85.7178 91.5286L78.3885 90.8819C78.3866 90.9036 78.2967 91.663 77.0146 93.2346L82.7158 97.8856ZM85.7178 91.5286L93.0342 92.3069C93.5219 87.7223 92.3407 83.1195 88.7094 79.6135L83.5988 84.9066L78.4881 90.1998C78.5031 90.2142 78.484 90.1982 78.4547 90.1514C78.425 90.1039 78.4077 90.0614 78.4011 90.0406C78.3864 89.9947 78.4616 90.1842 78.4014 90.7502L85.7178 91.5286ZM83.5988 84.9066L88.8014 79.7039C84.9781 75.8806 79.7317 75.0416 75.043 75.2614L75.3876 82.611L75.7321 89.9606C77.0718 89.8979 77.8737 90.0236 78.2847 90.1385C78.6523 90.2412 78.5836 90.2968 78.3961 90.1093L83.5988 84.9066ZM75.3876 82.611L75.0009 75.2635C73.0994 75.3636 71.2553 75.7625 69.4889 76.4133L72.0324 83.3173L74.576 90.2214C75.0463 90.0482 75.439 89.9762 75.7743 89.9585L75.3876 82.611ZM72.0324 83.3173L69.3657 76.4599C67.5462 77.1675 65.8865 78.1576 64.3908 79.3728L69.0305 85.0832L73.6702 90.7936C74.0581 90.4784 74.3996 90.2913 74.6992 90.1748L72.0324 83.3173ZM69.0305 85.0832L64.6159 79.197C63.0984 80.3352 61.7715 81.6754 60.6254 83.1742L66.47 87.6437L72.3147 92.1131C72.6989 91.6106 73.0791 91.2439 73.4451 90.9694L69.0305 85.0832ZM66.47 87.6437L60.5839 83.2291C59.3814 84.8323 58.4686 86.6054 57.8646 88.5183L64.8808 90.7339L71.8969 92.9496C71.9992 92.6257 72.1459 92.3386 72.3562 92.0583L66.47 87.6437ZM64.8808 90.7339L57.822 88.6578C57.8402 88.5962 57.8889 88.4595 57.9955 88.284C58.1042 88.105 58.2451 87.9316 58.408 87.7824L63.3798 93.2061L68.3516 98.6299C70.132 96.9978 71.3018 94.978 71.9395 92.81L64.8808 90.7339ZM63.3798 93.2061L58.6695 87.5538C58.5766 87.6312 58.454 87.711 58.2633 87.7873L60.9959 94.6188L63.7285 101.45C65.3036 100.82 66.7703 99.9583 68.0901 98.8585L63.3798 93.2061ZM60.9959 94.6188L58.6692 87.6387C58.4442 87.7136 58.1436 87.7797 57.7385 87.8035L58.1705 95.1485L58.6026 102.494C60.1987 102.4 61.7817 102.113 63.3226 101.599L60.9959 94.6188ZM58.1705 95.1485V87.7908C57.7529 87.7908 57.3818 87.7425 57.0414 87.6574L55.2569 94.7954L53.4724 101.933C55.0155 102.319 56.5869 102.506 58.1705 102.506V95.1485ZM55.2569 94.7954L57.4207 87.763C57.1958 87.6939 57.0877 87.6327 57.0548 87.6123C57.0266 87.5949 57.0336 87.5955 57.0478 87.6116L51.5486 92.4998L46.0494 97.388C47.9975 99.5796 50.4463 101.013 53.0931 101.828L55.2569 94.7954ZM51.5486 92.4998L57.0478 87.6116C57.1534 87.7303 57.3189 87.9637 57.4402 88.3034C57.5617 88.6434 57.5824 88.9322 57.5755 89.0978L50.2242 88.7915L42.8729 88.4852C42.7344 91.8095 43.8438 94.9067 46.0494 97.388L51.5486 92.4998ZM50.2242 88.7915L57.5723 89.1683C57.6191 88.2548 57.9063 87.2108 58.6803 85.9656L52.4315 82.0813L46.1827 78.1969C44.2491 81.3075 43.0648 84.737 42.8762 88.4147L50.2242 88.7915ZM52.4315 82.0813L58.6803 85.9656C59.5194 84.6158 60.6846 83.3214 62.2811 82.103L57.8174 76.254L53.3536 70.4049C50.4766 72.6005 48.0513 75.191 46.1827 78.1969L52.4315 82.0813ZM57.8174 76.254L62.3034 82.0858C63.9584 80.8128 65.9467 79.7112 68.3323 78.8224L65.7637 71.9276L63.195 65.0329C59.5768 66.3808 56.2675 68.1634 53.3313 70.4221L57.8174 76.254ZM65.7637 71.9276L68.4049 78.7949C70.7783 77.8821 73.3611 77.2911 76.1854 77.0517L75.5641 69.7203L74.9428 62.3889C70.8216 62.7381 66.8707 63.6187 63.1224 65.0603L65.7637 71.9276ZM75.5641 69.7203L76.2071 77.0499C78.7578 76.8261 81.0974 77.0333 83.2752 77.6197L85.188 70.5149L87.1008 63.4102C83.157 62.3484 79.0807 62.0259 74.9212 62.3907L75.5641 69.7203ZM85.188 70.5149L83.4353 77.6608C85.7275 78.2231 87.5732 79.0873 89.0805 80.1801L93.3992 74.2232L97.718 68.2664C94.5163 65.9452 90.8878 64.3372 86.9408 63.3691L85.188 70.5149ZM93.3992 74.2232L89.1799 80.2509C90.6647 81.2903 91.7528 82.5035 92.5447 83.9152L98.9617 80.3154L105.379 76.7156C103.463 73.3006 100.843 70.4524 97.6186 68.1956L93.3992 74.2232ZM98.9617 80.3154L92.6118 84.0324C93.3431 85.2817 93.723 86.6411 93.723 88.2617H101.081H108.438C108.438 84.114 107.406 80.1758 105.311 76.5984L98.9617 80.3154ZM101.081 88.2617H93.723C93.723 90.735 93.2163 92.9364 92.2422 94.9624L98.8734 98.1505L105.505 101.339C107.474 97.243 108.438 92.8519 108.438 88.2617H101.081ZM98.8734 98.1505L92.2422 94.9624C91.2612 97.003 89.4692 99.4616 86.5244 102.303L91.6334 107.598L96.7423 112.893C100.508 109.259 103.542 105.42 105.505 101.339L98.8734 98.1505ZM91.6334 107.598L86.5425 102.286C85.165 103.606 83.727 104.958 82.2282 106.341L87.2188 111.748L92.2093 117.154C93.7713 115.712 95.2764 114.297 96.7242 112.91L91.6334 107.598ZM87.2188 111.748L82.2282 106.341C80.7698 107.687 79.2831 109.006 77.768 110.296L82.5392 115.897L87.3105 121.498C88.974 120.081 90.6069 118.633 92.2093 117.154L87.2188 111.748ZM82.5392 115.897L77.6642 110.386C76.1779 111.701 74.7245 112.955 73.3039 114.148L78.0363 119.782L82.7688 125.416C84.2912 124.137 85.8398 122.801 87.4143 121.408L82.5392 115.897ZM78.0363 119.782L73.326 114.13C71.9873 115.245 70.7925 116.195 69.7368 116.986L74.1515 122.872L78.5661 128.759C79.8649 127.784 81.26 126.673 82.7466 125.434L78.0363 119.782ZM74.1515 122.872L74.7982 130.202C78.7487 129.853 82.5168 129.563 86.1032 129.332L85.6295 121.989L85.1558 114.647C81.4433 114.887 77.5594 115.185 73.5048 115.543L74.1515 122.872ZM85.6295 121.989L86.1032 129.332C89.6952 129.1 93.0414 128.927 96.1437 128.812L95.8714 121.46L95.5991 114.107C92.3444 114.228 88.8626 114.408 85.1558 114.647L85.6295 121.989ZM95.8714 121.46L96.2055 128.81C96.0415 128.817 95.6142 128.808 95.0533 128.6C94.4645 128.381 93.9509 128.024 93.57 127.614L98.9617 122.608L104.353 117.601C101.884 114.941 98.6251 113.969 95.5373 114.11L95.8714 121.46ZM98.9617 122.608L93.759 127.81C93.3396 127.391 93.1099 126.956 93.001 126.659C92.9026 126.389 92.926 126.3 92.9334 126.5L100.286 126.227L107.639 125.955C107.536 123.196 106.717 119.958 104.164 117.405L98.9617 122.608ZM100.286 126.227L92.9315 126.444C92.9453 126.912 92.8924 127.029 92.9259 126.906C92.9674 126.755 93.1188 126.332 93.5329 125.862L99.0499 130.73L104.567 135.598C107.18 132.637 107.727 128.965 107.641 126.011L100.286 126.227Z" fill="#E2A003" mask="url(#path-13-outside-1_3576_7609)"/>
<path d="M3.98535 179.794L38.5496 172.079L44.7218 198.619L10.7748 205.408L15.0953 190.904L3.98535 179.794Z" fill="#F3AD06"/>
<path d="M150.889 179.794L116.324 172.079L110.152 198.619L144.099 205.408L139.779 190.904L150.889 179.794Z" fill="#F3AD06"/>
<path d="M110.148 198.616L112 185.038L129.591 188.284L110.148 198.616Z" fill="#DF9D00"/>
<path d="M134.843 162.51C90.4205 151.835 65.2742 152.216 20.04 162.51L25.595 188.433C66.2113 181.433 88.9801 180.738 129.596 188.433L134.843 162.51Z" fill="#FFB608"/>
<path d="M44.7207 198.616L42.8691 185.655L25.5869 188.432L44.7207 198.616Z" fill="#DF9D00"/>
<path d="M74.213 6.52793C75.5087 3.98897 79.1366 3.98897 80.4323 6.52793L85.0621 15.6001C85.5694 16.5941 86.5213 17.2857 87.6234 17.461L97.6822 19.0608C100.497 19.5085 101.618 22.9588 99.6041 24.9757L92.4067 32.1823C91.6181 32.972 91.2545 34.091 91.4283 35.1933L93.0152 45.2542C93.4593 48.0699 90.5243 50.2023 87.9837 48.9098L78.9056 44.2916C77.9109 43.7856 76.7343 43.7856 75.7397 44.2916L66.6616 48.9098C64.1209 50.2023 61.1859 48.0699 61.6301 45.2542L63.2169 35.1933C63.3908 34.091 63.0272 32.972 62.2386 32.1823L55.0412 24.9757C53.0269 22.9588 54.1479 19.5085 56.963 19.0608L67.0219 17.461C68.124 17.2857 69.0759 16.5941 69.5832 15.6001L74.213 6.52793Z" fill="url(#paint9_radial_3576_7609)"/>
<path d="M75.7679 9.8167C76.4158 8.54722 78.2297 8.54722 78.8776 9.8167L83.5666 19.0049C83.8202 19.5019 84.2962 19.8477 84.8473 19.9353L95.0347 21.5555C96.4423 21.7794 97.0028 23.5045 95.9956 24.513L88.7062 31.8118C88.3119 32.2066 88.1301 32.7661 88.217 33.3173L89.8242 43.5068C90.0462 44.9146 88.5787 45.9808 87.3084 45.3346L78.1143 40.6574C77.6169 40.4044 77.0286 40.4044 76.5313 40.6574L67.3371 45.3346C66.0668 45.9808 64.5993 44.9146 64.8214 43.5068L66.4285 33.3173C66.5155 32.7661 66.3337 32.2066 65.9394 31.8118L58.6499 24.513C57.6427 23.5045 58.2033 21.7794 59.6108 21.5555L69.7983 19.9353C70.3493 19.8477 70.8253 19.5019 71.0789 19.0049L75.7679 9.8167Z" fill="url(#paint10_radial_3576_7609)"/>
<path d="M81.0737 20.8025C80.7319 18.6016 82.9613 18.4431 84.1188 18.639C85.2762 18.8349 88.4299 19.5473 91.7847 20.8294C95.9782 22.4321 94.8163 24.0214 93.8013 24.7426C92.3658 25.7624 90.182 25.0229 87.5777 24.5822C84.9734 24.1414 81.5011 23.5537 81.0737 20.8025Z" fill="url(#paint11_radial_3576_7609)"/>
<path d="M93.6661 22.056C93.7365 19.9248 94.6949 19.5512 95.1653 19.6308C95.6357 19.7105 96.9 20.103 98.1937 21.0364C99.8108 22.203 99.1641 23.8795 98.6644 24.6879C97.9577 25.8311 97.1062 25.3171 96.0478 25.138C94.9894 24.9588 93.5781 24.72 93.6661 22.056Z" fill="url(#paint12_radial_3576_7609)" fill-opacity="0.56"/>
<path d="M64.4214 20.2199C63.7351 18.8673 64.9955 18.272 65.7114 18.1435C66.4274 18.0149 68.4177 17.7805 70.6512 17.8715C73.4431 17.9852 73.12 19.2731 72.69 19.9652C72.0819 20.9441 70.6491 20.9466 69.0381 21.2359C67.4272 21.5251 65.2792 21.9108 64.4214 20.2199Z" fill="url(#paint13_radial_3576_7609)" fill-opacity="0.5"/>
<path d="M70.0924 44.442C68.9713 43.4203 69.939 42.417 70.563 42.0431C71.187 41.6692 72.9651 40.7448 75.0859 40.0385C77.7369 39.1555 77.8912 40.4744 77.7343 41.274C77.5125 42.4048 76.1735 42.9149 74.7696 43.7562C73.3656 44.5974 71.4937 45.7192 70.0924 44.442Z" fill="url(#paint14_radial_3576_7609)" fill-opacity="0.5"/>
<path d="M86.9323 32.9106C88.8017 31.6997 89.8569 33.67 90.1508 34.8066C90.4447 35.9431 91.0824 39.1126 91.2822 42.6986C91.5319 47.181 89.6067 46.7694 88.5339 46.1374C87.0167 45.2437 86.7998 42.9483 86.1385 40.3911C85.4772 37.8339 84.5956 34.4243 86.9323 32.9106Z" fill="url(#paint15_radial_3576_7609)"/>
<path d="M79.1841 11.8187C80.7976 10.2832 82.1986 12.0246 82.6974 13.0873C83.1963 14.1499 84.4086 17.1471 85.2676 20.6343C86.3412 24.9934 84.3731 24.9447 83.202 24.5218C81.5457 23.9238 80.9085 21.708 79.7861 19.317C78.6637 16.926 77.1672 13.738 79.1841 11.8187Z" fill="url(#paint16_radial_3576_7609)"/>
<defs>
<linearGradient id="paint0_linear_3576_7609" x1="13.8613" y1="-19.8" x2="161.015" y2="234.041" gradientUnits="userSpaceOnUse">
<stop stop-color="#FFD900"/>
<stop offset="1" stop-color="#FFA600"/>
</linearGradient>
<linearGradient id="paint1_linear_3576_7609" x1="81.0009" y1="17.9088" x2="341.28" y2="219.326" gradientUnits="userSpaceOnUse">
<stop stop-color="#FFD900"/>
<stop offset="1" stop-color="#FFA600"/>
</linearGradient>
<linearGradient id="paint2_linear_3576_7609" x1="72.7235" y1="188.055" x2="-68.9123" y2="85.0469" gradientUnits="userSpaceOnUse">
<stop stop-color="#FFD900"/>
<stop offset="0.576923" stop-color="#FFA600"/>
</linearGradient>
<linearGradient id="paint3_linear_3576_7609" x1="382.667" y1="-117.29" x2="-10.9701" y2="143.908" gradientUnits="userSpaceOnUse">
<stop stop-color="white" stop-opacity="0.4"/>
<stop offset="1" stop-color="white" stop-opacity="0"/>
</linearGradient>
<linearGradient id="paint4_linear_3576_7609" x1="67.2056" y1="248.757" x2="184.009" y2="9.63164" gradientUnits="userSpaceOnUse">
<stop stop-color="white" stop-opacity="0.13"/>
<stop offset="1" stop-color="white" stop-opacity="0"/>
</linearGradient>
<radialGradient id="paint5_radial_3576_7609" cx="0" cy="0" r="1" gradientTransform="matrix(-13.7957 21.1534 -10.4798 -7.30906 126.069 136.551)" gradientUnits="userSpaceOnUse">
<stop stop-color="white" stop-opacity="0.1"/>
<stop offset="1" stop-color="white" stop-opacity="0"/>
</radialGradient>
<radialGradient id="paint6_radial_3576_7609" cx="0" cy="0" r="1" gradientTransform="matrix(25.1908 1.79199 -1.30252 12.7103 71.9491 14.7219)" gradientUnits="userSpaceOnUse">
<stop stop-color="white" stop-opacity="0.1"/>
<stop offset="1" stop-color="white" stop-opacity="0"/>
</radialGradient>
<radialGradient id="paint7_radial_3576_7609" cx="0" cy="0" r="1" gradientTransform="matrix(13.3137 -21.46 10.6425 7.07014 136.66 69.7973)" gradientUnits="userSpaceOnUse">
<stop stop-color="white" stop-opacity="0.1"/>
<stop offset="1" stop-color="white" stop-opacity="0"/>
</radialGradient>
<radialGradient id="paint8_radial_3576_7609" cx="0" cy="0" r="1" gradientUnits="userSpaceOnUse" gradientTransform="translate(75.9592 30.7838) scale(27.5914 16.9994)">
<stop stop-color="white" stop-opacity="0.22"/>
<stop offset="1" stop-color="white" stop-opacity="0"/>
</radialGradient>
<radialGradient id="paint9_radial_3576_7609" cx="0" cy="0" r="1" gradientUnits="userSpaceOnUse" gradientTransform="translate(77.3226 28.9457) rotate(90) scale(28.5111)">
<stop stop-color="#FFE86C"/>
<stop offset="1" stop-color="#FF9900"/>
</radialGradient>
<radialGradient id="paint10_radial_3576_7609" cx="0" cy="0" r="1" gradientUnits="userSpaceOnUse" gradientTransform="translate(77.3228 28.9453) rotate(90) scale(22.1753)">
<stop stop-color="#FFF5BC"/>
<stop offset="0.765" stop-color="#FFA800"/>
</radialGradient>
<radialGradient id="paint11_radial_3576_7609" cx="0" cy="0" r="1" gradientUnits="userSpaceOnUse" gradientTransform="translate(87.8669 21.9775) rotate(99.6063) scale(2.66619 7.03148)">
<stop stop-color="white"/>
<stop offset="0.84" stop-color="white" stop-opacity="0"/>
</radialGradient>
<radialGradient id="paint12_radial_3576_7609" cx="0" cy="0" r="1" gradientUnits="userSpaceOnUse" gradientTransform="translate(96.4245 22.5481) rotate(99.6063) scale(2.66619 2.85773)">
<stop stop-color="white"/>
<stop offset="0.84" stop-color="white" stop-opacity="0"/>
</radialGradient>
<radialGradient id="paint13_radial_3576_7609" cx="0" cy="0" r="1" gradientUnits="userSpaceOnUse" gradientTransform="translate(68.629 19.4819) rotate(79.8213) scale(1.83292 4.3571)">
<stop stop-color="white"/>
<stop offset="0.84" stop-color="white" stop-opacity="0"/>
</radialGradient>
<radialGradient id="paint14_radial_3576_7609" cx="0" cy="0" r="1" gradientUnits="userSpaceOnUse" gradientTransform="translate(73.7655 42.2609) rotate(59.0688) scale(1.83292 4.3571)">
<stop stop-color="white"/>
<stop offset="0.84" stop-color="white" stop-opacity="0"/>
</radialGradient>
<radialGradient id="paint15_radial_3576_7609" cx="0" cy="0" r="1" gradientUnits="userSpaceOnUse" gradientTransform="translate(88.6342 39.5913) rotate(165.501) scale(2.66619 7.03148)">
<stop stop-color="white"/>
<stop offset="0.84" stop-color="white" stop-opacity="0"/>
</radialGradient>
<radialGradient id="paint16_radial_3576_7609" cx="0" cy="0" r="1" gradientUnits="userSpaceOnUse" gradientTransform="translate(82.091 18.0698) rotate(154.854) scale(2.66619 7.03148)">
<stop stop-color="white"/>
<stop offset="0.84" stop-color="white" stop-opacity="0"/>
</radialGradient>
</defs>
</svg>
