<svg width="154" height="204" viewBox="0 0 154 204" fill="none" xmlns="http://www.w3.org/2000/svg">
<path d="M75.7563 7.51709L141.069 55.3422V150.992L75.7563 198.817L10.4437 150.992V55.3422L75.7563 7.51709Z" fill="#FFD900"/>
<path d="M75.7563 24.0713L129.918 63.619V142.714L75.7563 182.262L21.5947 142.714V63.619L75.7563 24.0713Z" fill="url(#paint0_linear_3576_6885)"/>
<path d="M21.4946 63.6202L10.458 55.3428V150.993L21.4946 142.716V63.6202Z" fill="#FFE02D"/>
<path d="M130.019 63.6202L141.056 55.3428V150.993L130.019 142.716V63.6202Z" fill="#FFD900"/>
<path d="M75.7568 24.0719V7.51709L141.056 55.3422L130.02 63.6196L75.7568 24.0719Z" fill="url(#paint1_linear_3576_6885)"/>
<path d="M75.7568 182.262V198.816L10.4572 150.991L21.4938 142.714L75.7568 182.262Z" fill="url(#paint2_linear_3576_6885)"/>
<path d="M109.787 48.9028L21.4941 114.202V142.714L130.02 63.6182L109.787 48.9028Z" fill="url(#paint3_linear_3576_6885)"/>
<path d="M41.7278 157.431L34.3701 151.912L130.02 79.2549V88.452L41.7278 157.431Z" fill="url(#paint4_linear_3576_6885)"/>
<path d="M130.022 142.714L109.788 157.429C102.641 129.604 120.236 115.485 130.022 112.363L130.022 142.714Z" fill="url(#paint5_radial_3576_6885)"/>
<path d="M74.6999 7.3016L97.3874 17.8471C76.5305 37.6042 55.645 29.0753 48.1656 22.0355L74.6999 7.3016Z" fill="url(#paint6_radial_3576_6885)"/>
<path d="M130.02 63.6192L151.168 48.0216C158.943 75.6783 139.732 88.7875 130.02 92.1295L130.02 63.6192Z" fill="url(#paint7_radial_3576_6885)"/>
<path d="M75.3137 24.071L96.4667 39.7059C75.6099 59.463 57.0412 49.505 49.5618 42.4652L75.3137 24.071Z" fill="url(#paint8_radial_3576_6885)"/>
<mask id="path-13-outside-1_3576_6885" maskUnits="userSpaceOnUse" x="41.166" y="61.897" width="50" height="81" fill="black">
<rect fill="white" x="41.166" y="61.897" width="50" height="81"/>
<path d="M80.1279 69.5337C82.0703 69.7691 83.1004 70.7404 83.2181 72.4474C83.3359 75.979 83.4241 80.0994 83.483 84.8083C83.5419 89.4584 83.5713 94.3145 83.5713 99.3766C83.6302 104.38 83.6302 109.324 83.5713 114.21C83.5124 119.036 83.4536 123.392 83.3947 127.277C83.3359 129.867 82.7472 131.839 81.6289 133.193C80.5105 134.546 78.5975 135.282 75.8899 135.4C74.4772 135.459 73.3588 135.312 72.5347 134.958C71.7107 134.664 71.0632 134.164 70.5923 133.457C70.1803 132.751 69.886 131.868 69.7094 130.809C69.5328 129.749 69.4151 128.543 69.3562 127.189C69.0619 120.773 68.797 114.151 68.5616 107.323C68.385 100.436 68.2084 93.7258 68.0318 87.1922C67.3255 87.4865 66.4131 87.8985 65.2948 88.4283C64.1764 88.8992 62.9697 89.4289 61.6748 90.0176C60.4387 90.6062 59.1731 91.1654 57.8782 91.6951C56.6421 92.166 55.5532 92.4897 54.6114 92.6663C53.493 92.9018 52.5512 92.7841 51.786 92.3132C51.0208 91.7834 50.285 90.8122 49.5787 89.3995C48.8724 87.9868 48.5486 86.8096 48.6075 85.8678C48.7252 84.8672 49.1078 84.102 49.7553 83.5722C50.8148 82.7481 52.0803 81.8064 53.5519 80.7468C55.0234 79.6873 56.5538 78.6278 58.1431 77.5683C59.7323 76.4499 61.2627 75.361 62.7343 74.3015C64.2647 73.242 65.5891 72.3296 66.7074 71.5644C67.7081 70.8581 68.6204 70.3578 69.4445 70.0635C70.2686 69.7691 71.1515 69.5631 72.0933 69.4454C73.2705 69.3277 74.6243 69.2983 76.1547 69.3571C77.6851 69.3571 79.0095 69.416 80.1279 69.5337Z"/>
</mask>
<path d="M80.1279 69.5337C82.0703 69.7691 83.1004 70.7404 83.2181 72.4474C83.3359 75.979 83.4241 80.0994 83.483 84.8083C83.5419 89.4584 83.5713 94.3145 83.5713 99.3766C83.6302 104.38 83.6302 109.324 83.5713 114.21C83.5124 119.036 83.4536 123.392 83.3947 127.277C83.3359 129.867 82.7472 131.839 81.6289 133.193C80.5105 134.546 78.5975 135.282 75.8899 135.4C74.4772 135.459 73.3588 135.312 72.5347 134.958C71.7107 134.664 71.0632 134.164 70.5923 133.457C70.1803 132.751 69.886 131.868 69.7094 130.809C69.5328 129.749 69.4151 128.543 69.3562 127.189C69.0619 120.773 68.797 114.151 68.5616 107.323C68.385 100.436 68.2084 93.7258 68.0318 87.1922C67.3255 87.4865 66.4131 87.8985 65.2948 88.4283C64.1764 88.8992 62.9697 89.4289 61.6748 90.0176C60.4387 90.6062 59.1731 91.1654 57.8782 91.6951C56.6421 92.166 55.5532 92.4897 54.6114 92.6663C53.493 92.9018 52.5512 92.7841 51.786 92.3132C51.0208 91.7834 50.285 90.8122 49.5787 89.3995C48.8724 87.9868 48.5486 86.8096 48.6075 85.8678C48.7252 84.8672 49.1078 84.102 49.7553 83.5722C50.8148 82.7481 52.0803 81.8064 53.5519 80.7468C55.0234 79.6873 56.5538 78.6278 58.1431 77.5683C59.7323 76.4499 61.2627 75.361 62.7343 74.3015C64.2647 73.242 65.5891 72.3296 66.7074 71.5644C67.7081 70.8581 68.6204 70.3578 69.4445 70.0635C70.2686 69.7691 71.1515 69.5631 72.0933 69.4454C73.2705 69.3277 74.6243 69.2983 76.1547 69.3571C77.6851 69.3571 79.0095 69.416 80.1279 69.5337Z" fill="white"/>
<path d="M80.1279 69.5337L81.0133 62.2295L80.9557 62.2225L80.8981 62.2164L80.1279 69.5337ZM83.2181 72.4474L90.5718 72.2022L90.5674 72.0716L90.5584 71.9411L83.2181 72.4474ZM83.483 84.8083L76.1259 84.9003L76.1259 84.9014L83.483 84.8083ZM83.5713 99.3766H76.2136V99.4198L76.2141 99.4631L83.5713 99.3766ZM83.5713 114.21L90.9285 114.299L90.9285 114.298L83.5713 114.21ZM83.3947 127.277L90.7505 127.444L90.7512 127.416L90.7516 127.388L83.3947 127.277ZM81.6289 133.193L75.9564 128.507L75.9564 128.507L81.6289 133.193ZM75.8899 135.4L76.1962 142.751L76.2095 142.751L75.8899 135.4ZM72.5347 134.958L75.4331 128.196L75.2238 128.106L75.0094 128.029L72.5347 134.958ZM70.5923 133.457L64.2369 137.165L64.348 137.355L64.4703 137.539L70.5923 133.457ZM69.7094 130.809L76.967 129.599L76.967 129.599L69.7094 130.809ZM69.3562 127.189L76.707 126.869L76.7066 126.86L76.7062 126.852L69.3562 127.189ZM68.5616 107.323L61.2063 107.511L61.2071 107.544L61.2082 107.576L68.5616 107.323ZM68.0318 87.1922L75.3868 86.9934L75.0972 76.2774L65.2019 80.4005L68.0318 87.1922ZM65.2948 88.4283L68.15 95.2094L68.2987 95.1468L68.4445 95.0777L65.2948 88.4283ZM61.6748 90.0176L58.6301 83.3193L58.5705 83.3464L58.5114 83.3746L61.6748 90.0176ZM57.8782 91.6951L60.4975 98.5708L60.5812 98.5389L60.6641 98.505L57.8782 91.6951ZM54.6114 92.6663L53.2554 85.4346L53.1753 85.4497L53.0956 85.4664L54.6114 92.6663ZM51.786 92.3132L47.5979 98.3626L47.761 98.4755L47.9299 98.5794L51.786 92.3132ZM49.5787 89.3995L56.1596 86.109L56.1596 86.109L49.5787 89.3995ZM48.6075 85.8678L41.3002 85.0081L41.2767 85.208L41.2641 85.4088L48.6075 85.8678ZM49.7553 83.5722L45.2381 77.7644L45.1664 77.8201L45.0961 77.8777L49.7553 83.5722ZM53.5519 80.7468L57.851 86.7179L53.5519 80.7468ZM58.1431 77.5683L62.2244 83.6903L62.3015 83.6389L62.3774 83.5855L58.1431 77.5683ZM62.7343 74.3015L58.5462 68.252L58.4903 68.2907L58.4351 68.3305L62.7343 74.3015ZM66.7074 71.5644L70.8622 77.6368L70.9066 77.6064L70.9505 77.5754L66.7074 71.5644ZM69.4445 70.0635L66.9698 63.1344L66.9698 63.1344L69.4445 70.0635ZM72.0933 69.4454L71.3612 62.1242L71.2708 62.1333L71.1807 62.1445L72.0933 69.4454ZM76.1547 69.3571L75.872 76.7094L76.0133 76.7148H76.1547V69.3571ZM80.1279 69.5337L79.2425 76.8379C79.2369 76.8373 78.3022 76.7278 77.3098 75.7921C76.2084 74.7536 75.9183 73.5403 75.8779 72.9536L83.2181 72.4474L90.5584 71.9411C90.4002 69.6475 89.5362 67.095 87.4048 65.0853C85.3823 63.1784 82.9614 62.4656 81.0133 62.2295L80.1279 69.5337ZM83.2181 72.4474L75.8645 72.6925C75.9801 76.1596 76.0675 80.2268 76.1259 84.9003L83.483 84.8083L90.8401 84.7163C90.7808 79.9719 90.6916 75.7985 90.5718 72.2022L83.2181 72.4474ZM83.483 84.8083L76.1259 84.9014C76.1843 89.5179 76.2136 94.3428 76.2136 99.3766H83.5713H90.929C90.929 94.2861 90.8994 89.3989 90.8401 84.7152L83.483 84.8083ZM83.5713 99.3766L76.2141 99.4631C76.2723 104.409 76.2723 109.295 76.2141 114.121L83.5713 114.21L90.9285 114.298C90.9881 109.353 90.988 104.35 90.9285 99.29L83.5713 99.3766ZM83.5713 114.21L76.2141 114.12C76.1553 118.941 76.0966 123.289 76.0379 127.166L83.3947 127.277L90.7516 127.388C90.8106 123.495 90.8695 119.132 90.9285 114.299L83.5713 114.21ZM83.3947 127.277L76.0389 127.11C76.0207 127.909 75.9241 128.375 75.8588 128.594C75.7985 128.796 75.7898 128.708 75.9564 128.507L81.6289 133.193L87.3014 137.879C89.8698 134.769 90.6713 130.931 90.7505 127.444L83.3947 127.277ZM81.6289 133.193L75.9564 128.507C76.1303 128.296 76.3114 128.14 76.4653 128.034C76.6146 127.931 76.711 127.894 76.7141 127.892C76.7145 127.892 76.6305 127.924 76.4351 127.96C76.2398 127.996 75.9565 128.032 75.5703 128.049L75.8899 135.4L76.2095 142.751C79.8755 142.591 84.2785 141.538 87.3014 137.879L81.6289 133.193ZM75.8899 135.4L75.5835 128.049C75.3966 128.056 75.2507 128.056 75.142 128.052C75.0329 128.048 74.9714 128.041 74.9514 128.039C74.931 128.036 74.965 128.039 75.0432 128.06C75.1215 128.08 75.2568 128.12 75.4331 128.196L72.5347 134.958L69.6364 141.721C71.8882 142.686 74.2522 142.832 76.1962 142.751L75.8899 135.4ZM72.5347 134.958L75.0094 128.029C75.2755 128.124 75.6002 128.286 75.9299 128.54C76.2616 128.797 76.5235 129.09 76.7143 129.376L70.5923 133.457L64.4703 137.539C65.8476 139.605 67.7948 141.078 70.0601 141.887L72.5347 134.958ZM70.5923 133.457L76.9477 129.75C77.0291 129.89 77.0512 129.964 77.0427 129.939C77.0339 129.912 77.0015 129.806 76.967 129.599L69.7094 130.809L62.4518 132.018C62.7316 133.697 63.2586 135.488 64.2369 137.165L70.5923 133.457ZM69.7094 130.809L76.967 129.599C76.8502 128.898 76.756 127.998 76.707 126.869L69.3562 127.189L62.0054 127.508C62.0741 129.087 62.2154 130.6 62.4518 132.018L69.7094 130.809ZM69.3562 127.189L76.7062 126.852C76.4132 120.465 76.1495 113.871 75.9149 107.069L68.5616 107.323L61.2082 107.576C61.4446 114.431 61.7106 121.08 62.0062 127.526L69.3562 127.189ZM68.5616 107.323L75.9169 107.134C75.7402 100.244 75.5635 93.5306 75.3868 86.9934L68.0318 87.1922L60.6768 87.391C60.8533 93.9211 61.0298 100.628 61.2063 107.511L68.5616 107.323ZM68.0318 87.1922L65.2019 80.4005C64.343 80.7583 63.3132 81.2255 62.145 81.7788L65.2948 88.4283L68.4445 95.0777C69.513 94.5716 70.3079 94.2147 70.8617 93.9839L68.0318 87.1922ZM65.2948 88.4283L62.4395 81.6472C61.248 82.1489 59.9775 82.7069 58.6301 83.3193L61.6748 90.0176L64.7194 96.7158C65.962 96.151 67.1048 95.6495 68.15 95.2094L65.2948 88.4283ZM61.6748 90.0176L58.5114 83.3746C57.4023 83.9028 56.2627 84.4064 55.0923 84.8852L57.8782 91.6951L60.6641 98.505C62.0836 97.9243 63.4751 97.3096 64.8381 96.6605L61.6748 90.0176ZM57.8782 91.6951L55.2589 84.8194C54.2902 85.1884 53.6388 85.3628 53.2554 85.4346L54.6114 92.6663L55.9673 99.898C57.4675 99.6167 58.994 99.1436 60.4975 98.5708L57.8782 91.6951ZM54.6114 92.6663L53.0956 85.4664C53.1767 85.4494 53.4943 85.3932 53.9789 85.4537C54.4918 85.5178 55.0787 85.7002 55.6422 86.0469L51.786 92.3132L47.9299 98.5794C50.7035 100.286 53.6872 100.38 56.1271 99.8662L54.6114 92.6663ZM51.786 92.3132L55.9741 86.2637C56.192 86.4146 56.3384 86.5484 56.4203 86.6304C56.5022 86.7123 56.535 86.7575 56.525 86.7444C56.5156 86.732 56.4756 86.6773 56.4094 86.5679C56.3436 86.4592 56.2594 86.3087 56.1596 86.109L49.5787 89.3995L42.9978 92.69C43.9193 94.5331 45.3368 96.7972 47.5979 98.3626L51.786 92.3132ZM49.5787 89.3995L56.1596 86.109C56.0643 85.9185 55.9997 85.7712 55.9575 85.665C55.9366 85.6125 55.9223 85.5729 55.9131 85.5456C55.9038 85.5182 55.9002 85.5053 55.9005 85.5061C55.9007 85.507 55.9054 85.524 55.912 85.5563C55.9186 85.5887 55.9276 85.6388 55.936 85.7057C55.9524 85.8374 55.9682 86.0496 55.9509 86.3268L48.6075 85.8678L41.2641 85.4088C41.0868 88.2459 42.0574 90.8092 42.9978 92.69L49.5787 89.3995ZM48.6075 85.8678L55.9148 86.7275C55.8914 86.9264 55.8144 87.3324 55.5637 87.8339C55.3018 88.3576 54.9121 88.8596 54.4145 89.2668L49.7553 83.5722L45.0961 77.8777C42.6804 79.8541 41.5923 82.5251 41.3002 85.0081L48.6075 85.8678ZM49.7553 83.5722L54.2725 89.38C55.2405 88.6271 56.4295 87.7414 57.851 86.7179L53.5519 80.7468L49.2527 74.7758C47.7311 75.8714 46.3891 76.8692 45.2381 77.7644L49.7553 83.5722ZM53.5519 80.7468L57.851 86.7179C59.2472 85.7126 60.7048 84.7034 62.2244 83.6903L58.1431 77.5683L54.0617 71.4463C52.4028 72.5523 50.7996 73.662 49.2527 74.7758L53.5519 80.7468ZM58.1431 77.5683L62.3774 83.5855C63.9868 82.4529 65.5389 81.3486 67.0334 80.2725L62.7343 74.3015L58.4351 68.3305C56.9866 69.3734 55.4779 70.447 53.9088 71.5511L58.1431 77.5683ZM62.7343 74.3015L66.9224 80.3509C68.4454 79.2965 69.7582 78.3922 70.8622 77.6368L66.7074 71.5644L62.5527 65.4921C61.4199 66.2671 60.0839 67.1875 58.5462 68.252L62.7343 74.3015ZM66.7074 71.5644L70.9505 77.5754C71.2627 77.3551 71.5051 77.2067 71.68 77.1108C71.8568 77.0138 71.9345 76.9871 71.9192 76.9925L69.4445 70.0635L66.9698 63.1344C65.3229 63.7226 63.8107 64.6031 62.4644 65.5534L66.7074 71.5644ZM69.4445 70.0635L71.9192 76.9925C72.1971 76.8933 72.5523 76.803 73.0059 76.7463L72.0933 69.4454L71.1807 62.1445C69.7507 62.3233 68.34 62.645 66.9698 63.1344L69.4445 70.0635ZM72.0933 69.4454L72.8254 76.7666C73.5842 76.6907 74.5873 76.66 75.872 76.7094L76.1547 69.3571L76.4375 62.0048C74.6613 61.9365 72.9569 61.9646 71.3612 62.1242L72.0933 69.4454ZM76.1547 69.3571V76.7148C77.5127 76.7148 78.5675 76.7678 79.3577 76.851L80.1279 69.5337L80.8981 62.2164C79.4515 62.0641 77.8576 61.9994 76.1547 61.9994V69.3571Z" fill="#E2A003" mask="url(#path-13-outside-1_3576_6885)"/>
<path d="M2.72754 178.07L37.2912 170.354L43.4632 196.894L9.51682 203.684L13.8373 189.179L2.72754 178.07Z" fill="#F3AD06"/>
<path d="M149.628 178.07L115.064 170.354L108.892 196.894L142.839 203.684L138.518 189.179L149.628 178.07Z" fill="#F3AD06"/>
<path d="M108.888 196.892L110.74 183.313L128.33 186.559L108.888 196.892Z" fill="#DF9D00"/>
<path d="M133.583 160.785C89.1613 150.111 64.0155 150.492 18.7822 160.785L24.3371 186.708C64.9526 179.708 87.7209 179.013 128.337 186.708L133.583 160.785Z" fill="#FFB608"/>
<path d="M43.4625 196.892L41.6109 183.93L24.3291 186.708L43.4625 196.892Z" fill="#DF9D00"/>
<path d="M73.5675 6.25303C74.8632 3.71407 78.4911 3.71407 79.7868 6.25303L84.4166 15.3252C84.9239 16.3192 85.8758 17.0108 86.9779 17.1861L97.0367 18.7859C99.8518 19.2336 100.973 22.6839 98.9586 24.7008L91.7612 31.9074C90.9726 32.6971 90.609 33.8161 90.7828 34.9184L92.3697 44.9793C92.8138 47.795 89.8788 49.9274 87.3382 48.6349L78.2601 44.0167C77.2654 43.5107 76.0888 43.5107 75.0942 44.0167L66.0161 48.6349C63.4754 49.9274 60.5404 47.795 60.9845 44.9793L62.5714 34.9184C62.7453 33.8161 62.3817 32.6971 61.5931 31.9074L54.3956 24.7008C52.3813 22.6839 53.5024 19.2336 56.3175 18.7859L66.3764 17.1861C67.4785 17.0108 68.4304 16.3192 68.9377 15.3252L73.5675 6.25303Z" fill="url(#paint9_radial_3576_6885)"/>
<path d="M75.1224 9.5418C75.7703 8.27231 77.5842 8.27232 78.2321 9.5418L82.9211 18.73C83.1747 19.227 83.6507 19.5728 84.2018 19.6604L94.3892 21.2806C95.7967 21.5045 96.3573 23.2296 95.3501 24.2381L88.0607 31.5369C87.6664 31.9317 87.4846 32.4912 87.5715 33.0424L89.1787 43.2319C89.4007 44.6397 87.9332 45.7059 86.6629 45.0597L77.4687 40.3825C76.9714 40.1295 76.3831 40.1295 75.8858 40.3825L66.6916 45.0597C65.4213 45.7059 63.9538 44.6397 64.1759 43.2319L65.783 33.0424C65.87 32.4912 65.6882 31.9317 65.2939 31.5369L58.0044 24.2381C56.9972 23.2296 57.5578 21.5045 58.9653 21.2806L69.1528 19.6604C69.7038 19.5728 70.1798 19.227 70.4334 18.73L75.1224 9.5418Z" fill="url(#paint10_radial_3576_6885)"/>
<path d="M80.4282 20.5276C80.0864 18.3267 82.3158 18.1682 83.4733 18.3641C84.6307 18.56 87.7843 19.2724 91.1392 20.5545C95.3327 22.1572 94.1708 23.7465 93.1557 24.4677C91.7203 25.4875 89.5365 24.748 86.9322 24.3073C84.3279 23.8665 80.8556 23.2788 80.4282 20.5276Z" fill="url(#paint11_radial_3576_6885)"/>
<path d="M93.0206 21.7811C93.091 19.6499 94.0494 19.2763 94.5198 19.3559C94.9902 19.4356 96.2544 19.8281 97.5481 20.7615C99.1653 21.9281 98.5186 23.6046 98.0189 24.413C97.3121 25.5562 96.4607 25.0422 95.4023 24.8631C94.3439 24.6839 92.9326 24.4451 93.0206 21.7811Z" fill="url(#paint12_radial_3576_6885)" fill-opacity="0.56"/>
<path d="M63.7759 19.945C63.0896 18.5924 64.35 17.9971 65.0659 17.8686C65.7819 17.74 67.7722 17.5056 70.0057 17.5966C72.7976 17.7103 72.4745 18.9982 72.0445 19.6903C71.4364 20.6692 70.0036 20.6717 68.3926 20.961C66.7817 21.2502 64.6337 21.6359 63.7759 19.945Z" fill="url(#paint13_radial_3576_6885)" fill-opacity="0.5"/>
<path d="M69.4469 44.1671C68.3258 43.1454 69.2935 42.1421 69.9175 41.7682C70.5415 41.3943 72.3196 40.4699 74.4404 39.7636C77.0914 38.8806 77.2457 40.1995 77.0888 40.9991C76.867 42.1299 75.528 42.64 74.1241 43.4813C72.7201 44.3225 70.8482 45.4443 69.4469 44.1671Z" fill="url(#paint14_radial_3576_6885)" fill-opacity="0.5"/>
<path d="M86.2868 32.6357C88.1562 31.4248 89.2114 33.3951 89.5053 34.5317C89.7992 35.6682 90.4369 38.8377 90.6367 42.4237C90.8864 46.9061 88.9612 46.4945 87.8883 45.8625C86.3712 44.9688 86.1543 42.6734 85.493 40.1162C84.8317 37.559 83.95 34.1494 86.2868 32.6357Z" fill="url(#paint15_radial_3576_6885)"/>
<path d="M78.5386 11.5438C80.152 10.0083 81.5531 11.7497 82.0519 12.8124C82.5507 13.875 83.7631 16.8721 84.622 20.3594C85.6957 24.7185 83.7276 24.6698 82.5564 24.2469C80.9002 23.6489 80.263 21.4331 79.1406 19.0421C78.0182 16.6511 76.5217 13.4631 78.5386 11.5438Z" fill="url(#paint16_radial_3576_6885)"/>
<defs>
<linearGradient id="paint0_linear_3576_6885" x1="13.2158" y1="-20.0749" x2="160.37" y2="233.766" gradientUnits="userSpaceOnUse">
<stop stop-color="#FFD900"/>
<stop offset="1" stop-color="#FFA600"/>
</linearGradient>
<linearGradient id="paint1_linear_3576_6885" x1="80.3554" y1="17.6339" x2="340.634" y2="219.051" gradientUnits="userSpaceOnUse">
<stop stop-color="#FFD900"/>
<stop offset="1" stop-color="#FFA600"/>
</linearGradient>
<linearGradient id="paint2_linear_3576_6885" x1="72.078" y1="187.78" x2="-69.5578" y2="84.772" gradientUnits="userSpaceOnUse">
<stop stop-color="#FFD900"/>
<stop offset="0.576923" stop-color="#FFA600"/>
</linearGradient>
<linearGradient id="paint3_linear_3576_6885" x1="382.022" y1="-117.565" x2="-11.6156" y2="143.633" gradientUnits="userSpaceOnUse">
<stop stop-color="white" stop-opacity="0.4"/>
<stop offset="1" stop-color="white" stop-opacity="0"/>
</linearGradient>
<linearGradient id="paint4_linear_3576_6885" x1="66.5601" y1="248.482" x2="183.364" y2="9.35673" gradientUnits="userSpaceOnUse">
<stop stop-color="white" stop-opacity="0.13"/>
<stop offset="1" stop-color="white" stop-opacity="0"/>
</linearGradient>
<radialGradient id="paint5_radial_3576_6885" cx="0" cy="0" r="1" gradientTransform="matrix(-13.7957 21.1534 -10.4798 -7.30906 125.423 136.276)" gradientUnits="userSpaceOnUse">
<stop stop-color="white" stop-opacity="0.1"/>
<stop offset="1" stop-color="white" stop-opacity="0"/>
</radialGradient>
<radialGradient id="paint6_radial_3576_6885" cx="0" cy="0" r="1" gradientTransform="matrix(25.1908 1.79199 -1.30252 12.7103 71.3036 14.447)" gradientUnits="userSpaceOnUse">
<stop stop-color="white" stop-opacity="0.1"/>
<stop offset="1" stop-color="white" stop-opacity="0"/>
</radialGradient>
<radialGradient id="paint7_radial_3576_6885" cx="0" cy="0" r="1" gradientTransform="matrix(13.3137 -21.46 10.6425 7.07014 136.015 69.5224)" gradientUnits="userSpaceOnUse">
<stop stop-color="white" stop-opacity="0.1"/>
<stop offset="1" stop-color="white" stop-opacity="0"/>
</radialGradient>
<radialGradient id="paint8_radial_3576_6885" cx="0" cy="0" r="1" gradientUnits="userSpaceOnUse" gradientTransform="translate(75.3137 30.5089) scale(27.5914 16.9994)">
<stop stop-color="white" stop-opacity="0.22"/>
<stop offset="1" stop-color="white" stop-opacity="0"/>
</radialGradient>
<radialGradient id="paint9_radial_3576_6885" cx="0" cy="0" r="1" gradientUnits="userSpaceOnUse" gradientTransform="translate(76.6771 28.6708) rotate(90) scale(28.5111)">
<stop stop-color="#FFE86C"/>
<stop offset="1" stop-color="#FF9900"/>
</radialGradient>
<radialGradient id="paint10_radial_3576_6885" cx="0" cy="0" r="1" gradientUnits="userSpaceOnUse" gradientTransform="translate(76.6773 28.6704) rotate(90) scale(22.1753)">
<stop stop-color="#FFF5BC"/>
<stop offset="0.765" stop-color="#FFA800"/>
</radialGradient>
<radialGradient id="paint11_radial_3576_6885" cx="0" cy="0" r="1" gradientUnits="userSpaceOnUse" gradientTransform="translate(87.2214 21.7026) rotate(99.6063) scale(2.66619 7.03148)">
<stop stop-color="white"/>
<stop offset="0.84" stop-color="white" stop-opacity="0"/>
</radialGradient>
<radialGradient id="paint12_radial_3576_6885" cx="0" cy="0" r="1" gradientUnits="userSpaceOnUse" gradientTransform="translate(95.779 22.2732) rotate(99.6063) scale(2.66619 2.85773)">
<stop stop-color="white"/>
<stop offset="0.84" stop-color="white" stop-opacity="0"/>
</radialGradient>
<radialGradient id="paint13_radial_3576_6885" cx="0" cy="0" r="1" gradientUnits="userSpaceOnUse" gradientTransform="translate(67.9835 19.2069) rotate(79.8213) scale(1.83292 4.3571)">
<stop stop-color="white"/>
<stop offset="0.84" stop-color="white" stop-opacity="0"/>
</radialGradient>
<radialGradient id="paint14_radial_3576_6885" cx="0" cy="0" r="1" gradientUnits="userSpaceOnUse" gradientTransform="translate(73.12 41.986) rotate(59.0688) scale(1.83292 4.3571)">
<stop stop-color="white"/>
<stop offset="0.84" stop-color="white" stop-opacity="0"/>
</radialGradient>
<radialGradient id="paint15_radial_3576_6885" cx="0" cy="0" r="1" gradientUnits="userSpaceOnUse" gradientTransform="translate(87.9887 39.3164) rotate(165.501) scale(2.66619 7.03148)">
<stop stop-color="white"/>
<stop offset="0.84" stop-color="white" stop-opacity="0"/>
</radialGradient>
<radialGradient id="paint16_radial_3576_6885" cx="0" cy="0" r="1" gradientUnits="userSpaceOnUse" gradientTransform="translate(81.4455 17.7949) rotate(154.854) scale(2.66619 7.03148)">
<stop stop-color="white"/>
<stop offset="0.84" stop-color="white" stop-opacity="0"/>
</radialGradient>
</defs>
</svg>
