<svg width="198" height="208" viewBox="0 0 198 208" fill="none" xmlns="http://www.w3.org/2000/svg">
<path d="M13.7002 75.4243C26.5992 82.7749 31.097 99.1903 23.7465 112.089C10.8475 104.739 6.34966 88.3233 13.7002 75.4243Z" fill="#0BF5D3"/>
<path d="M39.1045 96.8174C45.0368 107.767 40.9692 121.453 30.0191 127.386C24.0867 116.436 28.1544 102.75 39.1045 96.8174Z" fill="#0BF5D3"/>
<path d="M3.51855 108.31C15.8707 106.722 27.1712 115.449 28.7588 127.801C16.4066 129.389 5.10618 120.662 3.51855 108.31Z" fill="#00DDBD"/>
<path d="M46.1514 117.827C54.261 127.278 53.1732 141.514 43.7216 149.624C35.612 140.172 36.6998 125.936 46.1514 117.827Z" fill="#0BF5D3"/>
<path d="M23.4141 109.7C25.0811 118.869 33.1665 140.395 52.1712 153.148" stroke="#0BF5D3" stroke-width="1.40178" stroke-linecap="round" stroke-linejoin="round"/>
<path d="M13.4141 142.5C23.8988 135.78 37.8465 138.831 44.5673 149.316C34.0825 156.037 20.1348 152.985 13.4141 142.5Z" fill="#00DDBD"/>
<path d="M184.43 75.4243C171.531 82.7749 167.033 99.1903 174.383 112.089C187.282 104.739 191.78 88.3233 184.43 75.4243Z" fill="#0BF5D3"/>
<path d="M159.025 96.8174C153.093 107.767 157.161 121.453 168.111 127.386C174.043 116.436 169.975 102.75 159.025 96.8174Z" fill="#0BF5D3"/>
<path d="M194.614 108.31C182.262 106.722 170.962 115.449 169.374 127.801C181.726 129.389 193.027 120.662 194.614 108.31Z" fill="#00DDBD"/>
<path d="M151.989 117.827C143.88 127.278 144.967 141.514 154.419 149.624C162.529 140.172 161.441 125.936 151.989 117.827Z" fill="#0BF5D3"/>
<path d="M174.726 109.7C173.059 118.869 164.973 140.395 145.968 153.148" stroke="#0BF5D3" stroke-width="1.40178" stroke-linecap="round" stroke-linejoin="round"/>
<path d="M184.728 142.503C174.243 135.783 160.295 138.834 153.574 149.319C164.059 156.039 178.007 152.988 184.728 142.503Z" fill="#00DDBD"/>
<path d="M101.56 7.36963L166.873 55.1947V150.845L101.56 198.67L36.2474 150.845V55.1947L101.56 7.36963Z" fill="#00FFDA"/>
<path d="M101.559 23.9229L155.721 63.4705V142.566L101.559 182.114L47.3974 142.566V63.4705L101.559 23.9229Z" fill="url(#paint0_linear_3576_7048)"/>
<path d="M102.274 23.9196L123.427 39.5545C102.57 59.3116 84.0012 49.3537 76.5217 42.3139L102.274 23.9196Z" fill="url(#paint1_radial_3576_7048)"/>
<path d="M47.2973 63.4698L36.2607 55.1924V150.843L47.2973 142.565V63.4698Z" fill="#71FFEA"/>
<path d="M155.824 63.4698L166.86 55.1924V150.843L155.824 142.565V63.4698Z" fill="#00FFDA"/>
<path d="M101.56 23.9245V7.36963L166.859 55.1947L155.823 63.4721L101.56 23.9245Z" fill="url(#paint2_linear_3576_7048)"/>
<path d="M101.56 182.115V198.67L36.2599 150.845L47.2965 142.567L101.56 182.115Z" fill="url(#paint3_linear_3576_7048)"/>
<path d="M135.589 48.7539L47.2969 114.054V142.565L155.823 63.4693L135.589 48.7539Z" fill="url(#paint4_linear_3576_7048)"/>
<path d="M67.5315 157.28L60.1738 151.762L155.824 79.1045V88.3016L67.5315 157.28Z" fill="url(#paint5_linear_3576_7048)"/>
<path d="M155.824 142.566L135.591 157.281C128.443 129.456 146.039 115.337 155.824 112.215L155.824 142.566Z" fill="url(#paint6_radial_3576_7048)"/>
<path d="M100.505 7.15414L123.192 17.6997C102.335 37.4567 81.4497 28.9278 73.9703 21.888L100.505 7.15414Z" fill="url(#paint7_radial_3576_7048)"/>
<path d="M155.825 63.4707L176.972 47.8731C184.748 75.5298 165.537 88.6391 155.824 91.9811L155.825 63.4707Z" fill="url(#paint8_radial_3576_7048)"/>
<path d="M97.6104 6.10166C98.9062 3.5627 102.534 3.5627 103.83 6.10166L108.46 15.1738C108.967 16.1678 109.919 16.8594 111.021 17.0347L121.08 18.6345C123.895 19.0822 125.016 22.5325 123.002 24.5494L115.804 31.7561C115.016 32.5457 114.652 33.6647 114.826 34.7671L116.413 44.8279C116.857 47.6436 113.922 49.776 111.381 48.4836L102.303 43.8654C101.308 43.3594 100.132 43.3594 99.1371 43.8654L90.059 48.4836C87.5184 49.776 84.5834 47.6436 85.0275 44.8279L86.6144 34.7671C86.7883 33.6647 86.4247 32.5457 85.6361 31.7561L78.4386 24.5494C76.4243 22.5325 77.5454 19.0822 80.3605 18.6345L90.4193 17.0347C91.5214 16.8594 92.4733 16.1678 92.9806 15.1738L97.6104 6.10166Z" fill="url(#paint9_radial_3576_7048)"/>
<path d="M99.1644 9.39043C99.8123 8.12095 101.626 8.12095 102.274 9.39043L106.963 18.5786C107.217 19.0756 107.693 19.4214 108.244 19.509L118.431 21.1293C119.839 21.3531 120.399 23.0783 119.392 24.0867L112.103 31.3855C111.708 31.7803 111.527 32.3399 111.613 32.891L113.221 43.0805C113.443 44.4884 111.975 45.5546 110.705 44.9083L101.511 40.2311C101.013 39.9781 100.425 39.9781 99.9278 40.2311L90.7336 44.9083C89.4633 45.5546 87.9958 44.4884 88.2178 43.0805L89.825 32.891C89.9119 32.3399 89.7302 31.7803 89.3359 31.3855L82.0464 24.0867C81.0392 23.0783 81.5998 21.3531 83.0073 21.1293L93.1948 19.509C93.7458 19.4214 94.2218 19.0756 94.4754 18.5786L99.1644 9.39043Z" fill="url(#paint10_radial_3576_7048)"/>
<path d="M104.472 20.3762C104.13 18.1753 106.36 18.0168 107.517 18.2127C108.675 18.4086 111.828 19.121 115.183 20.4032C119.377 22.0059 118.215 23.5951 117.2 24.3163C115.764 25.3362 113.58 24.5967 110.976 24.1559C108.372 23.7151 104.9 23.1274 104.472 20.3762Z" fill="url(#paint11_radial_3576_7048)"/>
<path d="M117.064 21.6297C117.134 19.4985 118.092 19.125 118.563 19.2046C119.033 19.2842 120.297 19.6768 121.591 20.6101C123.208 21.7767 122.562 23.4532 122.062 24.2616C121.355 25.4048 120.504 24.8908 119.445 24.7117C118.387 24.5325 116.976 24.2937 117.064 21.6297Z" fill="url(#paint12_radial_3576_7048)" fill-opacity="0.56"/>
<path d="M87.8188 19.7937C87.1325 18.441 88.3929 17.8457 89.1089 17.7172C89.8249 17.5886 91.8152 17.3543 94.0487 17.4452C96.8406 17.5589 96.5175 18.8468 96.0875 19.539C95.4794 20.5178 94.0465 20.5204 92.4356 20.8096C90.8246 21.0988 88.6767 21.4845 87.8188 19.7937Z" fill="url(#paint13_radial_3576_7048)" fill-opacity="0.5"/>
<path d="M93.4908 44.0157C92.3698 42.994 93.3375 41.9908 93.9614 41.6169C94.5854 41.243 96.3635 40.3186 98.4844 39.6122C101.135 38.7293 101.29 40.0481 101.133 40.8477C100.911 41.9786 99.572 42.4886 98.168 43.3299C96.7641 44.1712 94.8922 45.2929 93.4908 44.0157Z" fill="url(#paint14_radial_3576_7048)" fill-opacity="0.5"/>
<path d="M110.331 32.4844C112.2 31.2734 113.255 33.2438 113.549 34.3803C113.843 35.5168 114.481 38.6864 114.681 42.2723C114.93 46.7547 113.005 46.3431 111.932 45.7112C110.415 44.8174 110.198 42.522 109.537 39.9648C108.876 37.4076 107.994 33.998 110.331 32.4844Z" fill="url(#paint15_radial_3576_7048)"/>
<path d="M102.581 11.3924C104.194 9.8569 105.595 11.5983 106.094 12.661C106.593 13.7237 107.805 16.7208 108.664 20.2081C109.738 24.5671 107.77 24.5184 106.598 24.0955C104.942 23.4975 104.305 21.2817 103.183 18.8907C102.06 16.4997 100.564 13.3118 102.581 11.3924Z" fill="url(#paint16_radial_3576_7048)"/>
<path d="M71.4945 31.3941C72.3694 29.6798 74.8189 29.6798 75.6938 31.3941C76.0364 32.0653 76.6791 32.5322 77.4232 32.6506C79.324 32.9529 80.081 35.2826 78.7209 36.6444C78.1884 37.1776 77.9429 37.9331 78.0603 38.6775C78.3602 40.5786 76.3785 42.0184 74.663 41.1458C73.9914 40.8041 73.1969 40.8041 72.5253 41.1458C70.8099 42.0184 68.8281 40.5786 69.128 38.6775C69.2454 37.9331 68.9999 37.1776 68.4674 36.6444C67.1073 35.2826 67.8643 32.9529 69.7651 32.6506C70.5092 32.5322 71.152 32.0653 71.4945 31.3941Z" fill="url(#paint17_radial_3576_7048)"/>
<path d="M72.0416 32.2879C72.6895 31.0184 74.5034 31.0184 75.1513 32.2879L75.2498 32.481C75.5035 32.978 75.9794 33.3238 76.5305 33.4115L76.7447 33.4455C78.1522 33.6694 78.7127 35.3946 77.7056 36.403L77.5524 36.5564C77.1581 36.9512 76.9763 37.5107 77.0632 38.0619L77.097 38.2761C77.319 39.6839 75.8515 40.7501 74.5812 40.1039L74.3879 40.0056C73.8906 39.7526 73.3023 39.7526 72.805 40.0056L72.6117 40.1039C71.3414 40.7501 69.8739 39.6839 70.0959 38.2761L70.1297 38.0619C70.2167 37.5107 70.0349 36.9512 69.6406 36.5564L69.4873 36.403C68.4802 35.3946 69.0407 33.6694 70.4483 33.4455L70.6624 33.4115C71.2135 33.3238 71.6894 32.978 71.9431 32.481L72.0416 32.2879Z" fill="url(#paint18_radial_3576_7048)"/>
<path d="M74.7542 33.5815C74.6484 32.9005 75.3383 32.8514 75.6965 32.9121C76.0547 32.9727 77.0305 33.1931 78.0687 33.5899C79.3663 34.0858 79.0068 34.5776 78.6927 34.8008C78.2485 35.1164 77.5727 34.8875 76.7668 34.7511C75.9609 34.6148 74.8864 34.4329 74.7542 33.5815Z" fill="url(#paint19_radial_3576_7048)"/>
<path d="M78.6512 33.9699C78.6729 33.3104 78.9695 33.1948 79.1151 33.2195C79.2607 33.2441 79.6519 33.3656 80.0522 33.6544C80.5526 34.0154 80.3525 34.5342 80.1979 34.7843C79.9792 35.1381 79.7157 34.979 79.3882 34.9236C79.0606 34.8682 78.6239 34.7943 78.6512 33.9699Z" fill="url(#paint20_radial_3576_7048)" fill-opacity="0.56"/>
<path d="M69.6028 33.4014C69.3904 32.9828 69.7804 32.7986 70.002 32.7589C70.2236 32.7191 70.8395 32.6466 71.5306 32.6747C72.3945 32.7099 72.2946 33.1084 72.1615 33.3226C71.9733 33.6255 71.5299 33.6263 71.0314 33.7158C70.5329 33.8053 69.8683 33.9246 69.6028 33.4014Z" fill="url(#paint21_radial_3576_7048)" fill-opacity="0.5"/>
<path d="M71.3564 40.8971C71.0095 40.581 71.3089 40.2705 71.502 40.1548C71.6951 40.0391 72.2453 39.7531 72.9016 39.5345C73.7219 39.2613 73.7697 39.6694 73.7211 39.9168C73.6525 40.2667 73.2382 40.4246 72.8037 40.6849C72.3693 40.9452 71.79 41.2924 71.3564 40.8971Z" fill="url(#paint22_radial_3576_7048)" fill-opacity="0.5"/>
<path d="M76.568 37.3284C77.1465 36.9536 77.473 37.5633 77.5639 37.915C77.6549 38.2667 77.8522 39.2475 77.914 40.3572C77.9913 41.7443 77.3955 41.6169 77.0636 41.4213C76.5941 41.1448 76.527 40.4345 76.3223 39.6432C76.1177 38.8518 75.8449 37.7968 76.568 37.3284Z" fill="url(#paint23_radial_3576_7048)"/>
<path d="M74.1708 30.8014C74.6701 30.3262 75.1036 30.8651 75.258 31.1939C75.4123 31.5228 75.7875 32.4502 76.0533 33.5294C76.3855 34.8783 75.7765 34.8632 75.4141 34.7323C74.9016 34.5473 74.7044 33.8616 74.3571 33.1217C74.0098 32.3818 73.5467 31.3953 74.1708 30.8014Z" fill="url(#paint24_radial_3576_7048)"/>
<path d="M126.038 31.3941C126.913 29.6798 129.363 29.6798 130.238 31.3941C130.58 32.0653 131.223 32.5322 131.967 32.6506C133.868 32.9529 134.625 35.2826 133.265 36.6444C132.732 37.1776 132.487 37.9331 132.604 38.6775C132.904 40.5786 130.922 42.0184 129.207 41.1458C128.535 40.8041 127.741 40.8041 127.069 41.1458C125.354 42.0184 123.372 40.5786 123.672 38.6775C123.789 37.9331 123.544 37.1776 123.011 36.6444C121.651 35.2826 122.408 32.9529 124.309 32.6506C125.053 32.5322 125.696 32.0653 126.038 31.3941Z" fill="url(#paint25_radial_3576_7048)"/>
<path d="M126.585 32.2879C127.232 31.0184 129.046 31.0184 129.694 32.2879L129.793 32.481C130.046 32.978 130.522 33.3238 131.073 33.4115L131.288 33.4455C132.695 33.6694 133.256 35.3946 132.249 36.403L132.095 36.5564C131.701 36.9512 131.519 37.5107 131.606 38.0619L131.64 38.2761C131.862 39.6839 130.394 40.7501 129.124 40.1039L128.931 40.0056C128.434 39.7526 127.845 39.7526 127.348 40.0056L127.155 40.1039C125.884 40.7501 124.417 39.6839 124.639 38.2761L124.673 38.0619C124.76 37.5107 124.578 36.9512 124.184 36.5564L124.03 36.403C123.023 35.3946 123.584 33.6694 124.991 33.4455L125.205 33.4115C125.756 33.3238 126.232 32.978 126.486 32.481L126.585 32.2879Z" fill="url(#paint26_radial_3576_7048)"/>
<path d="M129.299 33.5815C129.193 32.9005 129.883 32.8514 130.241 32.9121C130.6 32.9727 131.575 33.1931 132.614 33.5899C133.911 34.0858 133.552 34.5776 133.238 34.8008C132.793 35.1164 132.118 34.8875 131.312 34.7511C130.506 34.6148 129.431 34.4329 129.299 33.5815Z" fill="url(#paint27_radial_3576_7048)"/>
<path d="M133.194 33.9699C133.216 33.3104 133.512 33.1948 133.658 33.2195C133.804 33.2441 134.195 33.3656 134.595 33.6544C135.096 34.0154 134.895 34.5342 134.741 34.7843C134.522 35.1381 134.259 34.979 133.931 34.9236C133.604 34.8682 133.167 34.7943 133.194 33.9699Z" fill="url(#paint28_radial_3576_7048)" fill-opacity="0.56"/>
<path d="M124.147 33.4014C123.934 32.9828 124.324 32.7986 124.546 32.7589C124.768 32.7191 125.383 32.6466 126.075 32.6747C126.938 32.7099 126.839 33.1084 126.705 33.3226C126.517 33.6255 126.074 33.6263 125.575 33.7158C125.077 33.8053 124.412 33.9246 124.147 33.4014Z" fill="url(#paint29_radial_3576_7048)" fill-opacity="0.5"/>
<path d="M125.9 40.8971C125.553 40.581 125.853 40.2705 126.046 40.1548C126.239 40.0391 126.789 39.7531 127.446 39.5345C128.266 39.2613 128.314 39.6694 128.265 39.9168C128.196 40.2667 127.782 40.4246 127.348 40.6849C126.913 40.9452 126.334 41.2924 125.9 40.8971Z" fill="url(#paint30_radial_3576_7048)" fill-opacity="0.5"/>
<path d="M131.112 37.3284C131.69 36.9536 132.017 37.5633 132.108 37.915C132.199 38.2667 132.396 39.2475 132.458 40.3572C132.535 41.7443 131.939 41.6169 131.608 41.4213C131.138 41.1448 131.071 40.4345 130.866 39.6432C130.662 38.8518 130.389 37.7968 131.112 37.3284Z" fill="url(#paint31_radial_3576_7048)"/>
<path d="M128.714 30.8014C129.213 30.3262 129.647 30.8651 129.801 31.1939C129.955 31.5228 130.33 32.4502 130.596 33.5294C130.928 34.8783 130.319 34.8632 129.957 34.7323C129.445 34.5473 129.247 33.8616 128.9 33.1217C128.553 32.3818 128.09 31.3953 128.714 30.8014Z" fill="url(#paint32_radial_3576_7048)"/>
<mask id="path-49-outside-1_3576_7048" maskUnits="userSpaceOnUse" x="73.0605" y="61.7441" width="50" height="81" fill="black">
<rect fill="white" x="73.0605" y="61.7441" width="50" height="81"/>
<path d="M112.022 69.3809C113.965 69.6163 114.995 70.5875 115.113 72.2945C115.23 75.8262 115.319 79.9465 115.378 84.6555C115.436 89.3055 115.466 94.1616 115.466 99.2237C115.525 104.227 115.525 109.171 115.466 114.057C115.407 118.884 115.348 123.239 115.289 127.124C115.23 129.714 114.642 131.686 113.523 133.04C112.405 134.394 110.492 135.129 107.784 135.247C106.372 135.306 105.253 135.159 104.429 134.806C103.605 134.511 102.958 134.011 102.487 133.305C102.075 132.598 101.78 131.715 101.604 130.656C101.427 129.596 101.31 128.39 101.251 127.036C100.956 120.62 100.692 113.998 100.456 107.17C100.28 100.283 100.103 93.573 99.9264 87.0394C99.22 87.3337 98.3077 87.7457 97.1893 88.2755C96.0709 88.7464 94.8643 89.2761 93.5693 89.8647C92.3332 90.4533 91.0677 91.0125 89.7727 91.5423C88.5366 92.0132 87.4477 92.3369 86.5059 92.5135C85.3875 92.7489 84.4457 92.6312 83.6805 92.1603C82.9153 91.6306 82.1796 90.6594 81.4732 89.2467C80.7669 87.834 80.4431 86.6568 80.502 85.715C80.6197 84.7143 81.0023 83.9491 81.6498 83.4194C82.7093 82.5953 83.9748 81.6535 85.4464 80.594C86.9179 79.5345 88.4483 78.475 90.0376 77.4155C91.6269 76.2971 93.1573 75.2082 94.6288 74.1487C96.1592 73.0892 97.4836 72.1768 98.602 71.4116C99.6026 70.7053 100.515 70.2049 101.339 69.9106C102.163 69.6163 103.046 69.4103 103.988 69.2926C105.165 69.1749 106.519 69.1454 108.049 69.2043C109.58 69.2043 110.904 69.2631 112.022 69.3809Z"/>
</mask>
<path d="M112.022 69.3809C113.965 69.6163 114.995 70.5875 115.113 72.2945C115.23 75.8262 115.319 79.9465 115.378 84.6555C115.436 89.3055 115.466 94.1616 115.466 99.2237C115.525 104.227 115.525 109.171 115.466 114.057C115.407 118.884 115.348 123.239 115.289 127.124C115.23 129.714 114.642 131.686 113.523 133.04C112.405 134.394 110.492 135.129 107.784 135.247C106.372 135.306 105.253 135.159 104.429 134.806C103.605 134.511 102.958 134.011 102.487 133.305C102.075 132.598 101.78 131.715 101.604 130.656C101.427 129.596 101.31 128.39 101.251 127.036C100.956 120.62 100.692 113.998 100.456 107.17C100.28 100.283 100.103 93.573 99.9264 87.0394C99.22 87.3337 98.3077 87.7457 97.1893 88.2755C96.0709 88.7464 94.8643 89.2761 93.5693 89.8647C92.3332 90.4533 91.0677 91.0125 89.7727 91.5423C88.5366 92.0132 87.4477 92.3369 86.5059 92.5135C85.3875 92.7489 84.4457 92.6312 83.6805 92.1603C82.9153 91.6306 82.1796 90.6594 81.4732 89.2467C80.7669 87.834 80.4431 86.6568 80.502 85.715C80.6197 84.7143 81.0023 83.9491 81.6498 83.4194C82.7093 82.5953 83.9748 81.6535 85.4464 80.594C86.9179 79.5345 88.4483 78.475 90.0376 77.4155C91.6269 76.2971 93.1573 75.2082 94.6288 74.1487C96.1592 73.0892 97.4836 72.1768 98.602 71.4116C99.6026 70.7053 100.515 70.2049 101.339 69.9106C102.163 69.6163 103.046 69.4103 103.988 69.2926C105.165 69.1749 106.519 69.1454 108.049 69.2043C109.58 69.2043 110.904 69.2631 112.022 69.3809Z" fill="white"/>
<path d="M112.022 69.3809L112.908 62.0766L112.85 62.0697L112.793 62.0636L112.022 69.3809ZM115.113 72.2945L122.466 72.0494L122.462 71.9187L122.453 71.7883L115.113 72.2945ZM115.378 84.6555L108.02 84.7474L108.02 84.7486L115.378 84.6555ZM115.466 99.2237H108.108V99.267L108.109 99.3103L115.466 99.2237ZM115.466 114.057L122.823 114.147L122.823 114.146L115.466 114.057ZM115.289 127.124L122.645 127.291L122.646 127.263L122.646 127.236L115.289 127.124ZM113.523 133.04L107.851 128.354L107.851 128.354L113.523 133.04ZM107.784 135.247L108.091 142.598L108.104 142.598L107.784 135.247ZM104.429 134.806L107.328 128.043L107.118 127.953L106.904 127.877L104.429 134.806ZM102.487 133.305L96.1314 137.012L96.2425 137.202L96.3649 137.386L102.487 133.305ZM101.604 130.656L108.862 129.446L108.862 129.446L101.604 130.656ZM101.251 127.036L108.602 126.716L108.601 126.707L108.601 126.699L101.251 127.036ZM100.456 107.17L93.1008 107.359L93.1017 107.391L93.1028 107.424L100.456 107.17ZM99.9264 87.0394L107.281 86.8406L106.992 76.1246L97.0965 80.2476L99.9264 87.0394ZM97.1893 88.2755L100.045 95.0566L100.193 94.994L100.339 94.9249L97.1893 88.2755ZM93.5693 89.8647L90.5247 83.1665L90.4651 83.1936L90.406 83.2217L93.5693 89.8647ZM89.7727 91.5423L92.392 98.418L92.4757 98.3861L92.5586 98.3522L89.7727 91.5423ZM86.5059 92.5135L85.15 85.2818L85.0699 85.2968L84.9901 85.3136L86.5059 92.5135ZM83.6805 92.1603L79.4925 98.2098L79.6555 98.3227L79.8244 98.4266L83.6805 92.1603ZM81.4732 89.2467L88.0542 85.9562L88.0542 85.9562L81.4732 89.2467ZM80.502 85.715L73.1947 84.8553L73.1712 85.0552L73.1586 85.256L80.502 85.715ZM81.6498 83.4194L77.1326 77.6116L77.0609 77.6673L76.9906 77.7248L81.6498 83.4194ZM85.4464 80.594L89.7455 86.565L85.4464 80.594ZM90.0376 77.4155L94.1189 83.5375L94.1961 83.486L94.2719 83.4327L90.0376 77.4155ZM94.6288 74.1487L90.4407 68.0992L90.3848 68.1379L90.3297 68.1776L94.6288 74.1487ZM98.602 71.4116L102.757 77.484L102.801 77.4536L102.845 77.4226L98.602 71.4116ZM101.339 69.9106L98.8644 62.9816L98.8644 62.9816L101.339 69.9106ZM103.988 69.2926L103.256 61.9714L103.165 61.9804L103.075 61.9917L103.988 69.2926ZM108.049 69.2043L107.766 76.5566L107.908 76.562H108.049V69.2043ZM112.022 69.3809L111.137 76.6851C111.131 76.6844 110.197 76.575 109.204 75.6393C108.103 74.6008 107.813 73.3874 107.772 72.8007L115.113 72.2945L122.453 71.7883C122.295 69.4946 121.431 66.9422 119.299 64.9325C117.277 63.0256 114.856 62.3128 112.908 62.0766L112.022 69.3809ZM115.113 72.2945L107.759 72.5396C107.875 76.0068 107.962 80.074 108.02 84.7474L115.378 84.6555L122.735 84.5635C122.675 79.8191 122.586 75.6457 122.466 72.0494L115.113 72.2945ZM115.378 84.6555L108.02 84.7486C108.079 89.3651 108.108 94.19 108.108 99.2237H115.466H122.824C122.824 94.1333 122.794 89.246 122.735 84.5623L115.378 84.6555ZM115.466 99.2237L108.109 99.3103C108.167 104.257 108.167 109.142 108.109 113.968L115.466 114.057L122.823 114.146C122.883 109.2 122.883 104.197 122.823 99.1372L115.466 99.2237ZM115.466 114.057L108.109 113.967C108.05 118.788 107.991 123.137 107.932 127.013L115.289 127.124L122.646 127.236C122.705 123.342 122.764 118.979 122.823 114.147L115.466 114.057ZM115.289 127.124L107.933 126.957C107.915 127.757 107.819 128.222 107.753 128.441C107.693 128.643 107.684 128.555 107.851 128.354L113.523 133.04L119.196 137.726C121.764 134.617 122.566 130.778 122.645 127.291L115.289 127.124ZM113.523 133.04L107.851 128.354C108.025 128.143 108.206 127.987 108.36 127.881C108.509 127.778 108.606 127.741 108.609 127.74C108.609 127.739 108.525 127.771 108.33 127.808C108.134 127.844 107.851 127.88 107.465 127.896L107.784 135.247L108.104 142.598C111.77 142.438 116.173 141.385 119.196 137.726L113.523 133.04ZM107.784 135.247L107.478 127.896C107.291 127.904 107.145 127.903 107.037 127.899C106.927 127.896 106.866 127.889 106.846 127.886C106.826 127.883 106.86 127.887 106.938 127.907C107.016 127.927 107.151 127.967 107.328 128.043L104.429 134.806L101.531 141.568C103.783 142.533 106.147 142.679 108.091 142.598L107.784 135.247ZM104.429 134.806L106.904 127.877C107.17 127.972 107.495 128.133 107.824 128.388C108.156 128.644 108.418 128.937 108.609 129.223L102.487 133.305L96.3649 137.386C97.7422 139.452 99.6894 140.926 101.955 141.735L104.429 134.806ZM102.487 133.305L108.842 129.597C108.924 129.737 108.946 129.812 108.937 129.786C108.928 129.76 108.896 129.653 108.862 129.446L101.604 130.656L94.3463 131.865C94.6261 133.544 95.1532 135.335 96.1314 137.012L102.487 133.305ZM101.604 130.656L108.862 129.446C108.745 128.746 108.651 127.845 108.602 126.716L101.251 127.036L93.9 127.355C93.9686 128.934 94.1099 130.447 94.3463 131.865L101.604 130.656ZM101.251 127.036L108.601 126.699C108.308 120.312 108.044 113.718 107.809 106.916L100.456 107.17L93.1028 107.424C93.3391 114.278 93.6051 120.928 93.9008 127.373L101.251 127.036ZM100.456 107.17L107.811 106.981C107.635 100.091 107.458 93.3778 107.281 86.8406L99.9264 87.0394L92.5713 87.2381C92.7478 93.7682 92.9243 100.475 93.1008 107.359L100.456 107.17ZM99.9264 87.0394L97.0965 80.2476C96.2376 80.6055 95.2078 81.0727 94.0396 81.626L97.1893 88.2755L100.339 94.9249C101.408 94.4188 102.202 94.0618 102.756 93.8311L99.9264 87.0394ZM97.1893 88.2755L94.3341 81.4943C93.1425 81.9961 91.872 82.5541 90.5247 83.1665L93.5693 89.8647L96.6139 96.5629C97.8565 95.9981 98.9993 95.4966 100.045 95.0566L97.1893 88.2755ZM93.5693 89.8647L90.406 83.2217C89.2968 83.7499 88.1572 84.2536 86.9869 84.7324L89.7727 91.5423L92.5586 98.3522C93.9781 97.7715 95.3696 97.1568 96.7326 96.5077L93.5693 89.8647ZM89.7727 91.5423L87.1534 84.6666C86.1847 85.0356 85.5334 85.2099 85.15 85.2818L86.5059 92.5135L87.8618 99.7452C89.362 99.4639 90.8885 98.9907 92.392 98.418L89.7727 91.5423ZM86.5059 92.5135L84.9901 85.3136C85.0713 85.2965 85.3888 85.2403 85.8734 85.3009C86.3863 85.365 86.9732 85.5473 87.5367 85.8941L83.6805 92.1603L79.8244 98.4266C82.598 100.133 85.5817 100.227 88.0217 99.7134L86.5059 92.5135ZM83.6805 92.1603L87.8686 86.1109C88.0866 86.2618 88.2329 86.3956 88.3148 86.4776C88.3968 86.5595 88.4295 86.6047 88.4196 86.5916C88.4101 86.5791 88.3701 86.5245 88.3039 86.4151C88.2381 86.3063 88.154 86.1558 88.0542 85.9562L81.4732 89.2467L74.8923 92.5371C75.8139 94.3803 77.2313 96.6444 79.4925 98.2098L83.6805 92.1603ZM81.4732 89.2467L88.0542 85.9562C87.9589 85.7657 87.8943 85.6184 87.852 85.5121C87.8312 85.4597 87.8169 85.4201 87.8076 85.3927C87.7983 85.3654 87.7948 85.3524 87.795 85.3533C87.7952 85.3541 87.7999 85.3711 87.8065 85.4035C87.8131 85.4358 87.8221 85.486 87.8305 85.5529C87.847 85.6846 87.8627 85.8968 87.8454 86.1739L80.502 85.715L73.1586 85.256C72.9813 88.0931 73.9519 90.6564 74.8923 92.5371L81.4732 89.2467ZM80.502 85.715L87.8093 86.5747C87.7859 86.7735 87.7089 87.1795 87.4582 87.6811C87.1963 88.2047 86.8066 88.7068 86.309 89.1139L81.6498 83.4194L76.9906 77.7248C74.5749 79.7013 73.4868 82.3723 73.1947 84.8553L80.502 85.715ZM81.6498 83.4194L86.167 89.2272C87.135 88.4743 88.324 87.5885 89.7455 86.565L85.4464 80.594L81.1472 74.623C79.6257 75.7185 78.2836 76.7163 77.1326 77.6116L81.6498 83.4194ZM85.4464 80.594L89.7455 86.565C91.1417 85.5598 92.5993 84.5506 94.1189 83.5375L90.0376 77.4155L85.9563 71.2935C84.2974 72.3994 82.6942 73.5092 81.1472 74.623L85.4464 80.594ZM90.0376 77.4155L94.2719 83.4327C95.8813 82.3001 97.4334 81.1958 98.9279 80.1197L94.6288 74.1487L90.3297 68.1776C88.8811 69.2206 87.3724 70.2941 85.8033 71.3983L90.0376 77.4155ZM94.6288 74.1487L98.8169 80.1981C100.34 79.1437 101.653 78.2393 102.757 77.484L98.602 71.4116L94.4472 65.3392C93.3145 66.1142 91.9784 67.0346 90.4407 68.0992L94.6288 74.1487ZM98.602 71.4116L102.845 77.4226C103.157 77.2022 103.4 77.0539 103.575 76.9579C103.751 76.861 103.829 76.8342 103.814 76.8397L101.339 69.9106L98.8644 62.9816C97.2174 63.5698 95.7052 64.4502 94.3589 65.4006L98.602 71.4116ZM101.339 69.9106L103.814 76.8397C104.092 76.7404 104.447 76.6502 104.9 76.5935L103.988 69.2926L103.075 61.9917C101.645 62.1704 100.235 62.4922 98.8644 62.9816L101.339 69.9106ZM103.988 69.2926L104.72 76.6138C105.479 76.5379 106.482 76.5071 107.766 76.5566L108.049 69.2043L108.332 61.852C106.556 61.7837 104.851 61.8118 103.256 61.9714L103.988 69.2926ZM108.049 69.2043V76.562C109.407 76.562 110.462 76.615 111.252 76.6981L112.022 69.3809L112.793 62.0636C111.346 61.9113 109.752 61.8466 108.049 61.8466V69.2043Z" fill="#00BCA0" mask="url(#path-49-outside-1_3576_7048)"/>
<path d="M26.3916 182.219L60.9556 174.504L67.1277 201.044L33.181 207.833L37.5014 193.329L26.3916 182.219Z" fill="#00DDBD"/>
<path d="M173.292 182.219L138.728 174.504L132.556 201.044L166.503 207.833L162.182 193.329L173.292 182.219Z" fill="#00DDBD"/>
<path d="M132.553 201.041L134.405 187.462L151.995 190.709L132.553 201.041Z" fill="#17F0D1"/>
<path d="M157.248 164.936C112.826 154.261 87.68 154.643 42.4463 164.936L48.0012 190.859C88.6171 183.859 111.386 183.164 152.002 190.859L157.248 164.936Z" fill="#26FFDF"/>
<path d="M67.1268 201.043L65.2751 188.081L47.9932 190.859L67.1268 201.043Z" fill="#17F0D1"/>
<defs>
<linearGradient id="paint0_linear_3576_7048" x1="39.0186" y1="-20.2234" x2="186.173" y2="233.617" gradientUnits="userSpaceOnUse">
<stop stop-color="#00E3C2"/>
<stop offset="1" stop-color="#00FFDA"/>
</linearGradient>
<radialGradient id="paint1_radial_3576_7048" cx="0" cy="0" r="1" gradientUnits="userSpaceOnUse" gradientTransform="translate(102.274 30.3576) scale(27.5914 16.9994)">
<stop stop-color="white" stop-opacity="0.22"/>
<stop offset="1" stop-color="white" stop-opacity="0"/>
</radialGradient>
<linearGradient id="paint2_linear_3576_7048" x1="106.158" y1="17.4865" x2="366.437" y2="218.904" gradientUnits="userSpaceOnUse">
<stop stop-color="#00FFDA"/>
<stop offset="1" stop-color="#00B99E"/>
</linearGradient>
<linearGradient id="paint3_linear_3576_7048" x1="97.8807" y1="187.633" x2="-43.7551" y2="84.6255" gradientUnits="userSpaceOnUse">
<stop stop-color="#00B99E"/>
<stop offset="1" stop-color="#00FFDA"/>
</linearGradient>
<linearGradient id="paint4_linear_3576_7048" x1="407.824" y1="-117.714" x2="14.1872" y2="143.484" gradientUnits="userSpaceOnUse">
<stop stop-color="white" stop-opacity="0.82"/>
<stop offset="1" stop-color="white" stop-opacity="0"/>
</linearGradient>
<linearGradient id="paint5_linear_3576_7048" x1="92.3638" y1="248.332" x2="209.167" y2="9.20634" gradientUnits="userSpaceOnUse">
<stop stop-color="white" stop-opacity="0.38"/>
<stop offset="1" stop-color="white" stop-opacity="0"/>
</linearGradient>
<radialGradient id="paint6_radial_3576_7048" cx="0" cy="0" r="1" gradientTransform="matrix(-13.7957 21.1534 -10.4798 -7.30906 151.226 136.128)" gradientUnits="userSpaceOnUse">
<stop stop-color="white" stop-opacity="0.1"/>
<stop offset="1" stop-color="white" stop-opacity="0"/>
</radialGradient>
<radialGradient id="paint7_radial_3576_7048" cx="0" cy="0" r="1" gradientTransform="matrix(25.1908 1.79199 -1.30252 12.7103 97.1083 14.2995)" gradientUnits="userSpaceOnUse">
<stop stop-color="white" stop-opacity="0.1"/>
<stop offset="1" stop-color="white" stop-opacity="0"/>
</radialGradient>
<radialGradient id="paint8_radial_3576_7048" cx="0" cy="0" r="1" gradientTransform="matrix(13.3137 -21.46 10.6425 7.07014 161.819 69.374)" gradientUnits="userSpaceOnUse">
<stop stop-color="white" stop-opacity="0.1"/>
<stop offset="1" stop-color="white" stop-opacity="0"/>
</radialGradient>
<radialGradient id="paint9_radial_3576_7048" cx="0" cy="0" r="1" gradientUnits="userSpaceOnUse" gradientTransform="translate(100.72 28.5194) rotate(90) scale(28.5111)">
<stop stop-color="#FFE86C"/>
<stop offset="1" stop-color="#FF9900"/>
</radialGradient>
<radialGradient id="paint10_radial_3576_7048" cx="0" cy="0" r="1" gradientUnits="userSpaceOnUse" gradientTransform="translate(100.719 28.5191) rotate(90) scale(22.1753)">
<stop stop-color="#FFF5BC"/>
<stop offset="0.765" stop-color="#FFA800"/>
</radialGradient>
<radialGradient id="paint11_radial_3576_7048" cx="0" cy="0" r="1" gradientUnits="userSpaceOnUse" gradientTransform="translate(111.265 21.5512) rotate(99.6063) scale(2.66619 7.03148)">
<stop stop-color="white"/>
<stop offset="0.84" stop-color="white" stop-opacity="0"/>
</radialGradient>
<radialGradient id="paint12_radial_3576_7048" cx="0" cy="0" r="1" gradientUnits="userSpaceOnUse" gradientTransform="translate(119.822 22.1218) rotate(99.6063) scale(2.66619 2.85773)">
<stop stop-color="white"/>
<stop offset="0.84" stop-color="white" stop-opacity="0"/>
</radialGradient>
<radialGradient id="paint13_radial_3576_7048" cx="0" cy="0" r="1" gradientUnits="userSpaceOnUse" gradientTransform="translate(92.0265 19.0556) rotate(79.8213) scale(1.83292 4.3571)">
<stop stop-color="white"/>
<stop offset="0.84" stop-color="white" stop-opacity="0"/>
</radialGradient>
<radialGradient id="paint14_radial_3576_7048" cx="0" cy="0" r="1" gradientUnits="userSpaceOnUse" gradientTransform="translate(97.164 41.8346) rotate(59.0688) scale(1.83292 4.3571)">
<stop stop-color="white"/>
<stop offset="0.84" stop-color="white" stop-opacity="0"/>
</radialGradient>
<radialGradient id="paint15_radial_3576_7048" cx="0" cy="0" r="1" gradientUnits="userSpaceOnUse" gradientTransform="translate(112.033 39.165) rotate(165.501) scale(2.66619 7.03148)">
<stop stop-color="white"/>
<stop offset="0.84" stop-color="white" stop-opacity="0"/>
</radialGradient>
<radialGradient id="paint16_radial_3576_7048" cx="0" cy="0" r="1" gradientUnits="userSpaceOnUse" gradientTransform="translate(105.487 17.6435) rotate(154.854) scale(2.66619 7.03148)">
<stop stop-color="white"/>
<stop offset="0.84" stop-color="white" stop-opacity="0"/>
</radialGradient>
<radialGradient id="paint17_radial_3576_7048" cx="0" cy="0" r="1" gradientUnits="userSpaceOnUse" gradientTransform="translate(73.5942 36.1025) rotate(90) scale(8.82268)">
<stop stop-color="#FFE86C"/>
<stop offset="1" stop-color="#FF9900"/>
</radialGradient>
<radialGradient id="paint18_radial_3576_7048" cx="0" cy="0" r="1" gradientUnits="userSpaceOnUse" gradientTransform="translate(73.5965 36.1033) rotate(90) scale(6.86208)">
<stop stop-color="#FFF5BC"/>
<stop offset="0.765" stop-color="#FFA800"/>
</radialGradient>
<radialGradient id="paint19_radial_3576_7048" cx="0" cy="0" r="1" gradientUnits="userSpaceOnUse" gradientTransform="translate(76.8563 33.9451) rotate(99.6063) scale(0.825044 2.17587)">
<stop stop-color="white"/>
<stop offset="0.84" stop-color="white" stop-opacity="0"/>
</radialGradient>
<radialGradient id="paint20_radial_3576_7048" cx="0" cy="0" r="1" gradientUnits="userSpaceOnUse" gradientTransform="translate(79.5047 34.1222) rotate(99.6063) scale(0.825044 0.884315)">
<stop stop-color="white"/>
<stop offset="0.84" stop-color="white" stop-opacity="0"/>
</radialGradient>
<radialGradient id="paint21_radial_3576_7048" cx="0" cy="0" r="1" gradientUnits="userSpaceOnUse" gradientTransform="translate(70.9048 33.173) rotate(79.8213) scale(0.567193 1.34829)">
<stop stop-color="white"/>
<stop offset="0.84" stop-color="white" stop-opacity="0"/>
</radialGradient>
<radialGradient id="paint22_radial_3576_7048" cx="0" cy="0" r="1" gradientUnits="userSpaceOnUse" gradientTransform="translate(72.493 40.2222) rotate(59.0688) scale(0.567193 1.34829)">
<stop stop-color="white"/>
<stop offset="0.84" stop-color="white" stop-opacity="0"/>
</radialGradient>
<radialGradient id="paint23_radial_3576_7048" cx="0" cy="0" r="1" gradientUnits="userSpaceOnUse" gradientTransform="translate(77.0946 39.3957) rotate(165.501) scale(0.825044 2.17587)">
<stop stop-color="white"/>
<stop offset="0.84" stop-color="white" stop-opacity="0"/>
</radialGradient>
<radialGradient id="paint24_radial_3576_7048" cx="0" cy="0" r="1" gradientUnits="userSpaceOnUse" gradientTransform="translate(75.0703 32.7358) rotate(154.854) scale(0.825044 2.17587)">
<stop stop-color="white"/>
<stop offset="0.84" stop-color="white" stop-opacity="0"/>
</radialGradient>
<radialGradient id="paint25_radial_3576_7048" cx="0" cy="0" r="1" gradientUnits="userSpaceOnUse" gradientTransform="translate(128.138 36.1025) rotate(90) scale(8.82268)">
<stop stop-color="#FFE86C"/>
<stop offset="1" stop-color="#FF9900"/>
</radialGradient>
<radialGradient id="paint26_radial_3576_7048" cx="0" cy="0" r="1" gradientUnits="userSpaceOnUse" gradientTransform="translate(128.139 36.1033) rotate(90) scale(6.86208)">
<stop stop-color="#FFF5BC"/>
<stop offset="0.765" stop-color="#FFA800"/>
</radialGradient>
<radialGradient id="paint27_radial_3576_7048" cx="0" cy="0" r="1" gradientUnits="userSpaceOnUse" gradientTransform="translate(131.401 33.9451) rotate(99.6063) scale(0.825044 2.17587)">
<stop stop-color="white"/>
<stop offset="0.84" stop-color="white" stop-opacity="0"/>
</radialGradient>
<radialGradient id="paint28_radial_3576_7048" cx="0" cy="0" r="1" gradientUnits="userSpaceOnUse" gradientTransform="translate(134.048 34.1222) rotate(99.6063) scale(0.825044 0.884315)">
<stop stop-color="white"/>
<stop offset="0.84" stop-color="white" stop-opacity="0"/>
</radialGradient>
<radialGradient id="paint29_radial_3576_7048" cx="0" cy="0" r="1" gradientUnits="userSpaceOnUse" gradientTransform="translate(125.449 33.173) rotate(79.8213) scale(0.567193 1.34829)">
<stop stop-color="white"/>
<stop offset="0.84" stop-color="white" stop-opacity="0"/>
</radialGradient>
<radialGradient id="paint30_radial_3576_7048" cx="0" cy="0" r="1" gradientUnits="userSpaceOnUse" gradientTransform="translate(127.037 40.2222) rotate(59.0688) scale(0.567193 1.34829)">
<stop stop-color="white"/>
<stop offset="0.84" stop-color="white" stop-opacity="0"/>
</radialGradient>
<radialGradient id="paint31_radial_3576_7048" cx="0" cy="0" r="1" gradientUnits="userSpaceOnUse" gradientTransform="translate(131.639 39.3957) rotate(165.501) scale(0.825044 2.17587)">
<stop stop-color="white"/>
<stop offset="0.84" stop-color="white" stop-opacity="0"/>
</radialGradient>
<radialGradient id="paint32_radial_3576_7048" cx="0" cy="0" r="1" gradientUnits="userSpaceOnUse" gradientTransform="translate(129.613 32.7358) rotate(154.854) scale(0.825044 2.17587)">
<stop stop-color="white"/>
<stop offset="0.84" stop-color="white" stop-opacity="0"/>
</radialGradient>
</defs>
</svg>
