<svg width="199" height="208" viewBox="0 0 199 208" fill="none" xmlns="http://www.w3.org/2000/svg">
<path d="M14.0029 75.4243C26.9019 82.7749 31.3998 99.1903 24.0492 112.089C11.1503 104.739 6.65239 88.3233 14.0029 75.4243Z" fill="#0BF5D3"/>
<path d="M39.4072 96.8174C45.3396 107.767 41.2719 121.453 30.3218 127.386C24.3895 116.436 28.4571 102.75 39.4072 96.8174Z" fill="#0BF5D3"/>
<path d="M3.82227 108.31C16.1745 106.722 27.4749 115.449 29.0625 127.801C16.7103 129.389 5.40989 120.662 3.82227 108.31Z" fill="#00DDBD"/>
<path d="M46.4541 117.827C54.5637 127.278 53.4759 141.514 44.0244 149.624C35.9148 140.172 37.0026 125.936 46.4541 117.827Z" fill="#0BF5D3"/>
<path d="M23.7168 109.7C25.3839 118.869 33.4692 140.395 52.4739 153.148" stroke="#0BF5D3" stroke-width="1.40178" stroke-linecap="round" stroke-linejoin="round"/>
<path d="M13.7168 142.5C24.2015 135.78 38.1493 138.831 44.87 149.316C34.3853 156.037 20.4375 152.985 13.7168 142.5Z" fill="#00DDBD"/>
<path d="M184.732 75.4243C171.833 82.7749 167.336 99.1903 174.686 112.089C187.585 104.739 192.083 88.3233 184.732 75.4243Z" fill="#0BF5D3"/>
<path d="M159.328 96.8174C153.396 107.767 157.463 121.453 168.414 127.386C174.346 116.436 170.278 102.75 159.328 96.8174Z" fill="#0BF5D3"/>
<path d="M194.917 108.31C182.565 106.722 171.264 115.449 169.677 127.801C182.029 129.389 193.329 120.662 194.917 108.31Z" fill="#00DDBD"/>
<path d="M152.292 117.827C144.182 127.278 145.27 141.514 154.722 149.624C162.831 140.172 161.744 125.936 152.292 117.827Z" fill="#0BF5D3"/>
<path d="M175.028 109.7C173.361 118.869 165.276 140.395 146.271 153.148" stroke="#0BF5D3" stroke-width="1.40178" stroke-linecap="round" stroke-linejoin="round"/>
<path d="M185.03 142.503C174.546 135.783 160.598 138.834 153.877 149.319C164.362 156.039 178.31 152.988 185.03 142.503Z" fill="#00DDBD"/>
<path d="M101.863 7.36963L167.175 55.1947V150.845L101.863 198.67L36.5502 150.845V55.1947L101.863 7.36963Z" fill="#00FFDA"/>
<path d="M101.862 23.9229L156.023 63.4705V142.566L101.862 182.114L47.7001 142.566V63.4705L101.862 23.9229Z" fill="url(#paint0_linear_3576_6979)"/>
<path d="M102.576 23.9196L123.729 39.5545C102.873 59.3116 84.3039 49.3537 76.8245 42.3139L102.576 23.9196Z" fill="url(#paint1_radial_3576_6979)"/>
<path d="M47.6 63.4698L36.5635 55.1924V150.843L47.6 142.565V63.4698Z" fill="#71FFEA"/>
<path d="M156.127 63.4698L167.163 55.1924V150.843L156.127 142.565V63.4698Z" fill="#00FFDA"/>
<path d="M101.862 23.9245V7.36963L167.162 55.1947L156.125 63.4721L101.862 23.9245Z" fill="url(#paint2_linear_3576_6979)"/>
<path d="M101.862 182.115V198.67L36.5627 150.845L47.5992 142.567L101.862 182.115Z" fill="url(#paint3_linear_3576_6979)"/>
<path d="M135.892 48.7539L47.5996 114.054V142.565L156.126 63.4693L135.892 48.7539Z" fill="url(#paint4_linear_3576_6979)"/>
<path d="M67.8343 157.28L60.4766 151.762L156.127 79.1045V88.3016L67.8343 157.28Z" fill="url(#paint5_linear_3576_6979)"/>
<path d="M156.127 142.566L135.894 157.281C128.746 129.456 146.342 115.337 156.127 112.215L156.127 142.566Z" fill="url(#paint6_radial_3576_6979)"/>
<path d="M100.807 7.15414L123.495 17.6997C102.638 37.4567 81.7524 28.9278 74.273 21.888L100.807 7.15414Z" fill="url(#paint7_radial_3576_6979)"/>
<path d="M156.127 63.4707L177.275 47.8731C185.05 75.5298 165.84 88.6391 156.127 91.9811L156.127 63.4707Z" fill="url(#paint8_radial_3576_6979)"/>
<path d="M97.9132 6.10166C99.2089 3.5627 102.837 3.5627 104.132 6.10166L108.762 15.1738C109.27 16.1678 110.221 16.8594 111.324 17.0347L121.382 18.6345C124.198 19.0822 125.319 22.5325 123.304 24.5494L116.107 31.7561C115.318 32.5457 114.955 33.6647 115.129 34.7671L116.715 44.8279C117.16 47.6436 114.225 49.776 111.684 48.4836L102.606 43.8654C101.611 43.3594 100.435 43.3594 99.4399 43.8654L90.3618 48.4836C87.8211 49.776 84.8861 47.6436 85.3302 44.8279L86.9171 34.7671C87.091 33.6647 86.7274 32.5457 85.9388 31.7561L78.7413 24.5494C76.7271 22.5325 77.8481 19.0822 80.6632 18.6345L90.7221 17.0347C91.8242 16.8594 92.7761 16.1678 93.2834 15.1738L97.9132 6.10166Z" fill="url(#paint9_radial_3576_6979)"/>
<path d="M99.4672 9.39043C100.115 8.12095 101.929 8.12095 102.577 9.39043L107.266 18.5786C107.519 19.0756 107.995 19.4214 108.546 19.509L118.734 21.1293C120.141 21.3531 120.702 23.0783 119.695 24.0867L112.405 31.3855C112.011 31.7803 111.829 32.3399 111.916 32.891L113.523 43.0805C113.745 44.4884 112.278 45.5546 111.008 44.9083L101.813 40.2311C101.316 39.9781 100.728 39.9781 100.231 40.2311L91.0363 44.9083C89.766 45.5546 88.2985 44.4884 88.5206 43.0805L90.1277 32.891C90.2147 32.3399 90.0329 31.7803 89.6386 31.3855L82.3491 24.0867C81.342 23.0783 81.9025 21.3531 83.31 21.1293L93.4975 19.509C94.0486 19.4214 94.5245 19.0756 94.7781 18.5786L99.4672 9.39043Z" fill="url(#paint10_radial_3576_6979)"/>
<path d="M104.775 20.3762C104.433 18.1753 106.663 18.0168 107.82 18.2127C108.977 18.4086 112.131 19.121 115.486 20.4032C119.679 22.0059 118.517 23.5951 117.502 24.3163C116.067 25.3362 113.883 24.5967 111.279 24.1559C108.675 23.7151 105.202 23.1274 104.775 20.3762Z" fill="url(#paint11_radial_3576_6979)"/>
<path d="M117.366 21.6297C117.437 19.4985 118.395 19.125 118.865 19.2046C119.336 19.2842 120.6 19.6768 121.894 20.6101C123.511 21.7767 122.864 23.4532 122.365 24.2616C121.658 25.4048 120.806 24.8908 119.748 24.7117C118.69 24.5325 117.278 24.2937 117.366 21.6297Z" fill="url(#paint12_radial_3576_6979)" fill-opacity="0.56"/>
<path d="M88.1216 19.7937C87.4353 18.441 88.6957 17.8457 89.4116 17.7172C90.1276 17.5886 92.1179 17.3543 94.3514 17.4452C97.1433 17.5589 96.8202 18.8468 96.3902 19.539C95.7821 20.5178 94.3493 20.5204 92.7383 20.8096C91.1274 21.0988 88.9794 21.4845 88.1216 19.7937Z" fill="url(#paint13_radial_3576_6979)" fill-opacity="0.5"/>
<path d="M93.7936 44.0157C92.6725 42.994 93.6402 41.9908 94.2642 41.6169C94.8881 41.243 96.6663 40.3186 98.7871 39.6122C101.438 38.7293 101.592 40.0481 101.436 40.8477C101.214 41.9786 99.8747 42.4886 98.4708 43.3299C97.0668 44.1712 95.1949 45.2929 93.7936 44.0157Z" fill="url(#paint14_radial_3576_6979)" fill-opacity="0.5"/>
<path d="M110.633 32.4844C112.503 31.2734 113.558 33.2438 113.852 34.3803C114.146 35.5168 114.784 38.6864 114.983 42.2723C115.233 46.7547 113.308 46.3431 112.235 45.7112C110.718 44.8174 110.501 42.522 109.84 39.9648C109.178 37.4076 108.297 33.998 110.633 32.4844Z" fill="url(#paint15_radial_3576_6979)"/>
<path d="M102.883 11.3924C104.497 9.8569 105.898 11.5983 106.397 12.661C106.895 13.7237 108.108 16.7208 108.967 20.2081C110.04 24.5671 108.072 24.5184 106.901 24.0955C105.245 23.4975 104.608 21.2817 103.485 18.8907C102.363 16.4997 100.866 13.3118 102.883 11.3924Z" fill="url(#paint16_radial_3576_6979)"/>
<path d="M71.7972 31.3941C72.6721 29.6798 75.1217 29.6798 75.9966 31.3941C76.3391 32.0653 76.9818 32.5322 77.726 32.6506C79.6268 32.9529 80.3837 35.2826 79.0237 36.6444C78.4912 37.1776 78.2457 37.9331 78.3631 38.6775C78.6629 40.5786 76.6812 42.0184 74.9657 41.1458C74.2941 40.8041 73.4997 40.8041 72.8281 41.1458C71.1126 42.0184 69.1309 40.5786 69.4307 38.6775C69.5481 37.9331 69.3026 37.1776 68.7701 36.6444C67.4101 35.2826 68.167 32.9529 70.0678 32.6506C70.812 32.5322 71.4547 32.0653 71.7972 31.3941Z" fill="url(#paint17_radial_3576_6979)"/>
<path d="M72.3444 32.2879C72.9922 31.0184 74.8062 31.0184 75.454 32.2879L75.5526 32.481C75.8062 32.978 76.2822 33.3238 76.8332 33.4115L77.0474 33.4455C78.4549 33.6694 79.0155 35.3946 78.0083 36.403L77.8551 36.5564C77.4608 36.9512 77.279 37.5107 77.3659 38.0619L77.3997 38.2761C77.6218 39.6839 76.1543 40.7501 74.8839 40.1039L74.6907 40.0056C74.1933 39.7526 73.605 39.7526 73.1077 40.0056L72.9144 40.1039C71.6441 40.7501 70.1766 39.6839 70.3987 38.2761L70.4325 38.0619C70.5194 37.5107 70.3376 36.9512 69.9433 36.5564L69.7901 36.403C68.7829 35.3946 69.3434 33.6694 70.751 33.4455L70.9652 33.4115C71.5162 33.3238 71.9922 32.978 72.2458 32.481L72.3444 32.2879Z" fill="url(#paint18_radial_3576_6979)"/>
<path d="M75.0569 33.5815C74.9512 32.9005 75.641 32.8514 75.9992 32.9121C76.3574 32.9727 77.3333 33.1931 78.3714 33.5899C79.6691 34.0858 79.3095 34.5776 78.9954 34.8008C78.5512 35.1164 77.8754 34.8875 77.0696 34.7511C76.2637 34.6148 75.1892 34.4329 75.0569 33.5815Z" fill="url(#paint19_radial_3576_6979)"/>
<path d="M78.9539 33.9699C78.9757 33.3104 79.2723 33.1948 79.4178 33.2195C79.5634 33.2441 79.9546 33.3656 80.3549 33.6544C80.8554 34.0154 80.6552 34.5342 80.5006 34.7843C80.2819 35.1381 80.0184 34.979 79.6909 34.9236C79.3634 34.8682 78.9267 34.7943 78.9539 33.9699Z" fill="url(#paint20_radial_3576_6979)" fill-opacity="0.56"/>
<path d="M69.9055 33.4014C69.6932 32.9828 70.0832 32.7986 70.3047 32.7589C70.5263 32.7191 71.1422 32.6466 71.8333 32.6747C72.6973 32.7099 72.5973 33.1084 72.4642 33.3226C72.2761 33.6255 71.8327 33.6263 71.3342 33.7158C70.8357 33.8053 70.171 33.9246 69.9055 33.4014Z" fill="url(#paint21_radial_3576_6979)" fill-opacity="0.5"/>
<path d="M71.6591 40.8971C71.3122 40.581 71.6116 40.2705 71.8047 40.1548C71.9978 40.0391 72.5481 39.7531 73.2043 39.5345C74.0247 39.2613 74.0724 39.6694 74.0239 39.9168C73.9552 40.2667 73.5409 40.4246 73.1064 40.6849C72.672 40.9452 72.0927 41.2924 71.6591 40.8971Z" fill="url(#paint22_radial_3576_6979)" fill-opacity="0.5"/>
<path d="M76.8707 37.3284C77.4492 36.9536 77.7757 37.5633 77.8666 37.915C77.9576 38.2667 78.1549 39.2475 78.2168 40.3572C78.294 41.7443 77.6983 41.6169 77.3663 41.4213C76.8968 41.1448 76.8297 40.4345 76.6251 39.6432C76.4204 38.8518 76.1476 37.7968 76.8707 37.3284Z" fill="url(#paint23_radial_3576_6979)"/>
<path d="M74.4735 30.8014C74.9728 30.3262 75.4064 30.8651 75.5607 31.1939C75.7151 31.5228 76.0902 32.4502 76.356 33.5294C76.6883 34.8783 76.0792 34.8632 75.7168 34.7323C75.2043 34.5473 75.0071 33.8616 74.6598 33.1217C74.3125 32.3818 73.8494 31.3953 74.4735 30.8014Z" fill="url(#paint24_radial_3576_6979)"/>
<path d="M126.341 31.3941C127.216 29.6798 129.666 29.6798 130.541 31.3941C130.883 32.0653 131.526 32.5322 132.27 32.6506C134.171 32.9529 134.928 35.2826 133.568 36.6444C133.035 37.1776 132.79 37.9331 132.907 38.6775C133.207 40.5786 131.225 42.0184 129.51 41.1458C128.838 40.8041 128.044 40.8041 127.372 41.1458C125.657 42.0184 123.675 40.5786 123.975 38.6775C124.092 37.9331 123.847 37.1776 123.314 36.6444C121.954 35.2826 122.711 32.9529 124.612 32.6506C125.356 32.5322 125.999 32.0653 126.341 31.3941Z" fill="url(#paint25_radial_3576_6979)"/>
<path d="M126.887 32.2879C127.535 31.0184 129.349 31.0184 129.997 32.2879L130.096 32.481C130.349 32.978 130.825 33.3238 131.376 33.4115L131.59 33.4455C132.998 33.6694 133.558 35.3946 132.551 36.403L132.398 36.5564C132.004 36.9512 131.822 37.5107 131.909 38.0619L131.943 38.2761C132.165 39.6839 130.697 40.7501 129.427 40.1039L129.234 40.0056C128.736 39.7526 128.148 39.7526 127.651 40.0056L127.457 40.1039C126.187 40.7501 124.72 39.6839 124.942 38.2761L124.975 38.0619C125.062 37.5107 124.881 36.9512 124.486 36.5564L124.333 36.403C123.326 35.3946 123.886 33.6694 125.294 33.4455L125.508 33.4115C126.059 33.3238 126.535 32.978 126.789 32.481L126.887 32.2879Z" fill="url(#paint26_radial_3576_6979)"/>
<path d="M129.602 33.5815C129.496 32.9005 130.186 32.8514 130.544 32.9121C130.902 32.9727 131.878 33.1931 132.916 33.5899C134.214 34.0858 133.854 34.5776 133.54 34.8008C133.096 35.1164 132.42 34.8875 131.614 34.7511C130.809 34.6148 129.734 34.4329 129.602 33.5815Z" fill="url(#paint27_radial_3576_6979)"/>
<path d="M133.497 33.9699C133.519 33.3104 133.815 33.1948 133.961 33.2195C134.106 33.2441 134.498 33.3656 134.898 33.6544C135.398 34.0154 135.198 34.5342 135.044 34.7843C134.825 35.1381 134.561 34.979 134.234 34.9236C133.906 34.8682 133.47 34.7943 133.497 33.9699Z" fill="url(#paint28_radial_3576_6979)" fill-opacity="0.56"/>
<path d="M124.449 33.4014C124.237 32.9828 124.627 32.7986 124.849 32.7589C125.07 32.7191 125.686 32.6466 126.377 32.6747C127.241 32.7099 127.141 33.1084 127.008 33.3226C126.82 33.6255 126.377 33.6263 125.878 33.7158C125.38 33.8053 124.715 33.9246 124.449 33.4014Z" fill="url(#paint29_radial_3576_6979)" fill-opacity="0.5"/>
<path d="M126.203 40.8971C125.856 40.581 126.156 40.2705 126.349 40.1548C126.542 40.0391 127.092 39.7531 127.748 39.5345C128.569 39.2613 128.616 39.6694 128.568 39.9168C128.499 40.2667 128.085 40.4246 127.65 40.6849C127.216 40.9452 126.637 41.2924 126.203 40.8971Z" fill="url(#paint30_radial_3576_6979)" fill-opacity="0.5"/>
<path d="M131.415 37.3284C131.993 36.9536 132.32 37.5633 132.411 37.915C132.502 38.2667 132.699 39.2475 132.761 40.3572C132.838 41.7443 132.242 41.6169 131.91 41.4213C131.441 41.1448 131.374 40.4345 131.169 39.6432C130.964 38.8518 130.692 37.7968 131.415 37.3284Z" fill="url(#paint31_radial_3576_6979)"/>
<path d="M129.016 30.8014C129.516 30.3262 129.949 30.8651 130.104 31.1939C130.258 31.5228 130.633 32.4502 130.899 33.5294C131.231 34.8783 130.622 34.8632 130.26 34.7323C129.747 34.5473 129.55 33.8616 129.203 33.1217C128.855 32.3818 128.392 31.3953 129.016 30.8014Z" fill="url(#paint32_radial_3576_6979)"/>
<mask id="path-49-outside-1_3576_6979" maskUnits="userSpaceOnUse" x="68.8633" y="61.7441" width="66" height="82" fill="black">
<rect fill="white" x="68.8633" y="61.7441" width="66" height="82"/>
<path d="M98.7022 98.3408C100.645 98.2231 101.91 98.1054 102.499 97.9876C105.618 97.6933 108.061 96.781 109.827 95.2506C111.593 93.7202 112.388 91.8072 112.211 89.5116C112.034 86.7451 110.828 84.6849 108.591 83.3311C106.354 81.9184 103.617 81.4181 100.38 81.8301C98.1431 82.1244 96.2006 82.9485 94.5525 84.3023C92.9632 85.6561 91.8154 87.1865 91.1091 88.8935C90.7559 89.8353 90.1673 90.5711 89.3432 91.1008C88.578 91.6306 87.7246 92.0132 86.7828 92.2486C85.841 92.4841 84.8403 92.5724 83.7808 92.5135C82.7213 92.4546 81.7501 92.3075 80.8672 92.072C79.6899 91.7189 78.7482 91.2185 78.0418 90.5711C77.3355 89.9236 76.8351 89.1584 76.5408 88.2755C76.2465 87.3925 76.1582 86.4507 76.276 85.4501C76.3937 84.3906 76.6586 83.3605 77.0706 82.3599C77.6003 80.9472 78.5716 79.5051 79.9842 78.0335C81.4558 76.5031 83.2216 75.1199 85.2818 73.8838C87.4008 72.5888 89.7847 71.5293 92.4335 70.7053C95.1411 69.8812 98.0548 69.4103 101.174 69.2926C104.588 69.2337 107.826 69.6752 110.887 70.617C114.006 71.4999 116.714 72.7948 119.01 74.5018C121.364 76.15 123.218 78.1218 124.572 80.4174C125.926 82.713 126.603 85.1852 126.603 87.834C126.603 92.072 125.484 95.486 123.248 98.0759C121.07 100.666 118.127 102.461 114.418 103.462C118.127 103.933 120.981 105.345 122.983 107.7C125.043 109.995 126.073 113.056 126.073 116.882C126.073 119.59 125.484 122.121 124.307 124.475C123.13 126.771 121.482 128.772 119.363 130.479C117.244 132.186 114.683 133.511 111.681 134.452C108.679 135.453 105.383 135.953 101.792 135.953C98.0842 135.953 94.7291 135.571 91.7271 134.806C88.7841 134.04 86.253 133.01 84.134 131.715C82.0738 130.42 80.4846 128.919 79.3662 127.212C78.2478 125.447 77.6886 123.622 77.6886 121.738C77.6886 120.502 77.9535 119.354 78.4833 118.295C79.0719 117.235 79.9548 116.441 81.132 115.911C81.8384 115.558 82.5742 115.293 83.3394 115.116C84.1634 114.94 84.9581 114.881 85.7233 114.94C86.5473 114.999 87.2831 115.205 87.9306 115.558C88.578 115.852 89.1078 116.323 89.5198 116.971C90.8737 119.266 92.6395 120.914 94.8174 121.915C96.9953 122.857 99.5557 123.357 102.499 123.416C103.794 123.416 105 123.269 106.119 122.974C107.237 122.68 108.208 122.239 109.032 121.65C109.857 121.003 110.504 120.237 110.975 119.354C111.446 118.471 111.681 117.471 111.681 116.352C111.622 114.822 110.798 113.468 109.209 112.291C107.679 111.055 105.795 110.349 103.558 110.172C103.205 110.172 102.499 110.143 101.439 110.084C100.38 110.025 99.232 109.966 97.9959 109.907C96.8187 109.789 95.7003 109.701 94.6408 109.642C93.5813 109.583 92.8749 109.554 92.5218 109.554C91.168 109.495 90.1673 108.936 89.5198 107.876C88.9312 106.817 88.6369 105.61 88.6369 104.256C88.6369 102.903 88.9312 101.725 89.5198 100.725C90.1673 99.6652 91.168 99.0471 92.5218 98.8706C94.7585 98.5762 96.8187 98.3997 98.7022 98.3408Z"/>
</mask>
<path d="M98.7022 98.3408C100.645 98.2231 101.91 98.1054 102.499 97.9876C105.618 97.6933 108.061 96.781 109.827 95.2506C111.593 93.7202 112.388 91.8072 112.211 89.5116C112.034 86.7451 110.828 84.6849 108.591 83.3311C106.354 81.9184 103.617 81.4181 100.38 81.8301C98.1431 82.1244 96.2006 82.9485 94.5525 84.3023C92.9632 85.6561 91.8154 87.1865 91.1091 88.8935C90.7559 89.8353 90.1673 90.5711 89.3432 91.1008C88.578 91.6306 87.7246 92.0132 86.7828 92.2486C85.841 92.4841 84.8403 92.5724 83.7808 92.5135C82.7213 92.4546 81.7501 92.3075 80.8672 92.072C79.6899 91.7189 78.7482 91.2185 78.0418 90.5711C77.3355 89.9236 76.8351 89.1584 76.5408 88.2755C76.2465 87.3925 76.1582 86.4507 76.276 85.4501C76.3937 84.3906 76.6586 83.3605 77.0706 82.3599C77.6003 80.9472 78.5716 79.5051 79.9842 78.0335C81.4558 76.5031 83.2216 75.1199 85.2818 73.8838C87.4008 72.5888 89.7847 71.5293 92.4335 70.7053C95.1411 69.8812 98.0548 69.4103 101.174 69.2926C104.588 69.2337 107.826 69.6752 110.887 70.617C114.006 71.4999 116.714 72.7948 119.01 74.5018C121.364 76.15 123.218 78.1218 124.572 80.4174C125.926 82.713 126.603 85.1852 126.603 87.834C126.603 92.072 125.484 95.486 123.248 98.0759C121.07 100.666 118.127 102.461 114.418 103.462C118.127 103.933 120.981 105.345 122.983 107.7C125.043 109.995 126.073 113.056 126.073 116.882C126.073 119.59 125.484 122.121 124.307 124.475C123.13 126.771 121.482 128.772 119.363 130.479C117.244 132.186 114.683 133.511 111.681 134.452C108.679 135.453 105.383 135.953 101.792 135.953C98.0842 135.953 94.7291 135.571 91.7271 134.806C88.7841 134.04 86.253 133.01 84.134 131.715C82.0738 130.42 80.4846 128.919 79.3662 127.212C78.2478 125.447 77.6886 123.622 77.6886 121.738C77.6886 120.502 77.9535 119.354 78.4833 118.295C79.0719 117.235 79.9548 116.441 81.132 115.911C81.8384 115.558 82.5742 115.293 83.3394 115.116C84.1634 114.94 84.9581 114.881 85.7233 114.94C86.5473 114.999 87.2831 115.205 87.9306 115.558C88.578 115.852 89.1078 116.323 89.5198 116.971C90.8737 119.266 92.6395 120.914 94.8174 121.915C96.9953 122.857 99.5557 123.357 102.499 123.416C103.794 123.416 105 123.269 106.119 122.974C107.237 122.68 108.208 122.239 109.032 121.65C109.857 121.003 110.504 120.237 110.975 119.354C111.446 118.471 111.681 117.471 111.681 116.352C111.622 114.822 110.798 113.468 109.209 112.291C107.679 111.055 105.795 110.349 103.558 110.172C103.205 110.172 102.499 110.143 101.439 110.084C100.38 110.025 99.232 109.966 97.9959 109.907C96.8187 109.789 95.7003 109.701 94.6408 109.642C93.5813 109.583 92.8749 109.554 92.5218 109.554C91.168 109.495 90.1673 108.936 89.5198 107.876C88.9312 106.817 88.6369 105.61 88.6369 104.256C88.6369 102.903 88.9312 101.725 89.5198 100.725C90.1673 99.6652 91.168 99.0471 92.5218 98.8706C94.7585 98.5762 96.8187 98.3997 98.7022 98.3408Z" fill="white"/>
<path d="M98.7022 98.3408L98.9321 105.695L99.0398 105.692L99.1474 105.685L98.7022 98.3408ZM102.499 97.9876L101.808 90.6625L101.429 90.6982L101.056 90.7728L102.499 97.9876ZM109.827 95.2506L114.646 100.811L114.646 100.811L109.827 95.2506ZM112.211 89.5116L104.868 89.9802L104.871 90.0281L104.875 90.0759L112.211 89.5116ZM108.591 83.3311L104.662 89.5519L104.721 89.5893L104.781 89.6256L108.591 83.3311ZM100.38 81.8301L99.4509 74.5313L99.4354 74.5332L99.42 74.5353L100.38 81.8301ZM94.5525 84.3023L89.8823 78.6168L89.8314 78.6586L89.7813 78.7013L94.5525 84.3023ZM91.1091 88.8935L84.3105 86.0803L84.2632 86.1944L84.2199 86.31L91.1091 88.8935ZM89.3432 91.1008L85.3645 84.9117L85.2586 84.9797L85.1552 85.0514L89.3432 91.1008ZM83.7808 92.5135L84.189 85.1671L84.1889 85.1671L83.7808 92.5135ZM80.8672 92.072L78.7529 99.1194L78.8617 99.1521L78.9714 99.1813L80.8672 92.072ZM78.0418 90.5711L73.07 95.9948L73.07 95.9948L78.0418 90.5711ZM76.5408 88.2755L83.521 85.9487L83.521 85.9487L76.5408 88.2755ZM76.276 85.4501L83.5833 86.3098L83.586 86.2862L83.5887 86.2626L76.276 85.4501ZM77.0706 82.3599L83.8741 85.1613L83.9187 85.053L83.9598 84.9433L77.0706 82.3599ZM79.9842 78.0335L74.6806 72.9338L74.6765 72.9381L79.9842 78.0335ZM85.2818 73.8838L89.0673 80.193L89.0929 80.1776L89.1185 80.162L85.2818 73.8838ZM92.4335 70.7053L90.2912 63.6663L90.2695 63.673L90.2478 63.6797L92.4335 70.7053ZM101.174 69.2926L101.048 61.936L100.972 61.9373L100.897 61.9401L101.174 69.2926ZM110.887 70.617L108.723 77.6493L108.803 77.6739L108.883 77.6966L110.887 70.617ZM119.01 74.5018L114.619 80.4061L114.704 80.469L114.79 80.5295L119.01 74.5018ZM124.572 80.4174L130.91 76.6798V76.6798L124.572 80.4174ZM123.248 98.0759L117.679 93.2668L117.647 93.3034L117.616 93.3405L123.248 98.0759ZM114.418 103.462L112.501 96.3581L113.491 110.761L114.418 103.462ZM122.983 107.7L117.377 112.465L117.441 112.54L117.507 112.614L122.983 107.7ZM124.307 124.475L130.854 127.833L130.871 127.799L130.888 127.766L124.307 124.475ZM119.363 130.479L114.747 124.749V124.749L119.363 130.479ZM111.681 134.452L109.479 127.432L109.416 127.452L109.355 127.472L111.681 134.452ZM91.7271 134.806L89.8757 141.927L89.8927 141.931L89.9098 141.935L91.7271 134.806ZM84.134 131.715L80.2184 137.945L80.2577 137.969L80.2973 137.994L84.134 131.715ZM79.3662 127.212L73.1503 131.149L73.1806 131.197L73.2118 131.245L79.3662 127.212ZM78.4833 118.295L72.0515 114.722L71.9738 114.861L71.9023 115.004L78.4833 118.295ZM81.132 115.911L84.1514 122.621L84.2883 122.559L84.4225 122.492L81.132 115.911ZM83.3394 115.116L81.7977 107.922L81.7412 107.934L81.6849 107.947L83.3394 115.116ZM85.7233 114.94L85.1589 122.276L85.179 122.277L85.199 122.279L85.7233 114.94ZM87.9306 115.558L84.4073 122.017L84.6423 122.145L84.8859 122.256L87.9306 115.558ZM89.5198 116.971L95.8575 113.233L95.7942 113.126L95.7272 113.02L89.5198 116.971ZM94.8174 121.915L91.7455 128.601L91.8209 128.635L91.897 128.668L94.8174 121.915ZM102.499 123.416L102.352 130.772L102.425 130.774H102.499V123.416ZM106.119 122.974L104.246 115.859H104.246L106.119 122.974ZM109.032 121.65L113.309 127.637L113.446 127.539L113.578 127.436L109.032 121.65ZM110.975 119.354L104.483 115.892L104.483 115.892L110.975 119.354ZM111.681 116.352H119.039V116.211L119.034 116.07L111.681 116.352ZM109.209 112.291L104.586 118.015L104.706 118.112L104.83 118.203L109.209 112.291ZM103.558 110.172L104.137 102.837L103.848 102.814H103.558V110.172ZM101.439 110.084L101.847 102.737H101.847L101.439 110.084ZM97.9959 109.907L97.2638 117.228L97.4545 117.247L97.6459 117.256L97.9959 109.907ZM94.6408 109.642L94.2327 116.989L94.6408 109.642ZM92.5218 109.554L92.2022 116.905L92.3619 116.912H92.5218V109.554ZM89.5198 107.876L83.088 111.45L83.1621 111.583L83.2416 111.713L89.5198 107.876ZM89.5198 100.725L83.2416 96.888L83.2094 96.9408L83.178 96.9942L89.5198 100.725ZM92.5218 98.8706L93.4734 106.166L93.4816 106.165L92.5218 98.8706ZM98.7022 98.3408L99.1474 105.685C100.976 105.574 102.767 105.437 103.942 105.202L102.499 97.9876L101.056 90.7728C101.162 90.7517 101.02 90.7829 100.427 90.8381C99.9022 90.8869 99.1861 90.9403 98.2571 90.9966L98.7022 98.3408ZM102.499 97.9876L103.19 105.313C107.323 104.923 111.385 103.637 114.646 100.811L109.827 95.2506L105.008 89.6904C104.737 89.9253 103.914 90.4637 101.808 90.6625L102.499 97.9876ZM109.827 95.2506L114.646 100.811C118.143 97.78 119.906 93.6086 119.547 88.9472L112.211 89.5116L104.875 90.0759C104.881 90.1494 104.873 90.1495 104.882 90.0925C104.891 90.0325 104.912 89.9444 104.953 89.8455C104.994 89.747 105.038 89.677 105.065 89.6407C105.09 89.6069 105.082 89.6265 105.008 89.6904L109.827 95.2506ZM112.211 89.5116L119.554 89.0429C119.235 84.0446 116.84 79.7235 112.401 77.0366L108.591 83.3311L104.781 89.6256C104.882 89.6863 104.909 89.7171 104.895 89.7038C104.879 89.6883 104.851 89.6543 104.825 89.6102C104.8 89.5672 104.8 89.5543 104.812 89.5961C104.825 89.6417 104.854 89.7622 104.868 89.9802L112.211 89.5116ZM108.591 83.3311L112.52 77.1102C108.525 74.5868 103.975 73.9555 99.4509 74.5313L100.38 81.8301L101.309 89.1289C103.259 88.8807 104.184 89.25 104.662 89.5519L108.591 83.3311ZM100.38 81.8301L99.42 74.5353C95.9026 74.9981 92.6549 76.3393 89.8823 78.6168L94.5525 84.3023L99.2227 89.9878C99.7463 89.5577 100.383 89.2507 101.34 89.1249L100.38 81.8301ZM94.5525 84.3023L89.7813 78.7013C87.4215 80.7115 85.5174 83.1636 84.3105 86.0803L91.1091 88.8935L97.9077 91.7067C98.1135 91.2095 98.505 90.6008 99.3237 89.9033L94.5525 84.3023ZM91.1091 88.8935L84.2199 86.31C84.2975 86.103 84.4348 85.8335 84.6574 85.5554C84.8813 85.2755 85.1321 85.0611 85.3645 84.9117L89.3432 91.1008L93.322 97.29C95.517 95.8789 97.1046 93.8601 97.9983 91.477L91.1091 88.8935ZM89.3432 91.1008L85.1552 85.0514C85.1502 85.0548 85.1174 85.0808 84.9983 85.1106L86.7828 92.2486L88.5673 99.3866C90.3317 98.9455 92.0059 98.2063 93.5313 97.1503L89.3432 91.1008ZM86.7828 92.2486L84.9983 85.1106C84.8361 85.1511 84.5795 85.1888 84.189 85.1671L83.7808 92.5135L83.3727 99.8599C85.1012 99.9559 86.8458 99.817 88.5673 99.3866L86.7828 92.2486ZM83.7808 92.5135L84.1889 85.1671C83.5537 85.1318 83.089 85.0497 82.763 84.9628L80.8672 92.072L78.9714 99.1813C80.4112 99.5653 81.8889 99.7774 83.3727 99.8599L83.7808 92.5135ZM80.8672 92.072L82.9814 85.0246C82.7872 84.9664 82.7152 84.9264 82.7298 84.9342C82.7478 84.9438 82.8593 85.0058 83.0136 85.1473L78.0418 90.5711L73.07 95.9948C74.7917 97.573 76.8033 98.5345 78.7529 99.1194L80.8672 92.072ZM78.0418 90.5711L83.0136 85.1473C83.0909 85.2181 83.1937 85.3302 83.295 85.4851C83.3969 85.6409 83.4719 85.8015 83.521 85.9487L76.5408 88.2755L69.5607 90.6022C70.2624 92.7073 71.4704 94.5285 73.07 95.9948L78.0418 90.5711ZM76.5408 88.2755L83.521 85.9487C83.5539 86.0477 83.5722 86.1422 83.5795 86.2202C83.5866 86.2962 83.5809 86.3299 83.5833 86.3098L76.276 85.4501L68.9687 84.5904C68.7353 86.5743 68.8971 88.6114 69.5607 90.6022L76.5408 88.2755ZM76.276 85.4501L83.5887 86.2626C83.6293 85.897 83.7199 85.5358 83.8741 85.1613L77.0706 82.3599L70.2671 79.5584C69.5972 81.1853 69.1581 82.8842 68.9633 84.6376L76.276 85.4501ZM77.0706 82.3599L83.9598 84.9433C84.0383 84.7341 84.342 84.1186 85.292 83.129L79.9842 78.0335L74.6765 72.9381C72.8012 74.8915 71.1624 77.1603 70.1814 79.7764L77.0706 82.3599ZM79.9842 78.0335L85.2879 83.1332C86.2544 82.1281 87.4925 81.1378 89.0673 80.193L85.2818 73.8838L81.4963 67.5746C78.9508 69.1019 76.6571 70.8782 74.6806 72.9338L79.9842 78.0335ZM85.2818 73.8838L89.1185 80.162C90.6638 79.2176 92.4829 78.3954 94.6192 77.7308L92.4335 70.7053L90.2478 63.6797C87.0865 64.6632 84.1378 65.96 81.4451 67.6056L85.2818 73.8838ZM92.4335 70.7053L94.5758 77.7442C96.6193 77.1223 98.9004 76.7413 101.452 76.645L101.174 69.2926L100.897 61.9401C97.2091 62.0793 93.663 62.6401 90.2912 63.6663L92.4335 70.7053ZM101.174 69.2926L101.301 76.6492C103.991 76.6028 106.451 76.9504 108.723 77.6493L110.887 70.617L113.05 63.5846C109.2 62.4 105.186 61.8646 101.048 61.936L101.174 69.2926ZM110.887 70.617L108.883 77.6966C111.256 78.3682 113.13 79.2989 114.619 80.4061L119.01 74.5018L123.4 68.5976C120.298 66.2908 116.757 64.6316 112.89 63.5373L110.887 70.617ZM119.01 74.5018L114.79 80.5295C116.351 81.6224 117.456 82.8348 118.234 84.155L124.572 80.4174L130.91 76.6798C128.981 73.4088 126.376 70.6775 123.229 68.4742L119.01 74.5018ZM124.572 80.4174L118.234 84.155C118.925 85.3256 119.245 86.5083 119.245 87.834H126.603H133.96C133.96 83.8621 132.927 80.1005 130.91 76.6798L124.572 80.4174ZM126.603 87.834H119.245C119.245 90.7428 118.505 92.3103 117.679 93.2668L123.248 98.0759L128.816 102.885C132.463 98.6617 133.96 93.4013 133.96 87.834H126.603ZM123.248 98.0759L117.616 93.3405C116.533 94.629 114.962 95.6942 112.501 96.3581L114.418 103.462L116.335 110.565C121.291 109.228 125.607 106.703 128.879 102.811L123.248 98.0759ZM114.418 103.462L113.491 110.761C115.781 111.052 116.803 111.79 117.377 112.465L122.983 107.7L128.589 102.935C125.16 98.9004 120.473 96.8138 115.345 96.1627L114.418 103.462ZM122.983 107.7L117.507 112.614C118.083 113.256 118.715 114.416 118.715 116.882H126.073H133.431C133.431 111.697 132.003 106.735 128.459 102.786L122.983 107.7ZM126.073 116.882H118.715C118.715 118.481 118.378 119.882 117.726 121.185L124.307 124.475L130.888 127.766C132.591 124.36 133.431 120.698 133.431 116.882H126.073ZM124.307 124.475L117.76 121.118C117.079 122.446 116.108 123.653 114.747 124.749L119.363 130.479L123.978 136.209C126.855 133.891 129.181 131.096 130.854 127.833L124.307 124.475ZM119.363 130.479L114.747 124.749C113.447 125.796 111.738 126.723 109.479 127.432L111.681 134.452L113.884 141.473C117.628 140.298 121.04 138.576 123.978 136.209L119.363 130.479ZM111.681 134.452L109.355 127.472C107.196 128.192 104.697 128.596 101.792 128.596V135.953V143.311C106.069 143.311 110.162 142.714 114.008 141.433L111.681 134.452ZM101.792 135.953V128.596C98.5809 128.596 95.8496 128.263 93.5445 127.676L91.7271 134.806L89.9098 141.935C93.6086 142.878 97.5875 143.311 101.792 143.311V135.953ZM91.7271 134.806L93.5786 127.685C91.1843 127.062 89.3528 126.282 87.9707 125.437L84.134 131.715L80.2973 137.994C83.1532 139.739 86.3838 141.019 89.8757 141.927L91.7271 134.806ZM84.134 131.715L88.0496 125.486C86.7151 124.647 85.9586 123.849 85.5206 123.18L79.3662 127.212L73.2118 131.245C75.0105 133.99 77.4326 136.194 80.2184 137.945L84.134 131.715ZM79.3662 127.212L85.5821 123.276C85.125 122.554 85.0463 122.078 85.0463 121.738H77.6886H70.3309C70.3309 125.166 71.3706 128.339 73.1503 131.149L79.3662 127.212ZM77.6886 121.738H85.0463C85.0463 121.65 85.0554 121.61 85.0566 121.605C85.0576 121.601 85.0582 121.599 85.0584 121.598C85.0586 121.598 85.0601 121.594 85.0642 121.585L78.4833 118.295L71.9023 115.004C70.8393 117.13 70.3309 119.411 70.3309 121.738H77.6886ZM78.4833 118.295L84.9151 121.868C84.8225 122.035 84.6845 122.215 84.509 122.373C84.3373 122.528 84.1974 122.6 84.1514 122.621L81.132 115.911L78.1127 109.201C75.59 110.337 73.4617 112.183 72.0515 114.722L78.4833 118.295ZM81.132 115.911L84.4225 122.492C84.6116 122.397 84.7985 122.331 84.9938 122.286L83.3394 115.116L81.6849 107.947C80.3498 108.255 79.0652 108.718 77.8416 109.33L81.132 115.911ZM83.3394 115.116L84.881 122.311C84.9828 122.289 85.0538 122.281 85.0969 122.277C85.1395 122.274 85.1588 122.276 85.1589 122.276L85.7233 114.94L86.2876 107.604C84.7518 107.486 83.2461 107.612 81.7977 107.922L83.3394 115.116ZM85.7233 114.94L85.199 122.279C85.0988 122.272 84.7905 122.226 84.4073 122.017L87.9306 115.558L91.4538 109.099C89.7757 108.183 87.9958 107.726 86.2475 107.601L85.7233 114.94ZM87.9306 115.558L84.8859 122.256C84.5409 122.099 84.2133 121.887 83.9253 121.631C83.6406 121.378 83.4422 121.125 83.3124 120.921L89.5198 116.971L95.7272 113.02C94.6128 111.269 93.0242 109.791 90.9752 108.86L87.9306 115.558ZM89.5198 116.971L83.1822 120.708C85.2094 124.146 88.0528 126.904 91.7455 128.601L94.8174 121.915L97.8892 115.229C97.2262 114.924 96.5379 114.387 95.8575 113.233L89.5198 116.971ZM94.8174 121.915L91.897 128.668C95.1347 130.068 98.6761 130.699 102.352 130.772L102.499 123.416L102.646 116.06C100.435 116.015 98.8559 115.645 97.7377 115.162L94.8174 121.915ZM102.499 123.416V130.774C104.351 130.774 106.194 130.563 107.991 130.09L106.119 122.974L104.246 115.859C103.807 115.975 103.236 116.058 102.499 116.058V123.416ZM106.119 122.974L107.991 130.09C109.852 129.6 111.663 128.813 113.309 127.637L109.032 121.65L104.756 115.663C104.754 115.664 104.623 115.76 104.246 115.859L106.119 122.974ZM109.032 121.65L113.578 127.436C115.166 126.188 116.493 124.643 117.467 122.817L110.975 119.354L104.483 115.892C104.487 115.884 104.493 115.874 104.5 115.863C104.508 115.852 104.514 115.844 104.519 115.838C104.524 115.832 104.526 115.831 104.522 115.835C104.518 115.838 104.507 115.849 104.487 115.865L109.032 121.65ZM110.975 119.354L117.467 122.817C118.57 120.748 119.039 118.534 119.039 116.352H111.681H104.324C104.324 116.394 104.319 116.355 104.343 116.257C104.366 116.155 104.411 116.027 104.483 115.892L110.975 119.354ZM111.681 116.352L119.034 116.07C118.865 111.689 116.405 108.465 113.589 106.379L109.209 112.291L104.83 118.203C105.043 118.361 104.922 118.324 104.734 118.015C104.518 117.66 104.349 117.167 104.329 116.635L111.681 116.352ZM109.209 112.291L113.832 106.567C110.99 104.272 107.639 103.114 104.137 102.837L103.558 110.172L102.979 117.507C103.951 117.584 104.367 117.838 104.586 118.015L109.209 112.291ZM103.558 110.172V102.814C103.563 102.814 103.526 102.814 103.432 102.812C103.342 102.809 103.223 102.805 103.07 102.799C102.763 102.786 102.358 102.766 101.847 102.737L101.439 110.084L101.031 117.43C102.056 117.487 102.967 117.53 103.558 117.53V110.172ZM101.439 110.084L101.847 102.737C100.766 102.677 99.5983 102.617 98.3459 102.558L97.9959 109.907L97.6459 117.256C98.8657 117.315 99.9939 117.372 101.031 117.43L101.439 110.084ZM97.9959 109.907L98.728 102.586C97.455 102.459 96.228 102.361 95.0489 102.296L94.6408 109.642L94.2327 116.989C95.1726 117.041 96.1823 117.12 97.2638 117.228L97.9959 109.907ZM94.6408 109.642L95.0489 102.296C94.0237 102.239 93.1133 102.196 92.5218 102.196V109.554V116.912C92.5174 116.912 92.5542 116.912 92.6486 116.914C92.738 116.917 92.8571 116.921 93.0101 116.927C93.3171 116.94 93.7219 116.96 94.2327 116.989L94.6408 109.642ZM92.5218 109.554L92.8414 102.203C93.1039 102.215 93.6759 102.294 94.3452 102.668C95.0393 103.055 95.519 103.583 95.798 104.04L89.5198 107.876L83.2416 111.713C85.2983 115.079 88.6649 116.751 92.2022 116.905L92.5218 109.554ZM89.5198 107.876L95.9516 104.303C95.9666 104.33 95.9793 104.357 95.9893 104.383C95.9992 104.409 96.0041 104.426 96.0058 104.433C96.0074 104.44 96.0048 104.431 96.0017 104.404C95.9985 104.376 95.9946 104.328 95.9946 104.256H88.6369H81.2792C81.2792 106.712 81.8237 109.174 83.088 111.45L89.5198 107.876ZM88.6369 104.256H95.9946C95.9946 104.113 96.0101 104.085 95.9957 104.143C95.9885 104.171 95.9752 104.216 95.9522 104.273C95.9291 104.33 95.8991 104.392 95.8617 104.455L89.5198 100.725L83.178 96.9942C81.8207 99.3015 81.2792 101.811 81.2792 104.256H88.6369ZM89.5198 100.725L95.798 104.561C95.5538 104.961 95.1599 105.394 94.6224 105.726C94.1039 106.047 93.6654 106.141 93.4734 106.166L92.5218 98.8706L91.5701 91.5747C88.2593 92.0065 85.1755 93.7236 83.2416 96.888L89.5198 100.725ZM92.5218 98.8706L93.4816 106.165C95.5217 105.897 97.3346 105.745 98.9321 105.695L98.7022 98.3408L98.4724 90.9867C96.3028 91.0545 93.9954 91.2555 91.5619 91.5757L92.5218 98.8706Z" fill="#00BCA0" mask="url(#path-49-outside-1_3576_6979)"/>
<path d="M26.6943 182.219L61.2583 174.504L67.4304 201.044L33.4837 207.833L37.8042 193.329L26.6943 182.219Z" fill="#00DDBD"/>
<path d="M173.595 182.219L139.031 174.504L132.859 201.044L166.805 207.833L162.485 193.329L173.595 182.219Z" fill="#00DDBD"/>
<path d="M132.856 201.041L134.707 187.462L152.298 190.709L132.856 201.041Z" fill="#17F0D1"/>
<path d="M157.551 164.936C113.129 154.261 87.9827 154.643 42.749 164.936L48.3039 190.859C88.9198 183.859 111.688 183.164 152.304 190.859L157.551 164.936Z" fill="#26FFDF"/>
<path d="M67.4295 201.043L65.5779 188.081L48.2959 190.859L67.4295 201.043Z" fill="#17F0D1"/>
<defs>
<linearGradient id="paint0_linear_3576_6979" x1="39.3213" y1="-20.2234" x2="186.475" y2="233.617" gradientUnits="userSpaceOnUse">
<stop stop-color="#00E3C2"/>
<stop offset="1" stop-color="#00FFDA"/>
</linearGradient>
<radialGradient id="paint1_radial_3576_6979" cx="0" cy="0" r="1" gradientUnits="userSpaceOnUse" gradientTransform="translate(102.576 30.3576) scale(27.5914 16.9994)">
<stop stop-color="white" stop-opacity="0.22"/>
<stop offset="1" stop-color="white" stop-opacity="0"/>
</radialGradient>
<linearGradient id="paint2_linear_3576_6979" x1="106.461" y1="17.4865" x2="366.74" y2="218.904" gradientUnits="userSpaceOnUse">
<stop stop-color="#00FFDA"/>
<stop offset="1" stop-color="#00B99E"/>
</linearGradient>
<linearGradient id="paint3_linear_3576_6979" x1="98.1834" y1="187.633" x2="-43.4524" y2="84.6255" gradientUnits="userSpaceOnUse">
<stop stop-color="#00B99E"/>
<stop offset="1" stop-color="#00FFDA"/>
</linearGradient>
<linearGradient id="paint4_linear_3576_6979" x1="408.127" y1="-117.714" x2="14.4899" y2="143.484" gradientUnits="userSpaceOnUse">
<stop stop-color="white" stop-opacity="0.82"/>
<stop offset="1" stop-color="white" stop-opacity="0"/>
</linearGradient>
<linearGradient id="paint5_linear_3576_6979" x1="92.6665" y1="248.332" x2="209.47" y2="9.20634" gradientUnits="userSpaceOnUse">
<stop stop-color="white" stop-opacity="0.38"/>
<stop offset="1" stop-color="white" stop-opacity="0"/>
</linearGradient>
<radialGradient id="paint6_radial_3576_6979" cx="0" cy="0" r="1" gradientTransform="matrix(-13.7957 21.1534 -10.4798 -7.30906 151.529 136.128)" gradientUnits="userSpaceOnUse">
<stop stop-color="white" stop-opacity="0.1"/>
<stop offset="1" stop-color="white" stop-opacity="0"/>
</radialGradient>
<radialGradient id="paint7_radial_3576_6979" cx="0" cy="0" r="1" gradientTransform="matrix(25.1908 1.79199 -1.30252 12.7103 97.411 14.2995)" gradientUnits="userSpaceOnUse">
<stop stop-color="white" stop-opacity="0.1"/>
<stop offset="1" stop-color="white" stop-opacity="0"/>
</radialGradient>
<radialGradient id="paint8_radial_3576_6979" cx="0" cy="0" r="1" gradientTransform="matrix(13.3137 -21.46 10.6425 7.07014 162.122 69.374)" gradientUnits="userSpaceOnUse">
<stop stop-color="white" stop-opacity="0.1"/>
<stop offset="1" stop-color="white" stop-opacity="0"/>
</radialGradient>
<radialGradient id="paint9_radial_3576_6979" cx="0" cy="0" r="1" gradientUnits="userSpaceOnUse" gradientTransform="translate(101.023 28.5194) rotate(90) scale(28.5111)">
<stop stop-color="#FFE86C"/>
<stop offset="1" stop-color="#FF9900"/>
</radialGradient>
<radialGradient id="paint10_radial_3576_6979" cx="0" cy="0" r="1" gradientUnits="userSpaceOnUse" gradientTransform="translate(101.022 28.5191) rotate(90) scale(22.1753)">
<stop stop-color="#FFF5BC"/>
<stop offset="0.765" stop-color="#FFA800"/>
</radialGradient>
<radialGradient id="paint11_radial_3576_6979" cx="0" cy="0" r="1" gradientUnits="userSpaceOnUse" gradientTransform="translate(111.568 21.5512) rotate(99.6063) scale(2.66619 7.03148)">
<stop stop-color="white"/>
<stop offset="0.84" stop-color="white" stop-opacity="0"/>
</radialGradient>
<radialGradient id="paint12_radial_3576_6979" cx="0" cy="0" r="1" gradientUnits="userSpaceOnUse" gradientTransform="translate(120.125 22.1218) rotate(99.6063) scale(2.66619 2.85773)">
<stop stop-color="white"/>
<stop offset="0.84" stop-color="white" stop-opacity="0"/>
</radialGradient>
<radialGradient id="paint13_radial_3576_6979" cx="0" cy="0" r="1" gradientUnits="userSpaceOnUse" gradientTransform="translate(92.3292 19.0556) rotate(79.8213) scale(1.83292 4.3571)">
<stop stop-color="white"/>
<stop offset="0.84" stop-color="white" stop-opacity="0"/>
</radialGradient>
<radialGradient id="paint14_radial_3576_6979" cx="0" cy="0" r="1" gradientUnits="userSpaceOnUse" gradientTransform="translate(97.4667 41.8346) rotate(59.0688) scale(1.83292 4.3571)">
<stop stop-color="white"/>
<stop offset="0.84" stop-color="white" stop-opacity="0"/>
</radialGradient>
<radialGradient id="paint15_radial_3576_6979" cx="0" cy="0" r="1" gradientUnits="userSpaceOnUse" gradientTransform="translate(112.335 39.165) rotate(165.501) scale(2.66619 7.03148)">
<stop stop-color="white"/>
<stop offset="0.84" stop-color="white" stop-opacity="0"/>
</radialGradient>
<radialGradient id="paint16_radial_3576_6979" cx="0" cy="0" r="1" gradientUnits="userSpaceOnUse" gradientTransform="translate(105.79 17.6435) rotate(154.854) scale(2.66619 7.03148)">
<stop stop-color="white"/>
<stop offset="0.84" stop-color="white" stop-opacity="0"/>
</radialGradient>
<radialGradient id="paint17_radial_3576_6979" cx="0" cy="0" r="1" gradientUnits="userSpaceOnUse" gradientTransform="translate(73.8969 36.1025) rotate(90) scale(8.82268)">
<stop stop-color="#FFE86C"/>
<stop offset="1" stop-color="#FF9900"/>
</radialGradient>
<radialGradient id="paint18_radial_3576_6979" cx="0" cy="0" r="1" gradientUnits="userSpaceOnUse" gradientTransform="translate(73.8992 36.1033) rotate(90) scale(6.86208)">
<stop stop-color="#FFF5BC"/>
<stop offset="0.765" stop-color="#FFA800"/>
</radialGradient>
<radialGradient id="paint19_radial_3576_6979" cx="0" cy="0" r="1" gradientUnits="userSpaceOnUse" gradientTransform="translate(77.159 33.9451) rotate(99.6063) scale(0.825044 2.17587)">
<stop stop-color="white"/>
<stop offset="0.84" stop-color="white" stop-opacity="0"/>
</radialGradient>
<radialGradient id="paint20_radial_3576_6979" cx="0" cy="0" r="1" gradientUnits="userSpaceOnUse" gradientTransform="translate(79.8075 34.1222) rotate(99.6063) scale(0.825044 0.884315)">
<stop stop-color="white"/>
<stop offset="0.84" stop-color="white" stop-opacity="0"/>
</radialGradient>
<radialGradient id="paint21_radial_3576_6979" cx="0" cy="0" r="1" gradientUnits="userSpaceOnUse" gradientTransform="translate(71.2076 33.173) rotate(79.8213) scale(0.567193 1.34829)">
<stop stop-color="white"/>
<stop offset="0.84" stop-color="white" stop-opacity="0"/>
</radialGradient>
<radialGradient id="paint22_radial_3576_6979" cx="0" cy="0" r="1" gradientUnits="userSpaceOnUse" gradientTransform="translate(72.7957 40.2222) rotate(59.0688) scale(0.567193 1.34829)">
<stop stop-color="white"/>
<stop offset="0.84" stop-color="white" stop-opacity="0"/>
</radialGradient>
<radialGradient id="paint23_radial_3576_6979" cx="0" cy="0" r="1" gradientUnits="userSpaceOnUse" gradientTransform="translate(77.3973 39.3957) rotate(165.501) scale(0.825044 2.17587)">
<stop stop-color="white"/>
<stop offset="0.84" stop-color="white" stop-opacity="0"/>
</radialGradient>
<radialGradient id="paint24_radial_3576_6979" cx="0" cy="0" r="1" gradientUnits="userSpaceOnUse" gradientTransform="translate(75.3731 32.7358) rotate(154.854) scale(0.825044 2.17587)">
<stop stop-color="white"/>
<stop offset="0.84" stop-color="white" stop-opacity="0"/>
</radialGradient>
<radialGradient id="paint25_radial_3576_6979" cx="0" cy="0" r="1" gradientUnits="userSpaceOnUse" gradientTransform="translate(128.441 36.1025) rotate(90) scale(8.82268)">
<stop stop-color="#FFE86C"/>
<stop offset="1" stop-color="#FF9900"/>
</radialGradient>
<radialGradient id="paint26_radial_3576_6979" cx="0" cy="0" r="1" gradientUnits="userSpaceOnUse" gradientTransform="translate(128.442 36.1033) rotate(90) scale(6.86208)">
<stop stop-color="#FFF5BC"/>
<stop offset="0.765" stop-color="#FFA800"/>
</radialGradient>
<radialGradient id="paint27_radial_3576_6979" cx="0" cy="0" r="1" gradientUnits="userSpaceOnUse" gradientTransform="translate(131.704 33.9451) rotate(99.6063) scale(0.825044 2.17587)">
<stop stop-color="white"/>
<stop offset="0.84" stop-color="white" stop-opacity="0"/>
</radialGradient>
<radialGradient id="paint28_radial_3576_6979" cx="0" cy="0" r="1" gradientUnits="userSpaceOnUse" gradientTransform="translate(134.35 34.1222) rotate(99.6063) scale(0.825044 0.884315)">
<stop stop-color="white"/>
<stop offset="0.84" stop-color="white" stop-opacity="0"/>
</radialGradient>
<radialGradient id="paint29_radial_3576_6979" cx="0" cy="0" r="1" gradientUnits="userSpaceOnUse" gradientTransform="translate(125.752 33.173) rotate(79.8213) scale(0.567193 1.34829)">
<stop stop-color="white"/>
<stop offset="0.84" stop-color="white" stop-opacity="0"/>
</radialGradient>
<radialGradient id="paint30_radial_3576_6979" cx="0" cy="0" r="1" gradientUnits="userSpaceOnUse" gradientTransform="translate(127.34 40.2222) rotate(59.0688) scale(0.567193 1.34829)">
<stop stop-color="white"/>
<stop offset="0.84" stop-color="white" stop-opacity="0"/>
</radialGradient>
<radialGradient id="paint31_radial_3576_6979" cx="0" cy="0" r="1" gradientUnits="userSpaceOnUse" gradientTransform="translate(131.941 39.3957) rotate(165.501) scale(0.825044 2.17587)">
<stop stop-color="white"/>
<stop offset="0.84" stop-color="white" stop-opacity="0"/>
</radialGradient>
<radialGradient id="paint32_radial_3576_6979" cx="0" cy="0" r="1" gradientUnits="userSpaceOnUse" gradientTransform="translate(129.916 32.7358) rotate(154.854) scale(0.825044 2.17587)">
<stop stop-color="white"/>
<stop offset="0.84" stop-color="white" stop-opacity="0"/>
</radialGradient>
</defs>
</svg>
