<svg width="198" height="209" viewBox="0 0 198 209" fill="none" xmlns="http://www.w3.org/2000/svg">
<path d="M13.9707 76.0044C26.8697 83.3549 31.3676 99.7704 24.017 112.669C11.1181 105.319 6.62016 88.9034 13.9707 76.0044Z" fill="#0BF5D3"/>
<path d="M39.375 97.3975C45.3073 108.348 41.2397 122.033 30.2896 127.966C24.3572 117.016 28.4249 103.33 39.375 97.3975Z" fill="#0BF5D3"/>
<path d="M3.79004 108.89C16.1422 107.302 27.4427 116.028 29.0303 128.381C16.6781 129.968 5.37766 121.242 3.79004 108.89Z" fill="#00DDBD"/>
<path d="M46.4219 118.406C54.5315 127.858 53.4437 142.094 43.9921 150.204C35.8825 140.752 36.9704 126.516 46.4219 118.406Z" fill="#0BF5D3"/>
<path d="M23.6846 110.28C25.3517 119.449 33.437 140.975 52.4417 153.729" stroke="#0BF5D3" stroke-width="1.40178" stroke-linecap="round" stroke-linejoin="round"/>
<path d="M13.6846 143.081C24.1693 136.36 38.117 139.412 44.8378 149.896C34.3531 156.617 20.4053 153.566 13.6846 143.081Z" fill="#00DDBD"/>
<path d="M184.7 76.0044C171.801 83.3549 167.303 99.7704 174.654 112.669C187.553 105.319 192.051 88.9034 184.7 76.0044Z" fill="#0BF5D3"/>
<path d="M159.296 97.3975C153.364 108.348 157.431 122.033 168.381 127.966C174.314 117.016 170.246 103.33 159.296 97.3975Z" fill="#0BF5D3"/>
<path d="M194.885 108.89C182.533 107.302 171.232 116.028 169.644 128.381C181.997 129.968 193.297 121.242 194.885 108.89Z" fill="#00DDBD"/>
<path d="M152.26 118.406C144.15 127.858 145.238 142.094 154.689 150.204C162.799 140.752 161.711 126.516 152.26 118.406Z" fill="#0BF5D3"/>
<path d="M174.996 110.28C173.329 119.449 165.244 140.975 146.239 153.729" stroke="#0BF5D3" stroke-width="1.40178" stroke-linecap="round" stroke-linejoin="round"/>
<path d="M184.998 143.084C174.513 136.363 160.566 139.415 153.845 149.899C164.33 156.62 178.277 153.569 184.998 143.084Z" fill="#00DDBD"/>
<path d="M101.831 7.94971L167.143 55.7748V151.425L101.831 199.25L36.518 151.425V55.7748L101.831 7.94971Z" fill="#00FFDA"/>
<path d="M101.83 24.5029L155.991 64.0506V143.146L101.83 182.694L47.6679 143.146V64.0506L101.83 24.5029Z" fill="url(#paint0_linear_2944_12292)"/>
<path d="M102.544 24.4997L123.697 40.1346C102.84 59.8917 84.2717 49.9338 76.7922 42.8939L102.544 24.4997Z" fill="url(#paint1_radial_2944_12292)"/>
<path d="M47.5678 64.0499L36.5312 55.7725V151.423L47.5678 143.145V64.0499Z" fill="#71FFEA"/>
<path d="M156.094 64.0499L167.131 55.7725V151.423L156.094 143.145V64.0499Z" fill="#00FFDA"/>
<path d="M101.83 24.5045V7.94971L167.13 55.7748L156.093 64.0522L101.83 24.5045Z" fill="url(#paint2_linear_2944_12292)"/>
<path d="M101.83 182.695V199.25L36.5304 151.425L47.567 143.147L101.83 182.695Z" fill="url(#paint3_linear_2944_12292)"/>
<path d="M135.86 49.334L47.5674 114.634V143.145L156.094 64.0494L135.86 49.334Z" fill="url(#paint4_linear_2944_12292)"/>
<path d="M67.802 157.86L60.4443 152.342L156.095 79.6846V88.8817L67.802 157.86Z" fill="url(#paint5_linear_2944_12292)"/>
<path d="M156.095 143.145L135.862 157.861C128.714 130.035 146.309 115.916 156.095 112.795L156.095 143.145Z" fill="url(#paint6_radial_2944_12292)"/>
<path d="M100.775 7.73422L123.463 18.2797C102.606 38.0368 81.7202 29.5079 74.2408 22.4681L100.775 7.73422Z" fill="url(#paint7_radial_2944_12292)"/>
<path d="M156.095 64.0513L177.243 48.4537C185.018 76.1104 165.807 89.2197 156.095 92.5617L156.095 64.0513Z" fill="url(#paint8_radial_2944_12292)"/>
<path d="M97.881 6.68174C99.1767 4.14278 102.805 4.14278 104.1 6.68174L108.73 15.7539C109.237 16.7479 110.189 17.4395 111.291 17.6148L121.35 19.2146C124.165 19.6623 125.286 23.1126 123.272 25.1295L116.075 32.3362C115.286 33.1258 114.922 34.2448 115.096 35.3471L116.683 45.408C117.127 48.2237 114.192 50.3561 111.652 49.0636L102.574 44.4454C101.579 43.9394 100.402 43.9394 99.4076 44.4454L90.3295 49.0636C87.7889 50.3561 84.8539 48.2237 85.298 45.408L86.8849 35.3471C87.0588 34.2448 86.6952 33.1258 85.9066 32.3362L78.7091 25.1295C76.6948 23.1126 77.8159 19.6623 80.631 19.2146L90.6898 17.6148C91.7919 17.4395 92.7439 16.7479 93.2511 15.7539L97.881 6.68174Z" fill="url(#paint9_radial_2944_12292)"/>
<path d="M99.4349 9.97051C100.083 8.70103 101.897 8.70103 102.545 9.97051L107.234 19.1587C107.487 19.6557 107.963 20.0015 108.514 20.0891L118.702 21.7093C120.109 21.9332 120.67 23.6583 119.663 24.6668L112.373 31.9656C111.979 32.3604 111.797 32.9199 111.884 33.4711L113.491 43.6606C113.713 45.0685 112.246 46.1346 110.975 45.4884L101.781 40.8112C101.284 40.5582 100.696 40.5582 100.198 40.8112L91.0041 45.4884C89.7338 46.1347 88.2663 45.0684 88.4884 43.6606L90.0955 33.4711C90.1825 32.9199 90.0007 32.3604 89.6064 31.9656L82.3169 24.6668C81.3097 23.6583 81.8703 21.9332 83.2778 21.7093L93.4653 20.0891C94.0163 20.0015 94.4923 19.6557 94.7459 19.1587L99.4349 9.97051Z" fill="url(#paint10_radial_2944_12292)"/>
<path d="M104.743 20.9563C104.401 18.7554 106.63 18.5969 107.788 18.7928C108.945 18.9887 112.099 19.7011 115.454 20.9832C119.647 22.5859 118.485 24.1752 117.47 24.8964C116.035 25.9162 113.851 25.1768 111.247 24.736C108.642 24.2952 105.17 23.7075 104.743 20.9563Z" fill="url(#paint11_radial_2944_12292)"/>
<path d="M117.334 22.2098C117.404 20.0786 118.363 19.705 118.833 19.7847C119.304 19.8643 120.568 20.2568 121.862 21.1902C123.479 22.3568 122.832 24.0333 122.332 24.8417C121.626 25.9849 120.774 25.4709 119.716 25.2918C118.657 25.1126 117.246 24.8738 117.334 22.2098Z" fill="url(#paint12_radial_2944_12292)" fill-opacity="0.56"/>
<path d="M88.0893 20.3737C87.4031 19.0211 88.6634 18.4258 89.3794 18.2973C90.0954 18.1687 92.0857 17.9344 94.3192 18.0253C97.1111 18.139 96.788 19.4269 96.358 20.1191C95.7499 21.0979 94.317 21.1005 92.7061 21.3897C91.0951 21.6789 88.9472 22.0646 88.0893 20.3737Z" fill="url(#paint13_radial_2944_12292)" fill-opacity="0.5"/>
<path d="M93.7613 44.5958C92.6403 43.5741 93.608 42.5708 94.2319 42.1969C94.8559 41.823 96.6341 40.8986 98.7549 40.1923C101.406 39.3094 101.56 40.6282 101.403 41.4278C101.181 42.5586 99.8425 43.0687 98.4385 43.91C97.0346 44.7513 95.1627 45.873 93.7613 44.5958Z" fill="url(#paint14_radial_2944_12292)" fill-opacity="0.5"/>
<path d="M110.601 33.0644C112.471 31.8535 113.526 33.8238 113.82 34.9604C114.114 36.0969 114.751 39.2664 114.951 42.8524C115.201 47.3348 113.276 46.9232 112.203 46.2913C110.686 45.3975 110.469 43.1021 109.807 40.5449C109.146 37.9877 108.264 34.5781 110.601 33.0644Z" fill="url(#paint15_radial_2944_12292)"/>
<path d="M102.851 11.9725C104.465 10.437 105.866 12.1784 106.364 13.2411C106.863 14.3037 108.076 17.3009 108.935 20.7881C110.008 25.1472 108.04 25.0985 106.869 24.6756C105.213 24.0776 104.575 21.8618 103.453 19.4708C102.331 17.0798 100.834 13.8918 102.851 11.9725Z" fill="url(#paint16_radial_2944_12292)"/>
<path d="M71.765 31.9742C72.6399 30.2598 75.0895 30.2598 75.9643 31.9742C76.3069 32.6453 76.9496 33.1123 77.6938 33.2307C79.5945 33.533 80.3515 35.8627 78.9914 37.2245C78.459 37.7576 78.2134 38.5132 78.3308 39.2575C78.6307 41.1587 76.649 42.5985 74.9335 41.7258C74.2619 41.3842 73.4674 41.3842 72.7958 41.7258C71.0804 42.5985 69.0986 41.1587 69.3985 39.2575C69.5159 38.5132 69.2704 37.7576 68.7379 37.2245C67.3778 35.8627 68.1348 33.533 70.0356 33.2307C70.7797 33.1123 71.4225 32.6453 71.765 31.9742Z" fill="url(#paint17_radial_2944_12292)"/>
<path d="M72.3121 32.868C72.96 31.5985 74.7739 31.5985 75.4218 32.868L75.5204 33.0611C75.774 33.5581 76.2499 33.9039 76.801 33.9916L77.0152 34.0256C78.4227 34.2495 78.9832 35.9746 77.9761 36.9831L77.8229 37.1365C77.4286 37.5313 77.2468 38.0908 77.3337 38.642L77.3675 38.8562C77.5895 40.264 76.122 41.3302 74.8517 40.684L74.6584 40.5857C74.1611 40.3327 73.5728 40.3327 73.0755 40.5857L72.8822 40.684C71.6119 41.3302 70.1444 40.264 70.3665 38.8562L70.4002 38.642C70.4872 38.0908 70.3054 37.5313 69.9111 37.1365L69.7578 36.9831C68.7507 35.9746 69.3112 34.2495 70.7188 34.0256L70.9329 33.9916C71.484 33.9039 71.9599 33.5581 72.2136 33.0611L72.3121 32.868Z" fill="url(#paint18_radial_2944_12292)"/>
<path d="M75.0247 34.1616C74.9189 33.4805 75.6088 33.4315 75.967 33.4921C76.3252 33.5528 77.301 33.7732 78.3392 34.1699C79.6369 34.6659 79.2773 35.1577 78.9632 35.3809C78.519 35.6965 77.8432 35.4676 77.0373 35.3312C76.2315 35.1948 75.1569 35.013 75.0247 34.1616Z" fill="url(#paint19_radial_2944_12292)"/>
<path d="M78.9217 34.55C78.9435 33.8905 79.24 33.7749 79.3856 33.7995C79.5312 33.8242 79.9224 33.9456 80.3227 34.2345C80.8231 34.5955 80.623 35.1143 80.4684 35.3644C80.2497 35.7182 79.9862 35.5591 79.6587 35.5037C79.3312 35.4483 78.8945 35.3743 78.9217 34.55Z" fill="url(#paint20_radial_2944_12292)" fill-opacity="0.56"/>
<path d="M69.8733 33.9815C69.6609 33.5629 70.051 33.3787 70.2725 33.3389C70.4941 33.2992 71.11 33.2266 71.8011 33.2548C72.6651 33.29 72.5651 33.6885 72.432 33.9027C72.2438 34.2056 71.8004 34.2064 71.3019 34.2959C70.8034 34.3854 70.1388 34.5047 69.8733 33.9815Z" fill="url(#paint21_radial_2944_12292)" fill-opacity="0.5"/>
<path d="M71.6269 41.4772C71.28 41.1611 71.5794 40.8506 71.7725 40.7349C71.9656 40.6192 72.5158 40.3331 73.1721 40.1146C73.9925 39.8413 74.0402 40.2494 73.9916 40.4969C73.923 40.8468 73.5087 41.0047 73.0742 41.265C72.6398 41.5253 72.0605 41.8724 71.6269 41.4772Z" fill="url(#paint22_radial_2944_12292)" fill-opacity="0.5"/>
<path d="M76.8385 37.9084C77.417 37.5337 77.7435 38.1434 77.8344 38.4951C77.9254 38.8468 78.1227 39.8276 78.1845 40.9373C78.2618 42.3243 77.6661 42.197 77.3341 42.0014C76.8646 41.7249 76.7975 41.0145 76.5928 40.2232C76.3882 39.4319 76.1154 38.3768 76.8385 37.9084Z" fill="url(#paint23_radial_2944_12292)"/>
<path d="M74.4413 31.3814C74.9406 30.9063 75.3741 31.4452 75.5285 31.774C75.6828 32.1029 76.058 33.0303 76.3238 34.1094C76.656 35.4583 76.047 35.4433 75.6846 35.3124C75.1721 35.1273 74.9749 34.4417 74.6276 33.7018C74.2803 32.9619 73.8172 31.9754 74.4413 31.3814Z" fill="url(#paint24_radial_2944_12292)"/>
<path d="M126.309 31.9742C127.184 30.2598 129.633 30.2598 130.508 31.9742C130.851 32.6453 131.494 33.1123 132.238 33.2307C134.138 33.533 134.895 35.8627 133.535 37.2245C133.003 37.7576 132.757 38.5132 132.875 39.2575C133.175 41.1587 131.193 42.5985 129.477 41.7258C128.806 41.3842 128.011 41.3842 127.34 41.7258C125.624 42.5985 123.643 41.1587 123.942 39.2575C124.06 38.5132 123.814 37.7576 123.282 37.2245C121.922 35.8627 122.679 33.533 124.58 33.2307C125.324 33.1123 125.966 32.6453 126.309 31.9742Z" fill="url(#paint25_radial_2944_12292)"/>
<path d="M126.855 32.868C127.503 31.5985 129.317 31.5985 129.965 32.868L130.063 33.0611C130.317 33.5581 130.793 33.9039 131.344 33.9916L131.558 34.0256C132.966 34.2495 133.526 35.9746 132.519 36.9831L132.366 37.1365C131.972 37.5313 131.79 38.0908 131.877 38.642L131.91 38.8562C132.133 40.264 130.665 41.3302 129.395 40.684L129.201 40.5857C128.704 40.3327 128.116 40.3327 127.618 40.5857L127.425 40.684C126.155 41.3302 124.687 40.264 124.909 38.8562L124.943 38.642C125.03 38.0908 124.848 37.5313 124.454 37.1365L124.301 36.9831C123.294 35.9746 123.854 34.2495 125.262 34.0256L125.476 33.9916C126.027 33.9039 126.503 33.5581 126.757 33.0611L126.855 32.868Z" fill="url(#paint26_radial_2944_12292)"/>
<path d="M129.57 34.1616C129.464 33.4805 130.154 33.4315 130.512 33.4921C130.87 33.5528 131.846 33.7732 132.884 34.1699C134.182 34.6659 133.822 35.1577 133.508 35.3809C133.064 35.6965 132.388 35.4676 131.582 35.3312C130.776 35.1948 129.702 35.013 129.57 34.1616Z" fill="url(#paint27_radial_2944_12292)"/>
<path d="M133.465 34.55C133.486 33.8905 133.783 33.7749 133.929 33.7995C134.074 33.8242 134.465 33.9456 134.866 34.2345C135.366 34.5955 135.166 35.1143 135.011 35.3644C134.793 35.7182 134.529 35.5591 134.202 35.5037C133.874 35.4483 133.437 35.3743 133.465 34.55Z" fill="url(#paint28_radial_2944_12292)" fill-opacity="0.56"/>
<path d="M124.417 33.9815C124.205 33.5629 124.595 33.3787 124.816 33.3389C125.038 33.2992 125.654 33.2266 126.345 33.2548C127.209 33.29 127.109 33.6885 126.976 33.9027C126.788 34.2056 126.344 34.2064 125.846 34.2959C125.347 34.3854 124.683 34.5047 124.417 33.9815Z" fill="url(#paint29_radial_2944_12292)" fill-opacity="0.5"/>
<path d="M126.171 41.4772C125.824 41.1611 126.123 40.8506 126.316 40.7349C126.51 40.6192 127.06 40.3331 127.716 40.1146C128.536 39.8413 128.584 40.2494 128.536 40.4969C128.467 40.8468 128.053 41.0047 127.618 41.265C127.184 41.5253 126.604 41.8724 126.171 41.4772Z" fill="url(#paint30_radial_2944_12292)" fill-opacity="0.5"/>
<path d="M131.382 37.9084C131.961 37.5337 132.287 38.1434 132.378 38.4951C132.469 38.8468 132.667 39.8276 132.728 40.9373C132.806 42.3243 132.21 42.197 131.878 42.0014C131.409 41.7249 131.341 41.0145 131.137 40.2232C130.932 39.4319 130.659 38.3768 131.382 37.9084Z" fill="url(#paint31_radial_2944_12292)"/>
<path d="M128.984 31.3814C129.484 30.9063 129.917 31.4452 130.071 31.774C130.226 32.1029 130.601 33.0303 130.867 34.1094C131.199 35.4583 130.59 35.4433 130.228 35.3124C129.715 35.1273 129.518 34.4417 129.171 33.7018C128.823 32.9619 128.36 31.9754 128.984 31.3814Z" fill="url(#paint32_radial_2944_12292)"/>
<mask id="path-49-outside-1_2944_12292" maskUnits="userSpaceOnUse" x="73.3311" y="62.3242" width="50" height="81" fill="black">
<rect fill="white" x="73.3311" y="62.3242" width="50" height="81"/>
<path d="M112.293 69.9609C114.235 70.1964 115.265 71.1676 115.383 72.8746C115.501 76.4063 115.589 80.5266 115.648 85.2355C115.707 89.8856 115.736 94.7417 115.736 99.8038C115.795 104.807 115.795 109.751 115.736 114.637C115.677 119.464 115.619 123.819 115.56 127.704C115.501 130.294 114.912 132.266 113.794 133.62C112.676 134.974 110.763 135.709 108.055 135.827C106.642 135.886 105.524 135.739 104.7 135.386C103.876 135.091 103.228 134.591 102.757 133.885C102.345 133.178 102.051 132.295 101.874 131.236C101.698 130.176 101.58 128.97 101.521 127.616C101.227 121.2 100.962 114.578 100.727 107.75C100.55 100.863 100.373 94.1531 100.197 87.6194C99.4905 87.9138 98.5782 88.3258 97.4598 88.8555C96.3414 89.3264 95.1348 89.8562 93.8398 90.4448C92.6037 91.0334 91.3382 91.5926 90.0432 92.1224C88.8071 92.5933 87.7182 92.917 86.7764 93.0936C85.658 93.329 84.7162 93.2113 83.951 92.7404C83.1858 92.2107 82.4501 91.2394 81.7437 89.8268C81.0374 88.4141 80.7137 87.2368 80.7725 86.2951C80.8902 85.2944 81.2728 84.5292 81.9203 83.9995C82.9798 83.1754 84.2454 82.2336 85.7169 81.1741C87.1884 80.1146 88.7188 79.0551 90.3081 77.9956C91.8974 76.8772 93.4278 75.7883 94.8993 74.7287C96.4297 73.6692 97.7541 72.7569 98.8725 71.9917C99.8731 71.2853 100.785 70.785 101.61 70.4907C102.434 70.1964 103.317 69.9904 104.258 69.8727C105.436 69.7549 106.789 69.7255 108.32 69.7844C109.85 69.7844 111.175 69.8432 112.293 69.9609Z"/>
</mask>
<path d="M112.293 69.9609C114.235 70.1964 115.265 71.1676 115.383 72.8746C115.501 76.4063 115.589 80.5266 115.648 85.2355C115.707 89.8856 115.736 94.7417 115.736 99.8038C115.795 104.807 115.795 109.751 115.736 114.637C115.677 119.464 115.619 123.819 115.56 127.704C115.501 130.294 114.912 132.266 113.794 133.62C112.676 134.974 110.763 135.709 108.055 135.827C106.642 135.886 105.524 135.739 104.7 135.386C103.876 135.091 103.228 134.591 102.757 133.885C102.345 133.178 102.051 132.295 101.874 131.236C101.698 130.176 101.58 128.97 101.521 127.616C101.227 121.2 100.962 114.578 100.727 107.75C100.55 100.863 100.373 94.1531 100.197 87.6194C99.4905 87.9138 98.5782 88.3258 97.4598 88.8555C96.3414 89.3264 95.1348 89.8562 93.8398 90.4448C92.6037 91.0334 91.3382 91.5926 90.0432 92.1224C88.8071 92.5933 87.7182 92.917 86.7764 93.0936C85.658 93.329 84.7162 93.2113 83.951 92.7404C83.1858 92.2107 82.4501 91.2394 81.7437 89.8268C81.0374 88.4141 80.7137 87.2368 80.7725 86.2951C80.8902 85.2944 81.2728 84.5292 81.9203 83.9995C82.9798 83.1754 84.2454 82.2336 85.7169 81.1741C87.1884 80.1146 88.7188 79.0551 90.3081 77.9956C91.8974 76.8772 93.4278 75.7883 94.8993 74.7287C96.4297 73.6692 97.7541 72.7569 98.8725 71.9917C99.8731 71.2853 100.785 70.785 101.61 70.4907C102.434 70.1964 103.317 69.9904 104.258 69.8727C105.436 69.7549 106.789 69.7255 108.32 69.7844C109.85 69.7844 111.175 69.8432 112.293 69.9609Z" fill="white"/>
<path d="M112.293 69.9609L113.178 62.6567L113.121 62.6497L113.063 62.6437L112.293 69.9609ZM115.383 72.8746L122.737 72.6295L122.732 72.4988L122.723 72.3684L115.383 72.8746ZM115.648 85.2355L108.291 85.3275L108.291 85.3287L115.648 85.2355ZM115.736 99.8038H108.379V99.8471L108.379 99.8904L115.736 99.8038ZM115.736 114.637L123.093 114.727L123.094 114.726L115.736 114.637ZM115.56 127.704L122.916 127.871L122.916 127.844L122.917 127.816L115.56 127.704ZM113.794 133.62L108.121 128.934L108.121 128.934L113.794 133.62ZM108.055 135.827L108.361 143.178L108.374 143.178L108.055 135.827ZM104.7 135.386L107.598 128.623L107.389 128.533L107.174 128.457L104.7 135.386ZM102.757 133.885L96.4019 137.592L96.513 137.783L96.6354 137.966L102.757 133.885ZM101.874 131.236L109.132 130.026L109.132 130.026L101.874 131.236ZM101.521 127.616L108.872 127.296L108.872 127.288L108.871 127.279L101.521 127.616ZM100.727 107.75L93.3713 107.939L93.3722 107.971L93.3733 108.004L100.727 107.75ZM100.197 87.6194L107.552 87.4207L107.262 76.7047L97.367 80.8277L100.197 87.6194ZM97.4598 88.8555L100.315 95.6367L100.464 95.574L100.61 95.505L97.4598 88.8555ZM93.8398 90.4448L90.7952 83.7466L90.7356 83.7737L90.6765 83.8018L93.8398 90.4448ZM90.0432 92.1224L92.6625 98.998L92.7462 98.9662L92.8291 98.9323L90.0432 92.1224ZM86.7764 93.0936L85.4205 85.8619L85.3404 85.8769L85.2606 85.8937L86.7764 93.0936ZM83.951 92.7404L79.763 98.7899L79.926 98.9027L80.0949 99.0067L83.951 92.7404ZM81.7437 89.8268L88.3247 86.5363L88.3247 86.5363L81.7437 89.8268ZM80.7725 86.2951L73.4652 85.4354L73.4417 85.6352L73.4291 85.8361L80.7725 86.2951ZM81.9203 83.9995L77.4031 78.1916L77.3314 78.2474L77.2611 78.3049L81.9203 83.9995ZM85.7169 81.1741L90.016 87.1451L85.7169 81.1741ZM90.3081 77.9956L94.3894 84.1175L94.4666 84.0661L94.5424 84.0127L90.3081 77.9956ZM94.8993 74.7287L90.7112 68.6793L90.6553 68.718L90.6002 68.7577L94.8993 74.7287ZM98.8725 71.9917L103.027 78.064L103.072 78.0337L103.116 78.0027L98.8725 71.9917ZM101.61 70.4907L99.1349 63.5616L99.1349 63.5616L101.61 70.4907ZM104.258 69.8727L103.526 62.5515L103.436 62.5605L103.346 62.5718L104.258 69.8727ZM108.32 69.7844L108.037 77.1366L108.178 77.1421H108.32V69.7844ZM112.293 69.9609L111.408 77.2652C111.402 77.2645 110.467 77.155 109.475 76.2193C108.373 75.1809 108.083 73.9675 108.043 73.3808L115.383 72.8746L122.723 72.3684C122.565 70.0747 121.701 67.5222 119.57 65.5126C117.547 63.6056 115.126 62.8928 113.178 62.6567L112.293 69.9609ZM115.383 72.8746L108.03 73.1197C108.145 76.5869 108.232 80.654 108.291 85.3275L115.648 85.2355L123.005 85.1436C122.946 80.3992 122.857 76.2257 122.737 72.6295L115.383 72.8746ZM115.648 85.2355L108.291 85.3287C108.349 89.9451 108.379 94.7701 108.379 99.8038H115.736H123.094C123.094 94.7133 123.064 89.8261 123.005 85.1424L115.648 85.2355ZM115.736 99.8038L108.379 99.8904C108.437 104.837 108.437 109.723 108.379 114.548L115.736 114.637L123.094 114.726C123.153 109.78 123.153 104.777 123.094 99.7172L115.736 99.8038ZM115.736 114.637L108.379 114.547C108.32 119.368 108.262 123.717 108.203 127.593L115.56 127.704L122.917 127.816C122.976 123.922 123.035 119.559 123.093 114.727L115.736 114.637ZM115.56 127.704L108.204 127.537C108.186 128.337 108.089 128.802 108.024 129.021C107.964 129.223 107.955 129.135 108.121 128.934L113.794 133.62L119.466 138.306C122.035 135.197 122.836 131.358 122.916 127.871L115.56 127.704ZM113.794 133.62L108.121 128.934C108.295 128.723 108.476 128.567 108.63 128.461C108.78 128.358 108.876 128.321 108.879 128.32C108.88 128.32 108.796 128.352 108.6 128.388C108.405 128.424 108.122 128.46 107.735 128.476L108.055 135.827L108.374 143.178C112.04 143.019 116.444 141.965 119.466 138.306L113.794 133.62ZM108.055 135.827L107.749 128.476C107.562 128.484 107.416 128.483 107.307 128.479C107.198 128.476 107.136 128.469 107.116 128.466C107.096 128.463 107.13 128.467 107.208 128.487C107.287 128.507 107.422 128.547 107.598 128.623L104.7 135.386L101.801 142.148C104.053 143.114 106.417 143.259 108.361 143.178L108.055 135.827ZM104.7 135.386L107.174 128.457C107.441 128.552 107.765 128.713 108.095 128.968C108.427 129.224 108.689 129.517 108.879 129.803L102.757 133.885L96.6354 137.966C98.0127 140.032 99.9599 141.506 102.225 142.315L104.7 135.386ZM102.757 133.885L109.113 130.177C109.194 130.317 109.216 130.392 109.208 130.366C109.199 130.34 109.167 130.233 109.132 130.026L101.874 131.236L94.6168 132.446C94.8966 134.124 95.4237 135.915 96.4019 137.592L102.757 133.885ZM101.874 131.236L109.132 130.026C109.015 129.326 108.921 128.425 108.872 127.296L101.521 127.616L94.1705 127.936C94.2391 129.514 94.3804 131.027 94.6168 132.446L101.874 131.236ZM101.521 127.616L108.871 127.279C108.578 120.892 108.314 114.298 108.08 107.497L100.727 107.75L93.3733 108.004C93.6096 114.858 93.8756 121.508 94.1713 127.953L101.521 127.616ZM100.727 107.75L108.082 107.562C107.905 100.672 107.729 93.9579 107.552 87.4207L100.197 87.6194L92.8418 87.8182C93.0183 94.3483 93.1948 101.055 93.3713 107.939L100.727 107.75ZM100.197 87.6194L97.367 80.8277C96.5081 81.1856 95.4783 81.6527 94.3101 82.2061L97.4598 88.8555L100.61 95.505C101.678 94.9988 102.473 94.6419 103.027 94.4112L100.197 87.6194ZM97.4598 88.8555L94.6046 82.0744C93.413 82.5761 92.1425 83.1342 90.7952 83.7466L93.8398 90.4448L96.8844 97.143C98.127 96.5782 99.2698 96.0767 100.315 95.6367L97.4598 88.8555ZM93.8398 90.4448L90.6765 83.8018C89.5673 84.33 88.4277 84.8337 87.2574 85.3125L90.0432 92.1224L92.8291 98.9323C94.2486 98.3515 95.6401 97.7368 97.0031 97.0878L93.8398 90.4448ZM90.0432 92.1224L87.4239 85.2467C86.4552 85.6157 85.8039 85.79 85.4205 85.8619L86.7764 93.0936L88.1323 100.325C89.6325 100.044 91.159 99.5708 92.6625 98.998L90.0432 92.1224ZM86.7764 93.0936L85.2606 85.8937C85.3418 85.8766 85.6593 85.8204 86.1439 85.881C86.6568 85.9451 87.2437 86.1274 87.8072 86.4742L83.951 92.7404L80.0949 99.0067C82.8685 100.714 85.8522 100.807 88.2922 100.293L86.7764 93.0936ZM83.951 92.7404L88.1391 86.691C88.3571 86.8418 88.5034 86.9757 88.5853 87.0576C88.6673 87.1396 88.7 87.1848 88.6901 87.1717C88.6806 87.1592 88.6406 87.1046 88.5744 86.9951C88.5087 86.8864 88.4245 86.7359 88.3247 86.5363L81.7437 89.8268L75.1628 93.1172C76.0844 94.9603 77.5018 97.2245 79.763 98.7899L83.951 92.7404ZM81.7437 89.8268L88.3247 86.5363C88.2294 86.3457 88.1648 86.1985 88.1225 86.0922C88.1017 86.0398 88.0874 86.0001 88.0781 85.9728C88.0688 85.9454 88.0653 85.9325 88.0655 85.9334C88.0657 85.9342 88.0704 85.9512 88.077 85.9836C88.0836 86.0159 88.0926 86.0661 88.101 86.1329C88.1175 86.2647 88.1332 86.4769 88.1159 86.754L80.7725 86.2951L73.4291 85.8361C73.2518 88.6731 74.2224 91.2365 75.1628 93.1172L81.7437 89.8268ZM80.7725 86.2951L88.0798 87.1547C88.0564 87.3536 87.9794 87.7596 87.7287 88.2611C87.4669 88.7848 87.0771 89.2868 86.5795 89.694L81.9203 83.9995L77.2611 78.3049C74.8454 80.2814 73.7573 82.9524 73.4652 85.4354L80.7725 86.2951ZM81.9203 83.9995L86.4375 89.8073C87.4055 89.0544 88.5945 88.1686 90.016 87.1451L85.7169 81.1741L81.4178 75.2031C79.8962 76.2986 78.5541 77.2964 77.4031 78.1916L81.9203 83.9995ZM85.7169 81.1741L90.016 87.1451C91.4122 86.1399 92.8698 85.1306 94.3894 84.1175L90.3081 77.9956L86.2268 71.8736C84.5679 72.9795 82.9647 74.0893 81.4178 75.2031L85.7169 81.1741ZM90.3081 77.9956L94.5424 84.0127C96.1518 82.8802 97.7039 81.7758 99.1985 80.6998L94.8993 74.7287L90.6002 68.7577C89.1516 69.8007 87.6429 70.8742 86.0738 71.9784L90.3081 77.9956ZM94.8993 74.7287L99.0874 80.7782C100.61 79.7237 101.923 78.8194 103.027 78.064L98.8725 71.9917L94.7177 65.9193C93.585 66.6943 92.249 67.6147 90.7112 68.6793L94.8993 74.7287ZM98.8725 71.9917L103.116 78.0027C103.428 77.7823 103.67 77.6339 103.845 77.538C104.022 77.4411 104.1 77.4143 104.084 77.4198L101.61 70.4907L99.1349 63.5616C97.4879 64.1498 95.9757 65.0303 94.6294 65.9807L98.8725 71.9917ZM101.61 70.4907L104.084 77.4198C104.362 77.3205 104.717 77.2302 105.171 77.1735L104.258 69.8727L103.346 62.5718C101.916 62.7505 100.505 63.0723 99.1349 63.5616L101.61 70.4907ZM104.258 69.8727L104.99 77.1938C105.749 77.118 106.752 77.0872 108.037 77.1366L108.32 69.7844L108.603 62.4321C106.826 62.3638 105.122 62.3919 103.526 62.5515L104.258 69.8727ZM108.32 69.7844V77.1421C109.678 77.1421 110.733 77.1951 111.523 77.2782L112.293 69.9609L113.063 62.6437C111.617 62.4914 110.023 62.4267 108.32 62.4267V69.7844Z" fill="#00BCA0" mask="url(#path-49-outside-1_2944_12292)"/>
<path d="M26.6621 182.799L61.2261 175.084L67.3982 201.624L33.4515 208.414L37.772 193.909L26.6621 182.799Z" fill="#00DDBD"/>
<path d="M173.562 182.799L138.999 175.084L132.826 201.624L166.773 208.414L162.453 193.909L173.562 182.799Z" fill="#00DDBD"/>
<path d="M132.823 201.622L134.675 188.043L152.266 191.289L132.823 201.622Z" fill="#17F0D1"/>
<path d="M157.519 165.516C113.097 154.841 87.9505 155.223 42.7168 165.516L48.2717 191.439C88.8876 184.439 111.656 183.744 152.272 191.439L157.519 165.516Z" fill="#26FFDF"/>
<path d="M67.3973 201.623L65.5457 188.661L48.2637 191.439L67.3973 201.623Z" fill="#17F0D1"/>
<defs>
<linearGradient id="paint0_linear_2944_12292" x1="39.2891" y1="-19.6433" x2="186.443" y2="234.198" gradientUnits="userSpaceOnUse">
<stop stop-color="#00E3C2"/>
<stop offset="1" stop-color="#00FFDA"/>
</linearGradient>
<radialGradient id="paint1_radial_2944_12292" cx="0" cy="0" r="1" gradientUnits="userSpaceOnUse" gradientTransform="translate(102.544 30.9377) scale(27.5914 16.9994)">
<stop stop-color="white" stop-opacity="0.22"/>
<stop offset="1" stop-color="white" stop-opacity="0"/>
</radialGradient>
<linearGradient id="paint2_linear_2944_12292" x1="106.429" y1="18.0666" x2="366.707" y2="219.484" gradientUnits="userSpaceOnUse">
<stop stop-color="#00FFDA"/>
<stop offset="1" stop-color="#00B99E"/>
</linearGradient>
<linearGradient id="paint3_linear_2944_12292" x1="98.1512" y1="188.213" x2="-43.4846" y2="85.2056" gradientUnits="userSpaceOnUse">
<stop stop-color="#00B99E"/>
<stop offset="1" stop-color="#00FFDA"/>
</linearGradient>
<linearGradient id="paint4_linear_2944_12292" x1="408.095" y1="-117.134" x2="14.4577" y2="144.064" gradientUnits="userSpaceOnUse">
<stop stop-color="white" stop-opacity="0.82"/>
<stop offset="1" stop-color="white" stop-opacity="0"/>
</linearGradient>
<linearGradient id="paint5_linear_2944_12292" x1="92.6343" y1="248.912" x2="209.438" y2="9.78642" gradientUnits="userSpaceOnUse">
<stop stop-color="white" stop-opacity="0.38"/>
<stop offset="1" stop-color="white" stop-opacity="0"/>
</linearGradient>
<radialGradient id="paint6_radial_2944_12292" cx="0" cy="0" r="1" gradientTransform="matrix(-13.7957 21.1534 -10.4798 -7.30906 151.497 136.707)" gradientUnits="userSpaceOnUse">
<stop stop-color="white" stop-opacity="0.1"/>
<stop offset="1" stop-color="white" stop-opacity="0"/>
</radialGradient>
<radialGradient id="paint7_radial_2944_12292" cx="0" cy="0" r="1" gradientTransform="matrix(25.1908 1.79199 -1.30252 12.7103 97.3788 14.8796)" gradientUnits="userSpaceOnUse">
<stop stop-color="white" stop-opacity="0.1"/>
<stop offset="1" stop-color="white" stop-opacity="0"/>
</radialGradient>
<radialGradient id="paint8_radial_2944_12292" cx="0" cy="0" r="1" gradientTransform="matrix(13.3137 -21.46 10.6425 7.07014 162.09 69.9546)" gradientUnits="userSpaceOnUse">
<stop stop-color="white" stop-opacity="0.1"/>
<stop offset="1" stop-color="white" stop-opacity="0"/>
</radialGradient>
<radialGradient id="paint9_radial_2944_12292" cx="0" cy="0" r="1" gradientUnits="userSpaceOnUse" gradientTransform="translate(100.991 29.0995) rotate(90) scale(28.5111)">
<stop stop-color="#FFE86C"/>
<stop offset="1" stop-color="#FF9900"/>
</radialGradient>
<radialGradient id="paint10_radial_2944_12292" cx="0" cy="0" r="1" gradientUnits="userSpaceOnUse" gradientTransform="translate(100.99 29.0991) rotate(90) scale(22.1753)">
<stop stop-color="#FFF5BC"/>
<stop offset="0.765" stop-color="#FFA800"/>
</radialGradient>
<radialGradient id="paint11_radial_2944_12292" cx="0" cy="0" r="1" gradientUnits="userSpaceOnUse" gradientTransform="translate(111.536 22.1313) rotate(99.6063) scale(2.66619 7.03148)">
<stop stop-color="white"/>
<stop offset="0.84" stop-color="white" stop-opacity="0"/>
</radialGradient>
<radialGradient id="paint12_radial_2944_12292" cx="0" cy="0" r="1" gradientUnits="userSpaceOnUse" gradientTransform="translate(120.092 22.7019) rotate(99.6063) scale(2.66619 2.85773)">
<stop stop-color="white"/>
<stop offset="0.84" stop-color="white" stop-opacity="0"/>
</radialGradient>
<radialGradient id="paint13_radial_2944_12292" cx="0" cy="0" r="1" gradientUnits="userSpaceOnUse" gradientTransform="translate(92.297 19.6357) rotate(79.8213) scale(1.83292 4.3571)">
<stop stop-color="white"/>
<stop offset="0.84" stop-color="white" stop-opacity="0"/>
</radialGradient>
<radialGradient id="paint14_radial_2944_12292" cx="0" cy="0" r="1" gradientUnits="userSpaceOnUse" gradientTransform="translate(97.4345 42.4147) rotate(59.0688) scale(1.83292 4.3571)">
<stop stop-color="white"/>
<stop offset="0.84" stop-color="white" stop-opacity="0"/>
</radialGradient>
<radialGradient id="paint15_radial_2944_12292" cx="0" cy="0" r="1" gradientUnits="userSpaceOnUse" gradientTransform="translate(112.303 39.7451) rotate(165.501) scale(2.66619 7.03148)">
<stop stop-color="white"/>
<stop offset="0.84" stop-color="white" stop-opacity="0"/>
</radialGradient>
<radialGradient id="paint16_radial_2944_12292" cx="0" cy="0" r="1" gradientUnits="userSpaceOnUse" gradientTransform="translate(105.758 18.2236) rotate(154.854) scale(2.66619 7.03148)">
<stop stop-color="white"/>
<stop offset="0.84" stop-color="white" stop-opacity="0"/>
</radialGradient>
<radialGradient id="paint17_radial_2944_12292" cx="0" cy="0" r="1" gradientUnits="userSpaceOnUse" gradientTransform="translate(73.8647 36.6825) rotate(90) scale(8.82268)">
<stop stop-color="#FFE86C"/>
<stop offset="1" stop-color="#FF9900"/>
</radialGradient>
<radialGradient id="paint18_radial_2944_12292" cx="0" cy="0" r="1" gradientUnits="userSpaceOnUse" gradientTransform="translate(73.867 36.6834) rotate(90) scale(6.86208)">
<stop stop-color="#FFF5BC"/>
<stop offset="0.765" stop-color="#FFA800"/>
</radialGradient>
<radialGradient id="paint19_radial_2944_12292" cx="0" cy="0" r="1" gradientUnits="userSpaceOnUse" gradientTransform="translate(77.1268 34.5252) rotate(99.6063) scale(0.825044 2.17587)">
<stop stop-color="white"/>
<stop offset="0.84" stop-color="white" stop-opacity="0"/>
</radialGradient>
<radialGradient id="paint20_radial_2944_12292" cx="0" cy="0" r="1" gradientUnits="userSpaceOnUse" gradientTransform="translate(79.7753 34.7023) rotate(99.6063) scale(0.825044 0.884315)">
<stop stop-color="white"/>
<stop offset="0.84" stop-color="white" stop-opacity="0"/>
</radialGradient>
<radialGradient id="paint21_radial_2944_12292" cx="0" cy="0" r="1" gradientUnits="userSpaceOnUse" gradientTransform="translate(71.1754 33.7531) rotate(79.8213) scale(0.567193 1.34829)">
<stop stop-color="white"/>
<stop offset="0.84" stop-color="white" stop-opacity="0"/>
</radialGradient>
<radialGradient id="paint22_radial_2944_12292" cx="0" cy="0" r="1" gradientUnits="userSpaceOnUse" gradientTransform="translate(72.7635 40.8023) rotate(59.0688) scale(0.567193 1.34829)">
<stop stop-color="white"/>
<stop offset="0.84" stop-color="white" stop-opacity="0"/>
</radialGradient>
<radialGradient id="paint23_radial_2944_12292" cx="0" cy="0" r="1" gradientUnits="userSpaceOnUse" gradientTransform="translate(77.3651 39.9757) rotate(165.501) scale(0.825044 2.17587)">
<stop stop-color="white"/>
<stop offset="0.84" stop-color="white" stop-opacity="0"/>
</radialGradient>
<radialGradient id="paint24_radial_2944_12292" cx="0" cy="0" r="1" gradientUnits="userSpaceOnUse" gradientTransform="translate(75.3408 33.3158) rotate(154.854) scale(0.825044 2.17587)">
<stop stop-color="white"/>
<stop offset="0.84" stop-color="white" stop-opacity="0"/>
</radialGradient>
<radialGradient id="paint25_radial_2944_12292" cx="0" cy="0" r="1" gradientUnits="userSpaceOnUse" gradientTransform="translate(128.409 36.6825) rotate(90) scale(8.82268)">
<stop stop-color="#FFE86C"/>
<stop offset="1" stop-color="#FF9900"/>
</radialGradient>
<radialGradient id="paint26_radial_2944_12292" cx="0" cy="0" r="1" gradientUnits="userSpaceOnUse" gradientTransform="translate(128.41 36.6834) rotate(90) scale(6.86208)">
<stop stop-color="#FFF5BC"/>
<stop offset="0.765" stop-color="#FFA800"/>
</radialGradient>
<radialGradient id="paint27_radial_2944_12292" cx="0" cy="0" r="1" gradientUnits="userSpaceOnUse" gradientTransform="translate(131.672 34.5252) rotate(99.6063) scale(0.825044 2.17587)">
<stop stop-color="white"/>
<stop offset="0.84" stop-color="white" stop-opacity="0"/>
</radialGradient>
<radialGradient id="paint28_radial_2944_12292" cx="0" cy="0" r="1" gradientUnits="userSpaceOnUse" gradientTransform="translate(134.318 34.7023) rotate(99.6063) scale(0.825044 0.884315)">
<stop stop-color="white"/>
<stop offset="0.84" stop-color="white" stop-opacity="0"/>
</radialGradient>
<radialGradient id="paint29_radial_2944_12292" cx="0" cy="0" r="1" gradientUnits="userSpaceOnUse" gradientTransform="translate(125.719 33.7531) rotate(79.8213) scale(0.567193 1.34829)">
<stop stop-color="white"/>
<stop offset="0.84" stop-color="white" stop-opacity="0"/>
</radialGradient>
<radialGradient id="paint30_radial_2944_12292" cx="0" cy="0" r="1" gradientUnits="userSpaceOnUse" gradientTransform="translate(127.307 40.8023) rotate(59.0688) scale(0.567193 1.34829)">
<stop stop-color="white"/>
<stop offset="0.84" stop-color="white" stop-opacity="0"/>
</radialGradient>
<radialGradient id="paint31_radial_2944_12292" cx="0" cy="0" r="1" gradientUnits="userSpaceOnUse" gradientTransform="translate(131.909 39.9757) rotate(165.501) scale(0.825044 2.17587)">
<stop stop-color="white"/>
<stop offset="0.84" stop-color="white" stop-opacity="0"/>
</radialGradient>
<radialGradient id="paint32_radial_2944_12292" cx="0" cy="0" r="1" gradientUnits="userSpaceOnUse" gradientTransform="translate(129.884 33.3158) rotate(154.854) scale(0.825044 2.17587)">
<stop stop-color="white"/>
<stop offset="0.84" stop-color="white" stop-opacity="0"/>
</radialGradient>
</defs>
</svg>
