<svg width="198" height="208" viewBox="0 0 198 208" fill="none" xmlns="http://www.w3.org/2000/svg">
<path d="M13.3516 75.4243C26.2505 82.7749 30.7484 99.1903 23.3979 112.089C10.4989 104.739 6.00102 88.3233 13.3516 75.4243Z" fill="#0BF5D3"/>
<path d="M38.7559 96.8174C44.6882 107.767 40.6205 121.453 29.6704 127.386C23.7381 116.436 27.8058 102.75 38.7559 96.8174Z" fill="#0BF5D3"/>
<path d="M3.16992 108.31C15.5221 106.722 26.8226 115.449 28.4102 127.801C16.058 129.389 4.75754 120.662 3.16992 108.31Z" fill="#00DDBD"/>
<path d="M45.8027 117.827C53.9124 127.278 52.8245 141.514 43.373 149.624C35.2634 140.172 36.3512 125.936 45.8027 117.827Z" fill="#0BF5D3"/>
<path d="M23.0654 109.7C24.7325 118.869 32.8178 140.395 51.8226 153.148" stroke="#0BF5D3" stroke-width="1.40178" stroke-linecap="round" stroke-linejoin="round"/>
<path d="M13.0654 142.5C23.5501 135.78 37.4979 138.831 44.2186 149.316C33.7339 156.037 19.7862 152.985 13.0654 142.5Z" fill="#00DDBD"/>
<path d="M184.081 75.4243C171.182 82.7749 166.684 99.1903 174.035 112.089C186.934 104.739 191.432 88.3233 184.081 75.4243Z" fill="#0BF5D3"/>
<path d="M158.677 96.8174C152.744 107.767 156.812 121.453 167.762 127.386C173.695 116.436 169.627 102.75 158.677 96.8174Z" fill="#0BF5D3"/>
<path d="M194.266 108.31C181.913 106.722 170.613 115.449 169.025 127.801C181.378 129.389 192.678 120.662 194.266 108.31Z" fill="#00DDBD"/>
<path d="M151.641 117.827C143.531 127.278 144.619 141.514 154.07 149.624C162.18 140.172 161.092 125.936 151.641 117.827Z" fill="#0BF5D3"/>
<path d="M174.377 109.7C172.71 118.869 164.625 140.395 145.62 153.148" stroke="#0BF5D3" stroke-width="1.40178" stroke-linecap="round" stroke-linejoin="round"/>
<path d="M184.379 142.503C173.894 135.783 159.946 138.834 153.226 149.319C163.71 156.039 177.658 152.988 184.379 142.503Z" fill="#00DDBD"/>
<path d="M101.211 7.36963L166.524 55.1947V150.845L101.211 198.67L35.8988 150.845V55.1947L101.211 7.36963Z" fill="#00FFDA"/>
<path d="M101.21 23.9229L155.372 63.4705V142.566L101.21 182.114L47.0488 142.566V63.4705L101.21 23.9229Z" fill="url(#paint0_linear_3576_7641)"/>
<path d="M101.925 23.9196L123.078 39.5545C102.221 59.3116 83.6525 49.3537 76.1731 42.3139L101.925 23.9196Z" fill="url(#paint1_radial_3576_7641)"/>
<path d="M46.9487 63.4698L35.9121 55.1924V150.843L46.9487 142.565V63.4698Z" fill="#71FFEA"/>
<path d="M155.475 63.4698L166.512 55.1924V150.843L155.475 142.565V63.4698Z" fill="#00FFDA"/>
<path d="M101.211 23.9245V7.36963L166.511 55.1947L155.474 63.4721L101.211 23.9245Z" fill="url(#paint2_linear_3576_7641)"/>
<path d="M101.211 182.115V198.67L35.9113 150.845L46.9479 142.567L101.211 182.115Z" fill="url(#paint3_linear_3576_7641)"/>
<path d="M135.241 48.7539L46.9482 114.054V142.565L155.474 63.4693L135.241 48.7539Z" fill="url(#paint4_linear_3576_7641)"/>
<path d="M67.1829 157.28L59.8252 151.762L155.475 79.1045V88.3016L67.1829 157.28Z" fill="url(#paint5_linear_3576_7641)"/>
<path d="M155.476 142.566L135.242 157.281C128.095 129.456 145.69 115.337 155.476 112.215L155.476 142.566Z" fill="url(#paint6_radial_3576_7641)"/>
<path d="M100.156 7.15414L122.843 17.6997C101.987 37.4567 81.1011 28.9278 73.6216 21.888L100.156 7.15414Z" fill="url(#paint7_radial_3576_7641)"/>
<path d="M155.476 63.4707L176.624 47.8731C184.399 75.5298 165.188 88.6391 155.476 91.9811L155.476 63.4707Z" fill="url(#paint8_radial_3576_7641)"/>
<path d="M97.2618 6.10166C98.5575 3.5627 102.185 3.5627 103.481 6.10166L108.111 15.1738C108.618 16.1678 109.57 16.8594 110.672 17.0347L120.731 18.6345C123.546 19.0822 124.667 22.5325 122.653 24.5494L115.455 31.7561C114.667 32.5457 114.303 33.6647 114.477 34.7671L116.064 44.8279C116.508 47.6436 113.573 49.776 111.033 48.4836L101.954 43.8654C100.96 43.3594 99.7831 43.3594 98.7885 43.8654L89.7104 48.4836C87.1698 49.776 84.2348 47.6436 84.6789 44.8279L86.2658 34.7671C86.4396 33.6647 86.076 32.5457 85.2874 31.7561L78.09 24.5494C76.0757 22.5325 77.1968 19.0822 80.0119 18.6345L90.0707 17.0347C91.1728 16.8594 92.1247 16.1678 92.632 15.1738L97.2618 6.10166Z" fill="url(#paint9_radial_3576_7641)"/>
<path d="M98.8158 9.39043C99.4637 8.12095 101.278 8.12095 101.925 9.39043L106.614 18.5786C106.868 19.0756 107.344 19.4214 107.895 19.509L118.083 21.1293C119.49 21.3531 120.051 23.0783 119.043 24.0867L111.754 31.3855C111.36 31.7803 111.178 32.3399 111.265 32.891L112.872 43.0805C113.094 44.4884 111.627 45.5546 110.356 44.9083L101.162 40.2311C100.665 39.9781 100.076 39.9781 99.5791 40.2311L90.385 44.9083C89.1147 45.5546 87.6472 44.4884 87.8692 43.0805L89.4764 32.891C89.5633 32.3399 89.3815 31.7803 88.9872 31.3855L81.6977 24.0867C80.6906 23.0783 81.2511 21.3531 82.6587 21.1293L92.8461 19.509C93.3972 19.4214 93.8731 19.0756 94.1268 18.5786L98.8158 9.39043Z" fill="url(#paint10_radial_3576_7641)"/>
<path d="M104.124 20.3762C103.782 18.1753 106.011 18.0168 107.169 18.2127C108.326 18.4086 111.48 19.121 114.834 20.4032C119.028 22.0059 117.866 23.5951 116.851 24.3163C115.416 25.3362 113.232 24.5967 110.628 24.1559C108.023 23.7151 104.551 23.1274 104.124 20.3762Z" fill="url(#paint11_radial_3576_7641)"/>
<path d="M116.715 21.6297C116.785 19.4985 117.744 19.125 118.214 19.2046C118.685 19.2842 119.949 19.6768 121.242 20.6101C122.86 21.7767 122.213 23.4532 121.713 24.2616C121.006 25.4048 120.155 24.8908 119.097 24.7117C118.038 24.5325 116.627 24.2937 116.715 21.6297Z" fill="url(#paint12_radial_3576_7641)" fill-opacity="0.56"/>
<path d="M87.4702 19.7937C86.7839 18.441 88.0443 17.8457 88.7603 17.7172C89.4762 17.5886 91.4666 17.3543 93.7001 17.4452C96.4919 17.5589 96.1689 18.8468 95.7389 19.539C95.1307 20.5178 93.6979 20.5204 92.0869 20.8096C90.476 21.0988 88.3281 21.4845 87.4702 19.7937Z" fill="url(#paint13_radial_3576_7641)" fill-opacity="0.5"/>
<path d="M93.1422 44.0157C92.0211 42.994 92.9888 41.9908 93.6128 41.6169C94.2368 41.243 96.0149 40.3186 98.1357 39.6122C100.787 38.7293 100.941 40.0481 100.784 40.8477C100.562 41.9786 99.2233 42.4886 97.8194 43.3299C96.4154 44.1712 94.5435 45.2929 93.1422 44.0157Z" fill="url(#paint14_radial_3576_7641)" fill-opacity="0.5"/>
<path d="M109.982 32.4844C111.852 31.2734 112.907 33.2438 113.201 34.3803C113.494 35.5168 114.132 38.6864 114.332 42.2723C114.582 46.7547 112.656 46.3431 111.584 45.7112C110.066 44.8174 109.85 42.522 109.188 39.9648C108.527 37.4076 107.645 33.998 109.982 32.4844Z" fill="url(#paint15_radial_3576_7641)"/>
<path d="M102.232 11.3924C103.845 9.8569 105.246 11.5983 105.745 12.661C106.244 13.7237 107.456 16.7208 108.315 20.2081C109.389 24.5671 107.421 24.5184 106.25 24.0955C104.594 23.4975 103.956 21.2817 102.834 18.8907C101.712 16.4997 100.215 13.3118 102.232 11.3924Z" fill="url(#paint16_radial_3576_7641)"/>
<path d="M71.1459 31.3941C72.0207 29.6798 74.4703 29.6798 75.3452 31.3941C75.6877 32.0653 76.3305 32.5322 77.0746 32.6506C78.9754 32.9529 79.7324 35.2826 78.3723 36.6444C77.8398 37.1776 77.5943 37.9331 77.7117 38.6775C78.0116 40.5786 76.0298 42.0184 74.3144 41.1458C73.6428 40.8041 72.8483 40.8041 72.1767 41.1458C70.4612 42.0184 68.4795 40.5786 68.7794 38.6775C68.8967 37.9331 68.6512 37.1776 68.1188 36.6444C66.7587 35.2826 67.5157 32.9529 69.4164 32.6506C70.1606 32.5322 70.8033 32.0653 71.1459 31.3941Z" fill="url(#paint17_radial_3576_7641)"/>
<path d="M71.693 32.2879C72.3409 31.0184 74.1548 31.0184 74.8026 32.2879L74.9012 32.481C75.1549 32.978 75.6308 33.3238 76.1819 33.4115L76.396 33.4455C77.8036 33.6694 78.3641 35.3946 77.357 36.403L77.2037 36.5564C76.8094 36.9512 76.6276 37.5107 76.7146 38.0619L76.7483 38.2761C76.9704 39.6839 75.5029 40.7501 74.2326 40.1039L74.0393 40.0056C73.542 39.7526 72.9537 39.7526 72.4563 40.0056L72.2631 40.1039C70.9928 40.7501 69.5253 39.6839 69.7473 38.2761L69.7811 38.0619C69.868 37.5107 69.6862 36.9512 69.2919 36.5564L69.1387 36.403C68.1315 35.3946 68.6921 33.6694 70.0996 33.4455L70.3138 33.4115C70.8648 33.3238 71.3408 32.978 71.5944 32.481L71.693 32.2879Z" fill="url(#paint18_radial_3576_7641)"/>
<path d="M74.4056 33.5815C74.2998 32.9005 74.9897 32.8514 75.3478 32.9121C75.706 32.9727 76.6819 33.1931 77.72 33.5899C79.0177 34.0858 78.6582 34.5776 78.3441 34.8008C77.8999 35.1164 77.2241 34.8875 76.4182 34.7511C75.6123 34.6148 74.5378 34.4329 74.4056 33.5815Z" fill="url(#paint19_radial_3576_7641)"/>
<path d="M78.3025 33.9699C78.3243 33.3104 78.6209 33.1948 78.7665 33.2195C78.912 33.2441 79.3032 33.3656 79.7036 33.6544C80.204 34.0154 80.0039 34.5342 79.8492 34.7843C79.6305 35.1381 79.3671 34.979 79.0395 34.9236C78.712 34.8682 78.2753 34.7943 78.3025 33.9699Z" fill="url(#paint20_radial_3576_7641)" fill-opacity="0.56"/>
<path d="M69.2542 33.4014C69.0418 32.9828 69.4318 32.7986 69.6534 32.7589C69.8749 32.7191 70.4908 32.6466 71.182 32.6747C72.0459 32.7099 71.9459 33.1084 71.8129 33.3226C71.6247 33.6255 71.1813 33.6263 70.6828 33.7158C70.1843 33.8053 69.5196 33.9246 69.2542 33.4014Z" fill="url(#paint21_radial_3576_7641)" fill-opacity="0.5"/>
<path d="M71.0077 40.8971C70.6608 40.581 70.9603 40.2705 71.1534 40.1548C71.3464 40.0391 71.8967 39.7531 72.553 39.5345C73.3733 39.2613 73.421 39.6694 73.3725 39.9168C73.3039 40.2667 72.8895 40.4246 72.4551 40.6849C72.0206 40.9452 71.4414 41.2924 71.0077 40.8971Z" fill="url(#paint22_radial_3576_7641)" fill-opacity="0.5"/>
<path d="M76.2193 37.3284C76.7978 36.9536 77.1243 37.5633 77.2153 37.915C77.3062 38.2667 77.5036 39.2475 77.5654 40.3572C77.6427 41.7443 77.0469 41.6169 76.7149 41.4213C76.2454 41.1448 76.1783 40.4345 75.9737 39.6432C75.7691 38.8518 75.4962 37.7968 76.2193 37.3284Z" fill="url(#paint23_radial_3576_7641)"/>
<path d="M73.8222 30.8014C74.3214 30.3262 74.755 30.8651 74.9093 31.1939C75.0637 31.5228 75.4389 32.4502 75.7047 33.5294C76.0369 34.8783 75.4279 34.8632 75.0655 34.7323C74.553 34.5473 74.3558 33.8616 74.0084 33.1217C73.6611 32.3818 73.198 31.3953 73.8222 30.8014Z" fill="url(#paint24_radial_3576_7641)"/>
<path d="M125.69 31.3941C126.565 29.6798 129.014 29.6798 129.889 31.3941C130.232 32.0653 130.874 32.5322 131.619 32.6506C133.519 32.9529 134.276 35.2826 132.916 36.6444C132.384 37.1776 132.138 37.9331 132.256 38.6775C132.556 40.5786 130.574 42.0184 128.858 41.1458C128.187 40.8041 127.392 40.8041 126.721 41.1458C125.005 42.0184 123.023 40.5786 123.323 38.6775C123.441 37.9331 123.195 37.1776 122.663 36.6444C121.303 35.2826 122.06 32.9529 123.96 32.6506C124.705 32.5322 125.347 32.0653 125.69 31.3941Z" fill="url(#paint25_radial_3576_7641)"/>
<path d="M126.236 32.2879C126.884 31.0184 128.698 31.0184 129.346 32.2879L129.444 32.481C129.698 32.978 130.174 33.3238 130.725 33.4115L130.939 33.4455C132.347 33.6694 132.907 35.3946 131.9 36.403L131.747 36.5564C131.352 36.9512 131.171 37.5107 131.258 38.0619L131.291 38.2761C131.513 39.6839 130.046 40.7501 128.776 40.1039L128.582 40.0056C128.085 39.7526 127.497 39.7526 126.999 40.0056L126.806 40.1039C125.536 40.7501 124.068 39.6839 124.29 38.2761L124.324 38.0619C124.411 37.5107 124.229 36.9512 123.835 36.5564L123.682 36.403C122.675 35.3946 123.235 33.6694 124.643 33.4455L124.857 33.4115C125.408 33.3238 125.884 32.978 126.137 32.481L126.236 32.2879Z" fill="url(#paint26_radial_3576_7641)"/>
<path d="M128.95 33.5815C128.845 32.9005 129.535 32.8514 129.893 32.9121C130.251 32.9727 131.227 33.1931 132.265 33.5899C133.563 34.0858 133.203 34.5776 132.889 34.8008C132.445 35.1164 131.769 34.8875 130.963 34.7511C130.157 34.6148 129.083 34.4329 128.95 33.5815Z" fill="url(#paint27_radial_3576_7641)"/>
<path d="M132.846 33.9699C132.867 33.3104 133.164 33.1948 133.309 33.2195C133.455 33.2441 133.846 33.3656 134.247 33.6544C134.747 34.0154 134.547 34.5342 134.392 34.7843C134.174 35.1381 133.91 34.979 133.583 34.9236C133.255 34.8682 132.818 34.7943 132.846 33.9699Z" fill="url(#paint28_radial_3576_7641)" fill-opacity="0.56"/>
<path d="M123.798 33.4014C123.586 32.9828 123.976 32.7986 124.197 32.7589C124.419 32.7191 125.035 32.6466 125.726 32.6747C126.59 32.7099 126.49 33.1084 126.357 33.3226C126.169 33.6255 125.725 33.6263 125.227 33.7158C124.728 33.8053 124.064 33.9246 123.798 33.4014Z" fill="url(#paint29_radial_3576_7641)" fill-opacity="0.5"/>
<path d="M125.552 40.8971C125.205 40.581 125.504 40.2705 125.697 40.1548C125.89 40.0391 126.441 39.7531 127.097 39.5345C127.917 39.2613 127.965 39.6694 127.916 39.9168C127.848 40.2667 127.433 40.4246 126.999 40.6849C126.565 40.9452 125.985 41.2924 125.552 40.8971Z" fill="url(#paint30_radial_3576_7641)" fill-opacity="0.5"/>
<path d="M130.763 37.3284C131.342 36.9536 131.668 37.5633 131.759 37.915C131.85 38.2667 132.048 39.2475 132.109 40.3572C132.187 41.7443 131.591 41.6169 131.259 41.4213C130.789 41.1448 130.722 40.4345 130.518 39.6432C130.313 38.8518 130.04 37.7968 130.763 37.3284Z" fill="url(#paint31_radial_3576_7641)"/>
<path d="M128.365 30.8014C128.864 30.3262 129.298 30.8651 129.452 31.1939C129.607 31.5228 129.982 32.4502 130.248 33.5294C130.58 34.8783 129.971 34.8632 129.608 34.7323C129.096 34.5473 128.899 33.8616 128.551 33.1217C128.204 32.3818 127.741 31.3953 128.365 30.8014Z" fill="url(#paint32_radial_3576_7641)"/>
<mask id="path-49-outside-1_3576_7641" maskUnits="userSpaceOnUse" x="68.2119" y="61.7441" width="66" height="81" fill="black">
<rect fill="white" x="68.2119" y="61.7441" width="66" height="81"/>
<path d="M124.45 130.303C123.567 131.303 122.449 131.921 121.095 132.157C115.562 132.981 109.676 133.599 103.437 134.011C97.1974 134.482 90.8992 134.776 84.5421 134.894C83.6003 134.894 82.8057 134.747 82.1582 134.452C81.5108 134.158 80.981 133.746 80.569 133.216C80.1569 132.745 79.8332 132.157 79.5978 131.45C79.3623 130.803 79.2152 130.126 79.1563 129.42C78.9797 128.066 79.1857 126.859 79.7743 125.8C80.363 124.74 81.0693 123.769 81.8934 122.886C82.0699 122.651 82.6291 122.121 83.5709 121.297C84.5127 120.414 85.6016 119.384 86.8377 118.207C88.1327 116.971 89.5159 115.676 90.9875 114.322C92.5179 112.909 93.96 111.585 95.3138 110.349C96.6676 109.054 97.8449 107.935 98.8455 106.993C99.905 105.993 100.641 105.316 101.053 104.963C103.937 102.196 106.292 99.6946 108.116 97.4579C109.941 95.2211 110.942 93.1021 111.118 91.1008C111.412 88.3343 110.706 86.127 108.999 84.4789C107.292 82.7719 104.555 82.0067 100.788 82.1833C99.6696 82.2421 98.5512 82.4776 97.4328 82.8896C96.3733 83.3016 95.3727 83.8903 94.4309 84.6555C93.4891 85.3618 92.6356 86.2153 91.8704 87.2159C91.1641 88.1577 90.6343 89.1878 90.2811 90.3062C89.9868 91.3068 89.4865 92.1309 88.7802 92.7784C88.0738 93.367 87.2792 93.8379 86.3963 94.1911C85.5134 94.4854 84.5716 94.6619 83.5709 94.7208C82.5703 94.7208 81.5991 94.6031 80.6573 94.3676C79.1269 93.8967 77.8908 93.1315 76.949 92.072C76.0072 91.0125 75.5657 89.7764 75.6246 88.3638C75.7423 86.0681 76.4781 83.8314 77.8319 81.6535C79.1857 79.4756 80.981 77.5332 83.2177 75.8262C85.5134 74.0604 88.1621 72.6183 91.1641 71.4999C94.2249 70.3227 97.4917 69.5869 100.965 69.2926C104.32 68.9983 107.528 69.2631 110.588 70.0872C113.708 70.8524 116.445 72.0885 118.8 73.7955C121.154 75.4436 123.008 77.4743 124.362 79.8877C125.775 82.301 126.481 84.9498 126.481 87.834C126.481 91.3657 125.745 94.6619 124.274 97.7228C122.802 100.784 120.389 103.933 117.034 107.17C115.621 108.524 114.15 109.907 112.619 111.32C111.089 112.732 109.529 114.116 107.94 115.47C106.409 116.823 104.908 118.118 103.437 119.354C102.024 120.532 100.729 121.562 99.5519 122.445C103.554 122.091 107.38 121.797 111.03 121.562C114.679 121.326 118.093 121.15 121.272 121.032C122.567 120.973 123.597 121.356 124.362 122.18C125.186 123.004 125.628 124.21 125.686 125.8C125.745 127.801 125.333 129.302 124.45 130.303Z"/>
</mask>
<path d="M124.45 130.303C123.567 131.303 122.449 131.921 121.095 132.157C115.562 132.981 109.676 133.599 103.437 134.011C97.1974 134.482 90.8992 134.776 84.5421 134.894C83.6003 134.894 82.8057 134.747 82.1582 134.452C81.5108 134.158 80.981 133.746 80.569 133.216C80.1569 132.745 79.8332 132.157 79.5978 131.45C79.3623 130.803 79.2152 130.126 79.1563 129.42C78.9797 128.066 79.1857 126.859 79.7743 125.8C80.363 124.74 81.0693 123.769 81.8934 122.886C82.0699 122.651 82.6291 122.121 83.5709 121.297C84.5127 120.414 85.6016 119.384 86.8377 118.207C88.1327 116.971 89.5159 115.676 90.9875 114.322C92.5179 112.909 93.96 111.585 95.3138 110.349C96.6676 109.054 97.8449 107.935 98.8455 106.993C99.905 105.993 100.641 105.316 101.053 104.963C103.937 102.196 106.292 99.6946 108.116 97.4579C109.941 95.2211 110.942 93.1021 111.118 91.1008C111.412 88.3343 110.706 86.127 108.999 84.4789C107.292 82.7719 104.555 82.0067 100.788 82.1833C99.6696 82.2421 98.5512 82.4776 97.4328 82.8896C96.3733 83.3016 95.3727 83.8903 94.4309 84.6555C93.4891 85.3618 92.6356 86.2153 91.8704 87.2159C91.1641 88.1577 90.6343 89.1878 90.2811 90.3062C89.9868 91.3068 89.4865 92.1309 88.7802 92.7784C88.0738 93.367 87.2792 93.8379 86.3963 94.1911C85.5134 94.4854 84.5716 94.6619 83.5709 94.7208C82.5703 94.7208 81.5991 94.6031 80.6573 94.3676C79.1269 93.8967 77.8908 93.1315 76.949 92.072C76.0072 91.0125 75.5657 89.7764 75.6246 88.3638C75.7423 86.0681 76.4781 83.8314 77.8319 81.6535C79.1857 79.4756 80.981 77.5332 83.2177 75.8262C85.5134 74.0604 88.1621 72.6183 91.1641 71.4999C94.2249 70.3227 97.4917 69.5869 100.965 69.2926C104.32 68.9983 107.528 69.2631 110.588 70.0872C113.708 70.8524 116.445 72.0885 118.8 73.7955C121.154 75.4436 123.008 77.4743 124.362 79.8877C125.775 82.301 126.481 84.9498 126.481 87.834C126.481 91.3657 125.745 94.6619 124.274 97.7228C122.802 100.784 120.389 103.933 117.034 107.17C115.621 108.524 114.15 109.907 112.619 111.32C111.089 112.732 109.529 114.116 107.94 115.47C106.409 116.823 104.908 118.118 103.437 119.354C102.024 120.532 100.729 121.562 99.5519 122.445C103.554 122.091 107.38 121.797 111.03 121.562C114.679 121.326 118.093 121.15 121.272 121.032C122.567 120.973 123.597 121.356 124.362 122.18C125.186 123.004 125.628 124.21 125.686 125.8C125.745 127.801 125.333 129.302 124.45 130.303Z" fill="white"/>
<path d="M124.45 130.303L118.933 125.435L118.933 125.435L124.45 130.303ZM121.095 132.157L122.179 139.434L122.268 139.421L122.356 139.406L121.095 132.157ZM103.437 134.011L102.952 126.669L102.917 126.672L102.883 126.674L103.437 134.011ZM84.5421 134.894V142.252H84.6103L84.6784 142.25L84.5421 134.894ZM82.1582 134.452L79.1136 141.151H79.1136L82.1582 134.452ZM80.569 133.216L86.3768 128.699L86.2462 128.531L86.1062 128.371L80.569 133.216ZM79.5978 131.45L86.5779 129.124L86.5465 129.029L86.5125 128.936L79.5978 131.45ZM79.1563 129.42L86.4886 128.809L86.4744 128.638L86.4522 128.468L79.1563 129.42ZM79.7743 125.8L73.3425 122.227H73.3425L79.7743 125.8ZM81.8934 122.886L87.2722 127.906L87.5422 127.617L87.7795 127.301L81.8934 122.886ZM83.5709 121.297L88.416 126.834L88.511 126.751L88.6032 126.665L83.5709 121.297ZM86.8377 118.207L91.912 123.535L91.9181 123.529L86.8377 118.207ZM90.9875 114.322L95.9691 119.737L95.9781 119.728L90.9875 114.322ZM95.3138 110.349L100.275 115.782L100.338 115.725L100.4 115.666L95.3138 110.349ZM98.8455 106.993L103.888 112.351L103.897 112.343L98.8455 106.993ZM101.053 104.963L105.841 110.549L105.997 110.415L106.146 110.273L101.053 104.963ZM108.116 97.4579L102.415 92.8069L108.116 97.4579ZM111.118 91.1008L103.802 90.3225L103.795 90.3882L103.789 90.4541L111.118 91.1008ZM108.999 84.4789L103.796 89.6816L103.842 89.7272L103.889 89.772L108.999 84.4789ZM100.788 82.1833L100.443 74.8336L100.422 74.8346L100.401 74.8357L100.788 82.1833ZM97.4328 82.8896L94.8892 75.9856L94.8274 76.0083L94.7661 76.0322L97.4328 82.8896ZM94.4309 84.6555L98.8455 90.5416L98.9598 90.4559L99.0706 90.3659L94.4309 84.6555ZM91.8704 87.2159L86.0258 82.7465L86.0049 82.7738L85.9842 82.8013L91.8704 87.2159ZM90.2811 90.3062L83.265 88.0905L83.243 88.1601L83.2224 88.2301L90.2811 90.3062ZM88.7802 92.7784L93.4905 98.4307L93.6239 98.3195L93.752 98.2021L88.7802 92.7784ZM86.3963 94.1911L88.723 101.171L88.9281 101.103L89.1289 101.023L86.3963 94.1911ZM83.5709 94.7208V102.079H83.7871L84.003 102.066L83.5709 94.7208ZM80.6573 94.3676L78.4935 101.4L78.6817 101.458L78.8728 101.506L80.6573 94.3676ZM75.6246 88.3638L68.2765 87.9869L68.2747 88.0222L68.2733 88.0574L75.6246 88.3638ZM77.8319 81.6535L71.5831 77.7691L71.5831 77.7691L77.8319 81.6535ZM83.2177 75.8262L87.6815 81.6752L87.6927 81.6667L87.7038 81.6581L83.2177 75.8262ZM91.1641 71.4999L93.7327 78.3947L93.7691 78.3811L93.8053 78.3672L91.1641 71.4999ZM100.965 69.2926L101.586 76.624L101.597 76.6231L101.607 76.6221L100.965 69.2926ZM110.588 70.0872L108.676 77.1919L108.755 77.2134L108.836 77.2331L110.588 70.0872ZM118.8 73.7955L114.481 79.7524L114.53 79.7882L114.58 79.8232L118.8 73.7955ZM124.362 79.8877L117.945 83.4874L117.978 83.5463L118.012 83.6046L124.362 79.8877ZM124.274 97.7228L130.905 100.911V100.911L124.274 97.7228ZM117.034 107.17L122.125 112.482L122.134 112.474L122.143 112.465L117.034 107.17ZM112.619 111.32L117.61 116.726L117.61 116.726L112.619 111.32ZM107.94 115.47L103.168 109.869L103.116 109.913L103.065 109.959L107.94 115.47ZM103.437 119.354L108.147 125.007L108.158 124.998L108.169 124.988L103.437 119.354ZM99.5519 122.445L95.1372 116.558L74.4924 132.042L100.199 129.774L99.5519 122.445ZM121.272 121.032L121.544 128.385L121.575 128.383L121.606 128.382L121.272 121.032ZM124.362 122.18L118.97 127.186L119.063 127.286L119.159 127.382L124.362 122.18ZM125.686 125.8L133.041 125.583L133.04 125.555L133.039 125.527L125.686 125.8ZM124.45 130.303L118.933 125.435C119.025 125.331 119.179 125.194 119.391 125.077C119.599 124.962 119.767 124.92 119.835 124.908L121.095 132.157L122.356 139.406C125.305 138.893 127.943 137.466 129.967 135.171L124.45 130.303ZM121.095 132.157L120.011 124.879C114.699 125.671 109.014 126.269 102.952 126.669L103.437 134.011L103.922 141.353C110.338 140.929 116.426 140.291 122.179 139.434L121.095 132.157ZM103.437 134.011L102.883 126.674C96.7848 127.134 90.6259 127.422 84.4059 127.537L84.5421 134.894L84.6784 142.25C91.1725 142.13 97.6099 141.829 103.99 141.348L103.437 134.011ZM84.5421 134.894V127.536C84.4489 127.536 84.4697 127.528 84.5796 127.549C84.692 127.57 84.9142 127.623 85.2029 127.754L82.1582 134.452L79.1136 141.151C80.974 141.996 82.8743 142.252 84.5421 142.252V134.894ZM82.1582 134.452L85.2029 127.754C85.5727 127.922 86.0141 128.233 86.3768 128.699L80.569 133.216L74.7612 137.734C75.9479 139.259 77.4488 140.394 79.1136 141.151L82.1582 134.452ZM80.569 133.216L86.1062 128.371C86.4476 128.761 86.562 129.076 86.5779 129.124L79.5978 131.45L72.6176 133.777C73.1044 135.238 73.8663 136.73 75.0317 138.061L80.569 133.216ZM79.5978 131.45L86.5125 128.936C86.5064 128.919 86.4948 128.884 86.4886 128.809L79.1563 129.42L71.824 130.031C71.9355 131.368 72.2183 132.687 72.683 133.965L79.5978 131.45ZM79.1563 129.42L86.4522 128.468C86.448 128.436 86.465 128.539 86.4311 128.738C86.3957 128.945 86.3194 129.169 86.2061 129.373L79.7743 125.8L73.3425 122.227C71.8936 124.835 71.507 127.662 71.8604 130.371L79.1563 129.42ZM79.7743 125.8L86.2061 129.373C86.505 128.835 86.8582 128.35 87.2722 127.906L81.8934 122.886L76.5145 117.866C75.2804 119.188 74.2209 120.646 73.3425 122.227L79.7743 125.8ZM81.8934 122.886L87.7795 127.301C87.6504 127.473 87.5459 127.594 87.4984 127.648C87.4451 127.708 87.4095 127.745 87.4012 127.754C87.3874 127.768 87.4152 127.739 87.5054 127.654C87.6851 127.483 87.9792 127.216 88.416 126.834L83.5709 121.297L78.7258 115.76C78.2208 116.201 77.7645 116.611 77.385 116.971C77.1352 117.207 76.5177 117.791 76.0072 118.471L81.8934 122.886ZM83.5709 121.297L88.6032 126.665C89.5626 125.765 90.6661 124.721 91.912 123.535L86.8377 118.207L81.7635 112.879C80.5372 114.046 79.4628 115.063 78.5387 115.929L83.5709 121.297ZM86.8377 118.207L91.9181 123.529C93.1769 122.327 94.527 121.063 95.9691 119.737L90.9875 114.322L86.0059 108.907C84.5049 110.288 83.0885 111.614 81.7574 112.884L86.8377 118.207ZM90.9875 114.322L95.9781 119.728C97.5 118.323 98.9322 117.008 100.275 115.782L95.3138 110.349L90.3527 104.915C88.9878 106.161 87.5358 107.495 85.9969 108.915L90.9875 114.322ZM95.3138 110.349L100.4 115.666C101.744 114.38 102.906 113.276 103.888 112.351L98.8455 106.993L93.8028 101.636C92.7836 102.595 91.5914 103.727 90.228 105.032L95.3138 110.349ZM98.8455 106.993L103.897 112.343C104.968 111.332 105.582 110.771 105.841 110.549L101.053 104.963L96.2645 99.3764C95.6993 99.8608 94.8424 100.654 93.7935 101.644L98.8455 106.993ZM101.053 104.963L106.146 110.273C109.171 107.371 111.747 104.646 113.817 102.109L108.116 97.4579L102.415 92.8069C100.836 94.7429 98.7034 97.021 95.9596 99.6528L101.053 104.963ZM108.116 97.4579L113.817 102.109C116.185 99.207 118.096 95.7284 118.447 91.7475L111.118 91.1008L103.789 90.4541C103.787 90.4758 103.697 91.2352 102.415 92.8069L108.116 97.4579ZM111.118 91.1008L118.435 91.8792C118.922 87.2946 117.741 82.6918 114.11 79.1857L108.999 84.4789L103.889 89.772C103.903 89.7865 103.884 89.7704 103.855 89.7237C103.825 89.6762 103.808 89.6336 103.801 89.6129C103.787 89.567 103.862 89.7565 103.802 90.3225L111.118 91.1008ZM108.999 84.4789L114.202 79.2762C110.378 75.4528 105.132 74.6139 100.443 74.8336L100.788 82.1833L101.132 89.5329C102.472 89.4701 103.274 89.5958 103.685 89.7107C104.053 89.8135 103.984 89.8691 103.796 89.6816L108.999 84.4789ZM100.788 82.1833L100.401 74.8357C98.4998 74.9358 96.6557 75.3348 94.8892 75.9856L97.4328 82.8896L99.9764 89.7937C100.447 89.6204 100.839 89.5485 101.175 89.5308L100.788 82.1833ZM97.4328 82.8896L94.7661 76.0322C92.9466 76.7398 91.2868 77.7298 89.7912 78.9451L94.4309 84.6555L99.0706 90.3659C99.4585 90.0507 99.8 89.8635 100.1 89.747L97.4328 82.8896ZM94.4309 84.6555L90.0163 78.7693C88.4988 79.9074 87.1719 81.2477 86.0258 82.7465L91.8704 87.2159L97.7151 91.6854C98.0993 91.1829 98.4794 90.8162 98.8455 90.5416L94.4309 84.6555ZM91.8704 87.2159L85.9842 82.8013C84.7818 84.4046 83.869 86.1777 83.265 88.0905L90.2811 90.3062L97.2973 92.5218C97.3996 92.198 97.5463 91.9109 97.7566 91.6306L91.8704 87.2159ZM90.2811 90.3062L83.2224 88.2301C83.2405 88.1684 83.2893 88.0318 83.3959 87.8562C83.5046 87.6773 83.6455 87.5039 83.8084 87.3546L88.7802 92.7784L93.752 98.2021C95.5324 96.5701 96.7022 94.5503 97.3399 92.3823L90.2811 90.3062ZM88.7802 92.7784L84.0699 87.126C83.977 87.2034 83.8544 87.2833 83.6637 87.3596L86.3963 94.1911L89.1289 101.023C90.704 100.392 92.1707 99.5306 93.4905 98.4307L88.7802 92.7784ZM86.3963 94.1911L84.0696 87.2109C83.8446 87.2859 83.544 87.352 83.1389 87.3758L83.5709 94.7208L84.003 102.066C85.5991 101.972 87.1821 101.685 88.723 101.171L86.3963 94.1911ZM83.5709 94.7208V87.3631C83.1533 87.3631 82.7822 87.3147 82.4418 87.2296L80.6573 94.3676L78.8728 101.506C80.4159 101.891 81.9873 102.079 83.5709 102.079V94.7208ZM80.6573 94.3676L82.8211 87.3353C82.5962 87.2661 82.4881 87.205 82.4552 87.1846C82.427 87.1671 82.4339 87.1678 82.4482 87.1838L76.949 92.072L71.4498 96.9602C73.3979 99.1518 75.8467 100.586 78.4935 101.4L80.6573 94.3676ZM76.949 92.072L82.4482 87.1838C82.5537 87.3026 82.7193 87.536 82.8406 87.8757C82.962 88.2157 82.9828 88.5045 82.9759 88.6701L75.6246 88.3638L68.2733 88.0574C68.1348 91.3818 69.2442 94.479 71.4498 96.9602L76.949 92.072ZM75.6246 88.3638L82.9726 88.7406C83.0195 87.8271 83.3067 86.783 84.0807 85.5379L77.8319 81.6535L71.5831 77.7691C69.6495 80.8798 68.4651 84.3092 68.2765 87.9869L75.6246 88.3638ZM77.8319 81.6535L84.0807 85.5379C84.9198 84.1881 86.085 82.8936 87.6815 81.6752L83.2177 75.8262L78.754 69.9772C75.877 72.1728 73.4517 74.7632 71.5831 77.7691L77.8319 81.6535ZM83.2177 75.8262L87.7038 81.6581C89.3588 80.3851 91.3471 79.2834 93.7327 78.3947L91.1641 71.4999L88.5954 64.6051C84.9772 65.9531 81.6679 67.7357 78.7317 69.9943L83.2177 75.8262ZM91.1641 71.4999L93.8053 78.3672C96.1787 77.4544 98.7614 76.8634 101.586 76.624L100.965 69.2926L100.343 61.9612C96.2219 62.3104 92.2711 63.191 88.5228 64.6326L91.1641 71.4999ZM100.965 69.2926L101.607 76.6221C104.158 76.3984 106.498 76.6056 108.676 77.1919L110.588 70.0872L112.501 62.9825C108.557 61.9207 104.481 61.5981 100.322 61.963L100.965 69.2926ZM110.588 70.0872L108.836 77.2331C111.128 77.7954 112.974 78.6596 114.481 79.7524L118.8 73.7955L123.118 67.8386C119.917 65.5174 116.288 63.9095 112.341 62.9413L110.588 70.0872ZM118.8 73.7955L114.58 79.8232C116.065 80.8625 117.153 82.0758 117.945 83.4874L124.362 79.8877L130.779 76.2879C128.863 72.8729 126.243 70.0247 123.019 67.7678L118.8 73.7955ZM124.362 79.8877L118.012 83.6046C118.744 84.8539 119.123 86.2133 119.123 87.834H126.481H133.839C133.839 83.6862 132.806 79.7481 130.712 76.1707L124.362 79.8877ZM126.481 87.834H119.123C119.123 90.3073 118.617 92.5087 117.643 94.5347L124.274 97.7228L130.905 100.911C132.874 96.8152 133.839 92.4241 133.839 87.834H126.481ZM124.274 97.7228L117.643 94.5347C116.662 96.5752 114.87 99.0339 111.925 101.875L117.034 107.17L122.143 112.465C125.908 108.831 128.943 104.992 130.905 100.911L124.274 97.7228ZM117.034 107.17L111.943 101.858C110.565 103.178 109.127 104.53 107.629 105.913L112.619 111.32L117.61 116.726C119.172 115.284 120.677 113.87 122.125 112.482L117.034 107.17ZM112.619 111.32L107.629 105.913C106.17 107.26 104.683 108.578 103.168 109.869L107.94 115.47L112.711 121.071C114.374 119.653 116.007 118.205 117.61 116.726L112.619 111.32ZM107.94 115.47L103.065 109.959C101.578 111.273 100.125 112.527 98.7043 113.721L103.437 119.354L108.169 124.988C109.692 123.709 111.24 122.373 112.815 120.98L107.94 115.47ZM103.437 119.354L98.7264 113.702C97.3877 114.818 96.1928 115.767 95.1372 116.558L99.5519 122.445L103.966 128.331C105.265 127.357 106.66 126.246 108.147 125.007L103.437 119.354ZM99.5519 122.445L100.199 129.774C104.149 129.425 107.917 129.136 111.504 128.904L111.03 121.562L110.556 114.219C106.844 114.459 102.96 114.758 98.9052 115.115L99.5519 122.445ZM111.03 121.562L111.504 128.904C115.096 128.672 118.442 128.5 121.544 128.385L121.272 121.032L120.999 113.679C117.745 113.8 114.263 113.98 110.556 114.219L111.03 121.562ZM121.272 121.032L121.606 128.382C121.442 128.39 121.015 128.38 120.454 128.172C119.865 127.953 119.351 127.597 118.97 127.186L124.362 122.18L129.754 117.173C127.284 114.513 124.025 113.542 120.938 113.682L121.272 121.032ZM124.362 122.18L119.159 127.382C118.74 126.963 118.51 126.529 118.401 126.231C118.303 125.962 118.326 125.872 118.334 126.072L125.686 125.8L133.039 125.527C132.937 122.768 132.118 119.53 129.565 116.977L124.362 122.18ZM125.686 125.8L118.332 126.016C118.346 126.484 118.293 126.601 118.326 126.479C118.368 126.328 118.519 125.904 118.933 125.435L124.45 130.303L129.967 135.171C132.581 132.209 133.128 128.538 133.041 125.583L125.686 125.8Z" fill="#00BCA0" mask="url(#path-49-outside-1_3576_7641)"/>
<path d="M26.043 182.219L60.6069 174.504L66.7791 201.044L32.8323 207.833L37.1528 193.329L26.043 182.219Z" fill="#00DDBD"/>
<path d="M172.943 182.219L138.379 174.504L132.207 201.044L166.154 207.833L161.834 193.329L172.943 182.219Z" fill="#00DDBD"/>
<path d="M132.204 201.041L134.056 187.462L151.646 190.709L132.204 201.041Z" fill="#17F0D1"/>
<path d="M156.899 164.936C112.477 154.261 87.3314 154.643 42.0977 164.936L47.6526 190.859C88.2684 183.859 111.037 183.164 151.653 190.859L156.899 164.936Z" fill="#26FFDF"/>
<path d="M66.7782 201.043L64.9265 188.081L47.6445 190.859L66.7782 201.043Z" fill="#17F0D1"/>
<defs>
<linearGradient id="paint0_linear_3576_7641" x1="38.6699" y1="-20.2234" x2="185.824" y2="233.617" gradientUnits="userSpaceOnUse">
<stop stop-color="#00E3C2"/>
<stop offset="1" stop-color="#00FFDA"/>
</linearGradient>
<radialGradient id="paint1_radial_3576_7641" cx="0" cy="0" r="1" gradientUnits="userSpaceOnUse" gradientTransform="translate(101.925 30.3576) scale(27.5914 16.9994)">
<stop stop-color="white" stop-opacity="0.22"/>
<stop offset="1" stop-color="white" stop-opacity="0"/>
</radialGradient>
<linearGradient id="paint2_linear_3576_7641" x1="105.81" y1="17.4865" x2="366.088" y2="218.904" gradientUnits="userSpaceOnUse">
<stop stop-color="#00FFDA"/>
<stop offset="1" stop-color="#00B99E"/>
</linearGradient>
<linearGradient id="paint3_linear_3576_7641" x1="97.5321" y1="187.633" x2="-44.1037" y2="84.6255" gradientUnits="userSpaceOnUse">
<stop stop-color="#00B99E"/>
<stop offset="1" stop-color="#00FFDA"/>
</linearGradient>
<linearGradient id="paint4_linear_3576_7641" x1="407.476" y1="-117.714" x2="13.8385" y2="143.484" gradientUnits="userSpaceOnUse">
<stop stop-color="white" stop-opacity="0.82"/>
<stop offset="1" stop-color="white" stop-opacity="0"/>
</linearGradient>
<linearGradient id="paint5_linear_3576_7641" x1="92.0152" y1="248.332" x2="208.819" y2="9.20634" gradientUnits="userSpaceOnUse">
<stop stop-color="white" stop-opacity="0.38"/>
<stop offset="1" stop-color="white" stop-opacity="0"/>
</linearGradient>
<radialGradient id="paint6_radial_3576_7641" cx="0" cy="0" r="1" gradientTransform="matrix(-13.7957 21.1534 -10.4798 -7.30906 150.878 136.128)" gradientUnits="userSpaceOnUse">
<stop stop-color="white" stop-opacity="0.1"/>
<stop offset="1" stop-color="white" stop-opacity="0"/>
</radialGradient>
<radialGradient id="paint7_radial_3576_7641" cx="0" cy="0" r="1" gradientTransform="matrix(25.1908 1.79199 -1.30252 12.7103 96.7596 14.2995)" gradientUnits="userSpaceOnUse">
<stop stop-color="white" stop-opacity="0.1"/>
<stop offset="1" stop-color="white" stop-opacity="0"/>
</radialGradient>
<radialGradient id="paint8_radial_3576_7641" cx="0" cy="0" r="1" gradientTransform="matrix(13.3137 -21.46 10.6425 7.07014 161.471 69.374)" gradientUnits="userSpaceOnUse">
<stop stop-color="white" stop-opacity="0.1"/>
<stop offset="1" stop-color="white" stop-opacity="0"/>
</radialGradient>
<radialGradient id="paint9_radial_3576_7641" cx="0" cy="0" r="1" gradientUnits="userSpaceOnUse" gradientTransform="translate(100.371 28.5194) rotate(90) scale(28.5111)">
<stop stop-color="#FFE86C"/>
<stop offset="1" stop-color="#FF9900"/>
</radialGradient>
<radialGradient id="paint10_radial_3576_7641" cx="0" cy="0" r="1" gradientUnits="userSpaceOnUse" gradientTransform="translate(100.371 28.5191) rotate(90) scale(22.1753)">
<stop stop-color="#FFF5BC"/>
<stop offset="0.765" stop-color="#FFA800"/>
</radialGradient>
<radialGradient id="paint11_radial_3576_7641" cx="0" cy="0" r="1" gradientUnits="userSpaceOnUse" gradientTransform="translate(110.917 21.5512) rotate(99.6063) scale(2.66619 7.03148)">
<stop stop-color="white"/>
<stop offset="0.84" stop-color="white" stop-opacity="0"/>
</radialGradient>
<radialGradient id="paint12_radial_3576_7641" cx="0" cy="0" r="1" gradientUnits="userSpaceOnUse" gradientTransform="translate(119.473 22.1218) rotate(99.6063) scale(2.66619 2.85773)">
<stop stop-color="white"/>
<stop offset="0.84" stop-color="white" stop-opacity="0"/>
</radialGradient>
<radialGradient id="paint13_radial_3576_7641" cx="0" cy="0" r="1" gradientUnits="userSpaceOnUse" gradientTransform="translate(91.6779 19.0556) rotate(79.8213) scale(1.83292 4.3571)">
<stop stop-color="white"/>
<stop offset="0.84" stop-color="white" stop-opacity="0"/>
</radialGradient>
<radialGradient id="paint14_radial_3576_7641" cx="0" cy="0" r="1" gradientUnits="userSpaceOnUse" gradientTransform="translate(96.8153 41.8346) rotate(59.0688) scale(1.83292 4.3571)">
<stop stop-color="white"/>
<stop offset="0.84" stop-color="white" stop-opacity="0"/>
</radialGradient>
<radialGradient id="paint15_radial_3576_7641" cx="0" cy="0" r="1" gradientUnits="userSpaceOnUse" gradientTransform="translate(111.684 39.165) rotate(165.501) scale(2.66619 7.03148)">
<stop stop-color="white"/>
<stop offset="0.84" stop-color="white" stop-opacity="0"/>
</radialGradient>
<radialGradient id="paint16_radial_3576_7641" cx="0" cy="0" r="1" gradientUnits="userSpaceOnUse" gradientTransform="translate(105.139 17.6435) rotate(154.854) scale(2.66619 7.03148)">
<stop stop-color="white"/>
<stop offset="0.84" stop-color="white" stop-opacity="0"/>
</radialGradient>
<radialGradient id="paint17_radial_3576_7641" cx="0" cy="0" r="1" gradientUnits="userSpaceOnUse" gradientTransform="translate(73.2455 36.1025) rotate(90) scale(8.82268)">
<stop stop-color="#FFE86C"/>
<stop offset="1" stop-color="#FF9900"/>
</radialGradient>
<radialGradient id="paint18_radial_3576_7641" cx="0" cy="0" r="1" gradientUnits="userSpaceOnUse" gradientTransform="translate(73.2478 36.1033) rotate(90) scale(6.86208)">
<stop stop-color="#FFF5BC"/>
<stop offset="0.765" stop-color="#FFA800"/>
</radialGradient>
<radialGradient id="paint19_radial_3576_7641" cx="0" cy="0" r="1" gradientUnits="userSpaceOnUse" gradientTransform="translate(76.5077 33.9451) rotate(99.6063) scale(0.825044 2.17587)">
<stop stop-color="white"/>
<stop offset="0.84" stop-color="white" stop-opacity="0"/>
</radialGradient>
<radialGradient id="paint20_radial_3576_7641" cx="0" cy="0" r="1" gradientUnits="userSpaceOnUse" gradientTransform="translate(79.1561 34.1222) rotate(99.6063) scale(0.825044 0.884315)">
<stop stop-color="white"/>
<stop offset="0.84" stop-color="white" stop-opacity="0"/>
</radialGradient>
<radialGradient id="paint21_radial_3576_7641" cx="0" cy="0" r="1" gradientUnits="userSpaceOnUse" gradientTransform="translate(70.5562 33.173) rotate(79.8213) scale(0.567193 1.34829)">
<stop stop-color="white"/>
<stop offset="0.84" stop-color="white" stop-opacity="0"/>
</radialGradient>
<radialGradient id="paint22_radial_3576_7641" cx="0" cy="0" r="1" gradientUnits="userSpaceOnUse" gradientTransform="translate(72.1444 40.2222) rotate(59.0688) scale(0.567193 1.34829)">
<stop stop-color="white"/>
<stop offset="0.84" stop-color="white" stop-opacity="0"/>
</radialGradient>
<radialGradient id="paint23_radial_3576_7641" cx="0" cy="0" r="1" gradientUnits="userSpaceOnUse" gradientTransform="translate(76.746 39.3957) rotate(165.501) scale(0.825044 2.17587)">
<stop stop-color="white"/>
<stop offset="0.84" stop-color="white" stop-opacity="0"/>
</radialGradient>
<radialGradient id="paint24_radial_3576_7641" cx="0" cy="0" r="1" gradientUnits="userSpaceOnUse" gradientTransform="translate(74.7217 32.7358) rotate(154.854) scale(0.825044 2.17587)">
<stop stop-color="white"/>
<stop offset="0.84" stop-color="white" stop-opacity="0"/>
</radialGradient>
<radialGradient id="paint25_radial_3576_7641" cx="0" cy="0" r="1" gradientUnits="userSpaceOnUse" gradientTransform="translate(127.789 36.1025) rotate(90) scale(8.82268)">
<stop stop-color="#FFE86C"/>
<stop offset="1" stop-color="#FF9900"/>
</radialGradient>
<radialGradient id="paint26_radial_3576_7641" cx="0" cy="0" r="1" gradientUnits="userSpaceOnUse" gradientTransform="translate(127.791 36.1033) rotate(90) scale(6.86208)">
<stop stop-color="#FFF5BC"/>
<stop offset="0.765" stop-color="#FFA800"/>
</radialGradient>
<radialGradient id="paint27_radial_3576_7641" cx="0" cy="0" r="1" gradientUnits="userSpaceOnUse" gradientTransform="translate(131.053 33.9451) rotate(99.6063) scale(0.825044 2.17587)">
<stop stop-color="white"/>
<stop offset="0.84" stop-color="white" stop-opacity="0"/>
</radialGradient>
<radialGradient id="paint28_radial_3576_7641" cx="0" cy="0" r="1" gradientUnits="userSpaceOnUse" gradientTransform="translate(133.699 34.1222) rotate(99.6063) scale(0.825044 0.884315)">
<stop stop-color="white"/>
<stop offset="0.84" stop-color="white" stop-opacity="0"/>
</radialGradient>
<radialGradient id="paint29_radial_3576_7641" cx="0" cy="0" r="1" gradientUnits="userSpaceOnUse" gradientTransform="translate(125.1 33.173) rotate(79.8213) scale(0.567193 1.34829)">
<stop stop-color="white"/>
<stop offset="0.84" stop-color="white" stop-opacity="0"/>
</radialGradient>
<radialGradient id="paint30_radial_3576_7641" cx="0" cy="0" r="1" gradientUnits="userSpaceOnUse" gradientTransform="translate(126.688 40.2222) rotate(59.0688) scale(0.567193 1.34829)">
<stop stop-color="white"/>
<stop offset="0.84" stop-color="white" stop-opacity="0"/>
</radialGradient>
<radialGradient id="paint31_radial_3576_7641" cx="0" cy="0" r="1" gradientUnits="userSpaceOnUse" gradientTransform="translate(131.29 39.3957) rotate(165.501) scale(0.825044 2.17587)">
<stop stop-color="white"/>
<stop offset="0.84" stop-color="white" stop-opacity="0"/>
</radialGradient>
<radialGradient id="paint32_radial_3576_7641" cx="0" cy="0" r="1" gradientUnits="userSpaceOnUse" gradientTransform="translate(129.265 32.7358) rotate(154.854) scale(0.825044 2.17587)">
<stop stop-color="white"/>
<stop offset="0.84" stop-color="white" stop-opacity="0"/>
</radialGradient>
</defs>
</svg>
