<svg width="198" height="209" viewBox="0 0 198 209" fill="none" xmlns="http://www.w3.org/2000/svg">
<path d="M13.624 76.0044C26.523 83.3549 31.0209 99.7704 23.6703 112.669C10.7714 105.319 6.27348 88.9034 13.624 76.0044Z" fill="#0BF5D3"/>
<path d="M39.0283 97.3975C44.9607 108.348 40.893 122.033 29.9429 127.966C24.0106 117.016 28.0782 103.33 39.0283 97.3975Z" fill="#0BF5D3"/>
<path d="M3.44238 108.89C15.7946 107.302 27.095 116.028 28.6826 128.381C16.3305 129.968 5.03 121.242 3.44238 108.89Z" fill="#00DDBD"/>
<path d="M46.0742 118.406C54.1838 127.858 53.096 142.094 43.6445 150.204C35.5349 140.752 36.6227 126.516 46.0742 118.406Z" fill="#0BF5D3"/>
<path d="M23.3369 110.28C25.004 119.449 33.0893 140.975 52.094 153.729" stroke="#0BF5D3" stroke-width="1.40178" stroke-linecap="round" stroke-linejoin="round"/>
<path d="M13.3379 143.081C23.8226 136.36 37.7704 139.412 44.4911 149.896C34.0064 156.617 20.0586 153.566 13.3379 143.081Z" fill="#00DDBD"/>
<path d="M184.353 76.0044C171.454 83.3549 166.956 99.7704 174.306 112.669C187.205 105.319 191.703 88.9034 184.353 76.0044Z" fill="#0BF5D3"/>
<path d="M158.947 97.3975C153.015 108.348 157.083 122.033 168.033 127.966C173.965 117.016 169.897 103.33 158.947 97.3975Z" fill="#0BF5D3"/>
<path d="M194.537 108.89C182.185 107.302 170.884 116.028 169.297 128.381C181.649 129.968 192.949 121.242 194.537 108.89Z" fill="#00DDBD"/>
<path d="M151.912 118.406C143.802 127.858 144.89 142.094 154.342 150.204C162.451 140.752 161.364 126.516 151.912 118.406Z" fill="#0BF5D3"/>
<path d="M174.648 110.28C172.981 119.449 164.896 140.975 145.891 153.729" stroke="#0BF5D3" stroke-width="1.40178" stroke-linecap="round" stroke-linejoin="round"/>
<path d="M184.649 143.084C174.165 136.363 160.217 139.415 153.496 149.899C163.981 156.62 177.929 153.569 184.649 143.084Z" fill="#00DDBD"/>
<path d="M101.483 7.94971L166.795 55.7748V151.425L101.483 199.25L36.1703 151.425V55.7748L101.483 7.94971Z" fill="#00FFDA"/>
<path d="M101.482 24.5034L155.644 64.0511V143.146L101.482 182.694L47.3202 143.146V64.0511L101.482 24.5034Z" fill="url(#paint0_linear_2944_12150)"/>
<path d="M102.197 24.4997L123.35 40.1346C102.493 59.8917 83.924 49.9338 76.4446 42.8939L102.197 24.4997Z" fill="url(#paint1_radial_2944_12150)"/>
<path d="M47.2202 64.0504L36.1836 55.7729V151.423L47.2202 143.146V64.0504Z" fill="#71FFEA"/>
<path d="M155.747 64.0504L166.783 55.7729V151.423L155.747 143.146V64.0504Z" fill="#00FFDA"/>
<path d="M101.482 24.5045V7.94971L166.782 55.7748L155.746 64.0522L101.482 24.5045Z" fill="url(#paint2_linear_2944_12150)"/>
<path d="M101.482 182.695V199.25L36.1828 151.425L47.2193 143.147L101.482 182.695Z" fill="url(#paint3_linear_2944_12150)"/>
<path d="M135.512 49.334L47.2197 114.634V143.145L155.746 64.0494L135.512 49.334Z" fill="url(#paint4_linear_2944_12150)"/>
<path d="M67.4544 157.86L60.0967 152.342L155.747 79.6846V88.8817L67.4544 157.86Z" fill="url(#paint5_linear_2944_12150)"/>
<path d="M155.747 143.146L135.514 157.862C128.366 130.036 145.962 115.917 155.747 112.796L155.747 143.146Z" fill="url(#paint6_radial_2944_12150)"/>
<path d="M100.427 7.73422L123.115 18.2797C102.258 38.0368 81.3725 29.5079 73.8931 22.4681L100.427 7.73422Z" fill="url(#paint7_radial_2944_12150)"/>
<path d="M155.748 64.0513L176.895 48.4537C184.671 76.1104 165.46 89.2197 155.747 92.5617L155.748 64.0513Z" fill="url(#paint8_radial_2944_12150)"/>
<path d="M97.5333 6.68174C98.829 4.14278 102.457 4.14278 103.753 6.68174L108.382 15.7539C108.89 16.7479 109.842 17.4395 110.944 17.6148L121.003 19.2146C123.818 19.6623 124.939 23.1126 122.924 25.1295L115.727 32.3362C114.938 33.1258 114.575 34.2448 114.749 35.3471L116.336 45.408C116.78 48.2237 113.845 50.3561 111.304 49.0636L102.226 44.4454C101.231 43.9394 100.055 43.9394 99.06 44.4454L89.9819 49.0636C87.4413 50.3561 84.5063 48.2237 84.9504 45.408L86.5372 35.3471C86.7111 34.2448 86.3475 33.1258 85.5589 32.3362L78.3615 25.1295C76.3472 23.1126 77.4682 19.6623 80.2833 19.2146L90.3422 17.6148C91.4443 17.4395 92.3962 16.7479 92.9035 15.7539L97.5333 6.68174Z" fill="url(#paint9_radial_2944_12150)"/>
<path d="M99.0873 9.97051C99.7351 8.70103 101.549 8.70103 102.197 9.97051L106.886 19.1587C107.14 19.6557 107.616 20.0015 108.167 20.0891L118.354 21.7093C119.762 21.9332 120.322 23.6583 119.315 24.6668L112.026 31.9656C111.631 32.3604 111.449 32.9199 111.536 33.4711L113.144 43.6606C113.366 45.0685 111.898 46.1346 110.628 45.4884L101.434 40.8112C100.936 40.5582 100.348 40.5582 99.8506 40.8112L90.6565 45.4884C89.3861 46.1347 87.9186 45.0684 88.1407 43.6606L89.7479 33.4711C89.8348 32.9199 89.653 32.3604 89.2587 31.9656L81.9692 24.6668C80.9621 23.6583 81.5226 21.9332 82.9302 21.7093L93.1176 20.0891C93.6687 20.0015 94.1446 19.6557 94.3983 19.1587L99.0873 9.97051Z" fill="url(#paint10_radial_2944_12150)"/>
<path d="M104.395 20.9563C104.053 18.7554 106.283 18.5969 107.44 18.7928C108.598 18.9887 111.751 19.7011 115.106 20.9832C119.299 22.5859 118.138 24.1752 117.123 24.8964C115.687 25.9162 113.503 25.1768 110.899 24.736C108.295 24.2952 104.822 23.7075 104.395 20.9563Z" fill="url(#paint11_radial_2944_12150)"/>
<path d="M116.986 22.2098C117.057 20.0786 118.015 19.705 118.486 19.7847C118.956 19.8643 120.22 20.2568 121.514 21.1902C123.131 22.3568 122.484 24.0333 121.985 24.8417C121.278 25.9849 120.427 25.4709 119.368 25.2918C118.31 25.1126 116.898 24.8738 116.986 22.2098Z" fill="url(#paint12_radial_2944_12150)" fill-opacity="0.56"/>
<path d="M87.7417 20.3737C87.0554 19.0211 88.3158 18.4258 89.0317 18.2973C89.7477 18.1687 91.738 17.9344 93.9715 18.0253C96.7634 18.139 96.4404 19.4269 96.0103 20.1191C95.4022 21.0979 93.9694 21.1005 92.3584 21.3897C90.7475 21.6789 88.5996 22.0646 87.7417 20.3737Z" fill="url(#paint13_radial_2944_12150)" fill-opacity="0.5"/>
<path d="M93.4137 44.5958C92.2926 43.5741 93.2603 42.5708 93.8843 42.1969C94.5082 41.823 96.2864 40.8986 98.4072 40.1923C101.058 39.3094 101.212 40.6282 101.056 41.4278C100.834 42.5586 99.4948 43.0687 98.0909 43.91C96.6869 44.7513 94.815 45.873 93.4137 44.5958Z" fill="url(#paint14_radial_2944_12150)" fill-opacity="0.5"/>
<path d="M110.254 33.0644C112.123 31.8535 113.178 33.8238 113.472 34.9604C113.766 36.0969 114.404 39.2664 114.603 42.8524C114.853 47.3348 112.928 46.9232 111.855 46.2913C110.338 45.3975 110.121 43.1021 109.46 40.5449C108.799 37.9877 107.917 34.5781 110.254 33.0644Z" fill="url(#paint15_radial_2944_12150)"/>
<path d="M102.503 11.9725C104.117 10.437 105.518 12.1784 106.017 13.2411C106.516 14.3037 107.728 17.3009 108.587 20.7881C109.661 25.1472 107.692 25.0985 106.521 24.6756C104.865 24.0776 104.228 21.8618 103.105 19.4708C101.983 17.0798 100.487 13.8918 102.503 11.9725Z" fill="url(#paint16_radial_2944_12150)"/>
<path d="M71.4173 31.9742C72.2922 30.2598 74.7418 30.2598 75.6167 31.9742C75.9592 32.6453 76.6019 33.1123 77.3461 33.2307C79.2469 33.533 80.0038 35.8627 78.6438 37.2245C78.1113 37.7576 77.8658 38.5132 77.9832 39.2575C78.2831 41.1587 76.3013 42.5985 74.5859 41.7258C73.9142 41.3842 73.1198 41.3842 72.4482 41.7258C70.7327 42.5985 68.751 41.1587 69.0508 39.2575C69.1682 38.5132 68.9227 37.7576 68.3903 37.2245C67.0302 35.8627 67.7871 33.533 69.6879 33.2307C70.4321 33.1123 71.0748 32.6453 71.4173 31.9742Z" fill="url(#paint17_radial_2944_12150)"/>
<path d="M71.9645 32.868C72.6123 31.5985 74.4263 31.5985 75.0741 32.868L75.1727 33.0611C75.4263 33.5581 75.9023 33.9039 76.4533 33.9916L76.6675 34.0256C78.0751 34.2495 78.6356 35.9746 77.6284 36.9831L77.4752 37.1365C77.0809 37.5313 76.8991 38.0908 76.986 38.642L77.0198 38.8562C77.2419 40.264 75.7744 41.3302 74.5041 40.684L74.3108 40.5857C73.8135 40.3327 73.2252 40.3327 72.7278 40.5857L72.5346 40.684C71.2642 41.3302 69.7967 40.264 70.0188 38.8562L70.0526 38.642C70.1395 38.0908 69.9577 37.5313 69.5634 37.1365L69.4102 36.9831C68.403 35.9746 68.9636 34.2495 70.3711 34.0256L70.5853 33.9916C71.1363 33.9039 71.6123 33.5581 71.8659 33.0611L71.9645 32.868Z" fill="url(#paint18_radial_2944_12150)"/>
<path d="M74.6771 34.1616C74.5713 33.4805 75.2612 33.4315 75.6193 33.4921C75.9775 33.5528 76.9534 33.7732 77.9915 34.1699C79.2892 34.6659 78.9296 35.1577 78.6155 35.3809C78.1713 35.6965 77.4956 35.4676 76.6897 35.3312C75.8838 35.1948 74.8093 35.013 74.6771 34.1616Z" fill="url(#paint19_radial_2944_12150)"/>
<path d="M78.574 34.55C78.5958 33.8905 78.8924 33.7749 79.0379 33.7995C79.1835 33.8242 79.5747 33.9456 79.9751 34.2345C80.4755 34.5955 80.2754 35.1143 80.1207 35.3644C79.902 35.7182 79.6386 35.5591 79.311 35.5037C78.9835 35.4483 78.5468 35.3743 78.574 34.55Z" fill="url(#paint20_radial_2944_12150)" fill-opacity="0.56"/>
<path d="M69.5256 33.9815C69.3133 33.5629 69.7033 33.3787 69.9249 33.3389C70.1464 33.2992 70.7623 33.2266 71.4535 33.2548C72.3174 33.29 72.2174 33.6885 72.0844 33.9027C71.8962 34.2056 71.4528 34.2064 70.9543 34.2959C70.4558 34.3854 69.7911 34.5047 69.5256 33.9815Z" fill="url(#paint21_radial_2944_12150)" fill-opacity="0.5"/>
<path d="M71.2792 41.4772C70.9323 41.1611 71.2318 40.8506 71.4248 40.7349C71.6179 40.6192 72.1682 40.3331 72.8245 40.1146C73.6448 39.8413 73.6925 40.2494 73.644 40.4969C73.5753 40.8468 73.161 41.0047 72.7266 41.265C72.2921 41.5253 71.7129 41.8724 71.2792 41.4772Z" fill="url(#paint22_radial_2944_12150)" fill-opacity="0.5"/>
<path d="M76.4908 37.9084C77.0693 37.5337 77.3958 38.1434 77.4868 38.4951C77.5777 38.8468 77.7751 39.8276 77.8369 40.9373C77.9141 42.3243 77.3184 42.197 76.9864 42.0014C76.5169 41.7249 76.4498 41.0145 76.2452 40.2232C76.0406 39.4319 75.7677 38.3768 76.4908 37.9084Z" fill="url(#paint23_radial_2944_12150)"/>
<path d="M74.0936 31.3814C74.5929 30.9063 75.0265 31.4452 75.1808 31.774C75.3352 32.1029 75.7104 33.0303 75.9761 34.1094C76.3084 35.4583 75.6994 35.4433 75.337 35.3124C74.8244 35.1273 74.6272 34.4417 74.2799 33.7018C73.9326 32.9619 73.4695 31.9754 74.0936 31.3814Z" fill="url(#paint24_radial_2944_12150)"/>
<path d="M125.961 31.9742C126.836 30.2598 129.286 30.2598 130.161 31.9742C130.503 32.6453 131.146 33.1123 131.89 33.2307C133.791 33.533 134.548 35.8627 133.188 37.2245C132.655 37.7576 132.41 38.5132 132.527 39.2575C132.827 41.1587 130.845 42.5985 129.13 41.7258C128.458 41.3842 127.664 41.3842 126.992 41.7258C125.277 42.5985 123.295 41.1587 123.595 39.2575C123.712 38.5132 123.467 37.7576 122.934 37.2245C121.574 35.8627 122.331 33.533 124.232 33.2307C124.976 33.1123 125.619 32.6453 125.961 31.9742Z" fill="url(#paint25_radial_2944_12150)"/>
<path d="M126.507 32.868C127.155 31.5985 128.969 31.5985 129.617 32.868L129.716 33.0611C129.969 33.5581 130.445 33.9039 130.996 33.9916L131.21 34.0256C132.618 34.2495 133.179 35.9746 132.171 36.9831L132.018 37.1365C131.624 37.5313 131.442 38.0908 131.529 38.642L131.563 38.8562C131.785 40.264 130.317 41.3302 129.047 40.684L128.854 40.5857C128.356 40.3327 127.768 40.3327 127.271 40.5857L127.078 40.684C125.807 41.3302 124.34 40.264 124.562 38.8562L124.596 38.642C124.682 38.0908 124.501 37.5313 124.106 37.1365L123.953 36.9831C122.946 35.9746 123.507 34.2495 124.914 34.0256L125.128 33.9916C125.679 33.9039 126.155 33.5581 126.409 33.0611L126.507 32.868Z" fill="url(#paint26_radial_2944_12150)"/>
<path d="M129.222 34.1616C129.116 33.4805 129.806 33.4315 130.164 33.4921C130.522 33.5528 131.498 33.7732 132.536 34.1699C133.834 34.6659 133.475 35.1577 133.16 35.3809C132.716 35.6965 132.04 35.4676 131.235 35.3312C130.429 35.1948 129.354 35.013 129.222 34.1616Z" fill="url(#paint27_radial_2944_12150)"/>
<path d="M133.117 34.55C133.139 33.8905 133.435 33.7749 133.581 33.7995C133.726 33.8242 134.118 33.9456 134.518 34.2345C135.018 34.5955 134.818 35.1143 134.664 35.3644C134.445 35.7182 134.182 35.5591 133.854 35.5037C133.526 35.4483 133.09 35.3743 133.117 34.55Z" fill="url(#paint28_radial_2944_12150)" fill-opacity="0.56"/>
<path d="M124.07 33.9815C123.857 33.5629 124.247 33.3787 124.469 33.3389C124.69 33.2992 125.306 33.2266 125.997 33.2548C126.861 33.29 126.761 33.6885 126.628 33.9027C126.44 34.2056 125.997 34.2064 125.498 34.2959C125 34.3854 124.335 34.5047 124.07 33.9815Z" fill="url(#paint29_radial_2944_12150)" fill-opacity="0.5"/>
<path d="M125.823 41.4772C125.476 41.1611 125.776 40.8506 125.969 40.7349C126.162 40.6192 126.712 40.3331 127.368 40.1146C128.189 39.8413 128.236 40.2494 128.188 40.4969C128.119 40.8468 127.705 41.0047 127.271 41.265C126.836 41.5253 126.257 41.8724 125.823 41.4772Z" fill="url(#paint30_radial_2944_12150)" fill-opacity="0.5"/>
<path d="M131.035 37.9084C131.613 37.5337 131.94 38.1434 132.031 38.4951C132.122 38.8468 132.319 39.8276 132.381 40.9373C132.458 42.3243 131.862 42.197 131.53 42.0014C131.061 41.7249 130.994 41.0145 130.789 40.2232C130.584 39.4319 130.312 38.3768 131.035 37.9084Z" fill="url(#paint31_radial_2944_12150)"/>
<path d="M128.637 31.3814C129.136 30.9063 129.569 31.4452 129.724 31.774C129.878 32.1029 130.253 33.0303 130.519 34.1094C130.851 35.4583 130.242 35.4433 129.88 35.3124C129.367 35.1273 129.17 34.4417 128.823 33.7018C128.476 32.9619 128.012 31.9754 128.637 31.3814Z" fill="url(#paint32_radial_2944_12150)"/>
<mask id="path-49-outside-1_2944_12150" maskUnits="userSpaceOnUse" x="68.4834" y="62.3242" width="66" height="81" fill="black">
<rect fill="white" x="68.4834" y="62.3242" width="66" height="81"/>
<path d="M124.722 130.883C123.839 131.883 122.721 132.501 121.367 132.737C115.834 133.561 109.948 134.179 103.708 134.591C97.4689 135.062 91.1707 135.356 84.8136 135.474C83.8718 135.474 83.0772 135.327 82.4297 135.033C81.7822 134.738 81.2525 134.326 80.8405 133.796C80.4284 133.326 80.1047 132.737 79.8692 132.031C79.6338 131.383 79.4866 130.706 79.4278 130C79.2512 128.646 79.4572 127.439 80.0458 126.38C80.6344 125.32 81.3408 124.349 82.1648 123.466C82.3414 123.231 82.9006 122.701 83.8424 121.877C84.7842 120.994 85.8731 119.964 87.1092 118.787C88.4042 117.551 89.7874 116.256 91.259 114.902C92.7894 113.489 94.2315 112.165 95.5853 110.929C96.9391 109.634 98.1164 108.515 99.117 107.574C100.177 106.573 100.912 105.896 101.324 105.543C104.209 102.776 106.563 100.275 108.388 98.038C110.212 95.8012 111.213 93.6822 111.39 91.6809C111.684 88.9144 110.978 86.7071 109.271 85.059C107.564 83.352 104.827 82.5868 101.059 82.7634C99.9411 82.8222 98.8227 83.0577 97.7043 83.4697C96.6448 83.8817 95.6442 84.4703 94.7024 85.2355C93.7606 85.9419 92.9071 86.7954 92.1419 87.796C91.4356 88.7378 90.9058 89.7679 90.5526 90.8863C90.2583 91.8869 89.758 92.711 89.0517 93.3585C88.3453 93.9471 87.5507 94.418 86.6678 94.7711C85.7848 95.0654 84.843 95.242 83.8424 95.3009C82.8418 95.3009 81.8705 95.1832 80.9287 94.9477C79.3983 94.4768 78.1623 93.7116 77.2205 92.6521C76.2787 91.5926 75.8372 90.3565 75.8961 88.9438C76.0138 86.6482 76.7496 84.4115 78.1034 82.2336C79.4572 80.0557 81.2525 78.1133 83.4892 76.4063C85.7848 74.6404 88.4336 73.1983 91.4356 72.08C94.4964 70.9027 97.7632 70.167 101.236 69.8727C104.591 69.5783 107.799 69.8432 110.86 70.6673C113.98 71.4325 116.717 72.6686 119.071 74.3756C121.426 76.0237 123.28 78.0544 124.634 80.4678C126.046 82.8811 126.753 85.5299 126.753 88.4141C126.753 91.9458 126.017 95.242 124.545 98.3028C123.074 101.364 120.66 104.513 117.305 107.75C115.893 109.104 114.421 110.487 112.891 111.9C111.36 113.313 109.8 114.696 108.211 116.05C106.681 117.403 105.18 118.698 103.708 119.934C102.296 121.112 101.001 122.142 99.8233 123.025C103.826 122.672 107.652 122.377 111.301 122.142C114.951 121.906 118.365 121.73 121.543 121.612C122.838 121.553 123.868 121.936 124.634 122.76C125.458 123.584 125.899 124.791 125.958 126.38C126.017 128.381 125.605 129.882 124.722 130.883Z"/>
</mask>
<path d="M124.722 130.883C123.839 131.883 122.721 132.501 121.367 132.737C115.834 133.561 109.948 134.179 103.708 134.591C97.4689 135.062 91.1707 135.356 84.8136 135.474C83.8718 135.474 83.0772 135.327 82.4297 135.033C81.7822 134.738 81.2525 134.326 80.8405 133.796C80.4284 133.326 80.1047 132.737 79.8692 132.031C79.6338 131.383 79.4866 130.706 79.4278 130C79.2512 128.646 79.4572 127.439 80.0458 126.38C80.6344 125.32 81.3408 124.349 82.1648 123.466C82.3414 123.231 82.9006 122.701 83.8424 121.877C84.7842 120.994 85.8731 119.964 87.1092 118.787C88.4042 117.551 89.7874 116.256 91.259 114.902C92.7894 113.489 94.2315 112.165 95.5853 110.929C96.9391 109.634 98.1164 108.515 99.117 107.574C100.177 106.573 100.912 105.896 101.324 105.543C104.209 102.776 106.563 100.275 108.388 98.038C110.212 95.8012 111.213 93.6822 111.39 91.6809C111.684 88.9144 110.978 86.7071 109.271 85.059C107.564 83.352 104.827 82.5868 101.059 82.7634C99.9411 82.8222 98.8227 83.0577 97.7043 83.4697C96.6448 83.8817 95.6442 84.4703 94.7024 85.2355C93.7606 85.9419 92.9071 86.7954 92.1419 87.796C91.4356 88.7378 90.9058 89.7679 90.5526 90.8863C90.2583 91.8869 89.758 92.711 89.0517 93.3585C88.3453 93.9471 87.5507 94.418 86.6678 94.7711C85.7848 95.0654 84.843 95.242 83.8424 95.3009C82.8418 95.3009 81.8705 95.1832 80.9287 94.9477C79.3983 94.4768 78.1623 93.7116 77.2205 92.6521C76.2787 91.5926 75.8372 90.3565 75.8961 88.9438C76.0138 86.6482 76.7496 84.4115 78.1034 82.2336C79.4572 80.0557 81.2525 78.1133 83.4892 76.4063C85.7848 74.6404 88.4336 73.1983 91.4356 72.08C94.4964 70.9027 97.7632 70.167 101.236 69.8727C104.591 69.5783 107.799 69.8432 110.86 70.6673C113.98 71.4325 116.717 72.6686 119.071 74.3756C121.426 76.0237 123.28 78.0544 124.634 80.4678C126.046 82.8811 126.753 85.5299 126.753 88.4141C126.753 91.9458 126.017 95.242 124.545 98.3028C123.074 101.364 120.66 104.513 117.305 107.75C115.893 109.104 114.421 110.487 112.891 111.9C111.36 113.313 109.8 114.696 108.211 116.05C106.681 117.403 105.18 118.698 103.708 119.934C102.296 121.112 101.001 122.142 99.8233 123.025C103.826 122.672 107.652 122.377 111.301 122.142C114.951 121.906 118.365 121.73 121.543 121.612C122.838 121.553 123.868 121.936 124.634 122.76C125.458 123.584 125.899 124.791 125.958 126.38C126.017 128.381 125.605 129.882 124.722 130.883Z" fill="white"/>
<path d="M124.722 130.883L119.205 126.015L119.205 126.015L124.722 130.883ZM121.367 132.737L122.451 140.014L122.539 140.001L122.627 139.986L121.367 132.737ZM103.708 134.591L103.223 127.249L103.189 127.252L103.154 127.254L103.708 134.591ZM84.8136 135.474V142.832H84.8817L84.9498 142.83L84.8136 135.474ZM82.4297 135.033L79.3851 141.731H79.3851L82.4297 135.033ZM80.8405 133.796L86.6483 129.279L86.5177 129.111L86.3777 128.951L80.8405 133.796ZM79.8692 132.031L86.8494 129.704L86.8179 129.61L86.784 129.516L79.8692 132.031ZM79.4278 130L86.7601 129.389L86.7458 129.218L86.7237 129.048L79.4278 130ZM80.0458 126.38L73.614 122.807H73.614L80.0458 126.38ZM82.1648 123.466L87.5437 128.486L87.8137 128.197L88.051 127.881L82.1648 123.466ZM83.8424 121.877L88.6875 127.414L88.7825 127.331L88.8746 127.245L83.8424 121.877ZM87.1092 118.787L92.1835 124.115L92.1895 124.109L87.1092 118.787ZM91.259 114.902L96.2406 120.317L96.2496 120.308L91.259 114.902ZM95.5853 110.929L100.546 116.362L100.609 116.305L100.671 116.246L95.5853 110.929ZM99.117 107.574L104.16 112.931L104.169 112.923L99.117 107.574ZM101.324 105.543L106.113 111.129L106.269 110.995L106.418 110.853L101.324 105.543ZM108.388 98.038L102.686 93.387L108.388 98.038ZM111.39 91.6809L104.073 90.9026L104.066 90.9683L104.06 91.0342L111.39 91.6809ZM109.271 85.059L104.068 90.2616L104.114 90.3073L104.16 90.3521L109.271 85.059ZM101.059 82.7634L100.715 75.4137L100.694 75.4147L100.673 75.4158L101.059 82.7634ZM97.7043 83.4697L95.1607 76.5656L95.0989 76.5884L95.0375 76.6123L97.7043 83.4697ZM94.7024 85.2355L99.117 91.1217L99.2312 91.036L99.3421 90.946L94.7024 85.2355ZM92.1419 87.796L86.2972 83.3266L86.2764 83.3539L86.2557 83.3814L92.1419 87.796ZM90.5526 90.8863L83.5364 88.6706L83.5145 88.7402L83.4939 88.8102L90.5526 90.8863ZM89.0517 93.3585L93.7619 99.0108L93.8954 98.8996L94.0234 98.7822L89.0517 93.3585ZM86.6678 94.7711L88.9945 101.751L89.1996 101.683L89.4003 101.603L86.6678 94.7711ZM83.8424 95.3009V102.659H84.0586L84.2745 102.646L83.8424 95.3009ZM80.9287 94.9477L78.765 101.98L78.9532 102.038L79.1442 102.086L80.9287 94.9477ZM75.8961 88.9438L68.548 88.567L68.5462 88.6023L68.5448 88.6375L75.8961 88.9438ZM78.1034 82.2336L71.8546 78.3492L71.8546 78.3492L78.1034 82.2336ZM83.4892 76.4063L87.953 82.2553L87.9641 82.2468L87.9753 82.2382L83.4892 76.4063ZM91.4356 72.08L94.0042 78.9747L94.0406 78.9612L94.0768 78.9472L91.4356 72.08ZM101.236 69.8727L101.857 77.2041L101.868 77.2032L101.879 77.2022L101.236 69.8727ZM110.86 70.6673L108.947 77.772L109.027 77.7935L109.107 77.8132L110.86 70.6673ZM119.071 74.3756L114.752 80.3324L114.802 80.3683L114.852 80.4032L119.071 74.3756ZM124.634 80.4678L118.217 84.0675L118.25 84.1264L118.284 84.1847L124.634 80.4678ZM124.545 98.3028L131.176 101.491V101.491L124.545 98.3028ZM117.305 107.75L122.396 113.062L122.405 113.054L122.414 113.045L117.305 107.75ZM112.891 111.9L117.881 117.306L117.881 117.306L112.891 111.9ZM108.211 116.05L103.44 110.449L103.388 110.493L103.336 110.539L108.211 116.05ZM103.708 119.934L108.418 125.587L108.43 125.578L108.441 125.568L103.708 119.934ZM99.8233 123.025L95.4087 117.139L74.7639 132.622L100.47 130.354L99.8233 123.025ZM121.543 121.612L121.816 128.965L121.847 128.964L121.877 128.962L121.543 121.612ZM124.634 122.76L119.242 127.766L119.335 127.866L119.431 127.963L124.634 122.76ZM125.958 126.38L133.312 126.164L133.312 126.136L133.311 126.108L125.958 126.38ZM124.722 130.883L119.205 126.015C119.296 125.911 119.451 125.774 119.662 125.657C119.871 125.542 120.038 125.5 120.106 125.488L121.367 132.737L122.627 139.986C125.576 139.473 128.214 138.046 130.239 135.751L124.722 130.883ZM121.367 132.737L120.283 125.459C114.97 126.251 109.285 126.849 103.223 127.249L103.708 134.591L104.193 141.933C110.61 141.509 116.697 140.871 122.451 140.014L121.367 132.737ZM103.708 134.591L103.154 127.254C97.0563 127.714 90.8974 128.002 84.6774 128.118L84.8136 135.474L84.9498 142.83C91.444 142.71 97.8814 142.409 104.262 141.928L103.708 134.591ZM84.8136 135.474V128.116C84.7204 128.116 84.7412 128.109 84.8511 128.129C84.9635 128.15 85.1857 128.203 85.4744 128.334L82.4297 135.033L79.3851 141.731C81.2454 142.576 83.1458 142.832 84.8136 142.832V135.474ZM82.4297 135.033L85.4744 128.334C85.8442 128.502 86.2856 128.813 86.6483 129.279L80.8405 133.796L75.0326 138.314C76.2194 139.839 77.7203 140.974 79.3851 141.731L82.4297 135.033ZM80.8405 133.796L86.3777 128.951C86.7191 129.341 86.8334 129.656 86.8494 129.704L79.8692 132.031L72.8891 134.357C73.3759 135.818 74.1378 137.31 75.3032 138.641L80.8405 133.796ZM79.8692 132.031L86.784 129.516C86.7778 129.499 86.7663 129.464 86.7601 129.389L79.4278 130L72.0955 130.611C72.207 131.949 72.4897 133.267 72.9545 134.545L79.8692 132.031ZM79.4278 130L86.7237 129.048C86.7195 129.016 86.7365 129.119 86.7026 129.318C86.6672 129.525 86.5909 129.749 86.4776 129.953L80.0458 126.38L73.614 122.807C72.1651 125.415 71.7785 128.242 72.1319 130.951L79.4278 130ZM80.0458 126.38L86.4776 129.953C86.7765 129.415 87.1297 128.93 87.5437 128.486L82.1648 123.466L76.786 118.446C75.5519 119.768 74.4924 121.226 73.614 122.807L80.0458 126.38ZM82.1648 123.466L88.051 127.881C87.9219 128.053 87.8174 128.174 87.7699 128.228C87.7165 128.288 87.6809 128.326 87.6727 128.334C87.6589 128.348 87.6867 128.319 87.7769 128.234C87.9565 128.063 88.2507 127.796 88.6875 127.414L83.8424 121.877L78.9973 116.34C78.4923 116.782 78.036 117.191 77.6564 117.551C77.4067 117.788 76.7892 118.371 76.2787 119.052L82.1648 123.466ZM83.8424 121.877L88.8746 127.245C89.8341 126.345 90.9376 125.301 92.1835 124.115L87.1092 118.787L82.0349 113.459C80.8087 114.627 79.7343 115.643 78.8102 116.509L83.8424 121.877ZM87.1092 118.787L92.1895 124.109C93.4484 122.907 94.7984 121.643 96.2406 120.317L91.259 114.902L86.2774 109.487C84.7764 110.868 83.36 112.194 82.0289 113.464L87.1092 118.787ZM91.259 114.902L96.2496 120.308C97.7714 118.903 99.2036 117.588 100.546 116.362L95.5853 110.929L90.6242 105.495C89.2593 106.741 87.8073 108.075 86.2684 109.495L91.259 114.902ZM95.5853 110.929L100.671 116.246C102.015 114.96 103.178 113.856 104.16 112.931L99.117 107.574L94.0743 102.216C93.0551 103.175 91.8629 104.308 90.4995 105.612L95.5853 110.929ZM99.117 107.574L104.169 112.923C105.239 111.912 105.854 111.351 106.113 111.129L101.324 105.543L96.536 99.9564C95.9708 100.441 95.1139 101.234 94.065 102.224L99.117 107.574ZM101.324 105.543L106.418 110.853C109.442 107.952 112.019 105.226 114.089 102.689L108.388 98.038L102.686 93.387C101.107 95.323 98.9749 97.6011 96.2311 100.233L101.324 105.543ZM108.388 98.038L114.089 102.689C116.456 99.7871 118.368 96.3085 118.719 92.3276L111.39 91.6809L104.06 91.0342C104.059 91.0559 103.969 91.8153 102.686 93.387L108.388 98.038ZM111.39 91.6809L118.706 92.4592C119.194 87.8747 118.013 83.2719 114.381 79.7658L109.271 85.059L104.16 90.3521C104.175 90.3666 104.156 90.3505 104.127 90.3038C104.097 90.2563 104.08 90.2137 104.073 90.193C104.058 90.1471 104.133 90.3365 104.073 90.9026L111.39 91.6809ZM109.271 85.059L114.473 79.8563C110.65 76.0329 105.404 75.1939 100.715 75.4137L101.059 82.7634L101.404 90.113C102.744 90.0502 103.546 90.1759 103.957 90.2908C104.324 90.3936 104.255 90.4492 104.068 90.2616L109.271 85.059ZM101.059 82.7634L100.673 75.4158C98.7713 75.5159 96.9272 75.9148 95.1607 76.5656L97.7043 83.4697L100.248 90.3737C100.718 90.2005 101.111 90.1285 101.446 90.1109L101.059 82.7634ZM97.7043 83.4697L95.0375 76.6123C93.2181 77.3198 91.5583 78.3099 90.0627 79.5251L94.7024 85.2355L99.3421 90.946C99.73 90.6308 100.072 90.4436 100.371 90.3271L97.7043 83.4697ZM94.7024 85.2355L90.2878 79.3494C88.7702 80.4875 87.4434 81.8278 86.2972 83.3266L92.1419 87.796L97.9865 92.2655C98.3708 91.763 98.7509 91.3963 99.117 91.1217L94.7024 85.2355ZM92.1419 87.796L86.2557 83.3814C85.0533 84.9846 84.1405 86.7577 83.5364 88.6706L90.5526 90.8863L97.5688 93.1019C97.6711 92.7781 97.8178 92.491 98.0281 92.2106L92.1419 87.796ZM90.5526 90.8863L83.4939 88.8102C83.512 88.7485 83.5608 88.6119 83.6674 88.4363C83.776 88.2573 83.917 88.084 84.0799 87.9347L89.0517 93.3585L94.0234 98.7822C95.8038 97.1502 96.9737 95.1304 97.6114 92.9624L90.5526 90.8863ZM89.0517 93.3585L84.3414 87.7061C84.2485 87.7835 84.1259 87.8634 83.9352 87.9397L86.6678 94.7711L89.4003 101.603C90.9755 100.973 92.4422 100.111 93.7619 99.0108L89.0517 93.3585ZM86.6678 94.7711L84.341 87.791C84.1161 87.866 83.8155 87.932 83.4103 87.9559L83.8424 95.3009L84.2745 102.646C85.8706 102.552 87.4536 102.265 88.9945 101.751L86.6678 94.7711ZM83.8424 95.3009V87.9432C83.4248 87.9432 83.0537 87.8948 82.7133 87.8097L80.9287 94.9477L79.1442 102.086C80.6874 102.472 82.2588 102.659 83.8424 102.659V95.3009ZM80.9287 94.9477L83.0925 87.9154C82.8677 87.8462 82.7596 87.785 82.7266 87.7646C82.6985 87.7472 82.7054 87.7479 82.7197 87.7639L77.2205 92.6521L71.7212 97.5403C73.6694 99.7319 76.1182 101.166 78.765 101.98L80.9287 94.9477ZM77.2205 92.6521L82.7197 87.7639C82.8252 87.8827 82.9908 88.1161 83.1121 88.4557C83.2335 88.7958 83.2543 89.0846 83.2474 89.2501L75.8961 88.9438L68.5448 88.6375C68.4062 91.9619 69.5157 95.059 71.7212 97.5403L77.2205 92.6521ZM75.8961 88.9438L83.2441 89.3207C83.291 88.4071 83.5782 87.3631 84.3522 86.118L78.1034 82.2336L71.8546 78.3492C69.921 81.4599 68.7366 84.8893 68.548 88.567L75.8961 88.9438ZM78.1034 82.2336L84.3522 86.118C85.1913 84.7681 86.3565 83.4737 87.953 82.2553L83.4892 76.4063L79.0255 70.5573C76.1485 72.7529 73.7231 75.3433 71.8546 78.3492L78.1034 82.2336ZM83.4892 76.4063L87.9753 82.2382C89.6302 80.9652 91.6185 79.8635 94.0042 78.9747L91.4356 72.08L88.8669 65.1852C85.2487 66.5332 81.9394 68.3157 79.0032 70.5744L83.4892 76.4063ZM91.4356 72.08L94.0768 78.9472C96.4501 78.0344 99.0329 77.4434 101.857 77.2041L101.236 69.8727L100.615 62.5412C96.4934 62.8905 92.5426 63.771 88.7943 65.2127L91.4356 72.08ZM101.236 69.8727L101.879 77.2022C104.43 76.9785 106.769 77.1857 108.947 77.772L110.86 70.6673L112.773 63.5626C108.829 62.5008 104.753 62.1782 100.593 62.5431L101.236 69.8727ZM110.86 70.6673L109.107 77.8132C111.399 78.3754 113.245 79.2396 114.752 80.3324L119.071 74.3756L123.39 68.4187C120.188 66.0975 116.56 64.4895 112.613 63.5214L110.86 70.6673ZM119.071 74.3756L114.852 80.4032C116.337 81.4426 117.425 82.6559 118.217 84.0675L124.634 80.4678L131.05 76.868C129.135 73.453 126.515 70.6048 123.29 68.3479L119.071 74.3756ZM124.634 80.4678L118.284 84.1847C119.015 85.434 119.395 86.7934 119.395 88.4141H126.753H134.11C134.11 84.2663 133.077 80.3281 130.983 76.7508L124.634 80.4678ZM126.753 88.4141H119.395C119.395 90.8873 118.888 93.0887 117.914 95.1148L124.545 98.3028L131.176 101.491C133.145 97.3953 134.11 93.0042 134.11 88.4141H126.753ZM124.545 98.3028L117.914 95.1148C116.933 97.1553 115.141 99.614 112.196 102.455L117.305 107.75L122.414 113.045C126.18 109.412 129.214 105.572 131.176 101.491L124.545 98.3028ZM117.305 107.75L112.214 102.438C110.837 103.758 109.399 105.11 107.9 106.493L112.891 111.9L117.881 117.306C119.443 115.865 120.948 114.45 122.396 113.062L117.305 107.75ZM112.891 111.9L107.9 106.493C106.442 107.84 104.955 109.158 103.44 110.449L108.211 116.05L112.982 121.651C114.646 120.234 116.279 118.785 117.881 117.306L112.891 111.9ZM108.211 116.05L103.336 110.539C101.85 111.854 100.396 113.107 98.9758 114.301L103.708 119.934L108.441 125.568C109.963 124.289 111.512 122.953 113.086 121.561L108.211 116.05ZM103.708 119.934L98.9979 114.282C97.6592 115.398 96.4643 116.347 95.4087 117.139L99.8233 123.025L104.238 128.911C105.537 127.937 106.932 126.826 108.418 125.587L103.708 119.934ZM99.8233 123.025L100.47 130.354C104.421 130.005 108.189 129.716 111.775 129.484L111.301 122.142L110.828 114.799C107.115 115.039 103.231 115.338 99.1766 115.695L99.8233 123.025ZM111.301 122.142L111.775 129.484C115.367 129.252 118.713 129.08 121.816 128.965L121.543 121.612L121.271 114.259C118.016 114.38 114.534 114.56 110.828 114.799L111.301 122.142ZM121.543 121.612L121.877 128.962C121.713 128.97 121.286 128.96 120.725 128.752C120.136 128.533 119.623 128.177 119.242 127.766L124.634 122.76L130.025 117.753C127.555 115.093 124.297 114.122 121.209 114.262L121.543 121.612ZM124.634 122.76L119.431 127.963C119.011 127.543 118.782 127.109 118.673 126.811C118.574 126.542 118.598 126.452 118.605 126.652L125.958 126.38L133.311 126.108C133.208 123.348 132.389 120.11 129.836 117.557L124.634 122.76ZM125.958 126.38L118.603 126.596C118.617 127.064 118.564 127.181 118.598 127.059C118.639 126.908 118.791 126.484 119.205 126.015L124.722 130.883L130.239 135.751C132.852 132.789 133.399 129.118 133.312 126.164L125.958 126.38Z" fill="#00BCA0" mask="url(#path-49-outside-1_2944_12150)"/>
<path d="M26.3145 182.799L60.8784 175.084L67.0505 201.624L33.1038 208.414L37.4243 193.909L26.3145 182.799Z" fill="#00DDBD"/>
<path d="M173.215 182.799L138.651 175.084L132.479 201.624L166.425 208.414L162.105 193.909L173.215 182.799Z" fill="#00DDBD"/>
<path d="M132.476 201.622L134.327 188.043L151.918 191.289L132.476 201.622Z" fill="#17F0D1"/>
<path d="M157.171 165.516C112.749 154.841 87.6029 155.223 42.3691 165.516L47.9241 191.439C88.5399 184.439 111.309 183.744 151.925 191.439L157.171 165.516Z" fill="#26FFDF"/>
<path d="M67.0496 201.623L65.198 188.661L47.916 191.439L67.0496 201.623Z" fill="#17F0D1"/>
<defs>
<linearGradient id="paint0_linear_2944_12150" x1="38.9414" y1="-19.6428" x2="186.096" y2="234.198" gradientUnits="userSpaceOnUse">
<stop stop-color="#00E3C2"/>
<stop offset="1" stop-color="#00FFDA"/>
</linearGradient>
<radialGradient id="paint1_radial_2944_12150" cx="0" cy="0" r="1" gradientUnits="userSpaceOnUse" gradientTransform="translate(102.197 30.9377) scale(27.5914 16.9994)">
<stop stop-color="white" stop-opacity="0.22"/>
<stop offset="1" stop-color="white" stop-opacity="0"/>
</radialGradient>
<linearGradient id="paint2_linear_2944_12150" x1="106.081" y1="18.0666" x2="366.36" y2="219.484" gradientUnits="userSpaceOnUse">
<stop stop-color="#00FFDA"/>
<stop offset="1" stop-color="#00B99E"/>
</linearGradient>
<linearGradient id="paint3_linear_2944_12150" x1="97.8036" y1="188.213" x2="-43.8323" y2="85.2056" gradientUnits="userSpaceOnUse">
<stop stop-color="#00B99E"/>
<stop offset="1" stop-color="#00FFDA"/>
</linearGradient>
<linearGradient id="paint4_linear_2944_12150" x1="407.747" y1="-117.134" x2="14.11" y2="144.064" gradientUnits="userSpaceOnUse">
<stop stop-color="white" stop-opacity="0.82"/>
<stop offset="1" stop-color="white" stop-opacity="0"/>
</linearGradient>
<linearGradient id="paint5_linear_2944_12150" x1="92.2867" y1="248.912" x2="209.09" y2="9.78642" gradientUnits="userSpaceOnUse">
<stop stop-color="white" stop-opacity="0.38"/>
<stop offset="1" stop-color="white" stop-opacity="0"/>
</linearGradient>
<radialGradient id="paint6_radial_2944_12150" cx="0" cy="0" r="1" gradientTransform="matrix(-13.7957 21.1534 -10.4798 -7.30906 151.149 136.708)" gradientUnits="userSpaceOnUse">
<stop stop-color="white" stop-opacity="0.1"/>
<stop offset="1" stop-color="white" stop-opacity="0"/>
</radialGradient>
<radialGradient id="paint7_radial_2944_12150" cx="0" cy="0" r="1" gradientTransform="matrix(25.1908 1.79199 -1.30252 12.7103 97.0311 14.8796)" gradientUnits="userSpaceOnUse">
<stop stop-color="white" stop-opacity="0.1"/>
<stop offset="1" stop-color="white" stop-opacity="0"/>
</radialGradient>
<radialGradient id="paint8_radial_2944_12150" cx="0" cy="0" r="1" gradientTransform="matrix(13.3137 -21.46 10.6425 7.07014 161.742 69.9546)" gradientUnits="userSpaceOnUse">
<stop stop-color="white" stop-opacity="0.1"/>
<stop offset="1" stop-color="white" stop-opacity="0"/>
</radialGradient>
<radialGradient id="paint9_radial_2944_12150" cx="0" cy="0" r="1" gradientUnits="userSpaceOnUse" gradientTransform="translate(100.643 29.0995) rotate(90) scale(28.5111)">
<stop stop-color="#FFE86C"/>
<stop offset="1" stop-color="#FF9900"/>
</radialGradient>
<radialGradient id="paint10_radial_2944_12150" cx="0" cy="0" r="1" gradientUnits="userSpaceOnUse" gradientTransform="translate(100.642 29.0991) rotate(90) scale(22.1753)">
<stop stop-color="#FFF5BC"/>
<stop offset="0.765" stop-color="#FFA800"/>
</radialGradient>
<radialGradient id="paint11_radial_2944_12150" cx="0" cy="0" r="1" gradientUnits="userSpaceOnUse" gradientTransform="translate(111.188 22.1313) rotate(99.6063) scale(2.66619 7.03148)">
<stop stop-color="white"/>
<stop offset="0.84" stop-color="white" stop-opacity="0"/>
</radialGradient>
<radialGradient id="paint12_radial_2944_12150" cx="0" cy="0" r="1" gradientUnits="userSpaceOnUse" gradientTransform="translate(119.745 22.7019) rotate(99.6063) scale(2.66619 2.85773)">
<stop stop-color="white"/>
<stop offset="0.84" stop-color="white" stop-opacity="0"/>
</radialGradient>
<radialGradient id="paint13_radial_2944_12150" cx="0" cy="0" r="1" gradientUnits="userSpaceOnUse" gradientTransform="translate(91.9494 19.6357) rotate(79.8213) scale(1.83292 4.3571)">
<stop stop-color="white"/>
<stop offset="0.84" stop-color="white" stop-opacity="0"/>
</radialGradient>
<radialGradient id="paint14_radial_2944_12150" cx="0" cy="0" r="1" gradientUnits="userSpaceOnUse" gradientTransform="translate(97.0868 42.4147) rotate(59.0688) scale(1.83292 4.3571)">
<stop stop-color="white"/>
<stop offset="0.84" stop-color="white" stop-opacity="0"/>
</radialGradient>
<radialGradient id="paint15_radial_2944_12150" cx="0" cy="0" r="1" gradientUnits="userSpaceOnUse" gradientTransform="translate(111.955 39.7451) rotate(165.501) scale(2.66619 7.03148)">
<stop stop-color="white"/>
<stop offset="0.84" stop-color="white" stop-opacity="0"/>
</radialGradient>
<radialGradient id="paint16_radial_2944_12150" cx="0" cy="0" r="1" gradientUnits="userSpaceOnUse" gradientTransform="translate(105.41 18.2236) rotate(154.854) scale(2.66619 7.03148)">
<stop stop-color="white"/>
<stop offset="0.84" stop-color="white" stop-opacity="0"/>
</radialGradient>
<radialGradient id="paint17_radial_2944_12150" cx="0" cy="0" r="1" gradientUnits="userSpaceOnUse" gradientTransform="translate(73.517 36.6825) rotate(90) scale(8.82268)">
<stop stop-color="#FFE86C"/>
<stop offset="1" stop-color="#FF9900"/>
</radialGradient>
<radialGradient id="paint18_radial_2944_12150" cx="0" cy="0" r="1" gradientUnits="userSpaceOnUse" gradientTransform="translate(73.5193 36.6834) rotate(90) scale(6.86208)">
<stop stop-color="#FFF5BC"/>
<stop offset="0.765" stop-color="#FFA800"/>
</radialGradient>
<radialGradient id="paint19_radial_2944_12150" cx="0" cy="0" r="1" gradientUnits="userSpaceOnUse" gradientTransform="translate(76.7792 34.5252) rotate(99.6063) scale(0.825044 2.17587)">
<stop stop-color="white"/>
<stop offset="0.84" stop-color="white" stop-opacity="0"/>
</radialGradient>
<radialGradient id="paint20_radial_2944_12150" cx="0" cy="0" r="1" gradientUnits="userSpaceOnUse" gradientTransform="translate(79.4276 34.7023) rotate(99.6063) scale(0.825044 0.884315)">
<stop stop-color="white"/>
<stop offset="0.84" stop-color="white" stop-opacity="0"/>
</radialGradient>
<radialGradient id="paint21_radial_2944_12150" cx="0" cy="0" r="1" gradientUnits="userSpaceOnUse" gradientTransform="translate(70.8277 33.7531) rotate(79.8213) scale(0.567193 1.34829)">
<stop stop-color="white"/>
<stop offset="0.84" stop-color="white" stop-opacity="0"/>
</radialGradient>
<radialGradient id="paint22_radial_2944_12150" cx="0" cy="0" r="1" gradientUnits="userSpaceOnUse" gradientTransform="translate(72.4159 40.8023) rotate(59.0688) scale(0.567193 1.34829)">
<stop stop-color="white"/>
<stop offset="0.84" stop-color="white" stop-opacity="0"/>
</radialGradient>
<radialGradient id="paint23_radial_2944_12150" cx="0" cy="0" r="1" gradientUnits="userSpaceOnUse" gradientTransform="translate(77.0175 39.9757) rotate(165.501) scale(0.825044 2.17587)">
<stop stop-color="white"/>
<stop offset="0.84" stop-color="white" stop-opacity="0"/>
</radialGradient>
<radialGradient id="paint24_radial_2944_12150" cx="0" cy="0" r="1" gradientUnits="userSpaceOnUse" gradientTransform="translate(74.9932 33.3158) rotate(154.854) scale(0.825044 2.17587)">
<stop stop-color="white"/>
<stop offset="0.84" stop-color="white" stop-opacity="0"/>
</radialGradient>
<radialGradient id="paint25_radial_2944_12150" cx="0" cy="0" r="1" gradientUnits="userSpaceOnUse" gradientTransform="translate(128.061 36.6825) rotate(90) scale(8.82268)">
<stop stop-color="#FFE86C"/>
<stop offset="1" stop-color="#FF9900"/>
</radialGradient>
<radialGradient id="paint26_radial_2944_12150" cx="0" cy="0" r="1" gradientUnits="userSpaceOnUse" gradientTransform="translate(128.062 36.6834) rotate(90) scale(6.86208)">
<stop stop-color="#FFF5BC"/>
<stop offset="0.765" stop-color="#FFA800"/>
</radialGradient>
<radialGradient id="paint27_radial_2944_12150" cx="0" cy="0" r="1" gradientUnits="userSpaceOnUse" gradientTransform="translate(131.324 34.5252) rotate(99.6063) scale(0.825044 2.17587)">
<stop stop-color="white"/>
<stop offset="0.84" stop-color="white" stop-opacity="0"/>
</radialGradient>
<radialGradient id="paint28_radial_2944_12150" cx="0" cy="0" r="1" gradientUnits="userSpaceOnUse" gradientTransform="translate(133.971 34.7023) rotate(99.6063) scale(0.825044 0.884315)">
<stop stop-color="white"/>
<stop offset="0.84" stop-color="white" stop-opacity="0"/>
</radialGradient>
<radialGradient id="paint29_radial_2944_12150" cx="0" cy="0" r="1" gradientUnits="userSpaceOnUse" gradientTransform="translate(125.372 33.7531) rotate(79.8213) scale(0.567193 1.34829)">
<stop stop-color="white"/>
<stop offset="0.84" stop-color="white" stop-opacity="0"/>
</radialGradient>
<radialGradient id="paint30_radial_2944_12150" cx="0" cy="0" r="1" gradientUnits="userSpaceOnUse" gradientTransform="translate(126.96 40.8023) rotate(59.0688) scale(0.567193 1.34829)">
<stop stop-color="white"/>
<stop offset="0.84" stop-color="white" stop-opacity="0"/>
</radialGradient>
<radialGradient id="paint31_radial_2944_12150" cx="0" cy="0" r="1" gradientUnits="userSpaceOnUse" gradientTransform="translate(131.561 39.9757) rotate(165.501) scale(0.825044 2.17587)">
<stop stop-color="white"/>
<stop offset="0.84" stop-color="white" stop-opacity="0"/>
</radialGradient>
<radialGradient id="paint32_radial_2944_12150" cx="0" cy="0" r="1" gradientUnits="userSpaceOnUse" gradientTransform="translate(129.536 33.3158) rotate(154.854) scale(0.825044 2.17587)">
<stop stop-color="white"/>
<stop offset="0.84" stop-color="white" stop-opacity="0"/>
</radialGradient>
</defs>
</svg>
