<svg width="108" height="112" viewBox="0 0 108 112" fill="none" xmlns="http://www.w3.org/2000/svg">
<path d="M7.23535 41C14.2478 44.9961 16.6931 53.9203 12.697 60.9328C5.68451 56.9367 3.23925 48.0125 7.23535 41Z" fill="#0BF5D3"/>
<path d="M21.0474 52.6309C24.2725 58.5839 22.0611 66.0242 16.1081 69.2493C12.883 63.2963 15.0944 55.856 21.0474 52.6309Z" fill="#0BF5D3"/>
<path d="M1.7002 58.8779C8.41543 58.0148 14.5589 62.7589 15.422 69.4742C8.70677 70.3373 2.5633 65.5932 1.7002 58.8779Z" fill="#00DDBD"/>
<path d="M24.877 64.0518C29.2857 69.1901 28.6943 76.9295 23.556 81.3383C19.1473 76.2 19.7387 68.4605 24.877 64.0518Z" fill="#0BF5D3"/>
<path d="M12.5166 59.6338C13.4229 64.6185 17.8185 76.3211 28.1504 83.2543" stroke="#0BF5D3" stroke-width="0.762076" stroke-linecap="round" stroke-linejoin="round"/>
<path d="M7.07959 77.4658C12.7796 73.8121 20.3622 75.471 24.016 81.1709C18.316 84.8246 10.7333 83.1658 7.07959 77.4658Z" fill="#00DDBD"/>
<path d="M100.053 41C93.0402 44.9961 90.595 53.9203 94.5911 60.9328C101.604 56.9367 104.049 48.0125 100.053 41Z" fill="#0BF5D3"/>
<path d="M86.2407 52.6309C83.0156 58.5839 85.227 66.0242 91.18 69.2493C94.4051 63.2963 92.1937 55.856 86.2407 52.6309Z" fill="#0BF5D3"/>
<path d="M105.59 58.8779C98.8751 58.0148 92.7316 62.7589 91.8685 69.4742C98.5838 70.3373 104.727 65.5932 105.59 58.8779Z" fill="#00DDBD"/>
<path d="M82.4165 64.0518C78.0077 69.1901 78.5991 76.9295 83.7374 81.3383C88.1462 76.2 87.5548 68.4605 82.4165 64.0518Z" fill="#0BF5D3"/>
<path d="M94.7769 59.6338C93.8706 64.6185 89.475 76.3211 79.1431 83.2543" stroke="#0BF5D3" stroke-width="0.762076" stroke-linecap="round" stroke-linejoin="round"/>
<path d="M100.213 77.4668C94.5134 73.8131 86.9307 75.4719 83.277 81.1719C88.977 84.8256 96.5597 83.1668 100.213 77.4668Z" fill="#00DDBD"/>
<path d="M55 4.00098L90.507 30.001V82.001L55 108.001L19.493 82.001V30.001L55 4.00098Z" fill="#00FFDA"/>
<path d="M55 13.001L84.4449 34.501V77.501L55 99.001L25.5551 77.501V34.501L55 13.001Z" fill="url(#paint0_linear_2944_11230)"/>
<path d="M55.3882 12.999L66.8879 21.4989C55.5492 32.2398 45.4544 26.8262 41.3882 22.999L55.3882 12.999Z" fill="url(#paint1_radial_2944_11230)"/>
<path d="M25.5 34.5L19.5 30V82L25.5 77.5V34.5Z" fill="#71FFEA"/>
<path d="M84.5 34.5L90.5 30V82L84.5 77.5V34.5Z" fill="#00FFDA"/>
<path d="M55 13.001V4.00098L90.5 30.001L84.5 34.501L55 13.001Z" fill="url(#paint2_linear_2944_11230)"/>
<path d="M55 99.001V108.001L19.5 82.001L25.5 77.501L55 99.001Z" fill="url(#paint3_linear_2944_11230)"/>
<path d="M73.5 26.5L25.5 62V77.5L84.5 34.5L73.5 26.5Z" fill="url(#paint4_linear_2944_11230)"/>
<path d="M36.5 85.5L32.5 82.5L84.5 43V48L36.5 85.5Z" fill="url(#paint5_linear_2944_11230)"/>
<path d="M84.4998 77.5L73.5 85.5C69.6142 70.3727 79.1799 62.697 84.4998 61L84.4998 77.5Z" fill="url(#paint6_radial_2944_11230)"/>
<path d="M54.4254 3.88401L66.7595 9.61706C55.4207 20.3579 44.0663 15.7212 40.0001 11.894L54.4254 3.88401Z" fill="url(#paint7_radial_2944_11230)"/>
<path d="M84.5001 34.5004L95.997 26.0208C100.224 41.0563 89.7802 48.1831 84.5 50L84.5001 34.5004Z" fill="url(#paint8_radial_2944_11230)"/>
<path d="M52.8529 3.31264C53.5573 1.93234 55.5296 1.93234 56.234 3.31264L58.751 8.24471C59.0268 8.7851 59.5443 9.16108 60.1434 9.25638L65.6119 10.1261C67.1423 10.3695 67.7518 12.2452 66.6567 13.3417L62.7439 17.2596C62.3151 17.6889 62.1175 18.2972 62.212 18.8965L63.0747 24.3661C63.3161 25.8968 61.7205 27.0561 60.3393 26.3535L55.404 23.8428C54.8633 23.5677 54.2236 23.5677 53.6829 23.8428L48.7476 26.3535C47.3664 27.0561 45.7708 25.8968 46.0122 24.3661L46.8749 18.8965C46.9694 18.2972 46.7718 17.6889 46.3431 17.2596L42.4302 13.3417C41.3351 12.2452 41.9446 10.3695 43.475 10.1261L48.9435 9.25638C49.5426 9.16108 50.0601 8.7851 50.3359 8.24471L52.8529 3.31264Z" fill="url(#paint9_radial_2944_11230)"/>
<path d="M53.6986 5.10066C54.0508 4.41051 55.0369 4.41051 55.3891 5.10066L57.9383 10.0958C58.0762 10.366 58.3349 10.554 58.6345 10.6016L64.1729 11.4824C64.9381 11.6041 65.2428 12.542 64.6953 13.0903L60.7324 17.0582C60.518 17.2729 60.4192 17.5771 60.4665 17.8767L61.3402 23.4162C61.4609 24.1816 60.6631 24.7612 59.9725 24.4099L54.9741 21.8671C54.7038 21.7296 54.3839 21.7296 54.1135 21.8671L49.1152 24.4099C48.4246 24.7612 47.6268 24.1816 47.7475 23.4162L48.6212 17.8767C48.6685 17.5771 48.5696 17.2729 48.3553 17.0582L44.3924 13.0903C43.8448 12.542 44.1496 11.6041 44.9148 11.4824L50.4532 10.6016C50.7527 10.554 51.0115 10.366 51.1494 10.0958L53.6986 5.10066Z" fill="url(#paint10_radial_2944_11230)"/>
<path d="M56.5841 11.0728C56.3983 9.87627 57.6103 9.79013 58.2395 9.89663C58.8688 10.0031 60.5832 10.3904 62.4071 11.0874C64.6869 11.9588 64.0552 12.8227 63.5034 13.2148C62.723 13.7693 61.5358 13.3672 60.12 13.1276C58.7042 12.888 56.8164 12.5685 56.5841 11.0728Z" fill="url(#paint11_radial_2944_11230)"/>
<path d="M63.4285 11.7539C63.4668 10.5953 63.9878 10.3922 64.2436 10.4355C64.4993 10.4788 65.1866 10.6922 65.8899 11.1996C66.7691 11.8338 66.4175 12.7452 66.1458 13.1847C65.7616 13.8062 65.2987 13.5268 64.7233 13.4294C64.1479 13.332 63.3807 13.2022 63.4285 11.7539Z" fill="url(#paint12_radial_2944_11230)" fill-opacity="0.56"/>
<path d="M47.5301 10.7564C47.157 10.021 47.8422 9.69742 48.2315 9.62754C48.6207 9.55765 49.7027 9.43024 50.917 9.47969C52.4348 9.54149 52.2591 10.2417 52.0253 10.618C51.6947 11.1501 50.9158 11.1515 50.04 11.3087C49.1642 11.466 47.9965 11.6756 47.5301 10.7564Z" fill="url(#paint13_radial_2944_11230)" fill-opacity="0.5"/>
<path d="M50.6131 23.9245C50.0036 23.3691 50.5297 22.8237 50.8689 22.6204C51.2081 22.4171 52.1748 21.9146 53.3278 21.5306C54.769 21.0506 54.8529 21.7675 54.7676 22.2022C54.647 22.817 53.9191 23.0943 53.1558 23.5517C52.3926 24.009 51.3749 24.6188 50.6131 23.9245Z" fill="url(#paint14_radial_2944_11230)" fill-opacity="0.5"/>
<path d="M59.7672 17.6555C60.7835 16.9972 61.3571 18.0684 61.5169 18.6862C61.6767 19.3041 62.0234 21.0272 62.132 22.9767C62.2677 25.4136 61.2211 25.1898 60.6379 24.8462C59.813 24.3604 59.6951 23.1125 59.3356 21.7222C58.9761 20.332 58.4968 18.4784 59.7672 17.6555Z" fill="url(#paint15_radial_2944_11230)"/>
<path d="M55.5552 6.18861C56.4323 5.35384 57.194 6.30057 57.4652 6.87828C57.7364 7.45599 58.3955 9.08538 58.8624 10.9812C59.4461 13.351 58.3762 13.3245 57.7395 13.0946C56.8391 12.7695 56.4926 11.5649 55.8825 10.265C55.2723 8.9652 54.4587 7.23207 55.5552 6.18861Z" fill="url(#paint16_radial_2944_11230)"/>
<path d="M38.6549 17.0629C39.1306 16.1309 40.4623 16.1309 40.9379 17.0629C41.1241 17.4278 41.4735 17.6817 41.8781 17.746C42.9115 17.9103 43.323 19.1769 42.5836 19.9172C42.2941 20.2071 42.1606 20.6178 42.2245 21.0225C42.3875 22.0561 41.3101 22.8388 40.3775 22.3644C40.0124 22.1786 39.5805 22.1786 39.2154 22.3644C38.2828 22.8388 37.2054 22.0561 37.3684 21.0225C37.4322 20.6178 37.2988 20.2071 37.0093 19.9172C36.2699 19.1769 36.6814 17.9103 37.7148 17.746C38.1193 17.6817 38.4687 17.4278 38.6549 17.0629Z" fill="url(#paint17_radial_2944_11230)"/>
<path d="M38.9517 17.5489C39.3039 16.8587 40.29 16.8587 40.6422 17.5489L40.6958 17.6539C40.8337 17.9241 41.0925 18.1121 41.392 18.1597L41.5085 18.1783C42.2737 18.3 42.5784 19.2378 42.0309 19.7861L41.9476 19.8695C41.7332 20.0841 41.6344 20.3883 41.6816 20.6879L41.7 20.8044C41.8207 21.5697 41.0229 22.1494 40.3323 21.7981L40.2272 21.7446C39.9569 21.6071 39.637 21.6071 39.3667 21.7446L39.2616 21.7981C38.571 22.1494 37.7732 21.5697 37.8939 20.8044L37.9123 20.6879C37.9595 20.3883 37.8607 20.0841 37.6463 19.8695L37.563 19.7861C37.0155 19.2378 37.3202 18.3 38.0855 18.1783L38.2019 18.1597C38.5015 18.1121 38.7602 17.9241 38.8981 17.6539L38.9517 17.5489Z" fill="url(#paint18_radial_2944_11230)"/>
<path d="M40.4277 18.2525C40.3702 17.8823 40.7452 17.8556 40.9399 17.8886C41.1347 17.9215 41.6652 18.0414 42.2296 18.2571C42.935 18.5267 42.7396 18.794 42.5688 18.9154C42.3273 19.0869 41.9599 18.9625 41.5218 18.8884C41.0837 18.8142 40.4996 18.7154 40.4277 18.2525Z" fill="url(#paint19_radial_2944_11230)"/>
<path d="M42.5455 18.4631C42.5573 18.1046 42.7185 18.0417 42.7977 18.0551C42.8768 18.0685 43.0895 18.1346 43.3071 18.2916C43.5792 18.4879 43.4704 18.7699 43.3863 18.9059C43.2674 19.0982 43.1242 19.0117 42.9461 18.9816C42.7681 18.9515 42.5307 18.9113 42.5455 18.4631Z" fill="url(#paint20_radial_2944_11230)" fill-opacity="0.56"/>
<path d="M37.6262 18.1546C37.5107 17.927 37.7228 17.8269 37.8432 17.8053C37.9637 17.7836 38.2985 17.7442 38.6743 17.7595C39.1439 17.7786 39.0896 17.9953 39.0172 18.1117C38.9149 18.2764 38.6739 18.2768 38.4029 18.3255C38.1319 18.3742 37.7705 18.439 37.6262 18.1546Z" fill="url(#paint21_radial_2944_11230)" fill-opacity="0.5"/>
<path d="M38.5804 22.2293C38.3919 22.0574 38.5546 21.8886 38.6596 21.8257C38.7646 21.7628 39.0637 21.6073 39.4205 21.4885C39.8665 21.3399 39.8924 21.5618 39.8661 21.6963C39.8287 21.8866 39.6035 21.9724 39.3673 22.1139C39.1311 22.2554 38.8162 22.4441 38.5804 22.2293Z" fill="url(#paint22_radial_2944_11230)" fill-opacity="0.5"/>
<path d="M41.413 20.2899C41.7275 20.0862 41.905 20.4177 41.9544 20.6088C42.0039 20.8 42.1112 21.3333 42.1448 21.9365C42.1868 22.6906 41.8629 22.6214 41.6824 22.515C41.4272 22.3647 41.3907 21.9785 41.2795 21.5483C41.1682 21.1181 41.0199 20.5445 41.413 20.2899Z" fill="url(#paint23_radial_2944_11230)"/>
<path d="M40.1096 16.741C40.381 16.4827 40.6167 16.7757 40.7006 16.9544C40.7845 17.1332 40.9885 17.6374 41.133 18.2241C41.3136 18.9574 40.9825 18.9492 40.7855 18.8781C40.5069 18.7775 40.3996 18.4047 40.2108 18.0025C40.022 17.6002 39.7703 17.0639 40.1096 16.741Z" fill="url(#paint24_radial_2944_11230)"/>
<path d="M68.3073 17.0629C68.7829 16.1309 70.1146 16.1309 70.5903 17.0629C70.7765 17.4278 71.1259 17.6817 71.5304 17.746C72.5638 17.9103 72.9753 19.1769 72.2359 19.9172C71.9464 20.2071 71.813 20.6178 71.8768 21.0225C72.0398 22.0561 70.9624 22.8388 70.0298 22.3644C69.6647 22.1786 69.2328 22.1786 68.8677 22.3644C67.9351 22.8388 66.8577 22.0561 67.0207 21.0225C67.0846 20.6178 66.9511 20.2071 66.6616 19.9172C65.9222 19.1769 66.3337 17.9103 67.3671 17.746C67.7717 17.6817 68.1211 17.4278 68.3073 17.0629Z" fill="url(#paint25_radial_2944_11230)"/>
<path d="M68.604 17.5489C68.9562 16.8587 69.9424 16.8587 70.2946 17.5489L70.3482 17.6539C70.4861 17.9241 70.7448 18.1121 71.0444 18.1597L71.1608 18.1783C71.926 18.3 72.2308 19.2378 71.6832 19.7861L71.5999 19.8695C71.3856 20.0841 71.2867 20.3883 71.334 20.6879L71.3524 20.8044C71.4731 21.5697 70.6753 22.1494 69.9847 21.7981L69.8796 21.7446C69.6092 21.6071 69.2894 21.6071 69.019 21.7446L68.9139 21.7981C68.2233 22.1494 67.4255 21.5697 67.5463 20.8044L67.5646 20.6879C67.6119 20.3883 67.5131 20.0841 67.2987 19.8695L67.2154 19.7861C66.6679 19.2378 66.9726 18.3 67.7378 18.1783L67.8542 18.1597C68.1538 18.1121 68.4126 17.9241 68.5504 17.6539L68.604 17.5489Z" fill="url(#paint26_radial_2944_11230)"/>
<path d="M70.08 18.2525C70.0225 17.8823 70.3976 17.8556 70.5923 17.8886C70.787 17.9215 71.3175 18.0414 71.8819 18.2571C72.5874 18.5267 72.3919 18.794 72.2212 18.9154C71.9797 19.0869 71.6123 18.9625 71.1742 18.8884C70.7361 18.8142 70.1519 18.7154 70.08 18.2525Z" fill="url(#paint27_radial_2944_11230)"/>
<path d="M72.1983 18.4631C72.2101 18.1046 72.3714 18.0417 72.4505 18.0551C72.5297 18.0685 72.7423 18.1346 72.96 18.2916C73.232 18.4879 73.1232 18.7699 73.0392 18.9059C72.9203 19.0982 72.777 19.0117 72.599 18.9816C72.4209 18.9515 72.1835 18.9113 72.1983 18.4631Z" fill="url(#paint28_radial_2944_11230)" fill-opacity="0.56"/>
<path d="M67.279 18.1546C67.1636 17.927 67.3756 17.8269 67.4961 17.8053C67.6165 17.7836 67.9513 17.7442 68.3271 17.7595C68.7968 17.7786 68.7424 17.9953 68.6701 18.1117C68.5678 18.2764 68.3267 18.2768 68.0557 18.3255C67.7847 18.3742 67.4234 18.439 67.279 18.1546Z" fill="url(#paint29_radial_2944_11230)" fill-opacity="0.5"/>
<path d="M68.2328 22.2293C68.0442 22.0574 68.207 21.8886 68.312 21.8257C68.4169 21.7628 68.7161 21.6073 69.0729 21.4885C69.5188 21.3399 69.5448 21.5618 69.5184 21.6963C69.4811 21.8866 69.2558 21.9724 69.0196 22.1139C68.7835 22.2554 68.4685 22.4441 68.2328 22.2293Z" fill="url(#paint30_radial_2944_11230)" fill-opacity="0.5"/>
<path d="M71.0653 20.2899C71.3798 20.0862 71.5573 20.4177 71.6068 20.6088C71.6562 20.8 71.7635 21.3333 71.7971 21.9365C71.8391 22.6906 71.5152 22.6214 71.3348 22.515C71.0795 22.3647 71.043 21.9785 70.9318 21.5483C70.8206 21.1181 70.6722 20.5445 71.0653 20.2899Z" fill="url(#paint31_radial_2944_11230)"/>
<path d="M69.7619 16.741C70.0333 16.4827 70.269 16.7757 70.3529 16.9544C70.4369 17.1332 70.6408 17.6374 70.7853 18.2241C70.9659 18.9574 70.6348 18.9492 70.4378 18.8781C70.1592 18.7775 70.052 18.4047 69.8632 18.0025C69.6744 17.6002 69.4226 17.0639 69.7619 16.741Z" fill="url(#paint32_radial_2944_11230)"/>
<mask id="path-49-outside-1_2944_11230" maskUnits="userSpaceOnUse" x="36.5" y="33" width="37" height="45" fill="black">
<rect fill="white" x="36.5" y="33" width="37" height="45"/>
<path d="M53.46 53.384C54.516 53.32 55.204 53.256 55.524 53.192C57.22 53.032 58.548 52.536 59.508 51.704C60.468 50.872 60.9 49.832 60.804 48.584C60.708 47.08 60.052 45.96 58.836 45.224C57.62 44.456 56.132 44.184 54.372 44.408C53.156 44.568 52.1 45.016 51.204 45.752C50.34 46.488 49.716 47.32 49.332 48.248C49.14 48.76 48.82 49.16 48.372 49.448C47.956 49.736 47.492 49.944 46.98 50.072C46.468 50.2 45.924 50.248 45.348 50.216C44.772 50.184 44.244 50.104 43.764 49.976C43.124 49.784 42.612 49.512 42.228 49.16C41.844 48.808 41.572 48.392 41.412 47.912C41.252 47.432 41.204 46.92 41.268 46.376C41.332 45.8 41.476 45.24 41.7 44.696C41.988 43.928 42.516 43.144 43.284 42.344C44.084 41.512 45.044 40.76 46.164 40.088C47.316 39.384 48.612 38.808 50.052 38.36C51.524 37.912 53.108 37.656 54.804 37.592C56.66 37.56 58.42 37.8 60.084 38.312C61.78 38.792 63.252 39.496 64.5 40.424C65.78 41.32 66.788 42.392 67.524 43.64C68.26 44.888 68.628 46.232 68.628 47.672C68.628 49.976 68.02 51.832 66.804 53.24C65.62 54.648 64.02 55.624 62.004 56.168C64.02 56.424 65.572 57.192 66.66 58.472C67.78 59.72 68.34 61.384 68.34 63.464C68.34 64.936 68.02 66.312 67.38 67.592C66.74 68.84 65.844 69.928 64.692 70.856C63.54 71.784 62.148 72.504 60.516 73.016C58.884 73.56 57.092 73.832 55.14 73.832C53.124 73.832 51.3 73.624 49.668 73.208C48.068 72.792 46.692 72.232 45.54 71.528C44.42 70.824 43.556 70.008 42.948 69.08C42.34 68.12 42.036 67.128 42.036 66.104C42.036 65.432 42.18 64.808 42.468 64.232C42.788 63.656 43.268 63.224 43.908 62.936C44.292 62.744 44.692 62.6 45.108 62.504C45.556 62.408 45.988 62.376 46.404 62.408C46.852 62.44 47.252 62.552 47.604 62.744C47.956 62.904 48.244 63.16 48.468 63.512C49.204 64.76 50.164 65.656 51.348 66.2C52.532 66.712 53.924 66.984 55.524 67.016C56.228 67.016 56.884 66.936 57.492 66.776C58.1 66.616 58.628 66.376 59.076 66.056C59.524 65.704 59.876 65.288 60.132 64.808C60.388 64.328 60.516 63.784 60.516 63.176C60.484 62.344 60.036 61.608 59.172 60.968C58.34 60.296 57.316 59.912 56.1 59.816C55.908 59.816 55.524 59.8 54.948 59.768C54.372 59.736 53.748 59.704 53.076 59.672C52.436 59.608 51.828 59.56 51.252 59.528C50.676 59.496 50.292 59.48 50.1 59.48C49.364 59.448 48.82 59.144 48.468 58.568C48.148 57.992 47.988 57.336 47.988 56.6C47.988 55.864 48.148 55.224 48.468 54.68C48.82 54.104 49.364 53.768 50.1 53.672C51.316 53.512 52.436 53.416 53.46 53.384Z"/>
</mask>
<path d="M53.46 53.384C54.516 53.32 55.204 53.256 55.524 53.192C57.22 53.032 58.548 52.536 59.508 51.704C60.468 50.872 60.9 49.832 60.804 48.584C60.708 47.08 60.052 45.96 58.836 45.224C57.62 44.456 56.132 44.184 54.372 44.408C53.156 44.568 52.1 45.016 51.204 45.752C50.34 46.488 49.716 47.32 49.332 48.248C49.14 48.76 48.82 49.16 48.372 49.448C47.956 49.736 47.492 49.944 46.98 50.072C46.468 50.2 45.924 50.248 45.348 50.216C44.772 50.184 44.244 50.104 43.764 49.976C43.124 49.784 42.612 49.512 42.228 49.16C41.844 48.808 41.572 48.392 41.412 47.912C41.252 47.432 41.204 46.92 41.268 46.376C41.332 45.8 41.476 45.24 41.7 44.696C41.988 43.928 42.516 43.144 43.284 42.344C44.084 41.512 45.044 40.76 46.164 40.088C47.316 39.384 48.612 38.808 50.052 38.36C51.524 37.912 53.108 37.656 54.804 37.592C56.66 37.56 58.42 37.8 60.084 38.312C61.78 38.792 63.252 39.496 64.5 40.424C65.78 41.32 66.788 42.392 67.524 43.64C68.26 44.888 68.628 46.232 68.628 47.672C68.628 49.976 68.02 51.832 66.804 53.24C65.62 54.648 64.02 55.624 62.004 56.168C64.02 56.424 65.572 57.192 66.66 58.472C67.78 59.72 68.34 61.384 68.34 63.464C68.34 64.936 68.02 66.312 67.38 67.592C66.74 68.84 65.844 69.928 64.692 70.856C63.54 71.784 62.148 72.504 60.516 73.016C58.884 73.56 57.092 73.832 55.14 73.832C53.124 73.832 51.3 73.624 49.668 73.208C48.068 72.792 46.692 72.232 45.54 71.528C44.42 70.824 43.556 70.008 42.948 69.08C42.34 68.12 42.036 67.128 42.036 66.104C42.036 65.432 42.18 64.808 42.468 64.232C42.788 63.656 43.268 63.224 43.908 62.936C44.292 62.744 44.692 62.6 45.108 62.504C45.556 62.408 45.988 62.376 46.404 62.408C46.852 62.44 47.252 62.552 47.604 62.744C47.956 62.904 48.244 63.16 48.468 63.512C49.204 64.76 50.164 65.656 51.348 66.2C52.532 66.712 53.924 66.984 55.524 67.016C56.228 67.016 56.884 66.936 57.492 66.776C58.1 66.616 58.628 66.376 59.076 66.056C59.524 65.704 59.876 65.288 60.132 64.808C60.388 64.328 60.516 63.784 60.516 63.176C60.484 62.344 60.036 61.608 59.172 60.968C58.34 60.296 57.316 59.912 56.1 59.816C55.908 59.816 55.524 59.8 54.948 59.768C54.372 59.736 53.748 59.704 53.076 59.672C52.436 59.608 51.828 59.56 51.252 59.528C50.676 59.496 50.292 59.48 50.1 59.48C49.364 59.448 48.82 59.144 48.468 58.568C48.148 57.992 47.988 57.336 47.988 56.6C47.988 55.864 48.148 55.224 48.468 54.68C48.82 54.104 49.364 53.768 50.1 53.672C51.316 53.512 52.436 53.416 53.46 53.384Z" fill="white"/>
<path d="M53.46 53.384L53.5849 57.382L53.6435 57.3802L53.702 57.3767L53.46 53.384ZM55.524 53.192L55.1483 49.2097L54.9424 49.2291L54.7395 49.2697L55.524 53.192ZM59.508 51.704L62.1277 54.7268L62.1277 54.7268L59.508 51.704ZM60.804 48.584L56.8121 48.8388L56.8138 48.8648L56.8158 48.8908L60.804 48.584ZM58.836 45.224L56.7 48.606L56.7322 48.6263L56.7648 48.646L58.836 45.224ZM54.372 44.408L53.867 40.44L53.8586 40.4411L53.8502 40.4422L54.372 44.408ZM51.204 45.752L48.665 42.6611L48.6374 42.6838L48.6101 42.707L51.204 45.752ZM49.332 48.248L45.6359 46.7186L45.6103 46.7806L45.5867 46.8435L49.332 48.248ZM48.372 49.448L46.209 46.0833L46.1514 46.1203L46.0952 46.1592L48.372 49.448ZM45.348 50.216L45.5699 46.2222L45.5699 46.2222L45.348 50.216ZM43.764 49.976L42.6146 53.8073L42.6737 53.825L42.7333 53.8409L43.764 49.976ZM42.228 49.16L39.5251 52.1086L39.5251 52.1086L42.228 49.16ZM41.412 47.912L45.2067 46.6471L45.2067 46.6471L41.412 47.912ZM41.268 46.376L45.2406 46.8434L45.2421 46.8305L45.2435 46.8177L41.268 46.376ZM41.7 44.696L45.3987 46.219L45.423 46.1601L45.4453 46.1005L41.7 44.696ZM43.284 42.344L40.4007 39.5716L40.3985 39.5739L43.284 42.344ZM46.164 40.088L48.222 43.518L48.2359 43.5096L48.2498 43.5011L46.164 40.088ZM50.052 38.36L48.8874 34.5333L48.8755 34.5369L48.8637 34.5406L50.052 38.36ZM54.804 37.592L54.735 33.5926L54.6941 33.5933L54.6532 33.5948L54.804 37.592ZM60.084 38.312L58.9077 42.1351L58.951 42.1485L58.9947 42.1608L60.084 38.312ZM64.5 40.424L62.1132 43.6338L62.1592 43.6681L62.2062 43.7009L64.5 40.424ZM67.524 43.64L70.9695 41.6081L70.9695 41.6081L67.524 43.64ZM66.804 53.24L63.7767 50.6255L63.7595 50.6454L63.7426 50.6656L66.804 53.24ZM62.004 56.168L60.9619 52.3061L61.5001 60.1361L62.004 56.168ZM66.66 58.472L63.6122 61.0626L63.6471 61.1036L63.683 61.1436L66.66 58.472ZM67.38 67.592L70.9393 69.4173L70.9486 69.3991L70.9577 69.3809L67.38 67.592ZM64.692 70.856L62.1827 67.741V67.741L64.692 70.856ZM60.516 73.016L59.3186 69.1994L59.2848 69.21L59.2511 69.2213L60.516 73.016ZM49.668 73.208L48.6615 77.0793L48.6707 77.0817L48.68 77.0841L49.668 73.208ZM45.54 71.528L43.4113 74.9145L43.4327 74.928L43.4542 74.9411L45.54 71.528ZM42.948 69.08L39.5687 71.2202L39.5852 71.2463L39.6022 71.2721L42.948 69.08ZM42.468 64.232L38.9714 62.2894L38.9292 62.3654L38.8903 62.4431L42.468 64.232ZM43.908 62.936L45.5495 66.5837L45.6239 66.5502L45.6969 66.5137L43.908 62.936ZM45.108 62.504L44.2699 58.5928L44.2392 58.5994L44.2086 58.6064L45.108 62.504ZM46.404 62.408L46.0972 66.3962L46.1081 66.3971L46.119 66.3978L46.404 62.408ZM47.604 62.744L45.6886 66.2556L45.8163 66.3253L45.9488 66.3855L47.604 62.744ZM48.468 63.512L51.9135 61.4801L51.879 61.4217L51.8426 61.3645L48.468 63.512ZM51.348 66.2L49.678 69.8347L49.719 69.8535L49.7604 69.8714L51.348 66.2ZM55.524 67.016L55.444 71.0152L55.484 71.016H55.524V67.016ZM57.492 66.776L56.474 62.9077H56.474L57.492 66.776ZM59.076 66.056L61.401 69.3109L61.4754 69.2578L61.5473 69.2013L59.076 66.056ZM60.132 64.808L56.6026 62.9256L56.6026 62.9256L60.132 64.808ZM60.516 63.176H64.516V63.0991L64.513 63.0223L60.516 63.176ZM59.172 60.968L56.6587 64.0798L56.7238 64.1324L56.7911 64.1822L59.172 60.968ZM56.1 59.816L56.4148 55.8284L56.2577 55.816H56.1V59.816ZM54.948 59.768L55.1699 55.7742L54.948 59.768ZM53.076 59.672L52.678 63.6521L52.7817 63.6625L52.8857 63.6675L53.076 59.672ZM51.252 59.528L51.0301 63.5218L51.252 59.528ZM50.1 59.48L49.9263 63.4762L50.0131 63.48H50.1V59.48ZM48.468 58.568L44.9714 60.5106L45.0116 60.5831L45.0549 60.6538L48.468 58.568ZM48.468 54.68L45.0549 52.5942L45.0373 52.6229L45.0203 52.6519L48.468 54.68ZM50.1 53.672L50.6174 57.6384L50.6218 57.6378L50.1 53.672ZM53.46 53.384L53.702 57.3767C54.696 57.3164 55.6698 57.2421 56.3085 57.1143L55.524 53.192L54.7395 49.2697C54.797 49.2582 54.7202 49.2752 54.3975 49.3052C54.1124 49.3317 53.723 49.3607 53.218 49.3913L53.46 53.384ZM55.524 53.192L55.8997 57.1743C58.1466 56.9623 60.355 56.2631 62.1277 54.7268L59.508 51.704L56.8883 48.6812C56.741 48.8089 56.2934 49.1017 55.1483 49.2097L55.524 53.192ZM59.508 51.704L62.1277 54.7268C64.0288 53.0791 64.9872 50.8113 64.7922 48.2772L60.804 48.584L56.8158 48.8908C56.8189 48.9307 56.8149 48.9308 56.8194 48.8998C56.8242 48.8672 56.8357 48.8193 56.858 48.7656C56.8803 48.712 56.9044 48.674 56.9192 48.6542C56.9328 48.6358 56.9284 48.6465 56.8883 48.6812L59.508 51.704ZM60.804 48.584L64.7959 48.3292C64.6224 45.6119 63.3206 43.2628 60.9072 41.802L58.836 45.224L56.7648 48.646C56.8193 48.679 56.834 48.6958 56.8267 48.6885C56.8182 48.6801 56.8025 48.6616 56.7885 48.6376C56.7748 48.6143 56.7753 48.6072 56.7818 48.63C56.7889 48.6547 56.8046 48.7203 56.8121 48.8388L60.804 48.584ZM58.836 45.224L60.972 41.842C58.7999 40.4702 56.3265 40.127 53.867 40.44L54.372 44.408L54.877 48.376C55.9375 48.241 56.4401 48.4418 56.7 48.606L58.836 45.224ZM54.372 44.408L53.8502 40.4422C51.938 40.6938 50.1724 41.4229 48.665 42.6611L51.204 45.752L53.743 48.8429C54.0276 48.6091 54.374 48.4422 54.8938 48.3738L54.372 44.408ZM51.204 45.752L48.6101 42.707C47.3272 43.7999 46.2921 45.1329 45.6359 46.7186L49.332 48.248L53.0281 49.7774C53.1399 49.5071 53.3528 49.1761 53.7979 48.797L51.204 45.752ZM49.332 48.248L45.5867 46.8435C45.6289 46.7309 45.7035 46.5844 45.8245 46.4332C45.9462 46.2811 46.0826 46.1645 46.209 46.0833L48.372 49.448L50.535 52.8127C51.7284 52.0456 52.5915 50.9481 53.0773 49.6525L49.332 48.248ZM48.372 49.448L46.0952 46.1592C46.0925 46.1611 46.0746 46.1752 46.0099 46.1914L46.98 50.072L47.9501 53.9526C48.9094 53.7128 49.8195 53.3109 50.6488 52.7368L48.372 49.448ZM46.98 50.072L46.0099 46.1914C45.9217 46.2135 45.7822 46.234 45.5699 46.2222L45.348 50.216L45.1261 54.2098C46.0658 54.262 47.0143 54.1865 47.9501 53.9526L46.98 50.072ZM45.348 50.216L45.5699 46.2222C45.2245 46.203 44.9719 46.1583 44.7947 46.1111L43.764 49.976L42.7333 53.8409C43.5161 54.0497 44.3195 54.165 45.1261 54.2098L45.348 50.216ZM43.764 49.976L44.9134 46.1447C44.8078 46.113 44.7687 46.0913 44.7766 46.0955C44.7864 46.1007 44.847 46.1345 44.9309 46.2114L42.228 49.16L39.5251 52.1086C40.4611 52.9666 41.5547 53.4893 42.6146 53.8073L43.764 49.976ZM42.228 49.16L44.9309 46.2114C44.9729 46.2499 45.0288 46.3108 45.0839 46.395C45.1393 46.4797 45.1801 46.5671 45.2067 46.6471L41.412 47.912L37.6173 49.1769C37.9988 50.3214 38.6554 51.3114 39.5251 52.1086L42.228 49.16ZM41.412 47.912L45.2067 46.6471C45.2247 46.7009 45.2346 46.7523 45.2385 46.7946C45.2424 46.836 45.2393 46.8543 45.2406 46.8434L41.268 46.376L37.2954 45.9086C37.1685 46.9872 37.2565 48.0946 37.6173 49.1769L41.412 47.912ZM41.268 46.376L45.2435 46.8177C45.2656 46.619 45.3149 46.4226 45.3987 46.219L41.7 44.696L38.0013 43.173C37.6371 44.0574 37.3984 44.981 37.2925 45.9343L41.268 46.376ZM41.7 44.696L45.4453 46.1005C45.488 45.9867 45.6531 45.6521 46.1695 45.1141L43.284 42.344L40.3985 39.5739C39.3789 40.6359 38.488 41.8693 37.9547 43.2915L41.7 44.696ZM43.284 42.344L46.1673 45.1164C46.6928 44.57 47.3659 44.0316 48.222 43.518L46.164 40.088L44.106 36.658C42.7221 37.4884 41.4752 38.454 40.4007 39.5716L43.284 42.344ZM46.164 40.088L48.2498 43.5011C49.0899 42.9877 50.0789 42.5408 51.2403 42.1794L50.052 38.36L48.8637 34.5406C47.1451 35.0752 45.5421 35.7803 44.0782 36.6749L46.164 40.088ZM50.052 38.36L51.2166 42.1867C52.3276 41.8486 53.5677 41.6415 54.9548 41.5892L54.804 37.592L54.6532 33.5948C52.6483 33.6705 50.7204 33.9754 48.8874 34.5333L50.052 38.36ZM54.804 37.592L54.873 41.5914C56.3351 41.5662 57.6728 41.7552 58.9077 42.1351L60.084 38.312L61.2603 34.4889C59.1672 33.8448 56.9849 33.5538 54.735 33.5926L54.804 37.592ZM60.084 38.312L58.9947 42.1608C60.2848 42.5259 61.3037 43.0319 62.1132 43.6338L64.5 40.424L66.8868 37.2141C65.2003 35.9601 63.2752 35.0581 61.1733 34.4632L60.084 38.312ZM64.5 40.424L62.2062 43.7009C63.055 44.2951 63.6553 44.9542 64.0785 45.6719L67.524 43.64L70.9695 41.6081C69.9207 39.8298 68.505 38.3449 66.7938 37.1471L64.5 40.424ZM67.524 43.64L64.0785 45.6719C64.4538 46.3083 64.628 46.9513 64.628 47.672H68.628H72.628C72.628 45.5127 72.0662 43.4677 70.9695 41.6081L67.524 43.64ZM68.628 47.672H64.628C64.628 49.2534 64.2258 50.1055 63.7767 50.6255L66.804 53.24L69.8313 55.8545C71.8142 53.5585 72.628 50.6986 72.628 47.672H68.628ZM66.804 53.24L63.7426 50.6656C63.1535 51.3661 62.2996 51.9452 60.9619 52.3061L62.004 56.168L63.0461 60.0299C65.7404 59.3028 68.0865 57.9299 69.8654 55.8144L66.804 53.24ZM62.004 56.168L61.5001 60.1361C62.7446 60.2942 63.3004 60.6958 63.6122 61.0626L66.66 58.472L69.7078 55.8814C67.8436 53.6882 65.2954 52.5538 62.5079 52.1999L62.004 56.168ZM66.66 58.472L63.683 61.1436C63.9961 61.4925 64.34 62.1232 64.34 63.464H68.34H72.34C72.34 60.6448 71.5639 57.9475 69.637 55.8004L66.66 58.472ZM68.34 63.464H64.34C64.34 64.3334 64.1565 65.0948 63.8023 65.8031L67.38 67.592L70.9577 69.3809C71.8835 67.5292 72.34 65.5386 72.34 63.464H68.34ZM67.38 67.592L63.8207 65.7667C63.4504 66.4889 62.9226 67.145 62.1827 67.741L64.692 70.856L67.2013 73.971C68.7654 72.711 70.0296 71.1911 70.9393 69.4173L67.38 67.592ZM64.692 70.856L62.1827 67.741C61.4762 68.3101 60.5469 68.8141 59.3186 69.1994L60.516 73.016L61.7134 76.8326C63.7491 76.1939 65.6038 75.2579 67.2013 73.971L64.692 70.856ZM60.516 73.016L59.2511 69.2213C58.0778 69.6124 56.7191 69.832 55.14 69.832V73.832V77.832C57.4649 77.832 59.6902 77.5076 61.7809 76.8107L60.516 73.016ZM55.14 73.832V69.832C53.394 69.832 51.9092 69.6514 50.656 69.3319L49.668 73.208L48.68 77.0841C50.6908 77.5966 52.854 77.832 55.14 77.832V73.832ZM49.668 73.208L50.6745 69.3367C49.3729 68.9983 48.3772 68.5741 47.6258 68.1149L45.54 71.528L43.4542 74.9411C45.0068 75.8899 46.7631 76.5857 48.6615 77.0793L49.668 73.208ZM45.54 71.528L47.6687 68.1415C46.9432 67.6854 46.5319 67.2513 46.2938 66.8879L42.948 69.08L39.6022 71.2721C40.5801 72.7647 41.8968 73.9626 43.4113 74.9145L45.54 71.528ZM42.948 69.08L46.3273 66.9398C46.0788 66.5474 46.036 66.2886 46.036 66.104H42.036H38.036C38.036 67.9674 38.6012 69.6926 39.5687 71.2202L42.948 69.08ZM42.036 66.104H46.036C46.036 66.0558 46.0409 66.0343 46.0416 66.0314C46.0421 66.0291 46.0424 66.0282 46.0425 66.0279C46.0427 66.0275 46.0435 66.0254 46.0457 66.0209L42.468 64.232L38.8903 62.4431C38.3124 63.5989 38.036 64.8388 38.036 66.104H42.036ZM42.468 64.232L45.9646 66.1746C45.9143 66.2651 45.8393 66.3633 45.7439 66.4492C45.6505 66.5332 45.5744 66.5724 45.5495 66.5837L43.908 62.936L42.2665 59.2883C40.8951 59.9055 39.738 60.9095 38.9714 62.2894L42.468 64.232ZM43.908 62.936L45.6969 66.5137C45.7997 66.4623 45.9012 66.4261 46.0074 66.4016L45.108 62.504L44.2086 58.6064C43.4828 58.7739 42.7843 59.0257 42.1191 59.3583L43.908 62.936ZM45.108 62.504L45.9461 66.4152C46.0014 66.4034 46.0401 66.3988 46.0635 66.3971C46.0866 66.3954 46.0971 66.3962 46.0972 66.3962L46.404 62.408L46.7108 58.4198C45.8759 58.3556 45.0573 58.4241 44.2699 58.5928L45.108 62.504ZM46.404 62.408L46.119 66.3978C46.0645 66.3939 45.8969 66.3692 45.6886 66.2556L47.604 62.744L49.5194 59.2324C48.6071 58.7348 47.6395 58.4861 46.689 58.4182L46.404 62.408ZM47.604 62.744L45.9488 66.3855C45.7612 66.3002 45.5831 66.1848 45.4265 66.0456C45.2717 65.908 45.1639 65.7704 45.0934 65.6595L48.468 63.512L51.8426 61.3645C51.2368 60.4124 50.3731 59.6089 49.2592 59.1025L47.604 62.744ZM48.468 63.512L45.0225 65.5439C46.1246 67.4127 47.6705 68.9123 49.678 69.8347L51.348 66.2L53.018 62.5653C52.6575 62.3997 52.2834 62.1073 51.9135 61.4801L48.468 63.512ZM51.348 66.2L49.7604 69.8714C51.5205 70.6326 53.4458 70.9752 55.444 71.0152L55.524 67.016L55.604 63.0168C54.4022 62.9928 53.5435 62.7914 52.9356 62.5286L51.348 66.2ZM55.524 67.016V71.016C56.5312 71.016 57.5328 70.9015 58.51 70.6443L57.492 66.776L56.474 62.9077C56.2352 62.9705 55.9248 63.016 55.524 63.016V67.016ZM57.492 66.776L58.51 70.6443C59.5214 70.3781 60.5062 69.95 61.401 69.3109L59.076 66.056L56.751 62.8011C56.7498 62.802 56.6786 62.8539 56.474 62.9077L57.492 66.776ZM59.076 66.056L61.5473 69.2013C62.4107 68.5229 63.1318 67.6833 63.6614 66.6903L60.132 64.808L56.6026 62.9256C56.6049 62.9212 56.6082 62.9158 56.6121 62.91C56.616 62.9042 56.6197 62.8995 56.6225 62.8962C56.6252 62.893 56.626 62.8924 56.6239 62.8945C56.6217 62.8965 56.6157 62.9021 56.6047 62.9107L59.076 66.056ZM60.132 64.808L63.6614 66.6904C64.2613 65.5655 64.516 64.3621 64.516 63.176H60.516H56.516C56.516 63.1983 56.5138 63.1771 56.5263 63.1238C56.5393 63.0686 56.5635 62.9989 56.6026 62.9256L60.132 64.808ZM60.516 63.176L64.513 63.0223C64.4214 60.6406 63.084 58.8879 61.5529 57.7538L59.172 60.968L56.7911 64.1822C56.9071 64.2682 56.8416 64.2479 56.7392 64.0798C56.6217 63.8868 56.5301 63.619 56.519 63.3297L60.516 63.176ZM59.172 60.968L61.6853 57.8562C60.1402 56.6083 58.3184 55.9787 56.4148 55.8284L56.1 59.816L55.7852 63.8036C56.3136 63.8453 56.5398 63.9837 56.6587 64.0798L59.172 60.968ZM56.1 59.816V55.816C56.1024 55.816 56.0824 55.816 56.0311 55.8145C55.9825 55.8132 55.9177 55.8109 55.8345 55.8075C55.6676 55.8005 55.4476 55.7896 55.1699 55.7742L54.948 59.768L54.7261 63.7618C55.2835 63.7928 55.7784 63.816 56.1 63.816V59.816ZM54.948 59.768L55.1699 55.7742C54.5818 55.7415 53.9471 55.7089 53.2663 55.6765L53.076 59.672L52.8857 63.6675C53.5489 63.699 54.1622 63.7305 54.7261 63.7618L54.948 59.768ZM53.076 59.672L53.474 55.6919C52.782 55.6226 52.1149 55.5698 51.4739 55.5342L51.252 59.528L51.0301 63.5218C51.5411 63.5502 52.09 63.5934 52.678 63.6521L53.076 59.672ZM51.252 59.528L51.4739 55.5342C50.9165 55.5032 50.4216 55.48 50.1 55.48V59.48V63.48C50.0976 63.48 50.1176 63.48 50.1689 63.4815C50.2175 63.4828 50.2823 63.4851 50.3655 63.4885C50.5324 63.4955 50.7524 63.5064 51.0301 63.5218L51.252 59.528ZM50.1 59.48L50.2737 55.4838C50.4165 55.49 50.7274 55.5329 51.0913 55.7362C51.4686 55.9471 51.7294 56.234 51.8811 56.4822L48.468 58.568L45.0549 60.6538C46.173 62.4834 48.0032 63.3926 49.9263 63.4762L50.1 59.48ZM48.468 58.568L51.9646 56.6254C51.9727 56.64 51.9797 56.6549 51.9851 56.6689C51.9905 56.6828 51.9932 56.6924 51.9941 56.6962C51.995 56.6998 51.9935 56.6951 51.9918 56.6802C51.9901 56.6653 51.988 56.639 51.988 56.6H47.988H43.988C43.988 57.9347 44.284 59.2733 44.9714 60.5106L48.468 58.568ZM47.988 56.6H51.988C51.988 56.5219 51.9964 56.5067 51.9886 56.5381C51.9847 56.5536 51.9775 56.578 51.965 56.6088C51.9524 56.6398 51.9361 56.6735 51.9157 56.7081L48.468 54.68L45.0203 52.6519C44.2824 53.9063 43.988 55.2707 43.988 56.6H47.988ZM48.468 54.68L51.8811 56.7658C51.7484 56.9831 51.5342 57.2187 51.242 57.3992C50.9601 57.5733 50.7217 57.6248 50.6174 57.6384L50.1 53.672L49.5826 49.7056C47.7827 49.9404 46.1062 50.8739 45.0549 52.5942L48.468 54.68ZM50.1 53.672L50.6218 57.6378C51.7309 57.4919 52.7165 57.4092 53.5849 57.382L53.46 53.384L53.3351 49.386C52.1555 49.4228 50.9011 49.5321 49.5782 49.7062L50.1 53.672Z" fill="#00BCA0" mask="url(#path-49-outside-1_2944_11230)"/>
<path d="M25 100.453L39.3672 97.2461L41.9328 108.278L27.8221 111.1L29.618 105.071L25 100.453Z" fill="#00DDBD"/>
<path d="M86.062 100.453L71.6948 97.2461L69.1292 108.278L83.2399 111.1L81.444 105.071L86.062 100.453Z" fill="#00DDBD"/>
<path d="M69.1284 108.277L69.8981 102.633L77.21 103.982L69.1284 108.277Z" fill="#17F0D1"/>
<path d="M79.393 93.2687C60.9281 88.8315 50.4757 88.9901 31.6733 93.2687L33.9824 104.044C50.8652 101.134 60.3294 100.845 77.2123 104.044L79.393 93.2687Z" fill="#26FFDF"/>
<path d="M41.9328 108.277L41.1631 102.89L33.9795 104.044L41.9328 108.277Z" fill="#17F0D1"/>
<defs>
<linearGradient id="paint0_linear_2944_11230" x1="21" y1="-10.999" x2="101" y2="127.001" gradientUnits="userSpaceOnUse">
<stop stop-color="#00E3C2"/>
<stop offset="1" stop-color="#00FFDA"/>
</linearGradient>
<radialGradient id="paint1_radial_2944_11230" cx="0" cy="0" r="1" gradientUnits="userSpaceOnUse" gradientTransform="translate(55.3882 16.499) scale(15 9.24166)">
<stop stop-color="white" stop-opacity="0.22"/>
<stop offset="1" stop-color="white" stop-opacity="0"/>
</radialGradient>
<linearGradient id="paint2_linear_2944_11230" x1="57.5" y1="9.50098" x2="199" y2="119.001" gradientUnits="userSpaceOnUse">
<stop stop-color="#00FFDA"/>
<stop offset="1" stop-color="#00B99E"/>
</linearGradient>
<linearGradient id="paint3_linear_2944_11230" x1="53" y1="102.001" x2="-24" y2="46.001" gradientUnits="userSpaceOnUse">
<stop stop-color="#00B99E"/>
<stop offset="1" stop-color="#00FFDA"/>
</linearGradient>
<linearGradient id="paint4_linear_2944_11230" x1="221.5" y1="-64" x2="7.49999" y2="78" gradientUnits="userSpaceOnUse">
<stop stop-color="white" stop-opacity="0.82"/>
<stop offset="1" stop-color="white" stop-opacity="0"/>
</linearGradient>
<linearGradient id="paint5_linear_2944_11230" x1="50" y1="135" x2="113.5" y2="5.00004" gradientUnits="userSpaceOnUse">
<stop stop-color="white" stop-opacity="0.38"/>
<stop offset="1" stop-color="white" stop-opacity="0"/>
</linearGradient>
<radialGradient id="paint6_radial_2944_11230" cx="0" cy="0" r="1" gradientTransform="matrix(-7.5 11.5 -5.69734 -3.97355 82 74)" gradientUnits="userSpaceOnUse">
<stop stop-color="white" stop-opacity="0.1"/>
<stop offset="1" stop-color="white" stop-opacity="0"/>
</radialGradient>
<radialGradient id="paint7_radial_2944_11230" cx="0" cy="0" r="1" gradientTransform="matrix(13.6949 0.974209 -0.70811 6.90995 52.5791 7.76859)" gradientUnits="userSpaceOnUse">
<stop stop-color="white" stop-opacity="0.1"/>
<stop offset="1" stop-color="white" stop-opacity="0"/>
</radialGradient>
<radialGradient id="paint8_radial_2944_11230" cx="0" cy="0" r="1" gradientTransform="matrix(7.23796 -11.6667 5.78576 3.84367 87.7591 37.7097)" gradientUnits="userSpaceOnUse">
<stop stop-color="white" stop-opacity="0.1"/>
<stop offset="1" stop-color="white" stop-opacity="0"/>
</radialGradient>
<radialGradient id="paint9_radial_2944_11230" cx="0" cy="0" r="1" gradientUnits="userSpaceOnUse" gradientTransform="translate(54.5435 15.5) rotate(90) scale(15.5)">
<stop stop-color="#FFE86C"/>
<stop offset="1" stop-color="#FF9900"/>
</radialGradient>
<radialGradient id="paint10_radial_2944_11230" cx="0" cy="0" r="1" gradientUnits="userSpaceOnUse" gradientTransform="translate(54.5438 15.4999) rotate(90) scale(12.0556)">
<stop stop-color="#FFF5BC"/>
<stop offset="0.765" stop-color="#FFA800"/>
</radialGradient>
<radialGradient id="paint11_radial_2944_11230" cx="0" cy="0" r="1" gradientUnits="userSpaceOnUse" gradientTransform="translate(60.2772 11.7116) rotate(99.6063) scale(1.44947 3.82265)">
<stop stop-color="white"/>
<stop offset="0.84" stop-color="white" stop-opacity="0"/>
</radialGradient>
<radialGradient id="paint12_radial_2944_11230" cx="0" cy="0" r="1" gradientUnits="userSpaceOnUse" gradientTransform="translate(64.9281 12.0214) rotate(99.6063) scale(1.44947 1.5536)">
<stop stop-color="white"/>
<stop offset="0.84" stop-color="white" stop-opacity="0"/>
</radialGradient>
<radialGradient id="paint13_radial_2944_11230" cx="0" cy="0" r="1" gradientUnits="userSpaceOnUse" gradientTransform="translate(49.8176 10.3552) rotate(79.8213) scale(0.996465 2.36873)">
<stop stop-color="white"/>
<stop offset="0.84" stop-color="white" stop-opacity="0"/>
</radialGradient>
<radialGradient id="paint14_radial_2944_11230" cx="0" cy="0" r="1" gradientUnits="userSpaceOnUse" gradientTransform="translate(52.61 22.7388) rotate(59.0688) scale(0.996465 2.36873)">
<stop stop-color="white"/>
<stop offset="0.84" stop-color="white" stop-opacity="0"/>
</radialGradient>
<radialGradient id="paint15_radial_2944_11230" cx="0" cy="0" r="1" gradientUnits="userSpaceOnUse" gradientTransform="translate(60.6924 21.2874) rotate(165.501) scale(1.44947 3.82265)">
<stop stop-color="white"/>
<stop offset="0.84" stop-color="white" stop-opacity="0"/>
</radialGradient>
<radialGradient id="paint16_radial_2944_11230" cx="0" cy="0" r="1" gradientUnits="userSpaceOnUse" gradientTransform="translate(57.1355 9.58702) rotate(154.854) scale(1.44947 3.82265)">
<stop stop-color="white"/>
<stop offset="0.84" stop-color="white" stop-opacity="0"/>
</radialGradient>
<radialGradient id="paint17_radial_2944_11230" cx="0" cy="0" r="1" gradientUnits="userSpaceOnUse" gradientTransform="translate(39.7964 19.6226) rotate(90) scale(4.79643)">
<stop stop-color="#FFE86C"/>
<stop offset="1" stop-color="#FF9900"/>
</radialGradient>
<radialGradient id="paint18_radial_2944_11230" cx="0" cy="0" r="1" gradientUnits="userSpaceOnUse" gradientTransform="translate(39.797 19.6231) rotate(90) scale(3.73056)">
<stop stop-color="#FFF5BC"/>
<stop offset="0.765" stop-color="#FFA800"/>
</radialGradient>
<radialGradient id="paint19_radial_2944_11230" cx="0" cy="0" r="1" gradientUnits="userSpaceOnUse" gradientTransform="translate(41.5705 18.4502) rotate(99.6063) scale(0.448533 1.18291)">
<stop stop-color="white"/>
<stop offset="0.84" stop-color="white" stop-opacity="0"/>
</radialGradient>
<radialGradient id="paint20_radial_2944_11230" cx="0" cy="0" r="1" gradientUnits="userSpaceOnUse" gradientTransform="translate(43.0095 18.5459) rotate(99.6063) scale(0.448533 0.480756)">
<stop stop-color="white"/>
<stop offset="0.84" stop-color="white" stop-opacity="0"/>
</radialGradient>
<radialGradient id="paint21_radial_2944_11230" cx="0" cy="0" r="1" gradientUnits="userSpaceOnUse" gradientTransform="translate(38.3341 18.0304) rotate(79.8213) scale(0.308353 0.732996)">
<stop stop-color="white"/>
<stop offset="0.84" stop-color="white" stop-opacity="0"/>
</radialGradient>
<radialGradient id="paint22_radial_2944_11230" cx="0" cy="0" r="1" gradientUnits="userSpaceOnUse" gradientTransform="translate(39.1984 21.8623) rotate(59.0688) scale(0.308353 0.732996)">
<stop stop-color="white"/>
<stop offset="0.84" stop-color="white" stop-opacity="0"/>
</radialGradient>
<radialGradient id="paint23_radial_2944_11230" cx="0" cy="0" r="1" gradientUnits="userSpaceOnUse" gradientTransform="translate(41.6993 21.4138) rotate(165.501) scale(0.448533 1.18291)">
<stop stop-color="white"/>
<stop offset="0.84" stop-color="white" stop-opacity="0"/>
</radialGradient>
<radialGradient id="paint24_radial_2944_11230" cx="0" cy="0" r="1" gradientUnits="userSpaceOnUse" gradientTransform="translate(40.5986 17.7926) rotate(154.854) scale(0.448533 1.18291)">
<stop stop-color="white"/>
<stop offset="0.84" stop-color="white" stop-opacity="0"/>
</radialGradient>
<radialGradient id="paint25_radial_2944_11230" cx="0" cy="0" r="1" gradientUnits="userSpaceOnUse" gradientTransform="translate(69.4488 19.6226) rotate(90) scale(4.79643)">
<stop stop-color="#FFE86C"/>
<stop offset="1" stop-color="#FF9900"/>
</radialGradient>
<radialGradient id="paint26_radial_2944_11230" cx="0" cy="0" r="1" gradientUnits="userSpaceOnUse" gradientTransform="translate(69.4493 19.6231) rotate(90) scale(3.73056)">
<stop stop-color="#FFF5BC"/>
<stop offset="0.765" stop-color="#FFA800"/>
</radialGradient>
<radialGradient id="paint27_radial_2944_11230" cx="0" cy="0" r="1" gradientUnits="userSpaceOnUse" gradientTransform="translate(71.2228 18.4502) rotate(99.6063) scale(0.448533 1.18291)">
<stop stop-color="white"/>
<stop offset="0.84" stop-color="white" stop-opacity="0"/>
</radialGradient>
<radialGradient id="paint28_radial_2944_11230" cx="0" cy="0" r="1" gradientUnits="userSpaceOnUse" gradientTransform="translate(72.6623 18.5459) rotate(99.6063) scale(0.448533 0.480756)">
<stop stop-color="white"/>
<stop offset="0.84" stop-color="white" stop-opacity="0"/>
</radialGradient>
<radialGradient id="paint29_radial_2944_11230" cx="0" cy="0" r="1" gradientUnits="userSpaceOnUse" gradientTransform="translate(67.9869 18.0304) rotate(79.8213) scale(0.308353 0.732996)">
<stop stop-color="white"/>
<stop offset="0.84" stop-color="white" stop-opacity="0"/>
</radialGradient>
<radialGradient id="paint30_radial_2944_11230" cx="0" cy="0" r="1" gradientUnits="userSpaceOnUse" gradientTransform="translate(68.8507 21.8623) rotate(59.0688) scale(0.308353 0.732996)">
<stop stop-color="white"/>
<stop offset="0.84" stop-color="white" stop-opacity="0"/>
</radialGradient>
<radialGradient id="paint31_radial_2944_11230" cx="0" cy="0" r="1" gradientUnits="userSpaceOnUse" gradientTransform="translate(71.3516 21.4138) rotate(165.501) scale(0.448533 1.18291)">
<stop stop-color="white"/>
<stop offset="0.84" stop-color="white" stop-opacity="0"/>
</radialGradient>
<radialGradient id="paint32_radial_2944_11230" cx="0" cy="0" r="1" gradientUnits="userSpaceOnUse" gradientTransform="translate(70.2509 17.7926) rotate(154.854) scale(0.448533 1.18291)">
<stop stop-color="white"/>
<stop offset="0.84" stop-color="white" stop-opacity="0"/>
</radialGradient>
</defs>
</svg>
