<svg width="165" height="220" viewBox="0 0 165 220" fill="none" xmlns="http://www.w3.org/2000/svg">
<path d="M81.1879 7.9043L151.343 59.2754V162.018L81.1879 213.389L11.0327 162.018V59.2754L81.1879 7.9043Z" fill="#B3B3B3"/>
<path d="M81.1883 25.6865L139.366 68.1665V153.126L81.1883 195.606L23.0108 153.126V68.1665L81.1883 25.6865Z" fill="url(#paint0_linear_3576_6726)"/>
<path d="M22.9017 68.1675L11.0469 59.2764V162.019L22.9017 153.127V68.1675Z" fill="#D2D2D2"/>
<path d="M139.473 68.1675L151.328 59.2764V162.019L139.473 153.127V68.1675Z" fill="#B3B3B3"/>
<path d="M81.1865 25.6866V7.9043L151.328 59.2754L139.473 68.1665L81.1865 25.6866Z" fill="url(#paint1_linear_3576_6726)"/>
<path d="M81.1865 195.609V213.391L11.0452 162.02L22.9001 153.129L81.1865 195.609Z" fill="url(#paint2_linear_3576_6726)"/>
<path d="M117.74 52.3604L22.9014 122.502V153.127L139.474 68.1668L117.74 52.3604Z" fill="url(#paint3_linear_3576_6726)"/>
<path d="M44.6347 168.933L36.7314 163.005L139.474 84.9609V94.84L44.6347 168.933Z" fill="url(#paint4_linear_3576_6726)"/>
<path d="M139.475 153.127L117.742 168.933C110.064 139.045 128.964 123.879 139.475 120.526L139.475 153.127Z" fill="url(#paint5_radial_3576_6726)"/>
<path d="M80.0529 7.6735L104.423 19.0009C82.0193 40.2229 59.5852 31.0616 51.5512 23.4998L80.0529 7.6735Z" fill="url(#paint6_radial_3576_6726)"/>
<path d="M81.4445 25.6874L104.166 42.4816C81.7625 63.7035 61.8171 53.0073 53.7831 45.4455L81.4445 25.6874Z" fill="url(#paint7_radial_3576_6726)"/>
<path d="M139.476 68.1675L162.191 51.4134C170.543 81.1207 149.908 95.202 139.475 98.7918L139.476 68.1675Z" fill="url(#paint8_radial_3576_6726)"/>
<mask id="path-13-outside-1_3576_6726" maskUnits="userSpaceOnUse" x="47.7695" y="70.0103" width="71" height="88" fill="black">
<rect fill="white" x="47.7695" y="70.0103" width="71" height="88"/>
<path d="M80.376 109.204C82.4625 109.078 83.8219 108.951 84.4541 108.825C87.8051 108.509 90.429 107.529 92.3257 105.885C94.2225 104.241 95.0761 102.186 94.8864 99.7205C94.6967 96.7489 93.4006 94.536 90.998 93.0818C88.5954 91.5643 85.6554 91.0269 82.178 91.4695C79.7754 91.7856 77.6889 92.6708 75.9186 94.125C74.2115 95.5792 72.9786 97.2231 72.2199 99.0566C71.8405 100.068 71.2083 100.859 70.3231 101.428C69.5012 101.997 68.5844 102.408 67.5728 102.66C66.5612 102.913 65.4863 103.008 64.3483 102.945C63.2102 102.882 62.167 102.724 61.2186 102.471C59.9541 102.091 58.9424 101.554 58.1837 100.859C57.425 100.163 56.8876 99.3411 56.5715 98.3927C56.2553 97.4443 56.1605 96.4327 56.287 95.3579C56.4134 94.2198 56.6979 93.1134 57.1405 92.0385C57.7095 90.5211 58.7528 88.9721 60.2702 87.3914C61.8508 85.7475 63.7476 84.2617 65.9605 82.934C68.2367 81.543 70.7973 80.405 73.6425 79.5198C76.5509 78.6346 79.6806 78.1288 83.0315 78.0024C86.6986 77.9391 90.1761 78.4133 93.4638 79.4249C96.8148 80.3733 99.7232 81.7643 102.189 83.5979C104.718 85.3682 106.71 87.4863 108.164 89.9521C109.618 92.4179 110.345 95.0734 110.345 97.9185C110.345 102.471 109.144 106.138 106.741 108.92C104.402 111.702 101.241 113.63 97.2574 114.705C101.241 115.211 104.307 116.728 106.457 119.257C108.67 121.723 109.776 125.011 109.776 129.121C109.776 132.029 109.144 134.748 107.879 137.277C106.615 139.743 104.844 141.892 102.568 143.726C100.292 145.559 97.5419 146.982 94.3174 147.993C91.0928 149.068 87.5522 149.606 83.6954 149.606C79.7122 149.606 76.1083 149.195 72.8838 148.373C69.7225 147.551 67.0038 146.444 64.7276 145.053C62.5147 143.663 60.8076 142.05 59.6063 140.217C58.405 138.32 57.8044 136.36 57.8044 134.337C57.8044 133.009 58.0889 131.776 58.6579 130.638C59.2902 129.5 60.2386 128.646 61.5031 128.077C62.2618 127.698 63.0521 127.413 63.8741 127.224C64.7592 127.034 65.6128 126.971 66.4347 127.034C67.3199 127.097 68.1102 127.319 68.8057 127.698C69.5012 128.014 70.0702 128.52 70.5128 129.215C71.967 131.681 73.8638 133.452 76.2031 134.526C78.5425 135.538 81.2928 136.075 84.4541 136.139C85.8451 136.139 87.1412 135.981 88.3425 135.664C89.5438 135.348 90.587 134.874 91.4722 134.242C92.3574 133.546 93.0528 132.724 93.5587 131.776C94.0645 130.828 94.3174 129.753 94.3174 128.552C94.2541 126.908 93.369 125.453 91.6619 124.189C90.018 122.861 87.9948 122.102 85.5922 121.913C85.2128 121.913 84.4541 121.881 83.316 121.818C82.178 121.755 80.9451 121.691 79.6173 121.628C78.3528 121.502 77.1515 121.407 76.0135 121.344C74.8754 121.281 74.1167 121.249 73.7373 121.249C72.2831 121.186 71.2083 120.585 70.5128 119.447C69.8805 118.309 69.5644 117.013 69.5644 115.559C69.5644 114.104 69.8805 112.84 70.5128 111.765C71.2083 110.627 72.2831 109.963 73.7373 109.773C76.1399 109.457 78.3528 109.268 80.376 109.204Z"/>
</mask>
<path d="M80.376 109.204C82.4625 109.078 83.8219 108.951 84.4541 108.825C87.8051 108.509 90.429 107.529 92.3257 105.885C94.2225 104.241 95.0761 102.186 94.8864 99.7205C94.6967 96.7489 93.4006 94.536 90.998 93.0818C88.5954 91.5643 85.6554 91.0269 82.178 91.4695C79.7754 91.7856 77.6889 92.6708 75.9186 94.125C74.2115 95.5792 72.9786 97.2231 72.2199 99.0566C71.8405 100.068 71.2083 100.859 70.3231 101.428C69.5012 101.997 68.5844 102.408 67.5728 102.66C66.5612 102.913 65.4863 103.008 64.3483 102.945C63.2102 102.882 62.167 102.724 61.2186 102.471C59.9541 102.091 58.9424 101.554 58.1837 100.859C57.425 100.163 56.8876 99.3411 56.5715 98.3927C56.2553 97.4443 56.1605 96.4327 56.287 95.3579C56.4134 94.2198 56.6979 93.1134 57.1405 92.0385C57.7095 90.5211 58.7528 88.9721 60.2702 87.3914C61.8508 85.7475 63.7476 84.2617 65.9605 82.934C68.2367 81.543 70.7973 80.405 73.6425 79.5198C76.5509 78.6346 79.6806 78.1288 83.0315 78.0024C86.6986 77.9391 90.1761 78.4133 93.4638 79.4249C96.8148 80.3733 99.7232 81.7643 102.189 83.5979C104.718 85.3682 106.71 87.4863 108.164 89.9521C109.618 92.4179 110.345 95.0734 110.345 97.9185C110.345 102.471 109.144 106.138 106.741 108.92C104.402 111.702 101.241 113.63 97.2574 114.705C101.241 115.211 104.307 116.728 106.457 119.257C108.67 121.723 109.776 125.011 109.776 129.121C109.776 132.029 109.144 134.748 107.879 137.277C106.615 139.743 104.844 141.892 102.568 143.726C100.292 145.559 97.5419 146.982 94.3174 147.993C91.0928 149.068 87.5522 149.606 83.6954 149.606C79.7122 149.606 76.1083 149.195 72.8838 148.373C69.7225 147.551 67.0038 146.444 64.7276 145.053C62.5147 143.663 60.8076 142.05 59.6063 140.217C58.405 138.32 57.8044 136.36 57.8044 134.337C57.8044 133.009 58.0889 131.776 58.6579 130.638C59.2902 129.5 60.2386 128.646 61.5031 128.077C62.2618 127.698 63.0521 127.413 63.8741 127.224C64.7592 127.034 65.6128 126.971 66.4347 127.034C67.3199 127.097 68.1102 127.319 68.8057 127.698C69.5012 128.014 70.0702 128.52 70.5128 129.215C71.967 131.681 73.8638 133.452 76.2031 134.526C78.5425 135.538 81.2928 136.075 84.4541 136.139C85.8451 136.139 87.1412 135.981 88.3425 135.664C89.5438 135.348 90.587 134.874 91.4722 134.242C92.3574 133.546 93.0528 132.724 93.5587 131.776C94.0645 130.828 94.3174 129.753 94.3174 128.552C94.2541 126.908 93.369 125.453 91.6619 124.189C90.018 122.861 87.9948 122.102 85.5922 121.913C85.2128 121.913 84.4541 121.881 83.316 121.818C82.178 121.755 80.9451 121.691 79.6173 121.628C78.3528 121.502 77.1515 121.407 76.0135 121.344C74.8754 121.281 74.1167 121.249 73.7373 121.249C72.2831 121.186 71.2083 120.585 70.5128 119.447C69.8805 118.309 69.5644 117.013 69.5644 115.559C69.5644 114.104 69.8805 112.84 70.5128 111.765C71.2083 110.627 72.2831 109.963 73.7373 109.773C76.1399 109.457 78.3528 109.268 80.376 109.204Z" fill="white"/>
<path d="M80.376 109.204L80.6229 117.104L80.7386 117.1L80.8541 117.093L80.376 109.204ZM84.4541 108.825L83.7118 100.957L83.3049 100.995L82.9042 101.075L84.4541 108.825ZM92.3257 105.885L97.5018 111.857L97.5018 111.857L92.3257 105.885ZM94.8864 99.7205L86.9992 100.224L87.0025 100.275L87.0064 100.327L94.8864 99.7205ZM90.998 93.0818L86.7777 99.7639L86.8413 99.804L86.9057 99.843L90.998 93.0818ZM82.178 91.4695L81.1802 83.6295L81.1636 83.6316L81.147 83.6338L82.178 91.4695ZM75.9186 94.125L70.9021 88.0179L70.8475 88.0628L70.7936 88.1087L75.9186 94.125ZM72.2199 99.0566L64.9172 96.0348L64.8664 96.1574L64.8199 96.2816L72.2199 99.0566ZM70.3231 101.428L66.0494 94.7795L65.9357 94.8526L65.8245 94.9296L70.3231 101.428ZM64.3483 102.945L64.7867 95.0539L64.7866 95.0539L64.3483 102.945ZM61.2186 102.471L58.9476 110.041L59.0644 110.076L59.1822 110.107L61.2186 102.471ZM58.1837 100.859L52.8433 106.684L52.8433 106.684L58.1837 100.859ZM56.5715 98.3927L64.0691 95.8935L64.0691 95.8935L56.5715 98.3927ZM56.287 95.3579L64.1361 96.2813L64.139 96.256L64.1419 96.2307L56.287 95.3579ZM57.1405 92.0385L64.4485 95.0477L64.4964 94.9313L64.5405 94.8135L57.1405 92.0385ZM60.2702 87.3914L54.5733 81.9136L54.5689 81.9182L60.2702 87.3914ZM65.9605 82.934L70.0267 89.711L70.0543 89.6944L70.0817 89.6777L65.9605 82.934ZM73.6425 79.5198L71.3414 71.959L71.318 71.9661L71.2947 71.9733L73.6425 79.5198ZM83.0315 78.0024L82.8953 70.1003L82.8144 70.1017L82.7335 70.1047L83.0315 78.0024ZM93.4638 79.4249L91.1396 86.9787L91.2253 87.0051L91.3116 87.0295L93.4638 79.4249ZM102.189 83.5979L97.4731 89.9399L97.564 90.0075L97.6568 90.0725L102.189 83.5979ZM108.164 89.9521L114.971 85.9373L114.971 85.9373L108.164 89.9521ZM106.741 108.92L100.76 103.754L100.726 103.794L100.692 103.833L106.741 108.92ZM97.2574 114.705L95.1984 107.075L96.2618 122.545L97.2574 114.705ZM106.457 119.257L100.435 124.376L100.504 124.457L100.575 124.536L106.457 119.257ZM107.879 137.277L114.912 140.883L114.93 140.847L114.948 140.811L107.879 137.277ZM102.568 143.726L97.6104 137.571V137.571L102.568 143.726ZM94.3174 147.993L91.9516 140.453L91.8847 140.474L91.8181 140.496L94.3174 147.993ZM72.8838 148.373L70.895 156.022L70.9133 156.027L70.9316 156.031L72.8838 148.373ZM64.7276 145.053L60.5217 151.745L60.5639 151.771L60.6065 151.797L64.7276 145.053ZM59.6063 140.217L52.9295 144.445L52.9621 144.497L52.9956 144.548L59.6063 140.217ZM58.6579 130.638L51.7492 126.8L51.6658 126.95L51.5891 127.104L58.6579 130.638ZM61.5031 128.077L64.7463 135.284L64.8933 135.218L65.0375 135.146L61.5031 128.077ZM63.8741 127.224L62.2181 119.496L62.1574 119.509L62.097 119.523L63.8741 127.224ZM66.4347 127.034L65.8286 134.914L65.8501 134.916L65.8716 134.917L66.4347 127.034ZM68.8057 127.698L65.0212 134.636L65.2736 134.774L65.5353 134.893L68.8057 127.698ZM70.5128 129.215L77.3204 125.201L77.2524 125.085L77.1805 124.972L70.5128 129.215ZM76.2031 134.526L72.9035 141.708L72.9845 141.745L73.0662 141.78L76.2031 134.526ZM84.4541 136.139L84.2961 144.04L84.3751 144.042H84.4541V136.139ZM88.3425 135.664L86.3312 128.021L86.3312 128.021L88.3425 135.664ZM91.4722 134.242L96.0659 140.673L96.2129 140.568L96.355 140.456L91.4722 134.242ZM93.5587 131.776L86.5852 128.057L86.5852 128.057L93.5587 131.776ZM94.3174 128.552H102.221V128.4L102.215 128.248L94.3174 128.552ZM91.6619 124.189L86.696 130.337L86.8247 130.441L86.9576 130.54L91.6619 124.189ZM85.5922 121.913L86.2142 114.034L85.9037 114.01H85.5922V121.913ZM83.316 121.818L83.7544 113.927H83.7544L83.316 121.818ZM79.6173 121.628L78.8309 129.492L79.0358 129.513L79.2414 129.523L79.6173 121.628ZM76.0135 121.344L75.5751 129.235L76.0135 121.344ZM73.7373 121.249L73.394 129.145L73.5656 129.152H73.7373V121.249ZM70.5128 119.447L63.6041 123.285L63.6837 123.428L63.7691 123.568L70.5128 119.447ZM70.5128 111.765L63.7691 107.644L63.7344 107.701L63.7007 107.758L70.5128 111.765ZM73.7373 109.773L74.7595 117.61L74.7683 117.609L73.7373 109.773ZM80.376 109.204L80.8541 117.093C82.8182 116.974 84.7422 116.827 86.0041 116.575L84.4541 108.825L82.9042 101.075C83.0178 101.053 82.866 101.086 82.2284 101.145C81.665 101.198 80.8957 101.255 79.8979 101.316L80.376 109.204ZM84.4541 108.825L85.1964 116.693C89.6359 116.275 93.9993 114.893 97.5018 111.857L92.3257 105.885L87.1497 99.9126C86.8586 100.165 85.9743 100.743 83.7118 100.957L84.4541 108.825ZM92.3257 105.885L97.5018 111.857C101.258 108.602 103.152 104.121 102.766 99.1143L94.8864 99.7205L87.0064 100.327C87.0125 100.406 87.0047 100.406 87.0137 100.344C87.0231 100.28 87.0458 100.185 87.0899 100.079C87.1338 99.9734 87.1816 99.8982 87.2107 99.8592C87.2376 99.8229 87.2289 99.844 87.1497 99.9126L92.3257 105.885ZM94.8864 99.7205L102.774 99.217C102.431 93.8481 99.8588 89.2067 95.0903 86.3205L90.998 93.0818L86.9057 99.843C87.0135 99.9082 87.0425 99.9413 87.0281 99.927C87.0112 99.9103 86.9802 99.8738 86.9525 99.8264C86.9254 99.7803 86.9264 99.7664 86.9393 99.8113C86.9533 99.8603 86.9843 99.9897 86.9992 100.224L94.8864 99.7205ZM90.998 93.0818L95.2183 86.3997C90.9267 83.6891 86.0397 83.011 81.1802 83.6295L82.178 91.4695L83.1758 99.3095C85.2711 99.0428 86.2642 99.4395 86.7777 99.7639L90.998 93.0818ZM82.178 91.4695L81.147 83.6338C77.3689 84.1309 73.8803 85.5715 70.9021 88.0179L75.9186 94.125L80.9351 100.232C81.4975 99.77 82.1819 99.4403 83.209 99.3052L82.178 91.4695ZM75.9186 94.125L70.7936 88.1087C68.2589 90.2679 66.2136 92.9018 64.9172 96.0348L72.2199 99.0566L79.5226 102.078C79.7436 101.544 80.1641 100.89 81.0436 100.141L75.9186 94.125ZM72.2199 99.0566L64.8199 96.2816C64.9033 96.0592 65.0507 95.7697 65.2898 95.4709C65.5303 95.1703 65.7997 94.94 66.0494 94.7795L70.3231 101.428L74.5969 108.076C76.9546 106.56 78.66 104.391 79.6199 101.832L72.2199 99.0566ZM70.3231 101.428L65.8245 94.9296C65.8192 94.9333 65.7839 94.9612 65.656 94.9932L67.5728 102.66L69.4896 110.328C71.3849 109.854 73.1832 109.06 74.8217 107.926L70.3231 101.428ZM67.5728 102.66L65.656 94.9932C65.4818 95.0367 65.2061 95.0772 64.7867 95.0539L64.3483 102.945L63.9099 110.836C65.7665 110.939 67.6405 110.79 69.4896 110.328L67.5728 102.66ZM64.3483 102.945L64.7866 95.0539C64.1043 95.016 63.6051 94.9278 63.255 94.8344L61.2186 102.471L59.1822 110.107C60.7288 110.52 62.3161 110.748 63.9099 110.836L64.3483 102.945ZM61.2186 102.471L63.4896 94.9009C63.281 94.8383 63.2036 94.7954 63.2193 94.8037C63.2387 94.814 63.3584 94.8807 63.5241 95.0326L58.1837 100.859L52.8433 106.684C54.6926 108.38 56.8534 109.412 58.9476 110.041L61.2186 102.471ZM58.1837 100.859L63.5242 95.0326C63.6071 95.1087 63.7176 95.2291 63.8264 95.3954C63.9359 95.5628 64.0164 95.7354 64.0691 95.8935L56.5715 98.3927L49.0738 100.892C49.8276 103.153 51.125 105.109 52.8433 106.684L58.1837 100.859ZM56.5715 98.3927L64.0691 95.8935C64.1046 95.9998 64.1241 96.1013 64.132 96.185C64.1396 96.2667 64.1335 96.3029 64.1361 96.2813L56.287 95.3579L48.4378 94.4345C48.1871 96.5654 48.361 98.7535 49.0738 100.892L56.5715 98.3927ZM56.287 95.3579L64.1419 96.2307C64.1855 95.8379 64.2828 95.4499 64.4485 95.0477L57.1405 92.0385L49.8325 89.0294C49.113 90.7768 48.6413 92.6017 48.432 94.4851L56.287 95.3579ZM57.1405 92.0385L64.5405 94.8135C64.6248 94.5888 64.951 93.9277 65.9715 92.8647L60.2702 87.3914L54.5689 81.9182C52.5545 84.0165 50.7942 86.4534 49.7405 89.2635L57.1405 92.0385ZM60.2702 87.3914L65.9671 92.8692C67.0053 91.7895 68.3352 90.7259 70.0267 89.711L65.9605 82.934L61.8943 76.157C59.1601 77.7976 56.6964 79.7056 54.5733 81.9136L60.2702 87.3914ZM65.9605 82.934L70.0817 89.6777C71.7416 88.6633 73.6956 87.7802 75.9903 87.0663L73.6425 79.5198L71.2947 71.9733C67.8991 73.0297 64.7317 74.4227 61.8394 76.1903L65.9605 82.934ZM73.6425 79.5198L75.9436 87.0806C78.1386 86.4126 80.5889 86.0034 83.3296 85.9L83.0315 78.0024L82.7335 70.1047C78.7722 70.2542 74.9631 70.8567 71.3414 71.959L73.6425 79.5198ZM83.0315 78.0024L83.1678 85.9044C86.0568 85.8546 88.6997 86.228 91.1396 86.9787L93.4638 79.4249L95.788 71.8712C91.6524 70.5987 87.3405 70.0237 82.8953 70.1003L83.0315 78.0024ZM93.4638 79.4249L91.3116 87.0295C93.8605 87.7509 95.8737 88.7506 97.4731 89.9399L102.189 83.5979L106.905 77.2558C103.573 74.778 99.769 72.9958 95.6161 71.8204L93.4638 79.4249ZM102.189 83.5979L97.6568 90.0725C99.3339 91.2464 100.52 92.5487 101.356 93.9668L108.164 89.9521L114.971 85.9373C112.899 82.4238 110.102 79.4899 106.721 77.1233L102.189 83.5979ZM108.164 89.9521L101.356 93.9668C102.098 95.2242 102.442 96.4946 102.442 97.9185H110.345H118.248C118.248 93.6521 117.138 89.6116 114.971 85.9373L108.164 89.9521ZM110.345 97.9185H102.442C102.442 101.043 101.647 102.727 100.76 103.754L106.741 108.92L112.723 114.086C116.64 109.549 118.248 103.899 118.248 97.9185H110.345ZM106.741 108.92L100.692 103.833C99.5286 105.217 97.8414 106.362 95.1984 107.075L97.2574 114.705L99.3163 122.335C104.64 120.899 109.275 118.186 112.79 114.006L106.741 108.92ZM97.2574 114.705L96.2618 122.545C98.7207 122.858 99.8189 123.651 100.435 124.376L106.457 119.257L112.479 114.139C108.795 109.805 103.761 107.564 98.253 106.865L97.2574 114.705ZM106.457 119.257L100.575 124.536C101.193 125.225 101.873 126.471 101.873 129.121H109.776H117.679C117.679 123.55 116.146 118.221 112.339 113.979L106.457 119.257ZM109.776 129.121H101.873C101.873 130.838 101.51 132.343 100.81 133.742L107.879 137.277L114.948 140.811C116.777 137.153 117.679 133.22 117.679 129.121H109.776ZM107.879 137.277L100.847 133.67C100.115 135.097 99.0723 136.393 97.6104 137.571L102.568 143.726L107.526 149.88C110.617 147.391 113.114 144.388 114.912 140.883L107.879 137.277ZM102.568 143.726L97.6104 137.571C96.2144 138.696 94.3784 139.691 91.9516 140.453L94.3174 147.993L96.6831 155.534C100.705 154.272 104.37 152.423 107.526 149.88L102.568 143.726ZM94.3174 147.993L91.8181 140.496C89.4999 141.269 86.8155 141.703 83.6954 141.703V149.606V157.509C88.2889 157.509 92.6858 156.868 96.8166 155.491L94.3174 147.993ZM83.6954 149.606V141.703C80.2457 141.703 77.3119 141.346 74.8359 140.714L72.8838 148.373L70.9316 156.031C74.9047 157.044 79.1786 157.509 83.6954 157.509V149.606ZM72.8838 148.373L74.8725 140.724C72.3007 140.055 70.3334 139.217 68.8488 138.31L64.7276 145.053L60.6065 151.797C63.6741 153.672 67.1443 155.047 70.895 156.022L72.8838 148.373ZM64.7276 145.053L68.9335 138.362C67.5001 137.461 66.6875 136.604 66.2171 135.886L59.6063 140.217L52.9956 144.548C54.9277 147.497 57.5294 149.864 60.5217 151.745L64.7276 145.053ZM59.6063 140.217L66.2831 135.988C65.7921 135.213 65.7076 134.701 65.7076 134.337H57.8044H49.9011C49.9011 138.018 51.0179 141.427 52.9295 144.445L59.6063 140.217ZM57.8044 134.337H65.7076C65.7076 134.242 65.7173 134.199 65.7186 134.193C65.7197 134.189 65.7203 134.187 65.7206 134.186C65.7208 134.186 65.7223 134.181 65.7268 134.172L58.6579 130.638L51.5891 127.104C50.4472 129.387 49.9011 131.837 49.9011 134.337H57.8044ZM58.6579 130.638L65.5666 134.476C65.4672 134.655 65.3189 134.849 65.1304 135.019C64.946 135.185 64.7957 135.262 64.7463 135.284L61.5031 128.077L58.2599 120.87C55.5501 122.09 53.264 124.073 51.7492 126.8L58.6579 130.638ZM61.5031 128.077L65.0375 135.146C65.2407 135.045 65.4414 134.973 65.6512 134.925L63.8741 127.224L62.097 119.523C60.6629 119.854 59.2829 120.351 57.9687 121.008L61.5031 128.077ZM63.8741 127.224L65.53 134.952C65.6393 134.928 65.7156 134.919 65.7619 134.916C65.8076 134.912 65.8284 134.914 65.8286 134.914L66.4347 127.034L67.0409 119.154C65.3912 119.027 63.7739 119.163 62.2181 119.496L63.8741 127.224ZM66.4347 127.034L65.8716 134.917C65.764 134.91 65.4328 134.861 65.0212 134.636L68.8057 127.698L72.5902 120.76C70.7876 119.777 68.8758 119.285 66.9978 119.151L66.4347 127.034ZM68.8057 127.698L65.5353 134.893C65.1647 134.724 64.8128 134.496 64.5035 134.221C64.1976 133.949 63.9845 133.677 63.8451 133.458L70.5128 129.215L77.1805 124.972C75.9834 123.091 74.277 121.504 72.0761 120.503L68.8057 127.698ZM70.5128 129.215L63.7052 133.23C65.8827 136.922 68.937 139.885 72.9035 141.708L76.2031 134.526L79.5027 127.345C78.7905 127.018 78.0512 126.44 77.3204 125.201L70.5128 129.215ZM76.2031 134.526L73.0662 141.78C76.5439 143.284 80.3479 143.961 84.2961 144.04L84.4541 136.139L84.6121 128.237C82.2377 128.189 80.541 127.792 79.34 127.272L76.2031 134.526ZM84.4541 136.139V144.042C86.4441 144.042 88.4231 143.816 90.3538 143.307L88.3425 135.664L86.3312 128.021C85.8594 128.146 85.2461 128.235 84.4541 128.235V136.139ZM88.3425 135.664L90.3538 143.307C92.3521 142.782 94.2981 141.936 96.0659 140.673L91.4722 134.242L86.8785 127.811C86.876 127.813 86.7355 127.915 86.3312 128.021L88.3425 135.664ZM91.4722 134.242L96.355 140.456C98.061 139.116 99.4858 137.457 100.532 135.495L93.5587 131.776L86.5852 128.057C86.5899 128.048 86.5962 128.037 86.604 128.026C86.6118 128.014 86.619 128.005 86.6245 127.999C86.6299 127.992 86.6314 127.991 86.6273 127.995C86.623 127.999 86.6111 128.01 86.5894 128.027L91.4722 134.242ZM93.5587 131.776L100.532 135.495C101.717 133.273 102.221 130.895 102.221 128.552H94.3174H86.4141C86.4141 128.596 86.4098 128.554 86.4345 128.448C86.4602 128.339 86.508 128.202 86.5852 128.057L93.5587 131.776ZM94.3174 128.552L102.215 128.248C102.034 123.542 99.3913 120.079 96.3661 117.838L91.6619 124.189L86.9576 130.54C87.1869 130.709 87.0574 130.669 86.8551 130.337C86.623 129.956 86.4419 129.427 86.42 128.855L94.3174 128.552ZM91.6619 124.189L96.6278 118.041C93.5749 115.575 89.9753 114.331 86.2142 114.034L85.5922 121.913L84.9702 129.792C86.0143 129.874 86.4611 130.147 86.696 130.337L91.6619 124.189ZM85.5922 121.913V114.01C85.5969 114.01 85.5573 114.009 85.456 114.007C85.36 114.004 85.232 114 85.0676 113.993C84.7379 113.979 84.3031 113.957 83.7544 113.927L83.316 121.818L82.8777 129.709C83.9789 129.77 84.9568 129.816 85.5922 129.816V121.913ZM83.316 121.818L83.7544 113.927C82.5925 113.862 81.3385 113.798 79.9932 113.734L79.6173 121.628L79.2414 129.523C80.5516 129.585 81.7635 129.647 82.8777 129.709L83.316 121.818ZM79.6173 121.628L80.4037 113.764C79.0364 113.628 77.7184 113.523 76.4518 113.453L76.0135 121.344L75.5751 129.235C76.5846 129.291 77.6693 129.376 78.8309 129.492L79.6173 121.628ZM76.0135 121.344L76.4518 113.453C75.3506 113.391 74.3727 113.346 73.7373 113.346V121.249V129.152C73.7326 129.152 73.7722 129.152 73.8735 129.155C73.9695 129.158 74.0975 129.162 74.2619 129.169C74.5916 129.183 75.0264 129.204 75.5751 129.235L76.0135 121.344ZM73.7373 121.249L74.0806 113.353C74.3626 113.365 74.977 113.45 75.6959 113.852C76.4415 114.269 76.9568 114.835 77.2565 115.326L70.5128 119.447L63.7691 123.568C65.9783 127.183 69.5945 128.979 73.394 129.145L73.7373 121.249ZM70.5128 119.447L77.4215 115.609C77.4375 115.638 77.4512 115.667 77.4619 115.695C77.4726 115.722 77.4778 115.741 77.4797 115.749C77.4814 115.756 77.4786 115.746 77.4752 115.717C77.4718 115.688 77.4676 115.636 77.4676 115.559H69.5644H61.6612C61.6612 118.196 62.246 120.84 63.6041 123.285L70.5128 119.447ZM69.5644 115.559H77.4676C77.4676 115.404 77.4843 115.374 77.4688 115.436C77.4611 115.467 77.4468 115.515 77.4221 115.576C77.3973 115.637 77.365 115.704 77.3249 115.772L70.5128 111.765L63.7007 107.758C62.2428 110.236 61.6612 112.932 61.6612 115.559H69.5644ZM70.5128 111.765L77.2565 115.886C76.9941 116.315 76.571 116.781 75.9936 117.138C75.4368 117.482 74.9657 117.583 74.7595 117.61L73.7373 109.773L72.7151 101.937C69.1588 102.4 65.8463 104.245 63.7691 107.644L70.5128 111.765ZM73.7373 109.773L74.7683 117.609C76.9596 117.321 78.907 117.157 80.6229 117.104L80.376 109.204L80.1292 101.305C77.7986 101.378 75.3202 101.594 72.7063 101.938L73.7373 109.773Z" fill="#979797" mask="url(#path-13-outside-1_3576_6726)"/>
<path d="M78.1019 40.1355C79.4937 37.4083 83.3905 37.4083 84.7823 40.1355L86.2017 42.9167C86.7465 43.9845 87.769 44.7273 88.9529 44.9156L92.0366 45.4061C95.0604 45.887 96.2646 49.5931 94.101 51.7595L91.8944 53.9689C91.0474 54.817 90.6568 56.019 90.8436 57.2031L91.3301 60.2875C91.8071 63.3119 88.6545 65.6024 85.9255 64.2141L83.1424 62.7983C82.074 62.2548 80.8102 62.2548 79.7417 62.7983L76.9587 64.2141C74.2297 65.6024 71.0771 63.3119 71.5541 60.2875L72.0406 57.2031C72.2273 56.019 71.8368 54.817 70.9897 53.9689L68.7832 51.7595C66.6195 49.5931 67.8237 45.887 70.8475 45.4061L73.9313 44.9156C75.1151 44.7273 76.1376 43.9845 76.6825 42.9167L78.1019 40.1355Z" fill="url(#paint9_radial_3576_6726)"/>
<path d="M79.7737 41.0348C80.4696 39.6712 82.418 39.6712 83.1139 41.0348L85.3866 45.4881C85.659 46.0219 86.1702 46.3934 86.7622 46.4875L91.6998 47.2728C93.2117 47.5133 93.8138 49.3663 92.732 50.4495L89.1989 53.9871C88.7754 54.4112 88.5801 55.0122 88.6735 55.6043L89.4524 60.5429C89.691 62.0551 88.1147 63.2004 86.7502 62.5062L82.2939 60.2393C81.7597 59.9675 81.1278 59.9675 80.5936 60.2393L76.1374 62.5062C74.7729 63.2004 73.1966 62.0551 73.4351 60.5429L74.2141 55.6042C74.3074 55.0122 74.1122 54.4112 73.6886 53.9871L70.1556 50.4495C69.0737 49.3663 69.6758 47.5133 71.1878 47.2728L76.1254 46.4875C76.7173 46.3934 77.2286 46.0219 77.501 45.4881L79.7737 41.0348Z" fill="url(#paint10_radial_3576_6726)"/>
<path d="M83.9134 46.9992C83.6883 45.5502 85.156 45.4459 85.9181 45.5748C86.6801 45.7038 88.7562 46.1728 90.9649 47.0169C93.7257 48.072 92.9607 49.1183 92.2925 49.5931C91.3475 50.2645 89.9097 49.7777 88.1952 49.4875C86.4807 49.1973 84.1947 48.8104 83.9134 46.9992Z" fill="url(#paint11_radial_3576_6726)"/>
<path d="M92.2012 47.8237C92.2475 46.4206 92.8785 46.1747 93.1882 46.2271C93.4979 46.2795 94.3302 46.538 95.1819 47.1524C96.2465 47.9205 95.8208 49.0242 95.4918 49.5564C95.0265 50.309 94.466 49.9706 93.7692 49.8527C93.0724 49.7348 92.1433 49.5775 92.2012 47.8237Z" fill="url(#paint12_radial_3576_6726)" fill-opacity="0.56"/>
<path d="M72.9481 46.6164C72.4963 45.7259 73.3261 45.334 73.7974 45.2494C74.2688 45.1647 75.5791 45.0105 77.0495 45.0703C78.8876 45.1452 78.6749 45.9931 78.3918 46.4487C77.9914 47.0932 77.0481 47.0948 75.9875 47.2853C74.927 47.4757 73.5129 47.7296 72.9481 46.6164Z" fill="url(#paint13_radial_3576_6726)" fill-opacity="0.5"/>
<path d="M76.6831 62.5635C75.9451 61.8908 76.5821 61.2304 76.9929 60.9842C77.4037 60.738 78.5744 60.1295 79.9706 59.6644C81.7159 59.0832 81.8174 59.9514 81.7142 60.4778C81.5681 61.2223 80.6866 61.5581 79.7623 62.112C78.838 62.6658 77.6057 63.4043 76.6831 62.5635Z" fill="url(#paint14_radial_3576_6726)" fill-opacity="0.5"/>
<path d="M87.7679 54.9713C88.9986 54.174 89.6932 55.4712 89.8867 56.2194C90.0802 56.9677 90.5001 59.0543 90.6316 61.4151C90.796 64.3661 89.5285 64.0951 88.8222 63.6791C87.8234 63.0907 87.6806 61.5795 87.2453 59.896C86.8099 58.2125 86.2295 55.9678 87.7679 54.9713Z" fill="url(#paint15_radial_3576_6726)"/>
<path d="M82.6685 41.086C83.7307 40.0751 84.6531 41.2216 84.9815 41.9212C85.3099 42.6208 86.1081 44.5939 86.6735 46.8898C87.3804 49.7596 86.0847 49.7275 85.3136 49.4491C84.2233 49.0554 83.8037 47.5966 83.0648 46.0225C82.3259 44.4484 81.3407 42.3496 82.6685 41.086Z" fill="url(#paint16_radial_3576_6726)"/>
<path d="M8.90527 194.384L43.2572 186.716L49.3914 213.093L15.653 219.841L19.947 205.425L8.90527 194.384Z" fill="#ABABAB"/>
<path d="M8.90527 194.384L43.2572 186.716L49.3914 213.093L15.653 219.841L19.947 205.425L8.90527 194.384Z" fill="black" fill-opacity="0.3"/>
<path d="M154.905 194.384L120.553 186.716L114.419 213.093L148.158 219.841L143.864 205.425L154.905 194.384Z" fill="#ABABAB"/>
<path d="M154.905 194.384L120.553 186.716L114.419 213.093L148.158 219.841L143.864 205.425L154.905 194.384Z" fill="black" fill-opacity="0.3"/>
<path d="M114.416 213.091L116.257 199.596L133.739 202.822L114.416 213.091Z" fill="#939393"/>
<path d="M114.416 213.091L116.257 199.596L133.739 202.822L114.416 213.091Z" fill="black" fill-opacity="0.3"/>
<path d="M138.96 177.206C94.8103 166.597 69.8185 166.976 24.8623 177.206L30.3831 202.97C70.7498 196.013 93.3788 195.322 133.746 202.97L138.96 177.206Z" fill="#D2D2D2"/>
<path d="M138.96 177.206C94.8103 166.597 69.8185 166.976 24.8623 177.206L30.3831 202.97C70.7498 196.013 93.3788 195.322 133.746 202.97L138.96 177.206Z" fill="black" fill-opacity="0.3"/>
<path d="M49.3912 213.091L47.551 200.209L30.375 202.97L49.3912 213.091Z" fill="#939393"/>
<path d="M49.3912 213.091L47.551 200.209L30.375 202.97L49.3912 213.091Z" fill="black" fill-opacity="0.3"/>
<defs>
<linearGradient id="paint0_linear_3576_6726" x1="14.0107" y1="-21.7329" x2="172.076" y2="250.929" gradientUnits="userSpaceOnUse">
<stop offset="0.164786" stop-color="#888888"/>
<stop offset="1" stop-color="#D7D7D7"/>
</linearGradient>
<linearGradient id="paint1_linear_3576_6726" x1="86.1261" y1="18.7713" x2="365.703" y2="235.123" gradientUnits="userSpaceOnUse">
<stop stop-color="#BEBEBE"/>
<stop offset="1" stop-color="#5B5B5B"/>
</linearGradient>
<linearGradient id="paint2_linear_3576_6726" x1="77.2349" y1="201.536" x2="-74.9025" y2="90.8908" gradientUnits="userSpaceOnUse">
<stop stop-color="#949494"/>
<stop offset="1" stop-color="#D8D8D8"/>
</linearGradient>
<linearGradient id="paint3_linear_3576_6726" x1="410.16" y1="-126.451" x2="-12.6633" y2="154.115" gradientUnits="userSpaceOnUse">
<stop stop-color="white" stop-opacity="0.4"/>
<stop offset="1" stop-color="white" stop-opacity="0"/>
</linearGradient>
<linearGradient id="paint4_linear_3576_6726" x1="71.3082" y1="266.736" x2="196.772" y2="9.88019" gradientUnits="userSpaceOnUse">
<stop stop-color="white" stop-opacity="0.13"/>
<stop offset="1" stop-color="white" stop-opacity="0"/>
</linearGradient>
<radialGradient id="paint5_radial_3576_6726" cx="0" cy="0" r="1" gradientTransform="matrix(-14.8186 22.7218 -11.2569 -7.85099 134.536 146.211)" gradientUnits="userSpaceOnUse">
<stop stop-color="white" stop-opacity="0.1"/>
<stop offset="1" stop-color="white" stop-opacity="0"/>
</radialGradient>
<radialGradient id="paint6_radial_3576_6726" cx="0" cy="0" r="1" gradientTransform="matrix(27.0586 1.92485 -1.39909 13.6528 76.4048 15.3487)" gradientUnits="userSpaceOnUse">
<stop stop-color="white" stop-opacity="0.1"/>
<stop offset="1" stop-color="white" stop-opacity="0"/>
</radialGradient>
<radialGradient id="paint7_radial_3576_6726" cx="0" cy="0" r="1" gradientUnits="userSpaceOnUse" gradientTransform="translate(81.4445 32.6027) scale(29.6372 18.2598)">
<stop stop-color="white" stop-opacity="0.22"/>
<stop offset="1" stop-color="white" stop-opacity="0"/>
</radialGradient>
<radialGradient id="paint8_radial_3576_6726" cx="0" cy="0" r="1" gradientTransform="matrix(14.3008 -23.0512 11.4316 7.59436 145.915 74.5085)" gradientUnits="userSpaceOnUse">
<stop stop-color="white" stop-opacity="0.1"/>
<stop offset="1" stop-color="white" stop-opacity="0"/>
</radialGradient>
<radialGradient id="paint9_radial_3576_6726" cx="0" cy="0" r="1" gradientUnits="userSpaceOnUse" gradientTransform="translate(81.4421 52.3605) rotate(90) scale(18.7702)">
<stop stop-color="#FFE86C"/>
<stop offset="1" stop-color="#FF9900"/>
</radialGradient>
<radialGradient id="paint10_radial_3576_6726" cx="0" cy="0" r="1" gradientUnits="userSpaceOnUse" gradientTransform="translate(81.4438 52.3613) rotate(90) scale(14.599)">
<stop stop-color="#FFF5BC"/>
<stop offset="0.765" stop-color="#FFA800"/>
</radialGradient>
<radialGradient id="paint11_radial_3576_6726" cx="0" cy="0" r="1" gradientUnits="userSpaceOnUse" gradientTransform="translate(88.3856 47.7727) rotate(99.6063) scale(1.75528 4.62915)">
<stop stop-color="white"/>
<stop offset="0.84" stop-color="white" stop-opacity="0"/>
</radialGradient>
<radialGradient id="paint12_radial_3576_6726" cx="0" cy="0" r="1" gradientUnits="userSpaceOnUse" gradientTransform="translate(94.0172 48.1476) rotate(99.6063) scale(1.75528 1.88138)">
<stop stop-color="white"/>
<stop offset="0.84" stop-color="white" stop-opacity="0"/>
</radialGradient>
<radialGradient id="paint13_radial_3576_6726" cx="0" cy="0" r="1" gradientUnits="userSpaceOnUse" gradientTransform="translate(75.7182 46.1305) rotate(79.8213) scale(1.2067 2.86849)">
<stop stop-color="white"/>
<stop offset="0.84" stop-color="white" stop-opacity="0"/>
</radialGradient>
<radialGradient id="paint14_radial_3576_6726" cx="0" cy="0" r="1" gradientUnits="userSpaceOnUse" gradientTransform="translate(79.1013 61.1276) rotate(59.0688) scale(1.2067 2.86849)">
<stop stop-color="white"/>
<stop offset="0.84" stop-color="white" stop-opacity="0"/>
</radialGradient>
<radialGradient id="paint15_radial_3576_6726" cx="0" cy="0" r="1" gradientUnits="userSpaceOnUse" gradientTransform="translate(88.8883 59.3694) rotate(165.501) scale(1.75528 4.62915)">
<stop stop-color="white"/>
<stop offset="0.84" stop-color="white" stop-opacity="0"/>
</radialGradient>
<radialGradient id="paint16_radial_3576_6726" cx="0" cy="0" r="1" gradientUnits="userSpaceOnUse" gradientTransform="translate(84.5823 45.2014) rotate(154.854) scale(1.75528 4.62915)">
<stop stop-color="white"/>
<stop offset="0.84" stop-color="white" stop-opacity="0"/>
</radialGradient>
</defs>
</svg>
