<svg width="166" height="221" viewBox="0 0 166 221" fill="none" xmlns="http://www.w3.org/2000/svg">
<path d="M81.4604 8.48535L151.616 59.8564V162.599L81.4604 213.97L11.3052 162.599V59.8564L81.4604 8.48535Z" fill="#B3B3B3"/>
<path d="M81.4608 26.2671L139.638 68.747V153.707L81.4608 196.187L23.2833 153.707V68.747L81.4608 26.2671Z" fill="url(#paint0_linear_2944_10961)"/>
<path d="M23.1742 68.7486L11.3193 59.8574V162.6L23.1742 153.708V68.7486Z" fill="#D2D2D2"/>
<path d="M139.746 68.7486L151.601 59.8574V162.6L139.746 153.708V68.7486Z" fill="#B3B3B3"/>
<path d="M81.459 26.2676V8.48535L151.6 59.8564L139.745 68.7476L81.459 26.2676Z" fill="url(#paint1_linear_2944_10961)"/>
<path d="M81.459 196.189V213.972L11.3177 162.601L23.1726 153.709L81.459 196.189Z" fill="url(#paint2_linear_2944_10961)"/>
<path d="M118.013 52.9414L23.1738 123.083V153.708L139.747 68.7479L118.013 52.9414Z" fill="url(#paint3_linear_2944_10961)"/>
<path d="M44.9072 169.513L37.0039 163.586L139.746 85.5415V95.4206L44.9072 169.513Z" fill="url(#paint4_linear_2944_10961)"/>
<path d="M139.748 153.707L118.014 169.514C110.337 139.625 129.237 124.459 139.748 121.106L139.748 153.707Z" fill="url(#paint5_radial_2944_10961)"/>
<path d="M80.3253 8.25455L104.695 19.582C82.2917 40.8039 59.8577 31.6426 51.8237 24.0809L80.3253 8.25455Z" fill="url(#paint6_radial_2944_10961)"/>
<path d="M81.7169 26.2679L104.438 43.0621C82.035 64.2841 62.0896 53.5878 54.0556 46.026L81.7169 26.2679Z" fill="url(#paint7_radial_2944_10961)"/>
<path d="M139.748 68.7486L162.464 51.9945C170.816 81.7018 150.18 95.7831 139.748 99.3728L139.748 68.7486Z" fill="url(#paint8_radial_2944_10961)"/>
<mask id="path-13-outside-1_2944_10961" maskUnits="userSpaceOnUse" x="48.042" y="69.5913" width="72" height="88" fill="black">
<rect fill="white" x="48.042" y="69.5913" width="72" height="88"/>
<path d="M109.005 144.117C108.057 145.192 106.856 145.856 105.401 146.109C99.4582 146.994 93.1356 147.658 86.4337 148.1C79.7317 148.606 72.9665 148.922 66.1381 149.049C65.1265 149.049 64.273 148.891 63.5775 148.575C62.882 148.258 62.313 147.816 61.8704 147.247C61.4278 146.741 61.0801 146.109 60.8272 145.35C60.5743 144.655 60.4162 143.927 60.353 143.169C60.1633 141.715 60.3846 140.418 61.0168 139.28C61.6491 138.142 62.4078 137.099 63.293 136.151C63.4827 135.898 64.0833 135.329 65.0949 134.444C66.1065 133.495 67.2762 132.389 68.604 131.124C69.9949 129.796 71.4807 128.405 73.0614 126.951C74.7053 125.434 76.2543 124.011 77.7085 122.684C79.1627 121.293 80.4272 120.091 81.5021 119.08C82.6401 118.005 83.4304 117.278 83.873 116.898C86.9711 113.927 89.5001 111.24 91.4601 108.837C93.4201 106.434 94.495 104.158 94.6847 102.009C95.0008 99.037 94.2421 96.666 92.4085 94.8957C90.575 93.0622 87.635 92.2402 83.5885 92.4299C82.3872 92.4931 81.1859 92.746 79.9846 93.1886C78.8466 93.6312 77.7717 94.2635 76.7601 95.0854C75.7485 95.8441 74.8317 96.7609 74.0098 97.8357C73.2511 98.8473 72.682 99.9538 72.3027 101.155C71.9865 102.23 71.4491 103.115 70.6904 103.811C69.9317 104.443 69.0782 104.949 68.1298 105.328C67.1814 105.644 66.1698 105.834 65.0949 105.897C64.0201 105.897 62.9768 105.771 61.9652 105.518C60.3214 105.012 58.9936 104.19 57.982 103.052C56.9704 101.914 56.4962 100.586 56.5594 99.0686C56.6859 96.6028 57.4762 94.2002 58.9304 91.8609C60.3846 89.5215 62.313 87.435 64.7156 85.6015C67.1814 83.7047 70.0265 82.1557 73.2511 80.9544C76.5388 79.6899 80.0479 78.8995 83.7782 78.5834C87.3821 78.2673 90.8279 78.5518 94.1156 79.437C97.4666 80.2589 100.407 81.5866 102.936 83.4202C105.465 85.1905 107.456 87.3718 108.911 89.9641C110.428 92.5564 111.187 95.4015 111.187 98.4996C111.187 102.293 110.396 105.834 108.816 109.122C107.235 112.409 104.643 115.792 101.039 119.269C99.5214 120.724 97.9408 122.209 96.2969 123.727C94.653 125.244 92.9776 126.73 91.2705 128.184C89.6266 129.638 88.0143 131.029 86.4337 132.357C84.9163 133.622 83.5253 134.728 82.2608 135.676C86.5601 135.297 90.6698 134.981 94.5898 134.728C98.5098 134.475 102.177 134.285 105.591 134.159C106.982 134.096 108.089 134.507 108.911 135.392C109.796 136.277 110.27 137.573 110.333 139.28C110.396 141.43 109.954 143.042 109.005 144.117Z"/>
</mask>
<path d="M109.005 144.117C108.057 145.192 106.856 145.856 105.401 146.109C99.4582 146.994 93.1356 147.658 86.4337 148.1C79.7317 148.606 72.9665 148.922 66.1381 149.049C65.1265 149.049 64.273 148.891 63.5775 148.575C62.882 148.258 62.313 147.816 61.8704 147.247C61.4278 146.741 61.0801 146.109 60.8272 145.35C60.5743 144.655 60.4162 143.927 60.353 143.169C60.1633 141.715 60.3846 140.418 61.0168 139.28C61.6491 138.142 62.4078 137.099 63.293 136.151C63.4827 135.898 64.0833 135.329 65.0949 134.444C66.1065 133.495 67.2762 132.389 68.604 131.124C69.9949 129.796 71.4807 128.405 73.0614 126.951C74.7053 125.434 76.2543 124.011 77.7085 122.684C79.1627 121.293 80.4272 120.091 81.5021 119.08C82.6401 118.005 83.4304 117.278 83.873 116.898C86.9711 113.927 89.5001 111.24 91.4601 108.837C93.4201 106.434 94.495 104.158 94.6847 102.009C95.0008 99.037 94.2421 96.666 92.4085 94.8957C90.575 93.0622 87.635 92.2402 83.5885 92.4299C82.3872 92.4931 81.1859 92.746 79.9846 93.1886C78.8466 93.6312 77.7717 94.2635 76.7601 95.0854C75.7485 95.8441 74.8317 96.7609 74.0098 97.8357C73.2511 98.8473 72.682 99.9538 72.3027 101.155C71.9865 102.23 71.4491 103.115 70.6904 103.811C69.9317 104.443 69.0782 104.949 68.1298 105.328C67.1814 105.644 66.1698 105.834 65.0949 105.897C64.0201 105.897 62.9768 105.771 61.9652 105.518C60.3214 105.012 58.9936 104.19 57.982 103.052C56.9704 101.914 56.4962 100.586 56.5594 99.0686C56.6859 96.6028 57.4762 94.2002 58.9304 91.8609C60.3846 89.5215 62.313 87.435 64.7156 85.6015C67.1814 83.7047 70.0265 82.1557 73.2511 80.9544C76.5388 79.6899 80.0479 78.8995 83.7782 78.5834C87.3821 78.2673 90.8279 78.5518 94.1156 79.437C97.4666 80.2589 100.407 81.5866 102.936 83.4202C105.465 85.1905 107.456 87.3718 108.911 89.9641C110.428 92.5564 111.187 95.4015 111.187 98.4996C111.187 102.293 110.396 105.834 108.816 109.122C107.235 112.409 104.643 115.792 101.039 119.269C99.5214 120.724 97.9408 122.209 96.2969 123.727C94.653 125.244 92.9776 126.73 91.2705 128.184C89.6266 129.638 88.0143 131.029 86.4337 132.357C84.9163 133.622 83.5253 134.728 82.2608 135.676C86.5601 135.297 90.6698 134.981 94.5898 134.728C98.5098 134.475 102.177 134.285 105.591 134.159C106.982 134.096 108.089 134.507 108.911 135.392C109.796 136.277 110.27 137.573 110.333 139.28C110.396 141.43 109.954 143.042 109.005 144.117Z" fill="white"/>
<path d="M109.005 144.117L103.079 138.888L103.079 138.888L109.005 144.117ZM105.401 146.109L106.566 153.926L106.661 153.912L106.756 153.895L105.401 146.109ZM86.4337 148.1L85.9129 140.214L85.8759 140.217L85.8389 140.22L86.4337 148.1ZM66.1381 149.049V156.952H66.2113L66.2845 156.951L66.1381 149.049ZM63.5775 148.575L60.3071 155.769H60.3071L63.5775 148.575ZM61.8704 147.247L68.1088 142.395L67.9686 142.214L67.8182 142.042L61.8704 147.247ZM60.8272 145.35L68.3248 142.851L68.2911 142.749L68.2546 142.649L60.8272 145.35ZM60.353 143.169L68.2289 142.512L68.2136 142.329L68.1898 142.147L60.353 143.169ZM61.0168 139.28L54.1082 135.442H54.1082L61.0168 139.28ZM63.293 136.151L69.0707 141.543L69.3606 141.233L69.6156 140.893L63.293 136.151ZM65.0949 134.444L70.2992 140.391L70.4013 140.302L70.5003 140.209L65.0949 134.444ZM68.604 131.124L74.0545 136.847L74.061 136.841L68.604 131.124ZM73.0614 126.951L78.4123 132.768L78.422 132.759L73.0614 126.951ZM77.7085 122.684L83.0374 128.52L83.1051 128.458L83.1714 128.395L77.7085 122.684ZM81.5021 119.08L86.9187 124.835L86.9286 124.825L81.5021 119.08ZM83.873 116.898L89.0164 122.899L89.1843 122.755L89.3438 122.602L83.873 116.898ZM91.4601 108.837L85.3362 103.841L91.4601 108.837ZM94.6847 102.009L86.8258 101.173L86.8182 101.243L86.812 101.314L94.6847 102.009ZM92.4085 94.8957L86.8201 100.484L86.8691 100.533L86.919 100.581L92.4085 94.8957ZM83.5885 92.4299L83.2184 84.5353L83.1958 84.5364L83.1731 84.5376L83.5885 92.4299ZM79.9846 93.1886L77.2524 85.7727L77.1861 85.7971L77.1201 85.8228L79.9846 93.1886ZM76.7601 95.0854L81.502 101.408L81.6248 101.316L81.7438 101.219L76.7601 95.0854ZM74.0098 97.8357L67.7318 93.0349L67.7093 93.0642L67.6872 93.0938L74.0098 97.8357ZM72.3027 101.155L64.7663 98.7752L64.7427 98.8499L64.7206 98.925L72.3027 101.155ZM70.6904 103.811L75.7499 109.882L75.8933 109.763L76.0308 109.636L70.6904 103.811ZM68.1298 105.328L70.629 112.826L70.8493 112.752L71.0649 112.666L68.1298 105.328ZM65.0949 105.897V113.8H65.3272L65.559 113.787L65.0949 105.897ZM61.9652 105.518L59.641 113.071L59.8432 113.134L60.0484 113.185L61.9652 105.518ZM56.5594 99.0686L48.6665 98.6639L48.6646 98.7017L48.663 98.7396L56.5594 99.0686ZM58.9304 91.8609L52.2183 87.6885L58.9304 91.8609ZM64.7156 85.6015L69.5102 91.8842L69.5223 91.875L69.5343 91.8658L64.7156 85.6015ZM73.2511 80.9544L76.0102 88.3604L76.0492 88.3458L76.0882 88.3308L73.2511 80.9544ZM83.7782 78.5834L84.4456 86.4584L84.4572 86.4574L84.4688 86.4564L83.7782 78.5834ZM94.1156 79.437L92.061 87.0685L92.1467 87.0915L92.2329 87.1127L94.1156 79.437ZM102.936 83.4202L98.2967 89.8187L98.3498 89.8572L98.4034 89.8948L102.936 83.4202ZM108.91 89.9641L102.018 93.8308L102.053 93.894L102.09 93.9566L108.91 89.9641ZM108.816 109.122L115.938 112.546L115.938 112.546L108.816 109.122ZM101.039 119.269L106.507 124.975L106.517 124.966L106.527 124.957L101.039 119.269ZM96.2969 123.727L101.658 129.534L101.658 129.534L96.2969 123.727ZM91.2705 128.184L86.1455 122.168L86.0893 122.216L86.034 122.265L91.2705 128.184ZM86.4337 132.357L91.4932 138.429L91.5051 138.419L91.517 138.409L86.4337 132.357ZM82.2608 135.676L77.5188 129.354L55.3433 145.985L82.9554 143.549L82.2608 135.676ZM105.591 134.159L105.884 142.057L105.917 142.056L105.95 142.054L105.591 134.159ZM108.91 135.392L103.119 140.77L103.219 140.877L103.322 140.98L108.91 135.392ZM110.333 139.28L118.233 139.048L118.232 139.018L118.231 138.988L110.333 139.28ZM109.005 144.117L103.079 138.888C103.177 138.777 103.344 138.629 103.57 138.504C103.795 138.38 103.974 138.335 104.047 138.322L105.401 146.109L106.756 153.895C109.923 153.344 112.756 151.811 114.931 149.346L109.005 144.117ZM105.401 146.109L104.237 138.292C98.5305 139.142 92.4242 139.784 85.9129 140.214L86.4337 148.1L86.9545 155.986C93.8471 155.531 100.386 154.846 106.566 153.926L105.401 146.109ZM86.4337 148.1L85.8389 140.22C79.2886 140.714 72.673 141.023 65.9918 141.147L66.1381 149.049L66.2845 156.951C73.2601 156.821 80.1749 156.498 87.0285 155.981L86.4337 148.1ZM66.1381 149.049V141.145C66.038 141.145 66.0603 141.137 66.1784 141.159C66.2991 141.181 66.5379 141.239 66.8479 141.38L63.5775 148.575L60.3071 155.769C62.3054 156.678 64.3466 156.952 66.1381 156.952V149.049ZM63.5775 148.575L66.8479 141.38C67.2451 141.56 67.7193 141.894 68.1088 142.395L61.8704 147.247L55.632 152.099C56.9067 153.738 58.5189 154.957 60.3071 155.769L63.5775 148.575ZM61.8704 147.247L67.8182 142.042C68.1849 142.462 68.3077 142.799 68.3248 142.851L60.8272 145.35L53.3295 147.849C53.8524 149.418 54.6708 151.02 55.9226 152.451L61.8704 147.247ZM60.8272 145.35L68.2546 142.649C68.248 142.631 68.2356 142.593 68.2289 142.512L60.353 143.169L52.477 143.825C52.5968 145.262 52.9005 146.678 53.3998 148.051L60.8272 145.35ZM60.353 143.169L68.1898 142.147C68.1854 142.112 68.2036 142.223 68.1672 142.436C68.1292 142.659 68.0472 142.899 67.9255 143.118L61.0168 139.28L54.1082 135.442C52.5518 138.244 52.1366 141.281 52.5161 144.191L60.353 143.169ZM61.0168 139.28L67.9255 143.118C68.2466 142.541 68.6259 142.02 69.0707 141.543L63.293 136.151L57.5153 130.758C56.1897 132.178 55.0516 133.744 54.1082 135.442L61.0168 139.28ZM63.293 136.151L69.6156 140.893C69.4769 141.078 69.3647 141.207 69.3136 141.265C69.2563 141.33 69.2181 141.37 69.2092 141.379C69.1944 141.395 69.2243 141.363 69.3211 141.272C69.5141 141.089 69.8301 140.802 70.2992 140.391L65.0949 134.444L59.8906 128.496C59.3482 128.97 58.858 129.411 58.4503 129.797C58.182 130.051 57.5187 130.678 56.9704 131.409L63.293 136.151ZM65.0949 134.444L70.5003 140.209C71.5309 139.243 72.7162 138.122 74.0545 136.847L68.604 131.124L63.1534 125.401C61.8362 126.656 60.6822 127.747 59.6896 128.678L65.0949 134.444ZM68.604 131.124L74.061 136.841C75.4131 135.55 76.8633 134.193 78.4123 132.768L73.0614 126.951L67.7104 121.135C66.0982 122.618 64.5767 124.043 63.147 125.407L68.604 131.124ZM73.0614 126.951L78.422 132.759C80.0567 131.25 81.5951 129.837 83.0374 128.52L77.7085 122.684L72.3796 116.847C70.9135 118.186 69.3538 119.618 67.7008 121.144L73.0614 126.951ZM77.7085 122.684L83.1714 128.395C84.6153 127.014 85.8637 125.828 86.9187 124.835L81.5021 119.08L76.0854 113.324C74.9907 114.355 73.7101 115.571 72.2456 116.972L77.7085 122.684ZM81.5021 119.08L86.9286 124.825C88.0781 123.74 88.7383 123.137 89.0164 122.899L83.873 116.898L78.7297 110.898C78.1226 111.418 77.2021 112.27 76.0755 113.334L81.5021 119.08ZM83.873 116.898L89.3438 122.602C92.5928 119.486 95.3606 116.558 97.5841 113.833L91.4601 108.837L85.3362 103.841C83.6397 105.921 81.3494 108.368 78.4022 111.195L83.873 116.898ZM91.4601 108.837L97.5841 113.833C100.127 110.716 102.18 106.979 102.557 102.703L94.6847 102.009L86.812 101.314C86.8099 101.337 86.7134 102.153 85.3362 103.841L91.4601 108.837ZM94.6847 102.009L102.544 102.845C103.067 97.9202 101.799 92.9761 97.8981 89.2101L92.4085 94.8957L86.919 100.581C86.9351 100.597 86.9145 100.58 86.8831 100.529C86.8512 100.478 86.8326 100.433 86.8255 100.41C86.8097 100.361 86.8904 100.565 86.8258 101.173L94.6847 102.009ZM92.4085 94.8957L97.997 89.3073C93.8901 85.2004 88.2548 84.2992 83.2184 84.5353L83.5885 92.4299L83.9586 100.324C85.3976 100.257 86.2589 100.392 86.7004 100.515C87.0953 100.626 87.0215 100.686 86.8201 100.484L92.4085 94.8957ZM83.5885 92.4299L83.1731 84.5376C81.1307 84.6451 79.1499 85.0736 77.2524 85.7727L79.9846 93.1886L82.7168 100.605C83.2219 100.418 83.6437 100.341 84.0039 100.322L83.5885 92.4299ZM79.9846 93.1886L77.1201 85.8228C75.1658 86.5828 73.3829 87.6462 71.7764 88.9516L76.7601 95.0854L81.7438 101.219C82.1605 100.881 82.5273 100.68 82.8491 100.554L79.9846 93.1886ZM76.7601 95.0854L72.0182 88.7628C70.3881 89.9853 68.9629 91.425 67.7318 93.0349L74.0098 97.8357L80.2878 102.637C80.7005 102.097 81.1088 101.703 81.502 101.408L76.7601 95.0854ZM74.0098 97.8357L67.6872 93.0938C66.3956 94.8159 65.4151 96.7204 64.7663 98.7752L72.3027 101.155L79.8391 103.535C79.9489 103.187 80.1065 102.879 80.3324 102.578L74.0098 97.8357ZM72.3027 101.155L64.7206 98.925C64.7401 98.8588 64.7924 98.712 64.9069 98.5235C65.0236 98.3312 65.1751 98.145 65.35 97.9847L70.6904 103.811L76.0308 109.636C77.9432 107.883 79.1998 105.714 79.8848 103.385L72.3027 101.155ZM70.6904 103.811L65.6309 97.7391C65.5311 97.8223 65.3994 97.9081 65.1946 97.99L68.1298 105.328L71.0649 112.666C72.7569 111.989 74.3323 111.063 75.7499 109.882L70.6904 103.811ZM68.1298 105.328L65.6305 97.8303C65.3889 97.9109 65.066 97.9818 64.6308 98.0074L65.0949 105.897L65.559 113.787C67.2735 113.686 68.9738 113.377 70.629 112.826L68.1298 105.328ZM65.0949 105.897V97.9938C64.6463 97.9938 64.2477 97.9418 63.8821 97.8504L61.9652 105.518L60.0484 113.185C61.706 113.599 63.3939 113.8 65.0949 113.8V105.897ZM61.9652 105.518L64.2895 97.9639C64.048 97.8896 63.9318 97.8239 63.8964 97.802C63.8662 97.7833 63.8736 97.784 63.889 97.8012L57.982 103.052L52.075 108.302C54.1676 110.657 56.798 112.197 59.641 113.071L61.9652 105.518ZM57.982 103.052L63.889 97.8012C64.0023 97.9288 64.1802 98.1795 64.3105 98.5444C64.4409 98.9096 64.4632 99.2198 64.4558 99.3976L56.5594 99.0686L48.663 98.7396C48.5142 102.31 49.7059 105.637 52.075 108.302L57.982 103.052ZM56.5594 99.0686L64.4523 99.4734C64.5026 98.4921 64.8111 97.3707 65.6425 96.0333L58.9304 91.8609L52.2183 87.6885C50.1413 91.0297 48.8691 94.7135 48.6665 98.6639L56.5594 99.0686ZM58.9304 91.8609L65.6425 96.0333C66.5438 94.5833 67.7954 93.1929 69.5102 91.8842L64.7156 85.6015L59.9209 79.3188C56.8306 81.6772 54.2254 84.4597 52.2183 87.6885L58.9304 91.8609ZM64.7156 85.6015L69.5343 91.8658C71.3119 90.4984 73.4476 89.315 76.0102 88.3604L73.2511 80.9544L70.492 73.5484C66.6055 74.9963 63.0508 76.9111 59.8969 79.3372L64.7156 85.6015ZM73.2511 80.9544L76.0882 88.3308C78.6375 87.3503 81.4118 86.7155 84.4456 86.4584L83.7782 78.5834L83.1108 70.7084C78.684 71.0836 74.4402 72.0294 70.414 73.5779L73.2511 80.9544ZM83.7782 78.5834L84.4688 86.4564C87.2086 86.2161 89.7218 86.4387 92.061 87.0685L94.1156 79.437L96.1703 71.8055C91.934 70.6649 87.5555 70.3185 83.0876 70.7104L83.7782 78.5834ZM94.1156 79.437L92.2329 87.1127C94.6952 87.7166 96.6776 88.6449 98.2967 89.8187L102.936 83.4202L107.575 77.0217C104.136 74.5284 100.238 72.8012 95.9984 71.7613L94.1156 79.437ZM102.936 83.4202L98.4034 89.8948C99.9984 91.0112 101.167 92.3145 102.018 93.8308L108.91 89.9641L115.803 86.0974C113.745 82.4292 110.931 79.3698 107.468 76.9456L102.936 83.4202ZM108.91 89.9641L102.09 93.9566C102.875 95.2986 103.283 96.7588 103.283 98.4996H111.187H119.09C119.09 94.0443 117.98 89.8141 115.731 85.9715L108.91 89.9641ZM111.187 98.4996H103.283C103.283 101.156 102.739 103.521 101.693 105.697L108.816 109.122L115.938 112.546C118.054 108.147 119.09 103.43 119.09 98.4996H111.187ZM108.816 109.122L101.693 105.697C100.639 107.889 98.7142 110.53 95.5511 113.582L101.039 119.269L106.527 124.957C110.571 121.054 113.831 116.93 115.938 112.546L108.816 109.122ZM101.039 119.269L95.5706 113.563C94.0909 114.981 92.5463 116.433 90.9363 117.919L96.2969 123.727L101.658 129.534C103.335 127.985 104.952 126.466 106.507 124.975L101.039 119.269ZM96.2969 123.727L90.9363 117.919C89.3698 119.365 87.7728 120.782 86.1455 122.168L91.2705 128.184L96.3955 134.2C98.1823 132.678 99.9363 131.123 101.658 129.534L96.2969 123.727ZM91.2705 128.184L86.034 122.265C84.4375 123.677 82.8763 125.024 81.3504 126.306L86.4337 132.357L91.517 138.409C93.1524 137.035 94.8157 135.6 96.5069 134.104L91.2705 128.184ZM86.4337 132.357L81.3741 126.286C79.9361 127.484 78.6527 128.503 77.5188 129.354L82.2608 135.676L87.0027 141.999C88.3979 140.953 89.8964 139.759 91.4932 138.429L86.4337 132.357ZM82.2608 135.676L82.9554 143.549C87.1989 143.175 91.2463 142.863 95.0987 142.615L94.5898 134.728L94.081 126.841C90.0933 127.098 85.9214 127.42 81.5661 127.804L82.2608 135.676ZM94.5898 134.728L95.0987 142.615C98.957 142.366 102.551 142.18 105.884 142.057L105.591 134.159L105.299 126.261C101.803 126.391 98.0627 126.584 94.081 126.841L94.5898 134.728ZM105.591 134.159L105.95 142.054C105.774 142.062 105.315 142.052 104.712 141.829C104.08 141.594 103.528 141.21 103.119 140.77L108.91 135.392L114.702 130.014C112.049 127.157 108.549 126.113 105.232 126.264L105.591 134.159ZM108.91 135.392L103.322 140.98C102.872 140.53 102.625 140.063 102.508 139.743C102.402 139.454 102.427 139.358 102.435 139.573L110.333 139.28L118.231 138.988C118.121 136.024 117.241 132.546 114.499 129.803L108.91 135.392ZM110.333 139.28L102.433 139.513C102.448 140.015 102.391 140.141 102.427 140.01C102.472 139.847 102.634 139.392 103.079 138.888L109.005 144.117L114.931 149.346C117.739 146.165 118.326 142.221 118.233 139.048L110.333 139.28Z" fill="#979797" mask="url(#path-13-outside-1_2944_10961)"/>
<path d="M78.3743 40.7165C79.7661 37.9893 83.663 37.9893 85.0548 40.7165L86.4741 43.4978C87.019 44.5655 88.0415 45.3084 89.2253 45.4967L92.3091 45.9871C95.3329 46.468 96.5371 50.1741 94.3734 52.3406L92.1669 54.5499C91.3198 55.3981 90.9293 56.6001 91.116 57.7842L91.6025 60.8685C92.0796 63.893 88.927 66.1835 86.198 64.7952L83.4149 63.3794C82.3465 62.8359 81.0826 62.8359 80.0142 63.3794L77.2311 64.7952C74.5021 66.1835 71.3495 63.893 71.8265 60.8685L72.313 57.7842C72.4998 56.6001 72.1092 55.3981 71.2622 54.5499L69.0556 52.3406C66.892 50.1741 68.0962 46.468 71.12 45.9871L74.2038 45.4967C75.3876 45.3084 76.4101 44.5655 76.955 43.4978L78.3743 40.7165Z" fill="url(#paint9_radial_2944_10961)"/>
<path d="M80.0461 41.6158C80.742 40.2522 82.6904 40.2522 83.3863 41.6158L85.659 46.0691C85.9315 46.603 86.4427 46.9744 87.0346 47.0686L91.9723 47.8539C93.4842 48.0943 94.0863 49.9474 93.0044 51.0306L89.4714 54.5682C89.0478 54.9923 88.8526 55.5933 88.9459 56.1853L89.7249 61.124C89.9634 62.6362 88.3871 63.7814 87.0226 63.0873L82.5664 60.8203C82.0322 60.5486 81.4003 60.5486 80.8661 60.8203L76.4098 63.0873C75.0453 63.7814 73.469 62.6362 73.7076 61.124L74.4865 56.1853C74.5799 55.5933 74.3846 54.9923 73.9611 54.5682L70.428 51.0306C69.3462 49.9474 69.9483 48.0943 71.4602 47.8539L76.3979 47.0686C76.9898 46.9744 77.501 46.603 77.7735 46.0691L80.0461 41.6158Z" fill="url(#paint10_radial_2944_10961)"/>
<path d="M84.1858 47.5802C83.9608 46.1312 85.4285 46.0269 86.1905 46.1559C86.9525 46.2848 89.0287 46.7538 91.2373 47.5979C93.9981 48.6531 93.2332 49.6993 92.5649 50.1741C91.6199 50.8456 90.1822 50.3587 88.4677 50.0685C86.7532 49.7784 84.4671 49.3915 84.1858 47.5802Z" fill="url(#paint11_radial_2944_10961)"/>
<path d="M92.4736 48.4047C92.52 47.0017 93.1509 46.7557 93.4606 46.8082C93.7703 46.8606 94.6026 47.119 95.4543 47.7335C96.519 48.5015 96.0932 49.6052 95.7642 50.1374C95.299 50.8901 94.7384 50.5517 94.0416 50.4337C93.3448 50.3158 92.4157 50.1586 92.4736 48.4047Z" fill="url(#paint12_radial_2944_10961)" fill-opacity="0.56"/>
<path d="M73.2206 47.1975C72.7688 46.3069 73.5985 45.9151 74.0699 45.8304C74.5413 45.7458 75.8516 45.5915 77.322 45.6514C79.16 45.7262 78.9473 46.5741 78.6642 47.0298C78.2639 47.6742 77.3206 47.6759 76.26 47.8663C75.1994 48.0567 73.7854 48.3106 73.2206 47.1975Z" fill="url(#paint13_radial_2944_10961)" fill-opacity="0.5"/>
<path d="M76.9556 63.1445C76.2175 62.4719 76.8546 61.8114 77.2654 61.5653C77.6762 61.3191 78.8468 60.7105 80.243 60.2455C81.9883 59.6642 82.0899 60.5325 81.9866 61.0589C81.8406 61.8034 80.9591 62.1392 80.0348 62.693C79.1105 63.2469 77.8781 63.9853 76.9556 63.1445Z" fill="url(#paint14_radial_2944_10961)" fill-opacity="0.5"/>
<path d="M88.0403 55.5523C89.271 54.7551 89.9657 56.0523 90.1592 56.8005C90.3527 57.5487 90.7725 59.6354 90.904 61.9962C91.0684 64.9471 89.801 64.6762 89.0947 64.2601C88.0958 63.6717 87.9531 62.1606 87.5177 60.477C87.0824 58.7935 86.5019 56.5488 88.0403 55.5523Z" fill="url(#paint15_radial_2944_10961)"/>
<path d="M82.9409 41.6671C84.0032 40.6562 84.9255 41.8027 85.254 42.5023C85.5824 43.2019 86.3805 45.175 86.946 47.4708C87.6528 50.3406 86.3571 50.3085 85.5861 50.0301C84.4957 49.6364 84.0762 48.1777 83.3373 46.6036C82.5984 45.0295 81.6132 42.9307 82.9409 41.6671Z" fill="url(#paint16_radial_2944_10961)"/>
<path d="M81.4604 8.48584L151.616 59.8569V162.599L81.4604 213.97L11.3052 162.599V59.8569L81.4604 8.48584Z" fill="black" fill-opacity="0.3"/>
<path d="M9.17773 194.965L43.5296 187.297L49.6639 213.674L15.9254 220.422L20.2194 206.006L9.17773 194.965Z" fill="#ABABAB"/>
<path d="M9.17773 194.965L43.5296 187.297L49.6639 213.674L15.9254 220.422L20.2194 206.006L9.17773 194.965Z" fill="black" fill-opacity="0.3"/>
<path d="M155.178 194.965L120.826 187.297L114.692 213.674L148.43 220.422L144.136 206.006L155.178 194.965Z" fill="#ABABAB"/>
<path d="M155.178 194.965L120.826 187.297L114.692 213.674L148.43 220.422L144.136 206.006L155.178 194.965Z" fill="black" fill-opacity="0.3"/>
<path d="M114.689 213.671L116.529 200.176L134.012 203.402L114.689 213.671Z" fill="#939393"/>
<path d="M114.689 213.671L116.529 200.176L134.012 203.402L114.689 213.671Z" fill="black" fill-opacity="0.3"/>
<path d="M139.232 177.786C95.0828 167.177 70.091 167.556 25.1348 177.786L30.6556 203.55C71.0223 196.593 93.6512 195.902 134.018 203.55L139.232 177.786Z" fill="#D2D2D2"/>
<path d="M139.232 177.786C95.0828 167.177 70.091 167.556 25.1348 177.786L30.6556 203.55C71.0223 196.593 93.6512 195.902 134.018 203.55L139.232 177.786Z" fill="black" fill-opacity="0.3"/>
<path d="M49.6637 213.672L47.8234 200.79L30.6475 203.55L49.6637 213.672Z" fill="#939393"/>
<path d="M49.6637 213.672L47.8234 200.79L30.6475 203.55L49.6637 213.672Z" fill="black" fill-opacity="0.3"/>
<defs>
<linearGradient id="paint0_linear_2944_10961" x1="14.2832" y1="-21.1524" x2="172.348" y2="251.51" gradientUnits="userSpaceOnUse">
<stop offset="0.164786" stop-color="#888888"/>
<stop offset="1" stop-color="#D7D7D7"/>
</linearGradient>
<linearGradient id="paint1_linear_2944_10961" x1="86.3985" y1="19.3523" x2="365.976" y2="235.704" gradientUnits="userSpaceOnUse">
<stop stop-color="#BEBEBE"/>
<stop offset="1" stop-color="#5B5B5B"/>
</linearGradient>
<linearGradient id="paint2_linear_2944_10961" x1="77.5074" y1="202.117" x2="-74.6301" y2="91.4714" gradientUnits="userSpaceOnUse">
<stop stop-color="#949494"/>
<stop offset="1" stop-color="#D8D8D8"/>
</linearGradient>
<linearGradient id="paint3_linear_2944_10961" x1="410.433" y1="-125.869" x2="-12.3908" y2="154.696" gradientUnits="userSpaceOnUse">
<stop stop-color="white" stop-opacity="0.4"/>
<stop offset="1" stop-color="white" stop-opacity="0"/>
</linearGradient>
<linearGradient id="paint4_linear_2944_10961" x1="71.5806" y1="267.316" x2="197.045" y2="10.4608" gradientUnits="userSpaceOnUse">
<stop stop-color="white" stop-opacity="0.13"/>
<stop offset="1" stop-color="white" stop-opacity="0"/>
</linearGradient>
<radialGradient id="paint5_radial_2944_10961" cx="0" cy="0" r="1" gradientTransform="matrix(-14.8186 22.7218 -11.2569 -7.85099 134.809 146.792)" gradientUnits="userSpaceOnUse">
<stop stop-color="white" stop-opacity="0.1"/>
<stop offset="1" stop-color="white" stop-opacity="0"/>
</radialGradient>
<radialGradient id="paint6_radial_2944_10961" cx="0" cy="0" r="1" gradientTransform="matrix(27.0586 1.92485 -1.39909 13.6528 76.6773 15.9297)" gradientUnits="userSpaceOnUse">
<stop stop-color="white" stop-opacity="0.1"/>
<stop offset="1" stop-color="white" stop-opacity="0"/>
</radialGradient>
<radialGradient id="paint7_radial_2944_10961" cx="0" cy="0" r="1" gradientUnits="userSpaceOnUse" gradientTransform="translate(81.7169 33.1833) scale(29.6372 18.2598)">
<stop stop-color="white" stop-opacity="0.22"/>
<stop offset="1" stop-color="white" stop-opacity="0"/>
</radialGradient>
<radialGradient id="paint8_radial_2944_10961" cx="0" cy="0" r="1" gradientTransform="matrix(14.3008 -23.0512 11.4316 7.59436 146.187 75.0895)" gradientUnits="userSpaceOnUse">
<stop stop-color="white" stop-opacity="0.1"/>
<stop offset="1" stop-color="white" stop-opacity="0"/>
</radialGradient>
<radialGradient id="paint9_radial_2944_10961" cx="0" cy="0" r="1" gradientUnits="userSpaceOnUse" gradientTransform="translate(81.7145 52.9416) rotate(90) scale(18.7702)">
<stop stop-color="#FFE86C"/>
<stop offset="1" stop-color="#FF9900"/>
</radialGradient>
<radialGradient id="paint10_radial_2944_10961" cx="0" cy="0" r="1" gradientUnits="userSpaceOnUse" gradientTransform="translate(81.7162 52.9423) rotate(90) scale(14.599)">
<stop stop-color="#FFF5BC"/>
<stop offset="0.765" stop-color="#FFA800"/>
</radialGradient>
<radialGradient id="paint11_radial_2944_10961" cx="0" cy="0" r="1" gradientUnits="userSpaceOnUse" gradientTransform="translate(88.658 48.3537) rotate(99.6063) scale(1.75528 4.62915)">
<stop stop-color="white"/>
<stop offset="0.84" stop-color="white" stop-opacity="0"/>
</radialGradient>
<radialGradient id="paint12_radial_2944_10961" cx="0" cy="0" r="1" gradientUnits="userSpaceOnUse" gradientTransform="translate(94.2896 48.7287) rotate(99.6063) scale(1.75528 1.88138)">
<stop stop-color="white"/>
<stop offset="0.84" stop-color="white" stop-opacity="0"/>
</radialGradient>
<radialGradient id="paint13_radial_2944_10961" cx="0" cy="0" r="1" gradientUnits="userSpaceOnUse" gradientTransform="translate(75.9907 46.7116) rotate(79.8213) scale(1.2067 2.86849)">
<stop stop-color="white"/>
<stop offset="0.84" stop-color="white" stop-opacity="0"/>
</radialGradient>
<radialGradient id="paint14_radial_2944_10961" cx="0" cy="0" r="1" gradientUnits="userSpaceOnUse" gradientTransform="translate(79.3738 61.7086) rotate(59.0688) scale(1.2067 2.86849)">
<stop stop-color="white"/>
<stop offset="0.84" stop-color="white" stop-opacity="0"/>
</radialGradient>
<radialGradient id="paint15_radial_2944_10961" cx="0" cy="0" r="1" gradientUnits="userSpaceOnUse" gradientTransform="translate(89.1607 59.9505) rotate(165.501) scale(1.75528 4.62915)">
<stop stop-color="white"/>
<stop offset="0.84" stop-color="white" stop-opacity="0"/>
</radialGradient>
<radialGradient id="paint16_radial_2944_10961" cx="0" cy="0" r="1" gradientUnits="userSpaceOnUse" gradientTransform="translate(84.8547 45.7825) rotate(154.854) scale(1.75528 4.62915)">
<stop stop-color="white"/>
<stop offset="0.84" stop-color="white" stop-opacity="0"/>
</radialGradient>
</defs>
</svg>
