<svg width="165" height="221" viewBox="0 0 165 221" fill="none" xmlns="http://www.w3.org/2000/svg">
<path d="M81.186 8.48535L151.341 59.8564V162.599L81.186 213.97L11.0308 162.599V59.8564L81.186 8.48535Z" fill="#B3B3B3"/>
<path d="M81.1864 26.2671L139.364 68.747V153.707L81.1864 196.187L23.0089 153.707V68.747L81.1864 26.2671Z" fill="url(#paint0_linear_2944_10994)"/>
<path d="M22.8998 68.7486L11.0449 59.8574V162.6L22.8998 153.708V68.7486Z" fill="#D2D2D2"/>
<path d="M139.471 68.7486L151.326 59.8574V162.6L139.471 153.708V68.7486Z" fill="#B3B3B3"/>
<path d="M81.1846 26.2676V8.48535L151.326 59.8564L139.471 68.7476L81.1846 26.2676Z" fill="url(#paint1_linear_2944_10994)"/>
<path d="M81.1846 196.189V213.972L11.0433 162.601L22.8981 153.709L81.1846 196.189Z" fill="url(#paint2_linear_2944_10994)"/>
<path d="M117.738 52.9414L22.8994 123.083V153.708L139.472 68.7479L117.738 52.9414Z" fill="url(#paint3_linear_2944_10994)"/>
<path d="M44.6327 169.513L36.7295 163.586L139.472 85.5415V95.4206L44.6327 169.513Z" fill="url(#paint4_linear_2944_10994)"/>
<path d="M139.473 153.707L117.74 169.514C110.062 139.625 128.962 124.459 139.473 121.106L139.473 153.707Z" fill="url(#paint5_radial_2944_10994)"/>
<path d="M80.0509 8.25455L104.421 19.582C82.0173 40.8039 59.5833 31.6426 51.5493 24.0809L80.0509 8.25455Z" fill="url(#paint6_radial_2944_10994)"/>
<path d="M81.4425 26.2679L104.164 43.0621C81.7606 64.2841 61.8152 53.5878 53.7812 46.026L81.4425 26.2679Z" fill="url(#paint7_radial_2944_10994)"/>
<path d="M139.474 68.7486L162.189 51.9945C170.541 81.7018 149.906 95.7831 139.473 99.3728L139.474 68.7486Z" fill="url(#paint8_radial_2944_10994)"/>
<mask id="path-13-outside-1_2944_10994" maskUnits="userSpaceOnUse" x="46.7676" y="69.5913" width="54" height="88" fill="black">
<rect fill="white" x="46.7676" y="69.5913" width="54" height="88"/>
<path d="M89.0993 78.6783C91.1857 78.9312 92.2922 79.9744 92.4186 81.8079C92.5451 85.6015 92.6399 90.0273 92.7031 95.0854C92.7664 100.08 92.798 105.296 92.798 110.734C92.8612 116.108 92.8612 121.419 92.798 126.667C92.7348 131.851 92.6715 136.53 92.6083 140.703C92.5451 143.485 91.9128 145.603 90.7115 147.057C89.5102 148.511 87.4554 149.302 84.547 149.428C83.0296 149.491 81.8283 149.333 80.9431 148.954C80.058 148.638 79.3625 148.1 78.8567 147.342C78.4141 146.583 78.098 145.635 77.9083 144.496C77.7186 143.358 77.5921 142.062 77.5289 140.608C77.2128 133.716 76.9283 126.604 76.6754 119.269C76.4857 111.872 76.296 104.664 76.1063 97.646C75.3476 97.9622 74.3676 98.4048 73.1663 98.9738C71.965 99.4796 70.6689 100.049 69.2779 100.681C67.9502 101.313 66.5908 101.914 65.1999 102.483C63.8721 102.989 62.7024 103.336 61.6908 103.526C60.4895 103.779 59.4779 103.653 58.656 103.147C57.834 102.578 57.0437 101.534 56.285 100.017C55.5263 98.4996 55.1785 97.2351 55.2418 96.2235C55.3682 95.1486 55.7792 94.3267 56.4747 93.7576C57.6127 92.8725 58.9721 91.8609 60.5528 90.7228C62.1334 89.5847 63.7773 88.4467 65.4844 87.3086C67.1915 86.1073 68.8354 84.9376 70.416 83.7996C72.0599 82.6615 73.4825 81.6815 74.6838 80.8595C75.7586 80.1008 76.7386 79.5634 77.6238 79.2473C78.5089 78.9312 79.4573 78.7099 80.4689 78.5834C81.7334 78.457 83.1876 78.4254 84.8315 78.4886C86.4754 78.4886 87.898 78.5518 89.0993 78.6783Z"/>
</mask>
<path d="M89.0993 78.6783C91.1857 78.9312 92.2922 79.9744 92.4186 81.8079C92.5451 85.6015 92.6399 90.0273 92.7031 95.0854C92.7664 100.08 92.798 105.296 92.798 110.734C92.8612 116.108 92.8612 121.419 92.798 126.667C92.7348 131.851 92.6715 136.53 92.6083 140.703C92.5451 143.485 91.9128 145.603 90.7115 147.057C89.5102 148.511 87.4554 149.302 84.547 149.428C83.0296 149.491 81.8283 149.333 80.9431 148.954C80.058 148.638 79.3625 148.1 78.8567 147.342C78.4141 146.583 78.098 145.635 77.9083 144.496C77.7186 143.358 77.5921 142.062 77.5289 140.608C77.2128 133.716 76.9283 126.604 76.6754 119.269C76.4857 111.872 76.296 104.664 76.1063 97.646C75.3476 97.9622 74.3676 98.4048 73.1663 98.9738C71.965 99.4796 70.6689 100.049 69.2779 100.681C67.9502 101.313 66.5908 101.914 65.1999 102.483C63.8721 102.989 62.7024 103.336 61.6908 103.526C60.4895 103.779 59.4779 103.653 58.656 103.147C57.834 102.578 57.0437 101.534 56.285 100.017C55.5263 98.4996 55.1785 97.2351 55.2418 96.2235C55.3682 95.1486 55.7792 94.3267 56.4747 93.7576C57.6127 92.8725 58.9721 91.8609 60.5528 90.7228C62.1334 89.5847 63.7773 88.4467 65.4844 87.3086C67.1915 86.1073 68.8354 84.9376 70.416 83.7996C72.0599 82.6615 73.4825 81.6815 74.6838 80.8595C75.7586 80.1008 76.7386 79.5634 77.6238 79.2473C78.5089 78.9312 79.4573 78.7099 80.4689 78.5834C81.7334 78.457 83.1876 78.4254 84.8315 78.4886C86.4754 78.4886 87.898 78.5518 89.0993 78.6783Z" fill="white"/>
<path d="M89.0993 78.6783L90.0503 70.8324L89.9885 70.8249L89.9266 70.8184L89.0993 78.6783ZM92.4186 81.8079L100.317 81.5446L100.313 81.4043L100.303 81.2642L92.4186 81.8079ZM92.7031 95.0854L84.8005 95.1842L84.8005 95.1854L92.7031 95.0854ZM92.798 110.734H84.8947V110.78L84.8953 110.827L92.798 110.734ZM92.798 126.667L100.701 126.763L100.701 126.762L92.798 126.667ZM92.6083 140.703L100.51 140.882L100.51 140.853L100.511 140.823L92.6083 140.703ZM90.7115 147.057L84.6184 142.024L84.6184 142.024L90.7115 147.057ZM84.547 149.428L84.876 157.324L84.8832 157.324L84.8903 157.324L84.547 149.428ZM80.9431 148.954L84.0564 141.69L83.8316 141.593L83.6013 141.511L80.9431 148.954ZM78.8567 147.342L72.03 151.324L72.1494 151.528L72.2808 151.726L78.8567 147.342ZM77.9083 144.496L85.704 143.197L85.704 143.197L77.9083 144.496ZM77.5289 140.608L85.4247 140.265L85.4243 140.255L85.4239 140.246L77.5289 140.608ZM76.6754 119.269L68.7747 119.472L68.7756 119.507L68.7768 119.542L76.6754 119.269ZM76.1063 97.646L84.0067 97.4325L83.6956 85.922L73.0666 90.3507L76.1063 97.646ZM73.1663 98.9738L76.2332 106.258L76.393 106.19L76.5496 106.116L73.1663 98.9738ZM69.2779 100.681L66.0076 93.486L65.9435 93.5151L65.8801 93.5454L69.2779 100.681ZM65.1999 102.483L68.0134 109.868L68.1033 109.834L68.1923 109.798L65.1999 102.483ZM61.6908 103.526L60.2343 95.7582L60.1483 95.7743L60.0627 95.7923L61.6908 103.526ZM58.656 103.147L54.1574 109.645L54.3325 109.766L54.5139 109.878L58.656 103.147ZM56.285 100.017L63.3539 96.4826L63.3539 96.4826L56.285 100.017ZM55.2418 96.2235L47.3927 95.3L47.3674 95.5147L47.3539 95.7305L55.2418 96.2235ZM56.4747 93.7576L51.6226 87.5192L51.5456 87.5791L51.47 87.6409L56.4747 93.7576ZM60.5528 90.7228L65.1707 97.1366H65.1707L60.5528 90.7228ZM65.4844 87.3086L69.8683 93.8845L69.9512 93.8292L70.0326 93.7719L65.4844 87.3086ZM70.416 83.7996L65.9174 77.3016L65.8574 77.3431L65.7981 77.3858L70.416 83.7996ZM74.6838 80.8595L79.1466 87.3822L79.1942 87.3495L79.2414 87.3163L74.6838 80.8595ZM77.6238 79.2473L74.9656 71.8045L74.9656 71.8045L77.6238 79.2473ZM80.4689 78.5834L79.6825 70.7194L79.5855 70.7291L79.4886 70.7412L80.4689 78.5834ZM84.8315 78.4886L84.5278 86.386L84.6796 86.3918H84.8315V78.4886ZM89.0993 78.6783L88.1483 86.5241C88.1422 86.5233 87.1382 86.4058 86.0722 85.4007C84.8892 84.2852 84.5776 82.9819 84.5341 82.3517L92.4186 81.8079L100.303 81.2642C100.133 78.8004 99.2052 76.0587 96.9157 73.9C94.7432 71.8517 92.1428 71.0861 90.0503 70.8324L89.0993 78.6783ZM92.4186 81.8079L84.5198 82.0712C84.6439 85.7954 84.7378 90.1642 84.8005 95.1842L92.7031 95.0854L100.606 94.9866C100.542 89.8904 100.446 85.4075 100.317 81.5446L92.4186 81.8079ZM92.7031 95.0854L84.8005 95.1854C84.8633 100.144 84.8947 105.327 84.8947 110.734H92.798H100.701C100.701 105.266 100.669 100.016 100.606 94.9854L92.7031 95.0854ZM92.798 110.734L84.8953 110.827C84.9578 116.14 84.9578 121.388 84.8953 126.572L92.798 126.667L100.701 126.762C100.765 121.45 100.765 116.076 100.701 110.641L92.798 110.734ZM92.798 126.667L84.8953 126.57C84.8322 131.749 84.7691 136.42 84.706 140.583L92.6083 140.703L100.511 140.823C100.574 136.64 100.637 131.954 100.701 126.763L92.798 126.667ZM92.6083 140.703L84.7071 140.523C84.6876 141.382 84.5838 141.882 84.5137 142.117C84.4489 142.334 84.4395 142.24 84.6184 142.024L90.7115 147.057L96.8046 152.091C99.5635 148.751 100.424 144.628 100.51 140.882L92.6083 140.703ZM90.7115 147.057L84.6184 142.024C84.8053 141.797 84.9998 141.63 85.1651 141.516C85.3254 141.406 85.429 141.365 85.4323 141.364C85.4328 141.364 85.3426 141.398 85.1327 141.437C84.9229 141.476 84.6186 141.514 84.2037 141.532L84.547 149.428L84.8903 157.324C88.8281 157.153 93.5576 156.021 96.8046 152.091L90.7115 147.057ZM84.547 149.428L84.218 141.532C84.0172 141.54 83.8605 141.54 83.7437 141.536C83.6265 141.531 83.5605 141.524 83.539 141.521C83.5171 141.518 83.5536 141.522 83.6376 141.543C83.7217 141.565 83.867 141.609 84.0564 141.69L80.9431 148.954L77.8299 156.218C80.2487 157.255 82.7879 157.411 84.876 157.324L84.547 149.428ZM80.9431 148.954L83.6013 141.511C83.8871 141.613 84.2359 141.786 84.5901 142.06C84.9463 142.335 85.2276 142.65 85.4326 142.958L78.8567 147.342L72.2808 151.726C73.7602 153.945 75.8518 155.528 78.285 156.397L80.9431 148.954ZM78.8567 147.342L85.6833 143.359C85.7707 143.509 85.7945 143.59 85.7853 143.562C85.7759 143.534 85.7411 143.42 85.704 143.197L77.9083 144.496L70.1126 145.796C70.4131 147.599 70.9792 149.523 72.03 151.324L78.8567 147.342ZM77.9083 144.496L85.704 143.197C85.5786 142.445 85.4774 141.477 85.4247 140.265L77.5289 140.608L69.6331 140.951C69.7069 142.647 69.8586 144.272 70.1126 145.796L77.9083 144.496ZM77.5289 140.608L85.4239 140.246C85.1092 133.386 84.8259 126.303 84.5739 118.997L76.6754 119.269L68.7768 119.542C69.0307 126.904 69.3164 134.047 69.634 140.97L77.5289 140.608ZM76.6754 119.269L84.576 119.067C84.3863 111.666 84.1965 104.454 84.0067 97.4325L76.1063 97.646L68.206 97.8596C68.3956 104.874 68.5851 112.078 68.7747 119.472L76.6754 119.269ZM76.1063 97.646L73.0666 90.3507C72.144 90.7352 71.0379 91.2369 69.7831 91.8313L73.1663 98.9738L76.5496 106.116C77.6974 105.573 78.5512 105.189 79.1461 104.941L76.1063 97.646ZM73.1663 98.9738L70.0994 91.6899C68.8195 92.2288 67.4548 92.8282 66.0076 93.486L69.2779 100.681L72.5483 107.876C73.883 107.269 75.1106 106.73 76.2332 106.258L73.1663 98.9738ZM69.2779 100.681L65.8801 93.5454C64.6886 94.1127 63.4646 94.6537 62.2074 95.168L65.1999 102.483L68.1923 109.798C69.7171 109.174 71.2117 108.514 72.6758 107.816L69.2779 100.681ZM65.1999 102.483L62.3863 95.0973C61.3458 95.4937 60.6462 95.681 60.2343 95.7582L61.6908 103.526L63.1473 111.294C64.7587 110.992 66.3984 110.484 68.0134 109.868L65.1999 102.483ZM61.6908 103.526L60.0627 95.7923C60.1498 95.774 60.4909 95.7136 61.0114 95.7787C61.5624 95.8475 62.1928 96.0434 62.798 96.4158L58.656 103.147L54.5139 109.878C57.4932 111.711 60.6981 111.812 63.319 111.26L61.6908 103.526ZM58.656 103.147L63.1546 96.6487C63.3887 96.8108 63.5459 96.9545 63.6339 97.0426C63.7219 97.1306 63.7571 97.1791 63.7464 97.1651C63.7362 97.1517 63.6933 97.093 63.6222 96.9755C63.5515 96.8587 63.4611 96.697 63.3539 96.4826L56.285 100.017L49.2161 103.551C50.206 105.531 51.7286 107.963 54.1574 109.645L58.656 103.147ZM56.285 100.017L63.3539 96.4826C63.2515 96.2779 63.1821 96.1197 63.1367 96.0056C63.1143 95.9493 63.099 95.9067 63.089 95.8773C63.0791 95.8479 63.0753 95.834 63.0755 95.835C63.0758 95.8359 63.0808 95.8541 63.0879 95.8889C63.0949 95.9236 63.1046 95.9775 63.1136 96.0493C63.1313 96.1908 63.1482 96.4187 63.1296 96.7164L55.2418 96.2235L47.3539 95.7305C47.1635 98.7779 48.206 101.531 49.2161 103.551L56.285 100.017ZM55.2418 96.2235L63.0909 97.1469C63.0658 97.3605 62.9831 97.7966 62.7137 98.3353C62.4325 98.8978 62.0139 99.4371 61.4793 99.8744L56.4747 93.7576L51.47 87.6409C48.8752 89.7639 47.7064 92.6329 47.3927 95.3L55.2418 96.2235ZM56.4747 93.7576L61.3268 99.9961C62.3666 99.1873 63.6438 98.2359 65.1707 97.1366L60.5528 90.7228L55.9348 84.309C54.3005 85.4858 52.8589 86.5576 51.6226 87.5192L56.4747 93.7576ZM60.5528 90.7228L65.1707 97.1366C66.6703 96.0568 68.236 94.9727 69.8683 93.8845L65.4844 87.3086L61.1004 80.7327C59.3185 81.9206 57.5965 83.1127 55.9348 84.309L60.5528 90.7228ZM65.4844 87.3086L70.0326 93.7719C71.7614 92.5554 73.4286 91.3692 75.0339 90.2133L70.416 83.7996L65.7981 77.3858C64.2421 78.5061 62.6216 79.6592 60.9361 80.8453L65.4844 87.3086ZM70.416 83.7996L74.9146 90.2975C76.5506 89.1649 77.9607 88.1935 79.1466 87.3822L74.6838 80.8595L70.2209 74.3369C69.0042 75.1694 67.5691 76.1581 65.9174 77.3016L70.416 83.7996ZM74.6838 80.8595L79.2414 87.3163C79.5767 87.0795 79.8371 86.9202 80.025 86.8171C80.2149 86.713 80.2983 86.6842 80.2819 86.6901L77.6238 79.2473L74.9656 71.8045C73.1965 72.4363 71.5722 73.382 70.1261 74.4028L74.6838 80.8595ZM77.6238 79.2473L80.2819 86.6901C80.5804 86.5835 80.9619 86.4865 81.4492 86.4256L80.4689 78.5834L79.4886 70.7412C77.9527 70.9332 76.4374 71.2788 74.9656 71.8045L77.6238 79.2473ZM80.4689 78.5834L81.2553 86.4474C82.0703 86.3659 83.1479 86.3329 84.5278 86.386L84.8315 78.4886L85.1353 70.5912C83.2274 70.5178 81.3965 70.548 79.6825 70.7194L80.4689 78.5834ZM84.8315 78.4886V86.3918C86.2902 86.3918 87.4232 86.4487 88.2719 86.5381L89.0993 78.6783L89.9266 70.8184C88.3727 70.6549 86.6606 70.5853 84.8315 70.5853V78.4886Z" fill="#979797" mask="url(#path-13-outside-1_2944_10994)"/>
<path d="M78.0999 40.7165C79.4917 37.9893 83.3885 37.9893 84.7803 40.7165L86.1997 43.4978C86.7446 44.5655 87.7671 45.3084 88.9509 45.4967L92.0347 45.9871C95.0585 46.468 96.2627 50.1741 94.099 52.3406L91.8925 54.5499C91.0454 55.3981 90.6549 56.6001 90.8416 57.7842L91.3281 60.8685C91.8052 63.893 88.6525 66.1835 85.9235 64.7952L83.1405 63.3794C82.0721 62.8359 80.8082 62.8359 79.7398 63.3794L76.9567 64.7952C74.2277 66.1835 71.0751 63.893 71.5521 60.8685L72.0386 57.7842C72.2254 56.6001 71.8348 55.3981 70.9878 54.5499L68.7812 52.3406C66.6176 50.1741 67.8218 46.468 70.8456 45.9871L73.9293 45.4967C75.1132 45.3084 76.1357 44.5655 76.6805 43.4978L78.0999 40.7165Z" fill="url(#paint9_radial_2944_10994)"/>
<path d="M79.7717 41.6158C80.4676 40.2522 82.416 40.2522 83.1119 41.6158L85.3846 46.0691C85.657 46.603 86.1683 46.9744 86.7602 47.0686L91.6978 47.8539C93.2098 48.0943 93.8118 49.9474 92.73 51.0306L89.197 54.5682C88.7734 54.9923 88.5782 55.5933 88.6715 56.1853L89.4505 61.124C89.689 62.6362 88.1127 63.7814 86.7482 63.0873L82.292 60.8203C81.7578 60.5486 81.1259 60.5486 80.5917 60.8203L76.1354 63.0873C74.7709 63.7814 73.1946 62.6362 73.4331 61.124L74.2121 56.1853C74.3055 55.5933 74.1102 54.9923 73.6867 54.5682L70.1536 51.0306C69.0718 49.9474 69.6739 48.0943 71.1858 47.8539L76.1234 47.0686C76.7154 46.9744 77.2266 46.603 77.499 46.0691L79.7717 41.6158Z" fill="url(#paint10_radial_2944_10994)"/>
<path d="M83.9114 47.5802C83.6863 46.1312 85.1541 46.0269 85.9161 46.1559C86.6781 46.2848 88.7543 46.7538 90.9629 47.5979C93.7237 48.6531 92.9588 49.6993 92.2905 50.1741C91.3455 50.8456 89.9078 50.3587 88.1933 50.0685C86.4787 49.7784 84.1927 49.3915 83.9114 47.5802Z" fill="url(#paint11_radial_2944_10994)"/>
<path d="M92.1992 48.4047C92.2456 47.0017 92.8765 46.7557 93.1862 46.8082C93.4959 46.8606 94.3282 47.119 95.1799 47.7335C96.2446 48.5015 95.8188 49.6052 95.4898 50.1374C95.0246 50.8901 94.464 50.5517 93.7672 50.4337C93.0704 50.3158 92.1413 50.1586 92.1992 48.4047Z" fill="url(#paint12_radial_2944_10994)" fill-opacity="0.56"/>
<path d="M72.9462 47.1975C72.4943 46.3069 73.3241 45.9151 73.7955 45.8304C74.2668 45.7458 75.5772 45.5915 77.0476 45.6514C78.8856 45.7262 78.6729 46.5741 78.3898 47.0298C77.9894 47.6742 77.0462 47.6759 75.9856 47.8663C74.925 48.0567 73.5109 48.3106 72.9462 47.1975Z" fill="url(#paint13_radial_2944_10994)" fill-opacity="0.5"/>
<path d="M76.6812 63.1445C75.9431 62.4719 76.5802 61.8114 76.991 61.5653C77.4018 61.3191 78.5724 60.7105 79.9686 60.2455C81.7139 59.6642 81.8155 60.5325 81.7122 61.0589C81.5661 61.8034 80.6846 62.1392 79.7604 62.693C78.8361 63.2469 77.6037 63.9853 76.6812 63.1445Z" fill="url(#paint14_radial_2944_10994)" fill-opacity="0.5"/>
<path d="M87.7659 55.5523C88.9966 54.7551 89.6913 56.0523 89.8848 56.8005C90.0783 57.5487 90.4981 59.6354 90.6296 61.9962C90.794 64.9471 89.5266 64.6762 88.8203 64.2601C87.8214 63.6717 87.6786 62.1606 87.2433 60.477C86.808 58.7935 86.2275 56.5488 87.7659 55.5523Z" fill="url(#paint15_radial_2944_10994)"/>
<path d="M82.6665 41.6671C83.7288 40.6562 84.6511 41.8027 84.9795 42.5023C85.3079 43.2019 86.1061 45.175 86.6716 47.4708C87.3784 50.3406 86.0827 50.3085 85.3117 50.0301C84.2213 49.6364 83.8018 48.1777 83.0629 46.6036C82.324 45.0295 81.3387 42.9307 82.6665 41.6671Z" fill="url(#paint16_radial_2944_10994)"/>
<path d="M81.186 8.48584L151.341 59.8569V162.599L81.186 213.97L11.0308 162.599V59.8569L81.186 8.48584Z" fill="black" fill-opacity="0.3"/>
<path d="M8.90332 194.965L43.2552 187.297L49.3895 213.674L15.651 220.422L19.945 206.006L8.90332 194.965Z" fill="#ABABAB"/>
<path d="M8.90332 194.965L43.2552 187.297L49.3895 213.674L15.651 220.422L19.945 206.006L8.90332 194.965Z" fill="black" fill-opacity="0.3"/>
<path d="M154.903 194.965L120.551 187.297L114.417 213.674L148.156 220.422L143.862 206.006L154.903 194.965Z" fill="#ABABAB"/>
<path d="M154.903 194.965L120.551 187.297L114.417 213.674L148.156 220.422L143.862 206.006L154.903 194.965Z" fill="black" fill-opacity="0.3"/>
<path d="M114.414 213.671L116.255 200.176L133.737 203.402L114.414 213.671Z" fill="#939393"/>
<path d="M114.414 213.671L116.255 200.176L133.737 203.402L114.414 213.671Z" fill="black" fill-opacity="0.3"/>
<path d="M138.958 177.786C94.8084 167.177 69.8166 167.556 24.8604 177.786L30.3812 203.55C70.7479 196.593 93.3768 195.902 133.744 203.55L138.958 177.786Z" fill="#D2D2D2"/>
<path d="M138.958 177.786C94.8084 167.177 69.8166 167.556 24.8604 177.786L30.3812 203.55C70.7479 196.593 93.3768 195.902 133.744 203.55L138.958 177.786Z" fill="black" fill-opacity="0.3"/>
<path d="M49.3893 213.672L47.549 200.79L30.373 203.55L49.3893 213.672Z" fill="#939393"/>
<path d="M49.3893 213.672L47.549 200.79L30.373 203.55L49.3893 213.672Z" fill="black" fill-opacity="0.3"/>
<defs>
<linearGradient id="paint0_linear_2944_10994" x1="14.0088" y1="-21.1524" x2="172.074" y2="251.51" gradientUnits="userSpaceOnUse">
<stop offset="0.164786" stop-color="#888888"/>
<stop offset="1" stop-color="#D7D7D7"/>
</linearGradient>
<linearGradient id="paint1_linear_2944_10994" x1="86.1241" y1="19.3523" x2="365.701" y2="235.704" gradientUnits="userSpaceOnUse">
<stop stop-color="#BEBEBE"/>
<stop offset="1" stop-color="#5B5B5B"/>
</linearGradient>
<linearGradient id="paint2_linear_2944_10994" x1="77.2329" y1="202.117" x2="-74.9045" y2="91.4714" gradientUnits="userSpaceOnUse">
<stop stop-color="#949494"/>
<stop offset="1" stop-color="#D8D8D8"/>
</linearGradient>
<linearGradient id="paint3_linear_2944_10994" x1="410.158" y1="-125.869" x2="-12.6652" y2="154.696" gradientUnits="userSpaceOnUse">
<stop stop-color="white" stop-opacity="0.4"/>
<stop offset="1" stop-color="white" stop-opacity="0"/>
</linearGradient>
<linearGradient id="paint4_linear_2944_10994" x1="71.3062" y1="267.316" x2="196.77" y2="10.4608" gradientUnits="userSpaceOnUse">
<stop stop-color="white" stop-opacity="0.13"/>
<stop offset="1" stop-color="white" stop-opacity="0"/>
</linearGradient>
<radialGradient id="paint5_radial_2944_10994" cx="0" cy="0" r="1" gradientTransform="matrix(-14.8186 22.7218 -11.2569 -7.85099 134.534 146.792)" gradientUnits="userSpaceOnUse">
<stop stop-color="white" stop-opacity="0.1"/>
<stop offset="1" stop-color="white" stop-opacity="0"/>
</radialGradient>
<radialGradient id="paint6_radial_2944_10994" cx="0" cy="0" r="1" gradientTransform="matrix(27.0586 1.92485 -1.39909 13.6528 76.4028 15.9297)" gradientUnits="userSpaceOnUse">
<stop stop-color="white" stop-opacity="0.1"/>
<stop offset="1" stop-color="white" stop-opacity="0"/>
</radialGradient>
<radialGradient id="paint7_radial_2944_10994" cx="0" cy="0" r="1" gradientUnits="userSpaceOnUse" gradientTransform="translate(81.4425 33.1833) scale(29.6372 18.2598)">
<stop stop-color="white" stop-opacity="0.22"/>
<stop offset="1" stop-color="white" stop-opacity="0"/>
</radialGradient>
<radialGradient id="paint8_radial_2944_10994" cx="0" cy="0" r="1" gradientTransform="matrix(14.3008 -23.0512 11.4316 7.59436 145.913 75.0895)" gradientUnits="userSpaceOnUse">
<stop stop-color="white" stop-opacity="0.1"/>
<stop offset="1" stop-color="white" stop-opacity="0"/>
</radialGradient>
<radialGradient id="paint9_radial_2944_10994" cx="0" cy="0" r="1" gradientUnits="userSpaceOnUse" gradientTransform="translate(81.4401 52.9416) rotate(90) scale(18.7702)">
<stop stop-color="#FFE86C"/>
<stop offset="1" stop-color="#FF9900"/>
</radialGradient>
<radialGradient id="paint10_radial_2944_10994" cx="0" cy="0" r="1" gradientUnits="userSpaceOnUse" gradientTransform="translate(81.4418 52.9423) rotate(90) scale(14.599)">
<stop stop-color="#FFF5BC"/>
<stop offset="0.765" stop-color="#FFA800"/>
</radialGradient>
<radialGradient id="paint11_radial_2944_10994" cx="0" cy="0" r="1" gradientUnits="userSpaceOnUse" gradientTransform="translate(88.3836 48.3537) rotate(99.6063) scale(1.75528 4.62915)">
<stop stop-color="white"/>
<stop offset="0.84" stop-color="white" stop-opacity="0"/>
</radialGradient>
<radialGradient id="paint12_radial_2944_10994" cx="0" cy="0" r="1" gradientUnits="userSpaceOnUse" gradientTransform="translate(94.0152 48.7287) rotate(99.6063) scale(1.75528 1.88138)">
<stop stop-color="white"/>
<stop offset="0.84" stop-color="white" stop-opacity="0"/>
</radialGradient>
<radialGradient id="paint13_radial_2944_10994" cx="0" cy="0" r="1" gradientUnits="userSpaceOnUse" gradientTransform="translate(75.7163 46.7116) rotate(79.8213) scale(1.2067 2.86849)">
<stop stop-color="white"/>
<stop offset="0.84" stop-color="white" stop-opacity="0"/>
</radialGradient>
<radialGradient id="paint14_radial_2944_10994" cx="0" cy="0" r="1" gradientUnits="userSpaceOnUse" gradientTransform="translate(79.0994 61.7086) rotate(59.0688) scale(1.2067 2.86849)">
<stop stop-color="white"/>
<stop offset="0.84" stop-color="white" stop-opacity="0"/>
</radialGradient>
<radialGradient id="paint15_radial_2944_10994" cx="0" cy="0" r="1" gradientUnits="userSpaceOnUse" gradientTransform="translate(88.8863 59.9505) rotate(165.501) scale(1.75528 4.62915)">
<stop stop-color="white"/>
<stop offset="0.84" stop-color="white" stop-opacity="0"/>
</radialGradient>
<radialGradient id="paint16_radial_2944_10994" cx="0" cy="0" r="1" gradientUnits="userSpaceOnUse" gradientTransform="translate(84.5803 45.7825) rotate(154.854) scale(1.75528 4.62915)">
<stop stop-color="white"/>
<stop offset="0.84" stop-color="white" stop-opacity="0"/>
</radialGradient>
</defs>
</svg>
