<svg width="166" height="220" viewBox="0 0 166 220" fill="none" xmlns="http://www.w3.org/2000/svg">
<path d="M81.9135 7.9043L152.069 59.2754V162.018L81.9135 213.389L11.7583 162.018V59.2754L81.9135 7.9043Z" fill="#B3B3B3"/>
<path d="M81.9139 25.6865L140.091 68.1665V153.126L81.9139 195.606L23.7364 153.126V68.1665L81.9139 25.6865Z" fill="url(#paint0_linear_3576_7513)"/>
<path d="M23.6273 68.1675L11.7725 59.2764V162.019L23.6273 153.127V68.1675Z" fill="#D2D2D2"/>
<path d="M140.199 68.1675L152.054 59.2764V162.019L140.199 153.127V68.1675Z" fill="#B3B3B3"/>
<path d="M81.9121 25.6866V7.9043L152.053 59.2754L140.199 68.1665L81.9121 25.6866Z" fill="url(#paint1_linear_3576_7513)"/>
<path d="M81.9121 195.609V213.391L11.7708 162.02L23.6257 153.129L81.9121 195.609Z" fill="url(#paint2_linear_3576_7513)"/>
<path d="M118.466 52.3604L23.627 122.502V153.127L140.2 68.1668L118.466 52.3604Z" fill="url(#paint3_linear_3576_7513)"/>
<path d="M45.3603 168.933L37.457 163.005L140.199 84.9609V94.84L45.3603 168.933Z" fill="url(#paint4_linear_3576_7513)"/>
<path d="M140.201 153.127L118.467 168.933C110.79 139.045 129.69 123.879 140.201 120.526L140.201 153.127Z" fill="url(#paint5_radial_3576_7513)"/>
<path d="M80.7785 7.6735L105.148 19.0009C82.7449 40.2229 60.3108 31.0616 52.2768 23.4998L80.7785 7.6735Z" fill="url(#paint6_radial_3576_7513)"/>
<path d="M82.17 25.6874L104.891 42.4816C82.4881 63.7035 62.5427 53.0073 54.5087 45.4455L82.17 25.6874Z" fill="url(#paint7_radial_3576_7513)"/>
<path d="M140.201 68.1675L162.917 51.4134C171.269 81.1207 150.634 95.202 140.201 98.7918L140.201 68.1675Z" fill="url(#paint8_radial_3576_7513)"/>
<mask id="path-13-outside-1_3576_7513" maskUnits="userSpaceOnUse" x="48.4951" y="70.0103" width="71" height="88" fill="black">
<rect fill="white" x="48.4951" y="70.0103" width="71" height="88"/>
<path d="M81.1016 109.204C83.1881 109.078 84.5474 108.951 85.1797 108.825C88.5307 108.509 91.1546 107.529 93.0513 105.885C94.9481 104.241 95.8017 102.186 95.612 99.7205C95.4223 96.7489 94.1262 94.536 91.7236 93.0818C89.321 91.5643 86.381 91.0269 82.9036 91.4695C80.501 91.7856 78.4145 92.6708 76.6442 94.125C74.9371 95.5792 73.7042 97.2231 72.9455 99.0566C72.5661 100.068 71.9339 100.859 71.0487 101.428C70.2268 101.997 69.31 102.408 68.2984 102.66C67.2868 102.913 66.2119 103.008 65.0738 102.945C63.9358 102.882 62.8926 102.724 61.9442 102.471C60.6796 102.091 59.668 101.554 58.9093 100.859C58.1506 100.163 57.6132 99.3411 57.2971 98.3927C56.9809 97.4443 56.8861 96.4327 57.0125 95.3579C57.139 94.2198 57.4235 93.1134 57.8661 92.0385C58.4351 90.5211 59.4784 88.9721 60.9958 87.3914C62.5764 85.7475 64.4732 84.2617 66.6861 82.934C68.9622 81.543 71.5229 80.405 74.3681 79.5198C77.2765 78.6346 80.4061 78.1288 83.7571 78.0024C87.4242 77.9391 90.9016 78.4133 94.1894 79.4249C97.5404 80.3733 100.449 81.7643 102.915 83.5979C105.444 85.3682 107.435 87.4863 108.889 89.9521C110.344 92.4179 111.071 95.0734 111.071 97.9185C111.071 102.471 109.869 106.138 107.467 108.92C105.127 111.702 101.966 113.63 97.983 114.705C101.966 115.211 105.033 116.728 107.182 119.257C109.395 121.723 110.502 125.011 110.502 129.121C110.502 132.029 109.869 134.748 108.605 137.277C107.34 139.743 105.57 141.892 103.294 143.726C101.018 145.559 98.2675 146.982 95.0429 147.993C91.8184 149.068 88.2778 149.606 84.421 149.606C80.4378 149.606 76.8339 149.195 73.6094 148.373C70.4481 147.551 67.7293 146.444 65.4532 145.053C63.2403 143.663 61.5332 142.05 60.3319 140.217C59.1306 138.32 58.53 136.36 58.53 134.337C58.53 133.009 58.8145 131.776 59.3835 130.638C60.0158 129.5 60.9642 128.646 62.2287 128.077C62.9874 127.698 63.7777 127.413 64.5997 127.224C65.4848 127.034 66.3384 126.971 67.1603 127.034C68.0455 127.097 68.8358 127.319 69.5313 127.698C70.2268 128.014 70.7958 128.52 71.2384 129.215C72.6926 131.681 74.5894 133.452 76.9287 134.526C79.2681 135.538 82.0184 136.075 85.1797 136.139C86.5707 136.139 87.8668 135.981 89.0681 135.664C90.2694 135.348 91.3126 134.874 92.1978 134.242C93.0829 133.546 93.7784 132.724 94.2842 131.776C94.79 130.828 95.0429 129.753 95.0429 128.552C94.9797 126.908 94.0946 125.453 92.3875 124.189C90.7436 122.861 88.7204 122.102 86.3178 121.913C85.9384 121.913 85.1797 121.881 84.0416 121.818C82.9036 121.755 81.6707 121.691 80.3429 121.628C79.0784 121.502 77.8771 121.407 76.739 121.344C75.601 121.281 74.8423 121.249 74.4629 121.249C73.0087 121.186 71.9339 120.585 71.2384 119.447C70.6061 118.309 70.29 117.013 70.29 115.559C70.29 114.104 70.6061 112.84 71.2384 111.765C71.9339 110.627 73.0087 109.963 74.4629 109.773C76.8655 109.457 79.0784 109.268 81.1016 109.204Z"/>
</mask>
<path d="M81.1016 109.204C83.1881 109.078 84.5474 108.951 85.1797 108.825C88.5307 108.509 91.1546 107.529 93.0513 105.885C94.9481 104.241 95.8017 102.186 95.612 99.7205C95.4223 96.7489 94.1262 94.536 91.7236 93.0818C89.321 91.5643 86.381 91.0269 82.9036 91.4695C80.501 91.7856 78.4145 92.6708 76.6442 94.125C74.9371 95.5792 73.7042 97.2231 72.9455 99.0566C72.5661 100.068 71.9339 100.859 71.0487 101.428C70.2268 101.997 69.31 102.408 68.2984 102.66C67.2868 102.913 66.2119 103.008 65.0738 102.945C63.9358 102.882 62.8926 102.724 61.9442 102.471C60.6796 102.091 59.668 101.554 58.9093 100.859C58.1506 100.163 57.6132 99.3411 57.2971 98.3927C56.9809 97.4443 56.8861 96.4327 57.0125 95.3579C57.139 94.2198 57.4235 93.1134 57.8661 92.0385C58.4351 90.5211 59.4784 88.9721 60.9958 87.3914C62.5764 85.7475 64.4732 84.2617 66.6861 82.934C68.9622 81.543 71.5229 80.405 74.3681 79.5198C77.2765 78.6346 80.4061 78.1288 83.7571 78.0024C87.4242 77.9391 90.9016 78.4133 94.1894 79.4249C97.5404 80.3733 100.449 81.7643 102.915 83.5979C105.444 85.3682 107.435 87.4863 108.889 89.9521C110.344 92.4179 111.071 95.0734 111.071 97.9185C111.071 102.471 109.869 106.138 107.467 108.92C105.127 111.702 101.966 113.63 97.983 114.705C101.966 115.211 105.033 116.728 107.182 119.257C109.395 121.723 110.502 125.011 110.502 129.121C110.502 132.029 109.869 134.748 108.605 137.277C107.34 139.743 105.57 141.892 103.294 143.726C101.018 145.559 98.2675 146.982 95.0429 147.993C91.8184 149.068 88.2778 149.606 84.421 149.606C80.4378 149.606 76.8339 149.195 73.6094 148.373C70.4481 147.551 67.7293 146.444 65.4532 145.053C63.2403 143.663 61.5332 142.05 60.3319 140.217C59.1306 138.32 58.53 136.36 58.53 134.337C58.53 133.009 58.8145 131.776 59.3835 130.638C60.0158 129.5 60.9642 128.646 62.2287 128.077C62.9874 127.698 63.7777 127.413 64.5997 127.224C65.4848 127.034 66.3384 126.971 67.1603 127.034C68.0455 127.097 68.8358 127.319 69.5313 127.698C70.2268 128.014 70.7958 128.52 71.2384 129.215C72.6926 131.681 74.5894 133.452 76.9287 134.526C79.2681 135.538 82.0184 136.075 85.1797 136.139C86.5707 136.139 87.8668 135.981 89.0681 135.664C90.2694 135.348 91.3126 134.874 92.1978 134.242C93.0829 133.546 93.7784 132.724 94.2842 131.776C94.79 130.828 95.0429 129.753 95.0429 128.552C94.9797 126.908 94.0946 125.453 92.3875 124.189C90.7436 122.861 88.7204 122.102 86.3178 121.913C85.9384 121.913 85.1797 121.881 84.0416 121.818C82.9036 121.755 81.6707 121.691 80.3429 121.628C79.0784 121.502 77.8771 121.407 76.739 121.344C75.601 121.281 74.8423 121.249 74.4629 121.249C73.0087 121.186 71.9339 120.585 71.2384 119.447C70.6061 118.309 70.29 117.013 70.29 115.559C70.29 114.104 70.6061 112.84 71.2384 111.765C71.9339 110.627 73.0087 109.963 74.4629 109.773C76.8655 109.457 79.0784 109.268 81.1016 109.204Z" fill="white"/>
<path d="M81.1016 109.204L81.3485 117.104L81.4642 117.1L81.5797 117.093L81.1016 109.204ZM85.1797 108.825L84.4374 100.957L84.0305 100.995L83.6297 101.075L85.1797 108.825ZM93.0513 105.885L98.2274 111.857L98.2274 111.857L93.0513 105.885ZM95.612 99.7205L87.7248 100.224L87.7281 100.275L87.732 100.327L95.612 99.7205ZM91.7236 93.0818L87.5033 99.7639L87.5669 99.804L87.6313 99.843L91.7236 93.0818ZM82.9036 91.4695L81.9057 83.6295L81.8891 83.6316L81.8726 83.6338L82.9036 91.4695ZM76.6442 94.125L71.6277 88.0179L71.573 88.0628L71.5192 88.1087L76.6442 94.125ZM72.9455 99.0566L65.6427 96.0348L65.592 96.1574L65.5454 96.2816L72.9455 99.0566ZM71.0487 101.428L66.775 94.7795L66.6612 94.8526L66.5501 94.9296L71.0487 101.428ZM65.0738 102.945L65.5122 95.0539L65.5122 95.0539L65.0738 102.945ZM61.9442 102.471L59.6732 110.041L59.79 110.076L59.9078 110.107L61.9442 102.471ZM58.9093 100.859L53.5689 106.684L53.5689 106.684L58.9093 100.859ZM57.2971 98.3927L64.7947 95.8935L64.7947 95.8935L57.2971 98.3927ZM57.0125 95.3579L64.8617 96.2813L64.8646 96.256L64.8674 96.2307L57.0125 95.3579ZM57.8661 92.0385L65.174 95.0477L65.222 94.9313L65.2661 94.8135L57.8661 92.0385ZM60.9958 87.3914L55.2989 81.9136L55.2945 81.9182L60.9958 87.3914ZM66.6861 82.934L70.7523 89.711L70.7798 89.6944L70.8073 89.6777L66.6861 82.934ZM74.3681 79.5198L72.0669 71.959L72.0436 71.9661L72.0203 71.9733L74.3681 79.5198ZM83.7571 78.0024L83.6209 70.1003L83.54 70.1017L83.4591 70.1047L83.7571 78.0024ZM94.1894 79.4249L91.8652 86.9787L91.9509 87.0051L92.0372 87.0295L94.1894 79.4249ZM102.915 83.5979L98.1987 89.9399L98.2896 90.0075L98.3824 90.0725L102.915 83.5979ZM108.889 89.9521L115.697 85.9373L115.697 85.9373L108.889 89.9521ZM107.467 108.92L101.485 103.754L101.451 103.794L101.418 103.833L107.467 108.92ZM97.983 114.705L95.924 107.075L96.9874 122.545L97.983 114.705ZM107.182 119.257L101.161 124.376L101.229 124.457L101.3 124.536L107.182 119.257ZM108.605 137.277L115.637 140.883L115.656 140.847L115.674 140.811L108.605 137.277ZM103.294 143.726L98.336 137.571V137.571L103.294 143.726ZM95.0429 147.993L92.6772 140.453L92.6103 140.474L92.5437 140.496L95.0429 147.993ZM73.6094 148.373L71.6206 156.022L71.6389 156.027L71.6572 156.031L73.6094 148.373ZM65.4532 145.053L61.2473 151.745L61.2895 151.771L61.3321 151.797L65.4532 145.053ZM60.3319 140.217L53.6551 144.445L53.6877 144.497L53.7211 144.548L60.3319 140.217ZM59.3835 130.638L52.4748 126.8L52.3914 126.95L52.3146 127.104L59.3835 130.638ZM62.2287 128.077L65.4719 135.284L65.6189 135.218L65.7631 135.146L62.2287 128.077ZM64.5997 127.224L62.9437 119.496L62.883 119.509L62.8225 119.523L64.5997 127.224ZM67.1603 127.034L66.5542 134.914L66.5757 134.916L66.5972 134.917L67.1603 127.034ZM69.5313 127.698L65.7468 134.636L65.9992 134.774L66.2609 134.893L69.5313 127.698ZM71.2384 129.215L78.046 125.201L77.9779 125.085L77.906 124.972L71.2384 129.215ZM76.9287 134.526L73.6291 141.708L73.7101 141.745L73.7918 141.78L76.9287 134.526ZM85.1797 136.139L85.0217 144.04L85.1007 144.042H85.1797V136.139ZM89.0681 135.664L87.0568 128.021L87.0568 128.021L89.0681 135.664ZM92.1978 134.242L96.7915 140.673L96.9385 140.568L97.0806 140.456L92.1978 134.242ZM94.2842 131.776L87.3108 128.057L87.3108 128.057L94.2842 131.776ZM95.0429 128.552H102.946V128.4L102.94 128.248L95.0429 128.552ZM92.3875 124.189L87.4216 130.337L87.5503 130.441L87.6832 130.54L92.3875 124.189ZM86.3178 121.913L86.9398 114.034L86.6293 114.01H86.3178V121.913ZM84.0416 121.818L84.48 113.927H84.48L84.0416 121.818ZM80.3429 121.628L79.5565 129.492L79.7614 129.513L79.967 129.523L80.3429 121.628ZM76.739 121.344L76.3006 129.235L76.739 121.344ZM74.4629 121.249L74.1196 129.145L74.2912 129.152H74.4629V121.249ZM71.2384 119.447L64.3297 123.285L64.4093 123.428L64.4947 123.568L71.2384 119.447ZM71.2384 111.765L64.4947 107.644L64.46 107.701L64.4263 107.758L71.2384 111.765ZM74.4629 109.773L75.4851 117.61L75.4939 117.609L74.4629 109.773ZM81.1016 109.204L81.5797 117.093C83.5438 116.974 85.4678 116.827 86.7297 116.575L85.1797 108.825L83.6297 101.075C83.7434 101.053 83.5916 101.086 82.954 101.145C82.3906 101.198 81.6213 101.255 80.6235 101.316L81.1016 109.204ZM85.1797 108.825L85.922 116.693C90.3615 116.275 94.7249 114.893 98.2274 111.857L93.0513 105.885L87.8753 99.9126C87.5842 100.165 86.6999 100.743 84.4374 100.957L85.1797 108.825ZM93.0513 105.885L98.2274 111.857C101.984 108.602 103.877 104.121 103.492 99.1143L95.612 99.7205L87.732 100.327C87.7381 100.406 87.7303 100.406 87.7393 100.344C87.7487 100.28 87.7714 100.185 87.8155 100.079C87.8594 99.9734 87.9072 99.8982 87.9363 99.8592C87.9632 99.8229 87.9545 99.844 87.8753 99.9126L93.0513 105.885ZM95.612 99.7205L103.499 99.217C103.156 93.8481 100.584 89.2067 95.8159 86.3205L91.7236 93.0818L87.6313 99.843C87.7391 99.9082 87.7681 99.9413 87.7537 99.927C87.7368 99.9103 87.7058 99.8738 87.678 99.8264C87.651 99.7803 87.652 99.7664 87.6649 99.8113C87.6789 99.8603 87.7098 99.9897 87.7248 100.224L95.612 99.7205ZM91.7236 93.0818L95.9439 86.3997C91.6522 83.6891 86.7653 83.011 81.9057 83.6295L82.9036 91.4695L83.9014 99.3095C85.9967 99.0428 86.9898 99.4395 87.5033 99.7639L91.7236 93.0818ZM82.9036 91.4695L81.8726 83.6338C78.0944 84.1309 74.6059 85.5715 71.6277 88.0179L76.6442 94.125L81.6607 100.232C82.2231 99.77 82.9075 99.4403 83.9346 99.3052L82.9036 91.4695ZM76.6442 94.125L71.5192 88.1087C68.9845 90.2679 66.9391 92.9018 65.6427 96.0348L72.9455 99.0566L80.2482 102.078C80.4692 101.544 80.8897 100.89 81.7692 100.141L76.6442 94.125ZM72.9455 99.0566L65.5454 96.2816C65.6288 96.0592 65.7763 95.7697 66.0154 95.4709C66.2559 95.1703 66.5253 94.94 66.775 94.7795L71.0487 101.428L75.3224 108.076C77.6802 106.56 79.3856 104.391 80.3455 101.832L72.9455 99.0566ZM71.0487 101.428L66.5501 94.9296C66.5447 94.9333 66.5095 94.9612 66.3816 94.9932L68.2984 102.66L70.2152 110.328C72.1105 109.854 73.9088 109.06 75.5473 107.926L71.0487 101.428ZM68.2984 102.66L66.3816 94.9932C66.2074 95.0367 65.9317 95.0772 65.5122 95.0539L65.0738 102.945L64.6354 110.836C66.4921 110.939 68.3661 110.79 70.2152 110.328L68.2984 102.66ZM65.0738 102.945L65.5122 95.0539C64.8299 95.016 64.3307 94.9278 63.9805 94.8344L61.9442 102.471L59.9078 110.107C61.4544 110.52 63.0417 110.748 64.6355 110.836L65.0738 102.945ZM61.9442 102.471L64.2151 94.9009C64.0066 94.8383 63.9292 94.7954 63.9449 94.8037C63.9643 94.814 64.084 94.8807 64.2497 95.0326L58.9093 100.859L53.5689 106.684C55.4182 108.38 57.579 109.412 59.6732 110.041L61.9442 102.471ZM58.9093 100.859L64.2497 95.0326C64.3327 95.1087 64.4432 95.2291 64.552 95.3954C64.6614 95.5628 64.742 95.7354 64.7947 95.8935L57.2971 98.3927L49.7994 100.892C50.5531 103.153 51.8506 105.109 53.5689 106.684L58.9093 100.859ZM57.2971 98.3927L64.7947 95.8935C64.8302 95.9998 64.8497 96.1013 64.8576 96.185C64.8652 96.2667 64.8591 96.3029 64.8617 96.2813L57.0125 95.3579L49.1634 94.4345C48.9127 96.5654 49.0866 98.7535 49.7994 100.892L57.2971 98.3927ZM57.0125 95.3579L64.8674 96.2307C64.9111 95.8379 65.0084 95.4499 65.174 95.0477L57.8661 92.0385L50.5581 89.0294C49.8386 90.7768 49.3669 92.6017 49.1576 94.4851L57.0125 95.3579ZM57.8661 92.0385L65.2661 94.8135C65.3504 94.5888 65.6766 93.9277 66.6971 92.8647L60.9958 87.3914L55.2945 81.9182C53.2801 84.0165 51.5198 86.4534 50.4661 89.2635L57.8661 92.0385ZM60.9958 87.3914L66.6927 92.8692C67.7309 91.7895 69.0608 90.7259 70.7523 89.711L66.6861 82.934L62.6199 76.157C59.8857 77.7976 57.422 79.7056 55.2989 81.9136L60.9958 87.3914ZM66.6861 82.934L70.8073 89.6777C72.4672 88.6633 74.4211 87.7802 76.7159 87.0663L74.3681 79.5198L72.0203 71.9733C68.6246 73.0297 65.4573 74.4227 62.565 76.1903L66.6861 82.934ZM74.3681 79.5198L76.6692 87.0806C78.8642 86.4126 81.3145 86.0034 84.0551 85.9L83.7571 78.0024L83.4591 70.1047C79.4978 70.2542 75.6887 70.8567 72.0669 71.959L74.3681 79.5198ZM83.7571 78.0024L83.8934 85.9044C86.7824 85.8546 89.4253 86.228 91.8652 86.9787L94.1894 79.4249L96.5136 71.8712C92.378 70.5987 88.0661 70.0237 83.6209 70.1003L83.7571 78.0024ZM94.1894 79.4249L92.0372 87.0295C94.5861 87.7509 96.5993 88.7506 98.1987 89.9399L102.915 83.5979L107.63 77.2558C104.298 74.778 100.495 72.9958 96.3416 71.8204L94.1894 79.4249ZM102.915 83.5979L98.3824 90.0725C100.059 91.2464 101.246 92.5487 102.082 93.9668L108.889 89.9521L115.697 85.9373C113.625 82.4238 110.828 79.4899 107.447 77.1233L102.915 83.5979ZM108.889 89.9521L102.082 93.9668C102.823 95.2242 103.167 96.4946 103.167 97.9185H111.071H118.974C118.974 93.6521 117.864 89.6116 115.697 85.9373L108.889 89.9521ZM111.071 97.9185H103.167C103.167 101.043 102.373 102.727 101.485 103.754L107.467 108.92L113.448 114.086C117.366 109.549 118.974 103.899 118.974 97.9185H111.071ZM107.467 108.92L101.418 103.833C100.254 105.217 98.5669 106.362 95.924 107.075L97.983 114.705L100.042 122.335C105.365 120.899 110.001 118.186 113.516 114.006L107.467 108.92ZM97.983 114.705L96.9874 122.545C99.4463 122.858 100.544 123.651 101.161 124.376L107.182 119.257L113.204 114.139C109.521 109.805 104.486 107.564 98.9785 106.865L97.983 114.705ZM107.182 119.257L101.3 124.536C101.919 125.225 102.598 126.471 102.598 129.121H110.502H118.405C118.405 123.55 116.871 118.221 113.064 113.979L107.182 119.257ZM110.502 129.121H102.598C102.598 130.838 102.236 132.343 101.536 133.742L108.605 137.277L115.674 140.811C117.503 137.153 118.405 133.22 118.405 129.121H110.502ZM108.605 137.277L101.572 133.67C100.841 135.097 99.7978 136.393 98.336 137.571L103.294 143.726L108.252 149.88C111.342 147.391 113.84 144.388 115.637 140.883L108.605 137.277ZM103.294 143.726L98.336 137.571C96.94 138.696 95.104 139.691 92.6772 140.453L95.0429 147.993L97.4087 155.534C101.431 154.272 105.096 152.423 108.252 149.88L103.294 143.726ZM95.0429 147.993L92.5437 140.496C90.2255 141.269 87.5411 141.703 84.421 141.703V149.606V157.509C89.0145 157.509 93.4114 156.868 97.5422 155.491L95.0429 147.993ZM84.421 149.606V141.703C80.9713 141.703 78.0375 141.346 75.5615 140.714L73.6094 148.373L71.6572 156.031C75.6303 157.044 79.9042 157.509 84.421 157.509V149.606ZM73.6094 148.373L75.5981 140.724C73.0263 140.055 71.0589 139.217 69.5744 138.31L65.4532 145.053L61.3321 151.797C64.3997 153.672 67.8698 155.047 71.6206 156.022L73.6094 148.373ZM65.4532 145.053L69.6591 138.362C68.2257 137.461 67.4131 136.604 66.9427 135.886L60.3319 140.217L53.7211 144.548C55.6533 147.497 58.2549 149.864 61.2473 151.745L65.4532 145.053ZM60.3319 140.217L67.0087 135.988C66.5177 135.213 66.4332 134.701 66.4332 134.337H58.53H50.6267C50.6267 138.018 51.7435 141.427 53.6551 144.445L60.3319 140.217ZM58.53 134.337H66.4332C66.4332 134.242 66.4429 134.199 66.4442 134.193C66.4453 134.189 66.4459 134.187 66.4461 134.186C66.4464 134.186 66.4479 134.181 66.4524 134.172L59.3835 130.638L52.3146 127.104C51.1728 129.387 50.6267 131.837 50.6267 134.337H58.53ZM59.3835 130.638L66.2922 134.476C66.1928 134.655 66.0445 134.849 65.856 135.019C65.6716 135.185 65.5213 135.262 65.4719 135.284L62.2287 128.077L58.9855 120.87C56.2757 122.09 53.9896 124.073 52.4748 126.8L59.3835 130.638ZM62.2287 128.077L65.7631 135.146C65.9662 135.045 66.167 134.973 66.3768 134.925L64.5997 127.224L62.8225 119.523C61.3885 119.854 60.0085 120.351 58.6942 121.008L62.2287 128.077ZM64.5997 127.224L66.2556 134.952C66.3649 134.928 66.4412 134.919 66.4875 134.916C66.5332 134.912 66.554 134.914 66.5542 134.914L67.1603 127.034L67.7665 119.154C66.1168 119.027 64.4994 119.163 62.9437 119.496L64.5997 127.224ZM67.1603 127.034L66.5972 134.917C66.4896 134.91 66.1584 134.861 65.7468 134.636L69.5313 127.698L73.3158 120.76C71.5132 119.777 69.6014 119.285 67.7234 119.151L67.1603 127.034ZM69.5313 127.698L66.2609 134.893C65.8903 134.724 65.5384 134.496 65.229 134.221C64.9232 133.949 64.7101 133.677 64.5707 133.458L71.2384 129.215L77.906 124.972C76.709 123.091 75.0026 121.504 72.8017 120.503L69.5313 127.698ZM71.2384 129.215L64.4308 133.23C66.6083 136.922 69.6626 139.885 73.6291 141.708L76.9287 134.526L80.2283 127.345C79.5161 127.018 78.7768 126.44 78.046 125.201L71.2384 129.215ZM76.9287 134.526L73.7918 141.78C77.2695 143.284 81.0735 143.961 85.0217 144.04L85.1797 136.139L85.3377 128.237C82.9633 128.189 81.2666 127.792 80.0656 127.272L76.9287 134.526ZM85.1797 136.139V144.042C87.1696 144.042 89.1487 143.816 91.0794 143.307L89.0681 135.664L87.0568 128.021C86.585 128.146 85.9717 128.235 85.1797 128.235V136.139ZM89.0681 135.664L91.0794 143.307C93.0777 142.782 95.0236 141.936 96.7915 140.673L92.1978 134.242L87.6041 127.811C87.6016 127.813 87.4611 127.915 87.0568 128.021L89.0681 135.664ZM92.1978 134.242L97.0806 140.456C98.7866 139.116 100.211 137.457 101.258 135.495L94.2842 131.776L87.3108 128.057C87.3154 128.048 87.3218 128.037 87.3296 128.026C87.3374 128.014 87.3446 128.005 87.35 127.999C87.3555 127.992 87.357 127.991 87.3528 127.995C87.3486 127.999 87.3367 128.01 87.315 128.027L92.1978 134.242ZM94.2842 131.776L101.258 135.495C102.443 133.273 102.946 130.895 102.946 128.552H95.0429H87.1397C87.1397 128.596 87.1354 128.554 87.1601 128.448C87.1858 128.339 87.2336 128.202 87.3108 128.057L94.2842 131.776ZM95.0429 128.552L102.94 128.248C102.759 123.542 100.117 120.079 97.0917 117.838L92.3875 124.189L87.6832 130.54C87.9125 130.709 87.7829 130.669 87.5807 130.337C87.3486 129.956 87.1675 129.427 87.1455 128.855L95.0429 128.552ZM92.3875 124.189L97.3534 118.041C94.3005 115.575 90.7008 114.331 86.9398 114.034L86.3178 121.913L85.6958 129.792C86.7399 129.874 87.1867 130.147 87.4216 130.337L92.3875 124.189ZM86.3178 121.913V114.01C86.3225 114.01 86.2829 114.009 86.1816 114.007C86.0856 114.004 85.9576 114 85.7932 113.993C85.4635 113.979 85.0287 113.957 84.48 113.927L84.0416 121.818L83.6032 129.709C84.7045 129.77 85.6824 129.816 86.3178 129.816V121.913ZM84.0416 121.818L84.48 113.927C83.3181 113.862 82.0641 113.798 80.7188 113.734L80.3429 121.628L79.967 129.523C81.2772 129.585 82.4891 129.647 83.6032 129.709L84.0416 121.818ZM80.3429 121.628L81.1293 113.764C79.7619 113.628 78.444 113.523 77.1774 113.453L76.739 121.344L76.3006 129.235C77.3102 129.291 78.3949 129.376 79.5565 129.492L80.3429 121.628ZM76.739 121.344L77.1774 113.453C76.0762 113.391 75.0983 113.346 74.4629 113.346V121.249V129.152C74.4582 129.152 74.4978 129.152 74.5991 129.155C74.6951 129.158 74.8231 129.162 74.9874 129.169C75.3172 129.183 75.752 129.204 76.3006 129.235L76.739 121.344ZM74.4629 121.249L74.8062 113.353C75.0882 113.365 75.7026 113.45 76.4215 113.852C77.1671 114.269 77.6824 114.835 77.9821 115.326L71.2384 119.447L64.4947 123.568C66.7039 127.183 70.32 128.979 74.1196 129.145L74.4629 121.249ZM71.2384 119.447L78.1471 115.609C78.1631 115.638 78.1768 115.667 78.1875 115.695C78.1982 115.722 78.2034 115.741 78.2052 115.749C78.207 115.756 78.2042 115.746 78.2008 115.717C78.1974 115.688 78.1932 115.636 78.1932 115.559H70.29H62.3867C62.3867 118.196 62.9716 120.84 64.3297 123.285L71.2384 119.447ZM70.29 115.559H78.1932C78.1932 115.404 78.2099 115.374 78.1944 115.436C78.1867 115.467 78.1724 115.515 78.1477 115.576C78.1229 115.637 78.0906 115.704 78.0505 115.772L71.2384 111.765L64.4263 107.758C62.9684 110.236 62.3867 112.932 62.3867 115.559H70.29ZM71.2384 111.765L77.9821 115.886C77.7197 116.315 77.2966 116.781 76.7192 117.138C76.1624 117.482 75.6913 117.583 75.4851 117.61L74.4629 109.773L73.4407 101.937C69.8844 102.4 66.5719 104.245 64.4947 107.644L71.2384 111.765ZM74.4629 109.773L75.4939 117.609C77.6852 117.321 79.6326 117.157 81.3485 117.104L81.1016 109.204L80.8548 101.305C78.5242 101.378 76.0458 101.594 73.4319 101.938L74.4629 109.773Z" fill="#979797" mask="url(#path-13-outside-1_3576_7513)"/>
<path d="M78.8275 40.1355C80.2192 37.4083 84.1161 37.4083 85.5079 40.1355L86.9272 42.9167C87.4721 43.9845 88.4946 44.7273 89.6784 44.9156L92.7622 45.4061C95.786 45.887 96.9902 49.5931 94.8266 51.7595L92.62 53.9689C91.773 54.817 91.3824 56.019 91.5692 57.2031L92.0557 60.2875C92.5327 63.3119 89.3801 65.6024 86.6511 64.2141L83.868 62.7983C82.7996 62.2548 81.5357 62.2548 80.4673 62.7983L77.6842 64.2141C74.9552 65.6024 71.8026 63.3119 72.2797 60.2875L72.7662 57.2031C72.9529 56.019 72.5624 54.817 71.7153 53.9689L69.5088 51.7595C67.3451 49.5931 68.5493 45.887 71.5731 45.4061L74.6569 44.9156C75.8407 44.7273 76.8632 43.9845 77.4081 42.9167L78.8275 40.1355Z" fill="url(#paint9_radial_3576_7513)"/>
<path d="M80.4993 41.0348C81.1951 39.6712 83.1436 39.6712 83.8395 41.0348L86.1121 45.4881C86.3846 46.0219 86.8958 46.3934 87.4877 46.4875L92.4254 47.2728C93.9373 47.5133 94.5394 49.3663 93.4576 50.4495L89.9245 53.9871C89.501 54.4112 89.3057 55.0122 89.3991 55.6043L90.178 60.5429C90.4166 62.0551 88.8402 63.2004 87.4757 62.5062L83.0195 60.2393C82.4853 59.9675 81.8534 59.9675 81.3192 60.2393L76.863 62.5062C75.4985 63.2004 73.9222 62.0551 74.1607 60.5429L74.9396 55.6042C75.033 55.0122 74.8377 54.4112 74.4142 53.9871L70.8812 50.4495C69.7993 49.3663 70.4014 47.5133 71.9133 47.2728L76.851 46.4875C77.4429 46.3934 77.9541 46.0219 78.2266 45.4881L80.4993 41.0348Z" fill="url(#paint10_radial_3576_7513)"/>
<path d="M84.6389 46.9992C84.4139 45.5502 85.8816 45.4459 86.6436 45.5748C87.4056 45.7038 89.4818 46.1728 91.6905 47.0169C94.4512 48.072 93.6863 49.1183 93.0181 49.5931C92.073 50.2645 90.6353 49.7777 88.9208 49.4875C87.2063 49.1973 84.9203 48.8104 84.6389 46.9992Z" fill="url(#paint11_radial_3576_7513)"/>
<path d="M92.9268 47.8237C92.9731 46.4206 93.6041 46.1747 93.9138 46.2271C94.2235 46.2795 95.0558 46.538 95.9075 47.1524C96.9721 47.9205 96.5464 49.0242 96.2174 49.5564C95.7521 50.309 95.1916 49.9706 94.4948 49.8527C93.7979 49.7348 92.8689 49.5775 92.9268 47.8237Z" fill="url(#paint12_radial_3576_7513)" fill-opacity="0.56"/>
<path d="M73.6737 46.6164C73.2219 45.7259 74.0517 45.334 74.523 45.2494C74.9944 45.1647 76.3047 45.0105 77.7751 45.0703C79.6131 45.1452 79.4005 45.9931 79.1174 46.4487C78.717 47.0932 77.7737 47.0948 76.7131 47.2853C75.6526 47.4757 74.2385 47.7296 73.6737 46.6164Z" fill="url(#paint13_radial_3576_7513)" fill-opacity="0.5"/>
<path d="M77.4087 62.5635C76.6706 61.8908 77.3077 61.2304 77.7185 60.9842C78.1293 60.738 79.2999 60.1295 80.6962 59.6644C82.4415 59.0832 82.543 59.9514 82.4397 60.4778C82.2937 61.2223 81.4122 61.5581 80.4879 62.112C79.5636 62.6658 78.3312 63.4043 77.4087 62.5635Z" fill="url(#paint14_radial_3576_7513)" fill-opacity="0.5"/>
<path d="M88.4934 54.9713C89.7242 54.174 90.4188 55.4712 90.6123 56.2194C90.8058 56.9677 91.2256 59.0543 91.3572 61.4151C91.5216 64.3661 90.2541 64.0951 89.5478 63.6791C88.549 63.0907 88.4062 61.5795 87.9708 59.896C87.5355 58.2125 86.955 55.9678 88.4934 54.9713Z" fill="url(#paint15_radial_3576_7513)"/>
<path d="M83.3941 41.086C84.4563 40.0751 85.3787 41.2216 85.7071 41.9212C86.0355 42.6208 86.8337 44.5939 87.3991 46.8898C88.1059 49.7596 86.8102 49.7275 86.0392 49.4491C84.9489 49.0554 84.5293 47.5966 83.7904 46.0225C83.0515 44.4484 82.0663 42.3496 83.3941 41.086Z" fill="url(#paint16_radial_3576_7513)"/>
<path d="M9.63086 194.384L43.9828 186.716L50.117 213.093L16.3786 219.841L20.6725 205.425L9.63086 194.384Z" fill="#ABABAB"/>
<path d="M9.63086 194.384L43.9828 186.716L50.117 213.093L16.3786 219.841L20.6725 205.425L9.63086 194.384Z" fill="black" fill-opacity="0.3"/>
<path d="M155.631 194.384L121.279 186.716L115.145 213.093L148.883 219.841L144.589 205.425L155.631 194.384Z" fill="#ABABAB"/>
<path d="M155.631 194.384L121.279 186.716L115.145 213.093L148.883 219.841L144.589 205.425L155.631 194.384Z" fill="black" fill-opacity="0.3"/>
<path d="M115.142 213.091L116.982 199.596L134.465 202.822L115.142 213.091Z" fill="#939393"/>
<path d="M115.142 213.091L116.982 199.596L134.465 202.822L115.142 213.091Z" fill="black" fill-opacity="0.3"/>
<path d="M139.685 177.206C95.5359 166.597 70.5441 166.976 25.5879 177.206L31.1087 202.97C71.4754 196.013 94.1043 195.322 134.471 202.97L139.685 177.206Z" fill="#D2D2D2"/>
<path d="M139.685 177.206C95.5359 166.597 70.5441 166.976 25.5879 177.206L31.1087 202.97C71.4754 196.013 94.1043 195.322 134.471 202.97L139.685 177.206Z" fill="black" fill-opacity="0.3"/>
<path d="M50.1168 213.091L48.2765 200.209L31.1006 202.97L50.1168 213.091Z" fill="#939393"/>
<path d="M50.1168 213.091L48.2765 200.209L31.1006 202.97L50.1168 213.091Z" fill="black" fill-opacity="0.3"/>
<path d="M82.1879 7.9043L152.343 59.2754V162.018L82.1879 213.389L12.0327 162.018V59.2754L82.1879 7.9043Z" fill="#B3B3B3"/>
<path d="M82.1883 25.6865L140.366 68.1665V153.126L82.1883 195.606L24.0108 153.126V68.1665L82.1883 25.6865Z" fill="url(#paint17_linear_3576_7513)"/>
<path d="M23.9017 68.1675L12.0469 59.2764V162.019L23.9017 153.127V68.1675Z" fill="#D2D2D2"/>
<path d="M140.473 68.1675L152.328 59.2764V162.019L140.473 153.127V68.1675Z" fill="#B3B3B3"/>
<path d="M82.1865 25.6866V7.9043L152.328 59.2754L140.473 68.1665L82.1865 25.6866Z" fill="url(#paint18_linear_3576_7513)"/>
<path d="M82.1865 195.609V213.391L12.0452 162.02L23.9001 153.129L82.1865 195.609Z" fill="url(#paint19_linear_3576_7513)"/>
<path d="M118.74 52.3604L23.9014 122.502V153.127L140.474 68.1668L118.74 52.3604Z" fill="url(#paint20_linear_3576_7513)"/>
<path d="M45.6347 168.933L37.7314 163.005L140.474 84.9609V94.84L45.6347 168.933Z" fill="url(#paint21_linear_3576_7513)"/>
<path d="M140.475 153.127L118.742 168.933C111.064 139.045 129.964 123.879 140.475 120.526L140.475 153.127Z" fill="url(#paint22_radial_3576_7513)"/>
<path d="M81.0529 7.6735L105.423 19.0009C83.0193 40.2229 60.5852 31.0616 52.5512 23.4998L81.0529 7.6735Z" fill="url(#paint23_radial_3576_7513)"/>
<path d="M82.4445 25.6874L105.166 42.4816C82.7625 63.7035 62.8171 53.0073 54.7831 45.4455L82.4445 25.6874Z" fill="url(#paint24_radial_3576_7513)"/>
<path d="M140.476 68.1675L163.191 51.4134C171.543 81.1207 150.908 95.202 140.475 98.7918L140.476 68.1675Z" fill="url(#paint25_radial_3576_7513)"/>
<mask id="path-40-outside-2_3576_7513" maskUnits="userSpaceOnUse" x="48.7695" y="69.0103" width="72" height="88" fill="black">
<rect fill="white" x="48.7695" y="69.0103" width="72" height="88"/>
<path d="M109.733 143.536C108.784 144.611 107.583 145.275 106.129 145.528C100.186 146.413 93.8632 147.077 87.1612 147.519C80.4593 148.025 73.6941 148.341 66.8657 148.468C65.8541 148.468 65.0005 148.31 64.305 147.993C63.6095 147.677 63.0405 147.235 62.5979 146.666C62.1554 146.16 61.8076 145.528 61.5547 144.769C61.3018 144.073 61.1437 143.346 61.0805 142.588C60.8908 141.133 61.1121 139.837 61.7444 138.699C62.3766 137.561 63.1354 136.518 64.0205 135.57C64.2102 135.317 64.8108 134.748 65.8225 133.862C66.8341 132.914 68.0038 131.808 69.3315 130.543C70.7225 129.215 72.2083 127.824 73.7889 126.37C75.4328 124.853 76.9818 123.43 78.436 122.102C79.8902 120.711 81.1548 119.51 82.2296 118.499C83.3677 117.424 84.158 116.697 84.6006 116.317C87.6986 113.346 90.2277 110.659 92.1877 108.256C94.1477 105.853 95.2225 103.577 95.4122 101.428C95.7283 98.456 94.9696 96.085 93.1361 94.3147C91.3025 92.4811 88.3625 91.6592 84.316 91.8488C83.1148 91.9121 81.9135 92.165 80.7122 92.6076C79.5741 93.0501 78.4993 93.6824 77.4876 94.5043C76.476 95.263 75.5593 96.1798 74.7373 97.2547C73.9786 98.2663 73.4096 99.3727 73.0302 100.574C72.7141 101.649 72.1767 102.534 71.418 103.23C70.6592 103.862 69.8057 104.368 68.8573 104.747C67.9089 105.063 66.8973 105.253 65.8225 105.316C64.7476 105.316 63.7044 105.19 62.6928 104.937C61.0489 104.431 59.7212 103.609 58.7095 102.471C57.6979 101.333 57.2237 100.005 57.287 98.4876C57.4134 96.0218 58.2037 93.6192 59.6579 91.2798C61.1121 88.9404 63.0405 86.854 65.4431 85.0204C67.9089 83.1237 70.7541 81.5746 73.9786 80.3733C77.2664 79.1088 80.7754 78.3185 84.5057 78.0024C88.1096 77.6862 91.5554 77.9707 94.8432 78.8559C98.1941 79.6779 101.134 81.0056 103.663 82.8391C106.192 84.6095 108.184 86.7908 109.638 89.383C111.155 91.9753 111.914 94.8205 111.914 97.9185C111.914 101.712 111.124 105.253 109.543 108.54C107.963 111.828 105.37 115.211 101.766 118.688C100.249 120.142 98.6683 121.628 97.0245 123.146C95.3806 124.663 93.7051 126.149 91.998 127.603C90.3541 129.057 88.7419 130.448 87.1612 131.776C85.6438 133.041 84.2528 134.147 82.9883 135.095C87.2877 134.716 91.3974 134.4 95.3174 134.147C99.2374 133.894 102.904 133.704 106.319 133.578C107.71 133.515 108.816 133.926 109.638 134.811C110.523 135.696 110.997 136.992 111.061 138.699C111.124 140.849 110.681 142.461 109.733 143.536Z"/>
</mask>
<path d="M109.733 143.536C108.784 144.611 107.583 145.275 106.129 145.528C100.186 146.413 93.8632 147.077 87.1612 147.519C80.4593 148.025 73.6941 148.341 66.8657 148.468C65.8541 148.468 65.0005 148.31 64.305 147.993C63.6095 147.677 63.0405 147.235 62.5979 146.666C62.1554 146.16 61.8076 145.528 61.5547 144.769C61.3018 144.073 61.1437 143.346 61.0805 142.588C60.8908 141.133 61.1121 139.837 61.7444 138.699C62.3766 137.561 63.1354 136.518 64.0205 135.57C64.2102 135.317 64.8108 134.748 65.8225 133.862C66.8341 132.914 68.0038 131.808 69.3315 130.543C70.7225 129.215 72.2083 127.824 73.7889 126.37C75.4328 124.853 76.9818 123.43 78.436 122.102C79.8902 120.711 81.1548 119.51 82.2296 118.499C83.3677 117.424 84.158 116.697 84.6006 116.317C87.6986 113.346 90.2277 110.659 92.1877 108.256C94.1477 105.853 95.2225 103.577 95.4122 101.428C95.7283 98.456 94.9696 96.085 93.1361 94.3147C91.3025 92.4811 88.3625 91.6592 84.316 91.8488C83.1148 91.9121 81.9135 92.165 80.7122 92.6076C79.5741 93.0501 78.4993 93.6824 77.4876 94.5043C76.476 95.263 75.5593 96.1798 74.7373 97.2547C73.9786 98.2663 73.4096 99.3727 73.0302 100.574C72.7141 101.649 72.1767 102.534 71.418 103.23C70.6592 103.862 69.8057 104.368 68.8573 104.747C67.9089 105.063 66.8973 105.253 65.8225 105.316C64.7476 105.316 63.7044 105.19 62.6928 104.937C61.0489 104.431 59.7212 103.609 58.7095 102.471C57.6979 101.333 57.2237 100.005 57.287 98.4876C57.4134 96.0218 58.2037 93.6192 59.6579 91.2798C61.1121 88.9404 63.0405 86.854 65.4431 85.0204C67.9089 83.1237 70.7541 81.5746 73.9786 80.3733C77.2664 79.1088 80.7754 78.3185 84.5057 78.0024C88.1096 77.6862 91.5554 77.9707 94.8432 78.8559C98.1941 79.6779 101.134 81.0056 103.663 82.8391C106.192 84.6095 108.184 86.7908 109.638 89.383C111.155 91.9753 111.914 94.8205 111.914 97.9185C111.914 101.712 111.124 105.253 109.543 108.54C107.963 111.828 105.37 115.211 101.766 118.688C100.249 120.142 98.6683 121.628 97.0245 123.146C95.3806 124.663 93.7051 126.149 91.998 127.603C90.3541 129.057 88.7419 130.448 87.1612 131.776C85.6438 133.041 84.2528 134.147 82.9883 135.095C87.2877 134.716 91.3974 134.4 95.3174 134.147C99.2374 133.894 102.904 133.704 106.319 133.578C107.71 133.515 108.816 133.926 109.638 134.811C110.523 135.696 110.997 136.992 111.061 138.699C111.124 140.849 110.681 142.461 109.733 143.536Z" fill="white"/>
<path d="M109.733 143.536L103.807 138.307L103.807 138.307L109.733 143.536ZM106.129 145.528L107.293 153.345L107.388 153.331L107.483 153.314L106.129 145.528ZM87.1612 147.519L86.6404 139.633L86.6034 139.636L86.5664 139.638L87.1612 147.519ZM66.8657 148.468V156.371H66.9389L67.012 156.37L66.8657 148.468ZM64.305 147.993L61.0346 155.188H61.0346L64.305 147.993ZM62.5979 146.666L68.8364 141.814L68.6961 141.633L68.5457 141.461L62.5979 146.666ZM61.5547 144.769L69.0524 142.27L69.0186 142.168L68.9821 142.068L61.5547 144.769ZM61.0805 142.588L68.9565 141.931L68.9412 141.748L68.9174 141.565L61.0805 142.588ZM61.7444 138.699L54.8357 134.861H54.8357L61.7444 138.699ZM64.0205 135.57L69.7982 140.962L70.0882 140.651L70.3431 140.312L64.0205 135.57ZM65.8225 133.862L71.0268 139.81L71.1289 139.721L71.2278 139.628L65.8225 133.862ZM69.3315 130.543L74.782 136.266L74.7885 136.26L69.3315 130.543ZM73.7889 126.37L79.1399 132.186L79.1495 132.178L73.7889 126.37ZM78.436 122.102L83.7649 127.939L83.8327 127.877L83.8989 127.814L78.436 122.102ZM82.2296 118.499L87.6462 124.254L87.6561 124.244L82.2296 118.499ZM84.6006 116.317L89.7439 122.318L89.9118 122.174L90.0714 122.021L84.6006 116.317ZM92.1877 108.256L86.0637 103.26L92.1877 108.256ZM95.4122 101.428L87.5533 100.592L87.5458 100.662L87.5395 100.733L95.4122 101.428ZM93.1361 94.3147L87.5476 99.9031L87.5966 99.9521L87.6465 100L93.1361 94.3147ZM84.316 91.8488L83.946 83.9543L83.9233 83.9553L83.9007 83.9565L84.316 91.8488ZM80.7122 92.6076L77.98 85.1916L77.9136 85.2161L77.8477 85.2417L80.7122 92.6076ZM77.4876 94.5043L82.2296 100.827L82.3523 100.735L82.4714 100.638L77.4876 94.5043ZM74.7373 97.2547L68.4593 92.4538L68.4369 92.4832L68.4147 92.5127L74.7373 97.2547ZM73.0302 100.574L65.4938 98.1941L65.4702 98.2688L65.4481 98.344L73.0302 100.574ZM71.418 103.23L76.4775 109.301L76.6208 109.182L76.7584 109.055L71.418 103.23ZM68.8573 104.747L71.3565 112.245L71.5769 112.171L71.7925 112.085L68.8573 104.747ZM65.8225 105.316V113.219H66.0547L66.2865 113.206L65.8225 105.316ZM62.6928 104.937L60.3685 112.49L60.5707 112.553L60.776 112.604L62.6928 104.937ZM57.287 98.4876L49.3941 98.0828L49.3921 98.1207L49.3906 98.1586L57.287 98.4876ZM59.6579 91.2798L52.9458 87.1074L59.6579 91.2798ZM65.4431 85.0204L70.2378 91.3031L70.2498 91.294L70.2618 91.2847L65.4431 85.0204ZM73.9786 80.3733L76.7377 87.7793L76.7768 87.7648L76.8157 87.7498L73.9786 80.3733ZM84.5057 78.0024L85.1731 85.8774L85.1847 85.8764L85.1963 85.8754L84.5057 78.0024ZM94.8432 78.8559L92.7885 86.4874L92.8742 86.5105L92.9604 86.5316L94.8432 78.8559ZM103.663 82.8391L99.0242 89.2377L99.0773 89.2762L99.131 89.3137L103.663 82.8391ZM109.638 89.383L102.745 93.2497L102.781 93.313L102.817 93.3756L109.638 89.383ZM109.543 108.54L116.666 111.965L116.666 111.965L109.543 108.54ZM101.766 118.688L107.235 124.394L107.244 124.385L107.254 124.376L101.766 118.688ZM97.0245 123.146L102.385 128.953L102.385 128.953L97.0245 123.146ZM91.998 127.603L86.873 121.587L86.8168 121.635L86.7615 121.684L91.998 127.603ZM87.1612 131.776L92.2207 137.847L92.2327 137.838L92.2445 137.828L87.1612 131.776ZM82.9883 135.095L78.2464 128.773L56.0709 145.404L83.6829 142.968L82.9883 135.095ZM106.319 133.578L106.611 141.476L106.644 141.475L106.678 141.473L106.319 133.578ZM109.638 134.811L103.847 140.189L103.946 140.296L104.05 140.399L109.638 134.811ZM111.061 138.699L118.96 138.467L118.96 138.437L118.958 138.407L111.061 138.699ZM109.733 143.536L103.807 138.307C103.905 138.196 104.071 138.048 104.298 137.923C104.522 137.799 104.702 137.754 104.775 137.741L106.129 145.528L107.483 153.314C110.651 152.763 113.484 151.23 115.659 148.765L109.733 143.536ZM106.129 145.528L104.965 137.711C99.2581 138.561 93.1517 139.203 86.6404 139.633L87.1612 147.519L87.682 155.405C94.5746 154.95 101.113 154.265 107.293 153.345L106.129 145.528ZM87.1612 147.519L86.5664 139.638C80.0161 140.133 73.4005 140.442 66.7194 140.566L66.8657 148.468L67.012 156.37C73.9877 156.24 80.9024 155.917 87.756 155.4L87.1612 147.519ZM66.8657 148.468V140.564C66.7656 140.564 66.7879 140.556 66.9059 140.578C67.0266 140.6 67.2654 140.658 67.5754 140.799L64.305 147.993L61.0346 155.188C63.033 156.097 65.0742 156.371 66.8657 156.371V148.468ZM64.305 147.993L67.5754 140.799C67.9726 140.979 68.4468 141.313 68.8364 141.814L62.5979 146.666L56.3595 151.518C57.6342 153.157 59.2465 154.376 61.0346 155.188L64.305 147.993ZM62.5979 146.666L68.5457 141.461C68.9124 141.88 69.0353 142.218 69.0524 142.27L61.5547 144.769L54.057 147.268C54.5799 148.837 55.3983 150.439 56.6501 151.87L62.5979 146.666ZM61.5547 144.769L68.9821 142.068C68.9756 142.05 68.9632 142.012 68.9565 141.931L61.0805 142.588L53.2046 143.244C53.3243 144.681 53.6281 146.097 54.1273 147.47L61.5547 144.769ZM61.0805 142.588L68.9174 141.565C68.9129 141.531 68.9311 141.642 68.8947 141.855C68.8567 142.078 68.7748 142.318 68.6531 142.537L61.7444 138.699L54.8357 134.861C53.2793 137.663 52.8641 140.7 53.2437 143.61L61.0805 142.588ZM61.7444 138.699L68.6531 142.537C68.9741 141.96 69.3535 141.439 69.7982 140.962L64.0205 135.57L58.2428 130.177C56.9172 131.597 55.7792 133.163 54.8357 134.861L61.7444 138.699ZM64.0205 135.57L70.3431 140.312C70.2044 140.496 70.0922 140.626 70.0412 140.684C69.9838 140.749 69.9456 140.789 69.9368 140.798C69.9219 140.814 69.9518 140.782 70.0487 140.691C70.2416 140.508 70.5576 140.221 71.0268 139.81L65.8225 133.862L60.6181 127.915C60.0757 128.389 59.5855 128.83 59.1778 129.216C58.9096 129.47 58.2463 130.096 57.6979 130.828L64.0205 135.57ZM65.8225 133.862L71.2278 139.628C72.2584 138.662 73.4437 137.541 74.782 136.266L69.3315 130.543L63.881 124.82C62.5638 126.075 61.4097 127.166 60.4171 128.097L65.8225 133.862ZM69.3315 130.543L74.7885 136.26C76.1407 134.969 77.5908 133.612 79.1399 132.186L73.7889 126.37L68.438 120.554C66.8257 122.037 65.3043 123.461 63.8745 124.826L69.3315 130.543ZM73.7889 126.37L79.1495 132.178C80.7843 130.669 82.3227 129.256 83.7649 127.939L78.436 122.102L73.1071 116.266C71.641 117.605 70.0813 119.037 68.4283 120.563L73.7889 126.37ZM78.436 122.102L83.8989 127.814C85.3429 126.433 86.5912 125.247 87.6462 124.254L82.2296 118.499L76.813 112.743C75.7183 113.774 74.4376 114.99 72.9731 116.391L78.436 122.102ZM82.2296 118.499L87.6561 124.244C88.8057 123.159 89.4658 122.556 89.7439 122.318L84.6006 116.317L79.4572 110.317C78.8501 110.837 77.9296 111.689 76.803 112.753L82.2296 118.499ZM84.6006 116.317L90.0714 122.021C93.3203 118.905 96.0881 115.977 98.3116 113.252L92.1877 108.256L86.0637 103.26C84.3672 105.34 82.077 107.787 79.1297 110.614L84.6006 116.317ZM92.1877 108.256L98.3116 113.252C100.854 110.135 102.908 106.398 103.285 102.122L95.4122 101.428L87.5395 100.733C87.5375 100.756 87.4409 101.572 86.0637 103.26L92.1877 108.256ZM95.4122 101.428L103.271 102.264C103.795 97.3391 102.526 92.3951 98.6256 88.6291L93.1361 94.3147L87.6465 100C87.6626 100.016 87.6421 99.9985 87.6106 99.9483C87.5787 99.8973 87.5601 99.8516 87.553 99.8293C87.5372 99.78 87.618 99.9835 87.5533 100.592L95.4122 101.428ZM93.1361 94.3147L98.7245 88.7262C94.6177 84.6194 88.9823 83.7182 83.946 83.9543L84.316 91.8488L84.6861 99.7434C86.1251 99.676 86.9865 99.811 87.428 99.9344C87.8228 100.045 87.7491 100.105 87.5476 99.9031L93.1361 94.3147ZM84.316 91.8488L83.9007 83.9565C81.8582 84.064 79.8774 84.4925 77.98 85.1916L80.7122 92.6076L83.4444 100.024C83.9495 99.8374 84.3713 99.7601 84.7314 99.7412L84.316 91.8488ZM80.7122 92.6076L77.8477 85.2417C75.8933 86.0017 74.1105 87.0652 72.5039 88.3705L77.4876 94.5043L82.4714 100.638C82.888 100.3 83.2549 100.099 83.5767 99.9734L80.7122 92.6076ZM77.4876 94.5043L72.7457 88.1817C71.1157 89.4043 69.6904 90.8439 68.4593 92.4538L74.7373 97.2547L81.0153 102.055C81.4281 101.516 81.8364 101.122 82.2296 100.827L77.4876 94.5043ZM74.7373 97.2547L68.4147 92.5127C67.1231 94.2348 66.1427 96.1394 65.4938 98.1941L73.0302 100.574L80.5666 102.954C80.6765 102.606 80.8341 102.298 81.0599 101.997L74.7373 97.2547ZM73.0302 100.574L65.4481 98.344C65.4676 98.2778 65.52 98.131 65.6345 97.9424C65.7512 97.7502 65.9026 97.564 66.0775 97.4036L71.418 103.23L76.7584 109.055C78.6708 107.302 79.9274 105.133 80.6123 102.804L73.0302 100.574ZM71.418 103.23L66.3584 97.1581C66.2586 97.2412 66.127 97.327 65.9221 97.409L68.8573 104.747L71.7925 112.085C73.4844 111.408 75.0598 110.482 76.4775 109.301L71.418 103.23ZM68.8573 104.747L66.3581 97.2493C66.1165 97.3298 65.7936 97.4008 65.3584 97.4264L65.8225 105.316L66.2865 113.206C68.001 113.105 69.7014 112.796 71.3565 112.245L68.8573 104.747ZM65.8225 105.316V97.4127C65.3738 97.4127 64.9752 97.3608 64.6096 97.2693L62.6928 104.937L60.776 112.604C62.4335 113.018 64.1214 113.219 65.8225 113.219V105.316ZM62.6928 104.937L65.017 97.3829C64.7755 97.3086 64.6593 97.2429 64.624 97.221C64.5937 97.2022 64.6012 97.203 64.6165 97.2202L58.7095 102.471L52.8026 107.721C54.8951 110.076 57.5256 111.616 60.3685 112.49L62.6928 104.937ZM58.7095 102.471L64.6165 97.2202C64.7299 97.3477 64.9077 97.5984 65.038 97.9633C65.1684 98.3285 65.1908 98.6388 65.1833 98.8166L57.287 98.4876L49.3906 98.1586C49.2418 101.729 50.4335 105.056 52.8026 107.721L58.7095 102.471ZM57.287 98.4876L65.1798 98.8923C65.2301 97.9111 65.5387 96.7896 66.37 95.4522L59.6579 91.2798L52.9458 87.1074C50.8688 90.4487 49.5967 94.1324 49.3941 98.0828L57.287 98.4876ZM59.6579 91.2798L66.37 95.4522C67.2713 94.0023 68.5229 92.6119 70.2378 91.3031L65.4431 85.0204L60.6484 78.7377C57.5581 81.0961 54.9529 83.8786 52.9458 87.1074L59.6579 91.2798ZM65.4431 85.0204L70.2618 91.2847C72.0394 89.9173 74.1752 88.734 76.7377 87.7793L73.9786 80.3733L71.2195 72.9673C67.333 74.4153 63.7784 76.33 60.6244 78.7561L65.4431 85.0204ZM73.9786 80.3733L76.8157 87.7498C79.365 86.7693 82.1393 86.1345 85.1731 85.8774L84.5057 78.0024L83.8384 70.1273C79.4115 70.5025 75.1677 71.4483 71.1415 72.9969L73.9786 80.3733ZM84.5057 78.0024L85.1963 85.8754C87.9361 85.635 90.4493 85.8576 92.7885 86.4874L94.8432 78.8559L96.8978 71.2244C92.6615 70.0839 88.2831 69.7374 83.8151 70.1293L84.5057 78.0024ZM94.8432 78.8559L92.9604 86.5316C95.4227 87.1356 97.4052 88.0639 99.0242 89.2377L103.663 82.8391L108.302 76.4406C104.863 73.9473 100.966 72.2201 96.7259 71.1802L94.8432 78.8559ZM103.663 82.8391L99.131 89.3137C100.726 90.4302 101.895 91.7334 102.745 93.2497L109.638 89.383L116.531 85.5164C114.473 81.8481 111.659 78.7888 108.195 76.3646L103.663 82.8391ZM109.638 89.383L102.817 93.3756C103.603 94.7175 104.011 96.1777 104.011 97.9185H111.914H119.817C119.817 93.4632 118.708 89.2331 116.459 85.3905L109.638 89.383ZM111.914 97.9185H104.011C104.011 100.575 103.467 102.94 102.42 105.116L109.543 108.54L116.666 111.965C118.781 107.566 119.817 102.849 119.817 97.9185H111.914ZM109.543 108.54L102.42 105.116C101.367 107.308 99.4417 109.949 96.2786 113.001L101.766 118.688L107.254 124.376C111.299 120.473 114.558 116.349 116.666 111.965L109.543 108.54ZM101.766 118.688L96.2981 112.982C94.8185 114.4 93.2738 115.852 91.6638 117.338L97.0245 123.146L102.385 128.953C104.063 127.404 105.68 125.885 107.235 124.394L101.766 118.688ZM97.0245 123.146L91.6639 117.338C90.0973 118.784 88.5004 120.201 86.873 121.587L91.998 127.603L97.123 133.619C98.9098 132.097 100.664 130.542 102.385 128.953L97.0245 123.146ZM91.998 127.603L86.7615 121.684C85.165 123.096 83.6038 124.443 82.0779 125.724L87.1612 131.776L92.2445 137.828C93.8799 136.454 95.5433 135.019 97.2345 133.523L91.998 127.603ZM87.1612 131.776L82.1017 125.705C80.6637 126.903 79.3802 127.922 78.2464 128.773L82.9883 135.095L87.7302 141.418C89.1254 140.372 90.6239 139.178 92.2207 137.847L87.1612 131.776ZM82.9883 135.095L83.6829 142.968C87.9264 142.594 91.9739 142.282 95.8262 142.034L95.3174 134.147L94.8085 126.26C90.8208 126.517 86.6489 126.838 82.2937 127.223L82.9883 135.095ZM95.3174 134.147L95.8262 142.034C99.6845 141.785 103.279 141.599 106.611 141.476L106.319 133.578L106.026 125.68C102.53 125.81 98.7902 126.003 94.8085 126.26L95.3174 134.147ZM106.319 133.578L106.678 141.473C106.501 141.481 106.042 141.471 105.44 141.247C104.807 141.013 104.256 140.629 103.847 140.189L109.638 134.811L115.429 129.433C112.777 126.576 109.276 125.532 105.96 125.683L106.319 133.578ZM109.638 134.811L104.05 140.399C103.599 139.949 103.352 139.482 103.235 139.162C103.13 138.873 103.155 138.777 103.163 138.992L111.061 138.699L118.958 138.407C118.849 135.443 117.969 131.965 115.226 129.222L109.638 134.811ZM111.061 138.699L103.161 138.932C103.176 139.434 103.119 139.56 103.155 139.429C103.199 139.266 103.362 138.811 103.807 138.307L109.733 143.536L115.659 148.765C118.466 145.584 119.054 141.64 118.96 138.467L111.061 138.699Z" fill="#979797" mask="url(#path-40-outside-2_3576_7513)"/>
<path d="M79.1019 40.1355C80.4937 37.4083 84.3905 37.4083 85.7823 40.1355L87.2017 42.9167C87.7465 43.9845 88.769 44.7273 89.9529 44.9156L93.0366 45.4061C96.0604 45.887 97.2646 49.5931 95.101 51.7595L92.8944 53.9689C92.0474 54.817 91.6568 56.019 91.8436 57.2031L92.3301 60.2875C92.8071 63.3119 89.6545 65.6024 86.9255 64.2141L84.1424 62.7983C83.074 62.2548 81.8102 62.2548 80.7417 62.7983L77.9587 64.2141C75.2297 65.6024 72.0771 63.3119 72.5541 60.2875L73.0406 57.2031C73.2273 56.019 72.8368 54.817 71.9897 53.9689L69.7832 51.7595C67.6195 49.5931 68.8237 45.887 71.8475 45.4061L74.9313 44.9156C76.1151 44.7273 77.1376 43.9845 77.6825 42.9167L79.1019 40.1355Z" fill="url(#paint26_radial_3576_7513)"/>
<path d="M80.7737 41.0348C81.4696 39.6712 83.418 39.6712 84.1139 41.0348L86.3866 45.4881C86.659 46.0219 87.1702 46.3934 87.7622 46.4875L92.6998 47.2728C94.2117 47.5133 94.8138 49.3663 93.732 50.4495L90.1989 53.9871C89.7754 54.4112 89.5801 55.0122 89.6735 55.6043L90.4524 60.5429C90.691 62.0551 89.1147 63.2004 87.7502 62.5062L83.2939 60.2393C82.7597 59.9675 82.1278 59.9675 81.5936 60.2393L77.1374 62.5062C75.7729 63.2004 74.1966 62.0551 74.4351 60.5429L75.2141 55.6042C75.3074 55.0122 75.1122 54.4112 74.6886 53.9871L71.1556 50.4495C70.0737 49.3663 70.6758 47.5133 72.1878 47.2728L77.1254 46.4875C77.7173 46.3934 78.2286 46.0219 78.501 45.4881L80.7737 41.0348Z" fill="url(#paint27_radial_3576_7513)"/>
<path d="M84.9134 46.9992C84.6883 45.5502 86.156 45.4459 86.9181 45.5748C87.6801 45.7038 89.7562 46.1728 91.9649 47.0169C94.7257 48.072 93.9607 49.1183 93.2925 49.5931C92.3475 50.2645 90.9097 49.7777 89.1952 49.4875C87.4807 49.1973 85.1947 48.8104 84.9134 46.9992Z" fill="url(#paint28_radial_3576_7513)"/>
<path d="M93.2012 47.8237C93.2475 46.4206 93.8785 46.1747 94.1882 46.2271C94.4979 46.2795 95.3302 46.538 96.1819 47.1524C97.2465 47.9205 96.8208 49.0242 96.4918 49.5564C96.0265 50.309 95.466 49.9706 94.7692 49.8527C94.0724 49.7348 93.1433 49.5775 93.2012 47.8237Z" fill="url(#paint29_radial_3576_7513)" fill-opacity="0.56"/>
<path d="M73.9481 46.6164C73.4963 45.7259 74.3261 45.334 74.7974 45.2494C75.2688 45.1647 76.5791 45.0105 78.0495 45.0703C79.8876 45.1452 79.6749 45.9931 79.3918 46.4487C78.9914 47.0932 78.0481 47.0948 76.9875 47.2853C75.927 47.4757 74.5129 47.7296 73.9481 46.6164Z" fill="url(#paint30_radial_3576_7513)" fill-opacity="0.5"/>
<path d="M77.6831 62.5635C76.9451 61.8908 77.5821 61.2304 77.9929 60.9842C78.4037 60.738 79.5744 60.1295 80.9706 59.6644C82.7159 59.0832 82.8174 59.9514 82.7142 60.4778C82.5681 61.2223 81.6866 61.5581 80.7623 62.112C79.838 62.6658 78.6057 63.4043 77.6831 62.5635Z" fill="url(#paint31_radial_3576_7513)" fill-opacity="0.5"/>
<path d="M88.7679 54.9713C89.9986 54.174 90.6932 55.4712 90.8867 56.2194C91.0802 56.9677 91.5001 59.0543 91.6316 61.4151C91.796 64.3661 90.5285 64.0951 89.8222 63.6791C88.8234 63.0907 88.6806 61.5795 88.2453 59.896C87.8099 58.2125 87.2295 55.9678 88.7679 54.9713Z" fill="url(#paint32_radial_3576_7513)"/>
<path d="M83.6685 41.086C84.7307 40.0751 85.6531 41.2216 85.9815 41.9212C86.3099 42.6208 87.1081 44.5939 87.6735 46.8898C88.3804 49.7596 87.0847 49.7275 86.3136 49.4491C85.2233 49.0554 84.8037 47.5966 84.0648 46.0225C83.3259 44.4484 82.3407 42.3496 83.6685 41.086Z" fill="url(#paint33_radial_3576_7513)"/>
<path d="M9.90527 194.384L44.2572 186.716L50.3914 213.093L16.653 219.841L20.947 205.425L9.90527 194.384Z" fill="#ABABAB"/>
<path d="M9.90527 194.384L44.2572 186.716L50.3914 213.093L16.653 219.841L20.947 205.425L9.90527 194.384Z" fill="black" fill-opacity="0.3"/>
<path d="M155.905 194.384L121.553 186.716L115.419 213.093L149.158 219.841L144.864 205.425L155.905 194.384Z" fill="#ABABAB"/>
<path d="M155.905 194.384L121.553 186.716L115.419 213.093L149.158 219.841L144.864 205.425L155.905 194.384Z" fill="black" fill-opacity="0.3"/>
<path d="M115.416 213.091L117.257 199.596L134.739 202.822L115.416 213.091Z" fill="#939393"/>
<path d="M115.416 213.091L117.257 199.596L134.739 202.822L115.416 213.091Z" fill="black" fill-opacity="0.3"/>
<path d="M139.96 177.206C95.8103 166.597 70.8185 166.976 25.8623 177.206L31.3831 202.97C71.7498 196.013 94.3788 195.322 134.746 202.97L139.96 177.206Z" fill="#D2D2D2"/>
<path d="M139.96 177.206C95.8103 166.597 70.8185 166.976 25.8623 177.206L31.3831 202.97C71.7498 196.013 94.3788 195.322 134.746 202.97L139.96 177.206Z" fill="black" fill-opacity="0.3"/>
<path d="M50.3912 213.091L48.551 200.209L31.375 202.97L50.3912 213.091Z" fill="#939393"/>
<path d="M50.3912 213.091L48.551 200.209L31.375 202.97L50.3912 213.091Z" fill="black" fill-opacity="0.3"/>
<defs>
<linearGradient id="paint0_linear_3576_7513" x1="14.7363" y1="-21.7329" x2="172.801" y2="250.929" gradientUnits="userSpaceOnUse">
<stop offset="0.164786" stop-color="#888888"/>
<stop offset="1" stop-color="#D7D7D7"/>
</linearGradient>
<linearGradient id="paint1_linear_3576_7513" x1="86.8516" y1="18.7713" x2="366.429" y2="235.123" gradientUnits="userSpaceOnUse">
<stop stop-color="#BEBEBE"/>
<stop offset="1" stop-color="#5B5B5B"/>
</linearGradient>
<linearGradient id="paint2_linear_3576_7513" x1="77.9605" y1="201.536" x2="-74.1769" y2="90.8908" gradientUnits="userSpaceOnUse">
<stop stop-color="#949494"/>
<stop offset="1" stop-color="#D8D8D8"/>
</linearGradient>
<linearGradient id="paint3_linear_3576_7513" x1="410.886" y1="-126.451" x2="-11.9377" y2="154.115" gradientUnits="userSpaceOnUse">
<stop stop-color="white" stop-opacity="0.4"/>
<stop offset="1" stop-color="white" stop-opacity="0"/>
</linearGradient>
<linearGradient id="paint4_linear_3576_7513" x1="72.0337" y1="266.736" x2="197.498" y2="9.88019" gradientUnits="userSpaceOnUse">
<stop stop-color="white" stop-opacity="0.13"/>
<stop offset="1" stop-color="white" stop-opacity="0"/>
</linearGradient>
<radialGradient id="paint5_radial_3576_7513" cx="0" cy="0" r="1" gradientTransform="matrix(-14.8186 22.7218 -11.2569 -7.85099 135.262 146.211)" gradientUnits="userSpaceOnUse">
<stop stop-color="white" stop-opacity="0.1"/>
<stop offset="1" stop-color="white" stop-opacity="0"/>
</radialGradient>
<radialGradient id="paint6_radial_3576_7513" cx="0" cy="0" r="1" gradientTransform="matrix(27.0586 1.92485 -1.39909 13.6528 77.1304 15.3487)" gradientUnits="userSpaceOnUse">
<stop stop-color="white" stop-opacity="0.1"/>
<stop offset="1" stop-color="white" stop-opacity="0"/>
</radialGradient>
<radialGradient id="paint7_radial_3576_7513" cx="0" cy="0" r="1" gradientUnits="userSpaceOnUse" gradientTransform="translate(82.17 32.6027) scale(29.6372 18.2598)">
<stop stop-color="white" stop-opacity="0.22"/>
<stop offset="1" stop-color="white" stop-opacity="0"/>
</radialGradient>
<radialGradient id="paint8_radial_3576_7513" cx="0" cy="0" r="1" gradientTransform="matrix(14.3008 -23.0512 11.4316 7.59436 146.64 74.5085)" gradientUnits="userSpaceOnUse">
<stop stop-color="white" stop-opacity="0.1"/>
<stop offset="1" stop-color="white" stop-opacity="0"/>
</radialGradient>
<radialGradient id="paint9_radial_3576_7513" cx="0" cy="0" r="1" gradientUnits="userSpaceOnUse" gradientTransform="translate(82.1677 52.3605) rotate(90) scale(18.7702)">
<stop stop-color="#FFE86C"/>
<stop offset="1" stop-color="#FF9900"/>
</radialGradient>
<radialGradient id="paint10_radial_3576_7513" cx="0" cy="0" r="1" gradientUnits="userSpaceOnUse" gradientTransform="translate(82.1694 52.3613) rotate(90) scale(14.599)">
<stop stop-color="#FFF5BC"/>
<stop offset="0.765" stop-color="#FFA800"/>
</radialGradient>
<radialGradient id="paint11_radial_3576_7513" cx="0" cy="0" r="1" gradientUnits="userSpaceOnUse" gradientTransform="translate(89.1112 47.7727) rotate(99.6063) scale(1.75528 4.62915)">
<stop stop-color="white"/>
<stop offset="0.84" stop-color="white" stop-opacity="0"/>
</radialGradient>
<radialGradient id="paint12_radial_3576_7513" cx="0" cy="0" r="1" gradientUnits="userSpaceOnUse" gradientTransform="translate(94.7427 48.1476) rotate(99.6063) scale(1.75528 1.88138)">
<stop stop-color="white"/>
<stop offset="0.84" stop-color="white" stop-opacity="0"/>
</radialGradient>
<radialGradient id="paint13_radial_3576_7513" cx="0" cy="0" r="1" gradientUnits="userSpaceOnUse" gradientTransform="translate(76.4438 46.1305) rotate(79.8213) scale(1.2067 2.86849)">
<stop stop-color="white"/>
<stop offset="0.84" stop-color="white" stop-opacity="0"/>
</radialGradient>
<radialGradient id="paint14_radial_3576_7513" cx="0" cy="0" r="1" gradientUnits="userSpaceOnUse" gradientTransform="translate(79.8269 61.1276) rotate(59.0688) scale(1.2067 2.86849)">
<stop stop-color="white"/>
<stop offset="0.84" stop-color="white" stop-opacity="0"/>
</radialGradient>
<radialGradient id="paint15_radial_3576_7513" cx="0" cy="0" r="1" gradientUnits="userSpaceOnUse" gradientTransform="translate(89.6139 59.3694) rotate(165.501) scale(1.75528 4.62915)">
<stop stop-color="white"/>
<stop offset="0.84" stop-color="white" stop-opacity="0"/>
</radialGradient>
<radialGradient id="paint16_radial_3576_7513" cx="0" cy="0" r="1" gradientUnits="userSpaceOnUse" gradientTransform="translate(85.3078 45.2014) rotate(154.854) scale(1.75528 4.62915)">
<stop stop-color="white"/>
<stop offset="0.84" stop-color="white" stop-opacity="0"/>
</radialGradient>
<linearGradient id="paint17_linear_3576_7513" x1="15.0107" y1="-21.7329" x2="173.076" y2="250.929" gradientUnits="userSpaceOnUse">
<stop offset="0.164786" stop-color="#888888"/>
<stop offset="1" stop-color="#D7D7D7"/>
</linearGradient>
<linearGradient id="paint18_linear_3576_7513" x1="87.1261" y1="18.7713" x2="366.703" y2="235.123" gradientUnits="userSpaceOnUse">
<stop stop-color="#BEBEBE"/>
<stop offset="1" stop-color="#5B5B5B"/>
</linearGradient>
<linearGradient id="paint19_linear_3576_7513" x1="78.2349" y1="201.536" x2="-73.9025" y2="90.8908" gradientUnits="userSpaceOnUse">
<stop stop-color="#949494"/>
<stop offset="1" stop-color="#D8D8D8"/>
</linearGradient>
<linearGradient id="paint20_linear_3576_7513" x1="411.16" y1="-126.451" x2="-11.6633" y2="154.115" gradientUnits="userSpaceOnUse">
<stop stop-color="white" stop-opacity="0.4"/>
<stop offset="1" stop-color="white" stop-opacity="0"/>
</linearGradient>
<linearGradient id="paint21_linear_3576_7513" x1="72.3082" y1="266.736" x2="197.772" y2="9.88019" gradientUnits="userSpaceOnUse">
<stop stop-color="white" stop-opacity="0.13"/>
<stop offset="1" stop-color="white" stop-opacity="0"/>
</linearGradient>
<radialGradient id="paint22_radial_3576_7513" cx="0" cy="0" r="1" gradientTransform="matrix(-14.8186 22.7218 -11.2569 -7.85099 135.536 146.211)" gradientUnits="userSpaceOnUse">
<stop stop-color="white" stop-opacity="0.1"/>
<stop offset="1" stop-color="white" stop-opacity="0"/>
</radialGradient>
<radialGradient id="paint23_radial_3576_7513" cx="0" cy="0" r="1" gradientTransform="matrix(27.0586 1.92485 -1.39909 13.6528 77.4048 15.3487)" gradientUnits="userSpaceOnUse">
<stop stop-color="white" stop-opacity="0.1"/>
<stop offset="1" stop-color="white" stop-opacity="0"/>
</radialGradient>
<radialGradient id="paint24_radial_3576_7513" cx="0" cy="0" r="1" gradientUnits="userSpaceOnUse" gradientTransform="translate(82.4445 32.6027) scale(29.6372 18.2598)">
<stop stop-color="white" stop-opacity="0.22"/>
<stop offset="1" stop-color="white" stop-opacity="0"/>
</radialGradient>
<radialGradient id="paint25_radial_3576_7513" cx="0" cy="0" r="1" gradientTransform="matrix(14.3008 -23.0512 11.4316 7.59436 146.915 74.5085)" gradientUnits="userSpaceOnUse">
<stop stop-color="white" stop-opacity="0.1"/>
<stop offset="1" stop-color="white" stop-opacity="0"/>
</radialGradient>
<radialGradient id="paint26_radial_3576_7513" cx="0" cy="0" r="1" gradientUnits="userSpaceOnUse" gradientTransform="translate(82.4421 52.3605) rotate(90) scale(18.7702)">
<stop stop-color="#FFE86C"/>
<stop offset="1" stop-color="#FF9900"/>
</radialGradient>
<radialGradient id="paint27_radial_3576_7513" cx="0" cy="0" r="1" gradientUnits="userSpaceOnUse" gradientTransform="translate(82.4438 52.3613) rotate(90) scale(14.599)">
<stop stop-color="#FFF5BC"/>
<stop offset="0.765" stop-color="#FFA800"/>
</radialGradient>
<radialGradient id="paint28_radial_3576_7513" cx="0" cy="0" r="1" gradientUnits="userSpaceOnUse" gradientTransform="translate(89.3856 47.7727) rotate(99.6063) scale(1.75528 4.62915)">
<stop stop-color="white"/>
<stop offset="0.84" stop-color="white" stop-opacity="0"/>
</radialGradient>
<radialGradient id="paint29_radial_3576_7513" cx="0" cy="0" r="1" gradientUnits="userSpaceOnUse" gradientTransform="translate(95.0172 48.1476) rotate(99.6063) scale(1.75528 1.88138)">
<stop stop-color="white"/>
<stop offset="0.84" stop-color="white" stop-opacity="0"/>
</radialGradient>
<radialGradient id="paint30_radial_3576_7513" cx="0" cy="0" r="1" gradientUnits="userSpaceOnUse" gradientTransform="translate(76.7182 46.1305) rotate(79.8213) scale(1.2067 2.86849)">
<stop stop-color="white"/>
<stop offset="0.84" stop-color="white" stop-opacity="0"/>
</radialGradient>
<radialGradient id="paint31_radial_3576_7513" cx="0" cy="0" r="1" gradientUnits="userSpaceOnUse" gradientTransform="translate(80.1013 61.1276) rotate(59.0688) scale(1.2067 2.86849)">
<stop stop-color="white"/>
<stop offset="0.84" stop-color="white" stop-opacity="0"/>
</radialGradient>
<radialGradient id="paint32_radial_3576_7513" cx="0" cy="0" r="1" gradientUnits="userSpaceOnUse" gradientTransform="translate(89.8883 59.3694) rotate(165.501) scale(1.75528 4.62915)">
<stop stop-color="white"/>
<stop offset="0.84" stop-color="white" stop-opacity="0"/>
</radialGradient>
<radialGradient id="paint33_radial_3576_7513" cx="0" cy="0" r="1" gradientUnits="userSpaceOnUse" gradientTransform="translate(85.5823 45.2014) rotate(154.854) scale(1.75528 4.62915)">
<stop stop-color="white"/>
<stop offset="0.84" stop-color="white" stop-opacity="0"/>
</radialGradient>
</defs>
</svg>
