<svg width="166" height="221" viewBox="0 0 166 221" fill="none" xmlns="http://www.w3.org/2000/svg">
<path d="M81.7348 8.48535L151.89 59.8564V162.599L81.7348 213.97L11.5796 162.599V59.8564L81.7348 8.48535Z" fill="#B3B3B3"/>
<path d="M81.7352 26.2671L139.913 68.747V153.707L81.7352 196.187L23.5577 153.707V68.747L81.7352 26.2671Z" fill="url(#paint0_linear_2944_10889)"/>
<path d="M23.4486 68.7486L11.5938 59.8574V162.6L23.4486 153.708V68.7486Z" fill="#D2D2D2"/>
<path d="M140.02 68.7486L151.875 59.8574V162.6L140.02 153.708V68.7486Z" fill="#B3B3B3"/>
<path d="M81.7334 26.2676V8.48535L151.875 59.8564L140.02 68.7476L81.7334 26.2676Z" fill="url(#paint1_linear_2944_10889)"/>
<path d="M81.7334 196.189V213.972L11.5921 162.601L23.447 153.709L81.7334 196.189Z" fill="url(#paint2_linear_2944_10889)"/>
<path d="M118.287 52.9414L23.4482 123.083V153.708L140.021 68.7479L118.287 52.9414Z" fill="url(#paint3_linear_2944_10889)"/>
<path d="M45.1816 169.513L37.2783 163.586L140.02 85.5415V95.4206L45.1816 169.513Z" fill="url(#paint4_linear_2944_10889)"/>
<path d="M140.022 153.707L118.289 169.514C110.611 139.625 129.511 124.459 140.022 121.106L140.022 153.707Z" fill="url(#paint5_radial_2944_10889)"/>
<path d="M80.5998 8.25455L104.969 19.582C82.5662 40.8039 60.1321 31.6426 52.0981 24.0809L80.5998 8.25455Z" fill="url(#paint6_radial_2944_10889)"/>
<path d="M81.9913 26.2679L104.713 43.0621C82.3094 64.2841 62.364 53.5878 54.33 46.026L81.9913 26.2679Z" fill="url(#paint7_radial_2944_10889)"/>
<path d="M140.022 68.7486L162.738 51.9945C171.09 81.7018 150.455 95.7831 140.022 99.3728L140.022 68.7486Z" fill="url(#paint8_radial_2944_10889)"/>
<mask id="path-13-outside-1_2944_10889" maskUnits="userSpaceOnUse" x="48.3164" y="70.5913" width="71" height="88" fill="black">
<rect fill="white" x="48.3164" y="70.5913" width="71" height="88"/>
<path d="M80.9229 109.785C83.0094 109.659 84.3687 109.533 85.001 109.406C88.352 109.09 90.9758 108.11 92.8726 106.466C94.7694 104.822 95.6229 102.767 95.4333 100.302C95.2436 97.3299 93.9475 95.117 91.5449 93.6628C89.1423 92.1454 86.2023 91.608 82.7249 92.0505C80.3223 92.3667 78.2358 93.2518 76.4655 94.706C74.7584 96.1602 73.5255 97.8041 72.7668 99.6377C72.3874 100.649 71.7552 101.44 70.87 102.009C70.0481 102.578 69.1313 102.989 68.1197 103.242C67.108 103.494 66.0332 103.589 64.8951 103.526C63.7571 103.463 62.7138 103.305 61.7655 103.052C60.5009 102.673 59.4893 102.135 58.7306 101.44C57.9719 100.744 57.4345 99.9222 57.1183 98.9738C56.8022 98.0254 56.7074 97.0138 56.8338 95.9389C56.9603 94.8009 57.2448 93.6944 57.6874 92.6196C58.2564 91.1022 59.2996 89.5531 60.8171 87.9725C62.3977 86.3286 64.2945 84.8428 66.5074 83.515C68.7835 82.1241 71.3442 80.986 74.1894 80.1008C77.0977 79.2157 80.2274 78.7099 83.5784 78.5834C87.2455 78.5202 90.7229 78.9944 94.0107 80.006C97.3617 80.9544 100.27 82.3454 102.736 84.1789C105.265 85.9492 107.257 88.0673 108.711 90.5331C110.165 92.9989 110.892 95.6544 110.892 98.4996C110.892 103.052 109.691 106.719 107.288 109.501C104.949 112.283 101.787 114.211 97.8042 115.286C101.787 115.792 104.854 117.309 107.004 119.838C109.217 122.304 110.323 125.592 110.323 129.702C110.323 132.61 109.691 135.329 108.426 137.858C107.162 140.324 105.391 142.473 103.115 144.307C100.839 146.14 98.0888 147.563 94.8642 148.575C91.6397 149.649 88.0991 150.187 84.2423 150.187C80.259 150.187 76.6552 149.776 73.4306 148.954C70.2693 148.132 67.5506 147.026 65.2745 145.635C63.0616 144.244 61.3545 142.631 60.1532 140.798C58.9519 138.901 58.3513 136.941 58.3513 134.918C58.3513 133.59 58.6358 132.357 59.2048 131.219C59.8371 130.081 60.7855 129.227 62.05 128.658C62.8087 128.279 63.599 127.994 64.4209 127.805C65.3061 127.615 66.1597 127.552 66.9816 127.615C67.8668 127.678 68.6571 127.9 69.3526 128.279C70.0481 128.595 70.6171 129.101 71.0597 129.796C72.5139 132.262 74.4106 134.033 76.75 135.107C79.0894 136.119 81.8397 136.656 85.001 136.72C86.392 136.72 87.6881 136.562 88.8894 136.245C90.0907 135.929 91.1339 135.455 92.0191 134.823C92.9042 134.127 93.5997 133.305 94.1055 132.357C94.6113 131.409 94.8642 130.334 94.8642 129.133C94.801 127.489 93.9158 126.034 92.2087 124.77C90.5649 123.442 88.5416 122.684 86.1391 122.494C85.7597 122.494 85.001 122.462 83.8629 122.399C82.7249 122.336 81.492 122.273 80.1642 122.209C78.8997 122.083 77.6984 121.988 76.5603 121.925C75.4223 121.862 74.6635 121.83 74.2842 121.83C72.83 121.767 71.7552 121.166 71.0597 120.028C70.4274 118.89 70.1113 117.594 70.1113 116.14C70.1113 114.685 70.4274 113.421 71.0597 112.346C71.7552 111.208 72.83 110.544 74.2842 110.354C76.6868 110.038 78.8997 109.849 80.9229 109.785Z"/>
</mask>
<path d="M80.9229 109.785C83.0094 109.659 84.3687 109.533 85.001 109.406C88.352 109.09 90.9758 108.11 92.8726 106.466C94.7694 104.822 95.6229 102.767 95.4333 100.302C95.2436 97.3299 93.9475 95.117 91.5449 93.6628C89.1423 92.1454 86.2023 91.608 82.7249 92.0505C80.3223 92.3667 78.2358 93.2518 76.4655 94.706C74.7584 96.1602 73.5255 97.8041 72.7668 99.6377C72.3874 100.649 71.7552 101.44 70.87 102.009C70.0481 102.578 69.1313 102.989 68.1197 103.242C67.108 103.494 66.0332 103.589 64.8951 103.526C63.7571 103.463 62.7138 103.305 61.7655 103.052C60.5009 102.673 59.4893 102.135 58.7306 101.44C57.9719 100.744 57.4345 99.9222 57.1183 98.9738C56.8022 98.0254 56.7074 97.0138 56.8338 95.9389C56.9603 94.8009 57.2448 93.6944 57.6874 92.6196C58.2564 91.1022 59.2996 89.5531 60.8171 87.9725C62.3977 86.3286 64.2945 84.8428 66.5074 83.515C68.7835 82.1241 71.3442 80.986 74.1894 80.1008C77.0977 79.2157 80.2274 78.7099 83.5784 78.5834C87.2455 78.5202 90.7229 78.9944 94.0107 80.006C97.3617 80.9544 100.27 82.3454 102.736 84.1789C105.265 85.9492 107.257 88.0673 108.711 90.5331C110.165 92.9989 110.892 95.6544 110.892 98.4996C110.892 103.052 109.691 106.719 107.288 109.501C104.949 112.283 101.787 114.211 97.8042 115.286C101.787 115.792 104.854 117.309 107.004 119.838C109.217 122.304 110.323 125.592 110.323 129.702C110.323 132.61 109.691 135.329 108.426 137.858C107.162 140.324 105.391 142.473 103.115 144.307C100.839 146.14 98.0888 147.563 94.8642 148.575C91.6397 149.649 88.0991 150.187 84.2423 150.187C80.259 150.187 76.6552 149.776 73.4306 148.954C70.2693 148.132 67.5506 147.026 65.2745 145.635C63.0616 144.244 61.3545 142.631 60.1532 140.798C58.9519 138.901 58.3513 136.941 58.3513 134.918C58.3513 133.59 58.6358 132.357 59.2048 131.219C59.8371 130.081 60.7855 129.227 62.05 128.658C62.8087 128.279 63.599 127.994 64.4209 127.805C65.3061 127.615 66.1597 127.552 66.9816 127.615C67.8668 127.678 68.6571 127.9 69.3526 128.279C70.0481 128.595 70.6171 129.101 71.0597 129.796C72.5139 132.262 74.4106 134.033 76.75 135.107C79.0894 136.119 81.8397 136.656 85.001 136.72C86.392 136.72 87.6881 136.562 88.8894 136.245C90.0907 135.929 91.1339 135.455 92.0191 134.823C92.9042 134.127 93.5997 133.305 94.1055 132.357C94.6113 131.409 94.8642 130.334 94.8642 129.133C94.801 127.489 93.9158 126.034 92.2087 124.77C90.5649 123.442 88.5416 122.684 86.1391 122.494C85.7597 122.494 85.001 122.462 83.8629 122.399C82.7249 122.336 81.492 122.273 80.1642 122.209C78.8997 122.083 77.6984 121.988 76.5603 121.925C75.4223 121.862 74.6635 121.83 74.2842 121.83C72.83 121.767 71.7552 121.166 71.0597 120.028C70.4274 118.89 70.1113 117.594 70.1113 116.14C70.1113 114.685 70.4274 113.421 71.0597 112.346C71.7552 111.208 72.83 110.544 74.2842 110.354C76.6868 110.038 78.8997 109.849 80.9229 109.785Z" fill="white"/>
<path d="M80.9229 109.785L81.1698 117.685L81.2855 117.681L81.401 117.674L80.9229 109.785ZM85.001 109.406L84.2587 101.538L83.8518 101.576L83.451 101.656L85.001 109.406ZM92.8726 106.466L98.0487 112.438L98.0487 112.438L92.8726 106.466ZM95.4333 100.302L87.5461 100.805L87.5494 100.856L87.5533 100.908L95.4333 100.302ZM91.5449 93.6628L87.3246 100.345L87.3882 100.385L87.4526 100.424L91.5449 93.6628ZM82.7249 92.0505L81.727 84.2105L81.7104 84.2127L81.6938 84.2148L82.7249 92.0505ZM76.4655 94.706L71.449 88.599L71.3943 88.6439L71.3405 88.6897L76.4655 94.706ZM72.7668 99.6377L65.464 96.6158L65.4133 96.7384L65.3667 96.8626L72.7668 99.6377ZM70.87 102.009L66.5962 95.3606L66.4825 95.4337L66.3714 95.5106L70.87 102.009ZM64.8951 103.526L65.3335 95.635L65.3335 95.635L64.8951 103.526ZM61.7655 103.052L59.4945 110.622L59.6113 110.657L59.7291 110.688L61.7655 103.052ZM58.7306 101.44L53.3902 107.266L53.3902 107.266L58.7306 101.44ZM57.1183 98.9738L64.616 96.4746L64.616 96.4746L57.1183 98.9738ZM56.8338 95.9389L64.6829 96.8624L64.6859 96.837L64.6887 96.8117L56.8338 95.9389ZM57.6874 92.6196L64.9953 95.6287L65.0432 95.5124L65.0874 95.3946L57.6874 92.6196ZM60.8171 87.9725L55.1201 82.4947L55.1158 82.4992L60.8171 87.9725ZM66.5074 83.515L70.5736 90.292L70.6011 90.2755L70.6285 90.2587L66.5074 83.515ZM74.1894 80.1008L71.8882 72.54L71.8649 72.5471L71.8416 72.5544L74.1894 80.1008ZM83.5784 78.5834L83.4422 70.6813L83.3612 70.6827L83.2804 70.6858L83.5784 78.5834ZM94.0107 80.006L91.6865 87.5598L91.7722 87.5861L91.8585 87.6105L94.0107 80.006ZM102.736 84.1789L98.02 90.521L98.1109 90.5886L98.2037 90.6535L102.736 84.1789ZM108.711 90.5331L115.518 86.5184L115.518 86.5184L108.711 90.5331ZM107.288 109.501L101.307 104.335L101.273 104.375L101.239 104.414L107.288 109.501ZM97.8042 115.286L95.7453 107.656L96.8087 123.126L97.8042 115.286ZM107.004 119.838L100.982 124.957L101.051 125.038L101.122 125.117L107.004 119.838ZM108.426 137.858L115.459 141.464L115.477 141.428L115.495 141.392L108.426 137.858ZM103.115 144.307L98.1573 138.152V138.152L103.115 144.307ZM94.8642 148.575L92.4985 141.034L92.4316 141.055L92.365 141.077L94.8642 148.575ZM73.4306 148.954L71.4419 156.603L71.4602 156.608L71.4785 156.612L73.4306 148.954ZM65.2745 145.635L61.0686 152.326L61.1108 152.352L61.1533 152.378L65.2745 145.635ZM60.1532 140.798L53.4764 145.026L53.509 145.078L53.5424 145.129L60.1532 140.798ZM59.2048 131.219L52.2961 127.381L52.2127 127.531L52.1359 127.685L59.2048 131.219ZM62.05 128.658L65.2932 135.866L65.4402 135.799L65.5844 135.727L62.05 128.658ZM64.4209 127.805L62.765 120.077L62.7043 120.09L62.6438 120.104L64.4209 127.805ZM66.9816 127.615L66.3754 135.495L66.397 135.497L66.4185 135.498L66.9816 127.615ZM69.3526 128.279L65.5681 135.217L65.8205 135.355L66.0822 135.474L69.3526 128.279ZM71.0597 129.796L77.8673 125.782L77.7992 125.666L77.7273 125.553L71.0597 129.796ZM76.75 135.107L73.4504 142.289L73.5313 142.326L73.6131 142.361L76.75 135.107ZM85.001 136.72L84.843 144.621L84.922 144.623H85.001V136.72ZM88.8894 136.245L86.8781 128.602L86.8781 128.602L88.8894 136.245ZM92.0191 134.823L96.6127 141.254L96.7598 141.149L96.9019 141.037L92.0191 134.823ZM94.1055 132.357L87.1321 128.638L87.1321 128.638L94.1055 132.357ZM94.8642 129.133H102.767V128.981L102.762 128.829L94.8642 129.133ZM92.2087 124.77L87.2429 130.918L87.3716 131.022L87.5045 131.121L92.2087 124.77ZM86.1391 122.494L86.7611 114.615L86.4505 114.591H86.1391V122.494ZM83.8629 122.399L84.3013 114.508H84.3013L83.8629 122.399ZM80.1642 122.209L79.3778 130.073L79.5827 130.094L79.7883 130.104L80.1642 122.209ZM76.5603 121.925L76.1219 129.816L76.5603 121.925ZM74.2842 121.83L73.9409 129.726L74.1125 129.733H74.2842V121.83ZM71.0597 120.028L64.151 123.866L64.2305 124.009L64.316 124.149L71.0597 120.028ZM71.0597 112.346L64.316 108.225L64.2813 108.282L64.2476 108.339L71.0597 112.346ZM74.2842 110.354L75.3064 118.191L75.3152 118.19L74.2842 110.354ZM80.9229 109.785L81.401 117.674C83.365 117.555 85.2891 117.408 86.5509 117.156L85.001 109.406L83.451 101.656C83.5647 101.634 83.4129 101.667 82.7752 101.726C82.2119 101.779 81.4426 101.836 80.4448 101.897L80.9229 109.785ZM85.001 109.406L85.7433 117.274C90.1828 116.856 94.5462 115.474 98.0487 112.438L92.8726 106.466L87.6965 100.494C87.4055 100.746 86.5212 101.324 84.2587 101.538L85.001 109.406ZM92.8726 106.466L98.0487 112.438C101.805 109.183 103.698 104.702 103.313 99.6954L95.4333 100.302L87.5533 100.908C87.5594 100.987 87.5516 100.987 87.5605 100.926C87.57 100.861 87.5927 100.766 87.6367 100.66C87.6807 100.554 87.7285 100.479 87.7575 100.44C87.7845 100.404 87.7757 100.425 87.6965 100.494L92.8726 106.466ZM95.4333 100.302L103.32 99.7981C102.978 94.4292 100.406 89.7878 95.6372 86.9016L91.5449 93.6628L87.4526 100.424C87.5603 100.489 87.5894 100.522 87.575 100.508C87.5581 100.491 87.5271 100.455 87.4993 100.407C87.4723 100.361 87.4733 100.347 87.4861 100.392C87.5002 100.441 87.5311 100.571 87.5461 100.805L95.4333 100.302ZM91.5449 93.6628L95.7652 86.9807C91.4735 84.2702 86.5866 83.5921 81.727 84.2105L82.7249 92.0505L83.7227 99.8905C85.818 99.6239 86.8111 100.021 87.3246 100.345L91.5449 93.6628ZM82.7249 92.0505L81.6938 84.2148C77.9157 84.712 74.4272 86.1526 71.449 88.599L76.4655 94.706L81.482 100.813C82.0444 100.351 82.7288 100.021 83.7559 99.8862L82.7249 92.0505ZM76.4655 94.706L71.3405 88.6897C68.8057 90.849 66.7604 93.4829 65.464 96.6158L72.7668 99.6377L80.0695 102.659C80.2905 102.125 80.711 101.471 81.5905 100.722L76.4655 94.706ZM72.7668 99.6377L65.3667 96.8626C65.4501 96.6402 65.5976 96.3508 65.8367 96.052C66.0772 95.7514 66.3466 95.5211 66.5962 95.3606L70.87 102.009L75.1437 108.657C77.5015 107.141 79.2069 104.973 80.1668 102.413L72.7668 99.6377ZM70.87 102.009L66.3714 95.5106C66.366 95.5143 66.3308 95.5423 66.2028 95.5743L68.1197 103.242L70.0365 110.909C71.9318 110.435 73.7301 109.641 75.3686 108.507L70.87 102.009ZM68.1197 103.242L66.2028 95.5743C66.0287 95.6178 65.753 95.6583 65.3335 95.635L64.8951 103.526L64.4567 111.417C66.3134 111.52 68.1874 111.371 70.0365 110.909L68.1197 103.242ZM64.8951 103.526L65.3335 95.635C64.6512 95.5971 64.152 95.5089 63.8018 95.4155L61.7655 103.052L59.7291 110.688C61.2757 111.101 62.863 111.329 64.4567 111.417L64.8951 103.526ZM61.7655 103.052L64.0364 95.4819C63.8279 95.4194 63.7505 95.3765 63.7662 95.3848C63.7856 95.3951 63.9053 95.4617 64.071 95.6137L58.7306 101.44L53.3902 107.266C55.2395 108.961 57.4003 109.994 59.4945 110.622L61.7655 103.052ZM58.7306 101.44L64.071 95.6137C64.154 95.6898 64.2645 95.8101 64.3733 95.9765C64.4827 96.1439 64.5633 96.3164 64.616 96.4746L57.1183 98.9738L49.6207 101.473C50.3744 103.734 51.6719 105.69 53.3902 107.266L58.7306 101.44ZM57.1183 98.9738L64.616 96.4746C64.6514 96.5808 64.671 96.6824 64.6789 96.7661C64.6865 96.8478 64.6804 96.884 64.6829 96.8624L56.8338 95.9389L48.9847 95.0155C48.734 97.1465 48.9079 99.3346 49.6207 101.473L57.1183 98.9738ZM56.8338 95.9389L64.6887 96.8117C64.7324 96.419 64.8297 96.031 64.9953 95.6287L57.6874 92.6196L50.3794 89.6104C49.6599 91.3579 49.1882 93.1828 48.9789 95.0662L56.8338 95.9389ZM57.6874 92.6196L65.0874 95.3946C65.1717 95.1698 65.4979 94.5087 66.5184 93.4457L60.8171 87.9725L55.1158 82.4992C53.1014 84.5975 51.3411 87.0345 50.2873 89.8446L57.6874 92.6196ZM60.8171 87.9725L66.514 93.4503C67.5521 92.3706 68.882 91.3069 70.5736 90.292L66.5074 83.515L62.4412 76.7381C59.7069 78.3786 57.2433 80.2866 55.1201 82.4947L60.8171 87.9725ZM66.5074 83.515L70.6285 90.2587C72.2885 89.2443 74.2424 88.3612 76.5371 87.6473L74.1894 80.1008L71.8416 72.5544C68.4459 73.6108 65.2786 75.0038 62.3863 76.7713L66.5074 83.515ZM74.1894 80.1008L76.4905 87.6617C78.6855 86.9936 81.1358 86.5845 83.8764 86.481L83.5784 78.5834L83.2804 70.6858C79.3191 70.8353 75.51 71.4377 71.8882 72.54L74.1894 80.1008ZM83.5784 78.5834L83.7146 86.4855C86.6037 86.4357 89.2466 86.809 91.6865 87.5598L94.0107 80.006L96.3349 72.4522C92.1993 71.1798 87.8874 70.6047 83.4422 70.6813L83.5784 78.5834ZM94.0107 80.006L91.8585 87.6105C94.4074 88.332 96.4206 89.3317 98.02 90.521L102.736 84.1789L107.452 77.8369C104.12 75.359 100.316 73.5768 96.1629 72.4015L94.0107 80.006ZM102.736 84.1789L98.2037 90.6535C99.8808 91.8275 101.067 93.1298 101.903 94.5479L108.711 90.5331L115.518 86.5184C113.446 83.0049 110.649 80.071 107.268 77.7043L102.736 84.1789ZM108.711 90.5331L101.903 94.5478C102.645 95.8052 102.989 97.0756 102.989 98.4996H110.892H118.795C118.795 94.2332 117.685 90.1926 115.518 86.5184L108.711 90.5331ZM110.892 98.4996H102.989C102.989 101.624 102.194 103.308 101.307 104.335L107.288 109.501L113.269 114.667C117.187 110.13 118.795 104.48 118.795 98.4996H110.892ZM107.288 109.501L101.239 104.414C100.075 105.798 98.3882 106.943 95.7453 107.656L97.8042 115.286L99.8632 122.916C105.187 121.48 109.822 118.767 113.337 114.587L107.288 109.501ZM97.8042 115.286L96.8087 123.126C99.2676 123.439 100.366 124.232 100.982 124.957L107.004 119.838L113.025 114.72C109.342 110.387 104.307 108.145 98.7998 107.446L97.8042 115.286ZM107.004 119.838L101.122 125.117C101.74 125.806 102.42 127.052 102.42 129.702H110.323H118.226C118.226 124.131 116.693 118.802 112.886 114.56L107.004 119.838ZM110.323 129.702H102.42C102.42 131.419 102.057 132.924 101.357 134.323L108.426 137.858L115.495 141.392C117.324 137.734 118.226 133.801 118.226 129.702H110.323ZM108.426 137.858L101.394 134.251C100.662 135.678 99.6191 136.975 98.1573 138.152L103.115 144.307L108.073 150.461C111.164 147.972 113.661 144.969 115.459 141.464L108.426 137.858ZM103.115 144.307L98.1573 138.152C96.7613 139.277 94.9253 140.272 92.4985 141.034L94.8642 148.575L97.23 156.115C101.252 154.854 104.917 153.004 108.073 150.461L103.115 144.307ZM94.8642 148.575L92.365 141.077C90.0468 141.85 87.3624 142.284 84.2423 142.284V150.187V158.09C88.8358 158.09 93.2326 157.449 97.3635 156.072L94.8642 148.575ZM84.2423 150.187V142.284C80.7926 142.284 77.8588 141.927 75.3828 141.296L73.4306 148.954L71.4785 156.612C75.4516 157.625 79.7255 158.09 84.2423 158.09V150.187ZM73.4306 148.954L75.4194 141.305C72.8475 140.636 70.8802 139.798 69.3956 138.891L65.2745 145.635L61.1533 152.378C64.221 154.253 67.6911 155.628 71.4419 156.603L73.4306 148.954ZM65.2745 145.635L69.4804 138.943C68.0469 138.042 67.2344 137.185 66.7639 136.467L60.1532 140.798L53.5424 145.129C55.4746 148.078 58.0762 150.445 61.0686 152.326L65.2745 145.635ZM60.1532 140.798L66.83 136.569C66.339 135.794 66.2545 135.283 66.2545 134.918H58.3513H50.448C50.448 138.599 51.5648 142.008 53.4764 145.026L60.1532 140.798ZM58.3513 134.918H66.2545C66.2545 134.823 66.2642 134.78 66.2655 134.774C66.2666 134.77 66.2672 134.768 66.2674 134.767C66.2677 134.767 66.2692 134.762 66.2737 134.753L59.2048 131.219L52.1359 127.685C50.9941 129.968 50.448 132.418 50.448 134.918H58.3513ZM59.2048 131.219L66.1135 135.057C66.0141 135.236 65.8658 135.43 65.6773 135.6C65.4929 135.766 65.3426 135.843 65.2932 135.866L62.05 128.658L58.8068 121.451C56.097 122.671 53.8109 124.654 52.2961 127.381L59.2048 131.219ZM62.05 128.658L65.5844 135.727C65.7875 135.626 65.9882 135.554 66.1981 135.506L64.4209 127.805L62.6438 120.104C61.2098 120.435 59.8298 120.932 58.5155 121.589L62.05 128.658ZM64.4209 127.805L66.0769 135.533C66.1862 135.509 66.2625 135.5 66.3088 135.497C66.3545 135.493 66.3753 135.495 66.3754 135.495L66.9816 127.615L67.5877 119.735C65.9381 119.608 64.3207 119.744 62.765 120.077L64.4209 127.805ZM66.9816 127.615L66.4185 135.498C66.3108 135.491 65.9796 135.442 65.5681 135.217L69.3526 128.279L73.1371 121.341C71.3345 120.358 69.4227 119.866 67.5447 119.732L66.9816 127.615ZM69.3526 128.279L66.0822 135.474C65.7116 135.305 65.3597 135.077 65.0503 134.802C64.7445 134.531 64.5314 134.259 64.392 134.039L71.0597 129.796L77.7273 125.553C76.5303 123.672 74.8239 122.085 72.6229 121.084L69.3526 128.279ZM71.0597 129.796L64.2521 133.811C66.4296 137.504 69.4839 140.466 73.4504 142.289L76.75 135.107L80.0496 127.926C79.3374 127.599 78.5981 127.021 77.8673 125.782L71.0597 129.796ZM76.75 135.107L73.6131 142.361C77.0908 143.865 80.8948 144.542 84.843 144.621L85.001 136.72L85.159 128.818C82.7846 128.771 81.0879 128.373 79.8869 127.853L76.75 135.107ZM85.001 136.72V144.623C86.9909 144.623 88.9699 144.397 90.9007 143.889L88.8894 136.245L86.8781 128.602C86.4062 128.727 85.793 128.816 85.001 128.816V136.72ZM88.8894 136.245L90.9007 143.889C92.899 143.363 94.8449 142.517 96.6127 141.254L92.0191 134.823L87.4254 128.392C87.4229 128.394 87.2823 128.496 86.8781 128.602L88.8894 136.245ZM92.0191 134.823L96.9019 141.037C98.6079 139.697 100.033 138.038 101.079 136.076L94.1055 132.357L87.1321 128.638C87.1367 128.629 87.1431 128.618 87.1509 128.607C87.1586 128.596 87.1659 128.586 87.1713 128.58C87.1768 128.573 87.1783 128.572 87.1741 128.576C87.1699 128.58 87.158 128.591 87.1363 128.608L92.0191 134.823ZM94.1055 132.357L101.079 136.076C102.264 133.854 102.767 131.476 102.767 129.133H94.8642H86.961C86.961 129.177 86.9566 129.135 86.9814 129.03C87.0071 128.92 87.0549 128.783 87.1321 128.638L94.1055 132.357ZM94.8642 129.133L102.762 128.829C102.581 124.123 99.9382 120.66 96.913 118.419L92.2087 124.77L87.5045 131.121C87.7338 131.291 87.6042 131.251 87.402 130.918C87.1699 130.537 86.9888 130.008 86.9668 129.436L94.8642 129.133ZM92.2087 124.77L97.1746 118.622C94.1218 116.156 90.5221 114.912 86.7611 114.615L86.1391 122.494L85.517 130.373C86.5611 130.455 87.008 130.729 87.2429 130.918L92.2087 124.77ZM86.1391 122.494V114.591C86.1437 114.591 86.1042 114.591 86.0029 114.588C85.9068 114.585 85.7789 114.581 85.6145 114.574C85.2848 114.56 84.85 114.538 84.3013 114.508L83.8629 122.399L83.4245 130.29C84.5258 130.351 85.5037 130.397 86.1391 130.397V122.494ZM83.8629 122.399L84.3013 114.508C83.1394 114.443 81.8854 114.379 80.5401 114.315L80.1642 122.209L79.7883 130.104C81.0985 130.166 82.3104 130.228 83.4245 130.29L83.8629 122.399ZM80.1642 122.209L80.9506 114.345C79.5832 114.209 78.2653 114.104 76.9987 114.034L76.5603 121.925L76.1219 129.816C77.1315 129.872 78.2161 129.957 79.3778 130.073L80.1642 122.209ZM76.5603 121.925L76.9987 114.034C75.8975 113.973 74.9196 113.927 74.2842 113.927V121.83V129.733C74.2795 129.733 74.319 129.733 74.4204 129.736C74.5164 129.739 74.6444 129.743 74.8087 129.75C75.1385 129.764 75.5733 129.785 76.1219 129.816L76.5603 121.925ZM74.2842 121.83L74.6275 113.934C74.9095 113.946 75.5238 114.031 76.2428 114.433C76.9884 114.85 77.5036 115.416 77.8034 115.907L71.0597 120.028L64.316 124.149C66.5252 127.764 70.1413 129.561 73.9409 129.726L74.2842 121.83ZM71.0597 120.028L77.9683 116.19C77.9844 116.219 77.9981 116.248 78.0088 116.276C78.0195 116.303 78.0247 116.322 78.0265 116.33C78.0283 116.337 78.0255 116.327 78.0221 116.298C78.0187 116.269 78.0145 116.217 78.0145 116.14H70.1113H62.208C62.208 118.777 62.7929 121.422 64.151 123.866L71.0597 120.028ZM70.1113 116.14H78.0145C78.0145 115.985 78.0312 115.955 78.0156 116.017C78.008 116.048 77.9937 116.096 77.969 116.157C77.9442 116.218 77.9119 116.285 77.8717 116.353L71.0597 112.346L64.2476 108.339C62.7897 110.817 62.208 113.513 62.208 116.14H70.1113ZM71.0597 112.346L77.8034 116.467C77.541 116.897 77.1179 117.362 76.5405 117.719C75.9837 118.063 75.5126 118.164 75.3064 118.191L74.2842 110.354L73.262 102.518C69.7056 102.981 66.3932 104.826 64.316 108.225L71.0597 112.346ZM74.2842 110.354L75.3152 118.19C77.5065 117.902 79.4539 117.738 81.1698 117.685L80.9229 109.785L80.6761 101.886C78.3455 101.959 75.8671 102.175 73.2532 102.519L74.2842 110.354Z" fill="#979797" mask="url(#path-13-outside-1_2944_10889)"/>
<path d="M78.6487 40.7165C80.0405 37.9893 83.9374 37.9893 85.3292 40.7165L86.7485 43.4978C87.2934 44.5655 88.3159 45.3084 89.4997 45.4967L92.5835 45.9871C95.6073 46.468 96.8115 50.1741 94.6478 52.3406L92.4413 54.5499C91.5942 55.3981 91.2037 56.6001 91.3905 57.7842L91.8769 60.8685C92.354 63.893 89.2014 66.1835 86.4724 64.7952L83.6893 63.3794C82.6209 62.8359 81.357 62.8359 80.2886 63.3794L77.5055 64.7952C74.7765 66.1835 71.6239 63.893 72.101 60.8685L72.5875 57.7842C72.7742 56.6001 72.3837 55.3981 71.5366 54.5499L69.3301 52.3406C67.1664 50.1741 68.3706 46.468 71.3944 45.9871L74.4782 45.4967C75.662 45.3084 76.6845 44.5655 77.2294 43.4978L78.6487 40.7165Z" fill="url(#paint9_radial_2944_10889)"/>
<path d="M80.3205 41.6158C81.0164 40.2522 82.9649 40.2522 83.6608 41.6158L85.9334 46.0691C86.2059 46.603 86.7171 46.9744 87.309 47.0686L92.2467 47.8539C93.7586 48.0943 94.3607 49.9474 93.2789 51.0306L89.7458 54.5682C89.3223 54.9923 89.127 55.5933 89.2204 56.1853L89.9993 61.124C90.2378 62.6362 88.6615 63.7814 87.297 63.0873L82.8408 60.8203C82.3066 60.5486 81.6747 60.5486 81.1405 60.8203L76.6843 63.0873C75.3198 63.7814 73.7435 62.6362 73.982 61.124L74.7609 56.1853C74.8543 55.5933 74.659 54.9923 74.2355 54.5682L70.7024 51.0306C69.6206 49.9474 70.2227 48.0943 71.7346 47.8539L76.6723 47.0686C77.2642 46.9744 77.7754 46.603 78.0479 46.0691L80.3205 41.6158Z" fill="url(#paint10_radial_2944_10889)"/>
<path d="M84.4602 47.5802C84.2352 46.1312 85.7029 46.0269 86.4649 46.1559C87.2269 46.2848 89.3031 46.7538 91.5117 47.5979C94.2725 48.6531 93.5076 49.6993 92.8393 50.1741C91.8943 50.8456 90.4566 50.3587 88.7421 50.0685C87.0276 49.7784 84.7416 49.3915 84.4602 47.5802Z" fill="url(#paint11_radial_2944_10889)"/>
<path d="M92.7481 48.4047C92.7944 47.0017 93.4254 46.7557 93.735 46.8082C94.0447 46.8606 94.8771 47.119 95.7288 47.7335C96.7934 48.5015 96.3677 49.6052 96.0387 50.1374C95.5734 50.8901 95.0129 50.5517 94.316 50.4337C93.6192 50.3158 92.6901 50.1586 92.7481 48.4047Z" fill="url(#paint12_radial_2944_10889)" fill-opacity="0.56"/>
<path d="M73.495 47.1975C73.0432 46.3069 73.8729 45.9151 74.3443 45.8304C74.8157 45.7458 76.126 45.5915 77.5964 45.6514C79.4344 45.7262 79.2217 46.5741 78.9386 47.0298C78.5383 47.6742 77.595 47.6759 76.5344 47.8663C75.4739 48.0567 74.0598 48.3106 73.495 47.1975Z" fill="url(#paint13_radial_2944_10889)" fill-opacity="0.5"/>
<path d="M77.23 63.1445C76.4919 62.4719 77.129 61.8114 77.5398 61.5653C77.9506 61.3191 79.1212 60.7105 80.5175 60.2455C82.2627 59.6642 82.3643 60.5325 82.261 61.0589C82.115 61.8034 81.2335 62.1392 80.3092 62.693C79.3849 63.2469 78.1525 63.9853 77.23 63.1445Z" fill="url(#paint14_radial_2944_10889)" fill-opacity="0.5"/>
<path d="M88.3147 55.5523C89.5455 54.7551 90.2401 56.0523 90.4336 56.8005C90.6271 57.5487 91.0469 59.6354 91.1785 61.9962C91.3429 64.9471 90.0754 64.6762 89.3691 64.2601C88.3703 63.6717 88.2275 62.1606 87.7921 60.477C87.3568 58.7935 86.7763 56.5488 88.3147 55.5523Z" fill="url(#paint15_radial_2944_10889)"/>
<path d="M83.2154 41.6671C84.2776 40.6562 85.2 41.8027 85.5284 42.5023C85.8568 43.2019 86.6549 45.175 87.2204 47.4708C87.9272 50.3406 86.6315 50.3085 85.8605 50.0301C84.7702 49.6364 84.3506 48.1777 83.6117 46.6036C82.8728 45.0295 81.8876 42.9307 83.2154 41.6671Z" fill="url(#paint16_radial_2944_10889)"/>
<path d="M81.7348 8.48584L151.89 59.8569V162.599L81.7348 213.97L11.5796 162.599V59.8569L81.7348 8.48584Z" fill="black" fill-opacity="0.3"/>
<path d="M9.45215 194.965L43.8041 187.297L49.9383 213.674L16.1998 220.422L20.4938 206.006L9.45215 194.965Z" fill="#ABABAB"/>
<path d="M9.45215 194.965L43.8041 187.297L49.9383 213.674L16.1998 220.422L20.4938 206.006L9.45215 194.965Z" fill="black" fill-opacity="0.3"/>
<path d="M155.452 194.965L121.1 187.297L114.966 213.674L148.704 220.422L144.41 206.006L155.452 194.965Z" fill="#ABABAB"/>
<path d="M155.452 194.965L121.1 187.297L114.966 213.674L148.704 220.422L144.41 206.006L155.452 194.965Z" fill="black" fill-opacity="0.3"/>
<path d="M114.963 213.671L116.803 200.176L134.286 203.402L114.963 213.671Z" fill="#939393"/>
<path d="M114.963 213.671L116.803 200.176L134.286 203.402L114.963 213.671Z" fill="black" fill-opacity="0.3"/>
<path d="M139.507 177.786C95.3572 167.177 70.3654 167.556 25.4092 177.786L30.93 203.55C71.2967 196.593 93.9256 195.902 134.292 203.55L139.507 177.786Z" fill="#D2D2D2"/>
<path d="M139.507 177.786C95.3572 167.177 70.3654 167.556 25.4092 177.786L30.93 203.55C71.2967 196.593 93.9256 195.902 134.292 203.55L139.507 177.786Z" fill="black" fill-opacity="0.3"/>
<path d="M49.9381 213.672L48.0978 200.79L30.9219 203.55L49.9381 213.672Z" fill="#939393"/>
<path d="M49.9381 213.672L48.0978 200.79L30.9219 203.55L49.9381 213.672Z" fill="black" fill-opacity="0.3"/>
<defs>
<linearGradient id="paint0_linear_2944_10889" x1="14.5576" y1="-21.1524" x2="172.622" y2="251.51" gradientUnits="userSpaceOnUse">
<stop offset="0.164786" stop-color="#888888"/>
<stop offset="1" stop-color="#D7D7D7"/>
</linearGradient>
<linearGradient id="paint1_linear_2944_10889" x1="86.6729" y1="19.3523" x2="366.25" y2="235.704" gradientUnits="userSpaceOnUse">
<stop stop-color="#BEBEBE"/>
<stop offset="1" stop-color="#5B5B5B"/>
</linearGradient>
<linearGradient id="paint2_linear_2944_10889" x1="77.7818" y1="202.117" x2="-74.3557" y2="91.4714" gradientUnits="userSpaceOnUse">
<stop stop-color="#949494"/>
<stop offset="1" stop-color="#D8D8D8"/>
</linearGradient>
<linearGradient id="paint3_linear_2944_10889" x1="410.707" y1="-125.869" x2="-12.1164" y2="154.696" gradientUnits="userSpaceOnUse">
<stop stop-color="white" stop-opacity="0.4"/>
<stop offset="1" stop-color="white" stop-opacity="0"/>
</linearGradient>
<linearGradient id="paint4_linear_2944_10889" x1="71.855" y1="267.316" x2="197.319" y2="10.4608" gradientUnits="userSpaceOnUse">
<stop stop-color="white" stop-opacity="0.13"/>
<stop offset="1" stop-color="white" stop-opacity="0"/>
</linearGradient>
<radialGradient id="paint5_radial_2944_10889" cx="0" cy="0" r="1" gradientTransform="matrix(-14.8186 22.7218 -11.2569 -7.85099 135.083 146.792)" gradientUnits="userSpaceOnUse">
<stop stop-color="white" stop-opacity="0.1"/>
<stop offset="1" stop-color="white" stop-opacity="0"/>
</radialGradient>
<radialGradient id="paint6_radial_2944_10889" cx="0" cy="0" r="1" gradientTransform="matrix(27.0586 1.92485 -1.39909 13.6528 76.9517 15.9297)" gradientUnits="userSpaceOnUse">
<stop stop-color="white" stop-opacity="0.1"/>
<stop offset="1" stop-color="white" stop-opacity="0"/>
</radialGradient>
<radialGradient id="paint7_radial_2944_10889" cx="0" cy="0" r="1" gradientUnits="userSpaceOnUse" gradientTransform="translate(81.9913 33.1833) scale(29.6372 18.2598)">
<stop stop-color="white" stop-opacity="0.22"/>
<stop offset="1" stop-color="white" stop-opacity="0"/>
</radialGradient>
<radialGradient id="paint8_radial_2944_10889" cx="0" cy="0" r="1" gradientTransform="matrix(14.3008 -23.0512 11.4316 7.59436 146.462 75.0895)" gradientUnits="userSpaceOnUse">
<stop stop-color="white" stop-opacity="0.1"/>
<stop offset="1" stop-color="white" stop-opacity="0"/>
</radialGradient>
<radialGradient id="paint9_radial_2944_10889" cx="0" cy="0" r="1" gradientUnits="userSpaceOnUse" gradientTransform="translate(81.989 52.9416) rotate(90) scale(18.7702)">
<stop stop-color="#FFE86C"/>
<stop offset="1" stop-color="#FF9900"/>
</radialGradient>
<radialGradient id="paint10_radial_2944_10889" cx="0" cy="0" r="1" gradientUnits="userSpaceOnUse" gradientTransform="translate(81.9906 52.9423) rotate(90) scale(14.599)">
<stop stop-color="#FFF5BC"/>
<stop offset="0.765" stop-color="#FFA800"/>
</radialGradient>
<radialGradient id="paint11_radial_2944_10889" cx="0" cy="0" r="1" gradientUnits="userSpaceOnUse" gradientTransform="translate(88.9325 48.3537) rotate(99.6063) scale(1.75528 4.62915)">
<stop stop-color="white"/>
<stop offset="0.84" stop-color="white" stop-opacity="0"/>
</radialGradient>
<radialGradient id="paint12_radial_2944_10889" cx="0" cy="0" r="1" gradientUnits="userSpaceOnUse" gradientTransform="translate(94.564 48.7287) rotate(99.6063) scale(1.75528 1.88138)">
<stop stop-color="white"/>
<stop offset="0.84" stop-color="white" stop-opacity="0"/>
</radialGradient>
<radialGradient id="paint13_radial_2944_10889" cx="0" cy="0" r="1" gradientUnits="userSpaceOnUse" gradientTransform="translate(76.2651 46.7116) rotate(79.8213) scale(1.2067 2.86849)">
<stop stop-color="white"/>
<stop offset="0.84" stop-color="white" stop-opacity="0"/>
</radialGradient>
<radialGradient id="paint14_radial_2944_10889" cx="0" cy="0" r="1" gradientUnits="userSpaceOnUse" gradientTransform="translate(79.6482 61.7086) rotate(59.0688) scale(1.2067 2.86849)">
<stop stop-color="white"/>
<stop offset="0.84" stop-color="white" stop-opacity="0"/>
</radialGradient>
<radialGradient id="paint15_radial_2944_10889" cx="0" cy="0" r="1" gradientUnits="userSpaceOnUse" gradientTransform="translate(89.4351 59.9505) rotate(165.501) scale(1.75528 4.62915)">
<stop stop-color="white"/>
<stop offset="0.84" stop-color="white" stop-opacity="0"/>
</radialGradient>
<radialGradient id="paint16_radial_2944_10889" cx="0" cy="0" r="1" gradientUnits="userSpaceOnUse" gradientTransform="translate(85.1291 45.7825) rotate(154.854) scale(1.75528 4.62915)">
<stop stop-color="white"/>
<stop offset="0.84" stop-color="white" stop-opacity="0"/>
</radialGradient>
</defs>
</svg>
