<svg width="166" height="220" viewBox="0 0 166 220" fill="none" xmlns="http://www.w3.org/2000/svg">
<path d="M81.9135 7.9043L152.069 59.2754V162.018L81.9135 213.389L11.7583 162.018V59.2754L81.9135 7.9043Z" fill="#B3B3B3"/>
<path d="M81.9139 25.6865L140.091 68.1665V153.126L81.9139 195.606L23.7364 153.126V68.1665L81.9139 25.6865Z" fill="url(#paint0_linear_3576_7577)"/>
<path d="M23.6273 68.1675L11.7725 59.2764V162.019L23.6273 153.127V68.1675Z" fill="#D2D2D2"/>
<path d="M140.199 68.1675L152.054 59.2764V162.019L140.199 153.127V68.1675Z" fill="#B3B3B3"/>
<path d="M81.9121 25.6866V7.9043L152.053 59.2754L140.199 68.1665L81.9121 25.6866Z" fill="url(#paint1_linear_3576_7577)"/>
<path d="M81.9121 195.609V213.391L11.7708 162.02L23.6257 153.129L81.9121 195.609Z" fill="url(#paint2_linear_3576_7577)"/>
<path d="M118.466 52.3604L23.627 122.502V153.127L140.2 68.1668L118.466 52.3604Z" fill="url(#paint3_linear_3576_7577)"/>
<path d="M45.3603 168.933L37.457 163.005L140.199 84.9609V94.84L45.3603 168.933Z" fill="url(#paint4_linear_3576_7577)"/>
<path d="M140.201 153.127L118.467 168.933C110.79 139.045 129.69 123.879 140.201 120.526L140.201 153.127Z" fill="url(#paint5_radial_3576_7577)"/>
<path d="M80.7785 7.6735L105.148 19.0009C82.7449 40.2229 60.3108 31.0616 52.2768 23.4998L80.7785 7.6735Z" fill="url(#paint6_radial_3576_7577)"/>
<path d="M82.17 25.6874L104.891 42.4816C82.4881 63.7035 62.5427 53.0073 54.5087 45.4455L82.17 25.6874Z" fill="url(#paint7_radial_3576_7577)"/>
<path d="M140.201 68.1675L162.917 51.4134C171.269 81.1207 150.634 95.202 140.201 98.7918L140.201 68.1675Z" fill="url(#paint8_radial_3576_7577)"/>
<mask id="path-13-outside-1_3576_7577" maskUnits="userSpaceOnUse" x="47.4951" y="69.0103" width="54" height="88" fill="black">
<rect fill="white" x="47.4951" y="69.0103" width="54" height="88"/>
<path d="M89.8268 78.0972C91.9133 78.3501 93.0197 79.3933 93.1462 81.2269C93.2726 85.0204 93.3675 89.4463 93.4307 94.5043C93.4939 99.4992 93.5255 104.715 93.5255 110.153C93.5888 115.527 93.5888 120.838 93.5255 126.086C93.4623 131.27 93.3991 135.949 93.3358 140.122C93.2726 142.904 92.6404 145.022 91.4391 146.476C90.2378 147.93 88.1829 148.721 85.2745 148.847C83.7571 148.91 82.5558 148.752 81.6707 148.373C80.7855 148.057 80.09 147.519 79.5842 146.761C79.1416 146.002 78.8255 145.053 78.6358 143.915C78.4461 142.777 78.3197 141.481 78.2565 140.027C77.9403 133.135 77.6558 126.022 77.4029 118.688C77.2132 111.291 77.0236 104.083 76.8339 97.065C76.0752 97.3811 75.0952 97.8237 73.8939 98.3927C72.6926 98.8985 71.3964 99.4676 70.0055 100.1C68.6777 100.732 67.3184 101.333 65.9274 101.902C64.5997 102.408 63.43 102.755 62.4184 102.945C61.2171 103.198 60.2055 103.071 59.3835 102.566C58.5616 101.997 57.7713 100.953 57.0125 99.436C56.2538 97.9185 55.9061 96.654 55.9693 95.6424C56.0958 94.5676 56.5067 93.7456 57.2022 93.1766C58.3403 92.2914 59.6996 91.2798 61.2803 90.1417C62.8609 89.0037 64.5048 87.8656 66.2119 86.7275C67.919 85.5263 69.5629 84.3566 71.1435 83.2185C72.7874 82.0804 74.21 81.1004 75.4113 80.2785C76.4861 79.5198 77.4661 78.9824 78.3513 78.6662C79.2365 78.3501 80.1849 78.1288 81.1965 78.0024C82.461 77.8759 83.9152 77.8443 85.5591 77.9075C87.2029 77.9075 88.6255 77.9707 89.8268 78.0972Z"/>
</mask>
<path d="M89.8268 78.0972C91.9133 78.3501 93.0197 79.3933 93.1462 81.2269C93.2726 85.0204 93.3675 89.4463 93.4307 94.5043C93.4939 99.4992 93.5255 104.715 93.5255 110.153C93.5888 115.527 93.5888 120.838 93.5255 126.086C93.4623 131.27 93.3991 135.949 93.3358 140.122C93.2726 142.904 92.6404 145.022 91.4391 146.476C90.2378 147.93 88.1829 148.721 85.2745 148.847C83.7571 148.91 82.5558 148.752 81.6707 148.373C80.7855 148.057 80.09 147.519 79.5842 146.761C79.1416 146.002 78.8255 145.053 78.6358 143.915C78.4461 142.777 78.3197 141.481 78.2565 140.027C77.9403 133.135 77.6558 126.022 77.4029 118.688C77.2132 111.291 77.0236 104.083 76.8339 97.065C76.0752 97.3811 75.0952 97.8237 73.8939 98.3927C72.6926 98.8985 71.3964 99.4676 70.0055 100.1C68.6777 100.732 67.3184 101.333 65.9274 101.902C64.5997 102.408 63.43 102.755 62.4184 102.945C61.2171 103.198 60.2055 103.071 59.3835 102.566C58.5616 101.997 57.7713 100.953 57.0125 99.436C56.2538 97.9185 55.9061 96.654 55.9693 95.6424C56.0958 94.5676 56.5067 93.7456 57.2022 93.1766C58.3403 92.2914 59.6996 91.2798 61.2803 90.1417C62.8609 89.0037 64.5048 87.8656 66.2119 86.7275C67.919 85.5263 69.5629 84.3566 71.1435 83.2185C72.7874 82.0804 74.21 81.1004 75.4113 80.2785C76.4861 79.5198 77.4661 78.9824 78.3513 78.6662C79.2365 78.3501 80.1849 78.1288 81.1965 78.0024C82.461 77.8759 83.9152 77.8443 85.5591 77.9075C87.2029 77.9075 88.6255 77.9707 89.8268 78.0972Z" fill="white"/>
<path d="M89.8268 78.0972L90.7778 70.2514L90.716 70.2439L90.6541 70.2374L89.8268 78.0972ZM93.1462 81.2269L101.045 80.9636L101.04 80.8232L101.031 80.6831L93.1462 81.2269ZM93.4307 94.5043L85.5281 94.6031L85.5281 94.6044L93.4307 94.5043ZM93.5255 110.153H85.6223V110.199L85.6228 110.246L93.5255 110.153ZM93.5255 126.086L101.428 126.182L101.428 126.181L93.5255 126.086ZM93.3358 140.122L101.237 140.301L101.238 140.272L101.238 140.242L93.3358 140.122ZM91.4391 146.476L85.346 141.443L85.346 141.443L91.4391 146.476ZM85.2745 148.847L85.6036 156.743L85.6107 156.743L85.6178 156.743L85.2745 148.847ZM81.6707 148.373L84.7839 141.109L84.5591 141.012L84.3288 140.93L81.6707 148.373ZM79.5842 146.761L72.7575 150.743L72.8769 150.947L73.0083 151.145L79.5842 146.761ZM78.6358 143.915L86.4315 142.616L86.4315 142.616L78.6358 143.915ZM78.2565 140.027L86.1522 139.684L86.1518 139.674L86.1514 139.665L78.2565 140.027ZM77.4029 118.688L69.5023 118.891L69.5032 118.926L69.5044 118.961L77.4029 118.688ZM76.8339 97.065L84.7342 96.8515L84.4231 85.3409L73.7942 89.7697L76.8339 97.065ZM73.8939 98.3927L76.9608 105.677L77.1205 105.609L77.2771 105.535L73.8939 98.3927ZM70.0055 100.1L66.7351 92.905L66.6711 92.9341L66.6076 92.9643L70.0055 100.1ZM65.9274 101.902L68.7409 109.287L68.8308 109.253L68.9198 109.217L65.9274 101.902ZM62.4184 102.945L60.9619 95.1771L60.8759 95.1932L60.7902 95.2113L62.4184 102.945ZM59.3835 102.566L54.8849 109.064L55.06 109.185L55.2414 109.297L59.3835 102.566ZM57.0125 99.436L64.0814 95.9015L64.0814 95.9015L57.0125 99.436ZM55.9693 95.6424L48.1202 94.719L48.0949 94.9337L48.0815 95.1494L55.9693 95.6424ZM57.2022 93.1766L52.3501 86.9381L52.2731 86.998L52.1976 87.0598L57.2022 93.1766ZM61.2803 90.1417L65.8982 96.5555H65.8982L61.2803 90.1417ZM66.2119 86.7275L70.5958 93.3034L70.6787 93.2482L70.7602 93.1909L66.2119 86.7275ZM71.1435 83.2185L66.6449 76.7205L66.5849 76.7621L66.5256 76.8047L71.1435 83.2185ZM75.4113 80.2785L79.8741 86.8011L79.9218 86.7685L79.969 86.7352L75.4113 80.2785ZM78.3513 78.6662L75.6932 71.2234L75.6932 71.2234L78.3513 78.6662ZM81.1965 78.0024L80.4101 70.1383L80.313 70.148L80.2162 70.1601L81.1965 78.0024ZM85.5591 77.9075L85.2553 85.8049L85.4071 85.8108H85.5591V77.9075ZM89.8268 78.0972L88.8758 85.943C88.8697 85.9423 87.8658 85.8247 86.7998 84.8196C85.6167 83.7041 85.3051 82.4008 85.2617 81.7706L93.1462 81.2269L101.031 80.6831C100.861 78.2194 99.9327 75.4777 97.6432 73.319C95.4708 71.2707 92.8704 70.505 90.7778 70.2514L89.8268 78.0972ZM93.1462 81.2269L85.2473 81.4902C85.3715 85.2144 85.4653 89.5831 85.5281 94.6031L93.4307 94.5043L101.333 94.4056C101.27 89.3094 101.174 84.8265 101.045 80.9636L93.1462 81.2269ZM93.4307 94.5043L85.5281 94.6044C85.5908 99.5631 85.6223 104.746 85.6223 110.153H93.5255H101.429C101.429 104.685 101.397 99.4353 101.333 94.4043L93.4307 94.5043ZM93.5255 110.153L85.6228 110.246C85.6853 115.559 85.6853 120.807 85.6229 125.99L93.5255 126.086L101.428 126.181C101.492 120.869 101.492 115.495 101.428 110.06L93.5255 110.153ZM93.5255 126.086L85.6229 125.989C85.5597 131.168 85.4966 135.839 85.4335 140.002L93.3358 140.122L101.238 140.242C101.302 136.059 101.365 131.373 101.428 126.182L93.5255 126.086ZM93.3358 140.122L85.4346 139.942C85.4151 140.801 85.3114 141.301 85.2412 141.536C85.1764 141.753 85.167 141.659 85.346 141.443L91.4391 146.476L97.5322 151.509C100.291 148.17 101.152 144.046 101.237 140.301L93.3358 140.122ZM91.4391 146.476L85.346 141.443C85.5329 141.216 85.7274 141.049 85.8926 140.935C86.053 140.825 86.1565 140.784 86.1599 140.783C86.1603 140.783 86.0701 140.817 85.8602 140.856C85.6504 140.895 85.3462 140.933 84.9312 140.951L85.2745 148.847L85.6178 156.743C89.5557 156.572 94.2852 155.44 97.5322 151.509L91.4391 146.476ZM85.2745 148.847L84.9455 140.951C84.7448 140.959 84.588 140.959 84.4713 140.955C84.354 140.95 84.288 140.943 84.2665 140.94C84.2446 140.937 84.2811 140.941 84.3651 140.962C84.4492 140.984 84.5946 141.027 84.7839 141.109L81.6707 148.373L78.5574 155.637C80.9762 156.674 83.5154 156.83 85.6036 156.743L85.2745 148.847ZM81.6707 148.373L84.3288 140.93C84.6146 141.032 84.9634 141.205 85.3176 141.479C85.6739 141.754 85.9552 142.069 86.1601 142.377L79.5842 146.761L73.0083 151.145C74.4878 153.364 76.5793 154.947 79.0125 155.816L81.6707 148.373ZM79.5842 146.761L86.4109 142.778C86.4982 142.928 86.522 143.009 86.5128 142.981C86.5034 142.953 86.4686 142.839 86.4315 142.616L78.6358 143.915L70.8401 145.215C71.1406 147.018 71.7068 148.941 72.7575 150.743L79.5842 146.761ZM78.6358 143.915L86.4315 142.616C86.3061 141.864 86.205 140.896 86.1522 139.684L78.2565 140.027L70.3607 140.37C70.4344 142.066 70.5862 143.691 70.8401 145.215L78.6358 143.915ZM78.2565 140.027L86.1514 139.665C85.8367 132.805 85.5534 125.722 85.3015 118.416L77.4029 118.688L69.5044 118.961C69.7582 126.323 70.0439 133.466 70.3615 140.389L78.2565 140.027ZM77.4029 118.688L85.3036 118.486C85.1138 111.085 84.924 103.873 84.7342 96.8515L76.8339 97.065L68.9335 97.2785C69.1231 104.293 69.3127 111.497 69.5023 118.891L77.4029 118.688ZM76.8339 97.065L73.7942 89.7697C72.8716 90.1541 71.7654 90.6559 70.5106 91.2503L73.8939 98.3927L77.2771 105.535C78.4249 104.992 79.2788 104.608 79.8736 104.36L76.8339 97.065ZM73.8939 98.3927L70.827 91.1088C69.547 91.6477 68.1823 92.2471 66.7351 92.905L70.0055 100.1L73.2759 107.295C74.6105 106.688 75.8381 106.149 76.9608 105.677L73.8939 98.3927ZM70.0055 100.1L66.6076 92.9643C65.4162 93.5316 64.1921 94.0727 62.935 94.5869L65.9274 101.902L68.9198 109.217C70.4446 108.593 71.9393 107.933 73.4033 107.235L70.0055 100.1ZM65.9274 101.902L63.1139 94.5163C62.0734 94.9127 61.3737 95.0999 60.9619 95.1771L62.4184 102.945L63.8748 110.713C65.4862 110.411 67.1259 109.902 68.7409 109.287L65.9274 101.902ZM62.4184 102.945L60.7902 95.2113C60.8773 95.1929 61.2185 95.1326 61.7389 95.1976C62.2899 95.2665 62.9203 95.4623 63.5256 95.8348L59.3835 102.566L55.2414 109.297C58.2208 111.13 61.4257 111.23 64.0465 110.679L62.4184 102.945ZM59.3835 102.566L63.8821 96.0677C64.1162 96.2297 64.2734 96.3735 64.3614 96.4615C64.4494 96.5495 64.4846 96.5981 64.4739 96.584C64.4638 96.5706 64.4208 96.5119 64.3497 96.3944C64.279 96.2776 64.1886 96.1159 64.0814 95.9015L57.0125 99.436L49.9437 102.97C50.9336 104.95 52.4561 107.382 54.8849 109.064L59.3835 102.566ZM57.0125 99.436L64.0814 95.9015C63.9791 95.6968 63.9097 95.5386 63.8643 95.4245C63.8419 95.3682 63.8265 95.3256 63.8166 95.2963C63.8066 95.2669 63.8028 95.253 63.8031 95.2539C63.8033 95.2548 63.8083 95.2731 63.8154 95.3078C63.8225 95.3426 63.8322 95.3965 63.8412 95.4683C63.8589 95.6098 63.8758 95.8377 63.8572 96.1354L55.9693 95.6424L48.0815 95.1494C47.891 98.1968 48.9336 100.95 49.9437 102.97L57.0125 99.436ZM55.9693 95.6424L63.8184 96.5658C63.7933 96.7794 63.7106 97.2156 63.4413 97.7543C63.16 98.3168 62.7414 98.856 62.2069 99.2934L57.2022 93.1766L52.1976 87.0598C49.6028 89.1828 48.434 92.0519 48.1202 94.719L55.9693 95.6424ZM57.2022 93.1766L62.0543 99.415C63.0941 98.6063 64.3713 97.6549 65.8982 96.5555L61.2803 90.1417L56.6624 83.728C55.028 84.9048 53.5864 85.9766 52.3501 86.9381L57.2022 93.1766ZM61.2803 90.1417L65.8982 96.5555C67.3979 95.4757 68.9635 94.3916 70.5958 93.3034L66.2119 86.7275L61.828 80.1516C60.0461 81.3396 58.324 82.5316 56.6624 83.728L61.2803 90.1417ZM66.2119 86.7275L70.7602 93.1909C72.4889 91.9743 74.1561 90.7881 75.7614 89.6323L71.1435 83.2185L66.5256 76.8047C64.9697 77.925 63.3491 79.0782 61.6637 80.2642L66.2119 86.7275ZM71.1435 83.2185L75.6421 89.7165C77.2782 88.5839 78.6882 87.6125 79.8741 86.8011L75.4113 80.2785L70.9485 73.7559C69.7318 74.5884 68.2967 75.577 66.6449 76.7205L71.1435 83.2185ZM75.4113 80.2785L79.969 86.7352C80.3043 86.4985 80.5646 86.3391 80.7526 86.2361C80.9424 86.1319 81.0259 86.1032 81.0094 86.1091L78.3513 78.6662L75.6932 71.2234C73.9241 71.8552 72.2998 72.801 70.8536 73.8218L75.4113 80.2785ZM78.3513 78.6662L81.0094 86.1091C81.308 86.0024 81.6895 85.9055 82.1768 85.8446L81.1965 78.0024L80.2162 70.1601C78.6802 70.3521 77.165 70.6978 75.6932 71.2234L78.3513 78.6662ZM81.1965 78.0024L81.9829 85.8664C82.7979 85.7849 83.8754 85.7519 85.2553 85.8049L85.5591 77.9075L85.8628 70.0101C83.9549 69.9367 82.1241 69.9669 80.4101 70.1383L81.1965 78.0024ZM85.5591 77.9075V85.8108C87.0177 85.8108 88.1508 85.8677 88.9995 85.957L89.8268 78.0972L90.6541 70.2374C89.1003 70.0738 87.3881 70.0043 85.5591 70.0043V77.9075Z" fill="#979797" mask="url(#path-13-outside-1_3576_7577)"/>
<path d="M78.8275 40.1355C80.2192 37.4083 84.1161 37.4083 85.5079 40.1355L86.9272 42.9167C87.4721 43.9845 88.4946 44.7273 89.6784 44.9156L92.7622 45.4061C95.786 45.887 96.9902 49.5931 94.8266 51.7595L92.62 53.9689C91.773 54.817 91.3824 56.019 91.5692 57.2031L92.0557 60.2875C92.5327 63.3119 89.3801 65.6024 86.6511 64.2141L83.868 62.7983C82.7996 62.2548 81.5357 62.2548 80.4673 62.7983L77.6842 64.2141C74.9552 65.6024 71.8026 63.3119 72.2797 60.2875L72.7662 57.2031C72.9529 56.019 72.5624 54.817 71.7153 53.9689L69.5088 51.7595C67.3451 49.5931 68.5493 45.887 71.5731 45.4061L74.6569 44.9156C75.8407 44.7273 76.8632 43.9845 77.4081 42.9167L78.8275 40.1355Z" fill="url(#paint9_radial_3576_7577)"/>
<path d="M80.4993 41.0348C81.1951 39.6712 83.1436 39.6712 83.8395 41.0348L86.1121 45.4881C86.3846 46.0219 86.8958 46.3934 87.4877 46.4875L92.4254 47.2728C93.9373 47.5133 94.5394 49.3663 93.4576 50.4495L89.9245 53.9871C89.501 54.4112 89.3057 55.0122 89.3991 55.6043L90.178 60.5429C90.4166 62.0551 88.8402 63.2004 87.4757 62.5062L83.0195 60.2393C82.4853 59.9675 81.8534 59.9675 81.3192 60.2393L76.863 62.5062C75.4985 63.2004 73.9222 62.0551 74.1607 60.5429L74.9396 55.6042C75.033 55.0122 74.8377 54.4112 74.4142 53.9871L70.8812 50.4495C69.7993 49.3663 70.4014 47.5133 71.9133 47.2728L76.851 46.4875C77.4429 46.3934 77.9541 46.0219 78.2266 45.4881L80.4993 41.0348Z" fill="url(#paint10_radial_3576_7577)"/>
<path d="M84.6389 46.9992C84.4139 45.5502 85.8816 45.4459 86.6436 45.5748C87.4056 45.7038 89.4818 46.1728 91.6905 47.0169C94.4512 48.072 93.6863 49.1183 93.0181 49.5931C92.073 50.2645 90.6353 49.7777 88.9208 49.4875C87.2063 49.1973 84.9203 48.8104 84.6389 46.9992Z" fill="url(#paint11_radial_3576_7577)"/>
<path d="M92.9268 47.8237C92.9731 46.4206 93.6041 46.1747 93.9138 46.2271C94.2235 46.2795 95.0558 46.538 95.9075 47.1524C96.9721 47.9205 96.5464 49.0242 96.2174 49.5564C95.7521 50.309 95.1916 49.9706 94.4948 49.8527C93.7979 49.7348 92.8689 49.5775 92.9268 47.8237Z" fill="url(#paint12_radial_3576_7577)" fill-opacity="0.56"/>
<path d="M73.6737 46.6164C73.2219 45.7259 74.0517 45.334 74.523 45.2494C74.9944 45.1647 76.3047 45.0105 77.7751 45.0703C79.6131 45.1452 79.4005 45.9931 79.1174 46.4487C78.717 47.0932 77.7737 47.0948 76.7131 47.2853C75.6526 47.4757 74.2385 47.7296 73.6737 46.6164Z" fill="url(#paint13_radial_3576_7577)" fill-opacity="0.5"/>
<path d="M77.4087 62.5635C76.6706 61.8908 77.3077 61.2304 77.7185 60.9842C78.1293 60.738 79.2999 60.1295 80.6962 59.6644C82.4415 59.0832 82.543 59.9514 82.4397 60.4778C82.2937 61.2223 81.4122 61.5581 80.4879 62.112C79.5636 62.6658 78.3312 63.4043 77.4087 62.5635Z" fill="url(#paint14_radial_3576_7577)" fill-opacity="0.5"/>
<path d="M88.4934 54.9713C89.7242 54.174 90.4188 55.4712 90.6123 56.2194C90.8058 56.9677 91.2256 59.0543 91.3572 61.4151C91.5216 64.3661 90.2541 64.0951 89.5478 63.6791C88.549 63.0907 88.4062 61.5795 87.9708 59.896C87.5355 58.2125 86.955 55.9678 88.4934 54.9713Z" fill="url(#paint15_radial_3576_7577)"/>
<path d="M83.3941 41.086C84.4563 40.0751 85.3787 41.2216 85.7071 41.9212C86.0355 42.6208 86.8337 44.5939 87.3991 46.8898C88.1059 49.7596 86.8102 49.7275 86.0392 49.4491C84.9489 49.0554 84.5293 47.5966 83.7904 46.0225C83.0515 44.4484 82.0663 42.3496 83.3941 41.086Z" fill="url(#paint16_radial_3576_7577)"/>
<path d="M9.63086 194.384L43.9828 186.716L50.117 213.093L16.3786 219.841L20.6725 205.425L9.63086 194.384Z" fill="#ABABAB"/>
<path d="M9.63086 194.384L43.9828 186.716L50.117 213.093L16.3786 219.841L20.6725 205.425L9.63086 194.384Z" fill="black" fill-opacity="0.3"/>
<path d="M155.631 194.384L121.279 186.716L115.145 213.093L148.883 219.841L144.589 205.425L155.631 194.384Z" fill="#ABABAB"/>
<path d="M155.631 194.384L121.279 186.716L115.145 213.093L148.883 219.841L144.589 205.425L155.631 194.384Z" fill="black" fill-opacity="0.3"/>
<path d="M115.142 213.091L116.982 199.596L134.465 202.822L115.142 213.091Z" fill="#939393"/>
<path d="M115.142 213.091L116.982 199.596L134.465 202.822L115.142 213.091Z" fill="black" fill-opacity="0.3"/>
<path d="M139.685 177.206C95.5359 166.597 70.5441 166.976 25.5879 177.206L31.1087 202.97C71.4754 196.013 94.1043 195.322 134.471 202.97L139.685 177.206Z" fill="#D2D2D2"/>
<path d="M139.685 177.206C95.5359 166.597 70.5441 166.976 25.5879 177.206L31.1087 202.97C71.4754 196.013 94.1043 195.322 134.471 202.97L139.685 177.206Z" fill="black" fill-opacity="0.3"/>
<path d="M50.1168 213.091L48.2765 200.209L31.1006 202.97L50.1168 213.091Z" fill="#939393"/>
<path d="M50.1168 213.091L48.2765 200.209L31.1006 202.97L50.1168 213.091Z" fill="black" fill-opacity="0.3"/>
<defs>
<linearGradient id="paint0_linear_3576_7577" x1="14.7363" y1="-21.7329" x2="172.801" y2="250.929" gradientUnits="userSpaceOnUse">
<stop offset="0.164786" stop-color="#888888"/>
<stop offset="1" stop-color="#D7D7D7"/>
</linearGradient>
<linearGradient id="paint1_linear_3576_7577" x1="86.8516" y1="18.7713" x2="366.429" y2="235.123" gradientUnits="userSpaceOnUse">
<stop stop-color="#BEBEBE"/>
<stop offset="1" stop-color="#5B5B5B"/>
</linearGradient>
<linearGradient id="paint2_linear_3576_7577" x1="77.9605" y1="201.536" x2="-74.1769" y2="90.8908" gradientUnits="userSpaceOnUse">
<stop stop-color="#949494"/>
<stop offset="1" stop-color="#D8D8D8"/>
</linearGradient>
<linearGradient id="paint3_linear_3576_7577" x1="410.886" y1="-126.451" x2="-11.9377" y2="154.115" gradientUnits="userSpaceOnUse">
<stop stop-color="white" stop-opacity="0.4"/>
<stop offset="1" stop-color="white" stop-opacity="0"/>
</linearGradient>
<linearGradient id="paint4_linear_3576_7577" x1="72.0337" y1="266.736" x2="197.498" y2="9.88019" gradientUnits="userSpaceOnUse">
<stop stop-color="white" stop-opacity="0.13"/>
<stop offset="1" stop-color="white" stop-opacity="0"/>
</linearGradient>
<radialGradient id="paint5_radial_3576_7577" cx="0" cy="0" r="1" gradientTransform="matrix(-14.8186 22.7218 -11.2569 -7.85099 135.262 146.211)" gradientUnits="userSpaceOnUse">
<stop stop-color="white" stop-opacity="0.1"/>
<stop offset="1" stop-color="white" stop-opacity="0"/>
</radialGradient>
<radialGradient id="paint6_radial_3576_7577" cx="0" cy="0" r="1" gradientTransform="matrix(27.0586 1.92485 -1.39909 13.6528 77.1304 15.3487)" gradientUnits="userSpaceOnUse">
<stop stop-color="white" stop-opacity="0.1"/>
<stop offset="1" stop-color="white" stop-opacity="0"/>
</radialGradient>
<radialGradient id="paint7_radial_3576_7577" cx="0" cy="0" r="1" gradientUnits="userSpaceOnUse" gradientTransform="translate(82.17 32.6027) scale(29.6372 18.2598)">
<stop stop-color="white" stop-opacity="0.22"/>
<stop offset="1" stop-color="white" stop-opacity="0"/>
</radialGradient>
<radialGradient id="paint8_radial_3576_7577" cx="0" cy="0" r="1" gradientTransform="matrix(14.3008 -23.0512 11.4316 7.59436 146.64 74.5085)" gradientUnits="userSpaceOnUse">
<stop stop-color="white" stop-opacity="0.1"/>
<stop offset="1" stop-color="white" stop-opacity="0"/>
</radialGradient>
<radialGradient id="paint9_radial_3576_7577" cx="0" cy="0" r="1" gradientUnits="userSpaceOnUse" gradientTransform="translate(82.1677 52.3605) rotate(90) scale(18.7702)">
<stop stop-color="#FFE86C"/>
<stop offset="1" stop-color="#FF9900"/>
</radialGradient>
<radialGradient id="paint10_radial_3576_7577" cx="0" cy="0" r="1" gradientUnits="userSpaceOnUse" gradientTransform="translate(82.1694 52.3613) rotate(90) scale(14.599)">
<stop stop-color="#FFF5BC"/>
<stop offset="0.765" stop-color="#FFA800"/>
</radialGradient>
<radialGradient id="paint11_radial_3576_7577" cx="0" cy="0" r="1" gradientUnits="userSpaceOnUse" gradientTransform="translate(89.1112 47.7727) rotate(99.6063) scale(1.75528 4.62915)">
<stop stop-color="white"/>
<stop offset="0.84" stop-color="white" stop-opacity="0"/>
</radialGradient>
<radialGradient id="paint12_radial_3576_7577" cx="0" cy="0" r="1" gradientUnits="userSpaceOnUse" gradientTransform="translate(94.7427 48.1476) rotate(99.6063) scale(1.75528 1.88138)">
<stop stop-color="white"/>
<stop offset="0.84" stop-color="white" stop-opacity="0"/>
</radialGradient>
<radialGradient id="paint13_radial_3576_7577" cx="0" cy="0" r="1" gradientUnits="userSpaceOnUse" gradientTransform="translate(76.4438 46.1305) rotate(79.8213) scale(1.2067 2.86849)">
<stop stop-color="white"/>
<stop offset="0.84" stop-color="white" stop-opacity="0"/>
</radialGradient>
<radialGradient id="paint14_radial_3576_7577" cx="0" cy="0" r="1" gradientUnits="userSpaceOnUse" gradientTransform="translate(79.8269 61.1276) rotate(59.0688) scale(1.2067 2.86849)">
<stop stop-color="white"/>
<stop offset="0.84" stop-color="white" stop-opacity="0"/>
</radialGradient>
<radialGradient id="paint15_radial_3576_7577" cx="0" cy="0" r="1" gradientUnits="userSpaceOnUse" gradientTransform="translate(89.6139 59.3694) rotate(165.501) scale(1.75528 4.62915)">
<stop stop-color="white"/>
<stop offset="0.84" stop-color="white" stop-opacity="0"/>
</radialGradient>
<radialGradient id="paint16_radial_3576_7577" cx="0" cy="0" r="1" gradientUnits="userSpaceOnUse" gradientTransform="translate(85.3078 45.2014) rotate(154.854) scale(1.75528 4.62915)">
<stop stop-color="white"/>
<stop offset="0.84" stop-color="white" stop-opacity="0"/>
</radialGradient>
</defs>
</svg>
