<svg width="24" height="24" viewBox="0 0 24 24" fill="none" xmlns="http://www.w3.org/2000/svg">
<path d="M7.25 4V20H7.19727C6.07935 20 5.5192 20 5.0918 19.7822C4.71553 19.5905 4.40953 19.2844 4.21777 18.9082C3.99979 18.4804 4 17.9199 4 16.7998V7.2002C4 6.08017 3.99983 5.51961 4.21777 5.0918C4.40952 4.71547 4.71547 4.40952 5.0918 4.21777C5.51961 3.99983 6.08017 4 7.2002 4H7.25ZM16.7998 4C17.9197 4 18.4794 3.9999 18.9072 4.21777C19.2836 4.40952 19.5905 4.71547 19.7822 5.0918C20 5.5192 20 6.07935 20 7.19727V16.8037C20 17.9215 20 18.4808 19.7822 18.9082C19.5905 19.2844 19.2835 19.5905 18.9072 19.7822C18.4798 19.9999 17.9205 20 16.8027 20H8.75V4H16.7998ZM12 10.25C11.5858 10.25 11.25 10.5858 11.25 11C11.25 11.4142 11.5858 11.75 12 11.75H16C16.4142 11.75 16.75 11.4142 16.75 11C16.75 10.5858 16.4142 10.25 16 10.25H12ZM12 7.25C11.5858 7.25 11.25 7.58579 11.25 8C11.25 8.41421 11.5858 8.75 12 8.75H16C16.4142 8.75 16.75 8.41421 16.75 8C16.75 7.58579 16.4142 7.25 16 7.25H12Z" fill="url(#paint0_linear_8808_1551)"/>
<defs>
<linearGradient id="paint0_linear_8808_1551" x1="3.99611" y1="19.9961" x2="19.9883" y2="3.98833" gradientUnits="userSpaceOnUse">
<stop stop-color="#8100B3"/>
<stop offset="1" stop-color="#DD00FF"/>
</linearGradient>
</defs>
</svg>
